<svg width="24" height="25" viewBox="0 0 24 25" fill="none" xmlns="http://www.w3.org/2000/svg">
<path d="M18.1386 3.53576H17.3926V2.7809C17.3926 2.34961 17.043 2 16.6117 2C16.1804 2 15.8308 2.34961 15.8308 2.7809V3.53576H8.16913V2.7809C8.16913 2.34961 7.81952 2 7.38823 2C6.95693 2 6.60732 2.34961 6.60732 2.7809V3.53576H5.86137C3.7322 3.53576 2 5.26796 2 7.39709V18.1297C2 20.2589 3.7322 21.9911 5.86137 21.9911H18.1387C20.2678 21.9911 22 20.2589 22 18.1297V7.39709C22 5.26796 20.2678 3.53576 18.1386 3.53576ZM5.86137 5.09757H6.60732V6.62033C6.60732 7.05162 6.95693 7.40123 7.38823 7.40123C7.81952 7.40123 8.16913 7.05162 8.16913 6.62033V5.09757H15.8309V6.62033C15.8309 7.05162 16.1805 7.40123 16.6118 7.40123C17.0431 7.40123 17.3927 7.05162 17.3927 6.62033V5.09757H18.1387C19.4066 5.09757 20.4382 6.12914 20.4382 7.39709V8.14308H3.5618V7.39709C3.5618 6.12914 4.59338 5.09757 5.86137 5.09757ZM18.1386 20.4293H5.86137C4.59338 20.4293 3.5618 19.3977 3.5618 18.1297V9.70489H20.4382V18.1297C20.4382 19.3977 19.4066 20.4293 18.1386 20.4293ZM8.93703 12.7765C8.93703 13.2077 8.58742 13.5574 8.15613 13.5574H6.62036C6.18907 13.5574 5.83946 13.2077 5.83946 12.7765C5.83946 12.3452 6.18907 11.9955 6.62036 11.9955H8.15613C8.58738 11.9955 8.93703 12.3452 8.93703 12.7765ZM18.1606 12.7765C18.1606 13.2077 17.811 13.5574 17.3797 13.5574H15.8439C15.4126 13.5574 15.063 13.2077 15.063 12.7765C15.063 12.3452 15.4126 11.9955 15.8439 11.9955H17.3797C17.8109 11.9955 18.1606 12.3452 18.1606 12.7765ZM13.5444 12.7765C13.5444 13.2077 13.1947 13.5574 12.7634 13.5574H11.2277C10.7964 13.5574 10.4468 13.2077 10.4468 12.7765C10.4468 12.3452 10.7964 11.9955 11.2277 11.9955H12.7634C13.1947 11.9955 13.5444 12.3452 13.5444 12.7765ZM8.93703 17.3838C8.93703 17.8151 8.58742 18.1647 8.15613 18.1647H6.62036C6.18907 18.1647 5.83946 17.8151 5.83946 17.3838C5.83946 16.9525 6.18907 16.6029 6.62036 16.6029H8.15613C8.58738 16.6029 8.93703 16.9525 8.93703 17.3838ZM18.1606 17.3838C18.1606 17.8151 17.811 18.1647 17.3797 18.1647H15.8439C15.4126 18.1647 15.063 17.8151 15.063 17.3838C15.063 16.9525 15.4126 16.6029 15.8439 16.6029H17.3797C17.8109 16.6029 18.1606 16.9525 18.1606 17.3838ZM13.5444 17.3838C13.5444 17.8151 13.1947 18.1647 12.7634 18.1647H11.2277C10.7964 18.1647 10.4468 17.8151 10.4468 17.3838C10.4468 16.9525 10.7964 16.6029 11.2277 16.6029H12.7634C13.1947 16.6029 13.5444 16.9525 13.5444 17.3838Z" fill="#252525"/>
</svg>
