<svg width="33" height="32" viewBox="0 0 33 32" fill="none" xmlns="http://www.w3.org/2000/svg">
<path d="M10.1246 22.8889L10.5 23.1067V22.6727V6.25C10.5 4.58736 11.6828 3.14367 13.3108 2.81802L25.8108 0.31802C26.0365 0.272895 26.2684 0.25 26.5 0.25C28.4297 0.25 30 1.82032 30 3.75V24.5C30 27.1189 27.8689 29.25 25.25 29.25C22.6311 29.25 20.5 27.1189 20.5 24.5C20.5 21.8811 22.6311 19.75 25.25 19.75C26.1148 19.75 26.9253 19.9833 27.6246 20.3889L28 20.6066V20.1726V9.82331V9.51836L27.701 9.57817L12.701 12.5782L12.5 12.6184V12.8233V27C12.5 29.6189 10.3689 31.75 7.75 31.75C5.13107 31.75 3 29.6189 3 27C3 24.3811 5.13107 22.25 7.75 22.25C8.61478 22.25 9.42525 22.4833 10.1246 22.8889ZM27.799 7.51896L28 7.47876V7.27381V3.75C28 2.92268 27.3273 2.25 26.5 2.25C26.4001 2.25 26.3002 2.25976 26.2029 2.27925L13.7031 4.77923C13.005 4.91883 12.5 5.53733 12.5 6.25V10.2738V10.5788L12.799 10.519L27.799 7.51896ZM5 27C5 28.5166 6.23343 29.75 7.75 29.75C9.26657 29.75 10.5 28.5166 10.5 27C10.5 25.4834 9.26657 24.25 7.75 24.25C6.23343 24.25 5 25.4834 5 27ZM22.5 24.5C22.5 26.0166 23.7334 27.25 25.25 27.25C26.7666 27.25 28 26.0166 28 24.5C28 22.9834 26.7666 21.75 25.25 21.75C23.7334 21.75 22.5 22.9834 22.5 24.5Z" fill="#FCD600" stroke="white" stroke-width="0.5"/>
</svg>
