<svg width="24" height="24" viewBox="0 0 24 24" fill="none" xmlns="http://www.w3.org/2000/svg">
<path opacity="0.4" d="M17.9897 10.7734V14.7734C17.9917 15.024 17.9784 15.2744 17.9497 15.5234C17.7197 18.2234 16.1298 19.5634 13.1997 19.5634H12.7998C12.6756 19.5638 12.5532 19.5928 12.4422 19.6484C12.3311 19.7039 12.2344 19.7843 12.1596 19.8834L10.9599 21.4834C10.8583 21.6463 10.7168 21.7807 10.5488 21.8739C10.3809 21.967 10.192 22.0159 9.99996 22.0159C9.80791 22.0159 9.61902 21.967 9.45108 21.8739C9.28313 21.7807 9.14166 21.6463 9.04 21.4834L7.83981 19.8834C7.75978 19.7901 7.66194 19.7138 7.55201 19.6588C7.44209 19.6039 7.3223 19.5714 7.19967 19.5634H6.79977C3.60983 19.5634 2.00977 18.7734 2.00977 14.7734V10.7734C2.00977 7.84338 3.35987 6.25338 6.04977 6.02338C6.2987 5.99459 6.54918 5.98123 6.79977 5.98338H13.1997C16.3896 5.98339 17.9862 7.58006 17.9897 10.7734Z" fill="url(#paint0_linear_2189_11807)"/>
<path d="M10.0039 13.9834H9.99902C9.73415 13.9827 9.48036 13.877 9.29341 13.6894C9.10646 13.5017 9.00163 13.2475 9.00195 12.9827C9.00228 12.7178 9.10773 12.4639 9.29513 12.2767C9.48254 12.0895 9.73659 11.9844 10.0015 11.9844C10.2663 11.9844 10.5204 12.0895 10.7078 12.2767C10.8952 12.4639 11.0006 12.7178 11.001 12.9827C11.0013 13.2475 10.8965 13.5017 10.7095 13.6894C10.5226 13.877 10.2688 13.9827 10.0039 13.9834Z" fill="url(#paint1_linear_2189_11807)"/>
<path d="M13.501 13.9834H13.4961C13.231 13.9828 12.9769 13.8769 12.7898 13.6891C12.6027 13.5012 12.4977 13.2468 12.498 12.9817C12.4984 12.7166 12.6039 12.4624 12.7915 12.275C12.9791 12.0877 13.2334 11.9824 13.4985 11.9824C13.7637 11.9824 14.018 12.0877 14.2056 12.275C14.3932 12.4624 14.4987 12.7166 14.499 12.9817C14.4993 13.2468 14.3944 13.5012 14.2073 13.6891C14.0201 13.8769 13.7661 13.9828 13.501 13.9834Z" fill="url(#paint2_linear_2189_11807)"/>
<path d="M6.50586 13.9834H6.50098C6.2361 13.9827 5.98232 13.877 5.79536 13.6894C5.60841 13.5017 5.50358 13.2475 5.50391 12.9827C5.50423 12.7178 5.60968 12.4639 5.79709 12.2767C5.9845 12.0895 6.23854 11.9844 6.50342 11.9844C6.76829 11.9844 7.02234 12.0895 7.20974 12.2767C7.39715 12.4639 7.5026 12.7178 7.50293 12.9827C7.50325 13.2475 7.39842 13.5017 7.21147 13.6894C7.02452 13.877 6.77073 13.9827 6.50586 13.9834Z" fill="url(#paint3_linear_2189_11807)"/>
<path d="M21.9888 6.7734V10.7734C21.9888 13.7134 20.6421 15.2967 17.9488 15.5234C17.9775 15.2745 17.9908 15.024 17.9888 14.7734V10.7734C17.9888 7.5834 16.3921 5.98673 13.1988 5.9834H6.79883C6.54824 5.98125 6.29776 5.99461 6.04883 6.0234C6.27883 3.3334 7.86865 1.9834 10.7988 1.9834H17.1988C20.3887 1.98341 21.9854 3.58008 21.9888 6.7734Z" fill="url(#paint4_linear_2189_11807)"/>
<defs>
<linearGradient id="paint0_linear_2189_11807" x1="2.00967" y1="13.9997" x2="17.9897" y2="13.9997" gradientUnits="userSpaceOnUse">
<stop stop-color="#16B0E2"/>
<stop offset="1" stop-color="#6E5AF0"/>
</linearGradient>
<linearGradient id="paint1_linear_2189_11807" x1="8.99875" y1="12.9837" x2="11.0008" y2="12.9837" gradientUnits="userSpaceOnUse">
<stop stop-color="#16B0E2"/>
<stop offset="1" stop-color="#6E5AF0"/>
</linearGradient>
<linearGradient id="paint2_linear_2189_11807" x1="12.4958" y1="12.9837" x2="14.4988" y2="12.9837" gradientUnits="userSpaceOnUse">
<stop stop-color="#16B0E2"/>
<stop offset="1" stop-color="#6E5AF0"/>
</linearGradient>
<linearGradient id="paint3_linear_2189_11807" x1="5.50076" y1="12.9837" x2="7.50276" y2="12.9837" gradientUnits="userSpaceOnUse">
<stop stop-color="#16B0E2"/>
<stop offset="1" stop-color="#6E5AF0"/>
</linearGradient>
<linearGradient id="paint4_linear_2189_11807" x1="6.04878" y1="8.75368" x2="21.9888" y2="8.75368" gradientUnits="userSpaceOnUse">
<stop stop-color="#16B0E2"/>
<stop offset="1" stop-color="#6E5AF0"/>
</linearGradient>
</defs>
</svg>
