<svg width="39" height="53" viewBox="0 0 39 53" fill="none" xmlns="http://www.w3.org/2000/svg">
<g clip-path="url(#clip0_1592_40952)">
<path d="M16.1791 33.0733L21.965 52.2032L26.7182 45.4873L34.57 48.3361L28.3708 29.8175L16.1791 33.0733Z" fill="#CD3414"/>
<g opacity="0.7">
<path d="M19.4369 38.4021L18.8266 38.5856L22.6948 51.0697L23.3052 50.8863L19.4369 38.4021Z" fill="#FFCE45"/>
</g>
<g opacity="0.7">
<path d="M28.2629 32.7715L27.6542 32.9603L32.4075 47.8165L33.0162 47.6276L28.2629 32.7715Z" fill="#FFCE45"/>
</g>
<path d="M9.15404 31.038L2.95486 48.7438L11.4266 45.8944L15.7658 52.4067L22.9983 33.4804L9.15404 31.038Z" fill="#FE5629"/>
<g opacity="0.7">
<path d="M10.7159 30.3371L4.92831 47.838L5.53506 48.0326L11.3227 30.5317L10.7159 30.3371Z" fill="#FFCE45"/>
</g>
<g opacity="0.7">
<path d="M21.049 32.3639L14.4345 50.8828L15.0365 51.0914L21.651 32.5725L21.049 32.3639Z" fill="#FFCE45"/>
</g>
<path d="M0.0615845 18.6238C0.0615845 17.7668 2.17897 17.0705 2.2979 16.2471C2.42044 15.4037 0.588031 14.1489 0.8266 13.3484C1.06952 12.5335 3.30076 12.4521 3.65462 11.6908C4.00849 10.9296 2.61623 9.20632 3.07452 8.50003C3.5328 7.79374 5.70313 8.3322 6.26511 7.6959C6.82709 7.05959 5.97505 5.02641 6.62187 4.47438C7.26869 3.92234 9.18957 5.03998 9.91036 4.58293C10.6311 4.12587 10.3897 1.94058 11.1721 1.58922C11.9545 1.23786 13.4679 2.84684 14.296 2.60831C15.1089 2.37336 15.5098 0.209487 16.3662 0.0895104C17.2023 -0.0276099 18.2023 1.9363 19.071 1.9363C19.9397 1.9363 20.9404 -0.0276099 21.7765 0.0895104C22.6328 0.209487 23.0338 2.37478 23.8467 2.60831C24.6741 2.84684 26.1976 1.24143 26.9706 1.58922C27.7436 1.93701 27.5152 4.12802 28.2323 4.58293C28.9495 5.03784 30.8754 3.92306 31.5208 4.47438C32.1662 5.0257 31.3171 7.05959 31.8776 7.6959C32.4381 8.3322 34.6012 7.79017 35.0682 8.50003C35.5352 9.20989 34.1335 10.921 34.4881 11.6908C34.8427 12.4607 37.0732 12.5335 37.3161 13.3484C37.5547 14.1489 35.7208 15.4037 35.8448 16.2471C35.9637 17.0705 38.0811 17.7682 38.0811 18.6238C38.0811 19.4793 35.9652 20.1799 35.8462 21.0005C35.7237 21.8446 37.5554 23.0986 37.3175 23.8999C37.0746 24.7148 34.8434 24.7955 34.4895 25.5574C34.1357 26.3194 35.5279 28.042 35.0696 28.7483C34.6113 29.4545 32.441 28.9161 31.879 29.5517C31.3171 30.1873 32.1691 32.2212 31.5223 32.7739C30.8754 33.3267 28.9546 32.2076 28.2338 32.6654C27.513 33.1231 27.7545 35.3077 26.972 35.6584C26.1896 36.009 24.6756 34.4007 23.8482 34.64C23.0353 34.8749 22.6343 37.0381 21.7779 37.1588C20.9418 37.2759 19.9419 35.312 19.0724 35.312C18.203 35.312 17.2038 37.2759 16.3677 37.1588C15.5113 37.0381 15.1103 34.8735 14.2974 34.64C13.4693 34.4007 11.9465 36.0069 11.1728 35.6584C10.3991 35.3098 10.629 33.1196 9.91181 32.6654C9.19465 32.2112 7.26869 33.3252 6.6226 32.7739C5.9765 32.2226 6.82709 30.1887 6.26656 29.5517C5.70603 28.9147 3.54296 29.4581 3.07597 28.7475C2.60898 28.037 4.01067 26.3273 3.65608 25.5574C3.30149 24.7876 1.07097 24.7148 0.828052 23.8999C0.589483 23.0986 2.42335 21.8446 2.29935 21.0005C2.17898 20.1799 0.0615845 19.4793 0.0615845 18.6238Z" fill="#FCAB28"/>
<path d="M19.0724 33.684C27.5178 33.684 34.3641 26.9414 34.3641 18.624C34.3641 10.3067 27.5178 3.56409 19.0724 3.56409C10.6271 3.56409 3.78079 10.3067 3.78079 18.624C3.78079 26.9414 10.6271 33.684 19.0724 33.684Z" fill="#FFCE45"/>
<path d="M19.0717 33.9889C15.4627 33.9884 11.9654 32.7555 9.1759 30.5003C6.38637 28.245 4.47712 25.107 3.77346 21.6209C3.0698 18.1347 3.61527 14.5161 5.31692 11.3816C7.01858 8.24713 9.77113 5.79069 13.1056 4.43083C16.4401 3.07097 20.1501 2.89183 23.6037 3.92393C27.0572 4.95603 30.0406 7.13551 32.0454 10.091C34.0502 13.0465 34.9525 16.5952 34.5985 20.1325C34.2445 23.6697 32.6561 26.9766 30.1039 29.4898C28.6584 30.9207 26.939 32.0552 25.0453 32.8275C23.1517 33.5997 21.1213 33.9945 19.0717 33.9889ZM19.0717 3.86971C10.811 3.86971 4.09043 10.4884 4.09043 18.624C4.09043 26.7596 10.811 33.3783 19.0717 33.3783C27.3324 33.3783 34.053 26.7596 34.053 18.624C34.053 10.4884 27.3324 3.86971 19.0717 3.86971Z" fill="#FCAB28"/>
<path d="M19.0724 29.4098C25.1209 29.4098 30.0241 24.5808 30.0241 18.624C30.0241 12.6672 25.1209 7.83826 19.0724 7.83826C13.024 7.83826 8.12073 12.6672 8.12073 18.624C8.12073 24.5808 13.024 29.4098 19.0724 29.4098Z" fill="#FFD733"/>
<path d="M28.1642 14.3506C28.1635 13.6765 28.0989 13.0039 27.9713 12.3417C26.5186 10.3447 24.4171 8.89612 22.0147 8.23556C19.6122 7.575 17.0527 7.74208 14.7598 8.70916C12.4669 9.67624 10.578 11.3853 9.40561 13.5536C8.23326 15.7219 7.84776 18.2195 8.3129 20.6329C9.6633 22.4897 11.5774 23.8764 13.7795 24.5929C15.9815 25.3095 18.3577 25.3189 20.5655 24.62C22.7733 23.921 24.6988 22.5497 26.0645 20.7037C27.4301 18.8577 28.1653 16.6324 28.1642 14.3484V14.3506Z" fill="#FFE266"/>
<path d="M19.0717 29.724C12.8573 29.724 7.80093 24.745 7.80093 18.624C7.80093 12.5031 12.8595 7.52405 19.0717 7.52405C25.2839 7.52405 30.3432 12.5038 30.3432 18.624C30.3432 24.7443 25.2868 29.724 19.0717 29.724ZM19.0717 8.1525C13.209 8.1525 8.43906 12.8502 8.43906 18.624C8.43906 24.3979 13.209 29.0963 19.0717 29.0963C24.9344 29.0963 29.7051 24.3986 29.7051 18.624C29.7051 12.8494 24.9351 8.1525 19.0717 8.1525Z" fill="#FCAB28"/>
<path d="M11.5049 9.65292L12.4701 7.25195L13.3729 9.68577L15.0639 10.6363L13.3395 11.5254L12.3744 14.5784L11.4716 11.4926L9.78055 10.542L11.5049 9.65292Z" fill="white"/>
</g>
<defs>
<clipPath id="clip0_1592_40952">
<rect width="38.0217" height="52.322" fill="white" transform="translate(0.0615845 0.0847168)"/>
</clipPath>
</defs>
</svg>
