<svg width="20" height="20" viewBox="0 0 20 20" fill="none" xmlns="http://www.w3.org/2000/svg">
<g clip-path="url(#clip0_135_727)">
<path d="M18.7385 18.9904H13.6919V15.6072H17.6056C17.7651 15.6072 17.9153 15.5317 18.0105 15.4037C18.1057 15.2758 18.1349 15.1102 18.089 14.9574L13.71 0.359771C13.646 0.146274 13.4494 0 13.2267 0C13.0037 0 12.8071 0.146274 12.7431 0.359771L8.36412 14.9574C8.31839 15.1102 8.34737 15.2758 8.44258 15.4037C8.5378 15.5317 8.68802 15.6072 8.8475 15.6072H12.6826V18.9904H5.26398V17.1156H7.62191C7.77784 17.1156 7.92491 17.0437 8.02052 16.9205C8.11613 16.7973 8.14944 16.6368 8.11081 16.4858L5.29296 5.48272C5.23579 5.25956 5.03452 5.10323 4.80407 5.10323C4.57362 5.10323 4.37234 5.25956 4.31517 5.48272L1.49733 16.4856C1.45849 16.6366 1.49181 16.7973 1.58742 16.9205C1.68303 17.0437 1.83029 17.1156 1.98622 17.1156H4.25465V18.9906H1.27713C0.998377 18.9906 0.772461 19.2167 0.772461 19.4953C0.772461 19.774 0.998377 19.9999 1.27713 19.9999H18.7385C19.0173 19.9999 19.2432 19.774 19.2432 19.4953C19.2432 19.2167 19.0173 18.9906 18.7385 18.9906V18.9904ZM4.80407 7.64213L5.21588 9.25036H4.39225L4.80407 7.64213ZM4.13341 10.2597H5.47413L5.84908 11.7232H3.75886L4.13341 10.2597ZM3.50022 12.7325H6.10772L6.46966 14.1456H3.13847L3.50022 12.7325ZM2.63637 16.1063L2.88003 15.1551H6.7281L6.97176 16.1063H2.63637ZM13.2267 2.26114L13.7185 3.9013H12.7344L13.2267 2.26114ZM12.4318 4.91063H14.0215L14.5818 6.77789H11.8717L12.4318 4.91063ZM11.5689 7.78722H14.8842L15.4141 9.55355H11.039L11.5689 7.78722ZM10.7362 10.5629H15.7167L16.2617 12.3797H10.1914L10.7362 10.5629ZM9.52564 14.598L9.88837 13.389H16.5645L16.9273 14.598H9.52564Z" fill="#252525"/>
</g>
<defs>
<clipPath id="clip0_135_727">
<rect width="20" height="20" fill="white"/>
</clipPath>
</defs>
</svg>
