<svg width="10" height="10" viewBox="0 0 10 10" fill="none" xmlns="http://www.w3.org/2000/svg">
<g id="Component 2" clip-path="url(#clip0_5024_38696)">
<path id="Vector" d="M1.11111 1.38892C0.816426 1.38892 0.533811 1.50598 0.325437 1.71435C0.117063 1.92273 0 2.20534 0 2.50003L0 7.50003C0 7.79471 0.117063 8.07733 0.325437 8.2857C0.533811 8.49407 0.816426 8.61114 1.11111 8.61114H5V1.38892H1.11111Z" fill="#006233"/>
<path id="Vector_2" d="M8.88889 1.38892H5V8.61114H8.88889C9.18357 8.61114 9.46619 8.49407 9.67456 8.2857C9.88294 8.07733 10 7.79471 10 7.50003V2.50003C10 2.20534 9.88294 1.92273 9.67456 1.71435C9.46619 1.50598 9.18357 1.38892 8.88889 1.38892Z" fill="#EEEEEE"/>
<path id="Vector_3" d="M5.55554 6.66669C4.63471 6.66669 3.88888 5.92085 3.88888 5.00002C3.88888 4.07946 4.63471 3.33335 5.55554 3.33335C5.91943 3.33335 6.25554 3.45141 6.52971 3.64946C6.33856 3.43203 6.10325 3.25785 5.83947 3.13853C5.57569 3.01921 5.2895 2.9575 4.99999 2.95752C4.45828 2.95752 3.93877 3.17271 3.55572 3.55575C3.17268 3.9388 2.95749 4.45831 2.95749 5.00002C2.95745 5.26827 3.01026 5.5339 3.11289 5.78174C3.21551 6.02958 3.36596 6.25477 3.55563 6.44446C3.74529 6.63416 3.97047 6.78463 4.21829 6.8873C4.46612 6.98996 4.73174 7.0428 4.99999 7.0428C5.60971 7.0428 6.15554 6.77419 6.52971 6.35057C6.24654 6.55621 5.90551 6.66687 5.55554 6.66669Z" fill="#D20F34"/>
<path id="Vector_4" d="M7.02832 5.06388L6.35054 5.21999L6.28943 5.91249L5.93165 5.31638L5.25388 5.47221L5.71054 4.94777L5.35304 4.35138L5.99276 4.6236L6.44943 4.09888L6.38832 4.79165L7.02832 5.06388Z" fill="#D20F34"/>
</g>
<defs>
<clipPath id="clip0_5024_38696">
<rect width="10" height="10" fill="white"/>
</clipPath>
</defs>
</svg>
