<svg width="27" height="32" viewBox="0 0 27 32" fill="none" xmlns="http://www.w3.org/2000/svg">
<g id="Apple">
<path id="path188" d="M22.2324 17.0012C22.1961 12.9516 25.5399 11.0074 25.6911 10.9127C23.8095 8.15978 20.8812 7.78265 19.8365 7.73829C17.3458 7.48619 14.9741 9.20446 13.7116 9.20446C12.4491 9.20446 10.4969 7.77459 8.43176 7.81493C5.71317 7.85526 3.21038 9.39404 1.81075 11.8263C-1.01069 16.7209 1.09077 23.9752 3.83759 27.9482C5.18277 29.8903 6.78406 32.0785 8.88956 31.9978C10.9184 31.9172 11.6848 30.6869 14.1331 30.6869C16.5815 30.6869 17.2712 31.9978 19.415 31.9595C21.5951 31.9172 22.9786 29.975 24.3137 28.0268C25.8545 25.7721 26.4918 23.59 26.5281 23.475C26.4797 23.4549 22.2768 21.8435 22.2324 17.0012Z" fill="black"/>
<path id="path190" d="M18.2045 5.11041C19.3217 3.75717 20.076 1.87551 19.8682 0C18.2588 0.064606 16.3107 1.07294 15.1551 2.42618C14.1205 3.62217 13.213 5.53803 13.4589 7.37536C15.2539 7.51451 17.087 6.46167 18.2045 5.11041Z" fill="black"/>
</g>
</svg>
