<svg width="20" height="20" viewBox="0 0 20 20" fill="none" xmlns="http://www.w3.org/2000/svg">
<g clip-path="url(#clip0_135_723)">
<path d="M20 4.3751C20 4.31853 19.9847 4.26301 19.9556 4.21447C19.9265 4.16594 19.8848 4.12621 19.8349 4.09952C19.785 4.07283 19.7288 4.06018 19.6723 4.06292C19.6158 4.06567 19.5611 4.0837 19.5141 4.1151C18.853 4.48544 18.1084 4.68108 17.3506 4.68354C16.7743 3.79706 16.3144 2.84015 15.9822 1.83635C15.9777 1.80001 15.9664 1.76483 15.9491 1.7326C15.7965 1.25707 15.6872 0.768735 15.6225 0.27354C15.617 0.229728 15.6022 0.187585 15.5792 0.149891C15.5562 0.112197 15.5255 0.0798071 15.489 0.0548565C15.4526 0.0299059 15.4113 0.0129612 15.3678 0.00513934C15.3244 -0.0026825 15.2797 -0.00120385 15.2369 0.00947783C13.5185 0.402388 11.7627 0.60879 10 0.625103C8.23734 0.608472 6.48159 0.402074 4.76312 0.00947783C4.72028 -0.00120385 4.67565 -0.0026825 4.63219 0.00513934C4.58872 0.0129612 4.54741 0.0299059 4.51098 0.0548565C4.47454 0.0798071 4.4438 0.112197 4.4208 0.149891C4.39779 0.187585 4.38303 0.229728 4.3775 0.27354C4.31348 0.762785 4.20587 1.24533 4.05594 1.71542C4.03314 1.75509 4.01917 1.79922 4.015 1.84479C3.68314 2.84558 3.22418 3.79963 2.64937 4.68354C1.89203 4.67802 1.14818 4.48257 0.485937 4.1151C0.438875 4.0837 0.384171 4.06567 0.327661 4.06292C0.271152 4.06018 0.214958 4.07283 0.165073 4.09952C0.115189 4.12621 0.0734863 4.16594 0.0444143 4.21447C0.0153422 4.26301 -8.46367e-06 4.31853 3.50087e-09 4.3751C0.0171905 5.02724 0.283754 5.64796 0.74481 6.10948C1.20587 6.571 1.82632 6.83819 2.47844 6.85604L1.92375 14.6189C1.91683 14.6412 1.91243 14.6643 1.91062 14.6876C1.91062 14.6979 1.91594 14.7067 1.91687 14.7167L1.5625 19.6654C1.55945 19.7083 1.56527 19.7513 1.5796 19.7918C1.59394 19.8323 1.61647 19.8695 1.6458 19.9009C1.67513 19.9323 1.71062 19.9573 1.75006 19.9744C1.78949 19.9915 1.83203 20.0002 1.875 20.0001H4.375C4.45788 20.0001 4.53737 19.9672 4.59597 19.9086C4.65458 19.85 4.6875 19.7705 4.6875 19.6876V10.3126H5.625V10.9376C5.625 11.0205 5.65792 11.1 5.71653 11.1586C5.77513 11.2172 5.85462 11.2501 5.9375 11.2501H14.0625C14.1454 11.2501 14.2249 11.2172 14.2835 11.1586C14.3421 11.1 14.375 11.0205 14.375 10.9376V10.3126H15.3125V19.6876C15.3125 19.7705 15.3454 19.85 15.404 19.9086C15.4626 19.9672 15.5421 20.0001 15.625 20.0001H18.125C18.168 20.0002 18.2105 19.9915 18.2499 19.9744C18.2894 19.9573 18.3249 19.9323 18.3542 19.9009C18.3835 19.8695 18.4061 19.8323 18.4204 19.7918C18.4347 19.7513 18.4406 19.7083 18.4375 19.6654L18.0831 14.7189C18.0859 14.7086 18.088 14.6981 18.0894 14.6876C18.0873 14.6676 18.0831 14.6479 18.0769 14.6289L17.5216 6.85604C18.1737 6.83819 18.7941 6.571 19.2552 6.10948C19.7162 5.64796 19.9828 5.02724 20 4.3751ZM14.0625 7.5001H5.9375C5.85462 7.5001 5.77513 7.53303 5.71653 7.59163C5.65792 7.65024 5.625 7.72972 5.625 7.8126V8.4376H4.6875V6.8751H15.3125V8.4376H14.375V7.8126C14.375 7.72972 14.3421 7.65024 14.2835 7.59163C14.2249 7.53303 14.1454 7.5001 14.0625 7.5001ZM12.5 8.1251V10.6251H7.5V8.1251H12.5ZM4.0625 6.8751V14.3751H2.56781L3.10344 6.8751H4.0625ZM15.9375 6.8751H16.8966L17.4322 14.3751H15.9375V6.8751ZM15.1644 4.6876C14.6757 3.92128 14.3254 3.0751 14.1294 2.1876H15.4419C15.7421 3.06055 16.1353 3.8987 16.6147 4.6876H15.1644ZM5.57063 4.6876C6.01497 3.90965 6.3321 3.06567 6.51 2.1876H7.8125C7.80105 3.0461 7.62616 3.89456 7.29719 4.6876H5.57063ZM3.38812 4.6876C3.86751 3.8987 4.26071 3.06055 4.56094 2.1876H5.87344C5.67744 3.0751 5.32712 3.92128 4.83844 4.6876H3.38812ZM8.4375 2.1876H9.6875V4.6876H7.96875C8.27032 3.88818 8.42899 3.04197 8.4375 2.1876ZM10.3125 2.1876H11.5625C11.571 3.04197 11.7297 3.88818 12.0312 4.6876H10.3125V2.1876ZM12.7028 4.6876C12.3738 3.89456 12.199 3.0461 12.1875 2.1876H13.4913C13.6692 3.06567 13.9863 3.90965 14.4306 4.6876H12.7028ZM4.94688 0.692915C6.60794 1.04987 8.30107 1.23656 10 1.2501C11.6989 1.23656 13.3921 1.04987 15.0531 0.692915C15.1047 0.985962 15.1711 1.27623 15.2519 1.5626H4.74813C4.82886 1.27621 4.89519 0.985948 4.94688 0.692915ZM0.71625 4.92292C1.38378 5.18521 2.0953 5.31748 2.8125 5.3126H17.1875C17.903 5.31741 18.6129 5.18579 19.2791 4.92479C19.1034 5.47854 18.6041 6.2501 17.1875 6.2501H2.8125C1.38563 6.2501 0.889063 5.48042 0.71625 4.92292ZM2.21062 19.3751L2.52313 15.0001H4.0625V19.3751H2.21062ZM4.6875 9.6876V9.0626H5.625V9.6876H4.6875ZM6.25 8.1251H6.875V10.6251H6.25V8.1251ZM13.75 10.6251H13.125V8.1251H13.75V10.6251ZM14.375 9.6876V9.0626H15.3125V9.6876H14.375ZM15.9375 19.3751V15.0001H17.4769L17.7894 19.3751H15.9375Z" fill="#252525"/>
</g>
<defs>
<clipPath id="clip0_135_723">
<rect width="20" height="20" fill="white"/>
</clipPath>
</defs>
</svg>
