<svg width="22" height="24" viewBox="0 0 22 24" fill="none" xmlns="http://www.w3.org/2000/svg">
<path d="M16.8438 2C16.6888 2 16.5336 2.01531 16.3824 2.04555L8.56988 3.60805C7.47918 3.82621 6.6875 4.79273 6.6875 5.90625V16.1704C6.22746 15.9036 5.69398 15.75 5.125 15.75C3.40188 15.75 2 17.1519 2 18.875C2 20.5981 3.40188 22 5.125 22C6.84812 22 8.25 20.5981 8.25 18.875V10.0146L17.625 8.13957V14.6079C17.165 14.3411 16.6315 14.1875 16.0625 14.1875C14.3394 14.1875 12.9375 15.5894 12.9375 17.3125C12.9375 19.0356 14.3394 20.4375 16.0625 20.4375C17.7856 20.4375 19.1875 19.0356 19.1875 17.3125V4.34375C19.1875 3.05141 18.1361 2 16.8438 2ZM5.125 20.4375C4.26344 20.4375 3.5625 19.7366 3.5625 18.875C3.5625 18.0134 4.26344 17.3125 5.125 17.3125C5.98656 17.3125 6.6875 18.0134 6.6875 18.875C6.6875 19.7366 5.98656 20.4375 5.125 20.4375ZM16.0625 18.875C15.2009 18.875 14.5 18.1741 14.5 17.3125C14.5 16.4509 15.2009 15.75 16.0625 15.75C16.9241 15.75 17.625 16.4509 17.625 17.3125C17.625 18.1741 16.9241 18.875 16.0625 18.875ZM17.625 6.54613L8.25 8.42113V5.90625C8.25 5.53496 8.5134 5.21281 8.87633 5.14023L16.6888 3.57773C16.7393 3.56762 16.7914 3.5625 16.8438 3.5625C17.2745 3.5625 17.625 3.91297 17.625 4.34375V6.54613Z" fill="url(#paint0_linear_1944_1244)"/>
<defs>
<linearGradient id="paint0_linear_1944_1244" x1="16.6677" y1="19.0679" x2="2.69277" y2="7.05816" gradientUnits="userSpaceOnUse">
<stop stop-color="#0061FF"/>
<stop offset="0.131" stop-color="#066AFF"/>
<stop offset="0.35" stop-color="#1884FF"/>
<stop offset="0.629" stop-color="#34ADFF"/>
<stop offset="0.954" stop-color="#5AE6FF"/>
<stop offset="1" stop-color="#60EFFF"/>
</linearGradient>
</defs>
</svg>
