<svg width="10" height="12" viewBox="0 0 10 12" fill="none" xmlns="http://www.w3.org/2000/svg">
<g clip-path="url(#clip0_1570_37634)">
<path d="M4.8882 11.8332C4.66208 11.7687 4.46112 11.6591 4.36832 11.4282C4.31707 11.2989 4.29041 11.1607 4.28978 11.0212C4.28513 9.0015 4.28401 6.9817 4.28643 4.9618C4.28643 3.62523 4.28643 2.28875 4.28643 0.95237C4.28643 0.570179 4.48208 0.28903 4.8077 0.194267C4.90178 0.167136 5.00033 0.160148 5.09718 0.173741C5.19403 0.187334 5.28708 0.221214 5.37051 0.273257C5.45393 0.325301 5.52593 0.394385 5.58198 0.476177C5.63803 0.55797 5.67693 0.650707 5.69623 0.748573C5.70882 0.819572 5.71472 0.891639 5.71384 0.963787C5.71384 4.32025 5.71431 7.67653 5.71524 11.0326C5.71524 11.3574 5.59673 11.6069 5.30857 11.7585C5.24494 11.7875 5.1796 11.8125 5.11292 11.8332H4.8882Z" fill="url(#paint0_linear_1570_37634)"/>
<path d="M6.42799 6.00001C6.42799 4.92165 6.42799 3.8433 6.42799 2.76494C6.42799 2.3916 6.62503 2.11217 6.94814 2.01769C7.04234 1.99018 7.14109 1.98288 7.23819 1.99624C7.33529 2.0096 7.42863 2.04333 7.51235 2.09531C7.59606 2.14729 7.66834 2.2164 7.72464 2.29829C7.78093 2.38017 7.82003 2.47307 7.83947 2.57114C7.85176 2.63833 7.85766 2.70658 7.85708 2.77493C7.85708 4.92403 7.85708 7.07303 7.85708 9.22194C7.85708 9.52735 7.74695 9.7694 7.47919 9.91953C7.38185 9.97378 7.27339 10.0039 7.16256 10.0074C7.05172 10.011 6.94162 9.98786 6.84115 9.93994C6.74069 9.89201 6.65266 9.82063 6.58419 9.73156C6.51572 9.64248 6.46872 9.53821 6.44699 9.42716C6.43349 9.34869 6.4275 9.26906 6.4291 9.1894C6.4278 8.12627 6.42743 7.06314 6.42799 6.00001Z" fill="url(#paint1_linear_1570_37634)"/>
<path d="M1.42909 6.01084C1.42909 6.96361 1.42909 7.91656 1.42909 8.86971C1.42909 9.24248 1.23092 9.5222 0.907815 9.61611C0.813734 9.64323 0.715177 9.65021 0.61833 9.6366C0.521484 9.62298 0.428439 9.58908 0.345033 9.537C0.261627 9.48493 0.189661 9.41581 0.133652 9.33398C0.0776428 9.25216 0.0387988 9.1594 0.0195586 9.06152C0.00684485 8.99063 0.000948841 8.91864 0.0019516 8.84659C0.0019516 6.94829 0.00139266 5.04989 0.000274658 3.1514C0.000274658 2.84171 0.107043 2.59538 0.379557 2.44296C0.477006 2.38895 0.585525 2.35908 0.696357 2.35578C0.807188 2.35247 0.917229 2.37581 1.0176 2.42393C1.11797 2.47204 1.20586 2.54357 1.27419 2.63275C1.34251 2.72193 1.38934 2.82626 1.41092 2.93733C1.42377 3.01204 1.42967 3.08783 1.42853 3.16368C1.42964 4.11264 1.42983 5.06169 1.42909 6.01084Z" fill="url(#paint2_linear_1570_37634)"/>
<path d="M2.14322 5.99306C2.14322 5.51468 2.13903 5.0363 2.14322 4.5582C2.14937 4.03016 2.6139 3.69164 3.0966 3.85662C3.38141 3.95395 3.56784 4.23082 3.56952 4.57019C3.57203 5.04087 3.56952 5.51211 3.56952 5.98221C3.56952 6.46745 3.57399 6.9541 3.56952 7.43991C3.56337 7.96795 3.09856 8.30647 2.61614 8.14149C2.33105 8.04416 2.1449 7.76729 2.14322 7.42792C2.14154 6.94954 2.14322 6.47144 2.14322 5.99306Z" fill="url(#paint3_linear_1570_37634)"/>
<path d="M9.9986 6.00001C9.9986 6.47811 10.0025 6.95649 9.9986 7.43487C9.99329 7.96862 9.52345 8.31057 9.03935 8.14016C8.7565 8.04084 8.57314 7.76311 8.57203 7.42174C8.57035 6.77667 8.57203 6.13131 8.57203 5.48595C8.57203 5.17198 8.5656 4.85572 8.57398 4.54089C8.58936 3.96375 9.17268 3.62752 9.65174 3.91894C9.89295 4.06537 9.99972 4.29371 10.0003 4.57543C9.99972 5.05058 9.99916 5.52544 9.9986 6.00001Z" fill="url(#paint4_linear_1570_37634)"/>
</g>
<defs>
<linearGradient id="paint0_linear_1570_37634" x1="5.50558" y1="10.1229" x2="3.51403" y2="9.87876" gradientUnits="userSpaceOnUse">
<stop stop-color="#0061FF"/>
<stop offset="0.131" stop-color="#066AFF"/>
<stop offset="0.35" stop-color="#1884FF"/>
<stop offset="0.629" stop-color="#34ADFF"/>
<stop offset="0.954" stop-color="#5AE6FF"/>
<stop offset="1" stop-color="#60EFFF"/>
</linearGradient>
<linearGradient id="paint1_linear_1570_37634" x1="7.64756" y1="8.83229" x2="5.68926" y2="8.48318" gradientUnits="userSpaceOnUse">
<stop stop-color="#0061FF"/>
<stop offset="0.131" stop-color="#066AFF"/>
<stop offset="0.35" stop-color="#1884FF"/>
<stop offset="0.629" stop-color="#34ADFF"/>
<stop offset="0.954" stop-color="#5AE6FF"/>
<stop offset="1" stop-color="#60EFFF"/>
</linearGradient>
<linearGradient id="paint2_linear_1570_37634" x1="1.21999" y1="8.5749" x2="-0.725538" y2="8.19336" gradientUnits="userSpaceOnUse">
<stop stop-color="#0061FF"/>
<stop offset="0.131" stop-color="#066AFF"/>
<stop offset="0.35" stop-color="#1884FF"/>
<stop offset="0.629" stop-color="#34ADFF"/>
<stop offset="0.954" stop-color="#5AE6FF"/>
<stop offset="1" stop-color="#60EFFF"/>
</linearGradient>
<linearGradient id="paint3_linear_1570_37634" x1="3.36183" y1="7.54301" x2="1.53588" y2="6.9453" gradientUnits="userSpaceOnUse">
<stop stop-color="#0061FF"/>
<stop offset="0.131" stop-color="#066AFF"/>
<stop offset="0.35" stop-color="#1884FF"/>
<stop offset="0.629" stop-color="#34ADFF"/>
<stop offset="0.954" stop-color="#5AE6FF"/>
<stop offset="1" stop-color="#60EFFF"/>
</linearGradient>
<linearGradient id="paint4_linear_1570_37634" x1="9.79059" y1="7.54327" x2="7.96383" y2="6.94552" gradientUnits="userSpaceOnUse">
<stop stop-color="#0061FF"/>
<stop offset="0.131" stop-color="#066AFF"/>
<stop offset="0.35" stop-color="#1884FF"/>
<stop offset="0.629" stop-color="#34ADFF"/>
<stop offset="0.954" stop-color="#5AE6FF"/>
<stop offset="1" stop-color="#60EFFF"/>
</linearGradient>
<clipPath id="clip0_1570_37634">
<rect width="10" height="11.6667" fill="white" transform="translate(0 0.166626)"/>
</clipPath>
</defs>
</svg>
