<svg width="140" height="140" viewBox="0 0 140 140" fill="none" xmlns="http://www.w3.org/2000/svg">
<rect x="2" y="2" width="136" height="136" rx="68" fill="#F2F4F7"/>
<path d="M101.111 105V97.2222C101.111 93.0966 99.4725 89.14 96.5553 86.2228C93.638 83.3056 89.6814 81.6667 85.5558 81.6667H54.4447C50.3191 81.6667 46.3625 83.3056 43.4453 86.2228C40.528 89.14 38.8892 93.0966 38.8892 97.2222V105M85.5558 50.5556C85.5558 59.1467 78.5914 66.1111 70.0003 66.1111C61.4092 66.1111 54.4447 59.1467 54.4447 50.5556C54.4447 41.9645 61.4092 35 70.0003 35C78.5914 35 85.5558 41.9645 85.5558 50.5556Z" stroke="#98A2B3" stroke-width="4" stroke-linecap="round" stroke-linejoin="round"/>
<rect x="2" y="2" width="136" height="136" rx="68" stroke="white" stroke-width="4"/>
</svg>
