<svg width="117" height="116" viewBox="0 0 117 116" fill="none" xmlns="http://www.w3.org/2000/svg">
<g filter="url(#filter0_dd_832_25489)">
<rect x="4.5" y="2" width="108" height="108" rx="54" fill="#EFF8FF"/>
<path d="M82.5 83V77C82.5 73.8174 81.2357 70.7652 78.9853 68.5147C76.7348 66.2643 73.6826 65 70.5 65H46.5C43.3174 65 40.2652 66.2643 38.0147 68.5147C35.7643 70.7652 34.5 73.8174 34.5 77V83M70.5 41C70.5 47.6274 65.1274 53 58.5 53C51.8726 53 46.5 47.6274 46.5 41C46.5 34.3726 51.8726 29 58.5 29C65.1274 29 70.5 34.3726 70.5 41Z" stroke="#1570EF" stroke-width="4" stroke-linecap="round" stroke-linejoin="round"/>
<rect x="6.5" y="4" width="104" height="104" rx="52" stroke="white" stroke-width="4"/>
</g>
<defs>
<filter id="filter0_dd_832_25489" x="0.5" y="0" width="116" height="116" filterUnits="userSpaceOnUse" color-interpolation-filters="sRGB">
<feFlood flood-opacity="0" result="BackgroundImageFix"/>
<feColorMatrix in="SourceAlpha" type="matrix" values="0 0 0 0 0 0 0 0 0 0 0 0 0 0 0 0 0 0 127 0" result="hardAlpha"/>
<feOffset dy="2"/>
<feGaussianBlur stdDeviation="2"/>
<feColorMatrix type="matrix" values="0 0 0 0 0.376471 0 0 0 0 0.380392 0 0 0 0 0.439216 0 0 0 0.16 0"/>
<feBlend mode="normal" in2="BackgroundImageFix" result="effect1_dropShadow_832_25489"/>
<feColorMatrix in="SourceAlpha" type="matrix" values="0 0 0 0 0 0 0 0 0 0 0 0 0 0 0 0 0 0 127 0" result="hardAlpha"/>
<feOffset/>
<feGaussianBlur stdDeviation="0.5"/>
<feColorMatrix type="matrix" values="0 0 0 0 0.156863 0 0 0 0 0.160784 0 0 0 0 0.239216 0 0 0 0.04 0"/>
<feBlend mode="normal" in2="effect1_dropShadow_832_25489" result="effect2_dropShadow_832_25489"/>
<feBlend mode="normal" in="SourceGraphic" in2="effect2_dropShadow_832_25489" result="shape"/>
</filter>
</defs>
</svg>
