<svg width="10" height="10" viewBox="0 0 10 10" fill="none" xmlns="http://www.w3.org/2000/svg">
<g id="Component 2">
<path id="Vector" d="M10 7.50003C10 7.79471 9.88294 8.07733 9.67456 8.2857C9.46619 8.49407 9.18357 8.61114 8.88889 8.61114H1.11111C0.816426 8.61114 0.533811 8.49407 0.325437 8.2857C0.117063 8.07733 0 7.79471 0 7.50003V2.50003C0 2.20534 0.117063 1.92273 0.325437 1.71435C0.533811 1.50598 0.816426 1.38892 1.11111 1.38892H8.88889C9.18357 1.38892 9.46619 1.50598 9.67456 1.71435C9.88294 1.92273 10 2.20534 10 2.50003V7.50003Z" fill="#006A4D"/>
<path id="Vector_2" d="M4.44444 6.80564C5.51833 6.80564 6.38889 5.93508 6.38889 4.86119C6.38889 3.78731 5.51833 2.91675 4.44444 2.91675C3.37056 2.91675 2.5 3.78731 2.5 4.86119C2.5 5.93508 3.37056 6.80564 4.44444 6.80564Z" fill="#F42A41"/>
</g>
</svg>
