<svg width="360" height="80" viewBox="0 0 360 80" fill="none" xmlns="http://www.w3.org/2000/svg">
<rect width="360" height="80" rx="4" fill="#D9D9D9"/>
<path d="M136.139 29.7311C139.071 31.9108 140.972 35.4018 140.972 39.337C140.972 39.4493 140.97 39.5604 140.967 39.672C140.116 34.2318 136.652 32.2555 136.652 32.2555C135.126 31.364 134.976 32.4667 134.976 32.4667C134.84 33.7504 136.893 33.4333 136.893 33.4333C140.58 36.5398 140.835 40.1271 140.736 41.708C140.438 43.1887 139.867 44.5713 139.078 45.7991C140.948 40.828 139.042 37.4808 139.042 37.4808C138.184 35.9371 137.492 36.8088 137.492 36.8088C136.721 37.8441 138.65 38.6175 138.65 38.6175C140.037 42.5873 138.99 45.5417 138.108 47.1014C135.915 49.6701 132.653 51.2985 129.01 51.2985C126.066 51.2985 123.371 50.2343 121.287 48.4698C121.911 48.4024 122.813 48.5745 122.813 48.5745C123.379 48.7555 127.514 49.5257 128.42 49.6502C129.325 49.7747 129.983 49.6502 129.983 49.6502C130.809 49.4236 137.526 45.7876 137.526 45.7876C138.331 45.2888 138.206 44.9378 138.206 44.9378C138.184 44.4512 137.096 44.4397 137.096 44.4397C136.202 44.4172 131.648 46.0822 131.648 46.0822C132.487 46.4897 132.271 47.2035 132.271 47.2035C132.294 47.792 130.754 48.1207 130.754 48.1207C127.673 48.1438 127.239 47.8152 127.239 47.8152C129.987 47.9365 131.014 47.604 131.014 47.604C132.374 47.242 131.377 46.4262 131.377 46.4262C130.924 46.1239 129.655 45.9429 129.655 45.9429C128.538 45.8216 127.662 45.604 127.662 45.604C126.756 45.3864 125.397 45.0366 125.397 45.0366H123.494C121.631 45.0963 120.159 45.5668 119.366 45.8826C118.732 44.2028 118.353 41.7446 119.423 38.6817C119.423 38.6817 121.352 37.9083 120.581 36.873C120.581 36.873 119.889 36.0013 119.031 37.545C119.031 37.545 117.116 40.9076 119.008 45.898C118.164 44.613 117.56 43.1554 117.262 41.5899C117.184 39.9545 117.514 36.4647 121.112 33.4333C121.112 33.4333 123.166 33.7504 123.03 32.4667C123.03 32.4667 122.879 31.364 121.353 32.2555C121.353 32.2555 117.928 34.2093 117.053 39.5809C117.051 39.5 117.049 39.4185 117.049 39.337C117.049 35.3402 119.01 31.8017 122.022 29.6297C118.296 31.959 115.816 36.0976 115.816 40.8165C115.816 48.0976 121.719 54 129 54C136.281 54 142.184 48.0976 142.184 40.8165C142.184 36.1656 139.775 32.0784 136.139 29.7311Z" fill="#7B7B7B"/>
<path d="M131.326 31.8453L133.252 27.5186C133.252 27.5186 131.228 28.9384 130.45 29.7535C130.45 29.7535 131.22 29.7837 131.092 30.3498C131.092 30.3498 131.168 31.1123 130.526 31.1502C129.884 31.1881 129.439 30.9762 129.477 30.2593C129.477 30.2593 129.182 28.8318 130.33 28.7035L129.054 26L127.762 28.7182C127.762 28.7182 128.563 28.6579 128.593 29.3755L128.6 30.3421C128.6 30.3421 128.502 31.1649 127.928 31.1579C127.928 31.1579 127.113 31.2561 127.075 30.629C127.075 30.629 126.736 29.7529 127.725 29.7003L124.909 27.5026L126.671 31.8453C126.671 31.8453 128.865 30.871 131.326 31.8453Z" fill="#7B7B7B"/>
<path d="M123.949 42.4129C123.982 42.4546 124.016 42.4963 124.05 42.5374C124.054 42.5432 124.059 42.5489 124.064 42.5541C124.093 42.5887 124.121 42.6227 124.151 42.6568C124.161 42.6683 124.172 42.6799 124.182 42.6914C124.206 42.719 124.231 42.7466 124.256 42.7736C124.268 42.7871 124.281 42.8005 124.293 42.814C124.316 42.839 124.339 42.8634 124.363 42.8878C124.376 42.9019 124.39 42.9161 124.404 42.9302C124.427 42.9533 124.449 42.977 124.473 42.9995C124.487 43.0136 124.501 43.0277 124.516 43.0419C124.539 43.0643 124.562 43.0862 124.586 43.1086C124.6 43.1227 124.616 43.1369 124.631 43.151C124.654 43.1728 124.678 43.194 124.702 43.2152C124.717 43.2293 124.733 43.2428 124.748 43.2562C124.772 43.2774 124.795 43.298 124.82 43.3185C124.836 43.332 124.851 43.3455 124.867 43.3589C124.892 43.3795 124.916 43.3994 124.941 43.4193C124.957 43.4321 124.973 43.4449 124.989 43.4578C125.014 43.4777 125.04 43.4976 125.066 43.5175C125.082 43.5297 125.097 43.5419 125.113 43.5541C125.139 43.574 125.166 43.5939 125.193 43.6131C125.208 43.6247 125.224 43.6356 125.239 43.6471C125.267 43.667 125.295 43.6869 125.324 43.7068C125.338 43.7171 125.353 43.7274 125.367 43.737C125.398 43.7575 125.429 43.7781 125.46 43.7986C125.473 43.8069 125.485 43.8159 125.498 43.8243C125.534 43.8467 125.569 43.8692 125.605 43.8917C125.614 43.8968 125.622 43.9026 125.631 43.9084C126.585 44.4905 127.706 44.8256 128.905 44.8256C129.8 44.8256 130.65 44.6388 131.421 44.3025C131.838 44.1202 132.232 43.8942 132.596 43.6304C132.596 43.6304 132.597 43.6304 132.597 43.6298C132.718 43.5419 132.836 43.4501 132.95 43.3544C132.951 43.3538 132.951 43.3532 132.953 43.3525C133.066 43.2569 133.177 43.158 133.283 43.0547C133.284 43.0534 133.286 43.0521 133.288 43.0509C133.394 42.9482 133.496 42.8423 133.594 42.7325C133.596 42.7306 133.598 42.728 133.6 42.7261C133.648 42.6728 133.695 42.6182 133.741 42.563C133.742 42.5618 133.743 42.5605 133.744 42.5592C133.791 42.5034 133.836 42.4462 133.881 42.3885C133.884 42.3853 133.887 42.382 133.889 42.3788C133.931 42.3243 133.973 42.2691 134.013 42.2126C134.016 42.2087 134.019 42.2049 134.021 42.201C134.063 42.1426 134.104 42.0836 134.144 42.0239C134.147 42.0194 134.15 42.0149 134.152 42.0111C134.189 41.9559 134.225 41.8994 134.26 41.8429C134.264 41.8365 134.268 41.8301 134.272 41.8236C134.31 41.7633 134.345 41.703 134.38 41.6414C134.383 41.6362 134.386 41.6304 134.389 41.6253C134.421 41.5688 134.452 41.5123 134.482 41.4552C134.487 41.4462 134.492 41.4372 134.496 41.4283C134.528 41.3666 134.56 41.3037 134.59 41.2408C134.593 41.2344 134.596 41.2286 134.599 41.2222C134.626 41.1651 134.652 41.1073 134.678 41.0489C134.683 41.038 134.688 41.0265 134.693 41.0156C134.72 40.952 134.747 40.8878 134.772 40.823C134.774 40.8166 134.777 40.8095 134.779 40.8031C134.802 40.7447 134.824 40.6863 134.844 40.6272C134.849 40.6138 134.854 40.6003 134.858 40.5868C134.881 40.522 134.903 40.4565 134.922 40.3904C134.924 40.3833 134.926 40.3763 134.929 40.3692C134.947 40.3095 134.964 40.2498 134.981 40.1895C134.985 40.1741 134.989 40.1593 134.993 40.1439C135.01 40.0772 135.028 40.0104 135.043 39.943C135.044 39.9366 135.046 39.9302 135.048 39.9231C135.062 39.8615 135.075 39.7999 135.086 39.7376C135.089 39.7209 135.093 39.7049 135.096 39.6882C135.109 39.6202 135.12 39.5515 135.131 39.4828C135.132 39.4777 135.132 39.4726 135.133 39.4668C135.143 39.4026 135.151 39.3378 135.159 39.2729C135.161 39.2556 135.163 39.2383 135.164 39.2209C135.172 39.151 135.179 39.081 135.184 39.0111C135.184 39.0079 135.185 39.0046 135.185 39.0014C135.19 38.934 135.193 38.866 135.197 38.798C135.197 38.78 135.198 38.762 135.198 38.7441C135.201 38.6728 135.202 38.6016 135.202 38.5297C135.202 37.117 134.737 35.8127 133.951 34.762C133.921 34.7216 133.89 34.6818 133.86 34.642C133.548 34.2454 133.19 33.8872 132.793 33.5759C132.714 33.5136 132.634 33.4533 132.551 33.3949C132.469 33.3365 132.385 33.28 132.3 33.2255C132.258 33.1979 132.215 33.1715 132.171 33.1452C131.998 33.04 131.819 32.943 131.636 32.8545C130.81 32.4565 129.884 32.2338 128.906 32.2338C128.845 32.2338 128.785 32.2351 128.725 32.2364C128.706 32.237 128.688 32.2377 128.668 32.2383C128.627 32.2396 128.586 32.2415 128.546 32.2441C128.524 32.2454 128.502 32.2466 128.48 32.2486C128.441 32.2511 128.403 32.2543 128.365 32.2576C128.343 32.2595 128.321 32.2614 128.3 32.2633C128.259 32.2672 128.219 32.2717 128.179 32.2762C128.16 32.2781 128.142 32.28 128.123 32.2826C128.066 32.2896 128.009 32.2973 127.952 32.3063C127.951 32.3063 127.95 32.3063 127.949 32.307C127.891 32.316 127.833 32.3256 127.775 32.3365C127.759 32.3397 127.742 32.3429 127.726 32.3461C127.685 32.3538 127.643 32.3622 127.602 32.3705C127.583 32.3744 127.564 32.3789 127.544 32.3834C127.506 32.3917 127.467 32.4007 127.429 32.4103C127.41 32.4148 127.391 32.4193 127.372 32.4244C127.331 32.4347 127.291 32.4456 127.25 32.4565C127.234 32.4604 127.219 32.4649 127.204 32.4687C127.091 32.5002 126.98 32.5348 126.87 32.5727C126.859 32.5765 126.848 32.5804 126.837 32.5843C126.793 32.5997 126.75 32.6151 126.706 32.6311C126.691 32.6369 126.677 32.6427 126.661 32.6478C126.621 32.6632 126.581 32.6786 126.541 32.6953C126.526 32.7011 126.512 32.7068 126.498 32.7133C126.455 32.7312 126.413 32.7492 126.371 32.7678C126.36 32.7723 126.35 32.7768 126.34 32.7813C126.232 32.8294 126.125 32.8808 126.021 32.9347C126.017 32.9366 126.014 32.9392 126.009 32.9411C125.962 32.9655 125.915 32.9905 125.869 33.0162C125.859 33.0213 125.849 33.0271 125.84 33.0323C125.798 33.0554 125.756 33.0791 125.715 33.1035C125.706 33.1093 125.696 33.1151 125.686 33.1208C125.643 33.1472 125.599 33.1735 125.555 33.2011C125.55 33.2043 125.545 33.2075 125.539 33.2107C125.389 33.3057 125.243 33.4071 125.102 33.5143C125.098 33.5175 125.093 33.5213 125.088 33.5252C125.046 33.5573 125.004 33.59 124.962 33.6234C124.957 33.6273 124.952 33.6317 124.947 33.6356C124.903 33.6709 124.86 33.7068 124.817 33.7434C124.816 33.7441 124.815 33.7454 124.814 33.746C124.677 33.8628 124.546 33.986 124.419 34.1138C124.418 34.1151 124.417 34.1163 124.415 34.1176C124.375 34.1587 124.336 34.1998 124.297 34.2421C124.294 34.2447 124.292 34.2473 124.29 34.2498C124.127 34.4257 123.974 34.6099 123.831 34.8038C123.801 34.8461 123.77 34.8885 123.74 34.9315C123.736 34.9373 123.732 34.943 123.728 34.9488C123.023 35.9661 122.609 37.2011 122.609 38.5329C122.609 39.9937 123.11 41.3423 123.949 42.4129ZM128.39 39.0496C128.39 39.0496 128.7 38.7075 128.482 38.4456C128.263 38.1837 128.758 37.8057 128.922 37.8089C129.086 37.8127 129.216 37.667 129.166 37.2344C129.166 37.2344 128.835 36.9398 129.351 36.8744L129.806 36.6195C129.806 36.6195 129.955 36.5541 129.853 36.2376L129.813 35.8596C129.813 35.8596 129.442 35.7652 129.493 35.3795C129.544 34.9937 129.53 34.9501 129.53 34.9501C129.53 34.9501 129.566 34.703 129.886 34.7248C130.206 34.7466 130.315 34.8192 130.591 34.6593C130.868 34.4995 131.239 34.6009 131.239 34.6009C131.239 34.6009 131.712 34.943 131.734 35.0881C131.756 35.2338 131.996 34.986 131.996 34.986C131.996 34.986 132.207 35.3936 132.65 35.3281C132.65 35.3281 132.917 35.3609 133.163 35.6497C133.163 35.6497 133.223 35.6895 133.245 35.5258C133.267 35.3622 133.341 35.9783 133.341 35.9783C133.341 35.9783 133.459 36.1927 133.775 36.1054C134.092 36.0181 133.514 36.8217 133.514 36.8217C133.514 36.8217 133.481 36.8891 133.61 36.8634C133.739 36.8378 133.406 37.0977 132.741 37.0252C132.741 37.0252 132.483 37.0618 132.359 37.28C132.235 37.4982 131.722 37.4944 131.41 38.0984C131.41 38.0984 131.537 38.3821 131.268 38.7094C131.268 38.7094 131.435 39.004 131.886 39.004C131.886 39.004 132.097 39.1638 131.777 39.255C131.457 39.3461 132.275 39.4732 132.348 39.1824C132.348 39.1824 132.592 39.2518 132.606 39.5932C132.606 39.5932 132.962 39.4584 133.046 39.6478L133.272 39.4989L133.385 39.6478C133.385 39.6478 133.043 40.3968 132.468 40.3493C132.468 40.3493 132.181 40.4 132.06 40.5746C132.06 40.5746 131.591 40.6471 131.435 40.7601C131.278 40.8731 130.827 41.4077 130.842 41.9822C130.842 41.9822 130.849 42.2915 130.573 42.5239C130.297 42.7562 130.671 43.0329 130.802 43.0078C130.933 42.9822 131.02 43.0098 131.02 43.0098C131.02 43.0098 131.218 43.5194 131.354 44.0226C130.605 44.3506 129.777 44.5335 128.906 44.5335C127.884 44.5335 126.921 44.2826 126.077 43.8397C126.2 43.6888 126.37 43.5143 126.595 43.3506C126.595 43.3506 126.311 43.0162 126.871 43.0926C127.431 43.169 127.322 42.8236 127.322 42.8236C127.322 42.8236 127.541 42.7871 127.562 42.6818C127.584 42.5765 127.297 42.4892 127.297 42.4892C127.297 42.4892 127.759 42.4019 127.824 42.2453C127.89 42.0887 127.868 42.0964 128.05 41.9655C128.05 41.9655 127.504 41.5727 128.195 41.3217L127.926 40.8743C127.926 40.8743 128.203 41.0271 128.145 40.3217C128.145 40.3217 128.301 40.2633 128.323 40.0669C128.345 39.8705 128.396 39.6779 128.6 39.4379C128.801 39.1985 128.39 39.0496 128.39 39.0496ZM124.095 34.8744L124.118 34.8891C124.118 34.8891 124.21 34.9321 124.172 34.7826C124.172 34.7807 124.172 34.7794 124.171 34.7774C124.203 34.7376 124.236 34.6985 124.269 34.6593C124.305 34.6703 124.348 34.6959 124.396 34.7364C124.396 34.7364 124.586 34.8018 124.69 34.7415C124.69 34.7415 124.788 34.7255 124.69 34.5945C124.592 34.4636 125.225 34.9219 125.225 34.9219C125.225 34.9219 125.29 35.0688 125.426 34.8513C125.562 34.6337 125.983 34.5733 126.092 34.6439C126.092 34.6439 126.583 34.7203 126.594 34.6497C126.605 34.5791 126.697 34.5027 126.905 34.5246C127.112 34.5464 127.39 34.7697 127.39 34.7697C127.39 34.7697 127.428 34.8403 127.439 34.6773C127.449 34.5136 127.826 34.6882 127.826 34.6882L128.125 34.721C128.125 34.721 128.354 34.8519 128.125 35.1735C128.125 35.1735 128.049 35.375 128.25 35.5496C128.25 35.5496 128.338 35.7402 128.191 35.9803C128.191 35.9803 128.174 36.0727 128.316 36.0836C128.458 36.0945 128.109 36.3506 128.109 36.3506C128.109 36.3506 127.923 36.4161 128.021 36.5688C128.12 36.7216 128.103 36.7325 127.77 36.8962L127.623 37.038L127.274 36.4815C127.274 36.4815 127.22 36.4161 127.116 36.4706C127.116 36.4706 126.854 35.805 126.538 36.2582C126.538 36.2582 126.238 36.3506 126.173 36.029C126.107 35.7075 125.453 36.9565 125.551 37.1857C125.649 37.4148 125.682 37.5457 125.922 37.6382C125.922 37.6382 126.069 37.7742 126.064 37.9437C126.064 37.9437 126.435 38.0143 126.467 38.167C126.5 38.3198 126.778 38.1183 126.778 38.1183C126.778 38.1183 127.04 38.1292 126.827 38.391C126.614 38.6529 126.914 38.6471 126.914 38.6471C126.914 38.6471 127.056 38.6799 126.74 38.8814C126.74 38.8814 126.652 39.3615 126.379 39.056C126.379 39.056 126.304 38.6581 125.949 38.9417C125.949 38.9417 125.829 39.16 125.643 38.9796C125.643 38.9796 125.501 38.909 125.436 39.1215C125.436 39.1215 125.224 38.9469 125.027 38.9141C124.831 38.8814 124.967 39.203 124.967 39.203C124.967 39.203 124.668 39.3609 124.88 39.4976C125.093 39.6337 125.256 39.6009 125.125 39.8249C124.994 40.0483 125.354 40.185 125.354 40.185C125.354 40.185 125.349 40.5233 125.055 40.8776C125.055 40.8776 124.967 40.8994 125.147 41.0631C125.147 41.0631 125.261 41.4392 124.863 41.4392C124.466 41.4392 124.487 41.6734 124.487 41.6734C124.487 41.6734 124.575 41.9186 124.82 41.8968C125.065 41.875 124.274 42.3384 124.274 42.3384C124.274 42.3384 124.225 42.393 124.307 42.409C124.312 42.4103 124.303 42.4109 124.283 42.4109C123.385 41.3634 122.844 40.0072 122.844 38.5252C122.845 37.1529 123.311 35.8872 124.095 34.8744Z" fill="#7B7B7B"/>
<path d="M151.783 47V32.9082H160.582V34.793H153.971V39.2559H160.025V41.1016H153.971V47H151.783ZM162.31 47V32.9082H164.42V47H162.31ZM167.799 50.4277C167.389 50.4277 166.949 50.3789 166.695 50.3301V48.6797C166.861 48.7188 167.105 48.7578 167.389 48.7578C168.385 48.7578 168.932 48.4941 169.283 47.498L169.459 47.0098L165.719 36.7266H168.004L170.592 45.0859H170.66L173.248 36.7266H175.475L171.646 47.4785C170.885 49.6074 169.81 50.4277 167.799 50.4277ZM181.021 47V32.9082H189.82V34.793H183.209V39.2559H189.264V41.1016H183.209V47H181.021ZM191.471 47V36.7266H193.58V38.4844H193.629C193.961 37.2832 194.82 36.5312 195.992 36.5312C196.295 36.5312 196.559 36.5801 196.725 36.6094V38.5723C196.559 38.5039 196.187 38.4551 195.777 38.4551C194.42 38.4551 193.58 39.3438 193.58 40.877V47H191.471ZM199.176 35.1445C198.492 35.1445 197.945 34.5977 197.945 33.9336C197.945 33.2598 198.492 32.7129 199.176 32.7129C199.869 32.7129 200.406 33.2598 200.406 33.9336C200.406 34.5977 199.869 35.1445 199.176 35.1445ZM198.121 47V36.7266H200.23V47H198.121ZM206.793 47.2051C203.775 47.2051 201.949 45.1445 201.949 41.9023V41.8926C201.949 38.6797 203.805 36.5312 206.685 36.5312C209.566 36.5312 211.334 38.6016 211.334 41.6875V42.4004H204.059C204.098 44.3438 205.162 45.4766 206.842 45.4766C208.092 45.4766 208.922 44.832 209.185 44.0605L209.215 43.9824H211.217L211.197 44.0898C210.865 45.7207 209.283 47.2051 206.793 47.2051ZM206.695 38.2598C205.328 38.2598 204.273 39.1875 204.088 40.9062H209.244C209.068 39.1289 208.072 38.2598 206.695 38.2598ZM212.975 47V36.7266H215.084V38.2793H215.133C215.67 37.2344 216.725 36.5312 218.277 36.5312C220.533 36.5312 221.832 37.9863 221.832 40.3496V47H219.713V40.75C219.713 39.207 218.99 38.3379 217.525 38.3379C216.041 38.3379 215.084 39.4121 215.084 41.0137V47H212.975ZM227.711 47.2051C225.094 47.2051 223.414 45.1348 223.414 41.8633V41.8535C223.414 38.582 225.113 36.5312 227.691 36.5312C229.146 36.5312 230.318 37.2637 230.934 38.4746H230.973V32.9082H233.092V47H230.973V45.2617H230.934C230.318 46.4629 229.185 47.2051 227.711 47.2051ZM228.268 45.3887C229.859 45.3887 230.982 44.002 230.982 41.8633V41.8535C230.982 39.7246 229.85 38.3379 228.268 38.3379C226.607 38.3379 225.572 39.6855 225.572 41.8535V41.8633C225.572 44.0508 226.598 45.3887 228.268 45.3887ZM239.107 47.2051C236.539 47.2051 235.035 45.9355 234.82 44.0605L234.81 43.9727H236.9L236.92 44.0703C237.115 45.0176 237.818 45.5742 239.117 45.5742C240.387 45.5742 241.148 45.0469 241.148 44.2168V44.207C241.148 43.543 240.777 43.1621 239.674 42.8984L237.994 42.5176C236.041 42.0684 235.074 41.1309 235.074 39.6367V39.627C235.074 37.791 236.676 36.5312 239.039 36.5312C241.471 36.5312 242.935 37.8887 243.043 39.6367L243.053 39.7539H241.07L241.06 39.6855C240.934 38.7871 240.23 38.1621 239.039 38.1621C237.906 38.1621 237.193 38.6992 237.193 39.5195V39.5293C237.193 40.1641 237.613 40.5938 238.717 40.8574L240.387 41.2383C242.486 41.7266 243.287 42.5566 243.287 44.0312V44.041C243.287 45.916 241.529 47.2051 239.107 47.2051Z" fill="#7B7B7B"/>
</svg>
