<svg width="24" height="24" viewBox="0 0 24 24" fill="none" xmlns="http://www.w3.org/2000/svg">
<path d="M1.72203 9.9633L1.72203 9.9633C1.55572 10.4735 1.75358 11.0401 2.2448 11.5173L6.05345 15.217L5.15433 20.4413C5.033 21.1465 5.23891 21.5744 5.43865 21.8105C5.67134 22.0855 6.01032 22.2361 6.39086 22.2361C6.6781 22.2361 6.98144 22.1521 7.29199 21.9893L12 19.5227L16.708 21.9893C17.0186 22.1521 17.3219 22.236 17.6092 22.236H17.6093C17.9898 22.236 18.3288 22.0855 18.5615 21.8105C18.7612 21.5744 18.9671 21.1465 18.8458 20.4412L17.9465 15.217L21.7552 11.5173L21.7204 11.4814L21.7552 11.5173C22.2464 11.0401 22.4443 10.4735 22.278 9.96335C22.1117 9.45325 21.6174 9.11077 20.9386 9.01249L15.6751 8.25022L13.3211 3.49707C13.0175 2.88389 12.5379 2.52144 12 2.52144C11.462 2.52144 10.9825 2.88394 10.6788 3.49708L8.325 8.25018L3.06139 9.01249C2.38256 9.11077 1.88836 9.45321 1.72203 9.9633ZM12.3037 18.2117L12.2805 18.256L12.3037 18.2117C12.2086 18.1619 12.1043 18.137 12 18.137C11.8958 18.137 11.7914 18.1619 11.6964 18.2117L6.68467 20.8375C6.56159 20.902 6.47764 20.924 6.43017 20.9313C6.42213 20.8804 6.41851 20.7921 6.44102 20.6612L7.39817 15.0998L7.34889 15.0913L7.39817 15.0998C7.43448 14.8887 7.36424 14.6733 7.2104 14.5238L7.17556 14.5597L7.2104 14.5238L3.15591 10.5853C3.06064 10.4927 3.01146 10.4192 2.98791 10.3733C3.03405 10.35 3.11728 10.3193 3.2491 10.3002L8.85233 9.48869C9.06487 9.45791 9.24864 9.32485 9.34375 9.13281L11.8495 4.07296L11.8047 4.05078L11.8495 4.07296C11.9085 3.95384 11.9635 3.88446 12.0001 3.84799C12.0366 3.88446 12.0917 3.95385 12.1507 4.07299L12.1507 4.07301L14.6565 9.13281L14.6565 9.13282C14.7516 9.32485 14.9354 9.45791 15.1479 9.48869L20.7511 10.3002L20.7582 10.2507L20.7511 10.3002C20.8829 10.3192 20.9661 10.3499 21.0122 10.3733C20.9886 10.4192 20.9394 10.4928 20.8441 10.5854L16.7896 14.5239C16.6358 14.6733 16.5655 14.8887 16.6019 15.0999L17.5592 20.6612C17.5817 20.792 17.5781 20.8804 17.57 20.9313C17.5226 20.924 17.4386 20.902 17.3154 20.8375L12.3037 18.2117Z" fill="#252525" stroke="#252525" stroke-width="0.1"/>
</svg>
