<svg width="24" height="24" viewBox="0 0 24 24" fill="none" xmlns="http://www.w3.org/2000/svg">
<path d="M1.72204 9.96327L1.72204 9.96327C1.55574 10.4734 1.7536 11.0401 2.24482 11.5172L6.05346 15.217L5.15434 20.4413C5.03302 21.1465 5.23893 21.5744 5.43866 21.8105C5.67136 22.0855 6.01033 22.236 6.39087 22.236C6.67812 22.236 6.98146 22.1521 7.292 21.9893L12 19.5227L16.708 21.9893C17.0186 22.1521 17.3219 22.236 17.6092 22.236H17.6093C17.9898 22.236 18.3288 22.0854 18.5615 21.8104C18.7613 21.5743 18.9672 21.1464 18.8458 20.4412L17.9465 15.217L21.7552 11.5173L21.7204 11.4814L21.7552 11.5173C22.2464 11.0401 22.4443 10.4735 22.278 9.96332C22.1117 9.45322 21.6174 9.11074 20.9387 9.01246L15.6751 8.25019L13.3212 3.49704C13.0175 2.88386 12.5379 2.52141 12 2.52141C11.462 2.52141 10.9825 2.88391 10.6788 3.49704L8.32501 8.25015L3.06141 9.01246C2.38258 9.11074 1.88837 9.45318 1.72204 9.96327ZM12.3037 18.2117L12.2805 18.256L12.3037 18.2117C12.2086 18.1619 12.1043 18.137 12.0001 18.137C11.8958 18.137 11.7915 18.1619 11.6964 18.2117L6.68468 20.8375C6.56161 20.902 6.47766 20.924 6.43019 20.9313C6.42215 20.8804 6.41852 20.792 6.44103 20.6612L7.39818 15.0998L7.34891 15.0913L7.39818 15.0998C7.43449 14.8887 7.36426 14.6733 7.21041 14.5238L7.17557 14.5597L7.21041 14.5238L3.15593 10.5853C3.06066 10.4927 3.01147 10.4192 2.98793 10.3733C3.03407 10.35 3.1173 10.3192 3.24911 10.3001L8.85235 9.48866C9.06488 9.45788 9.24866 9.32482 9.34377 9.13278L11.8495 4.07293L11.8047 4.05075L11.8495 4.07293C11.9085 3.95381 11.9636 3.88443 12.0001 3.84796C12.0366 3.88443 12.0917 3.95382 12.1507 4.07296L12.1507 4.07297L14.6565 9.13278L14.6565 9.13279C14.7516 9.32482 14.9354 9.45788 15.1479 9.48866L20.7511 10.3001L20.7582 10.2507L20.7511 10.3001C20.8829 10.3192 20.9661 10.3499 21.0122 10.3733C20.9886 10.4192 20.9394 10.4928 20.8441 10.5853L16.7897 14.5239C16.6358 14.6733 16.5655 14.8887 16.6019 15.0998L17.5592 20.6612C17.5817 20.792 17.5781 20.8803 17.5701 20.9313C17.5226 20.924 17.4386 20.902 17.3154 20.8374L12.3037 18.2117Z" fill="url(#paint0_linear_941_609)" stroke="url(#paint1_linear_941_609)" stroke-width="0.1"/>
<defs>
<linearGradient id="paint0_linear_941_609" x1="19.2698" y1="19.3104" x2="5.42218" y2="4.78727" gradientUnits="userSpaceOnUse">
<stop stop-color="#0061FF"/>
<stop offset="0.131" stop-color="#066AFF"/>
<stop offset="0.35" stop-color="#1884FF"/>
<stop offset="0.629" stop-color="#34ADFF"/>
<stop offset="0.954" stop-color="#5AE6FF"/>
<stop offset="1" stop-color="#60EFFF"/>
</linearGradient>
<linearGradient id="paint1_linear_941_609" x1="19.2698" y1="19.3104" x2="5.42218" y2="4.78727" gradientUnits="userSpaceOnUse">
<stop stop-color="#0061FF"/>
<stop offset="0.131" stop-color="#066AFF"/>
<stop offset="0.35" stop-color="#1884FF"/>
<stop offset="0.629" stop-color="#34ADFF"/>
<stop offset="0.954" stop-color="#5AE6FF"/>
<stop offset="1" stop-color="#60EFFF"/>
</linearGradient>
</defs>
</svg>
