<svg width="24" height="24" viewBox="0 0 24 24" fill="none" xmlns="http://www.w3.org/2000/svg">
<path d="M13.3 3C10.6568 3 7.7128 3.4496 5.524 5.8752C3.3384 8.3008 2 12.504 2 19.8V20.6H8.9248C9.7168 21.1 10.6072 21.4 11.6 21.4C12.592 21.4 13.484 21.0936 14.2752 20.6H22V19.8C22 13.3 20.744 9.5248 19.1 7.3248C17.652 5.3888 15.9864 4.8496 14.7496 4.7248L14 3.4L13.776 3H13.3ZM12.8496 4.6504L13.5 5.8L13.724 6.2H14.2C15.008 6.2 16.4784 6.472 17.824 8.2752C19.1088 9.992 20.24 13.264 20.3504 19H16.0504C16.1384 18.888 16.2184 18.7664 16.3008 18.6496C17.3864 17.1 18 15.1656 18 13.4H16.4C16.4 14.7776 15.8848 16.4616 15 17.7248C14.1152 18.9888 12.932 19.8 11.6 19.8C10.2696 19.8 9.0856 18.992 8.2 17.7248C7.3144 16.4592 6.8 14.768 6.8 13.4C6.8 13.0448 6.868 12.8664 6.976 12.7248C7.0816 12.5832 7.2672 12.4608 7.5496 12.3504C8.1152 12.1264 9.0696 12.0344 10.0752 11.9504C11.0816 11.8656 12.1312 11.7856 13.0752 11.3504C14.0192 10.9144 14.8 9.928 14.8 8.6H13.2C13.2 9.4352 12.9808 9.6432 12.424 9.9C11.8688 10.156 10.9184 10.2664 9.9248 10.3504C8.9312 10.4336 7.8848 10.4808 6.9488 10.8496C6.4824 11.0336 6.0304 11.312 5.7008 11.7504C5.368 12.188 5.2 12.7744 5.2 13.4C5.2 15.1584 5.8144 17.072 6.9 18.624C6.988 18.752 7.08 18.8784 7.1752 19H3.648C3.756 12.4696 5.016 8.8432 6.7232 6.9496C8.3936 5.0984 10.5496 4.6976 12.848 4.6504H12.8496ZM9.2 13.4C8.98783 13.4 8.78434 13.4843 8.63431 13.6343C8.48429 13.7843 8.4 13.9878 8.4 14.2C8.4 14.4122 8.48429 14.6157 8.63431 14.7657C8.78434 14.9157 8.98783 15 9.2 15C9.41217 15 9.61566 14.9157 9.76569 14.7657C9.91571 14.6157 10 14.4122 10 14.2C10 13.9878 9.91571 13.7843 9.76569 13.6343C9.61566 13.4843 9.41217 13.4 9.2 13.4ZM14 13.4C13.7878 13.4 13.5843 13.4843 13.4343 13.6343C13.2843 13.7843 13.2 13.9878 13.2 14.2C13.2 14.4122 13.2843 14.6157 13.4343 14.7657C13.5843 14.9157 13.7878 15 14 15C14.2122 15 14.4157 14.9157 14.5657 14.7657C14.7157 14.6157 14.8 14.4122 14.8 14.2C14.8 13.9878 14.7157 13.7843 14.5657 13.6343C14.4157 13.4843 14.2122 13.4 14 13.4Z" fill="black"/>
</svg>
