<svg width="28" height="29" viewBox="0 0 28 29" fill="none" xmlns="http://www.w3.org/2000/svg">
<rect y="0.614746" width="28" height="28" rx="14" fill="#EBF4FF"/>
<path d="M13.5219 8.91692C13.6756 8.60562 13.7524 8.44998 13.8567 8.40025C13.9475 8.35698 14.0529 8.35698 14.1436 8.40025C14.2479 8.44998 14.3248 8.60562 14.4784 8.91692L15.9362 11.8702C15.9816 11.9621 16.0042 12.0081 16.0374 12.0438C16.0667 12.0753 16.1019 12.1009 16.141 12.1191C16.1852 12.1397 16.2359 12.1471 16.3373 12.1619L19.5982 12.6385C19.9415 12.6887 20.1132 12.7138 20.1927 12.7977C20.2618 12.8706 20.2943 12.9709 20.2812 13.0706C20.266 13.1851 20.1417 13.3062 19.8931 13.5483L17.5345 15.8457C17.4609 15.9173 17.4242 15.9531 17.4004 15.9957C17.3794 16.0334 17.366 16.0748 17.3608 16.1177C17.3549 16.1661 17.3636 16.2167 17.3809 16.3179L17.9375 19.5628C17.9962 19.905 18.0255 20.0762 17.9704 20.1777C17.9224 20.2661 17.8371 20.328 17.7382 20.3464C17.6246 20.3674 17.4709 20.2866 17.1636 20.125L14.2484 18.5919C14.1576 18.5442 14.1122 18.5203 14.0643 18.5109C14.022 18.5026 13.9784 18.5026 13.936 18.5109C13.8882 18.5203 13.8428 18.5442 13.7519 18.5919L10.8368 20.125C10.5294 20.2866 10.3758 20.3674 10.2621 20.3464C10.1633 20.328 10.078 20.2661 10.03 20.1777C9.97483 20.0762 10.0042 19.905 10.0629 19.5628L10.6194 16.3179C10.6368 16.2167 10.6454 16.1661 10.6396 16.1177C10.6344 16.0748 10.6209 16.0334 10.5999 15.9957C10.5762 15.9531 10.5394 15.9173 10.4659 15.8457L8.1072 13.5483C7.8586 13.3062 7.73431 13.1851 7.71918 13.0706C7.70602 12.9709 7.73853 12.8706 7.80766 12.7977C7.88712 12.7138 8.05881 12.6887 8.40219 12.6385L11.663 12.1619C11.7644 12.1471 11.8151 12.1397 11.8593 12.1191C11.8984 12.1009 11.9336 12.0753 11.963 12.0438C11.9961 12.0081 12.0188 11.9621 12.0641 11.8702L13.5219 8.91692Z" fill="#006EFF" stroke="#006EFF" stroke-width="2" stroke-linecap="round" stroke-linejoin="round"/>
</svg>
