<svg width="20" height="20" viewBox="0 0 20 20" fill="none" xmlns="http://www.w3.org/2000/svg">
<g clip-path="url(#clip0_3440_8021)">
<path fill-rule="evenodd" clip-rule="evenodd" d="M16.875 3.875V7.3916C17.4113 7.53087 17.8863 7.84406 18.2256 8.28212C18.3944 8.50008 18.5249 8.74284 18.6134 9H17.1999C17.1789 8.97544 17.1569 8.95163 17.1339 8.92862C16.8995 8.6942 16.5815 8.5625 16.25 8.5625C15.9185 8.5625 15.6005 8.6942 15.3661 8.92862C15.3431 8.95163 15.3211 8.97544 15.3001 9H13.8858C14.0098 8.64154 14.2137 8.31498 14.4831 8.04558C14.7988 7.72989 15.193 7.50414 15.625 7.3916V3.875C15.6248 3.7093 15.5589 3.55044 15.4417 3.43328C15.3246 3.31611 15.1657 3.2502 15 3.25H3.75C3.5843 3.2502 3.42544 3.31611 3.30828 3.43328C3.19111 3.55044 3.1252 3.7093 3.125 3.875V7.3916C3.55704 7.50414 3.95123 7.72989 4.26692 8.04558C4.58261 8.36127 4.80836 8.75546 4.9209 9.1875H13V10.4375H5V14.1875H13V15.4375H3.125V17.3125H1.875V15.4375H1.25C0.918594 15.4371 0.600867 15.3053 0.366528 15.071C0.132188 14.8366 0.000372204 14.5189 0 14.1875V9.8125C0.000706599 9.25841 0.185142 8.72019 0.524428 8.28212C0.863714 7.84406 1.33869 7.53087 1.875 7.3916V3.875C1.87557 3.37789 2.0733 2.90131 2.4248 2.5498C2.77631 2.1983 3.25289 2.00057 3.75 2H15C15.4971 2.00057 15.9737 2.1983 16.3252 2.5498C16.6767 2.90131 16.8744 3.37789 16.875 3.875ZM1.25 9.8125V14.1875H3.75V9.8125C3.75 9.48098 3.6183 9.16304 3.38388 8.92862C3.14946 8.6942 2.83152 8.5625 2.5 8.5625C2.16848 8.5625 1.85054 8.6942 1.61612 8.92862C1.3817 9.16304 1.25 9.48098 1.25 9.8125ZM17.5 10.35C17.859 10.35 18.15 10.641 18.15 11V12.85H20C20.359 12.85 20.65 13.141 20.65 13.5C20.65 13.859 20.359 14.15 20 14.15H18.15V16C18.15 16.359 17.859 16.65 17.5 16.65C17.141 16.65 16.85 16.359 16.85 16V14.15H15C14.641 14.15 14.35 13.859 14.35 13.5C14.35 13.141 14.641 12.85 15 12.85H16.85V11C16.85 10.641 17.141 10.35 17.5 10.35Z" fill="#070707"/>
</g>
<defs>
<clipPath id="clip0_3440_8021">
<rect width="20" height="20" fill="white"/>
</clipPath>
</defs>
</svg>
