<svg width="16" height="24" viewBox="0 0 16 24" fill="none" xmlns="http://www.w3.org/2000/svg">
<g clip-path="url(#clip0_571_16462)">
<path d="M13.8244 10.4383H9.15918L10.1925 1.97814C10.1945 1.90716 10.1746 1.83729 10.1353 1.77811C10.0961 1.71892 10.0395 1.6733 9.97337 1.6475C9.90722 1.6217 9.83471 1.61698 9.76576 1.63398C9.69682 1.65098 9.63481 1.68887 9.58823 1.74246L1.53898 13.2241C1.46745 13.3272 1.42541 13.4478 1.41742 13.573C1.40942 13.6982 1.43576 13.8232 1.4936 13.9345C1.55144 14.0459 1.63858 14.1393 1.74562 14.2047C1.85265 14.2701 1.97552 14.3051 2.10097 14.3058H6.74199L5.72072 22.5968C5.71739 22.6683 5.73641 22.7391 5.77515 22.7993C5.81389 22.8594 5.87041 22.9061 5.93687 22.9327C6.00333 22.9592 6.07642 22.9645 6.14598 22.9476C6.21555 22.9307 6.27812 22.8926 6.32502 22.8385L14.3864 11.5019C14.4531 11.399 14.4911 11.2802 14.4966 11.1578C14.5021 11.0353 14.4747 10.9136 14.4175 10.8052C14.3602 10.6968 14.275 10.6056 14.1708 10.5412C14.0665 10.4767 13.9469 10.4412 13.8244 10.4383Z" stroke="#F2B300" stroke-width="2" stroke-linecap="round" stroke-linejoin="round"/>
</g>
<defs>
<clipPath id="clip0_571_16462">
<rect width="16" height="24" fill="white"/>
</clipPath>
</defs>
</svg>
