<svg width="24" height="24" viewBox="0 0 24 24" fill="none" xmlns="http://www.w3.org/2000/svg">
<circle cx="12" cy="12" r="11" fill="url(#paint0_linear_3690_17340)"/>
<path fill-rule="evenodd" clip-rule="evenodd" d="M14.903 4C15.2002 4 15.4414 4.24123 15.4414 4.53846L15.4418 5.14714C16.4901 5.21901 17.3607 5.57808 17.9769 6.19555C18.6496 6.87114 19.0035 7.84252 19 9.00775V15.5576C19 17.9498 17.4808 19.4359 15.0362 19.4359H8.96378C6.51917 19.4359 5 17.9289 5 15.503V9.00631C5 6.74994 6.3548 5.30159 8.56438 5.14739L8.56482 4.53846C8.56482 4.24123 8.80605 4 9.10328 4C9.40051 4 9.64174 4.24123 9.64174 4.53846L9.64152 5.13364H14.3642L14.3645 4.53846C14.3645 4.24123 14.6058 4 14.903 4ZM17.923 10.3926H6.07692V15.503C6.07692 17.3453 7.10215 18.359 8.96378 18.359H15.0362C16.8978 18.359 17.9231 17.3639 17.9231 15.5576L17.923 10.3926ZM15.1957 14.9101C15.4929 14.9101 15.7342 15.1514 15.7342 15.4486C15.7342 15.7458 15.4929 15.987 15.1957 15.987C14.8985 15.987 14.6544 15.7458 14.6544 15.4486C14.6544 15.1514 14.892 14.9101 15.1892 14.9101H15.1957ZM12.0098 14.9101C12.307 14.9101 12.5483 15.1514 12.5483 15.4486C12.5483 15.7458 12.307 15.987 12.0098 15.987C11.7126 15.987 11.4685 15.7458 11.4685 15.4486C11.4685 15.1514 11.7061 14.9101 12.0033 14.9101H12.0098ZM8.81725 14.9101C9.11448 14.9101 9.35571 15.1514 9.35571 15.4486C9.35571 15.7458 9.11448 15.987 8.81725 15.987C8.52002 15.987 8.2752 15.7458 8.2752 15.4486C8.2752 15.1514 8.51356 14.9101 8.81079 14.9101H8.81725ZM15.1957 12.1197C15.4929 12.1197 15.7342 12.3609 15.7342 12.6581C15.7342 12.9554 15.4929 13.1966 15.1957 13.1966C14.8985 13.1966 14.6544 12.9554 14.6544 12.6581C14.6544 12.3609 14.892 12.1197 15.1892 12.1197H15.1957ZM12.0098 12.1197C12.307 12.1197 12.5483 12.3609 12.5483 12.6581C12.5483 12.9554 12.307 13.1966 12.0098 13.1966C11.7126 13.1966 11.4685 12.9554 11.4685 12.6581C11.4685 12.3609 11.7061 12.1197 12.0033 12.1197H12.0098ZM8.81725 12.1197C9.11448 12.1197 9.35571 12.3609 9.35571 12.6581C9.35571 12.9554 9.11448 13.1966 8.81725 13.1966C8.52002 13.1966 8.2752 12.9554 8.2752 12.6581C8.2752 12.3609 8.51356 12.1197 8.81079 12.1197H8.81725ZM14.3642 6.21056H9.64152L9.64174 6.90122C9.64174 7.19845 9.40051 7.43968 9.10328 7.43968C8.80605 7.43968 8.56482 7.19845 8.56482 6.90122L8.56444 6.22685C6.95607 6.36197 6.07692 7.33691 6.07692 9.00631V9.31567H17.923L17.9231 9.00631C17.9259 8.11965 17.6875 7.43042 17.2144 6.95657C16.7991 6.54003 16.192 6.29125 15.4421 6.2272L15.4414 6.90122C15.4414 7.19845 15.2002 7.43968 14.903 7.43968C14.6058 7.43968 14.3645 7.19845 14.3645 6.90122L14.3642 6.21056Z" fill="#FFF6FA"/>
<defs>
<linearGradient id="paint0_linear_3690_17340" x1="12" y1="1" x2="12" y2="23" gradientUnits="userSpaceOnUse">
<stop stop-color="#B6E3FD"/>
<stop offset="1" stop-color="#5DADFF"/>
</linearGradient>
</defs>
</svg>
