<svg width="56" height="57" viewBox="0 0 56 57" fill="none" xmlns="http://www.w3.org/2000/svg">
<path d="M16 32.813C18.2091 32.813 20 31.0221 20 28.813C20 26.6038 18.2091 24.813 16 24.813C13.7909 24.813 12 26.6038 12 28.813C12 31.0221 13.7909 32.813 16 32.813ZM20 40.813C20 43.0221 18.2091 44.813 16 44.813C13.7909 44.813 12 43.0221 12 40.813C12 38.6038 13.7909 36.813 16 36.813C18.2091 36.813 20 38.6038 20 40.813ZM28 32.813C30.2091 32.813 32 31.0221 32 28.813C32 26.6038 30.2091 24.813 28 24.813C25.7909 24.813 24 26.6038 24 28.813C24 31.0221 25.7909 32.813 28 32.813ZM32 40.813C32 43.0221 30.2091 44.813 28 44.813C25.7909 44.813 24 43.0221 24 40.813C24 38.6038 25.7909 36.813 28 36.813C30.2091 36.813 32 38.6038 32 40.813ZM40 32.813C42.2091 32.813 44 31.0221 44 28.813C44 26.6038 42.2091 24.813 40 24.813C37.7909 24.813 36 26.6038 36 28.813C36 31.0221 37.7909 32.813 40 32.813ZM56 10.813C56 5.29014 51.5228 0.812988 46 0.812988H10C4.47715 0.812988 0 5.29014 0 10.813V46.813C0 52.3358 4.47715 56.813 10 56.813H46C51.5228 56.813 56 52.3358 56 46.813V10.813ZM4 16.813H52V46.813C52 50.1267 49.3137 52.813 46 52.813H10C6.68629 52.813 4 50.1267 4 46.813V16.813ZM10 4.81299H46C49.3137 4.81299 52 7.49928 52 10.813V12.813H4V10.813C4 7.49928 6.68629 4.81299 10 4.81299Z" fill="#ADD0FF"/>
</svg>
