<svg width="24" height="24" viewBox="0 0 24 24" fill="none" xmlns="http://www.w3.org/2000/svg">
<path d="M7.77924 18.5163L5.09565 20.839C4.99847 20.9231 4.87999 20.9769 4.75413 20.9941C4.62827 21.0112 4.50028 20.991 4.38519 20.9358C4.27011 20.8806 4.17272 20.7928 4.10449 20.6825C4.03625 20.5723 4 20.4443 4 20.3136V6.68641C4 6.50436 4.07024 6.32977 4.19526 6.20104C4.32029 6.07232 4.48986 6 4.66667 6H19.3333C19.5101 6 19.6797 6.07232 19.8047 6.20104C19.9298 6.32977 20 6.50436 20 6.68641V17.6689C20 17.8509 19.9298 18.0255 19.8047 18.1543C19.6797 18.283 19.5101 18.3553 19.3333 18.3553H8.20823C8.05129 18.3553 7.89938 18.4123 7.77924 18.5163Z" stroke="#70777C" stroke-width="1.3" stroke-linecap="round" stroke-linejoin="round"/>
<path d="M8 13C8.55228 13 9 12.5523 9 12C9 11.4477 8.55228 11 8 11C7.44772 11 7 11.4477 7 12C7 12.5523 7.44772 13 8 13Z" fill="#70777C"/>
<path d="M12 13C12.5523 13 13 12.5523 13 12C13 11.4477 12.5523 11 12 11C11.4477 11 11 11.4477 11 12C11 12.5523 11.4477 13 12 13Z" fill="#70777C"/>
<path d="M16 13C16.5523 13 17 12.5523 17 12C17 11.4477 16.5523 11 16 11C15.4477 11 15 11.4477 15 12C15 12.5523 15.4477 13 16 13Z" fill="#70777C"/>
<path d="M8 13C8.55228 13 9 12.5523 9 12C9 11.4477 8.55228 11 8 11C7.44772 11 7 11.4477 7 12C7 12.5523 7.44772 13 8 13Z" fill="#70777C"/>
<path d="M12 13C12.5523 13 13 12.5523 13 12C13 11.4477 12.5523 11 12 11C11.4477 11 11 11.4477 11 12C11 12.5523 11.4477 13 12 13Z" fill="#70777C"/>
<path d="M16 13C16.5523 13 17 12.5523 17 12C17 11.4477 16.5523 11 16 11C15.4477 11 15 11.4477 15 12C15 12.5523 15.4477 13 16 13Z" fill="#70777C"/>
</svg>
