<svg width="20" height="21" viewBox="0 0 20 21" fill="none" xmlns="http://www.w3.org/2000/svg">
<path d="M10 1.33334C5.02994 1.33334 1 5.36328 1 10.3333C1 15.3034 5.02994 19.3333 10 19.3333C14.9701 19.3333 19 15.3034 19 10.3333C19 5.36328 14.9701 1.33334 10 1.33334ZM15.7686 4.65917C16.1403 5.02893 16.099 5.68584 15.6565 6.03002L12.0533 8.79925C11.9137 8.90939 11.7209 8.90349 11.6029 8.78548C11.483 8.66551 11.479 8.46883 11.5931 8.32919L14.4351 4.75948C14.7753 4.33662 15.4106 4.30122 15.7686 4.65917ZM13.1606 2.8812C13.6445 3.07985 13.8588 3.70332 13.5815 4.19108L11.3118 8.12858C11.2233 8.28395 11.0444 8.35082 10.891 8.28789C10.7356 8.22298 10.6549 8.044 10.7061 7.86896L11.9648 3.48304C12.1182 2.96381 12.6925 2.68846 13.1606 2.8812ZM10.0551 2.23806C10.5605 2.24593 10.9795 2.72582 10.9126 3.26472L10.3324 7.79029C10.3108 7.96927 10.1672 8.10301 9.99803 8.10105C9.83282 8.09908 9.69318 7.96337 9.67548 7.78832L9.15035 3.27456C9.08938 2.71796 9.53191 2.22823 10.0551 2.23806ZM6.95936 2.82809C7.44122 2.62552 8.03518 2.9166 8.18466 3.45747L9.3667 7.84536C9.4139 8.01647 9.33523 8.19151 9.18182 8.25642C9.02644 8.32132 8.84157 8.25052 8.75503 8.09121L6.5424 4.1006C6.28278 3.62267 6.49323 3.02281 6.95936 2.82809ZM4.34353 4.53723C4.70935 4.18714 5.34266 4.23435 5.67701 4.66311L8.44821 8.28789C8.55835 8.43146 8.55048 8.62814 8.42854 8.74418C8.30857 8.85826 8.11582 8.86022 7.97815 8.74811L4.43007 5.91005C3.99344 5.55799 3.96591 4.89912 4.34353 4.53723ZM2.5577 7.14519C2.76224 6.68103 3.36604 6.48238 3.83807 6.75183L7.7854 9.0392C7.94274 9.12967 8.00962 9.31455 7.94275 9.46796C7.87588 9.6194 7.69886 9.6961 7.52775 9.64497L3.16346 8.38033C2.62653 8.22102 2.34725 7.62508 2.5577 7.14519ZM1.90472 10.2783C1.91259 9.77281 2.39248 9.35389 2.93138 9.42076L7.45695 10.001C7.63593 10.0226 7.76967 10.1662 7.7677 10.3353C7.76574 10.5005 7.63003 10.6402 7.45498 10.6579L2.94121 11.183C2.38265 11.244 1.89489 10.8014 1.90472 10.2783ZM2.49279 13.374C2.29021 12.8921 2.5813 12.2982 3.12216 12.1487L7.51005 10.9666C7.68116 10.9194 7.85621 10.9981 7.92111 11.1515C7.98601 11.3069 7.91521 11.4918 7.7559 11.5783L3.7653 13.7909C3.28934 14.0506 2.68947 13.8401 2.49279 13.374ZM4.20389 15.9898C3.8538 15.624 3.90101 14.9907 4.32977 14.6563L7.95455 11.8851C8.09812 11.775 8.2948 11.7829 8.41084 11.9048C8.52492 12.0248 8.52688 12.2175 8.41478 12.3552L5.57671 15.9033C5.22465 16.3399 4.56578 16.3674 4.20389 15.9898ZM6.81185 17.7756C6.34769 17.5711 6.14904 16.9673 6.41849 16.4953L8.70586 12.5479C8.79633 12.3906 8.98121 12.3237 9.13462 12.3906C9.28606 12.4575 9.36276 12.6345 9.31163 12.8056L8.04699 17.1699C7.88768 17.7068 7.28978 17.9861 6.81185 17.7756ZM9.97443 18.4286C9.45127 18.4326 9.01268 17.9409 9.07955 17.3843L9.64598 12.8764C9.66762 12.6994 9.80529 12.5676 9.97246 12.5656C10.1416 12.5637 10.2852 12.6994 10.3049 12.8803L10.8438 17.4118C10.9008 17.9487 10.4799 18.4247 9.97443 18.4286ZM13.0092 17.8465C12.5372 18.0294 11.9688 17.7442 11.8252 17.221L10.649 12.8115C10.6018 12.6364 10.6844 12.4575 10.8418 12.3965C10.9972 12.3355 11.1742 12.4083 11.2587 12.5637L13.4537 16.5425C13.7231 17.0361 13.4969 17.6557 13.0092 17.8465ZM15.6742 16.1039C15.3044 16.4756 14.6475 16.4343 14.3033 15.9918L11.5341 12.3886C11.424 12.249 11.4299 12.0562 11.5479 11.9382C11.6678 11.8183 11.8645 11.8143 12.0042 11.9284L15.5739 14.7704C15.9967 15.1087 16.0321 15.744 15.6742 16.1039ZM17.4521 13.494C17.2535 13.9778 16.63 14.1922 16.1423 13.9149L12.2048 11.6452C12.0494 11.5567 11.9825 11.3777 12.0455 11.2243C12.1104 11.0689 12.2893 10.9883 12.4644 11.0394L16.8503 12.2982C17.3695 12.4516 17.6449 13.0259 17.4521 13.494ZM18.0953 10.3589C18.0992 10.8821 17.6075 11.3207 17.0509 11.2538L12.5431 10.6874C12.366 10.6657 12.2343 10.5281 12.2323 10.3609C12.2303 10.1917 12.366 10.0482 12.547 10.0285L17.0785 9.48959C17.6154 9.43256 18.0913 9.85345 18.0953 10.3589ZM17.5111 7.32416C17.6941 7.79619 17.4089 8.36459 16.8857 8.50817L12.4762 9.6843C12.3011 9.73151 12.1222 9.6489 12.0612 9.49156C12.0002 9.33618 12.073 9.15917 12.2284 9.0746L16.2072 6.87967C16.7028 6.61022 17.3223 6.8364 17.5111 7.32416Z" fill="#252525"/>
</svg>
