<svg width="20" height="20" viewBox="0 0 20 20" fill="none" xmlns="http://www.w3.org/2000/svg">
<path d="M10 1.00098C5.02994 1.00098 1 5.03091 1 10.001C1 14.971 5.02994 19.001 10 19.001C14.9701 19.001 19 14.971 19 10.001C19 5.03091 14.9701 1.00098 10 1.00098ZM15.7686 4.32681C16.1403 4.69656 16.099 5.35347 15.6565 5.69766L12.0533 8.46688C11.9137 8.57702 11.7209 8.57112 11.6029 8.45312C11.483 8.33314 11.479 8.13646 11.5931 7.99682L14.4351 4.42711C14.7753 4.00425 15.4106 3.96885 15.7686 4.32681ZM13.1606 2.54883C13.6445 2.74748 13.8588 3.37095 13.5815 3.85871L11.3118 7.79621C11.2233 7.95159 11.0444 8.01846 10.891 7.95552C10.7356 7.89062 10.6549 7.71164 10.7061 7.53659L11.9648 3.15067C12.1182 2.63144 12.6925 2.35609 13.1606 2.54883ZM10.0551 1.90569C10.5605 1.91356 10.9795 2.39345 10.9126 2.93235L10.3324 7.45792C10.3108 7.6369 10.1672 7.77065 9.99803 7.76868C9.83282 7.76671 9.69318 7.631 9.67548 7.45596L9.15035 2.94219C9.08938 2.38559 9.53191 1.89586 10.0551 1.90569ZM6.95936 2.49573C7.44122 2.29315 8.03518 2.58423 8.18466 3.1251L9.3667 7.51299C9.4139 7.6841 9.33523 7.85915 9.18182 7.92405C9.02644 7.98895 8.84157 7.91815 8.75503 7.75884L6.5424 3.76824C6.28278 3.29031 6.49323 2.69044 6.95936 2.49573ZM4.34353 4.20486C4.70935 3.85477 5.34266 3.90198 5.67701 4.33074L8.44821 7.95552C8.55835 8.09909 8.55048 8.29577 8.42854 8.41182C8.30857 8.52589 8.11582 8.52785 7.97815 8.41575L4.43007 5.57768C3.99344 5.22563 3.96591 4.56675 4.34353 4.20486ZM2.5577 6.81282C2.76224 6.34866 3.36604 6.15001 3.83807 6.41946L7.7854 8.70683C7.94274 8.7973 8.00962 8.98218 7.94275 9.13559C7.87588 9.28703 7.69886 9.36374 7.52775 9.3126L3.16346 8.04796C2.62653 7.88865 2.34725 7.29271 2.5577 6.81282ZM1.90472 9.9459C1.91259 9.44044 2.39248 9.02152 2.93138 9.08839L7.45695 9.66859C7.63593 9.69022 7.76967 9.8338 7.7677 10.0029C7.76574 10.1682 7.63003 10.3078 7.45498 10.3255L2.94121 10.8506C2.38265 10.9116 1.89489 10.4691 1.90472 9.9459ZM2.49279 13.0416C2.29021 12.5598 2.5813 11.9658 3.12216 11.8163L7.51005 10.6343C7.68116 10.5871 7.85621 10.6657 7.92111 10.8192C7.98601 10.9745 7.91521 11.1594 7.7559 11.246L3.7653 13.4586C3.28934 13.7182 2.68947 13.5078 2.49279 13.0416ZM4.20389 15.6574C3.8538 15.2916 3.90101 14.6583 4.32977 14.324L7.95455 11.5528C8.09812 11.4426 8.2948 11.4505 8.41084 11.5724C8.52492 11.6924 8.52688 11.8852 8.41478 12.0228L5.57671 15.5709C5.22465 16.0075 4.56578 16.0351 4.20389 15.6574ZM6.81185 17.4433C6.34769 17.2387 6.14904 16.6349 6.41849 16.1629L8.70586 12.2156C8.79633 12.0582 8.98121 11.9914 9.13462 12.0582C9.28606 12.1251 9.36276 12.3021 9.31163 12.4732L8.04699 16.8375C7.88768 17.3744 7.28978 17.6537 6.81185 17.4433ZM9.97443 18.0963C9.45127 18.1002 9.01268 17.6085 9.07955 17.0519L9.64598 12.544C9.66762 12.367 9.80529 12.2352 9.97246 12.2333C10.1416 12.2313 10.2852 12.367 10.3049 12.548L10.8438 17.0794C10.9008 17.6164 10.4799 18.0923 9.97443 18.0963ZM13.0092 17.5141C12.5372 17.697 11.9688 17.4118 11.8252 16.8887L10.649 12.4791C10.6018 12.3041 10.6844 12.1251 10.8418 12.0641C10.9972 12.0032 11.1742 12.0759 11.2587 12.2313L13.4537 16.2101C13.7231 16.7038 13.4969 17.3233 13.0092 17.5141ZM15.6742 15.7715C15.3044 16.1432 14.6475 16.1019 14.3033 15.6594L11.5341 12.0563C11.424 11.9166 11.4299 11.7239 11.5479 11.6059C11.6678 11.4859 11.8645 11.482 12.0042 11.596L15.5739 14.438C15.9967 14.7763 16.0321 15.4116 15.6742 15.7715ZM17.4521 13.1616C17.2535 13.6454 16.63 13.8598 16.1423 13.5825L12.2048 11.3128C12.0494 11.2243 11.9825 11.0453 12.0455 10.8919C12.1104 10.7366 12.2893 10.6559 12.4644 10.707L16.8503 11.9658C17.3695 12.1192 17.6449 12.6935 17.4521 13.1616ZM18.0953 10.0265C18.0992 10.5497 17.6075 10.9883 17.0509 10.9214L12.5431 10.355C12.366 10.3334 12.2343 10.1957 12.2323 10.0285C12.2303 9.85937 12.366 9.71579 12.547 9.69612L17.0785 9.15723C17.6154 9.10019 18.0913 9.52108 18.0953 10.0265ZM17.5111 6.9918C17.6941 7.46383 17.4089 8.03222 16.8857 8.1758L12.4762 9.35194C12.3011 9.39914 12.1222 9.31653 12.0612 9.15919C12.0002 9.00381 12.073 8.8268 12.2284 8.74223L16.2072 6.5473C16.7028 6.27785 17.3223 6.50403 17.5111 6.9918Z" fill="#252525" fill-opacity="0.8"/>
</svg>
