<svg width="16" height="16" viewBox="0 0 16 16" fill="none" xmlns="http://www.w3.org/2000/svg">
<path d="M8 1C4.1344 1 1 4.13439 1 8C1 11.8656 4.1344 15 8 15C11.8656 15 15 11.8656 15 8C15 4.13439 11.8656 1 8 1ZM12.4867 3.58676C12.7758 3.87435 12.7437 4.38527 12.3995 4.65297L9.59703 6.80682C9.48842 6.89248 9.3385 6.88789 9.24672 6.79611C9.15341 6.7028 9.15035 6.54982 9.23907 6.44121L11.4495 3.66477C11.7142 3.33588 12.2083 3.30835 12.4867 3.58676ZM10.4583 2.20389C10.8346 2.35839 11.0013 2.84331 10.7856 3.22268L9.02033 6.28518C8.95149 6.40603 8.81228 6.45804 8.69296 6.40909C8.57212 6.35861 8.5094 6.2194 8.54917 6.08326L9.52819 2.67198C9.64751 2.26814 10.0942 2.05398 10.4583 2.20389ZM8.04283 1.70367C8.43597 1.70979 8.7618 2.08304 8.70979 2.50218L8.25852 6.02207C8.2417 6.16127 8.13002 6.2653 7.99847 6.26377C7.86997 6.26224 7.76136 6.15668 7.7476 6.02054L7.33916 2.50983C7.29174 2.07692 7.63593 1.69602 8.04283 1.70367ZM5.63505 2.16258C6.00984 2.00502 6.47181 2.23142 6.58807 2.6521L7.50743 6.0649C7.54414 6.19799 7.48295 6.33413 7.36364 6.38461C7.24279 6.43509 7.099 6.38002 7.03169 6.25612L5.31075 3.15231C5.10883 2.78059 5.27251 2.31403 5.63505 2.16258ZM3.60052 3.49191C3.88505 3.21962 4.37762 3.25634 4.63767 3.58982L6.79305 6.40909C6.87871 6.52076 6.8726 6.67373 6.77776 6.76399C6.68444 6.85271 6.53453 6.85424 6.42745 6.76704L3.66783 4.55966C3.32823 4.28584 3.30682 3.77338 3.60052 3.49191ZM2.21154 5.52032C2.37063 5.15931 2.84026 5.00481 3.20739 5.21438L6.27753 6.99344C6.39991 7.06381 6.45192 7.2076 6.39991 7.32692C6.3479 7.44471 6.21023 7.50437 6.07714 7.4646L2.68269 6.48099C2.26508 6.35708 2.04786 5.89357 2.21154 5.52032ZM1.70367 7.95717C1.70979 7.56403 2.08304 7.2382 2.50219 7.29021L6.02207 7.74147C6.16128 7.7583 6.2653 7.86997 6.26377 8.00153C6.26224 8.13003 6.15669 8.23864 6.02054 8.25241L2.50983 8.66084C2.07539 8.70826 1.69602 8.36407 1.70367 7.95717ZM2.16106 10.3649C2.0035 9.99017 2.2299 9.52819 2.65057 9.41193L6.06337 8.49257C6.19646 8.45585 6.3326 8.51704 6.38308 8.63636C6.43357 8.75721 6.3785 8.90101 6.25459 8.96831L3.15079 10.6892C2.78059 10.8912 2.31403 10.7275 2.16106 10.3649ZM3.49192 12.3995C3.21962 12.1149 3.25634 11.6224 3.58982 11.3623L6.40909 9.20695C6.52076 9.12128 6.67374 9.1274 6.76399 9.22225C6.85271 9.31556 6.85424 9.46547 6.76705 9.57255L4.55966 12.3322C4.28584 12.6718 3.77338 12.6932 3.49192 12.3995ZM5.52033 13.7885C5.15931 13.6294 5.00481 13.1597 5.21438 12.7926L6.99345 9.72246C7.06381 9.60009 7.20761 9.54808 7.32692 9.60009C7.44471 9.6521 7.50437 9.78977 7.4646 9.92286L6.48099 13.3173C6.35708 13.7349 5.89205 13.9521 5.52033 13.7885ZM7.98011 14.2963C7.57321 14.2994 7.23208 13.917 7.28409 13.484L7.72465 9.97793C7.74148 9.84025 7.84856 9.73776 7.97858 9.73623C8.11014 9.7347 8.22181 9.84025 8.2371 9.98099L8.65625 13.5055C8.70061 13.9231 8.37325 14.2933 7.98011 14.2963ZM10.3405 13.8435C9.97334 13.9858 9.53125 13.764 9.41958 13.3571L8.50481 9.92745C8.46809 9.7913 8.53234 9.6521 8.65472 9.60468C8.77557 9.55726 8.91324 9.61385 8.97902 9.7347L10.6862 12.8293C10.8958 13.2133 10.7198 13.6951 10.3405 13.8435ZM12.4132 12.4882C12.1257 12.7773 11.6147 12.7452 11.347 12.401L9.19318 9.59856C9.10752 9.48995 9.11211 9.34003 9.20389 9.24825C9.2972 9.15494 9.45018 9.15188 9.55879 9.2406L12.3352 11.451C12.6641 11.7142 12.6916 12.2083 12.4132 12.4882ZM13.7961 10.4583C13.6416 10.8346 13.1567 11.0013 12.7773 10.7856L9.71482 9.02032C9.59397 8.95149 9.54196 8.81228 9.59091 8.69296C9.64139 8.57211 9.7806 8.50939 9.91674 8.54917L13.328 9.52819C13.7319 9.64751 13.946 10.0942 13.7961 10.4583ZM14.2963 8.01988C14.2994 8.42679 13.917 8.76792 13.484 8.71591L9.97793 8.27535C9.84025 8.25852 9.73776 8.15144 9.73623 8.02142C9.7347 7.88986 9.84025 7.77819 9.98099 7.76289L13.5055 7.34375C13.9231 7.29939 14.2933 7.62675 14.2963 8.01988ZM13.842 5.65953C13.9843 6.02666 13.7625 6.46875 13.3556 6.58042L9.92592 7.49519C9.78978 7.5319 9.65057 7.46766 9.60315 7.34528C9.55573 7.22443 9.61233 7.08676 9.73318 7.02098L12.8278 5.31381C13.2133 5.10424 13.6951 5.28016 13.842 5.65953Z" fill="#FF9300"/>
</svg>
