<svg width="32" height="32" viewBox="0 0 32 32" fill="none" xmlns="http://www.w3.org/2000/svg">
<path d="M24.1457 4.26406C27.492 6.75517 29.6606 10.7449 29.6606 15.2422C29.6606 15.3706 29.6584 15.4975 29.6548 15.6252C28.6836 9.40766 24.7316 7.14908 24.7316 7.14908C22.9907 6.13019 22.8186 7.39042 22.8186 7.39042C22.6633 8.8575 25.007 8.49513 25.007 8.49513C29.2139 12.0455 29.5046 16.1452 29.3918 17.9519C29.052 19.6442 28.4002 21.2243 27.4993 22.6275C29.6335 16.9463 27.4583 13.1208 27.4583 13.1208C26.4791 11.3567 25.6896 12.3528 25.6896 12.3528C24.81 13.536 27.0108 14.4199 27.0108 14.4199C28.5935 18.9569 27.399 22.3334 26.3934 24.1159C23.8901 27.0515 20.1681 28.9125 16.0117 28.9125C12.6522 28.9125 9.5769 27.6963 7.19881 25.6798C7.91143 25.6028 8.94044 25.7994 8.94044 25.7994C9.58642 26.0062 14.3045 26.8865 15.3379 27.0288C16.3713 27.1711 17.1213 27.0288 17.1213 27.0288C18.0646 26.7698 25.7291 22.6143 25.7291 22.6143C26.6468 22.0444 26.5047 21.6431 26.5047 21.6431C26.4791 21.0871 25.2384 21.0739 25.2384 21.0739C24.2175 21.0482 19.0219 22.951 19.0219 22.951C19.9784 23.4168 19.733 24.2325 19.733 24.2325C19.7587 24.9052 18.0009 25.2808 18.0009 25.2808C14.4854 25.3072 13.9903 24.9316 13.9903 24.9316C17.1264 25.0702 18.2983 24.6903 18.2983 24.6903C19.8495 24.2765 18.7121 23.3442 18.7121 23.3442C18.195 22.9987 16.7478 22.7919 16.7478 22.7919C15.4727 22.6532 14.473 22.4045 14.473 22.4045C13.4395 22.1559 11.8883 21.7561 11.8883 21.7561H9.71678C7.59137 21.8243 5.91126 22.362 5.00675 22.7229C4.28388 20.8032 3.85103 17.9938 5.07193 14.4933C5.07193 14.4933 7.27278 13.6094 6.39317 12.4262C6.39317 12.4262 5.60365 11.43 4.62444 13.1942C4.62444 13.1942 2.43897 17.0372 4.59881 22.7405C3.63497 21.272 2.94652 19.6061 2.60596 17.817C2.51734 15.9479 2.89306 11.9596 6.99886 8.49513C6.99886 8.49513 9.34253 8.8575 9.18726 7.39042C9.18726 7.39042 9.01515 6.13019 7.27425 7.14908C7.27425 7.14908 3.36618 9.38198 2.3672 15.521C2.365 15.4286 2.36354 15.3354 2.36354 15.2422C2.36354 10.6745 4.601 6.63047 8.03813 4.14816C3.78585 6.81018 0.956604 11.5401 0.956604 16.9331C0.956604 25.2543 7.69171 32 16 32C24.3083 32 31.0434 25.2543 31.0434 16.9331C31.0434 11.6178 28.2955 6.94662 24.1457 4.26406Z" fill="#0077DD"/>
<path d="M18.6551 6.68036L20.8523 1.73556C20.8523 1.73556 18.543 3.35815 17.6553 4.28975C17.6553 4.28975 18.5342 4.32423 18.3877 4.97121C18.3877 4.97121 18.4742 5.84266 17.7418 5.88594C17.0094 5.92921 16.5011 5.68715 16.5443 4.86778C16.5443 4.86778 16.2081 3.23638 17.5177 3.08968L16.0617 0L14.5881 3.10655C14.5881 3.10655 15.5014 3.03759 15.5358 3.85769L15.5446 4.96241C15.5446 4.96241 15.4325 5.90281 14.7778 5.89474C14.7778 5.89474 13.8469 6.00697 13.8044 5.2903C13.8044 5.2903 13.417 4.28902 14.5456 4.22887L11.3318 1.71722L13.343 6.68036C13.343 6.68036 15.8463 5.56685 18.6551 6.68036Z" fill="#0077DD"/>
<path d="M10.2369 18.7573C10.2742 18.805 10.3123 18.8527 10.3511 18.8997C10.3563 18.9063 10.3621 18.9129 10.3673 18.9187C10.4002 18.9583 10.4332 18.9972 10.4669 19.0361C10.4786 19.0493 10.4903 19.0625 10.502 19.0757C10.5298 19.1072 10.5577 19.1388 10.5862 19.1696C10.6002 19.185 10.6148 19.2004 10.6287 19.2158C10.6551 19.2444 10.6814 19.2723 10.7085 19.3002C10.7239 19.3163 10.74 19.3324 10.7554 19.3486C10.7818 19.375 10.8074 19.4021 10.8338 19.4278C10.8499 19.4439 10.8667 19.4601 10.8836 19.4762C10.91 19.5019 10.9363 19.5268 10.9627 19.5525C10.9795 19.5686 10.9971 19.5848 11.0147 19.6009C11.0411 19.6259 11.0682 19.6501 11.0953 19.6743C11.1128 19.6904 11.1304 19.7058 11.148 19.7212C11.1751 19.7454 11.2022 19.7689 11.23 19.7924C11.2483 19.8078 11.2659 19.8232 11.2842 19.8386C11.312 19.8621 11.3399 19.8848 11.3684 19.9075C11.3867 19.9222 11.4051 19.9369 11.4234 19.9516C11.4519 19.9743 11.4812 19.997 11.5105 20.0198C11.5288 20.0337 11.5464 20.0476 11.5647 20.0616C11.5947 20.0843 11.6255 20.1071 11.6555 20.1291C11.6731 20.1423 11.6907 20.1547 11.7083 20.1679C11.7405 20.1907 11.7727 20.2134 11.8049 20.2362C11.8218 20.2479 11.8379 20.2596 11.8547 20.2706C11.8899 20.2941 11.9251 20.3176 11.9602 20.3411C11.9749 20.3506 11.9895 20.3609 12.0042 20.3704C12.0444 20.3961 12.0854 20.4218 12.1257 20.4474C12.136 20.4533 12.1455 20.4599 12.1558 20.4665C13.2441 21.1318 14.5236 21.5147 15.8917 21.5147C16.9127 21.5147 17.8831 21.3013 18.7627 20.9169C19.2388 20.7086 19.6877 20.4504 20.1037 20.1489C20.1037 20.1489 20.1044 20.1489 20.1044 20.1481C20.2429 20.0476 20.3769 19.9427 20.5073 19.8335C20.508 19.8327 20.5087 19.832 20.5102 19.8312C20.6398 19.722 20.7658 19.609 20.8874 19.4909C20.8888 19.4894 20.8903 19.488 20.8925 19.4865C21.0133 19.3691 21.1298 19.2481 21.2419 19.1227C21.2441 19.1204 21.2462 19.1175 21.2484 19.1153C21.3034 19.0544 21.3568 18.9921 21.4096 18.929C21.411 18.9275 21.4118 18.9261 21.4132 18.9246C21.4667 18.8608 21.5187 18.7955 21.57 18.7295C21.5729 18.7258 21.5758 18.7221 21.5788 18.7185C21.6271 18.6561 21.674 18.593 21.7201 18.5285C21.723 18.5241 21.7267 18.5197 21.7296 18.5153C21.7772 18.4485 21.8241 18.381 21.8695 18.3128C21.8732 18.3077 21.8761 18.3026 21.879 18.2982C21.9208 18.2351 21.9625 18.1705 22.0021 18.106C22.0065 18.0986 22.0116 18.0913 22.016 18.084C22.0585 18.015 22.0995 17.946 22.139 17.8756C22.1427 17.8698 22.1456 17.8632 22.1493 17.8573C22.1859 17.7927 22.2211 17.7282 22.2555 17.6629C22.2606 17.6526 22.2665 17.6424 22.2716 17.6321C22.3082 17.5617 22.3441 17.4898 22.3785 17.4179C22.3822 17.4106 22.3851 17.404 22.3888 17.3966C22.4195 17.3313 22.4496 17.2653 22.4789 17.1986C22.4847 17.1861 22.4899 17.1729 22.4957 17.1604C22.5272 17.0878 22.5572 17.0145 22.5858 16.9404C22.5887 16.933 22.5917 16.925 22.5946 16.9176C22.6202 16.8509 22.6451 16.7841 22.6686 16.7166C22.6737 16.7012 22.6795 16.6858 22.6847 16.6704C22.7103 16.5963 22.7352 16.5215 22.7579 16.446C22.7601 16.4379 22.7623 16.4298 22.7652 16.4218C22.7857 16.3535 22.8055 16.2853 22.8246 16.2164C22.829 16.1988 22.8341 16.1819 22.8385 16.1643C22.8583 16.088 22.878 16.0117 22.8956 15.9347C22.8971 15.9273 22.8985 15.92 22.9007 15.9119C22.9168 15.8415 22.9315 15.7711 22.9447 15.6999C22.9483 15.6809 22.952 15.6625 22.9557 15.6435C22.9703 15.5657 22.9835 15.4872 22.9959 15.4087C22.9967 15.4029 22.9974 15.397 22.9981 15.3904C23.0091 15.317 23.0186 15.243 23.0274 15.1689C23.0296 15.1491 23.0318 15.1292 23.034 15.1094C23.0428 15.0295 23.0509 14.9495 23.0567 14.8696C23.0567 14.8659 23.0575 14.8622 23.0575 14.8586C23.0633 14.7816 23.067 14.7038 23.0706 14.626C23.0714 14.6055 23.0721 14.585 23.0728 14.5644C23.0758 14.483 23.0772 14.4016 23.0772 14.3194C23.0772 12.7049 22.5463 11.2143 21.6498 10.0135C21.6154 9.96732 21.5802 9.92184 21.5451 9.87636C21.1899 9.42303 20.7812 9.01372 20.3286 8.65795C20.2377 8.5868 20.1462 8.51784 20.0517 8.45109C19.958 8.38434 19.862 8.31979 19.7653 8.25744C19.717 8.22589 19.6679 8.19582 19.6181 8.16574C19.4204 8.04544 19.2168 7.93468 19.0073 7.83345C18.0647 7.37865 17.0086 7.12411 15.8924 7.12411C15.8236 7.12411 15.7548 7.12558 15.6866 7.12705C15.6647 7.12778 15.6434 7.12852 15.6215 7.12925C15.5746 7.13072 15.5277 7.13292 15.4816 7.13585C15.4567 7.13732 15.4318 7.13879 15.4061 7.14099C15.3622 7.14392 15.3182 7.14759 15.275 7.15126C15.2501 7.15346 15.2252 7.15566 15.2011 7.15786C15.1549 7.16226 15.1088 7.16739 15.0626 7.17253C15.0414 7.17473 15.0209 7.17693 14.9997 7.17986C14.9345 7.18793 14.8686 7.19674 14.8041 7.20701C14.8034 7.20701 14.8019 7.20701 14.8012 7.20774C14.7345 7.21801 14.6679 7.22901 14.602 7.24148C14.5837 7.24515 14.5646 7.24882 14.5463 7.25248C14.4994 7.26129 14.4518 7.27082 14.4049 7.28036C14.383 7.28476 14.361 7.28989 14.339 7.29503C14.2951 7.30457 14.2511 7.31484 14.2072 7.32584C14.186 7.33097 14.164 7.33611 14.1427 7.34198C14.0959 7.35371 14.0497 7.36618 14.0029 7.37865C13.9853 7.38306 13.9677 7.38819 13.9509 7.39259C13.822 7.42853 13.6945 7.46815 13.5693 7.51142C13.5568 7.51583 13.5444 7.52023 13.5319 7.52463C13.4821 7.54223 13.4323 7.55984 13.3825 7.57818C13.3657 7.58478 13.3488 7.59138 13.3313 7.59725C13.2851 7.61485 13.2397 7.63246 13.1943 7.65153C13.1775 7.65813 13.1613 7.66473 13.1445 7.67207C13.0962 7.69261 13.0478 7.71315 12.9995 7.73442C12.9878 7.73956 12.976 7.74469 12.9643 7.74983C12.8413 7.80484 12.7197 7.86353 12.6011 7.92514C12.5967 7.92734 12.5923 7.93028 12.5871 7.93248C12.5329 7.96035 12.4802 7.98896 12.4267 8.0183C12.4158 8.02417 12.4048 8.03077 12.3938 8.03664C12.3462 8.06305 12.2986 8.09019 12.2517 8.11806C12.2407 8.12466 12.2297 8.13127 12.2187 8.13787C12.1689 8.16794 12.1191 8.19802 12.0693 8.22956C12.0635 8.23323 12.0576 8.2369 12.051 8.24056C11.8796 8.34913 11.7134 8.46503 11.5523 8.58753C11.5471 8.5912 11.542 8.5956 11.5362 8.6C11.4878 8.63668 11.4402 8.67409 11.3926 8.71223C11.3867 8.71663 11.3809 8.72177 11.375 8.72617C11.3252 8.76651 11.2754 8.80759 11.2271 8.8494C11.2256 8.85014 11.2249 8.8516 11.2234 8.85234C11.0674 8.98584 10.9173 9.12668 10.773 9.27266C10.7715 9.27413 10.7701 9.27559 10.7686 9.27706C10.7225 9.32401 10.6778 9.37095 10.6331 9.41937C10.6302 9.4223 10.6272 9.42523 10.6251 9.42817C10.439 9.62916 10.2647 9.83969 10.1021 10.0612C10.067 10.1096 10.0318 10.158 9.99739 10.2072C9.99299 10.2138 9.9886 10.2204 9.98421 10.227C9.1793 11.3897 8.70691 12.801 8.70691 14.3231C8.70691 15.9926 9.27891 17.5338 10.2369 18.7573ZM15.3043 14.9136C15.3043 14.9136 15.6573 14.5226 15.4083 14.2233C15.1593 13.924 15.724 13.492 15.9108 13.4957C16.0975 13.5001 16.2469 13.3335 16.1891 12.8391C16.1891 12.8391 15.8111 12.5024 16.4007 12.4276L16.9193 12.1364C16.9193 12.1364 17.0892 12.0616 16.9735 11.6999L16.928 11.2679C16.928 11.2679 16.5047 11.1601 16.5626 10.7192C16.6204 10.2783 16.6043 10.2285 16.6043 10.2285C16.6043 10.2285 16.6461 9.94605 17.0108 9.97099C17.3763 9.99593 17.5008 10.0788 17.8157 9.89617C18.1314 9.71352 18.5547 9.82942 18.5547 9.82942C18.5547 9.82942 19.0945 10.2204 19.1194 10.3862C19.1443 10.5527 19.4182 10.2695 19.4182 10.2695C19.4182 10.2695 19.6591 10.7353 20.1652 10.6605C20.1652 10.6605 20.4699 10.6979 20.7504 11.028C20.7504 11.028 20.8185 11.0735 20.8434 10.8864C20.8683 10.6994 20.9533 11.4036 20.9533 11.4036C20.9533 11.4036 21.088 11.6486 21.4491 11.5488C21.8102 11.4491 21.1503 12.3675 21.1503 12.3675C21.1503 12.3675 21.113 12.4445 21.2602 12.4151C21.4074 12.3858 21.028 12.6829 20.2685 12.6C20.2685 12.6 19.9741 12.6418 19.8327 12.8912C19.6914 13.1406 19.1062 13.1362 18.7495 13.8265C18.7495 13.8265 18.8945 14.1507 18.5877 14.5248C18.5877 14.5248 18.7788 14.8615 19.2929 14.8615C19.2929 14.8615 19.5339 15.0442 19.1684 15.1483C18.803 15.2525 19.7368 15.3977 19.8203 15.0654C19.8203 15.0654 20.0986 15.1447 20.1147 15.5349C20.1147 15.5349 20.5212 15.3809 20.6171 15.5973L20.8742 15.4271L21.0031 15.5973C21.0031 15.5973 20.6127 16.4533 19.9572 16.399C19.9572 16.399 19.6291 16.457 19.4922 16.6565C19.4922 16.6565 18.9568 16.7394 18.7781 16.8685C18.5994 16.9976 18.0852 17.6086 18.1013 18.2651C18.1013 18.2651 18.1094 18.6187 17.7945 18.8842C17.4795 19.1498 17.9065 19.4659 18.0559 19.4373C18.2053 19.408 18.3049 19.4395 18.3049 19.4395C18.3049 19.4395 18.5313 20.022 18.6865 20.5971C17.8318 20.9719 16.887 21.181 15.8932 21.181C14.7265 21.181 13.6279 20.8942 12.664 20.388C12.8054 20.2156 12.9987 20.0161 13.2551 19.8291C13.2551 19.8291 12.9314 19.4469 13.5707 19.5342C14.2101 19.6215 14.0856 19.2268 14.0856 19.2268C14.0856 19.2268 14.3346 19.185 14.3595 19.0647C14.3844 18.9444 14.0563 18.8446 14.0563 18.8446C14.0563 18.8446 14.5836 18.7449 14.6584 18.5659C14.7331 18.3869 14.7082 18.3957 14.9154 18.2461C14.9154 18.2461 14.2929 17.7971 15.0817 17.5103L14.7748 16.999C14.7748 16.999 15.0905 17.1736 15.0238 16.3675C15.0238 16.3675 15.2025 16.3007 15.2274 16.0763C15.2523 15.8518 15.3102 15.6317 15.5431 15.3574C15.7731 15.0838 15.3043 14.9136 15.3043 14.9136ZM10.4024 10.1419L10.4288 10.1588C10.4288 10.1588 10.5342 10.2079 10.491 10.037C10.4903 10.0348 10.4903 10.0333 10.4896 10.0311C10.5262 9.98566 10.5635 9.94091 10.6016 9.89617C10.6426 9.90864 10.6917 9.93798 10.7459 9.98419C10.7459 9.98419 10.9634 10.059 11.0821 9.99006C11.0821 9.99006 11.1941 9.97172 11.0821 9.82208C10.97 9.67244 11.6922 10.1962 11.6922 10.1962C11.6922 10.1962 11.7669 10.3642 11.9221 10.1155C12.0774 9.86683 12.5571 9.79787 12.6816 9.87856C12.6816 9.87856 13.2419 9.96585 13.2544 9.88517C13.2668 9.80448 13.3723 9.71718 13.6088 9.74212C13.8454 9.76706 14.1625 10.0223 14.1625 10.0223C14.1625 10.0223 14.2057 10.103 14.2182 9.91671C14.2306 9.72965 14.6598 9.92918 14.6598 9.92918L15.0018 9.96659C15.0018 9.96659 15.2633 10.1162 15.0018 10.4837C15.0018 10.4837 14.9147 10.7141 15.1447 10.9136C15.1447 10.9136 15.2443 11.1315 15.0766 11.4058C15.0766 11.4058 15.0575 11.5114 15.2194 11.5239C15.3812 11.5364 14.9828 11.829 14.9828 11.829C14.9828 11.829 14.7711 11.9039 14.8832 12.0785C14.9953 12.253 14.9762 12.2655 14.5968 12.4526L14.4291 12.6147L14.0307 11.9787C14.0307 11.9787 13.9684 11.9039 13.8505 11.9662C13.8505 11.9662 13.5517 11.2055 13.1906 11.7234C13.1906 11.7234 12.8486 11.829 12.7739 11.4615C12.6992 11.094 11.9522 12.5215 12.0642 12.7834C12.1763 13.0453 12.2136 13.1949 12.4875 13.3005C12.4875 13.3005 12.6553 13.456 12.6494 13.6497C12.6494 13.6497 13.0727 13.7304 13.1101 13.905C13.1474 14.0796 13.4646 13.8492 13.4646 13.8492C13.4646 13.8492 13.7634 13.8617 13.5202 14.161C13.2778 14.4603 13.6198 14.4537 13.6198 14.4537C13.6198 14.4537 13.7817 14.4911 13.4206 14.7214C13.4206 14.7214 13.321 15.2701 13.0097 14.9209C13.0097 14.9209 12.924 14.4661 12.519 14.7904C12.519 14.7904 12.3813 15.0398 12.1697 14.8336C12.1697 14.8336 12.0078 14.7529 11.9331 14.9957C11.9331 14.9957 11.6907 14.7962 11.4666 14.7588C11.2425 14.7214 11.3985 15.0889 11.3985 15.0889C11.3985 15.0889 11.0564 15.2694 11.2989 15.4256C11.5413 15.5811 11.728 15.5437 11.5786 15.7997C11.4292 16.055 11.8401 16.2112 11.8401 16.2112C11.8401 16.2112 11.8335 16.5978 11.4981 17.0027C11.4981 17.0027 11.3985 17.0277 11.6035 17.2147C11.6035 17.2147 11.7339 17.6446 11.2798 17.6446C10.8257 17.6446 10.8506 17.9123 10.8506 17.9123C10.8506 17.9123 10.9502 18.1925 11.23 18.1676C11.5098 18.1426 10.6075 18.6723 10.6075 18.6723C10.6075 18.6723 10.5518 18.7346 10.6448 18.7529C10.6507 18.7544 10.6404 18.7551 10.617 18.7551C9.59311 17.558 8.97497 16.008 8.97497 14.3143C8.97643 12.746 9.50815 11.2994 10.4024 10.1419Z" fill="#0077DD"/>
</svg>
