<svg width="20" height="20" viewBox="0 0 20 20" fill="none" xmlns="http://www.w3.org/2000/svg">
<g id="face-smile" clip-path="url(#clip0_1994_6402)">
<path id="Icon" d="M6.66663 11.6665C6.66663 11.6665 7.91663 13.3332 9.99996 13.3332C12.0833 13.3332 13.3333 11.6665 13.3333 11.6665M12.5 7.49984H12.5083M7.49996 7.49984H7.50829M18.3333 9.99984C18.3333 14.6022 14.6023 18.3332 9.99996 18.3332C5.39759 18.3332 1.66663 14.6022 1.66663 9.99984C1.66663 5.39746 5.39759 1.6665 9.99996 1.6665C14.6023 1.6665 18.3333 5.39746 18.3333 9.99984ZM12.9166 7.49984C12.9166 7.72996 12.7301 7.9165 12.5 7.9165C12.2698 7.9165 12.0833 7.72996 12.0833 7.49984C12.0833 7.26972 12.2698 7.08317 12.5 7.08317C12.7301 7.08317 12.9166 7.26972 12.9166 7.49984ZM7.91663 7.49984C7.91663 7.72996 7.73008 7.9165 7.49996 7.9165C7.26984 7.9165 7.08329 7.72996 7.08329 7.49984C7.08329 7.26972 7.26984 7.08317 7.49996 7.08317C7.73008 7.08317 7.91663 7.26972 7.91663 7.49984Z" stroke="#667085" stroke-width="1.5" stroke-linecap="round" stroke-linejoin="round"/>
</g>
<defs>
<clipPath id="clip0_1994_6402">
<rect width="20" height="20" fill="white"/>
</clipPath>
</defs>
</svg>
