<svg width="19" height="19" viewBox="0 0 19 19" fill="none" xmlns="http://www.w3.org/2000/svg">
<path fill-rule="evenodd" clip-rule="evenodd" d="M9.375 0.739258C11.7692 0.739258 14.0192 1.67009 15.7092 3.36092C19.2025 6.85426 19.2025 12.5376 15.7092 16.0309C13.9967 17.7443 11.6908 18.6509 9.355 18.6509C8.08167 18.6509 6.8 18.3818 5.60083 17.8268C5.2475 17.6851 4.91667 17.5518 4.67917 17.5518C4.40583 17.5534 4.03833 17.6801 3.68333 17.8026C2.955 18.0526 2.04833 18.3643 1.3775 17.6959C0.709166 17.0268 1.0175 16.1226 1.26583 15.3951C1.38833 15.0368 1.51417 14.6668 1.51417 14.3868C1.51417 14.1568 1.40333 13.8634 1.23333 13.4409C-0.3275 10.0701 0.394166 6.00759 3.04167 3.36176C4.73167 1.67092 6.98083 0.739258 9.375 0.739258ZM9.37583 1.98926C7.315 1.98926 5.37917 2.79092 3.925 4.24592C1.64667 6.52259 1.02667 10.0184 2.38083 12.9459C2.57583 13.4284 2.76417 13.8984 2.76417 14.3868C2.76417 14.8743 2.59667 15.3651 2.44917 15.7984C2.3275 16.1551 2.14333 16.6934 2.26167 16.8118C2.3775 16.9318 2.91917 16.7426 3.27667 16.6201C3.70583 16.4734 4.1925 16.3051 4.675 16.3018C5.15833 16.3018 5.61417 16.4851 6.09667 16.6793C9.0525 18.0459 12.5483 17.4243 14.8258 15.1476C17.8308 12.1409 17.8308 7.25009 14.8258 4.24509C13.3708 2.79009 11.4358 1.98926 9.37583 1.98926Z" fill="#252525" fill-opacity="0.8"/>
<path fill-rule="evenodd" clip-rule="evenodd" d="M12.0596 11.228C12.4046 11.228 12.6846 11.508 12.6846 11.853C12.6846 12.198 12.4046 12.478 12.0596 12.478H6.04297C5.69797 12.478 5.41797 12.198 5.41797 11.853C5.41797 11.508 5.69797 11.228 6.04297 11.228H12.0596ZM12.0596 7.73926C12.4046 7.73926 12.6846 8.01926 12.6846 8.36426C12.6846 8.70926 12.4046 8.98926 12.0596 8.98926H6.04297C5.69797 8.98926 5.41797 8.70926 5.41797 8.36426C5.41797 8.01926 5.69797 7.73926 6.04297 7.73926H12.0596Z" fill="#252525" fill-opacity="0.8"/>
</svg>
