<svg width="24" height="24" viewBox="0 0 24 24" fill="none" xmlns="http://www.w3.org/2000/svg">
<g opacity="0.5">
<path d="M18.6655 21.719C19.4674 21.719 20.2509 21.5144 20.961 21.1156C21.3263 20.9275 21.4678 20.4568 21.2496 20.1027C20.5244 18.9439 20.2626 17.5275 20.5946 16.1954C20.9387 14.8144 21.4367 13.6513 21.4331 12.1894C21.4207 7.06033 17.1516 2.90225 12.0278 3.00175C7.07879 3.10143 3.00013 7.26165 3.00007 12.212C3.00001 18.6771 9.77558 23.2162 15.7572 20.7197C16.5817 21.3668 17.618 21.719 18.6655 21.719ZM19.64 20.1405C18.5132 20.4905 17.2459 20.2109 16.377 19.3709C16.1629 19.1638 15.8426 19.1117 15.574 19.2402C10.4529 21.6887 4.42578 17.8509 4.42584 12.212C4.42584 8.00409 7.84897 4.51187 12.0565 4.42716C16.3925 4.34103 19.9969 7.85279 20.0074 12.1928C20.0108 13.5814 19.469 14.6912 19.1729 16.0065C18.861 17.3928 19.0253 18.8586 19.64 20.1405Z" fill="black"/>
<path d="M8.18298 12C8.18298 14.3472 10.0858 16.25 12.433 16.25C14.7802 16.25 16.683 14.3472 16.683 12C16.683 9.65279 14.7802 7.75 12.433 7.75C10.0858 7.75 8.18298 9.65279 8.18298 12Z" stroke="black" stroke-width="1.5"/>
</g>
</svg>
