<svg width="24" height="24" viewBox="0 0 24 24" fill="none" xmlns="http://www.w3.org/2000/svg">
<path d="M15.8984 14.25C15.5031 14.9338 14.9348 15.5016 14.2506 15.8964C13.5664 16.2911 12.7904 16.4989 12.0005 16.4989C11.2106 16.4989 10.4346 16.2911 9.75042 15.8964C9.06622 15.5017 8.49791 14.9339 8.10254 14.2501" stroke="#7C7C7C" stroke-width="2" stroke-linecap="round" stroke-linejoin="round"/>
<path d="M14.6458 20.6054C12.7274 21.1937 10.6673 21.1232 8.79347 20.4053C6.91967 19.6874 5.33991 18.3633 4.30568 16.6437C3.27146 14.9242 2.84222 12.9081 3.08631 10.9164C3.3304 8.92466 4.23378 7.07185 5.65263 5.65293C7.07149 4.23401 8.92425 3.33054 10.9159 3.08636C12.9076 2.84218 14.9238 3.27132 16.6434 4.30547C18.363 5.33961 19.6872 6.91931 20.4052 8.79307C21.1232 10.6668 21.1937 12.7269 20.6055 14.6454L14.6458 20.6054Z" stroke="#7C7C7C" stroke-width="2" stroke-linecap="round" stroke-linejoin="round"/>
<path d="M8.625 11.25C9.24632 11.25 9.75 10.7463 9.75 10.125C9.75 9.50368 9.24632 9 8.625 9C8.00368 9 7.5 9.50368 7.5 10.125C7.5 10.7463 8.00368 11.25 8.625 11.25Z" fill="#7C7C7C"/>
<path d="M15.375 11.25C15.9963 11.25 16.5 10.7463 16.5 10.125C16.5 9.50368 15.9963 9 15.375 9C14.7537 9 14.25 9.50368 14.25 10.125C14.25 10.7463 14.7537 11.25 15.375 11.25Z" fill="#7C7C7C"/>
</svg>
