<svg width="18" height="17" viewBox="0 0 18 17" fill="none" xmlns="http://www.w3.org/2000/svg">
<path d="M15.4509 12.155C16.3827 10.5842 16.709 8.72724 16.3686 6.93283C16.0282 5.13841 15.0444 3.53 13.602 2.40961C12.1596 1.28922 10.3578 0.733919 8.53491 0.847988C6.71205 0.962057 4.99354 1.73765 3.70206 3.02912C2.41058 4.32059 1.63498 6.0391 1.52091 7.86196C1.40683 9.68481 1.96212 11.4866 3.0825 12.929C4.20289 14.3714 5.8113 15.3552 7.60571 15.6957C9.40012 16.0361 11.2571 15.7098 12.8279 14.778L12.8279 14.7779L15.4183 15.518C15.5254 15.5486 15.6388 15.55 15.7467 15.5221C15.8546 15.4941 15.9531 15.4378 16.0319 15.359C16.1107 15.2802 16.167 15.1817 16.195 15.0738C16.2229 14.9659 16.2215 14.8525 16.1909 14.7453L15.4508 12.155L15.4509 12.155Z" stroke="#252525" stroke-width="1.5" stroke-linecap="round" stroke-linejoin="round"/>
<path d="M11.5 7.077H6.5" stroke="#252525" stroke-width="1.5" stroke-linecap="round" stroke-linejoin="round"/>
<path d="M11.5 9.577H6.5" stroke="#252525" stroke-width="1.5" stroke-linecap="round" stroke-linejoin="round"/>
</svg>
