<svg width="25" height="24" viewBox="0 0 25 24" fill="none" xmlns="http://www.w3.org/2000/svg">
<path d="M17.5 7.75C17.5 8.99264 16.4926 10 15.25 10V11.5C17.3211 11.5 19 9.82107 19 7.75H17.5ZM15.25 10C14.0074 10 13 8.99264 13 7.75H11.5C11.5 9.82107 13.1789 11.5 15.25 11.5V10ZM13 7.75C13 6.50736 14.0074 5.5 15.25 5.5V4C13.1789 4 11.5 5.67893 11.5 7.75H13ZM15.25 5.5C16.4926 5.5 17.5 6.50736 17.5 7.75H19C19 5.67893 17.3211 4 15.25 4V5.5Z" fill="#70777C"/>
<path d="M11.0021 10.3887C10.8444 10.1353 10.5485 10 10.25 10C9.00736 10 8 8.99264 8 7.75C8 6.50736 9.00736 5.5 10.25 5.5C10.5485 5.5 10.8444 5.36473 11.0021 5.11135C11.0091 5.10014 11.0161 5.08896 11.0232 5.07782C11.2858 4.66331 11.1527 4.0764 10.665 4.0227C10.5287 4.0077 10.3903 4 10.25 4C8.17893 4 6.5 5.67893 6.5 7.75C6.5 9.82107 8.17893 11.5 10.25 11.5C10.3903 11.5 10.5287 11.4923 10.665 11.4773C11.1527 11.4236 11.2858 10.8367 11.0232 10.4222C11.0161 10.411 11.0091 10.3999 11.0021 10.3887Z" fill="#70777C"/>
<path d="M7.95829 18.3169C7.84477 18.1275 7.64439 18 7.42359 18H7.25C6.00736 18 5 16.9926 5 15.75C5 14.5074 6.00736 13.5 7.25 13.5H7.42359C7.64439 13.5 7.84477 13.3725 7.95829 13.1831C8.23539 12.7208 7.93468 12 7.39569 12H7.25C5.17893 12 3.5 13.6789 3.5 15.75C3.5 17.8211 5.17893 19.5 7.25 19.5H7.39569C7.93469 19.5 8.23539 18.7792 7.95829 18.3169Z" fill="#70777C"/>
<path d="M9.25 16.75C9.25 15.0931 10.5931 13.75 12.25 13.75H18.25C19.9069 13.75 21.25 15.0931 21.25 16.75C21.25 18.4069 19.9069 19.75 18.25 19.75H12.25C10.5931 19.75 9.25 18.4069 9.25 16.75Z" stroke="#70777C" stroke-width="1.5"/>
</svg>
