<svg width="32" height="32" viewBox="0 0 32 32" fill="none" xmlns="http://www.w3.org/2000/svg">
<path d="M15 30C21.6274 30 27 24.6274 27 18C27 11.3726 21.6274 6 15 6C8.37258 6 3 11.3726 3 18C3 24.6274 8.37258 30 15 30Z" stroke="#FCD600" stroke-width="1.5" stroke-linecap="round" stroke-linejoin="round"/>
<path d="M18 6L20.0833 1L21.3333 4.63636L24.6667 3.27273V7.36364H28L24.6667 11" stroke="#FCD600" stroke-width="1.5" stroke-linejoin="round"/>
<circle cx="31" cy="19" r="1" fill="#FCD600"/>
<circle cx="6" cy="4" r="1" fill="#FCD600"/>
<circle cx="1.5" cy="14.5" r="0.5" fill="#FCD600"/>
<circle cx="29.5" cy="10.5" r="0.5" fill="#FCD600"/>
<circle cx="28.5" cy="4.5" r="0.5" fill="#FCD600"/>
<circle cx="22.5" cy="1.5" r="0.5" fill="#FCD600"/>
<rect x="9.5" y="17.1923" width="1.76923" height="5.46154" rx="0.5" stroke="#FCD600"/>
<rect x="18.7308" y="17.1923" width="1.76923" height="5.46154" rx="0.5" stroke="#FCD600"/>
<rect x="11.3462" y="19.0385" width="7.30769" height="1.76923" stroke="#FCD600"/>
<path d="M13.0691 16.461C12.7269 15.9312 12.1856 15.6249 11.6706 15.4614C11.1442 15.2943 10.6875 14.8529 10.6875 14.3006V14C10.6875 13.4477 11.1352 13 11.6875 13H18.507C19.0593 13 19.507 13.4564 19.507 14.0087C19.507 14.6593 18.8385 15.194 18.2821 15.5311C17.8177 15.8124 17.4205 16.2683 17.1369 16.6865C16.9243 17 16.5836 17.2179 16.2048 17.2179H14.1915C13.7148 17.2179 13.3278 16.8614 13.0691 16.461Z" stroke="#FCD600" stroke-linejoin="round"/>
</svg>
