<svg width="56" height="56" viewBox="0 0 56 56" fill="none" xmlns="http://www.w3.org/2000/svg">
<path d="M26.953 42.4223C27.2851 42.6161 27.4511 42.7129 27.6855 42.7632C27.8673 42.8022 28.1327 42.8022 28.3145 42.7632C28.5489 42.7129 28.7149 42.6161 29.047 42.4223C31.9691 40.7176 40 35.3627 40 28V20.8264C40 19.6271 40 19.0275 39.8039 18.5121C39.6306 18.0567 39.349 17.6504 38.9835 17.3283C38.5698 16.9637 38.0083 16.7531 36.8854 16.332L28.8427 13.316C28.5309 13.1991 28.3749 13.1406 28.2145 13.1174C28.0722 13.0969 27.9278 13.0969 27.7855 13.1174C27.6251 13.1406 27.4691 13.1991 27.1573 13.316L19.1146 16.332C17.9917 16.7531 17.4302 16.9637 17.0165 17.3283C16.651 17.6504 16.3694 18.0567 16.1961 18.5121C16 19.0275 16 19.6271 16 20.8264V28C16 35.3627 24.0309 40.7176 26.953 42.4223Z" fill="#006EFF" stroke="#006EFF" stroke-width="2" stroke-linecap="round" stroke-linejoin="round"/>
</svg>
