<svg width="24" height="22" viewBox="0 0 24 22" fill="none" xmlns="http://www.w3.org/2000/svg">
<g clip-path="url(#clip0_1851_46560)">
<path d="M2.46777 20.9999C2.13232 20.8422 2.0332 20.5732 2.03467 20.2114C2.04541 17.9858 2.04004 15.7597 2.04004 13.5336C2.04004 13.0082 2.24805 12.7983 2.76904 12.7983C3.43164 12.7983 4.09473 12.8139 4.75635 12.7939C5.44824 12.7729 6.0376 12.9575 6.44385 13.5009C6.84814 13.2802 7.2207 13.0195 7.63232 12.8618C9.08007 12.3085 10.4443 12.5038 11.668 13.4565C12.1182 13.8066 12.5811 13.9936 13.1514 13.9745C13.8716 13.9516 14.5933 13.9838 15.314 13.9658C16.2246 13.9423 16.8765 14.3076 17.2695 15.249C17.3059 15.1769 17.3482 15.108 17.396 15.0429C17.8984 14.498 18.3999 13.9521 18.9097 13.414C19.4316 12.8676 20.0566 12.6601 20.7852 12.8979C21.4458 13.1127 21.8345 13.5859 21.9668 14.27C21.9751 14.3134 21.9888 14.3554 22 14.3984V14.789C21.8721 15.0766 21.79 15.3974 21.6094 15.6459C20.708 16.8847 19.7822 18.1059 18.8613 19.3305C18.3979 19.9452 17.8203 20.4238 17.0947 20.6869C16.7148 20.8256 16.3135 20.8979 15.918 20.9999H9.7583C9.74146 20.9906 9.72338 20.9837 9.70459 20.9794C8.60576 20.9235 7.51729 20.739 6.46142 20.4296C6.43491 20.4225 6.40714 20.4213 6.38012 20.4262C6.3531 20.4311 6.3275 20.442 6.30517 20.4579C6.01855 20.7509 5.66601 20.9101 5.2749 20.9999H2.46777ZM6.7959 19.3007C7.97245 19.6513 9.19372 19.8289 10.4214 19.8281C12.0977 19.8281 13.7739 19.8251 15.4507 19.8281C16.499 19.8281 17.3359 19.4169 17.9644 18.5776C18.8566 17.3862 19.7487 16.1941 20.6406 15.0014C20.6926 14.9348 20.7371 14.8628 20.7734 14.7866C20.8076 14.7126 20.8255 14.6321 20.8259 14.5506C20.8263 14.4691 20.8093 14.3885 20.7759 14.3141C20.7426 14.2398 20.6937 14.1734 20.6325 14.1196C20.5714 14.0657 20.4994 14.0256 20.4214 14.0019C20.1411 13.9106 19.9331 14.0283 19.7476 14.2285C18.9385 15.101 18.1255 15.9702 17.3179 16.8447C16.9307 17.2641 16.46 17.4843 15.8882 17.4838C14.4201 17.4838 12.9518 17.4838 11.4834 17.4838C11.0928 17.4838 10.8252 17.2397 10.8301 16.8911C10.835 16.5424 11.0952 16.3154 11.4795 16.3129C11.9014 16.3105 12.3237 16.3129 12.7461 16.3129C13.6686 16.3129 14.5911 16.3129 15.5137 16.3129C15.8105 16.3129 16.021 16.1757 16.1128 15.9335C16.2622 15.5385 15.9741 15.1454 15.5239 15.143C14.7427 15.1386 13.9644 15.121 13.1855 15.1474C12.3247 15.1762 11.5937 14.914 10.9287 14.3622C10.2353 13.787 9.41504 13.6264 8.52832 13.8012C7.88428 13.9282 7.37109 14.2797 6.91308 14.726C6.84831 14.7917 6.80888 14.8782 6.80176 14.9702C6.79297 15.6015 6.79687 16.2328 6.79687 16.8642L6.7959 19.3007ZM3.22461 13.9716V19.8261C3.84961 19.8261 4.45996 19.8339 5.06982 19.8227C5.3833 19.8173 5.61084 19.5693 5.62402 19.2524C5.63037 19.103 5.62402 18.9531 5.62402 18.8036C5.62402 17.4101 5.62402 16.0169 5.62402 14.624C5.62402 14.2465 5.41015 13.9824 5.06885 13.975C4.46045 13.9623 3.84961 13.9716 3.22461 13.9716Z" fill="black"/>
<path d="M15.5674 1C15.7109 1.0332 15.8555 1.0625 15.9981 1.09766C17.3828 1.45947 18.3906 2.60693 18.6143 4.03516C18.7949 5.19629 18.5117 6.23682 17.8628 7.19629C17.4186 7.84607 16.8935 8.43675 16.3003 8.9541C15.1118 10.0034 13.9077 11.0352 12.7061 12.0703C12.4365 12.3027 12.1411 12.3057 11.876 12.0767C10.5674 10.9375 9.25049 9.80762 7.96094 8.64697C7.25294 8.00928 6.6626 7.2666 6.25733 6.38916C5.51417 4.77783 5.95508 2.80078 7.31543 1.70459C7.76525 1.3478 8.30241 1.11799 8.8711 1.03906C8.92066 1.02858 8.96957 1.01521 9.01758 0.999023H9.71925C9.75505 1.01312 9.79196 1.02422 9.82959 1.03223C10.4365 1.11523 10.9844 1.34522 11.4375 1.75635C11.7471 2.0376 12.0166 2.36279 12.311 2.67578C12.3306 2.64893 12.3687 2.59863 12.4053 2.54736C12.8086 1.98145 13.2979 1.51123 13.9517 1.25293C14.2446 1.13721 14.5601 1.08154 14.8657 0.999023L15.5674 1ZM12.2725 10.8843C12.2964 10.8713 12.3195 10.8569 12.3418 10.8413C13.4038 9.92236 14.4746 9.01319 15.5234 8.08008C16.0874 7.57861 16.6055 7.02637 17.002 6.37598C17.606 5.38477 17.7041 4.35645 17.1323 3.32227C16.4683 2.12207 14.9585 1.80859 13.9058 2.63232C13.4541 2.98682 13.1685 3.46533 12.9512 3.98877C12.9092 4.09082 12.875 4.19629 12.833 4.29834C12.7314 4.54492 12.5493 4.68457 12.2793 4.68115C12.0186 4.67773 11.8506 4.53857 11.7422 4.30273C11.5728 3.93897 11.418 3.56299 11.2051 3.22852C10.3984 1.9668 8.73292 1.80371 7.75196 2.89453C7.13477 3.57813 6.96045 4.40234 7.12989 5.29639C7.27637 6.07764 7.72461 6.70264 8.24903 7.27295C9.47315 8.60205 10.918 9.68604 12.2725 10.8843Z" fill="black"/>
</g>
<defs>
<clipPath id="clip0_1851_46560">
<rect width="19.9653" height="20" fill="white" transform="translate(2.03467 1)"/>
</clipPath>
</defs>
</svg>
