<svg width="45" height="45" viewBox="0 0 45 45" fill="none" xmlns="http://www.w3.org/2000/svg">
<g filter="url(#filter0_d_3690_17299)">
<circle cx="22.5" cy="22.5" r="12.5" fill="white"/>
</g>
<path d="M26.8163 16.6063L27.9226 17.4851C28.3762 17.8399 28.6787 18.3075 28.7821 18.7993C28.9015 19.3403 28.7742 19.8716 28.416 20.3311L21.8262 28.853C21.5238 29.2399 21.0781 29.4576 20.6006 29.4657L17.9742 29.4979C17.831 29.4979 17.7116 29.4012 17.6798 29.2641L17.0829 26.6761C16.9794 26.2005 17.0829 25.7087 17.3853 25.3297L22.057 19.283C22.1366 19.1863 22.2799 19.1709 22.3754 19.2427L24.3412 20.8068C24.4685 20.9116 24.6436 20.968 24.8267 20.9438C25.2166 20.8955 25.4793 20.5407 25.4395 20.1618C25.4156 19.9683 25.3201 19.8071 25.1928 19.6861C25.153 19.6539 23.2827 18.1543 23.2827 18.1543C23.1633 18.0575 23.1394 17.8802 23.2349 17.76L23.9751 16.7998C24.6595 15.921 25.8533 15.8404 26.8163 16.6063Z" fill="#252525"/>
<defs>
<filter id="filter0_d_3690_17299" x="0" y="0" width="45" height="45" filterUnits="userSpaceOnUse" color-interpolation-filters="sRGB">
<feFlood flood-opacity="0" result="BackgroundImageFix"/>
<feColorMatrix in="SourceAlpha" type="matrix" values="0 0 0 0 0 0 0 0 0 0 0 0 0 0 0 0 0 0 127 0" result="hardAlpha"/>
<feOffset/>
<feGaussianBlur stdDeviation="5"/>
<feComposite in2="hardAlpha" operator="out"/>
<feColorMatrix type="matrix" values="0 0 0 0 0 0 0 0 0 0 0 0 0 0 0 0 0 0 0.1 0"/>
<feBlend mode="normal" in2="BackgroundImageFix" result="effect1_dropShadow_3690_17299"/>
<feBlend mode="normal" in="SourceGraphic" in2="effect1_dropShadow_3690_17299" result="shape"/>
</filter>
</defs>
</svg>
