<svg width="64" height="64" viewBox="0 0 64 64" fill="none" xmlns="http://www.w3.org/2000/svg">
<path d="M57.24 47.24L43.34 36.42C42.9551 36.1227 42.4754 35.9751 41.9899 36.0045C41.5045 36.034 41.0462 36.2384 40.7 36.58L40.06 37.22L37.76 34.94C40.8279 31.1498 42.3245 26.3268 41.9411 21.4657C41.5577 16.6045 39.3236 12.0758 35.6995 8.81335C32.0754 5.55089 27.3376 3.80345 22.463 3.93136C17.5885 4.05927 12.9488 6.05277 9.50079 9.50079C6.05277 12.9488 4.05927 17.5885 3.93136 22.463C3.80345 27.3376 5.55089 32.0754 8.81335 35.6995C12.0758 39.3236 16.6045 41.5577 21.4657 41.9411C26.3268 42.3245 31.1498 40.8279 34.94 37.76L37.22 40.06L36.58 40.7C36.2384 41.0462 36.0339 41.5045 36.0045 41.99C35.9751 42.4754 36.1227 42.9551 36.42 43.34L47.24 57.24C47.8581 58.0396 48.6401 58.6978 49.5335 59.1704C50.427 59.643 51.4111 59.919 52.42 59.98C52.5661 59.9962 52.713 60.0029 52.86 60C54.3463 60.0008 55.7958 59.5371 57.0057 58.6737C58.2156 57.8103 59.1255 56.5904 59.608 55.1846C60.0906 53.7787 60.1218 52.2572 59.6972 50.8328C59.2726 49.4083 58.4135 48.1522 57.24 47.24ZM32 23C31.9964 20.6141 31.047 18.327 29.36 16.64C27.6729 14.9529 25.3858 14.0036 23 14V9.99998C26.4457 10.0066 29.7485 11.3784 32.185 13.8149C34.6215 16.2515 35.9933 19.5542 36 23H32ZM55.08 55.08C54.7679 55.3955 54.392 55.6408 53.9776 55.7994C53.5631 55.958 53.1196 56.0264 52.6766 55.9999C52.2336 55.9734 51.8013 55.8526 51.4087 55.6457C51.0161 55.4388 50.6722 55.1505 50.4 54.8L40.66 42.28L42.28 40.66L54.8 50.4C55.1493 50.6741 55.4368 51.0189 55.6435 51.4118C55.8503 51.8047 55.9718 52.2369 56 52.68C56.0279 53.1226 55.9602 53.5661 55.8015 53.9802C55.6427 54.3943 55.3966 54.7694 55.08 55.08Z" fill="url(#paint0_linear_505_3130)" fill-opacity="0.24"/>
<defs>
<linearGradient id="paint0_linear_505_3130" x1="9.56998" y1="9.56998" x2="57.92" y2="57.92" gradientUnits="userSpaceOnUse">
<stop stop-color="#68E0CF"/>
<stop offset="1" stop-color="#209CFF"/>
</linearGradient>
</defs>
</svg>
