<svg width="64" height="64" viewBox="0 0 64 64" fill="none" xmlns="http://www.w3.org/2000/svg">
<path d="M26.353 24.4707C26.353 21.3567 23.8199 18.8236 20.7059 18.8236C21.7454 18.8236 22.5884 19.6662 22.5884 20.7059C22.5884 21.7454 21.7456 22.5882 20.7059 22.5882C19.6664 22.5882 18.8236 21.7454 18.8236 20.7059C18.8236 19.6662 19.6664 18.8236 20.7059 18.8236C17.5919 18.8236 15.0589 21.3567 15.0589 24.4707C15.0589 27.5846 17.5919 30.1177 20.7059 30.1177C23.8199 30.1177 26.353 27.5846 26.353 24.4707ZM43.2941 18.8234C44.3336 18.8234 45.1764 19.666 45.1764 20.7057C45.1764 21.7452 44.3336 22.588 43.2941 22.588C42.2546 22.588 41.4116 21.7452 41.4116 20.7057C41.4118 19.6662 42.2546 18.8234 43.2941 18.8234C40.1801 18.8234 37.647 21.3565 37.647 24.4705C37.647 27.5844 40.1801 30.1175 43.2941 30.1175C46.4081 30.1175 48.9411 27.5844 48.9411 24.4705C48.9411 21.3567 46.4081 18.8234 43.2941 18.8234ZM32 0C14.3566 0 0 14.3549 0 32C0 49.6451 14.3566 64 32 64C49.6434 64 64 49.6451 64 32C64 14.3549 49.6434 0 32 0ZM11.2941 24.4707C11.2941 19.2814 15.5147 15.0589 20.7059 15.0589C25.8971 15.0589 30.1177 19.2814 30.1177 24.4707C30.1177 29.66 25.8971 33.8825 20.7059 33.8825C15.5147 33.8825 11.2941 29.66 11.2941 24.4707ZM43.2941 45.1766H20.7059C19.6656 45.1766 18.8236 44.3346 18.8236 43.2943C18.8236 42.2538 19.6656 41.4118 20.7059 41.4118H43.2941C44.3344 41.4118 45.1764 42.2538 45.1764 43.2943C45.1766 44.3346 44.3346 45.1766 43.2941 45.1766ZM43.2941 33.8823C38.1029 33.8823 33.8823 29.6598 33.8823 24.4705C33.8823 19.2812 38.1029 15.0586 43.2941 15.0586C48.4853 15.0586 52.7059 19.2812 52.7059 24.4705C52.7059 29.66 48.4853 33.8823 43.2941 33.8823Z" fill="url(#paint0_linear_505_2973)"/>
<defs>
<linearGradient id="paint0_linear_505_2973" x1="54.6171" y1="54.6171" x2="9.38287" y2="9.38285" gradientUnits="userSpaceOnUse">
<stop stop-color="#0061FF"/>
<stop offset="0.131" stop-color="#066AFF"/>
<stop offset="0.35" stop-color="#1884FF"/>
<stop offset="0.629" stop-color="#34ADFF"/>
<stop offset="0.954" stop-color="#5AE6FF"/>
<stop offset="1" stop-color="#60EFFF"/>
</linearGradient>
</defs>
</svg>
