<svg width="96" height="96" viewBox="0 0 96 96" fill="none" xmlns="http://www.w3.org/2000/svg">
<g clip-path="url(#clip0_3639_11379)">
<path d="M57 0H11C4.92 0 0 4.92 0 11V73C0 79.08 4.92 84 11 84H37.36C35.2 79.44 34 74.36 34 69C34 64.4 34.88 60 36.52 55.96C36.36 56 36.2 56 36 56H16C13.8 56 12 54.2 12 52C12 49.8 13.8 48 16 48H36C37.52 48 38.88 48.88 39.52 50.16C42.12 46.12 45.48 42.68 49.44 40H16C13.8 40 12 38.2 12 36C12 33.8 13.8 32 16 32H52C54.2 32 56 33.8 56 36C56 36.2 56 36.36 55.96 36.52C59.68 35 63.76 34.12 68 34.04V11C68 4.92 63.08 0 57 0V0ZM32 24H16C13.8 24 12 22.2 12 20C12 17.8 13.8 16 16 16H32C34.2 16 36 17.8 36 20C36 22.2 34.2 24 32 24Z" fill="#E6E6E6"/>
<path d="M69 42C54.112 42 42 54.112 42 69C42 83.888 54.112 96 69 96C83.888 96 96 83.888 96 69C96 54.112 83.888 42 69 42ZM80 73H73V80C73 82.208 71.208 84 69 84C66.792 84 65 82.208 65 80V73H58C55.792 73 54 71.208 54 69C54 66.792 55.792 65 58 65H65V58C65 55.792 66.792 54 69 54C71.208 54 73 55.792 73 58V65H80C82.208 65 84 66.792 84 69C84 71.208 82.208 73 80 73Z" fill="#E6E6E6"/>
</g>
<defs>
<clipPath id="clip0_3639_11379">
<rect width="96" height="96" fill="white"/>
</clipPath>
</defs>
</svg>
