<svg width="65" height="53" viewBox="0 0 65 53" fill="none" xmlns="http://www.w3.org/2000/svg">
<g clip-path="url(#clip0_505_2994)">
<path d="M47.5 0C40.2636 0 34.375 5.88863 34.375 13.125C34.375 20.3614 40.2636 26.25 47.5 26.25C54.7364 26.25 60.625 20.3614 60.625 13.125C60.625 5.88863 54.7364 0 47.5 0ZM30.625 13.125C30.625 5.88863 24.7364 0 17.5 0C10.2636 0 4.375 5.88863 4.375 13.125C4.375 20.3614 10.2636 26.25 17.5 26.25C24.7364 26.25 30.625 20.3614 30.625 13.125Z" fill="url(#paint0_linear_505_2994)" fill-opacity="0.24"/>
<path d="M23.75 12.875C23.75 15.9767 21.2267 18.5 18.125 18.5C15.0233 18.5 12.5 15.9767 12.5 12.875C12.5 11.8386 13.3386 11 14.375 11C15.4114 11 16.25 11.8386 16.25 12.875C16.25 13.9095 17.0922 14.75 18.125 14.75C19.1578 14.75 20 13.9095 20 12.875C20 11.8386 20.8386 11 21.875 11C22.9114 11 23.75 11.8386 23.75 12.875Z" fill="white"/>
<path d="M53.75 12.875C53.75 15.9767 51.2267 18.5 48.125 18.5C45.0233 18.5 42.5 15.9767 42.5 12.875C42.5 11.8386 43.3386 11 44.375 11C45.4114 11 46.25 11.8386 46.25 12.875C46.25 13.9095 47.0922 14.75 48.125 14.75C49.1578 14.75 50 13.9095 50 12.875C50 11.8386 50.8386 11 51.875 11C52.9114 11 53.75 11.8386 53.75 12.875Z" fill="white"/>
<path d="M55.125 26.25H40C36.925 26.25 34.2251 27.7499 32.5 30.0749C30.7749 27.7499 28.075 26.25 25 26.25H9.875C4.7 26.25 0.5 30.45 0.5 35.625V50.875C0.5 51.9249 1.32487 52.75 2.375 52.75H19.5249C24.5 52.75 26.2625 52.75 33.5 52.75C40.7375 52.75 37.8379 52.75 41.8379 52.75C42.5 52.75 44.9041 52.75 45.4751 52.75H62.625C63.6751 52.75 64.5 51.9249 64.5 50.875V35.625C64.5 30.45 60.3 26.25 55.125 26.25Z" fill="url(#paint1_linear_505_2994)" fill-opacity="0.24"/>
</g>
<defs>
<linearGradient id="paint0_linear_505_2994" x1="52.3783" y1="45.0165" x2="15.1722" y2="5.34167" gradientUnits="userSpaceOnUse">
<stop stop-color="#0061FF"/>
<stop offset="0.131" stop-color="#066AFF"/>
<stop offset="0.35" stop-color="#1884FF"/>
<stop offset="0.629" stop-color="#34ADFF"/>
<stop offset="0.954" stop-color="#5AE6FF"/>
<stop offset="1" stop-color="#60EFFF"/>
</linearGradient>
<linearGradient id="paint1_linear_505_2994" x1="55.1171" y1="46.6658" x2="28.3377" y2="5.36738" gradientUnits="userSpaceOnUse">
<stop stop-color="#0061FF"/>
<stop offset="0.131" stop-color="#066AFF"/>
<stop offset="0.35" stop-color="#1884FF"/>
<stop offset="0.629" stop-color="#34ADFF"/>
<stop offset="0.954" stop-color="#5AE6FF"/>
<stop offset="1" stop-color="#60EFFF"/>
</linearGradient>
<clipPath id="clip0_505_2994">
<rect width="64" height="53" fill="white" transform="translate(0.5)"/>
</clipPath>
</defs>
</svg>
