<svg width="104" height="63" viewBox="0 0 104 63" fill="none" xmlns="http://www.w3.org/2000/svg">
<g clip-path="url(#clip0_3702_17999)">
<rect width="104" height="63" rx="8" fill="#F1FAFF"/>
<path d="M87.1553 23.1814C87.9654 22.9271 88.8026 23.3573 89.066 24.1965L89.5136 25.6274C94.9021 24.4017 99.493 26.904 101.21 32.3991L106.241 48.4822C108.115 54.4728 105.498 59.3327 99.4659 61.2215L84.7302 65.831C78.7352 67.7061 73.7475 65.118 71.8684 59.1101L66.8964 43.216C65.1659 37.6852 67.4049 33.0666 72.5147 30.9458L72.0671 29.5149C71.8037 28.6757 72.2292 27.8502 73.0587 27.5919C73.8877 27.3317 74.706 27.7678 74.9694 28.607L75.3873 29.9424L86.5816 26.4399L86.1637 25.1044C85.9003 24.2652 86.3264 23.4417 87.1553 23.1814ZM96.3633 50.0422L96.3444 50.0481C95.4837 50.3391 95.0144 51.2829 95.3067 52.155C95.582 53.0324 96.5067 53.538 97.3799 53.287C98.2635 53.0097 98.7535 52.0595 98.4723 51.163C98.193 50.266 97.2494 49.7663 96.3633 50.0422ZM80.8285 54.8817C79.9731 55.1899 79.5208 56.1284 79.7961 57.0058C80.1091 57.8714 81.0395 58.3354 81.8942 58.0253C82.7327 57.7224 83.1831 56.7844 82.8701 55.9188C82.5838 55.0658 81.6763 54.6156 80.8285 54.8817ZM88.5932 52.4533C87.7384 52.7635 87.2874 53.6995 87.5608 54.5775C87.8738 55.4431 88.8036 55.9052 89.659 55.597C90.4949 55.2927 90.9478 54.3561 90.6342 53.4886C90.3485 52.6375 89.441 52.1873 88.5932 52.4533ZM78.6795 48.0136C77.8241 48.3219 77.3737 49.2598 77.649 50.1372C77.9601 51.0034 78.8924 51.4668 79.7471 51.1567C80.5837 50.8543 81.0341 49.9164 80.7211 49.0507C80.4348 48.1977 79.5292 47.7469 78.6795 48.0136ZM86.4283 45.5275C85.5729 45.8357 85.1206 46.7742 85.3959 47.6516C85.707 48.5178 86.6387 48.9793 87.494 48.6711C88.33 48.3668 88.781 47.4308 88.4699 46.5646C88.1817 45.7122 87.2761 45.2614 86.4283 45.5275ZM94.199 43.1182C93.3376 43.4074 92.8788 44.3249 93.1541 45.2023L93.1606 45.2233C93.4529 46.0954 94.3767 46.5384 95.2399 46.2486C96.0818 45.9635 96.5322 45.0255 96.24 44.1534C95.9389 43.326 95.0449 42.8527 94.199 43.1182ZM87.5006 29.3779L76.3063 32.8805L76.789 34.424C77.0452 35.2466 76.6269 36.0886 75.7974 36.347C74.9684 36.6072 74.1429 36.1545 73.8867 35.3319L73.4272 33.8628C69.8655 35.376 68.5039 38.17 69.7986 42.308L69.9854 42.901L98.5179 33.9744L98.3099 33.3064C96.951 29.2281 94.2218 27.7163 90.4267 28.5464L90.8862 30.0154C91.1417 30.8361 90.7053 31.686 89.8946 31.9384C89.0656 32.1986 88.2395 31.744 87.9839 30.9233L87.5006 29.3779Z" fill="#E3F3FF"/>
</g>
<defs>
<clipPath id="clip0_3702_17999">
<rect width="104" height="63" rx="8" fill="white"/>
</clipPath>
</defs>
</svg>
