<svg width="20" height="20" viewBox="0 0 20 20" fill="none" xmlns="http://www.w3.org/2000/svg">
<path d="M7.08533 9.58292C7.30678 9.58292 7.51917 9.67089 7.67576 9.82749C7.83235 9.98408 7.92033 10.1965 7.92033 10.4179C7.92033 10.6394 7.83235 10.8518 7.67576 11.0084C7.51917 11.1649 7.30678 11.2529 7.08533 11.2529C6.86376 11.2529 6.65127 11.1649 6.4946 11.0082C6.33793 10.8516 6.24991 10.6391 6.24991 10.4175C6.24991 10.1959 6.33793 9.98345 6.4946 9.82678C6.65127 9.6701 6.86376 9.58209 7.08533 9.58209V9.58292ZM10.0003 3.62709V9.16959H16.202L14.767 7.73292C14.6609 7.62705 14.5964 7.48659 14.5853 7.33714C14.5741 7.1877 14.617 7.03921 14.7062 6.91875L14.767 6.84875C14.8729 6.74303 15.0133 6.67883 15.1625 6.66782C15.3118 6.65681 15.46 6.69972 15.5803 6.78875L15.6503 6.84875L18.1478 9.34709C18.2537 9.45291 18.318 9.59321 18.3292 9.74246C18.3404 9.89172 18.2976 10.04 18.2087 10.1604L18.1478 10.2304L15.6512 12.7329C15.5396 12.844 15.3903 12.9089 15.233 12.9147C15.0757 12.9204 14.922 12.8666 14.8027 12.764C14.6833 12.6614 14.6071 12.5175 14.5892 12.3611C14.5713 12.2047 14.6131 12.0473 14.7062 11.9204L14.7662 11.8504L16.1937 10.4196H10.0012L10.0003 16.0413C10.0002 16.1325 9.98021 16.2225 9.94162 16.3052C9.90303 16.3878 9.84682 16.461 9.77694 16.5196C9.70706 16.5782 9.6252 16.6208 9.5371 16.6444C9.44901 16.668 9.35681 16.6721 9.26699 16.6563L2.18366 15.4054C2.03886 15.3799 1.90768 15.3042 1.81318 15.1916C1.71869 15.079 1.66692 14.9366 1.66699 14.7896V4.79125C1.66699 4.64312 1.71961 4.4998 1.81546 4.38686C1.91131 4.27391 2.04416 4.19868 2.19033 4.17459L9.27366 3.01125C9.36313 2.9965 9.45474 3.0014 9.54212 3.0256C9.62951 3.0498 9.71059 3.09272 9.77973 3.15139C9.84886 3.21007 9.90441 3.28308 9.9425 3.36537C9.98059 3.44765 10.0003 3.53724 10.0003 3.62792V3.62709ZM8.75033 4.36292L2.91699 5.32125V14.2646L8.75033 15.2946V4.36375V4.36292ZM10.8337 15.4163H11.4712L11.5562 15.4104C11.7059 15.3899 11.8432 15.3157 11.9425 15.2017C12.0417 15.0877 12.0964 14.9416 12.0962 14.7904L12.0903 11.2488H10.8337V15.4154V15.4163ZM10.8353 8.33292L10.8337 7.27042V4.16625H11.4545C11.6054 4.16623 11.7512 4.22081 11.865 4.31991C11.9788 4.41901 12.0529 4.55594 12.0737 4.70542L12.0795 4.78959L12.0853 8.33292H10.8353Z" fill="#E72727"/>
</svg>
