<svg width="22" height="22" viewBox="0 0 22 22" fill="none" xmlns="http://www.w3.org/2000/svg">
<path d="M17.0302 4.18346C17.0221 4.06162 17.0248 3.93948 17.038 3.81845C17.0768 3.64891 17.1677 3.47793 17.3262 3.31774C17.5693 3.07471 17.8377 2.98956 18.0881 3.00646C18.3412 3.02355 18.5839 3.14558 18.7684 3.33086C18.9528 3.51615 19.0742 3.75972 19.0911 4.01327C19.1078 4.26423 19.0229 4.53225 18.7816 4.77349C18.5403 5.01481 18.2727 5.0999 18.0223 5.08343C17.7694 5.06678 17.5265 4.94578 17.3417 4.76156C17.1819 4.60225 17.0691 4.39931 17.0302 4.18346ZM1.88233 10.5279C2.03699 5.37684 6.79018 1.69655 11.5483 1.87317L11.5483 1.88659C13.0957 1.96963 14.596 2.44549 15.9078 3.26866C15.6097 4.01043 15.7852 4.77816 16.2127 5.35859C16.2553 5.41743 16.3005 5.47437 16.348 5.52918C16.7281 5.96746 17.2643 6.27619 17.8537 6.33021C18.1715 6.36354 18.5026 6.32401 18.8288 6.19271L18.8333 6.19142C20.763 9.09668 20.5798 12.6405 19.0392 15.4451C17.4864 18.2719 14.5616 20.335 11.0523 20.2312L11.0496 20.2312C9.80127 20.2273 8.56671 19.9697 7.42099 19.4739C6.27527 18.9782 5.2423 18.2546 4.38487 17.3473C3.52743 16.44 2.86343 15.3678 2.43321 14.1958C2.00299 13.0239 1.81553 11.7768 1.88226 10.5302L1.88233 10.5279ZM21.474 10.7176L21.474 10.7176L21.4739 10.7142C21.4124 8.85136 20.8493 7.04014 19.8446 5.47136C20.6782 4.43376 20.3869 3.20972 19.6407 2.46124C18.8949 1.71326 17.6758 1.42134 16.6467 2.25365C10.0011 -2.21033 0.406099 3.01101 0.617725 11.0528L0.617723 11.0528L0.617748 11.0536C1.09144 25.0523 21.4634 24.7152 21.474 10.7176Z" fill="#252525" stroke="#252525" stroke-width="0.2"/>
<path d="M15.6513 6.24878C15.5127 6.10894 15.3342 6.01561 15.1403 5.98173C14.9464 5.94785 14.7468 5.97508 14.5691 6.05966L9.07753 8.62331C8.96853 8.68088 8.87943 8.76998 8.82186 8.87897L6.25821 14.3705C6.17363 14.5482 6.1464 14.7479 6.18028 14.9417C6.21416 15.1356 6.30749 15.3142 6.44733 15.4527C6.60541 15.6073 6.81092 15.7041 7.03075 15.7276C7.25059 15.7511 7.47193 15.6999 7.65911 15.5823L13.0211 13.0782L13.1261 13.0151C13.1886 12.9615 13.2397 12.896 13.2767 12.8225L15.8404 7.34849C15.929 7.1687 15.9585 6.96546 15.9245 6.76791C15.8905 6.57035 15.7949 6.38863 15.6513 6.24878ZM7.3194 14.5806L9.45577 10.0032L11.9073 12.4548L7.3194 14.5806ZM12.6428 11.6983L10.1912 9.24671L14.7687 7.11034C14.3449 8.04894 13.0701 10.7702 12.6428 11.6983Z" fill="#252525"/>
</svg>
