<svg width="24" height="24" viewBox="0 0 24 24" fill="none" xmlns="http://www.w3.org/2000/svg">
<circle cx="19" cy="5" r="1.5" stroke="url(#paint0_linear_3135_14391)"/>
<path fill-rule="evenodd" clip-rule="evenodd" d="M16.7748 2.98788C15.435 2.35445 13.9386 2 12.361 2C6.648 2 2 6.648 2 12.361C2 18.074 6.648 22.722 12.361 22.722C18.074 22.722 22.722 18.074 22.722 12.361C22.722 10.4035 22.1763 8.57107 21.2291 7.00778C20.8925 7.3813 20.4633 7.66978 19.9777 7.83709C20.7678 9.1622 21.222 10.7097 21.222 12.361C21.222 17.247 17.247 21.222 12.361 21.222C7.475 21.222 3.5 17.247 3.5 12.361C3.5 7.476 7.475 3.5 12.361 3.5C13.6876 3.5 14.947 3.79308 16.0779 4.31787C16.1951 3.81396 16.4392 3.35878 16.7748 2.98788ZM16.4176 9.2439C16.5016 8.9789 16.4296 8.6879 16.2326 8.4899C16.0346 8.2929 15.7446 8.2199 15.4776 8.3049L10.3886 9.8979C10.1546 9.9709 9.9706 10.1539 9.8976 10.3899L8.3046 15.4789C8.2206 15.7439 8.2926 16.0349 8.4896 16.2329C8.6326 16.3749 8.8246 16.4519 9.0206 16.4519C9.0946 16.4519 9.1706 16.4409 9.2446 16.4179L14.3336 14.8249C14.5676 14.7519 14.7526 14.5679 14.8256 14.3329L16.4176 9.2439ZM11.2116 11.2119L14.5586 10.1639L13.5106 13.5109L10.1646 14.5589L11.2116 11.2119Z" fill="url(#paint1_linear_3135_14391)"/>
<defs>
<linearGradient id="paint0_linear_3135_14391" x1="20.4136" y1="6.41357" x2="17.5864" y2="3.58643" gradientUnits="userSpaceOnUse">
<stop stop-color="#007AF5"/>
<stop offset="0.131" stop-color="#007AF5"/>
<stop offset="0.35" stop-color="#1884FF"/>
<stop offset="0.629" stop-color="#34ADFF"/>
<stop offset="0.954" stop-color="#5AE6FF"/>
<stop offset="1" stop-color="#60EFFF"/>
</linearGradient>
<linearGradient id="paint1_linear_3135_14391" x1="19.684" y1="19.684" x2="5.038" y2="5.03799" gradientUnits="userSpaceOnUse">
<stop stop-color="#007AF5"/>
<stop offset="0.131" stop-color="#007AF5"/>
<stop offset="0.35" stop-color="#1884FF"/>
<stop offset="0.629" stop-color="#34ADFF"/>
<stop offset="0.954" stop-color="#5AE6FF"/>
<stop offset="1" stop-color="#60EFFF"/>
</linearGradient>
</defs>
</svg>
