<svg width="22" height="22" viewBox="0 0 22 22" fill="none" xmlns="http://www.w3.org/2000/svg">
<path d="M17.0303 4.18346C17.0221 4.06162 17.0248 3.93948 17.038 3.81845C17.0768 3.64891 17.1677 3.47793 17.3262 3.31774C17.5693 3.07471 17.8377 2.98956 18.0882 3.00646C18.3413 3.02355 18.5839 3.14558 18.7684 3.33086C18.9528 3.51615 19.0742 3.75972 19.0911 4.01327C19.1078 4.26423 19.0229 4.53225 18.7816 4.77349C18.5403 5.01481 18.2727 5.0999 18.0223 5.08343C17.7694 5.06678 17.5265 4.94578 17.3417 4.76156C17.1819 4.60225 17.0691 4.39931 17.0303 4.18346ZM1.88234 10.5279C2.037 5.37684 6.79018 1.69655 11.5483 1.87317L11.5483 1.88659C13.0957 1.96963 14.596 2.44549 15.9078 3.26866C15.6097 4.01043 15.7852 4.77816 16.2127 5.35859C16.2553 5.41743 16.3005 5.47437 16.348 5.52918C16.7281 5.96745 17.2643 6.27618 17.8537 6.33021C18.1715 6.36354 18.5026 6.32402 18.8288 6.19271L18.8333 6.19142C20.763 9.09668 20.5798 12.6405 19.0392 15.4451C17.4864 18.2719 14.5616 20.335 11.0523 20.2312L11.0497 20.2312C9.80128 20.2273 8.56672 19.9697 7.42099 19.4739C6.27527 18.9782 5.24231 18.2546 4.38488 17.3473C3.52744 16.44 2.86344 15.3678 2.43322 14.1958C2.003 13.0239 1.81554 11.7768 1.88227 10.5302L1.88234 10.5279ZM21.474 10.7176L21.474 10.7176L21.4739 10.7142C21.4124 8.85136 20.8493 7.04014 19.8446 5.47136C20.6782 4.43376 20.387 3.20972 19.6407 2.46124C18.895 1.71326 17.6758 1.42134 16.6468 2.25365C10.0012 -2.21033 0.406106 3.01101 0.617733 11.0528L0.61773 11.0528L0.617756 11.0536C1.09145 25.0523 21.4634 24.7152 21.474 10.7176Z" fill="url(#paint0_linear_941_575)" stroke="url(#paint1_linear_941_575)" stroke-width="0.2"/>
<path d="M15.6513 6.24881C15.5128 6.10897 15.3342 6.01564 15.1403 5.98176C14.9464 5.94788 14.7468 5.97511 14.5691 6.05969L9.07755 8.62334C8.96856 8.68091 8.87946 8.77001 8.82189 8.87901L6.25824 14.3705C6.17366 14.5483 6.14642 14.7479 6.18031 14.9418C6.21419 15.1357 6.30752 15.3142 6.44736 15.4527C6.60543 15.6073 6.81095 15.7042 7.03078 15.7277C7.25061 15.7512 7.47196 15.7 7.65914 15.5823L13.0211 13.0782L13.1262 13.0152C13.1886 12.9615 13.2398 12.8961 13.2768 12.8225L15.8404 7.34852C15.929 7.16873 15.9585 6.96549 15.9245 6.76794C15.8905 6.57038 15.7949 6.38866 15.6513 6.24881ZM7.31942 14.5807L9.4558 10.0032L11.9074 12.4548L7.31942 14.5807ZM12.6428 11.6983L10.1913 9.24674L14.7687 7.11037C14.3449 8.04897 13.0701 10.7702 12.6428 11.6983Z" fill="url(#paint2_linear_941_575)"/>
<defs>
<linearGradient id="paint0_linear_941_575" x1="18.3451" y1="18.2698" x2="3.80567" y2="3.66797" gradientUnits="userSpaceOnUse">
<stop stop-color="#0061FF"/>
<stop offset="0.131" stop-color="#066AFF"/>
<stop offset="0.35" stop-color="#1884FF"/>
<stop offset="0.629" stop-color="#34ADFF"/>
<stop offset="0.954" stop-color="#5AE6FF"/>
<stop offset="1" stop-color="#60EFFF"/>
</linearGradient>
<linearGradient id="paint1_linear_941_575" x1="18.3451" y1="18.2698" x2="3.80567" y2="3.66797" gradientUnits="userSpaceOnUse">
<stop stop-color="#0061FF"/>
<stop offset="0.131" stop-color="#066AFF"/>
<stop offset="0.35" stop-color="#1884FF"/>
<stop offset="0.629" stop-color="#34ADFF"/>
<stop offset="0.954" stop-color="#5AE6FF"/>
<stop offset="1" stop-color="#60EFFF"/>
</linearGradient>
<linearGradient id="paint2_linear_941_575" x1="14.5056" y1="14.3015" x2="7.60337" y2="7.39474" gradientUnits="userSpaceOnUse">
<stop stop-color="#0061FF"/>
<stop offset="0.131" stop-color="#066AFF"/>
<stop offset="0.35" stop-color="#1884FF"/>
<stop offset="0.629" stop-color="#34ADFF"/>
<stop offset="0.954" stop-color="#5AE6FF"/>
<stop offset="1" stop-color="#60EFFF"/>
</linearGradient>
</defs>
</svg>
