<svg width="33" height="32" viewBox="0 0 33 32" fill="none" xmlns="http://www.w3.org/2000/svg">
<g id="Social icon" clip-path="url(#clip0_3391_66115)">
<path id="Vector" d="M32.5281 16C32.5281 7.16344 25.3646 0 16.5281 0C7.69151 0 0.528076 7.16344 0.528076 16C0.528076 23.9859 6.37901 30.6053 14.0281 31.8056V20.625H9.96558V16H14.0281V12.475C14.0281 8.465 16.4168 6.25 20.0715 6.25C21.8215 6.25 23.6531 6.5625 23.6531 6.5625V10.5H21.6356C19.6481 10.5 19.0281 11.7334 19.0281 13V16H23.4656L22.7562 20.625H19.0281V31.8056C26.6771 30.6053 32.5281 23.9859 32.5281 16Z" fill="#1877F2"/>
<path id="Vector_2" d="M22.7562 20.625L23.4656 16H19.0281V13C19.0281 11.7347 19.6481 10.5 21.6356 10.5H23.6531V6.5625C23.6531 6.5625 21.8221 6.25 20.0715 6.25C16.4168 6.25 14.0281 8.465 14.0281 12.475V16H9.96558V20.625H14.0281V31.8056C15.6847 32.0648 17.3715 32.0648 19.0281 31.8056V20.625H22.7562Z" fill="white"/>
</g>
<defs>
<clipPath id="clip0_3391_66115">
<rect width="32" height="32" fill="white" transform="translate(0.528076)"/>
</clipPath>
</defs>
</svg>
