<svg width="33" height="32" viewBox="0 0 33 32" fill="none" xmlns="http://www.w3.org/2000/svg">
<circle cx="16.5" cy="16" r="16" fill="white"/>
<path d="M15.3926 17.0313C15.3452 17.0313 14.3043 17.0313 13.8312 17.0313C13.5789 17.0313 13.5 16.9111 13.5 16.6108C13.5 15.8098 13.5 14.9887 13.5 14.1877C13.5 13.8673 13.5946 13.7672 13.8312 13.7672H15.3926C15.3926 13.7071 15.3926 12.5457 15.3926 12.005C15.3926 11.204 15.503 10.4431 15.8184 9.74218C16.1496 9.02128 16.6227 8.54068 17.222 8.26033C17.6163 8.0801 18.0106 8 18.4364 8H19.982C20.2028 8 20.2974 8.12015 20.2974 8.4005V10.6834C20.2974 10.9637 20.2028 11.0839 19.982 11.0839C19.5562 11.0839 19.1304 11.0839 18.7045 11.1039C18.2787 11.1039 18.0579 11.3642 18.0579 11.9249C18.0421 12.5257 18.0579 13.1064 18.0579 13.7272H19.8874C20.1397 13.7272 20.2344 13.8473 20.2344 14.1677V16.5907C20.2344 16.9111 20.1555 17.0113 19.8874 17.0113C19.3196 17.0113 18.1052 17.0113 18.0579 17.0113V23.5394C18.0579 23.8798 17.9791 24 17.6952 24C17.0328 24 16.3862 24 15.7238 24C15.4872 24 15.3926 23.8799 15.3926 23.5795C15.3926 21.4768 15.3926 17.0914 15.3926 17.0313Z" fill="#252525"/>
</svg>
