<svg width="20" height="20" viewBox="0 0 20 20" fill="none" xmlns="http://www.w3.org/2000/svg">
<path d="M17.1442 15.0927L17.0728 15.072C16.039 14.7937 15.6892 14.5275 15.229 14.3518C14.875 14.2175 14.5784 14.0905 14.3287 13.9734C14.9733 13.8635 15.5604 13.7255 16.0866 13.5608C17.2663 13.1885 17.7052 12.8039 17.7516 12.7612L18.0982 12.4401L17.7363 12.1362C16.8477 11.3891 16.6756 9.65908 16.4924 7.82804C16.3118 6.01715 16.125 4.14459 15.2723 2.64066C14.2689 0.870363 12.5446 0.00671884 9.99887 0C7.45555 0.00671884 5.73127 0.870364 4.72727 2.64039C3.87461 4.14431 3.68785 6.01715 3.50718 7.82808C3.32468 9.65915 3.15194 11.3892 2.26329 12.1362L1.90196 12.4402L2.24865 12.7612C2.29443 12.804 2.73389 13.1885 3.91371 13.5608C4.43985 13.7256 5.02638 13.8635 5.67151 13.9734C5.42185 14.0906 5.12462 14.2175 4.77063 14.3518C4.31043 14.5276 3.9607 14.7937 2.92674 15.072L2.85596 15.0928C1.91481 15.4029 1.28125 16.2757 1.28125 17.2607V20H10.0001H18.7184V17.2607C18.7183 16.2756 18.0854 15.4028 17.1442 15.0927ZM15.6635 7.91105C15.8388 9.66767 16.0054 11.3391 16.8165 12.3742C16.5846 12.4938 16.2336 12.6465 15.7307 12.7978C14.9592 13.031 14.0943 13.1848 13.2295 13.2837C13.1416 13.197 13.0915 13.125 13.0628 13.0701C13.0591 13.0627 13.0561 13.0542 13.0524 13.0469L13.0488 12.5537C14.3274 11.2878 15.373 9.41923 15.373 7.46245C15.373 7.02299 15.3346 6.60247 15.2619 6.2027C15.3321 6.21184 15.4029 6.22009 15.4737 6.22712C15.5506 6.78314 15.6074 7.35014 15.6635 7.91105ZM12.8272 11.5747C12.3487 12.1191 11.8129 12.5756 11.277 12.893C10.7991 13.1774 10.3456 13.3337 10.0001 13.3337C9.65465 13.3337 9.20112 13.1774 8.72323 12.893C8.18736 12.5757 7.65149 12.1191 7.17297 11.5747C6.08776 10.3378 5.46459 8.84489 5.46029 7.47647C6.18722 7.31932 6.92027 7.05474 7.65208 6.68423C8.64756 6.18008 9.64367 5.47941 10.6129 4.6017C10.7197 4.50526 10.8229 4.40912 10.9242 4.31299C11.5706 4.79971 12.8345 5.63043 14.3739 6.02961C14.4837 6.48189 14.5399 6.96131 14.5399 7.46241C14.5399 8.83512 13.9155 10.3335 12.8272 11.5747ZM14.5472 3.05145C14.9348 3.73505 15.1716 4.52971 15.334 5.3714C13.6927 5.14679 12.2529 4.24775 11.5236 3.71677C12.4854 2.71515 13.0946 1.86159 13.2471 1.64065C13.7806 1.98975 14.2085 2.45359 14.5472 3.05145ZM5.45236 3.05145C5.85155 2.34769 6.37273 1.82893 7.04602 1.46545C7.81685 1.04919 8.81116 0.836457 9.99887 0.83341C10.9669 0.835832 11.8055 0.977162 12.5 1.25396C12.2235 1.64061 11.3349 2.82652 10.0398 3.99689C9.12667 4.82143 8.19404 5.47699 7.26633 5.94543C6.31905 6.42395 5.37607 6.70622 4.45508 6.78833C4.61317 5.43457 4.85243 4.1101 5.45236 3.05145ZM4.26953 12.7978C3.7666 12.6465 3.41503 12.4939 3.18311 12.3742C3.99429 11.3391 4.16152 9.66763 4.33668 7.91046C4.34582 7.81769 4.355 7.72491 4.36477 7.63151C4.45266 7.62542 4.54055 7.61807 4.62907 7.60893C4.67911 9.512 5.70389 11.3196 6.95086 12.5537L6.94781 13.0469C6.94414 13.0542 6.94109 13.0627 6.93742 13.0701C6.90875 13.125 6.85867 13.197 6.77078 13.2837C5.90588 13.1848 5.0404 13.031 4.26953 12.7978ZM17.8852 19.1662H10.0001H2.11497V17.2607C2.11497 16.6406 2.5117 16.0901 3.10432 15.8874L3.15073 15.874C3.93015 15.664 4.35985 15.459 4.70591 15.2929C4.83958 15.2295 4.95493 15.1733 5.06786 15.1306C6.00049 14.7754 7.28528 14.2151 7.67774 13.4521C7.69302 13.4216 7.70399 13.3972 7.71009 13.3826L7.76747 13.2556C8.54201 13.8294 9.33792 14.1662 10.0001 14.1662C10.6618 14.1662 11.4583 13.8293 12.2327 13.2556L12.2901 13.3826C12.2956 13.396 12.3066 13.4216 12.3212 13.4509C12.7131 14.2139 13.9991 14.7754 14.933 15.1306C15.0446 15.1733 15.16 15.2295 15.2937 15.2929C15.6397 15.459 16.07 15.664 16.8495 15.874L16.8958 15.8874C17.4878 16.0901 17.8852 16.6406 17.8852 17.2607V19.1662H17.8852Z" fill="#252525"/>
</svg>
