<svg width="12" height="12" viewBox="0 0 12 12" fill="none" xmlns="http://www.w3.org/2000/svg">
<circle cx="6" cy="6" r="5.5" fill="#FF8A00" stroke="#FFCC4D"/>
<path d="M7.63259 3.36729C8.31336 3.87329 8.75454 4.68368 8.75454 5.59718C8.75454 5.62326 8.75409 5.64903 8.75335 5.67496C8.55578 4.41206 7.75179 3.9533 7.75179 3.9533C7.39762 3.74634 7.36261 4.00232 7.36261 4.00232C7.33102 4.30031 7.80781 4.22671 7.80781 4.22671C8.66365 4.94785 8.7228 5.7806 8.69986 6.14758C8.63072 6.49132 8.49811 6.81226 8.31485 7.09729C8.74902 5.9433 8.3065 5.16628 8.3065 5.16628C8.10729 4.80795 7.94667 5.01028 7.94667 5.01028C7.76773 5.25062 8.21547 5.43016 8.21547 5.43016C8.53745 6.35171 8.29443 7.03754 8.08986 7.3996C7.58059 7.99589 6.82339 8.3739 5.97783 8.3739C5.29438 8.3739 4.66874 8.12686 4.18494 7.71726C4.32992 7.70162 4.53926 7.74155 4.53926 7.74155C4.67067 7.78357 5.63051 7.96236 5.84075 7.99127C6.05098 8.02018 6.20356 7.99127 6.20356 7.99127C6.39547 7.93867 7.95472 7.0946 7.95472 7.0946C8.14141 6.97883 8.11251 6.89733 8.11251 6.89733C8.10729 6.78439 7.85489 6.78171 7.85489 6.78171C7.64719 6.7765 6.5902 7.163 6.5902 7.163C6.7848 7.25761 6.73488 7.42329 6.73488 7.42329C6.7401 7.55992 6.3825 7.63621 6.3825 7.63621C5.66732 7.64157 5.56659 7.56529 5.56659 7.56529C6.2046 7.59345 6.443 7.51627 6.443 7.51627C6.75857 7.43223 6.52718 7.24286 6.52718 7.24286C6.42199 7.17268 6.12757 7.13066 6.12757 7.13066C5.86816 7.1025 5.66478 7.05199 5.66478 7.05199C5.45455 7.00148 5.13897 6.92028 5.13897 6.92028H4.69719C4.2648 6.93413 3.92301 7.04335 3.73899 7.11666C3.59193 6.72673 3.50388 6.15607 3.75225 5.44506C3.75225 5.44506 4.19999 5.26552 4.02105 5.02518C4.02105 5.02518 3.86043 4.82285 3.66122 5.18118C3.66122 5.18118 3.21661 5.96178 3.656 7.12023C3.45992 6.82194 3.31986 6.48357 3.25058 6.12016C3.23255 5.74052 3.30899 4.93042 4.14427 4.22671C4.14427 4.22671 4.62106 4.30031 4.58947 4.00232C4.58947 4.00232 4.55446 3.74634 4.20029 3.9533C4.20029 3.9533 3.40524 4.40684 3.20201 5.6538C3.20156 5.63503 3.20126 5.61611 3.20126 5.59718C3.20126 4.66938 3.65645 3.84796 4.35569 3.34375C3.49062 3.88446 2.91504 4.84519 2.91504 5.94062C2.91504 7.63085 4.28522 9.00102 5.97544 9.00102C7.66567 9.00102 9.03584 7.63085 9.03584 5.94062C9.03584 4.86099 8.47681 3.91217 7.63259 3.36729Z" fill="#FFD983"/>
<path d="M6.51912 3.85887L6.96611 2.85448C6.96611 2.85448 6.49632 3.18406 6.31574 3.37329C6.31574 3.37329 6.49454 3.38029 6.46474 3.51171C6.46474 3.51171 6.48232 3.68872 6.33332 3.69751C6.18432 3.7063 6.08092 3.65713 6.08971 3.4907C6.08971 3.4907 6.02132 3.15933 6.28773 3.12953L5.99152 2.50195L5.69174 3.13296C5.69174 3.13296 5.87754 3.11895 5.88454 3.28553L5.88633 3.50992C5.88633 3.50992 5.86353 3.70093 5.73033 3.69929C5.73033 3.69929 5.54095 3.72209 5.53231 3.57652C5.53231 3.57652 5.45349 3.37314 5.6831 3.36092L5.0293 2.85076L5.43844 3.85887C5.43844 3.85887 5.94772 3.63269 6.51912 3.85887Z" fill="#FFD983"/>
<path d="M4.80344 6.31217C4.81104 6.32185 4.81879 6.33154 4.82669 6.34107C4.82773 6.34241 4.82892 6.34375 4.82996 6.34494C4.83667 6.35299 4.84337 6.36089 4.85023 6.36878C4.85261 6.37147 4.855 6.37415 4.85738 6.37683C4.86304 6.38324 4.8687 6.38964 4.87451 6.3959C4.87735 6.39903 4.88033 6.40216 4.88316 6.40529C4.88852 6.4111 4.89388 6.41676 4.8994 6.42242C4.90253 6.4257 4.9058 6.42898 4.90893 6.43226C4.9143 6.43762 4.91951 6.44313 4.92488 6.44835C4.92815 6.45163 4.93158 6.4549 4.93501 6.45818C4.94037 6.4634 4.94574 6.46846 4.9511 6.47368C4.95453 6.47696 4.9581 6.48023 4.96168 6.48351C4.96704 6.48858 4.97255 6.49349 4.97807 6.49841C4.98164 6.50169 4.98522 6.50482 4.9888 6.50795C4.99431 6.51286 4.99982 6.51763 5.00548 6.5224C5.00921 6.52553 5.01278 6.52866 5.01651 6.53179C5.02217 6.53656 5.02783 6.54117 5.03364 6.54579C5.03737 6.54877 5.04109 6.55175 5.04482 6.55473C5.05063 6.55935 5.05659 6.56397 5.06255 6.56859C5.06627 6.57142 5.06985 6.57425 5.07357 6.57708C5.07968 6.5817 5.08594 6.58632 5.09205 6.59079C5.09563 6.59347 5.0992 6.596 5.10278 6.59869C5.10933 6.60331 5.11589 6.60792 5.12245 6.61254C5.12587 6.61493 5.12915 6.61731 5.13258 6.61955C5.13973 6.62431 5.14688 6.62908 5.15403 6.63385C5.15701 6.63579 5.15999 6.63787 5.16297 6.63981C5.17117 6.64503 5.17951 6.65024 5.18771 6.65545C5.18979 6.65665 5.19173 6.65799 5.19382 6.65933C5.41522 6.79447 5.67552 6.87225 5.95385 6.87225C6.16155 6.87225 6.35897 6.82889 6.53792 6.75081C6.63477 6.7085 6.7261 6.65605 6.81073 6.59481C6.81073 6.59481 6.81088 6.59481 6.81088 6.59466C6.83904 6.57425 6.86631 6.55294 6.89283 6.53074C6.89298 6.5306 6.89313 6.53045 6.89343 6.5303C6.9198 6.5081 6.94543 6.48515 6.97016 6.46116C6.97046 6.46086 6.97076 6.46057 6.9712 6.46027C6.99579 6.43643 7.01948 6.41184 7.04227 6.38637C7.04272 6.38592 7.04317 6.38532 7.04362 6.38488C7.05479 6.37251 7.06567 6.35984 7.07639 6.34703C7.07669 6.34673 7.07684 6.34643 7.07714 6.34614C7.08802 6.33317 7.0986 6.31991 7.10903 6.3065C7.10962 6.30576 7.11022 6.30501 7.11081 6.30427C7.12065 6.2916 7.13018 6.27879 7.13957 6.26568C7.14017 6.26478 7.14091 6.26389 7.14151 6.263C7.15119 6.24944 7.16073 6.23573 7.16997 6.22187C7.17071 6.22083 7.17131 6.21979 7.1719 6.21889C7.1804 6.20608 7.18889 6.19297 7.19693 6.17986C7.19783 6.17837 7.19887 6.17688 7.19976 6.17539C7.20841 6.16138 7.21675 6.14737 7.2248 6.13307C7.22554 6.13188 7.22614 6.13054 7.22688 6.12935C7.23433 6.11623 7.24148 6.10312 7.24849 6.08986C7.24953 6.08777 7.25072 6.08569 7.25176 6.0836C7.25921 6.0693 7.26651 6.0547 7.27352 6.0401C7.27426 6.03861 7.27486 6.03726 7.2756 6.03577C7.28186 6.02251 7.28797 6.00911 7.29393 5.99555C7.29512 5.99301 7.29617 5.99033 7.29736 5.9878C7.30376 5.97305 7.30987 5.95815 7.31568 5.9431C7.31628 5.94161 7.31688 5.93997 7.31747 5.93848C7.32269 5.92492 7.32775 5.91136 7.33252 5.89765C7.33356 5.89453 7.33476 5.8914 7.3358 5.88827C7.34101 5.87322 7.34608 5.85802 7.3507 5.84267C7.35115 5.84104 7.35159 5.8394 7.35219 5.83776C7.35636 5.8239 7.36038 5.81004 7.36426 5.79604C7.36515 5.79246 7.36619 5.78904 7.36709 5.78546C7.37111 5.76996 7.37513 5.75447 7.37871 5.73882C7.37901 5.73733 7.37931 5.73584 7.37975 5.7342C7.38303 5.7199 7.38601 5.7056 7.38869 5.69114C7.38944 5.68727 7.39018 5.68355 7.39093 5.67967C7.39391 5.66388 7.39659 5.64794 7.39912 5.63199C7.39927 5.6308 7.39942 5.62961 7.39957 5.62827C7.4018 5.61337 7.40374 5.59832 7.40553 5.58327C7.40598 5.57925 7.40642 5.57522 7.40687 5.5712C7.40866 5.55496 7.4103 5.53872 7.41149 5.52248C7.41149 5.52173 7.41164 5.52099 7.41164 5.52024C7.41283 5.5046 7.41358 5.48881 7.41432 5.47301C7.41447 5.46884 7.41462 5.46467 7.41477 5.4605C7.41536 5.44396 7.41566 5.42742 7.41566 5.41073C7.41566 5.08279 7.30764 4.78003 7.12527 4.53612C7.11826 4.52673 7.11111 4.51749 7.10396 4.50826C7.0317 4.41618 6.94855 4.33304 6.85647 4.26077C6.838 4.24632 6.81937 4.23231 6.80015 4.21875C6.78108 4.2052 6.76156 4.19208 6.7419 4.17942C6.73206 4.17301 6.72208 4.1669 6.71195 4.16079C6.67172 4.13636 6.6303 4.11386 6.58768 4.0933C6.39592 4.00092 6.18107 3.94922 5.954 3.94922C5.93999 3.94922 5.92599 3.94952 5.91213 3.94981C5.90766 3.94996 5.90334 3.95011 5.89887 3.95026C5.88933 3.95056 5.8798 3.95101 5.87041 3.9516C5.86535 3.9519 5.86028 3.9522 5.85506 3.95265C5.84612 3.95324 5.83718 3.95399 5.82839 3.95473C5.82333 3.95518 5.81826 3.95563 5.81335 3.95607C5.80396 3.95697 5.79457 3.95801 5.78518 3.95905C5.78086 3.9595 5.77669 3.95995 5.77237 3.96054C5.75911 3.96218 5.7457 3.96397 5.73259 3.96606C5.73244 3.96606 5.73214 3.96606 5.73199 3.9662C5.71843 3.96829 5.70488 3.97053 5.69147 3.97306C5.68774 3.9738 5.68387 3.97455 5.68014 3.97529C5.67061 3.97708 5.66092 3.97902 5.65139 3.98096C5.64692 3.98185 5.64245 3.98289 5.63798 3.98393C5.62904 3.98587 5.6201 3.98796 5.61116 3.99019C5.60684 3.99124 5.60237 3.99228 5.59804 3.99347C5.58851 3.99585 5.57912 3.99839 5.56959 4.00092C5.56601 4.00181 5.56243 4.00286 5.55901 4.00375C5.53278 4.01105 5.50686 4.0191 5.48138 4.02789C5.47885 4.02878 5.47631 4.02968 5.47378 4.03057C5.46365 4.03415 5.45352 4.03772 5.44339 4.04145C5.43996 4.04279 5.43653 4.04413 5.43296 4.04532C5.42357 4.0489 5.41433 4.05247 5.40509 4.05635C5.40167 4.05769 5.39839 4.05903 5.39496 4.06052C5.38513 4.06469 5.37529 4.06886 5.36546 4.07318C5.36308 4.07423 5.36069 4.07527 5.35831 4.07631C5.33328 4.08749 5.30854 4.09941 5.28441 4.11192C5.28351 4.11237 5.28262 4.11297 5.28157 4.11341C5.27055 4.11908 5.25982 4.12489 5.24894 4.13085C5.24671 4.13204 5.24447 4.13338 5.24224 4.13457C5.23255 4.13994 5.22287 4.14545 5.21333 4.15111C5.2111 4.15245 5.20886 4.15379 5.20663 4.15513C5.1965 4.16124 5.18637 4.16735 5.17623 4.17376C5.17504 4.1745 5.17385 4.17525 5.17251 4.17599C5.13764 4.19804 5.10382 4.22159 5.07104 4.24647C5.07 4.24721 5.06896 4.24811 5.06776 4.249C5.05793 4.25645 5.04825 4.26405 5.03856 4.2718C5.03737 4.27269 5.03618 4.27373 5.03498 4.27463C5.02485 4.28282 5.01472 4.29117 5.00489 4.29966C5.00459 4.29981 5.00444 4.30011 5.00414 4.30026C4.97241 4.32737 4.94186 4.35598 4.91251 4.38563C4.91221 4.38593 4.91191 4.38623 4.91161 4.38653C4.90223 4.39606 4.89314 4.4056 4.88405 4.41543C4.88345 4.41603 4.88286 4.41662 4.88241 4.41722C4.84457 4.45804 4.8091 4.50081 4.77603 4.5458C4.76888 4.55564 4.76172 4.56547 4.75472 4.57545C4.75383 4.57679 4.75293 4.57814 4.75204 4.57948C4.58829 4.81564 4.49219 5.10231 4.49219 5.41148C4.49219 5.75059 4.60855 6.06364 4.80344 6.31217ZM5.83435 5.53142C5.83435 5.53142 5.90617 5.452 5.85551 5.39121C5.80485 5.33042 5.91973 5.24266 5.95772 5.24341C5.99572 5.2443 6.02611 5.21048 6.01434 5.11006C6.01434 5.11006 5.93746 5.04167 6.0574 5.02647L6.16289 4.96732C6.16289 4.96732 6.19746 4.95212 6.17392 4.87866L6.16468 4.7909C6.16468 4.7909 6.07856 4.769 6.09033 4.67945C6.1021 4.58991 6.09882 4.57977 6.09882 4.57977C6.09882 4.57977 6.10732 4.52241 6.18152 4.52748C6.25587 4.53254 6.2812 4.54938 6.34527 4.51228C6.40948 4.47518 6.4956 4.49872 6.4956 4.49872C6.4956 4.49872 6.60541 4.57814 6.61048 4.61181C6.61555 4.64563 6.67127 4.58812 6.67127 4.58812C6.67127 4.58812 6.72029 4.68273 6.82325 4.66753C6.82325 4.66753 6.88523 4.67513 6.9423 4.74218C6.9423 4.74218 6.95615 4.75142 6.96122 4.71343C6.96629 4.67543 6.98357 4.81847 6.98357 4.81847C6.98357 4.81847 7.01098 4.86823 7.08444 4.84797C7.1579 4.82771 7.02365 5.01425 7.02365 5.01425C7.02365 5.01425 7.01605 5.0299 7.046 5.02394C7.07595 5.01798 6.99877 5.07832 6.84426 5.06148C6.84426 5.06148 6.78436 5.06998 6.7556 5.12063C6.72685 5.17129 6.6078 5.1704 6.53524 5.31061C6.53524 5.31061 6.56474 5.37646 6.50231 5.45245C6.50231 5.45245 6.5412 5.52084 6.64579 5.52084C6.64579 5.52084 6.69481 5.55794 6.62046 5.5791C6.54611 5.60026 6.73608 5.62976 6.75307 5.56226C6.75307 5.56226 6.80969 5.57835 6.81297 5.65762C6.81297 5.65762 6.89566 5.62633 6.91518 5.67029L6.96748 5.63572L6.9937 5.67029C6.9937 5.67029 6.91429 5.84416 6.78093 5.83314C6.78093 5.83314 6.71418 5.84491 6.68632 5.88544C6.68632 5.88544 6.5774 5.90227 6.54105 5.9285C6.50469 5.95472 6.4001 6.07884 6.40337 6.21219C6.40337 6.21219 6.40501 6.284 6.34094 6.33794C6.27688 6.39188 6.36374 6.4561 6.39414 6.45029C6.42453 6.44433 6.4448 6.45073 6.4448 6.45073C6.4448 6.45073 6.49084 6.56904 6.52242 6.68585C6.34854 6.76199 6.15634 6.80445 5.95415 6.80445C5.7168 6.80445 5.4933 6.74619 5.29722 6.64339C5.32598 6.60837 5.36531 6.56784 5.41746 6.52985C5.41746 6.52985 5.3516 6.45222 5.48168 6.46995C5.61175 6.48768 5.58642 6.40752 5.58642 6.40752C5.58642 6.40752 5.63708 6.39903 5.64215 6.3746C5.64721 6.35016 5.58046 6.3299 5.58046 6.3299C5.58046 6.3299 5.68774 6.30963 5.70294 6.27328C5.71814 6.23692 5.71307 6.23871 5.75524 6.20831C5.75524 6.20831 5.62859 6.11713 5.78906 6.05887L5.72663 5.95502C5.72663 5.95502 5.79085 5.99048 5.77729 5.82673C5.77729 5.82673 5.81364 5.81317 5.81871 5.76758C5.82378 5.72199 5.83555 5.67729 5.88293 5.62156C5.92971 5.56599 5.83435 5.53142 5.83435 5.53142ZM4.83712 4.56219L4.84248 4.56562C4.84248 4.56562 4.86394 4.5756 4.85514 4.54089C4.855 4.54044 4.855 4.54014 4.85485 4.53969C4.8623 4.53046 4.8699 4.52137 4.87764 4.51228C4.88599 4.51481 4.89597 4.52077 4.907 4.53016C4.907 4.53016 4.95125 4.54536 4.97539 4.53135C4.97539 4.53135 4.99818 4.52763 4.97539 4.49723C4.95259 4.46683 5.0995 4.57322 5.0995 4.57322C5.0995 4.57322 5.1147 4.60734 5.14628 4.55683C5.17787 4.50632 5.27547 4.49231 5.3008 4.5087C5.3008 4.5087 5.41478 4.52643 5.41731 4.51004C5.41984 4.49365 5.4413 4.47592 5.48943 4.48099C5.53755 4.48606 5.60207 4.53791 5.60207 4.53791C5.60207 4.53791 5.61086 4.5543 5.61339 4.51645C5.61592 4.47846 5.70324 4.51898 5.70324 4.51898L5.77282 4.52658C5.77282 4.52658 5.82601 4.55698 5.77282 4.63163C5.77282 4.63163 5.75509 4.67841 5.80187 4.71894C5.80187 4.71894 5.82214 4.76319 5.78802 4.81892C5.78802 4.81892 5.78414 4.84037 5.81707 4.8429C5.85 4.84544 5.76894 4.90489 5.76894 4.90489C5.76894 4.90489 5.72588 4.92008 5.74868 4.95555C5.77148 4.99101 5.7676 4.99354 5.69042 5.03153L5.6563 5.06446L5.57525 4.93528C5.57525 4.93528 5.56258 4.92008 5.53859 4.93275C5.53859 4.93275 5.4778 4.77824 5.40435 4.88343C5.40435 4.88343 5.33477 4.90489 5.31957 4.83024C5.30437 4.75559 5.15239 5.04554 5.17519 5.09873C5.19799 5.15192 5.20559 5.18232 5.26131 5.20378C5.26131 5.20378 5.29543 5.23536 5.29424 5.2747C5.29424 5.2747 5.38036 5.29109 5.38796 5.32655C5.39556 5.36201 5.46007 5.31522 5.46007 5.31522C5.46007 5.31522 5.52086 5.31776 5.4714 5.37855C5.42208 5.43934 5.49166 5.438 5.49166 5.438C5.49166 5.438 5.52459 5.4456 5.45113 5.49238C5.45113 5.49238 5.43087 5.60383 5.36755 5.53291C5.36755 5.53291 5.35011 5.44053 5.26772 5.50639C5.26772 5.50639 5.23971 5.55705 5.19665 5.51518C5.19665 5.51518 5.16372 5.49879 5.14852 5.54811C5.14852 5.54811 5.0992 5.50758 5.05361 5.49998C5.00802 5.49238 5.03975 5.56703 5.03975 5.56703C5.03975 5.56703 4.97017 5.60368 5.01949 5.63542C5.06881 5.66701 5.1068 5.65941 5.07641 5.71141C5.04601 5.76326 5.1296 5.795 5.1296 5.795C5.1296 5.795 5.12826 5.87352 5.06002 5.95576C5.06002 5.95576 5.03975 5.96083 5.08147 5.99882C5.08147 5.99882 5.10799 6.08614 5.01561 6.08614C4.92324 6.08614 4.9283 6.14052 4.9283 6.14052C4.9283 6.14052 4.94857 6.19744 5.00548 6.19237C5.0624 6.18731 4.87884 6.29488 4.87884 6.29488C4.87884 6.29488 4.86751 6.30755 4.88643 6.31127C4.88763 6.31157 4.88554 6.31172 4.88077 6.31172C4.67247 6.06855 4.54672 5.75372 4.54672 5.40969C4.54702 5.09113 4.65519 4.79731 4.83712 4.56219Z" fill="#FFD983"/>
</svg>
