<svg width="20" height="20" viewBox="0 0 20 20" fill="none" xmlns="http://www.w3.org/2000/svg">
<path d="M2.82157 4.72239C2.19129 4.01796 1.87615 3.66574 1.86426 3.3664C1.85393 3.10636 1.96568 2.85643 2.16635 2.69074C2.39736 2.5 2.86998 2.5 3.81523 2.5H16.1843C17.1296 2.5 17.6022 2.5 17.8332 2.69074C18.0339 2.85643 18.1456 3.10636 18.1353 3.3664C18.1234 3.66574 17.8083 4.01796 17.178 4.72239L12.4228 10.037C12.2972 10.1774 12.2343 10.2477 12.1895 10.3276C12.1498 10.3984 12.1207 10.4747 12.103 10.554C12.0831 10.6435 12.0831 10.7377 12.0831 10.9261V15.382C12.0831 15.5449 12.0831 15.6264 12.0568 15.6969C12.0336 15.7591 11.9958 15.8149 11.9467 15.8596C11.891 15.9102 11.8154 15.9404 11.664 16.001L8.83071 17.1343C8.52442 17.2568 8.37128 17.3181 8.24834 17.2925C8.14084 17.2702 8.0465 17.2063 7.98583 17.1148C7.91645 17.0101 7.91645 16.8452 7.91645 16.5153V10.9261C7.91645 10.7377 7.91645 10.6435 7.89655 10.554C7.8789 10.4747 7.84975 10.3984 7.81002 10.3276C7.76523 10.2477 7.70241 10.1774 7.57677 10.037L2.82157 4.72239Z" stroke="#101828" stroke-width="1.5" stroke-linecap="round" stroke-linejoin="round"/>
</svg>
