<svg width="10" height="10" viewBox="0 0 10 10" fill="none" xmlns="http://www.w3.org/2000/svg">
<path d="M2.77812 3.18193C2.73359 3.65693 2.70234 4.49756 2.98281 4.85537C2.98281 4.85537 2.85078 3.93193 4.03437 2.77334C4.51094 2.30693 4.62109 1.67256 4.45469 1.19678C4.36015 0.927244 4.1875 0.704588 4.0375 0.549119C3.95 0.457713 4.01719 0.306932 4.14453 0.312401C4.91484 0.346776 6.16328 0.560838 6.69375 1.89209C6.92656 2.47646 6.94375 3.08037 6.83281 3.69443C6.7625 4.08662 6.5125 4.95849 7.08281 5.06553C7.48984 5.14209 7.68672 4.81865 7.775 4.58584C7.81172 4.48896 7.93906 4.46474 8.00781 4.54209C8.69531 5.32412 8.7539 6.24521 8.61172 7.03818C8.33672 8.57099 6.78437 9.68662 5.24219 9.68662C3.31562 9.68662 1.78203 8.58427 1.38437 6.58896C1.22422 5.78349 1.30547 4.18974 2.54765 3.06474C2.63984 2.98037 2.79062 3.05537 2.77812 3.18193Z" fill="#FF5054"/>
</svg>
