<svg width="24" height="24" viewBox="0 0 24 24" fill="none" xmlns="http://www.w3.org/2000/svg">
<path d="M7.37277 2.571C7.46519 2.26135 7.65514 1.98983 7.91433 1.79685C8.17353 1.60387 8.48812 1.49975 8.81127 1.5H15.4203C15.6626 1.50009 15.9013 1.55888 16.1159 1.67134C16.3305 1.7838 16.5147 1.94658 16.6527 2.14576C16.7907 2.34493 16.8784 2.57457 16.9083 2.81503C16.9381 3.05549 16.9093 3.29961 16.8243 3.5265L15.3348 7.5H18.3798C18.5913 7.50024 18.7985 7.56013 18.9776 7.6728C19.1566 7.78546 19.3003 7.94632 19.3921 8.13693C19.4839 8.32754 19.52 8.54017 19.4965 8.7504C19.4729 8.96064 19.3905 9.15996 19.2588 9.3255L9.34827 21.7755C8.06727 23.385 5.50527 22.0575 6.08127 20.0835L8.00127 13.5H5.62677C5.45144 13.5003 5.27847 13.4596 5.12167 13.3811C4.96487 13.3027 4.82857 13.1887 4.72366 13.0482C4.61874 12.9077 4.54811 12.7447 4.51739 12.5721C4.48668 12.3994 4.49674 12.222 4.54677 12.054L7.37277 2.571V2.571ZM15.4218 3H8.81127L6.12927 12H9.00177C9.1182 12 9.23304 12.0271 9.33718 12.0792C9.44132 12.1313 9.53191 12.2069 9.60177 12.3C9.67163 12.3931 9.71884 12.5013 9.73967 12.6158C9.7605 12.7304 9.75437 12.8482 9.72177 12.96L7.52127 20.5035C7.49074 20.5884 7.49396 20.6819 7.53027 20.7645C7.56897 20.8413 7.63162 20.9035 7.70877 20.9415C7.79427 20.9865 7.88277 20.997 7.95477 20.985C8.04388 20.9677 8.12286 20.9166 8.17527 20.8425L17.6013 9H14.2518C14.1305 9 14.0111 8.97061 13.9037 8.91434C13.7963 8.85806 13.7041 8.7766 13.6351 8.67691C13.5661 8.57722 13.5223 8.46229 13.5074 8.34196C13.4926 8.22163 13.5071 8.09949 13.5498 7.986L15.4203 3H15.4218Z" fill="black"/>
</svg>
