<svg width="32" height="32" viewBox="0 0 32 32" fill="none" xmlns="http://www.w3.org/2000/svg">
<path d="M0.754477 8.87169L0.75447 8.87164C0.712807 8.60094 1.02078 8.41645 1.23976 8.5807L1.23978 8.58072L7.30431 13.1291L7.75431 12.5291L7.30431 13.1291C8.31434 13.8866 9.75337 13.6401 10.4537 12.5896C10.4537 12.5896 10.4537 12.5896 10.4537 12.5895L15.5025 5.01626C15.7392 4.66125 16.2607 4.66125 16.4974 5.01626L21.5462 12.5895C21.5462 12.5896 21.5462 12.5896 21.5463 12.5896C22.2466 13.6402 23.6856 13.8864 24.6955 13.1291L24.6956 13.1291L30.7601 8.58072L30.7602 8.5807C30.9791 8.41649 31.2872 8.6009 31.2455 8.87172L29.3968 20.8884H2.6032L0.754477 8.87169Z" stroke="#FCD600" stroke-width="1.5"/>
<path d="M28.5761 27.5687H3.42372C3.0294 27.5687 2.70972 27.249 2.70972 26.8547V24.3887H29.2902V26.8546C29.2902 26.8546 29.2902 26.8546 29.2902 26.8547C29.2901 27.249 28.9704 27.5687 28.5761 27.5687Z" stroke="#FCD600" stroke-width="1.5"/>
</svg>
