<svg width="24" height="24" viewBox="0 0 24 24" fill="none" xmlns="http://www.w3.org/2000/svg">
<g clip-path="url(#clip0_3895_16445)">
<path d="M7 10.25C6.50754 10.25 6.01991 10.153 5.56494 9.96455C5.10997 9.77609 4.69657 9.49987 4.34835 9.15165C4.00013 8.80343 3.72391 8.39003 3.53545 7.93506C3.347 7.48009 3.25 6.99246 3.25 6.5C3.25 6.00754 3.347 5.51991 3.53545 5.06494C3.72391 4.60997 4.00013 4.19657 4.34835 3.84835C4.69657 3.50013 5.10997 3.22391 5.56494 3.03545C6.01991 2.847 6.50754 2.75 7 2.75C7.99456 2.75 8.94839 3.14509 9.65165 3.84835C10.3549 4.55161 10.75 5.50544 10.75 6.5C10.75 7.49456 10.3549 8.44839 9.65165 9.15165C8.94839 9.85491 7.99456 10.25 7 10.25ZM17.5 14.25C16.638 14.25 15.8114 13.9076 15.2019 13.2981C14.5924 12.6886 14.25 11.862 14.25 11C14.25 10.138 14.5924 9.3114 15.2019 8.7019C15.8114 8.09241 16.638 7.75 17.5 7.75C18.362 7.75 19.1886 8.09241 19.7981 8.7019C20.4076 9.3114 20.75 10.138 20.75 11C20.75 11.862 20.4076 12.6886 19.7981 13.2981C19.1886 13.9076 18.362 14.25 17.5 14.25ZM17.5 16.75C18.4946 16.75 19.4484 17.1451 20.1516 17.8483C20.7958 18.4925 21.1813 19.3467 21.2417 20.25H13.7583C13.8187 19.3467 14.2042 18.4925 14.8483 17.8483C15.5516 17.1451 16.5054 16.75 17.5 16.75ZM7 12.75C7.55812 12.75 8.11077 12.8599 8.6264 13.0735C9.14204 13.2871 9.61055 13.6001 10.0052 13.9948C10.3999 14.3894 10.7129 14.858 10.9265 15.3736C11.1401 15.8892 11.25 16.4419 11.25 17V20.25H2.75V17C2.75 15.8728 3.19777 14.7918 3.9948 13.9948C4.79183 13.1978 5.87283 12.75 7 12.75Z" stroke="#70777C" stroke-width="1.5"/>
</g>
<defs>
<clipPath id="clip0_3895_16445">
<rect width="24" height="24" fill="white"/>
</clipPath>
</defs>
</svg>
