<svg width="24" height="24" viewBox="0 0 24 24" fill="none" xmlns="http://www.w3.org/2000/svg">
<g clip-path="url(#clip0_3895_16464)">
<path d="M17.5 16.75C18.4946 16.75 19.4484 17.1451 20.1516 17.8484C20.7958 18.4925 21.1813 19.3467 21.2417 20.25H13.7583C13.8187 19.3467 14.2042 18.4925 14.8483 17.8484C15.5516 17.1451 16.5054 16.75 17.5 16.75ZM7 12.75C7.55812 12.75 8.11077 12.8599 8.6264 13.0735C9.14204 13.2871 9.61056 13.6001 10.0052 13.9948C10.3999 14.3894 10.7129 14.858 10.9265 15.3736C11.1401 15.8892 11.25 16.4419 11.25 17V20.25H2.75V17C2.75 15.8728 3.19777 14.7918 3.9948 13.9948C4.79183 13.1978 5.87283 12.75 7 12.75Z" fill="#0077DD" stroke="#0077DD" stroke-width="1.5"/>
<path d="M14.6716 13.8284C15.4217 14.5786 16.4391 15 17.5 15C18.5609 15 19.5783 14.5786 20.3284 13.8284C21.0786 13.0783 21.5 12.0609 21.5 11C21.5 9.93913 21.0786 8.92172 20.3284 8.17157C19.5783 7.42143 18.5609 7 17.5 7C16.4391 7 15.4217 7.42143 14.6716 8.17157C13.9214 8.92172 13.5 9.93913 13.5 11C13.5 12.0609 13.9214 13.0783 14.6716 13.8284Z" fill="#0077DD"/>
<path d="M5.27792 10.6575C5.82389 10.8836 6.40905 11 7 11C8.19347 11 9.33807 10.5259 10.182 9.68198C11.0259 8.83807 11.5 7.69347 11.5 6.5C11.5 5.30653 11.0259 4.16193 10.182 3.31802C9.33807 2.47411 8.19347 2 7 2C6.40905 2 5.82389 2.1164 5.27792 2.34254C4.73196 2.56869 4.23588 2.90016 3.81802 3.31802C3.40016 3.73588 3.06869 4.23196 2.84254 4.77792C2.6164 5.32389 2.5 5.90905 2.5 6.5C2.5 7.09095 2.6164 7.67611 2.84254 8.22208C3.06869 8.76804 3.40016 9.26412 3.81802 9.68198C4.23588 10.0998 4.73196 10.4313 5.27792 10.6575Z" fill="#0077DD"/>
</g>
<defs>
<clipPath id="clip0_3895_16464">
<rect width="24" height="24" fill="white"/>
</clipPath>
</defs>
</svg>
