<svg width="13" height="18" viewBox="0 0 13 18" fill="none" xmlns="http://www.w3.org/2000/svg">
<path d="M8.74998 0.362305V1.6123H10.3687L7.61248 4.3623C7.0791 3.95957 6.46054 3.68439 5.80427 3.55789C5.148 3.43139 4.47147 3.45693 3.8266 3.63255C3.18174 3.80817 2.58568 4.1292 2.08418 4.571C1.58267 5.0128 1.18906 5.56363 0.933545 6.18121C0.678029 6.79879 0.567403 7.4667 0.610158 8.13369C0.652913 8.80067 0.847913 9.44899 1.18019 10.0289C1.51247 10.6088 1.97319 11.1049 2.527 11.479C3.08081 11.8532 3.71297 12.0955 4.37498 12.1873V14.1123H2.49998V15.3623H4.37498V17.2373H5.62498V15.3623H7.49998V14.1123H5.62498V12.1873C6.37351 12.0772 7.08067 11.7748 7.67743 11.3097C8.2742 10.8447 8.74015 10.2328 9.0298 9.53384C9.31945 8.8349 9.4229 8.07279 9.33004 7.32193C9.23718 6.57107 8.95118 5.85712 8.49998 5.2498L11.25 2.49355V4.1123H12.5V0.362305H8.74998ZM4.99998 10.9873C4.38192 10.9873 3.77773 10.804 3.26383 10.4606C2.74992 10.1173 2.34938 9.62921 2.11286 9.05819C1.87634 8.48717 1.81445 7.85884 1.93503 7.25265C2.05561 6.64646 2.35324 6.08963 2.79028 5.6526C3.22731 5.21556 3.78414 4.91793 4.39033 4.79735C4.99652 4.67677 5.62485 4.73866 6.19587 4.97518C6.76689 5.2117 7.25495 5.61224 7.59833 6.12615C7.94171 6.64005 8.12498 7.24424 8.12498 7.8623C8.12498 8.69111 7.79574 9.48596 7.20969 10.072C6.62364 10.6581 5.82879 10.9873 4.99998 10.9873Z" fill="#252525"/>
</svg>
