<svg width="24" height="24" viewBox="0 0 24 24" fill="none" xmlns="http://www.w3.org/2000/svg">
<circle cx="12" cy="12" r="12" fill="#252525" fill-opacity="0.5"/>
<path d="M18.1875 9.48764H5.8125C5.50184 9.48764 5.25 9.73948 5.25 10.0501V12.3001C5.25 12.6108 5.50184 12.8626 5.8125 12.8626H18.1875C18.4982 12.8626 18.75 12.6108 18.75 12.3001V10.0501C18.75 9.73948 18.4982 9.48764 18.1875 9.48764Z" stroke="white" stroke-linecap="round" stroke-linejoin="round"/>
<path d="M17.625 12.8626V17.9251C17.625 18.0743 17.5657 18.2174 17.4602 18.3229C17.3548 18.4284 17.2117 18.4876 17.0625 18.4876H6.9375C6.78832 18.4876 6.64524 18.4284 6.53975 18.3229C6.43426 18.2174 6.375 18.0743 6.375 17.9251V12.8626" stroke="white" stroke-linecap="round" stroke-linejoin="round"/>
<path d="M12 9.48764V18.4876" stroke="white" stroke-linecap="round" stroke-linejoin="round"/>
<path d="M15.182 8.69256C14.3865 9.48806 12 9.48806 12 9.48806C12 9.48806 12 7.10157 12.7955 6.30608C13.112 5.98991 13.5412 5.81237 13.9885 5.8125C14.4359 5.81263 14.865 5.99041 15.1813 6.30676C15.4977 6.62311 15.6754 7.05213 15.6756 7.49952C15.6757 7.94691 15.4982 8.37603 15.182 8.69256V8.69256Z" stroke="white" stroke-linecap="round" stroke-linejoin="round"/>
<path d="M8.81798 8.69256C9.61347 9.48806 12 9.48806 12 9.48806C12 9.48806 12 7.10157 11.2045 6.30608C10.8879 5.98991 10.4588 5.81237 10.0114 5.8125C9.56404 5.81263 9.13501 5.99041 8.81866 6.30676C8.50231 6.62311 8.32453 7.05213 8.3244 7.49952C8.32427 7.94691 8.50181 8.37603 8.81798 8.69256V8.69256Z" stroke="white" stroke-linecap="round" stroke-linejoin="round"/>
</svg>
