<svg width="40" height="40" viewBox="0 0 40 40" fill="none" xmlns="http://www.w3.org/2000/svg">
<path d="M20 8.33333C20 6.49479 21.4923 5 23.3333 5C25.1742 5 26.6666 6.49238 26.6666 8.33333C26.6666 10.1743 25.1742 11.6667 23.3333 11.6667H20M20 8.33333C20 9.63508 20 11.6667 20 11.6667M20 8.33333C20 6.49479 18.5076 5 16.6666 5C14.8257 5 13.3333 6.49238 13.3333 8.33333C13.3333 10.1743 14.9137 11.6667 16.6666 11.6667C18.3333 11.6667 20 11.6667 20 11.6667" stroke="#EBEBEB" stroke-width="1.5" stroke-linecap="round" stroke-linejoin="round"/>
<path fill-rule="evenodd" clip-rule="evenodd" d="M11.6692 10.418C7.64509 10.418 4.84178 14.3297 5.51943 18.3134L7.63629 30.7579C8.16452 33.8632 10.6916 36.2513 13.7861 36.2513H19.25V11.668H20.75V36.2513H26.4258C29.5642 36.2513 32.1112 33.7978 32.5944 30.6411L34.4996 18.1966C35.1045 14.2455 32.3077 10.418 28.331 10.418H11.6692Z" fill="#EBEBEB"/>
</svg>
