<svg width="24" height="24" viewBox="0 0 24 24" fill="none" xmlns="http://www.w3.org/2000/svg">
<path d="M22 7H2V10H22V7Z" stroke="black" stroke-width="1.7" stroke-linecap="round" stroke-linejoin="round"/>
<path d="M12 7H7.5C6.83696 7 6.20107 6.73661 5.73223 6.26777C5.26339 5.79893 5 5.16304 5 4.5C5 3.83696 5.26339 3.20107 5.73223 2.73223C6.20107 2.26339 6.83696 2 7.5 2C11 2 12 7 12 7Z" stroke="black" stroke-width="1.7" stroke-linecap="round" stroke-linejoin="round"/>
<path d="M12 7H16.5C17.163 7 17.7989 6.73661 18.2678 6.26777C18.7366 5.79893 19 5.16304 19 4.5C19 3.83696 18.7366 3.20107 18.2678 2.73223C17.7989 2.26339 17.163 2 16.5 2C13 2 12 7 12 7Z" stroke="black" stroke-width="1.7" stroke-linecap="round" stroke-linejoin="round"/>
<path d="M19.7969 9.86719V21.8672H3.79688V9.86719" stroke="black" stroke-width="1.7" stroke-linecap="round" stroke-linejoin="round"/>
<path d="M10.1289 18.7005V13.645L14.7956 12.8672V17.9227" stroke="black" stroke-width="1.5" stroke-linecap="round" stroke-linejoin="round"/>
<path d="M8.96354 19.8646C9.60787 19.8646 10.1302 19.3422 10.1302 18.6979C10.1302 18.0536 9.60787 17.5312 8.96354 17.5312C8.31921 17.5312 7.79688 18.0536 7.79688 18.6979C7.79688 19.3422 8.31921 19.8646 8.96354 19.8646Z" stroke="black" stroke-width="1.5" stroke-linecap="round" stroke-linejoin="round"/>
<path d="M13.6276 19.0911C14.2719 19.0911 14.7943 18.5688 14.7943 17.9245C14.7943 17.2801 14.2719 16.7578 13.6276 16.7578C12.9833 16.7578 12.4609 17.2801 12.4609 17.9245C12.4609 18.5688 12.9833 19.0911 13.6276 19.0911Z" stroke="black" stroke-width="1.5" stroke-linecap="round" stroke-linejoin="round"/>
<circle cx="19.5" cy="19.5" r="3.5" fill="white"/>
<path d="M19.5 16C20.4283 16 21.3185 16.3687 21.9749 17.0251C22.6313 17.6815 23 18.5717 23 19.5C23 20.4283 22.6313 21.3185 21.9749 21.9749C21.3185 22.6313 20.4283 23 19.5 23C18.5717 23 17.6815 22.6313 17.0251 21.9749C16.3687 21.3185 16 20.4283 16 19.5C16 18.5717 16.3687 17.6815 17.0251 17.0251C17.6815 16.3687 18.5717 16 19.5 16ZM19.064 20.1905L18.2865 19.4125C18.2586 19.3846 18.2255 19.3625 18.1891 19.3474C18.1527 19.3323 18.1137 19.3246 18.0742 19.3246C18.0348 19.3246 17.9958 19.3323 17.9594 19.3474C17.923 19.3625 17.8899 19.3846 17.862 19.4125C17.8057 19.4688 17.7741 19.5451 17.7741 19.6248C17.7741 19.7044 17.8057 19.7807 17.862 19.837L18.852 20.827C18.8798 20.855 18.9129 20.8772 18.9493 20.8924C18.9857 20.9076 19.0248 20.9154 19.0642 20.9154C19.1037 20.9154 19.1428 20.9076 19.1792 20.8924C19.2156 20.8772 19.2487 20.855 19.2765 20.827L21.3265 18.7765C21.3547 18.7487 21.3772 18.7157 21.3926 18.6792C21.408 18.6427 21.416 18.6035 21.4162 18.5639C21.4164 18.5243 21.4087 18.4851 21.3937 18.4484C21.3786 18.4118 21.3565 18.3785 21.3285 18.3505C21.3005 18.3225 21.2672 18.3003 21.2306 18.2852C21.194 18.2701 21.1548 18.2624 21.1152 18.2625C21.0756 18.2627 21.0364 18.2706 20.9999 18.286C20.9634 18.3014 20.9303 18.3238 20.9025 18.352L19.064 20.1905Z" fill="#44DAD9"/>
</svg>
