<svg width="18" height="19" viewBox="0 0 18 19" fill="none" xmlns="http://www.w3.org/2000/svg">
<path d="M15 9.4873V16.9873H3V9.4873" stroke="#252525" stroke-linecap="round" stroke-linejoin="round"/>
<path d="M16.5 5.7373H1.5V9.4873H16.5V5.7373Z" stroke="#252525" stroke-linecap="round" stroke-linejoin="round"/>
<path d="M9 16.9873V5.7373" stroke="#252525" stroke-linecap="round" stroke-linejoin="round"/>
<path d="M9 5.7373H5.625C5.12772 5.7373 4.65081 5.53976 4.29917 5.18813C3.94754 4.8365 3.75 4.35959 3.75 3.8623C3.75 3.36502 3.94754 2.88811 4.29917 2.53648C4.65081 2.18485 5.12772 1.9873 5.625 1.9873C8.25 1.9873 9 5.7373 9 5.7373Z" stroke="#252525" stroke-linecap="round" stroke-linejoin="round"/>
<path d="M9 5.7373H12.375C12.8723 5.7373 13.3492 5.53976 13.7008 5.18813C14.0525 4.8365 14.25 4.35959 14.25 3.8623C14.25 3.36502 14.0525 2.88811 13.7008 2.53648C13.3492 2.18485 12.8723 1.9873 12.375 1.9873C9.75 1.9873 9 5.7373 9 5.7373Z" stroke="#252525" stroke-linecap="round" stroke-linejoin="round"/>
</svg>
