<svg width="25" height="24" viewBox="0 0 25 24" fill="none" xmlns="http://www.w3.org/2000/svg">
<path d="M5.70374 16.9342C5.74534 16.9873 5.78775 17.0403 5.83097 17.0925C5.83668 17.0998 5.84321 17.1071 5.84892 17.1137C5.88562 17.1577 5.92232 17.2009 5.95983 17.2442C5.97288 17.2588 5.98593 17.2735 5.99898 17.2882C6.02997 17.3233 6.06096 17.3583 6.09277 17.3926C6.10827 17.4097 6.12458 17.4269 6.14008 17.444C6.16944 17.4758 6.1988 17.5068 6.22897 17.5378C6.2461 17.5557 6.26404 17.5737 6.28117 17.5916C6.31053 17.621 6.33908 17.6511 6.36844 17.6797C6.38638 17.6976 6.40514 17.7156 6.4239 17.7335C6.45326 17.7621 6.48262 17.7898 6.51198 17.8183C6.53074 17.8363 6.55031 17.8542 6.56989 17.8722C6.59925 17.8999 6.62942 17.9268 6.6596 17.9537C6.67917 17.9717 6.69875 17.9888 6.71832 18.0059C6.7485 18.0328 6.77867 18.0589 6.80967 18.085C6.83006 18.1022 6.84963 18.1193 6.87002 18.1364C6.90101 18.1625 6.932 18.1878 6.96381 18.2131C6.9842 18.2294 7.00459 18.2457 7.02498 18.262C7.05678 18.2873 7.08941 18.3126 7.12203 18.3379C7.14242 18.3533 7.162 18.3688 7.18239 18.3843C7.21582 18.4096 7.25008 18.4349 7.28352 18.4594C7.30309 18.4741 7.32266 18.4879 7.34224 18.5026C7.37812 18.5279 7.41401 18.5532 7.44989 18.5784C7.46865 18.5915 7.4866 18.6045 7.50535 18.6168C7.5445 18.6429 7.58365 18.669 7.6228 18.6951C7.63911 18.7057 7.65542 18.7171 7.67173 18.7277C7.71659 18.7562 7.76226 18.7848 7.80712 18.8133C7.81853 18.8199 7.82914 18.8272 7.84055 18.8345C9.0525 19.5743 10.4773 20 12.0008 20C13.1377 20 14.2184 19.7627 15.1979 19.3353C15.728 19.1037 16.228 18.8166 16.6912 18.4814C16.6912 18.4814 16.692 18.4814 16.692 18.4806C16.8462 18.3688 16.9954 18.2522 17.1406 18.1307C17.1414 18.1299 17.1422 18.1291 17.1439 18.1282C17.2882 18.0067 17.4285 17.8811 17.5639 17.7498C17.5655 17.7482 17.5671 17.7466 17.5696 17.7449C17.7042 17.6144 17.8338 17.4799 17.9586 17.3404C17.9611 17.338 17.9635 17.3347 17.966 17.3322C18.0271 17.2646 18.0867 17.1952 18.1454 17.1251C18.147 17.1235 18.1478 17.1218 18.1495 17.1202C18.209 17.0492 18.2669 16.9767 18.324 16.9033C18.3273 16.8992 18.3305 16.8951 18.3338 16.891C18.3876 16.8217 18.4398 16.7516 18.4912 16.6798C18.4944 16.6749 18.4985 16.67 18.5018 16.6651C18.5548 16.5909 18.607 16.5159 18.6576 16.44C18.6616 16.4343 18.6649 16.4286 18.6682 16.4237C18.7147 16.3536 18.7611 16.2818 18.8052 16.21C18.8101 16.2019 18.8158 16.1937 18.8207 16.1855C18.868 16.1089 18.9137 16.0322 18.9577 15.9539C18.9618 15.9474 18.965 15.9401 18.9691 15.9335C19.0099 15.8618 19.049 15.79 19.0874 15.7174C19.0931 15.706 19.0996 15.6946 19.1053 15.6831C19.1461 15.6049 19.1861 15.5249 19.2244 15.445C19.2285 15.4368 19.2317 15.4295 19.2358 15.4213C19.2701 15.3488 19.3035 15.2754 19.3361 15.2011C19.3426 15.1873 19.3484 15.1726 19.3549 15.1587C19.39 15.078 19.4234 14.9964 19.4552 14.9141C19.4585 14.9059 19.4617 14.8969 19.465 14.8888C19.4935 14.8146 19.5213 14.7403 19.5474 14.6653C19.5531 14.6482 19.5596 14.6311 19.5653 14.6139C19.5938 14.5316 19.6216 14.4484 19.6469 14.3644C19.6493 14.3554 19.6518 14.3464 19.655 14.3374C19.6778 14.2616 19.6999 14.1857 19.7211 14.1091C19.726 14.0895 19.7317 14.0708 19.7366 14.0512C19.7586 13.9664 19.7806 13.8815 19.8002 13.7959C19.8018 13.7877 19.8034 13.7796 19.8059 13.7706C19.8238 13.6923 19.8401 13.614 19.8548 13.5349C19.8589 13.5137 19.863 13.4933 19.8671 13.4721C19.8834 13.3857 19.8981 13.2984 19.9119 13.2111C19.9127 13.2046 19.9136 13.1981 19.9144 13.1907C19.9266 13.1092 19.9372 13.0268 19.947 12.9444C19.9494 12.9224 19.9519 12.9004 19.9543 12.8784C19.9641 12.7895 19.9731 12.7006 19.9796 12.6117C19.9796 12.6076 19.9804 12.6035 19.9804 12.5995C19.987 12.5138 19.991 12.4274 19.9951 12.3409C19.9959 12.3181 19.9967 12.2952 19.9976 12.2724C20.0008 12.1819 20.0024 12.0913 20.0024 12C20.0024 10.2049 19.4112 8.54766 18.4129 7.21256C18.3746 7.16118 18.3354 7.11061 18.2963 7.06005C17.9007 6.55602 17.4456 6.10093 16.9416 5.70537C16.8405 5.62626 16.7385 5.5496 16.6333 5.47538C16.5289 5.40116 16.4221 5.32939 16.3144 5.26007C16.2606 5.225 16.2059 5.19156 16.1505 5.15812C15.9303 5.02437 15.7035 4.90121 15.4703 4.78866C14.4206 4.28301 13.2446 4 12.0016 4C11.925 4 11.8483 4.00163 11.7725 4.00326C11.748 4.00408 11.7243 4.00489 11.6999 4.00571C11.6477 4.00734 11.5955 4.00979 11.5441 4.01305C11.5164 4.01468 11.4886 4.01631 11.4601 4.01876C11.4112 4.02202 11.3622 4.0261 11.3141 4.03018C11.2864 4.03262 11.2586 4.03507 11.2317 4.03752C11.1803 4.04241 11.129 4.04812 11.0776 4.05383C11.0539 4.05628 11.0311 4.05872 11.0074 4.06198C10.9349 4.07096 10.8615 4.08074 10.7897 4.09216C10.7889 4.09216 10.7872 4.09216 10.7864 4.09298C10.7122 4.1044 10.638 4.11663 10.5646 4.13049C10.5442 4.13457 10.523 4.13865 10.5026 4.14273C10.4504 4.15251 10.3974 4.16312 10.3452 4.17372C10.3207 4.17861 10.2963 4.18432 10.2718 4.19003C10.2229 4.20063 10.1739 4.21205 10.125 4.22428C10.1013 4.22999 10.0769 4.2357 10.0532 4.24223C10.001 4.25528 9.94964 4.26914 9.89744 4.28301C9.87787 4.2879 9.85829 4.29361 9.83954 4.2985C9.69599 4.33847 9.55408 4.38251 9.41462 4.43062C9.40076 4.43552 9.38689 4.44041 9.37303 4.4453C9.31757 4.46488 9.26211 4.48445 9.20665 4.50484C9.18789 4.51218 9.16913 4.51952 9.14956 4.52605C9.09818 4.54562 9.04761 4.5652 8.99705 4.5864C8.97829 4.59374 8.96034 4.60108 8.94158 4.60924C8.88776 4.63207 8.83393 4.65491 8.7801 4.67856C8.76705 4.68427 8.754 4.68998 8.74095 4.69569C8.60394 4.75686 8.46855 4.8221 8.33643 4.89061C8.33153 4.89306 8.32664 4.89632 8.32093 4.89877C8.26058 4.92976 8.20186 4.96157 8.14232 4.99419C8.13009 5.00071 8.11785 5.00805 8.10562 5.01458C8.0526 5.04394 7.99959 5.07411 7.9474 5.10511C7.93516 5.11245 7.92293 5.11979 7.9107 5.12713C7.85524 5.16057 7.79978 5.19401 7.74432 5.22908C7.73779 5.23315 7.73127 5.23723 7.72393 5.24131C7.53308 5.36201 7.34795 5.49088 7.16852 5.62708C7.16281 5.63116 7.1571 5.63605 7.15058 5.64094C7.09675 5.68172 7.04374 5.72331 6.99072 5.76573C6.9842 5.77062 6.97767 5.77633 6.97115 5.78122C6.91569 5.82608 6.86023 5.87175 6.8064 5.91824C6.80477 5.91905 6.80396 5.92069 6.80233 5.9215C6.62861 6.06994 6.46142 6.22653 6.30075 6.38883C6.29911 6.39046 6.29748 6.39209 6.29585 6.39372C6.24447 6.44592 6.19472 6.49811 6.14497 6.55194C6.14171 6.55521 6.13844 6.55847 6.136 6.56173C5.92884 6.7852 5.73474 7.01927 5.55368 7.26557C5.51453 7.3194 5.47538 7.37323 5.43705 7.42787C5.43215 7.43521 5.42726 7.44255 5.42237 7.44989C4.52605 8.74258 4 10.3118 4 12.0041C4 13.8603 4.63697 15.5739 5.70374 16.9342ZM11.3467 12.6606C11.3467 12.6606 11.7398 12.2259 11.4625 11.8932C11.1852 11.5604 11.8141 11.08 12.022 11.0841C12.23 11.089 12.3964 10.9039 12.3319 10.3542C12.3319 10.3542 11.9111 9.97981 12.5676 9.89663L13.1451 9.57284C13.1451 9.57284 13.3343 9.48965 13.2054 9.08757L13.1549 8.6072C13.1549 8.6072 12.6835 8.48731 12.7479 7.99715C12.8123 7.50698 12.7944 7.45152 12.7944 7.45152C12.7944 7.45152 12.8409 7.13753 13.247 7.16526C13.654 7.19299 13.7926 7.28515 14.1433 7.08207C14.4949 6.87899 14.9663 7.00785 14.9663 7.00785C14.9663 7.00785 15.5673 7.44255 15.5951 7.62687C15.6228 7.81201 15.9278 7.4972 15.9278 7.4972C15.9278 7.4972 16.1961 8.01509 16.7597 7.9319C16.7597 7.9319 17.099 7.97349 17.4114 8.3405C17.4114 8.3405 17.4872 8.39107 17.5149 8.1831C17.5427 7.97513 17.6373 8.75808 17.6373 8.75808C17.6373 8.75808 17.7873 9.03048 18.1894 8.91956C18.5915 8.80865 17.8567 9.82975 17.8567 9.82975C17.8567 9.82975 17.8151 9.91538 17.979 9.88276C18.1429 9.85014 17.7205 10.1804 16.8747 10.0883C16.8747 10.0883 16.5468 10.1348 16.3894 10.4121C16.232 10.6894 15.5804 10.6845 15.1832 11.4519C15.1832 11.4519 15.3447 11.8124 15.003 12.2284C15.003 12.2284 15.2158 12.6027 15.7884 12.6027C15.7884 12.6027 16.0567 12.8058 15.6497 12.9216C15.2427 13.0374 16.2826 13.1989 16.3756 12.8294C16.3756 12.8294 16.6855 12.9175 16.7034 13.3514C16.7034 13.3514 17.1561 13.1801 17.2629 13.4207L17.5492 13.2315L17.6927 13.4207C17.6927 13.4207 17.258 14.3725 16.5281 14.3122C16.5281 14.3122 16.1627 14.3766 16.0102 14.5984C16.0102 14.5984 15.414 14.6906 15.215 14.8341C15.016 14.9777 14.4435 15.6571 14.4614 16.387C14.4614 16.387 14.4704 16.7801 14.1197 17.0753C13.769 17.3706 14.2445 17.7221 14.4108 17.6903C14.5772 17.6577 14.6881 17.6927 14.6881 17.6927C14.6881 17.6927 14.9402 18.3403 15.1131 18.9797C14.1613 19.3965 13.1092 19.6289 12.0024 19.6289C10.7032 19.6289 9.47987 19.31 8.40657 18.7473C8.56397 18.5556 8.77928 18.3338 9.06474 18.1258C9.06474 18.1258 8.70425 17.7009 9.41625 17.7979C10.1283 17.895 9.9896 17.4562 9.9896 17.4562C9.9896 17.4562 10.2669 17.4097 10.2946 17.276C10.3224 17.1422 9.95698 17.0313 9.95698 17.0313C9.95698 17.0313 10.5442 16.9204 10.6274 16.7214C10.7106 16.5224 10.6828 16.5322 10.9137 16.3658C10.9137 16.3658 10.2204 15.8667 11.0988 15.5478L10.7571 14.9793C10.7571 14.9793 11.1086 15.1734 11.0344 14.2771C11.0344 14.2771 11.2334 14.2029 11.2611 13.9533C11.2888 13.7037 11.3532 13.4591 11.6126 13.154C11.8687 12.8498 11.3467 12.6606 11.3467 12.6606ZM5.88806 7.35529L5.91742 7.37404C5.91742 7.37404 6.03487 7.42869 5.98675 7.23866C5.98593 7.23621 5.98593 7.23458 5.98512 7.23213C6.02589 7.18157 6.06749 7.13182 6.1099 7.08207C6.15557 7.09593 6.21021 7.12855 6.27057 7.17994C6.27057 7.17994 6.51279 7.26313 6.64492 7.18646C6.64492 7.18646 6.7697 7.16607 6.64492 6.99969C6.52013 6.83332 7.3243 7.41564 7.3243 7.41564C7.3243 7.41564 7.40748 7.60241 7.58038 7.32593C7.75329 7.04944 8.28749 6.97278 8.42614 7.06249C8.42614 7.06249 9.05006 7.15955 9.06392 7.06984C9.07779 6.98012 9.19523 6.88307 9.45866 6.9108C9.72209 6.93853 10.0752 7.22235 10.0752 7.22235C10.0752 7.22235 10.1234 7.31206 10.1372 7.1049C10.1511 6.89693 10.629 7.11877 10.629 7.11877L11.0099 7.16036C11.0099 7.16036 11.3011 7.32674 11.0099 7.73534C11.0099 7.73534 10.9128 7.99144 11.1689 8.21327C11.1689 8.21327 11.2798 8.4555 11.0931 8.76053C11.0931 8.76053 11.0719 8.87797 11.2521 8.89184C11.4324 8.9057 10.9887 9.23112 10.9887 9.23112C10.9887 9.23112 10.753 9.3143 10.8778 9.50841C11.0026 9.70252 10.9813 9.71638 10.5589 9.92436L10.3721 10.1046L9.92843 9.39749C9.92843 9.39749 9.85911 9.3143 9.7278 9.38363C9.7278 9.38363 9.39505 8.53787 8.99297 9.11367C8.99297 9.11367 8.61209 9.23111 8.5289 8.82251C8.44571 8.41391 7.61382 10.001 7.73861 10.2922C7.86339 10.5833 7.90498 10.7497 8.21001 10.8672C8.21001 10.8672 8.39678 11.0401 8.39026 11.2554C8.39026 11.2554 8.86166 11.3451 8.90325 11.5392C8.94485 11.7333 9.29799 11.4772 9.29799 11.4772C9.29799 11.4772 9.63075 11.4911 9.35998 11.8238C9.09002 12.1566 9.4709 12.1493 9.4709 12.1493C9.4709 12.1493 9.65114 12.1908 9.24906 12.4469C9.24906 12.4469 9.13814 13.057 8.79152 12.6688C8.79152 12.6688 8.6961 12.1631 8.24508 12.5236C8.24508 12.5236 8.09175 12.8009 7.85605 12.5717C7.85605 12.5717 7.67581 12.482 7.59262 12.752C7.59262 12.752 7.32266 12.5301 7.0731 12.4885C6.82353 12.4469 6.99725 12.8555 6.99725 12.8555C6.99725 12.8555 6.61637 13.0562 6.88633 13.2299C7.15629 13.4028 7.36426 13.3612 7.19788 13.6458C7.0315 13.9297 7.48904 14.1034 7.48904 14.1034C7.48904 14.1034 7.4817 14.5332 7.10817 14.9834C7.10817 14.9834 6.99725 15.0111 7.22561 15.2191C7.22561 15.2191 7.37078 15.697 6.86512 15.697C6.35947 15.697 6.3872 15.9947 6.3872 15.9947C6.3872 15.9947 6.49812 16.3062 6.80967 16.2785C7.12122 16.2508 6.11642 16.8396 6.11642 16.8396C6.11642 16.8396 6.05444 16.909 6.15802 16.9294C6.16454 16.931 6.15313 16.9318 6.12703 16.9318C4.98685 15.6008 4.2985 13.8775 4.2985 11.9943C4.30013 10.2506 4.89224 8.64227 5.88806 7.35529Z" fill="#A9ADB1"/>
</svg>
