<svg width="32" height="58" viewBox="0 0 32 58" fill="none" xmlns="http://www.w3.org/2000/svg">
<g clip-path="url(#clip0_10_4162)">
<path d="M17.0655 39.8126C16.3635 39.9252 15.648 39.9252 14.946 39.8126L15.004 39.7502C15.4191 39.6704 15.5223 39.4151 15.5211 39.0084C15.5103 30.8205 15.5084 22.6326 15.5153 14.4447C15.5153 14.1155 15.5211 13.7977 15.1037 13.7064C15.0029 13.6371 15.0191 13.5297 15.1118 13.5135C15.6324 13.4268 16.1553 13.3517 16.6747 13.2512C16.8823 13.5632 16.8359 13.9167 16.8359 14.2599C16.8359 21.9155 16.8359 29.5719 16.8359 37.2291C16.8359 37.8484 16.8359 38.4688 16.8359 39.0893C16.819 39.3505 16.9009 39.6085 17.0655 39.8126Z" fill="#FEEC57"/>
<path d="M17.3055 8.09941C17.571 8.10518 17.8434 8.05666 18.0973 8.18028C18.1374 8.33365 18.1535 8.49228 18.1449 8.65053C18.1449 18.7309 18.1449 28.811 18.1449 38.8906C18.1449 39.1737 18.2028 39.4683 18.0092 39.7271C17.7855 39.8427 17.5455 39.7965 17.3136 39.7999C17.1246 39.5781 17.1733 39.3077 17.1721 39.0535C17.1721 36.2536 17.1721 33.4549 17.1721 30.6573C17.1721 23.4168 17.1721 16.1764 17.1721 8.93591C17.1605 8.65053 17.1014 8.35128 17.3055 8.09941Z" fill="#FEE753"/>
<path d="M18.0046 39.7272C18.0046 29.3448 18.0046 18.9628 18.0046 8.58122C18.0046 8.44257 17.9594 8.28775 18.0997 8.1803C18.3038 8.1803 18.5101 8.16759 18.698 8.27158C18.8846 8.49457 18.8382 8.76493 18.8382 9.02027C18.8382 11.9935 18.8382 14.9667 18.8382 17.9399C18.8382 24.8538 18.8382 31.7677 18.8382 38.6815C18.8382 38.9923 18.9333 39.3135 18.7872 39.6185C18.5357 39.7041 18.2701 39.7409 18.0046 39.7272Z" fill="#FEE451"/>
<path d="M18.7838 39.6185C18.7129 39.3846 18.683 39.1403 18.6957 38.8964C18.6957 28.6881 18.6957 18.4798 18.6957 8.2715C18.9962 8.27036 19.2938 8.32929 19.5711 8.44481C19.5305 8.90697 19.5328 9.36912 19.5328 9.83128C19.5328 19.5689 19.5328 29.3062 19.5328 39.0431C19.5366 39.187 19.5233 39.3309 19.4934 39.4717C19.268 39.5639 19.0274 39.6137 18.7838 39.6185Z" fill="#FEE14F"/>
<path d="M19.4969 39.4683C19.338 39.3528 19.3937 39.1783 19.3937 39.0269C19.3937 28.9727 19.3937 18.9181 19.3937 8.86308C19.3937 8.70941 19.3032 8.49566 19.5699 8.44482C19.8123 8.44723 20.0506 8.50661 20.2656 8.61813C20.2261 9.08029 20.2273 9.54245 20.2285 10.0046C20.2285 19.6267 20.2285 29.2485 20.2285 38.8698C20.2322 39.0137 20.219 39.1576 20.189 39.2984C19.9721 39.4007 19.7367 39.4585 19.4969 39.4683Z" fill="#FEDE4E"/>
<path d="M20.1925 39.295C20.0337 39.1795 20.0893 39.0062 20.0893 38.8548C20.0893 28.9184 20.0893 18.979 20.0893 9.03642C20.0893 8.8839 19.9989 8.67016 20.2644 8.61816C20.4493 8.6246 20.6298 8.67661 20.7896 8.76952C20.9264 8.95669 20.9229 9.17506 20.9229 9.39228C20.9229 19.0976 20.9229 28.8029 20.9229 38.5082C20.9229 38.7242 20.9299 38.9426 20.7873 39.1286C20.606 39.2326 20.4016 39.2898 20.1925 39.295Z" fill="#FEDB4C"/>
<path d="M20.7885 39.1263C20.7885 32.0815 20.7885 25.0371 20.7885 17.993C20.7885 14.9182 20.7912 11.8436 20.7966 8.76953C21.0435 8.89662 21.3438 8.86658 21.5757 9.03874C21.6319 9.14014 21.6554 9.25632 21.6429 9.37149C21.6035 18.8596 21.6372 28.3465 21.6198 37.8346C21.6198 38.1743 21.7241 38.5278 21.5734 38.8583C21.3345 39.02 21.0482 39.0374 20.7885 39.1263Z" fill="#FED84A"/>
<path d="M21.5664 38.8582C21.4983 38.6237 21.4671 38.3802 21.4736 38.1361C21.4736 28.6781 21.4736 19.2196 21.4736 9.76082C21.4679 9.51667 21.5 9.27311 21.5687 9.0387C21.8165 9.08332 22.0529 9.17639 22.2644 9.31253C22.3241 9.42855 22.3475 9.55975 22.3316 9.68918C22.3038 19.0109 22.3316 28.3338 22.3177 37.6555C22.3112 37.9441 22.3543 38.2317 22.4452 38.5058C22.1809 38.7 21.8655 38.7577 21.5664 38.8582Z" fill="#FED548"/>
<path d="M22.4406 38.5059C22.4041 38.5072 22.3677 38.5007 22.3339 38.4869C22.3001 38.4731 22.2696 38.4523 22.2445 38.4258C22.2194 38.3994 22.2002 38.3679 22.1882 38.3335C22.1763 38.2991 22.1718 38.2625 22.1751 38.2263C22.1751 38.1107 22.1751 37.9952 22.1751 37.8797C22.1751 28.5988 22.1751 19.3171 22.1751 10.0347C22.1674 9.79045 22.1976 9.5465 22.2644 9.3114C22.4963 9.42694 22.7676 9.45929 22.974 9.63144C23.0186 9.87252 23.0326 10.1182 23.0157 10.3628C23.0157 19.4912 23.0157 28.6188 23.0157 37.7456C23.0197 37.9186 23.0037 38.0915 22.9682 38.2609C22.8122 38.3798 22.6322 38.4633 22.4406 38.5059Z" fill="#FED246"/>
<path d="M22.967 38.2655C22.8615 38.098 22.8673 37.9097 22.8673 37.7213C22.8673 28.5398 22.8673 19.3579 22.8673 10.1756C22.8477 9.98856 22.8832 9.79989 22.9693 9.63257C23.1803 9.78739 23.4702 9.79086 23.6592 9.98958C23.6952 10.1441 23.7124 10.3024 23.7102 10.461C23.7032 19.4538 23.7032 28.4458 23.7102 37.4371C23.7135 37.5959 23.6956 37.7544 23.6569 37.9085C23.4667 38.1038 23.1896 38.1199 22.967 38.2655Z" fill="#FECF44"/>
<path d="M17.3056 8.09933V39.7999L17.0656 39.8126C16.7015 39.8518 16.6922 39.6277 16.6922 39.3504C16.6976 36.0021 16.6976 32.6537 16.6922 29.3054C16.6922 24.2525 16.6922 19.2007 16.6922 14.1501C16.694 13.8344 16.6641 13.5194 16.6029 13.2096C16.4974 12.9508 16.5334 12.6782 16.5253 12.4101C16.5821 11.2917 16.5369 10.1744 16.5508 9.05946C16.5508 8.88731 16.5508 8.71284 16.5508 8.543C16.5774 8.06929 16.6319 8.02885 17.1386 8.09355L17.3056 8.09933Z" fill="#FEE955"/>
<path d="M23.6533 37.9085C23.5467 37.7399 23.5594 37.5515 23.5594 37.3644C23.5594 28.4208 23.5594 19.4777 23.5594 10.535C23.5594 10.3466 23.549 10.1583 23.6557 9.98962C23.8481 10.1225 24.0986 10.1537 24.2609 10.3362C24.4244 10.6135 24.3977 10.9209 24.3977 11.2224V36.3407C24.3977 36.715 24.3977 37.0894 24.3977 37.4649C24.2064 37.6936 23.9073 37.7618 23.6533 37.9085Z" fill="#FECC42"/>
<path d="M24.4058 37.4626C24.1473 37.3632 24.2656 37.1391 24.2644 36.9761C24.259 30.5907 24.259 24.2048 24.2644 17.8186C24.2644 15.3252 24.2644 12.8315 24.2644 10.3374C24.5044 10.5535 24.8569 10.5974 25.0667 10.8573C25.0911 11.1011 25.098 11.3461 25.098 11.591C25.098 19.8744 25.098 28.157 25.098 36.4389C25.098 36.6422 25.0783 36.8421 25.0632 37.0432C24.8893 37.2523 24.6319 37.3309 24.4058 37.4626Z" fill="#FDC940"/>
<path d="M10.6818 38.9449C10.435 38.9047 10.1986 38.8164 9.98613 38.685C9.94926 38.5307 9.93481 38.372 9.94323 38.2136C9.94323 30.9639 9.94323 23.7142 9.94323 16.4645C9.95059 16.1907 9.93586 15.9167 9.89917 15.6453C9.95134 15.2328 10.2992 14.9856 10.8267 14.9902C11.0087 15.1161 10.9995 15.3125 11.0076 15.4974C11.0203 15.7712 11.0076 16.0462 11.0076 16.32C11.0076 23.532 11.0076 30.7443 11.0076 37.9571C11.0194 38.1734 11.012 38.3903 10.9855 38.6053C10.9612 38.7774 10.9229 38.9577 10.6818 38.9449Z" fill="#FED548"/>
<path d="M14.9461 39.8161C14.6261 39.793 14.2968 39.8577 13.9884 39.7214C14.131 39.4094 14.1217 39.0778 14.1217 38.7451C14.1217 30.6989 14.1217 22.652 14.1217 14.6043C14.1217 14.3177 14.0823 14.0266 14.1971 13.7493C14.429 13.4766 14.6922 13.45 14.9832 13.6522C15.1154 13.8278 15.0991 14.0358 15.0991 14.2357C15.0991 22.5499 15.0991 30.8641 15.0991 39.1783C15.0991 39.3921 15.1246 39.6162 14.9635 39.7965L14.9461 39.8161Z" fill="#FEE753"/>
<path d="M14.2621 13.7308C14.2621 22.226 14.2621 30.722 14.2621 39.2188C14.2621 39.4163 14.3931 39.7214 13.9931 39.7214C13.7867 39.711 13.5722 39.7584 13.3821 39.6359C13.4204 39.2632 13.4366 38.8886 13.4308 38.514C13.4261 30.3846 13.4261 22.2549 13.4308 14.1248C13.4302 14.0672 13.4337 14.0097 13.4412 13.9526C13.6406 13.6222 13.8598 13.5633 14.2621 13.7308Z" fill="#FEE452"/>
<path d="M25.0643 37.0431C24.9009 36.9276 24.9565 36.7554 24.9565 36.6052C24.9565 28.1686 24.9565 19.7315 24.9565 11.294C24.9565 11.1438 24.902 10.9705 25.0725 10.8573C25.3229 11.0248 25.607 11.1473 25.7983 11.3934C25.7983 19.619 25.7983 27.8447 25.7983 36.0703C25.7983 36.2293 25.7832 36.3879 25.753 36.544C25.5861 36.7959 25.2626 36.834 25.0643 37.0431Z" fill="#FDC63E"/>
<path d="M13.4679 13.8983C13.6232 14.0139 13.5641 14.1895 13.5641 14.3408C13.5641 22.6204 13.5641 30.9007 13.5641 39.1818C13.5641 39.347 13.6661 39.5792 13.3786 39.6382C13.2058 39.6266 13.0308 39.6624 12.8708 39.5504C12.6795 39.3112 12.7328 39.0281 12.7328 38.7589C12.7328 33.8292 12.7328 28.8969 12.7328 23.9618C12.7328 20.9185 12.7328 17.8759 12.7328 14.8342C12.7164 14.6023 12.73 14.3693 12.7734 14.1409C12.9252 13.8405 13.1479 13.7308 13.4679 13.8983Z" fill="#FEE150"/>
<path d="M12.0846 39.3712C11.8708 39.3632 11.6621 39.3042 11.4759 39.1991C11.4283 39.0321 11.411 38.858 11.4249 38.6849C11.4249 30.9361 11.4249 23.1861 11.4249 15.435C11.4067 15.1755 11.4199 14.9148 11.4643 14.6585C11.6962 14.29 11.8527 14.2299 12.2388 14.3593C12.4452 14.6227 12.4 14.937 12.4011 15.2339C12.4011 18.8688 12.4011 22.5033 12.4011 26.1374C12.4011 30.2621 12.4011 34.3873 12.4011 38.5128C12.4161 38.7142 12.4072 38.9166 12.3745 39.1159C12.3432 39.258 12.3351 39.4602 12.0846 39.3712Z" fill="#FEDB4C"/>
<path d="M25.7519 36.544C25.636 36.3615 25.6499 36.1593 25.6499 35.9559C25.6499 27.9183 25.6499 19.8798 25.6499 11.8406C25.6499 11.6881 25.5467 11.4812 25.7878 11.3934C26.036 11.5841 26.3409 11.7065 26.5009 11.9989C26.4696 12.3281 26.4835 12.6586 26.4835 12.989C26.4835 20.4991 26.4835 28.0091 26.4835 35.5192C26.4835 35.6474 26.4418 35.778 26.4939 35.9051C26.3258 36.2009 26.0047 36.3326 25.7519 36.544Z" fill="#FDC33C"/>
<path d="M11.5594 14.5673C11.5594 17.9271 11.5621 21.2874 11.5675 24.6481C11.5675 29.3205 11.5675 33.9933 11.5675 38.6665C11.5675 38.8444 11.6417 39.0443 11.4794 39.1991C11.2 39.1695 10.9296 39.083 10.6852 38.9449C10.8892 38.8594 10.8765 38.6815 10.8765 38.5059C10.8765 30.8032 10.8765 23.1029 10.8765 15.4049C10.8765 15.2593 10.9437 15.0675 10.7014 15.0283C10.8753 14.6747 11.1918 14.573 11.5594 14.5673Z" fill="#FED84A"/>
<path d="M26.5031 35.9039C26.2318 35.8161 26.3512 35.5873 26.3512 35.4255C26.3443 30.6191 26.3443 25.8127 26.3512 21.0062C26.3512 18.1616 26.3512 15.3178 26.3512 12.4748C26.3512 12.313 26.2353 12.0843 26.5054 11.9988C26.7188 12.2183 27.0353 12.3246 27.1883 12.6111C27.1783 20.1705 27.1783 27.731 27.1883 35.2927C27.0341 35.578 26.7165 35.682 26.5031 35.9039Z" fill="#FDC03A"/>
<path d="M9.90376 15.5436C9.92924 15.5433 9.95449 15.5484 9.9779 15.5584C10.0013 15.5684 10.0224 15.5832 10.0397 15.6018C10.0571 15.6204 10.0703 15.6424 10.0787 15.6664C10.087 15.6904 10.0902 15.7159 10.0881 15.7412C10.0881 15.8567 10.0881 15.9722 10.0881 16.0878C10.0881 23.443 10.0881 30.799 10.0881 38.1558C10.0881 38.3337 10.1646 38.5348 9.99188 38.685C9.77362 38.651 9.56747 38.5628 9.39246 38.4285C9.2 38.1731 9.25797 37.875 9.25797 37.5908C9.25797 30.7516 9.25797 23.9129 9.25797 17.0745C9.26302 16.786 9.25179 16.4975 9.22434 16.2102C9.21623 15.8209 9.42956 15.6152 9.90376 15.5436Z" fill="#FED246"/>
<path d="M12.0846 39.3713C12.11 39.3706 12.135 39.3647 12.158 39.3539C12.1811 39.3431 12.2016 39.3277 12.2182 39.3085C12.2349 39.2894 12.2474 39.267 12.255 39.2428C12.2625 39.2186 12.2649 39.1931 12.262 39.1679C12.262 39.0524 12.262 38.9368 12.262 38.8213C12.262 30.9045 12.262 22.9882 12.262 15.0722C12.2682 14.8134 12.2353 14.5552 12.1646 14.3062C12.3234 14.0127 12.5797 13.9965 12.8602 14.0624C12.8602 22.5568 12.8602 31.0517 12.8602 39.5469C12.5931 39.5357 12.3303 39.4762 12.0846 39.3713Z" fill="#FEDE4E"/>
<path d="M9.2185 16.0681C9.48516 16.1224 9.39009 16.3362 9.39009 16.4887C9.3955 18.5237 9.3955 20.5576 9.39009 22.5903V38.4284C9.13906 38.3609 8.90305 38.2469 8.69444 38.0922C8.59243 37.9329 8.54598 37.7444 8.56227 37.5561C8.56227 30.6469 8.56227 23.7376 8.56227 16.8284C8.61328 16.4009 8.80111 16.1825 9.2185 16.0681Z" fill="#FECF44"/>
<path d="M3.0725 14.6019C3.29454 14.2566 3.54714 13.9318 3.82728 13.6313C4.09163 13.8624 4.05917 14.179 4.05917 14.4771C4.0669 16.1339 4.0669 17.79 4.05917 19.4453C4.04642 23.9998 4.06844 28.5533 4.05917 33.1067C4.0706 33.3229 4.06401 33.5397 4.03946 33.7548C4.00932 33.9351 3.99656 34.1396 3.74496 34.1685C3.47439 33.8795 3.23429 33.5635 3.02844 33.2257C3.06878 32.8806 3.08699 32.5332 3.08294 32.1858C3.07482 26.4366 3.09453 20.6873 3.07134 14.9381C3.08389 14.8264 3.08428 14.7137 3.0725 14.6019Z" fill="#FDB835"/>
<path d="M7.89216 37.6508C7.63501 37.5512 7.399 37.4043 7.19651 37.2175C7.2939 36.2678 7.24984 35.3158 7.251 34.3649C7.251 29.4005 7.251 24.4358 7.251 19.4707C7.26716 19.1534 7.24183 18.8353 7.17564 18.5244C7.12346 18.0161 7.47129 17.733 7.80057 17.4441C7.83665 17.4197 7.88018 17.4086 7.9236 17.4129C7.96702 17.4171 8.00758 17.4363 8.03825 17.4673C8.27013 17.718 8.22607 18.0322 8.22607 18.3303C8.22607 21.2573 8.22607 24.182 8.22607 27.1044V36.656C8.23772 36.8578 8.22957 37.0601 8.20172 37.2603C8.17042 37.4382 8.15419 37.6473 7.89216 37.6508Z" fill="#FDC940"/>
<path d="M27.1883 35.2927C27.0202 35.1922 27.0411 35.027 27.0411 34.8687V13.0318C27.0411 12.8735 27.0191 12.7083 27.1883 12.6089C27.4028 12.8342 27.695 12.989 27.8237 13.2952C27.794 13.6244 27.7827 13.9549 27.7901 14.2854V33.6139C27.785 33.9456 27.7974 34.2772 27.8272 34.6076C27.6939 34.9103 27.4005 35.0697 27.1883 35.2927Z" fill="#FDBE38"/>
<path d="M7.89221 37.6509C8.08584 37.5168 8.09164 37.3158 8.09164 37.1102C8.09164 30.7347 8.09164 24.3588 8.09164 17.9826C8.09164 17.777 8.09163 17.5748 7.88989 17.4454C7.93047 17.0132 8.22612 16.8099 8.58554 16.6666C8.72352 16.7521 8.69453 16.8919 8.69453 17.0132C8.69453 24.038 8.69221 31.0628 8.68757 38.0876C8.39991 37.9872 8.1311 37.8396 7.89221 37.6509Z" fill="#FECC42"/>
<path d="M7.19883 18.4009C7.39593 18.5326 7.39593 18.7359 7.39477 18.9404C7.39477 24.853 7.39477 30.7647 7.39477 36.6757C7.39477 36.8825 7.38781 37.0824 7.19767 37.2176C6.97173 37.1234 6.76797 36.9833 6.5994 36.8063C6.5497 36.7019 6.52812 36.5864 6.53679 36.4712C6.58317 31.2026 6.54491 25.9352 6.55882 20.6666C6.55972 20.3926 6.53488 20.1191 6.48462 19.8497C6.49389 19.257 6.70028 18.7567 7.19883 18.4009Z" fill="#FDC73E"/>
<path d="M6.49395 19.703C6.68062 19.8752 6.69685 20.1016 6.69685 20.335C6.69685 25.6298 6.69685 30.925 6.69685 36.2205C6.68265 36.4207 6.64808 36.6189 6.59366 36.8121C6.33431 36.6748 6.09931 36.496 5.89801 36.2829C5.72641 36.038 5.76815 35.756 5.76815 35.4857C5.76815 31.1992 5.75656 26.9127 5.77511 22.6261C5.77511 22.4563 5.81221 22.2795 5.71714 22.1189C5.65449 21.9881 5.64171 21.839 5.6812 21.6995C5.8091 21.1083 5.99472 20.5309 6.2354 19.9757C6.29685 19.852 6.34323 19.7238 6.49395 19.703Z" fill="#FDC43C"/>
<path d="M27.8273 34.6076C27.5861 34.492 27.658 34.261 27.658 34.0715C27.658 29.329 27.658 24.5868 27.658 19.8451C27.658 17.827 27.658 15.8089 27.658 13.7908C27.658 13.6095 27.6058 13.4049 27.8307 13.2998C28.036 13.4743 28.2713 13.6245 28.3536 13.9052C28.4052 14.3043 28.4226 14.7071 28.4058 15.1092C28.4058 21.0201 28.4058 26.9304 28.4058 32.8398C28.4229 33.2277 28.405 33.6163 28.3525 34.001C28.2632 34.2806 28.029 34.4308 27.8273 34.6076Z" fill="#FDBB37"/>
<path d="M3.07248 14.6019C3.24292 14.7001 3.22205 14.8654 3.22205 15.0236C3.22205 20.9462 3.22205 26.8691 3.22205 32.7924C3.22205 32.9681 3.23364 33.1391 3.02726 33.2292C2.77395 32.9316 2.55464 32.6069 2.37336 32.261C2.39365 32.0023 2.39713 31.7425 2.38379 31.4834C2.38958 26.246 2.38379 21.0074 2.38379 15.77C2.38182 15.7269 2.37639 15.684 2.36755 15.6418C2.56637 15.2721 2.80258 14.9237 3.07248 14.6019Z" fill="#FDB533"/>
<path d="M29.7403 32.0079C29.6139 32.4516 29.2882 32.7693 29.025 33.1275C28.8058 33.0813 28.7931 32.8964 28.756 32.7289C28.7256 32.5437 28.7155 32.3558 28.7258 32.1685V15.7319C28.7155 15.5445 28.7256 15.3567 28.756 15.1715C28.7919 15.0086 28.8058 14.8249 29.025 14.774C29.2882 15.1322 29.6128 15.4511 29.7415 15.8936C29.7167 16.1378 29.7044 16.3816 29.7044 16.625C29.7044 21.6382 29.687 26.6515 29.7125 31.6659C29.7078 31.7806 29.7172 31.8954 29.7403 32.0079Z" fill="#FDB633"/>
<path d="M29.0249 14.7741C28.908 14.9714 28.8542 15.1995 28.8707 15.4281C28.8707 21.108 28.8707 26.7879 28.8707 32.4678C28.8553 32.6981 28.9111 32.9276 29.0307 33.1252C28.8985 33.488 28.5971 33.7214 28.3513 33.9964C28.2087 33.8693 28.2667 33.6995 28.2667 33.5481C28.2667 27.148 28.2667 20.7483 28.2667 14.3489C28.2667 14.1976 28.2087 14.0277 28.3525 13.9006C28.5925 14.1779 28.8928 14.4125 29.0249 14.7741Z" fill="#FDB935"/>
<path d="M2.37333 15.6406C2.54608 15.7365 2.52753 15.9006 2.52753 16.0589C2.52753 21.3205 2.52753 26.5818 2.52753 31.8427C2.52753 32.001 2.54724 32.1651 2.37564 32.261C2.09187 31.8565 1.85354 31.4221 1.66492 30.9658C1.72637 30.6954 1.68927 30.4204 1.69043 30.1489C1.69623 25.8162 1.69043 21.4835 1.69622 17.1484C1.69574 17.0768 1.6852 17.0057 1.66492 16.937C1.853 16.4805 2.09055 16.0458 2.37333 15.6406Z" fill="#FDB231"/>
<path d="M29.7403 32.0079C29.5571 31.8647 29.5618 31.6613 29.5618 31.4568V16.4436C29.5618 16.2391 29.5618 16.0369 29.7415 15.8937C30.0234 16.2667 30.2528 16.6764 30.4232 17.1115C30.3397 17.3368 30.4024 17.5678 30.4024 17.7955C30.3884 22.0704 30.4024 26.3454 30.3884 30.6203C30.3856 30.6777 30.3972 30.7349 30.4221 30.7867C30.2713 31.2396 30.0012 31.6209 29.7403 32.0079Z" fill="#FDB331"/>
<path d="M3.74487 34.1719C3.92342 34.0252 3.91879 33.8253 3.91879 33.6173C3.91879 27.1826 3.91879 20.7474 3.91879 14.3119C3.91879 14.0808 3.82603 13.8624 3.82371 13.6313L4.17154 13.2686C4.37212 13.4338 4.38488 13.6672 4.38604 13.8971C4.39647 16.2841 4.38603 18.6712 4.39763 21.0605C4.39763 21.4152 4.2527 21.7688 4.37908 22.1258C4.38973 22.2305 4.38346 22.3362 4.36053 22.4389C4.30731 22.602 4.28836 22.7743 4.30488 22.945C4.31822 23.1466 4.31822 23.3488 4.30488 23.5504C4.25386 23.9652 4.42081 24.3072 4.62835 24.6422C4.66303 24.7828 4.67824 24.9274 4.67357 25.0721C4.67357 28.1466 4.67357 31.2199 4.66661 34.2944C4.66661 34.5058 4.77444 34.8097 4.41154 34.8848L3.74487 34.1719Z" fill="#FDBB36"/>
<path d="M1.66379 16.937C1.8435 17.0225 1.8319 17.1843 1.8319 17.3449C1.8319 21.7492 1.8319 26.1532 1.8319 30.5568C1.8319 30.7174 1.8435 30.8803 1.66379 30.9658C1.36655 30.4471 1.13299 29.8948 0.96814 29.3205C1.00581 28.9919 1.01628 28.6607 0.999439 28.3303C0.999439 25.1807 0.993642 22.03 1.0064 18.8792C1.01114 18.7784 0.998194 18.6775 0.96814 18.5811C1.1325 18.0071 1.36609 17.455 1.66379 16.937Z" fill="#FDAF2F"/>
<path d="M0.964669 18.5811C1.1467 18.6654 1.13626 18.8272 1.13626 18.9878C1.13626 22.276 1.13626 25.5642 1.13626 28.8525C1.14572 28.9384 1.13516 29.0253 1.10539 29.1065C1.07563 29.1876 1.02747 29.2608 0.964669 29.3204C0.488147 28.1858 0.250466 26.9912 0.109016 25.7792C-0.169234 23.4019 0.094724 20.9927 0.881194 18.7313C0.904635 18.6789 0.932561 18.6286 0.964669 18.5811Z" fill="#FDAC2D"/>
<path d="M5.75998 22.0461C5.81331 22.0253 5.88288 21.9964 5.90723 22.0622C5.92205 22.1329 5.92519 22.2055 5.9165 22.2771C5.9165 26.9442 5.9138 31.6108 5.90839 36.277C5.58259 36.1188 5.37042 35.8311 5.11998 35.5838C5.08523 35.3995 5.07122 35.212 5.07824 35.0246C5.07824 31.6092 5.10375 28.1939 5.06201 24.7786C5.08868 24.4088 5.50839 24.2159 5.49331 23.8265C5.56983 23.5446 5.53157 23.2581 5.52925 22.9727C5.5536 22.6526 5.46085 22.3014 5.75998 22.0461Z" fill="#FDC03A"/>
<path d="M31.0458 18.6631C31.4987 19.8111 31.7879 21.0168 31.9049 22.2448C32.1076 24.0528 31.9899 25.8823 31.5571 27.6497C31.4387 28.1928 31.2682 28.7232 31.0481 29.2338C30.8163 29.2118 30.8047 29.0177 30.7629 28.8571C30.7302 28.6866 30.719 28.5128 30.7293 28.3395V19.5585C30.719 19.3856 30.7303 19.2122 30.7629 19.0421C30.8012 18.8815 30.8128 18.6873 31.0458 18.6631Z" fill="#FDAD2E"/>
<path d="M31.0458 18.6631C30.8823 18.8492 30.8649 19.0745 30.8649 19.3067C30.8649 22.4024 30.8649 25.4969 30.8649 28.5903C30.8649 28.8214 30.8823 29.0524 31.0446 29.2338C30.9588 29.8011 30.6493 30.2737 30.422 30.789C30.2528 30.6365 30.2562 30.4354 30.2562 30.2321C30.2562 26.0426 30.2562 21.8539 30.2562 17.666C30.2562 17.4615 30.2562 17.2605 30.4232 17.1091C30.6504 17.6233 30.9577 18.0993 31.0458 18.6631Z" fill="#FDB02F"/>
<path d="M5.13278 24.6342C5.23481 24.804 5.22206 24.9935 5.22206 25.1807C5.22206 28.4535 5.22206 31.7271 5.22206 35.0015C5.22206 35.2037 5.23481 35.4059 5.12003 35.5884C4.83827 35.4016 4.59536 35.1623 4.40466 34.8837C4.59017 34.7623 4.52061 34.5717 4.52061 34.4088C4.52061 31.1336 4.52061 27.86 4.52061 24.5879C4.61624 24.536 4.72493 24.5127 4.83355 24.5209C4.94217 24.5291 5.04609 24.5684 5.13278 24.6342Z" fill="#FDBE38"/>
<path d="M8.96005 39.8069C9.1759 39.8574 9.38142 39.9445 9.56758 40.0645C9.76932 40.187 9.79135 40.3892 9.79251 40.5937C9.79947 43.4005 9.79947 46.2066 9.79251 49.0119C9.79479 49.1859 9.74647 49.3569 9.65338 49.5041C9.33801 49.7352 9.05396 49.6624 8.78613 49.4174C8.82166 49.1173 8.83175 48.8146 8.81628 48.5128C8.81628 45.845 8.81628 43.176 8.81628 40.5082C8.82324 40.269 8.76874 40.0114 8.96005 39.8069Z" fill="#FED044"/>
<path d="M22.1727 40.1603L22.7826 39.9108C23.0005 40.0483 23.0028 40.2736 23.004 40.4885C23.0133 43.3585 23.0133 46.2288 23.004 49.0996C23.0072 49.2737 22.9588 49.445 22.8649 49.5918C22.4695 49.6923 22.2098 49.5444 22.0788 49.1631C21.9628 46.3255 22.0556 43.4856 22.0324 40.6468C22.0301 40.4746 22.0405 40.299 22.1727 40.1603Z" fill="#FED246"/>
<path d="M8.96003 39.8069C8.96003 42.8563 8.96003 45.905 8.96003 48.9529C8.96003 49.1135 9.07597 49.3458 8.79307 49.4151C8.45452 48.9425 8.33626 48.3753 8.11597 47.8507C8.14959 45.2904 8.11597 42.73 8.13336 40.1697C8.13336 39.9316 8.08119 39.6751 8.26901 39.4695L8.96003 39.8069Z" fill="#FECD43"/>
<path d="M24.3339 46.7392C24.1715 47.3434 23.8434 47.8818 23.6382 48.4722C23.4214 48.545 23.3994 48.3775 23.3646 48.2412C23.3361 48.085 23.3268 47.9259 23.3368 47.7675C23.3286 45.1736 23.3507 42.5786 23.3252 39.9847C23.3115 39.8694 23.3342 39.7527 23.3901 39.6508L24.0857 39.3042C24.3443 39.4833 24.3072 39.7594 24.3049 40.0125C24.2933 42.2019 24.3455 44.3914 24.2805 46.5809C24.2794 46.6382 24.2983 46.6941 24.3339 46.7392Z" fill="#FECD43"/>
<path d="M23.3902 39.6427C23.4541 39.8491 23.4842 40.0645 23.4795 40.2805C23.4795 42.8493 23.4795 45.4185 23.4795 47.9881C23.4795 48.1499 23.3635 48.3798 23.6348 48.463C23.4702 48.902 23.4203 49.4173 22.865 49.5918C22.865 46.5762 22.865 43.5614 22.865 40.5474C22.8719 40.3317 22.8421 40.1165 22.7769 39.9108L23.3902 39.6427Z" fill="#FECF44"/>
<path d="M22.1728 40.1604V48.5763C22.1728 48.7762 22.1995 48.9807 22.0824 49.1632C21.8084 48.6326 21.5758 48.0818 21.3867 47.5156C21.2708 45.3123 21.3624 43.1067 21.3392 40.9022C21.3287 40.8158 21.3355 40.7283 21.3592 40.6446C21.3829 40.5609 21.423 40.4828 21.4771 40.4146L22.1728 40.1604Z" fill="#FED548"/>
<path d="M7.41446 46.1187C7.22895 45.6728 7.04924 45.2245 6.85678 44.7808C6.80345 44.6583 6.80229 44.4862 6.61794 44.455C6.56531 44.336 6.54531 44.2052 6.55997 44.076C6.55997 42.4966 6.55997 40.916 6.55997 39.3389C6.55997 39.1078 6.50432 38.8363 6.7791 38.6873C7.08403 38.7496 7.31359 38.9484 7.56171 39.1159C7.69736 39.3019 7.702 39.5168 7.70316 39.7352C7.70316 41.6196 7.70316 43.5029 7.6962 45.3874C7.70084 45.6531 7.78084 45.9813 7.41446 46.1187Z" fill="#FDC73F"/>
<path d="M26.9553 37.4036L27.469 36.9414L27.8898 37.987C27.7635 38.225 27.8898 38.4688 27.8829 38.708C27.8713 40.6999 27.8829 42.6906 27.8736 44.6825C27.8736 44.9206 27.9281 45.1794 27.7275 45.3758L26.9553 45.0708C26.8986 44.9696 26.8762 44.8529 26.8916 44.738C26.9101 42.4041 26.9101 40.0698 26.8916 37.7352C26.8772 37.6207 26.8995 37.5046 26.9553 37.4036Z" fill="#FDBE38"/>
<path d="M7.41455 46.1188C7.57339 45.9605 7.56992 45.7595 7.56992 45.555C7.56992 43.4082 7.56992 41.2611 7.56992 39.1136L8.26557 39.4707C8.26557 42.0618 8.26557 44.653 8.26557 47.2441C8.26557 47.4614 8.28412 47.6797 8.11136 47.8519L7.41455 46.1188Z" fill="#FDCA41"/>
<path d="M4.36865 37.3805C4.43358 37.0096 4.57155 36.9022 4.86373 37.2257C5.00567 37.3677 5.15588 37.5011 5.31358 37.6255C5.36388 37.7297 5.38625 37.8451 5.37851 37.9605C5.34141 40.1026 5.37851 42.2436 5.36112 44.3857C5.36112 44.6006 5.37851 44.8213 5.22199 45.0015C5.03561 45.1209 4.82895 45.2055 4.61213 45.2511C4.35706 45.072 4.39184 44.797 4.39068 44.544C4.39068 42.2551 4.37909 39.9675 4.39068 37.6786C4.40305 37.5788 4.39557 37.4775 4.36865 37.3805Z" fill="#FDBE38"/>
<path d="M9.65446 49.5029C9.65446 46.552 9.65446 43.6016 9.65446 40.6515C9.65446 40.4516 9.68461 40.2459 9.5675 40.0634L10.349 40.3418C10.4054 40.4431 10.4282 40.5596 10.4139 40.6746C10.3942 42.9749 10.3988 45.2742 10.4139 47.5746C10.4332 47.7605 10.4142 47.9484 10.3582 48.1268C10.1519 48.6006 10.095 49.1494 9.65446 49.5029Z" fill="#FED346"/>
<path d="M6.42898 11.2132C6.69242 10.9744 6.98684 10.7719 7.30434 10.6112C7.51536 10.5222 7.5513 10.6817 7.58724 10.818C7.61951 11.0018 7.63041 11.1886 7.61971 11.3749C7.63826 12.751 7.57913 14.1271 7.65565 15.502C7.53971 16.0415 7.11188 16.3627 6.76057 16.7359C6.67362 16.8272 6.57622 16.7741 6.51941 16.6643C6.42794 16.4522 6.38479 16.2226 6.39304 15.9919C6.38376 14.528 6.39304 13.0629 6.39304 11.6014C6.38608 11.4673 6.4197 11.3414 6.42898 11.2132Z" fill="#FDC63E"/>
<path d="M4.37332 13.0444C4.53649 12.8102 4.73655 12.6038 4.96578 12.4332C5.29042 12.5141 5.25912 12.7902 5.26491 13.0213C5.28462 13.7978 5.26491 14.5742 5.27302 15.3506C5.27302 16.5441 5.25911 17.7376 5.28346 18.9323C5.28346 19.5516 4.93563 20.0577 4.73853 20.6146C4.70839 20.7024 4.60752 20.7116 4.5194 20.6619C4.3281 20.4124 4.35592 20.1166 4.35477 19.8324C4.35013 17.8844 4.35013 15.9368 4.35477 13.9895C4.35592 13.673 4.27593 13.3564 4.37332 13.0444Z" fill="#FDBD38"/>
<path d="M26.9554 37.4036C27.0172 37.5946 27.047 37.7944 27.0435 37.9951C27.0435 40.1426 27.0435 42.2897 27.0435 44.4364C27.0476 44.6516 27.0179 44.866 26.9554 45.0719L26.3455 44.8235C26.1774 44.7218 26.2029 44.5543 26.2029 44.3995C26.2029 42.3475 26.2319 40.2944 26.1855 38.2424C26.1801 38.1416 26.2013 38.0413 26.247 37.9512L26.9554 37.4036Z" fill="#FDC03A"/>
<path d="M24.3339 46.7392C23.9861 46.7808 24.1832 46.5174 24.182 46.4226C24.1693 44.3186 24.1728 42.2147 24.1716 40.1119C24.1716 39.8392 24.196 39.5642 24.0858 39.3031L24.8684 38.8663C25.0493 39.057 25.0029 39.2984 25.0029 39.5226C25.0029 41.2083 25.011 42.8929 25.0029 44.5774C24.995 44.6944 25.0083 44.8118 25.0423 44.9241C24.88 45.548 24.5913 46.1349 24.3339 46.7392Z" fill="#FDC940"/>
<path d="M21.4783 40.4146C21.4783 42.6006 21.4783 44.7862 21.4783 46.9714C21.4783 47.1586 21.4957 47.3469 21.3878 47.5156C21.0818 46.9047 20.8172 46.2739 20.596 45.6277C20.5102 44.1257 20.5728 42.6167 20.56 41.1112C20.5453 40.9517 20.594 40.7928 20.6957 40.6687C20.9426 40.5463 21.2063 40.4606 21.4783 40.4146Z" fill="#FED84A"/>
<path d="M10.3537 48.1256C10.1531 45.6727 10.3154 43.214 10.2679 40.7588C10.2804 40.617 10.3076 40.4768 10.349 40.3406L10.9693 40.5532C11.0573 40.6863 11.1014 40.8434 11.0957 41.0026C11.1038 42.7299 11.0957 44.4561 11.0957 46.1834C11.1082 46.2844 11.0908 46.3867 11.0458 46.478C10.8588 47.0445 10.6274 47.5954 10.3537 48.1256Z" fill="#FED648"/>
<path d="M5.21856 44.9992C5.21856 42.7808 5.21856 40.5629 5.21856 38.3453C5.21276 38.1011 5.24483 37.8576 5.31364 37.6232L6.00929 38.1396C6.06436 38.2418 6.08662 38.3584 6.07305 38.4735C6.03943 40.4192 6.04523 42.3649 6.07305 44.3117C6.07305 44.4712 6.09856 44.6353 5.92117 44.7277C5.7031 44.8552 5.46586 44.9468 5.21856 44.9992Z" fill="#FDC03A"/>
<path d="M7.57569 15.6591C7.50307 15.4125 7.47058 15.1558 7.47946 14.8989C7.48487 13.6087 7.48487 12.3189 7.47946 11.0295C7.47946 10.877 7.56989 10.6655 7.30554 10.6135C7.62305 10.3589 7.97416 10.149 8.34902 9.98962C8.55656 10.0844 8.57279 10.2785 8.57279 10.4633C8.57279 11.8798 8.60525 13.2964 8.5612 14.7117C8.41627 15.2166 8.01627 15.4569 7.57569 15.6591Z" fill="#FDCA41"/>
<path d="M17.1501 8.09354C16.8023 8.04963 16.6794 8.18481 16.6864 8.55569C16.7107 9.71109 16.6945 10.8665 16.6957 12.0219C16.6957 12.1952 16.7061 12.3685 16.6087 12.5245C16.247 12.3731 15.8377 12.3558 15.5003 12.1339C15.3751 11.7388 15.4435 11.3333 15.4365 10.9335C15.4249 10.2148 15.4214 9.49503 15.4365 8.77637C15.4446 8.42975 15.3368 8.22525 14.9728 8.19174C14.925 8.17202 14.8845 8.13814 14.8568 8.09469C15.6165 7.97436 16.3904 7.97397 17.1501 8.09354Z" fill="#FEEC57"/>
<path d="M5.91421 44.7277C6.04523 44.4897 5.90146 44.2528 5.90377 44.0137C5.92001 42.2967 5.91537 40.5798 5.90377 38.8629C5.8978 38.6183 5.93027 38.3743 6.00001 38.1396C6.30262 38.2552 6.52522 38.4863 6.7745 38.685C6.65856 38.8548 6.68986 39.0455 6.68986 39.2315C6.68986 40.8051 6.68986 42.3788 6.68986 43.9524C6.68986 44.1234 6.71769 44.299 6.6087 44.455L5.91421 44.7277Z" fill="#FDC33C"/>
<path d="M4.3687 37.3805C4.62377 37.4533 4.52175 37.6647 4.52175 37.8161C4.5287 40.0683 4.5287 42.3198 4.52175 44.5705C4.51361 44.8006 4.54338 45.0305 4.60986 45.251L4.00117 45.5006C3.74146 45.3238 3.78203 45.0477 3.78087 44.7958C3.77392 42.9137 3.78087 41.0315 3.78087 39.1494C3.79453 39.0498 3.78582 38.9483 3.75537 38.8525L4.3687 37.3805Z" fill="#FDBB36"/>
<path d="M25.0447 44.9125C24.8209 44.8074 24.8731 44.6029 24.8731 44.4226C24.8731 42.5679 24.8731 40.7138 24.8731 38.8606L25.5687 38.4261C25.7751 38.5902 25.7855 38.8271 25.7879 39.0558C25.801 40.6734 25.801 42.2867 25.7879 43.8958C25.7879 44.1269 25.7809 44.3637 25.556 44.5151C25.1525 44.3545 25.1606 44.7126 25.0447 44.9125Z" fill="#FDC63E"/>
<path d="M25.5525 44.515C25.6294 44.2525 25.6635 43.9795 25.6534 43.7062C25.6464 42.3429 25.6534 40.9795 25.6534 39.6161C25.6534 39.2164 25.6789 38.8143 25.5676 38.4215L26.2505 37.9478C26.325 38.1945 26.3595 38.4516 26.3525 38.7092C26.3525 40.5197 26.3444 42.3302 26.3525 44.1395C26.3525 44.3706 26.2667 44.5913 26.3525 44.8177L25.5525 44.515Z" fill="#FDC33C"/>
<path d="M5.23712 19.0178C5.06784 18.8861 5.13857 18.7001 5.13741 18.5372C5.13277 16.7009 5.13277 14.8649 5.13741 13.0294C5.13741 12.8145 5.15828 12.595 4.96814 12.4332L5.65799 11.8243C6.01277 11.9098 5.95712 12.2102 5.96176 12.4517C5.98031 13.3148 5.96871 14.179 5.96987 15.0433C5.97103 15.9075 5.96987 16.7429 5.96987 17.5921C5.93277 18.1721 5.65567 18.6308 5.23712 19.0178Z" fill="#FDC03A"/>
<path d="M27.7275 45.3769C27.7275 43.0592 27.7321 40.7407 27.7414 38.4215C27.7414 38.2701 27.6394 38.0598 27.8898 37.9847L28.5054 39.4602C28.4486 39.9743 28.4892 40.4908 28.4869 41.0049C28.4776 42.3267 28.4869 43.6473 28.4811 44.9691C28.4811 45.1932 28.5252 45.4313 28.3408 45.6219C28.1221 45.5815 27.9137 45.4982 27.7275 45.3769Z" fill="#FDBB36"/>
<path d="M5.94086 17.7226C5.76231 17.5955 5.83419 17.4072 5.83303 17.2454C5.82839 15.6364 5.82839 14.0273 5.83303 12.4182C5.83303 12.2022 5.85274 11.9826 5.65796 11.8243C5.9026 11.6037 6.12985 11.3622 6.4313 11.2131C6.58318 11.3345 6.52521 11.5043 6.52521 11.6545C6.52521 12.8446 6.52521 14.0346 6.52521 15.2258C6.52521 15.7388 6.4997 16.2553 6.61101 16.7625C6.52057 17.1738 6.32926 17.517 5.94086 17.7226Z" fill="#FDC33C"/>
<path d="M11.0481 46.4792C10.8592 44.5058 10.996 42.5289 10.9693 40.5543L11.7415 40.7635C11.7928 40.8238 11.8311 40.894 11.854 40.9698C11.8769 41.0455 11.884 41.1251 11.8748 41.2037C11.8655 42.3325 11.9212 43.4613 11.8412 44.589C11.6206 45.2364 11.3556 45.8679 11.0481 46.4792Z" fill="#FED94A"/>
<path d="M3.75426 38.8502C4.01397 38.9161 3.9131 39.1287 3.9131 39.28C3.92006 41.141 3.92006 43.0015 3.9131 44.8617C3.9062 45.0774 3.936 45.2926 4.00122 45.4984L3.30557 45.7687C3.1247 45.5781 3.17224 45.3366 3.17108 45.1124C3.16412 43.6104 3.17108 42.1177 3.17108 40.6214C3.17699 40.521 3.16641 40.4203 3.13977 40.3233C3.30543 39.817 3.5109 39.3244 3.75426 38.8502Z" fill="#FDB835"/>
<path d="M8.44169 14.8665C8.44169 13.4215 8.44169 11.9753 8.44169 10.528C8.44169 10.3408 8.44865 10.1548 8.34546 9.98727C8.61513 9.80352 8.90789 9.6559 9.21618 9.54822C9.39474 9.72268 9.35648 9.94914 9.35764 10.1617C9.36343 11.4743 9.35764 12.7879 9.36343 14.1005C9.30058 14.3033 9.18006 14.4836 9.01646 14.6196C8.85287 14.7555 8.65321 14.8413 8.44169 14.8665Z" fill="#FECF43"/>
<path d="M28.3409 45.6219C28.3409 43.7687 28.3409 41.9154 28.3409 40.0622C28.3409 39.8461 28.3223 39.6266 28.502 39.4602C28.6725 39.9928 29.0319 40.4504 29.1304 41.0131C29.0586 42.4249 29.0991 43.838 29.0852 45.2499C29.0852 45.4625 29.1212 45.6878 28.9496 45.8657C28.732 45.827 28.5248 45.744 28.3409 45.6219Z" fill="#FDB835"/>
<path d="M3.13859 40.3232C3.36004 40.4295 3.30786 40.634 3.30786 40.8143C3.30786 42.465 3.30786 44.1164 3.30786 45.7686C3.09291 45.8976 2.85776 45.9898 2.61221 46.0413C2.44062 45.8634 2.47888 45.6381 2.47772 45.4255C2.4696 44.3729 2.47772 43.3203 2.47772 42.2678C2.48379 42.1671 2.47401 42.0662 2.44873 41.9685C2.63427 41.4026 2.86496 40.8525 3.13859 40.3232Z" fill="#FDB533"/>
<path d="M9.74023 9.31138C10.0371 9.14002 10.3591 9.01605 10.6944 8.94397C10.7452 8.99511 10.7839 9.05694 10.8076 9.12492C10.8312 9.1929 10.8393 9.2653 10.8312 9.3368C10.8312 10.6528 10.873 11.9688 10.8092 13.2836C10.5959 13.6892 10.2481 13.8798 9.88168 13.7885C9.76574 13.5297 9.79009 13.2524 9.78545 12.9798C9.76111 11.7574 9.83067 10.5338 9.74023 9.31138Z" fill="#FED547"/>
<path d="M29.8261 42.6594C30.2053 43.5237 30.5798 44.3925 30.967 45.2498C31.1189 45.586 31.1989 45.9084 30.9113 46.2065C30.6238 46.5046 30.2853 46.4376 29.949 46.2954C29.8435 46.2515 29.7415 46.2019 29.6383 46.1545C29.5512 46.0206 29.5075 45.8633 29.5131 45.7039C29.5131 44.8685 29.498 44.0332 29.52 43.1978C29.5258 42.9783 29.5177 42.7218 29.8261 42.6594Z" fill="#FDB231"/>
<path d="M20.6956 40.6687C20.6956 42.1407 20.6956 43.6123 20.6956 45.0835C20.6956 45.2718 20.7037 45.4601 20.5959 45.6276C20.2965 45.0353 20.0396 44.4226 19.8272 43.794C19.7495 43.0049 19.7901 42.2135 19.7843 41.4232C19.7843 41.2244 19.7646 41.0165 19.9188 40.8455C20.1646 40.7393 20.428 40.6793 20.6956 40.6687Z" fill="#FEDB4C"/>
<path d="M11.8412 44.5889C11.7345 44.4214 11.7403 44.2342 11.7403 44.0471C11.7403 42.9525 11.7403 41.858 11.7403 40.7634C12.1913 40.8501 12.6412 40.9437 13.0945 41.0188C13.2951 41.0523 13.3264 41.1343 13.2499 41.3099C12.7768 42.4018 12.3096 43.4959 11.8412 44.5889Z" fill="#FEDC4D"/>
<path d="M9.74024 9.3114C9.89097 9.32873 9.91764 9.42694 9.91764 9.55866C9.91764 10.9798 9.91764 12.4013 9.91764 13.8232C9.81329 14.1063 9.61966 14.2565 9.30662 14.2264C9.19068 14.0751 9.22082 13.8972 9.22082 13.7273C9.22082 12.3355 9.2185 10.9424 9.21387 9.54826C9.37157 9.43486 9.55059 9.3543 9.74024 9.3114Z" fill="#FED145"/>
<path d="M13.3867 8.2565C13.5745 8.14096 13.782 8.18718 13.9826 8.17909C14.3397 8.12016 14.2933 8.40208 14.3026 8.59041C14.3316 9.14847 14.313 9.70767 14.3142 10.2669C14.3142 10.7683 14.3142 11.2709 14.3142 11.7689C14.3142 12 14.3073 12.2311 14.0823 12.3813C13.8713 12.4806 13.6603 12.5823 13.433 12.4205C13.3137 12.2731 13.2549 12.0861 13.2684 11.8971C13.2545 10.8319 13.2603 9.7666 13.2684 8.70133C13.2567 8.54403 13.2983 8.38738 13.3867 8.2565Z" fill="#FEE351"/>
<path d="M29.8261 42.6595C29.644 42.8039 29.6487 43.0061 29.6487 43.2118C29.6487 44.1931 29.6452 45.174 29.6382 46.1546C29.3973 46.091 29.1666 45.9937 28.953 45.8657C28.953 44.5347 28.953 43.2033 28.953 41.8715C28.9446 41.5752 29.0066 41.281 29.1339 41.0131C29.3704 41.5584 29.6951 42.0691 29.8261 42.6595Z" fill="#FDB533"/>
<path d="M10.7003 13.3934L10.6934 8.94401C10.8454 8.8515 11.0168 8.79498 11.1942 8.77879C11.4354 8.76031 11.5015 8.93824 11.5061 9.11039C11.5386 10.3813 11.5652 11.6453 11.4922 12.9116C11.484 12.9689 11.4634 13.0237 11.4319 13.0722C11.2371 13.2883 11.0342 13.4893 10.7003 13.3934Z" fill="#FED749"/>
<path d="M12.0023 8.53962C12.1546 8.45921 12.3267 8.42356 12.4985 8.43679C12.8034 8.35129 12.8011 8.5893 12.8185 8.76261C12.8579 9.16469 12.8336 9.57139 12.8347 9.97347C12.8347 10.8227 12.8289 11.673 12.8521 12.5234C12.6121 12.8539 12.3362 12.9509 11.9663 12.8365C11.9242 12.7609 11.8996 12.6768 11.8944 12.5904C11.8388 11.3449 11.8678 10.0994 11.8782 8.85273C11.8786 8.73653 11.9229 8.62474 12.0023 8.53962Z" fill="#FEDD4D"/>
<path d="M12.7838 12.595C12.6678 12.3038 12.698 12 12.698 11.6984C12.698 10.7464 12.698 9.79547 12.698 8.84342C12.698 8.68282 12.764 8.47716 12.5009 8.43673C12.7814 8.31678 13.0837 8.25543 13.389 8.25648C13.389 9.41881 13.3971 10.5823 13.389 11.7446C13.3825 11.9736 13.4126 12.2021 13.4782 12.4217C13.2881 12.64 13.062 12.7198 12.7838 12.595Z" fill="#FEE04F"/>
<path d="M14.0012 12.3281C14.1531 12.2322 14.1798 12.0913 14.1786 11.9203C14.1786 10.7949 14.1786 9.67071 14.1786 8.54652C14.1786 8.394 14.2238 8.21145 13.9873 8.1791C14.269 8.04623 14.567 8.10747 14.865 8.08667L14.8801 8.10631C14.9594 8.19266 15.0029 8.3058 15.0018 8.42289C15.0211 9.56134 15.0211 10.7002 15.0018 11.8394C15.0091 11.9415 14.9827 12.0432 14.9266 12.1289C14.8705 12.2146 14.7878 12.2797 14.6911 12.3143C14.4603 12.3628 14.2343 12.513 14.0012 12.3281Z" fill="#FEE653"/>
<path d="M12.0023 8.53955V12.848C11.8353 13.1034 11.615 13.22 11.3066 13.1161C11.3828 12.9746 11.4136 12.8133 11.3947 12.6539C11.3947 11.5193 11.3947 10.3847 11.3947 9.25012C11.3947 9.06294 11.4214 8.86653 11.1953 8.7741C11.4512 8.65658 11.7231 8.57754 12.0023 8.53955Z" fill="#FEDA4B"/>
<path d="M2.44523 41.9685C2.66552 42.0771 2.61218 42.2816 2.61218 42.4619C2.61218 43.655 2.61218 44.8489 2.61218 46.0436C2.42634 46.1638 2.21945 46.248 2.00233 46.292C1.76117 46.1268 1.79595 45.8691 1.78668 45.6299C1.76233 44.9587 1.82609 44.2862 1.74841 43.6161C1.95943 43.0557 2.15305 42.4919 2.44523 41.9685Z" fill="#FDB231"/>
<path d="M19.9131 40.8467C19.9131 41.6612 19.9131 42.4769 19.9131 43.2915C19.931 43.4629 19.8988 43.6358 19.8203 43.7895C19.464 42.9637 19.1073 42.138 18.7502 41.3123C18.676 41.1436 18.6853 41.0454 18.8963 41.0154C19.2371 40.9726 19.5745 40.9079 19.9131 40.8467Z" fill="#FEDF4F"/>
<path d="M1.75071 43.6196C1.9826 43.667 1.91419 43.8507 1.91535 43.9986C1.9223 44.5543 1.92462 45.1101 1.91535 45.667C1.9123 45.8798 1.94242 46.0919 2.00463 46.2955C1.68347 46.4758 1.3681 46.4862 1.09448 46.217C0.820854 45.9477 0.846365 45.6589 0.99709 45.3446C1.27651 44.775 1.43651 44.1615 1.75071 43.6196Z" fill="#FDB030"/>
<path d="M4.37337 13.0444C4.48931 13.1842 4.43714 13.3483 4.43714 13.5066C4.43714 15.5909 4.43714 17.6752 4.43714 19.7596C4.42369 20.0715 4.48531 20.3821 4.61685 20.6654C4.68641 21.2304 4.60757 21.7619 4.26902 22.2379C4.10554 21.8428 4.26902 21.4453 4.26902 21.0502C4.26902 18.7128 4.26902 16.3766 4.26902 14.0392C4.26902 13.7746 4.18786 13.5297 4.16699 13.2732C4.23656 13.1935 4.30497 13.1172 4.37337 13.0444Z" fill="#FDBB36"/>
<path d="M4.27131 22.2333C4.38725 21.7087 4.50319 21.1846 4.61913 20.6608L5.23826 19.0178L5.94203 17.7226L6.61334 16.7625L7.57682 15.6568L8.4429 14.8665L9.30783 14.2264C9.51111 14.0916 9.71478 13.9572 9.91884 13.8232L10.7014 13.3934L11.3078 13.1161L12.0035 12.848L12.7861 12.595L13.4817 12.4217L14.0035 12.3281L14.618 12.2414C14.9357 12.2287 15.2278 11.9041 15.5687 12.1617C15.9583 12.1617 16.3455 12.1617 16.6122 12.5164C16.6813 12.6449 16.7106 12.791 16.6961 12.9362C16.6817 13.0813 16.6243 13.2188 16.5312 13.3313C16.438 13.4438 16.3135 13.5261 16.1732 13.5678C16.033 13.6096 15.8835 13.6088 15.7438 13.5655C15.5119 13.5551 15.258 13.5147 15.0296 13.636C15.0087 13.673 14.9855 13.673 14.96 13.636C14.7281 13.636 14.4858 13.6129 14.2644 13.7273C13.9901 13.7199 13.7179 13.7773 13.4701 13.8948C13.2591 13.8951 13.052 13.9522 12.8707 14.06C12.6388 14.1374 12.3803 14.1548 12.1751 14.3038L11.5664 14.5638C11.2562 14.6732 10.9645 14.829 10.7014 15.0259C10.4209 15.1715 10.1322 15.3067 9.91188 15.5436C9.65649 15.6799 9.42475 15.8562 9.22551 16.0658C8.9892 16.2357 8.77737 16.4371 8.59594 16.6643C8.32324 16.8846 8.08829 17.1476 7.90029 17.443C7.6248 17.7263 7.39239 18.0482 7.21044 18.3985C6.88812 18.7914 6.69449 19.2408 6.49391 19.703C6.12886 20.4436 5.88053 21.2359 5.75769 22.0519C5.65915 22.3496 5.61977 22.6635 5.64174 22.9762C5.54435 23.2662 5.65798 23.5712 5.57682 23.8624C5.57963 24.02 5.53909 24.1753 5.45958 24.3116C5.38007 24.4479 5.26464 24.5598 5.1258 24.6354C4.92205 24.6693 4.71296 24.6511 4.51826 24.5822C4.17044 24.3661 4.14957 24.0322 4.17044 23.6729C4.18551 23.4303 4.1774 23.1853 4.17856 22.9415C4.25624 22.7971 4.17855 22.6296 4.2458 22.4794L4.27131 22.2333Z" fill="#FEFEFE"/>
<path d="M14.9576 13.6395C14.9685 13.6344 14.9804 13.6317 14.9924 13.6317C15.0045 13.6317 15.0163 13.6344 15.0272 13.6395C15.6533 13.658 15.6533 13.658 15.6533 14.275C15.6533 22.5545 15.6533 30.8349 15.6533 39.1159C15.6533 39.8427 15.804 39.8184 14.9646 39.8022C14.96 31.0798 14.9576 22.3589 14.9576 13.6395Z" fill="#FEEA56"/>
<path d="M4.25391 22.4817C4.27916 22.639 4.2557 22.8002 4.18666 22.9438C4.19593 22.7856 4.12405 22.6192 4.25391 22.4817Z" fill="#FDBB36"/>
<path d="M5.58375 23.8624C5.58375 23.5655 5.52809 23.2651 5.64867 22.9774C5.63128 23.2709 5.72867 23.5748 5.58375 23.8624Z" fill="#FDC43C"/>
<path d="M15.5663 12.1617L14.6156 12.2415C14.837 12.1583 14.8776 11.9965 14.8765 11.7724C14.866 10.55 14.8765 9.32756 14.8765 8.10631C14.9778 8.10884 15.0792 8.10614 15.1802 8.09822C15.484 8.06009 15.5768 8.18834 15.5733 8.48874C15.5582 9.71346 15.5663 10.937 15.5663 12.1617Z" fill="#FEE955"/>
</g>
<defs>
<clipPath id="clip0_10_4162">
<rect width="32" height="41.6438" fill="white" transform="translate(0 8)"/>
</clipPath>
</defs>
</svg>
