<svg width="33" height="32" viewBox="0 0 33 32" fill="none" xmlns="http://www.w3.org/2000/svg">
<g id="Icon/Socmed/Google">
<path id="Vector" d="M29.5458 13.3887H28.4718V13.3334H16.4718V18.6667H24.0071C22.9078 21.7714 19.9538 24.0001 16.4718 24.0001C12.0538 24.0001 8.47176 20.4181 8.47176 16.0001C8.47176 11.5821 12.0538 8.00008 16.4718 8.00008C18.5111 8.00008 20.3664 8.76941 21.7791 10.0261L25.5504 6.25475C23.1691 4.03541 19.9838 2.66675 16.4718 2.66675C9.10843 2.66675 3.13843 8.63675 3.13843 16.0001C3.13843 23.3634 9.10843 29.3334 16.4718 29.3334C23.8351 29.3334 29.8051 23.3634 29.8051 16.0001C29.8051 15.1061 29.7131 14.2334 29.5458 13.3887Z" fill="#FFC107"/>
<path id="Vector_2" d="M4.67578 9.79408L9.05645 13.0067C10.2418 10.0721 13.1124 8.00008 16.4718 8.00008C18.5111 8.00008 20.3664 8.76941 21.7791 10.0261L25.5504 6.25475C23.1691 4.03541 19.9838 2.66675 16.4718 2.66675C11.3504 2.66675 6.90911 5.55808 4.67578 9.79408Z" fill="#FF3D00"/>
<path id="Vector_3" d="M16.4718 29.3333C19.9158 29.3333 23.0451 28.0153 25.4111 25.872L21.2845 22.38C19.9008 23.4322 18.2101 24.0013 16.4718 24C13.0038 24 10.0591 21.7886 8.94981 18.7026L4.60181 22.0526C6.80847 26.3706 11.2898 29.3333 16.4718 29.3333Z" fill="#4CAF50"/>
<path id="Vector_4" d="M29.5458 13.3887H28.4718V13.3334H16.4718V18.6667H24.0071C23.4813 20.1443 22.534 21.4355 21.2825 22.3807L21.2845 22.3794L25.4111 25.8714C25.1191 26.1367 29.8051 22.6667 29.8051 16C29.8051 15.106 29.7131 14.2334 29.5458 13.3887Z" fill="#1976D2"/>
</g>
</svg>
