<svg width="40" height="40" viewBox="0 0 40 40" fill="none" xmlns="http://www.w3.org/2000/svg">
<path fill-rule="evenodd" clip-rule="evenodd" d="M18.9642 4.43854L18.4651 5.41883C18.4474 5.45392 18.4145 5.47859 18.377 5.4852L17.3238 5.67493C17.0341 5.72705 16.7959 5.94146 16.7048 6.23162C16.614 6.52178 16.6854 6.84043 16.89 7.05935L17.6347 7.85512C17.6615 7.88361 17.6739 7.92323 17.6685 7.96249L17.5168 9.05989C17.4749 9.36221 17.5979 9.66349 17.836 9.84279C18.0739 10.0221 18.3881 10.0502 18.652 9.91577L19.6114 9.42684C19.6459 9.40947 19.6861 9.40947 19.7206 9.42684L20.68 9.91577C20.944 10.0502 21.2582 10.0221 21.496 9.84279C21.7342 9.66349 21.8571 9.36221 21.8152 9.05989L21.6635 7.96249C21.6581 7.92323 21.6705 7.88361 21.6973 7.85512L22.442 7.05935C22.6467 6.84043 22.718 6.52178 22.6272 6.23162C22.5361 5.94146 22.298 5.72705 22.0082 5.67493L20.955 5.4852C20.9175 5.47859 20.8847 5.45392 20.8669 5.41883L20.3678 4.43854C20.2301 4.16854 19.9601 4 19.666 4C19.3719 4 19.1019 4.16854 18.9642 4.43854Z" fill="white"/>
<path fill-rule="evenodd" clip-rule="evenodd" d="M28.9539 7.5437L27.7515 7.91481C27.7085 7.92821 27.6616 7.92072 27.6249 7.89509L26.596 7.17023C26.3128 6.97107 25.9425 6.94465 25.6337 7.10161C25.3253 7.25896 25.1289 7.57407 25.1238 7.92033L25.1052 9.17877C25.1045 9.22373 25.0832 9.26593 25.0469 9.29274L24.0401 10.0476C23.7628 10.255 23.6232 10.5993 23.6776 10.9412C23.7317 11.2835 23.9706 11.5675 24.2984 11.6795L25.4894 12.0857C25.532 12.1003 25.5655 12.1338 25.5801 12.1764L25.9867 13.3674C26.0983 13.6951 26.3826 13.9341 26.7245 13.9885C27.0664 14.0426 27.4107 13.903 27.6182 13.6257L28.373 12.6189C28.3998 12.5826 28.442 12.5613 28.4874 12.5605L29.7454 12.542C30.0917 12.5369 30.4068 12.3405 30.5641 12.0321C30.7215 11.7233 30.695 11.3529 30.4955 11.0698L29.771 10.0413C29.745 10.0042 29.7375 9.95765 29.7509 9.91427L30.122 8.71223C30.2242 8.38095 30.135 8.02089 29.8897 7.77599C29.6448 7.53108 29.2848 7.44156 28.9539 7.5437Z" fill="white"/>
<path fill-rule="evenodd" clip-rule="evenodd" d="M9.21 8.71223L9.58111 9.91427C9.59451 9.95765 9.58702 10.0042 9.56099 10.0413L8.83653 11.0698C8.63698 11.3529 8.61056 11.7233 8.76791 12.0321C8.92527 12.3405 9.24037 12.5369 9.58663 12.542L10.8447 12.5605C10.89 12.5613 10.9322 12.5826 10.959 12.6189L11.7139 13.6257C11.9213 13.903 12.2656 14.0426 12.6075 13.9885C12.9494 13.9341 13.2338 13.6951 13.3454 13.3674L13.752 12.1764C13.7666 12.1338 13.8001 12.1003 13.8427 12.0857L15.0337 11.6795C15.3614 11.5675 15.6004 11.2835 15.6544 10.9412C15.7088 10.5993 15.5692 10.255 15.292 10.0476L14.2852 9.29314C14.2489 9.26593 14.2276 9.22373 14.2268 9.17877L14.2083 7.92033C14.2031 7.57407 14.0067 7.25896 13.6983 7.10161C13.3895 6.94465 13.0192 6.97107 12.7361 7.17023L11.7072 7.89469C11.6705 7.92072 11.6235 7.92821 11.5806 7.91481L10.3781 7.5437C10.0473 7.44156 9.68719 7.53108 9.44229 7.77599C9.19699 8.02089 9.10786 8.38095 9.21 8.71223Z" fill="white"/>
<path d="M19.6663 35.7993C26.1093 35.7993 31.3325 30.5761 31.3325 24.133C31.3325 17.69 26.1093 12.4668 19.6663 12.4668C13.2232 12.4668 8 17.69 8 24.133C8 30.5761 13.2232 35.7993 19.6663 35.7993Z" fill="white"/>
<path fill-rule="evenodd" clip-rule="evenodd" d="M24.1574 25.1641L15.1705 25.1803C14.5542 25.1803 13.9749 25.4897 13.6299 26.0047C13.2849 26.5203 13.2192 27.1741 13.4555 27.7472C14.4467 30.1997 16.8555 31.9347 19.6661 31.9347C22.4749 31.9347 24.883 30.2016 25.8917 27.7541C26.1305 27.1753 26.0642 26.5159 25.7161 25.9959C25.368 25.4759 24.783 25.1641 24.1574 25.1641Z" fill="#0A072E"/>
<path fill-rule="evenodd" clip-rule="evenodd" d="M13.4874 27.8241C13.5274 27.7366 13.5749 27.6516 13.6299 27.5697C13.9749 27.0547 14.5542 26.7453 15.1705 26.7453L24.1574 26.7291C24.783 26.7291 25.368 27.0409 25.7161 27.5609C25.7724 27.6447 25.8211 27.7328 25.863 27.8228C25.8724 27.8003 25.8824 27.7772 25.8917 27.7541C26.1305 27.1753 26.0642 26.5159 25.7161 25.9959C25.368 25.4759 24.783 25.1641 24.1574 25.1641L15.1705 25.1803C14.5542 25.1803 13.9749 25.4897 13.6299 26.0047C13.2849 26.5203 13.2192 27.1741 13.4555 27.7472C13.4661 27.7728 13.4761 27.7984 13.4874 27.8241Z" fill="#0A072E"/>
<path fill-rule="evenodd" clip-rule="evenodd" d="M14.1752 21.787C14.2159 21.527 14.4165 21.3477 14.644 21.1877C14.7734 21.0964 14.9284 21.0458 15.089 20.9895C15.3096 20.912 15.5534 20.8789 15.8015 20.8939C16.0065 20.8814 16.2084 20.9008 16.3977 20.9533C16.5334 20.9908 16.6665 21.0233 16.7852 21.0852C17.1027 21.2502 17.3796 21.4627 17.4277 21.787C17.4277 21.9608 17.5684 22.102 17.7421 22.102C17.9159 22.102 18.0571 21.9608 18.0571 21.787C18.1421 21.2102 17.8465 20.6664 17.3734 20.2414C17.0877 19.9852 16.7165 19.8077 16.3152 19.7058C16.149 19.6639 15.9759 19.6508 15.8015 19.6445C15.5684 19.6539 15.3377 19.6795 15.1215 19.7483C14.784 19.8552 14.4709 20.0133 14.2252 20.2345C13.7509 20.662 13.4577 21.2089 13.5459 21.787C13.5459 21.9608 13.6871 22.102 13.8609 22.102C14.034 22.102 14.1752 21.9608 14.1752 21.787Z" fill="#0A072E"/>
<path fill-rule="evenodd" clip-rule="evenodd" d="M21.9037 21.787C21.945 21.527 22.145 21.3477 22.3731 21.1877C22.5019 21.0964 22.6575 21.0458 22.8175 20.9895C23.0387 20.912 23.2825 20.8789 23.53 20.8939C23.735 20.8814 23.9369 20.9008 24.1262 20.9533C24.2625 20.9908 24.395 21.0233 24.5137 21.0852C24.8319 21.2502 25.1081 21.4627 25.1562 21.787C25.1562 21.9608 25.2975 22.102 25.4706 22.102C25.6444 22.102 25.7856 21.9608 25.7856 21.787C25.8706 21.2102 25.5756 20.6664 25.1019 20.2414C24.8162 19.9852 24.445 19.8077 24.0437 19.7058C23.8781 19.6639 23.7044 19.6508 23.53 19.6445C23.2975 19.6539 23.0662 19.6795 22.85 19.7483C22.5125 19.8552 22.1994 20.0133 21.9537 20.2345C21.48 20.662 21.1862 21.2089 21.2744 21.787C21.2744 21.9608 21.4156 22.102 21.5894 22.102C21.7631 22.102 21.9037 21.9608 21.9037 21.787Z" fill="#0A072E"/>
<path fill-rule="evenodd" clip-rule="evenodd" d="M15.7882 30.1046C15.6769 30.3821 15.7775 30.699 16.0282 30.8615C17.0763 31.5415 18.325 31.9359 19.6657 31.9359C21.0057 31.9359 22.2544 31.5415 23.3032 30.8634C23.5544 30.7009 23.655 30.3834 23.5438 30.1059C22.9882 28.7184 21.47 27.6934 19.6657 27.6934C17.8619 27.6934 16.3444 28.7177 15.7882 30.1046Z" fill="#A3A3A3"/>
</svg>
