<svg width="24" height="24" viewBox="0 0 24 24" fill="none" xmlns="http://www.w3.org/2000/svg">
<path d="M12 2.25C6.61522 2.25 2.25 6.61522 2.25 12C2.25 17.3848 6.61522 21.75 12 21.75C17.3848 21.75 21.75 17.3848 21.75 12C21.75 6.61522 17.3848 2.25 12 2.25ZM1.75 12C1.75 6.33908 6.33908 1.75 12 1.75C17.6609 1.75 22.25 6.33908 22.25 12C22.25 17.6609 17.6609 22.25 12 22.25C6.33908 22.25 1.75 17.6609 1.75 12ZM6.88492 13.7781C7.00749 13.7145 7.15838 13.7623 7.22194 13.8849C7.53385 14.4865 8.15377 15.2064 8.99057 15.7754C9.82515 16.3429 10.8604 16.75 12 16.75C13.1396 16.75 14.1749 16.3429 15.0094 15.7754C15.8462 15.2064 16.4662 14.4865 16.7781 13.8849C16.8416 13.7623 16.9925 13.7145 17.1151 13.7781C17.2377 13.8416 17.2855 13.9925 17.2219 14.1151C16.8672 14.7992 16.1872 15.5792 15.2906 16.1889C14.3917 16.8001 13.2602 17.25 12 17.25C10.7398 17.25 9.60834 16.8001 8.70943 16.1889C7.81284 15.5792 7.13279 14.7992 6.77806 14.1151C6.71451 13.9925 6.76235 13.8416 6.88492 13.7781ZM9.5 8C9.5 8.27614 9.27614 8.5 9 8.5C8.72386 8.5 8.5 8.27614 8.5 8C8.5 7.72386 8.72386 7.5 9 7.5C9.27614 7.5 9.5 7.72386 9.5 8ZM15.5 8C15.5 8.27614 15.2761 8.5 15 8.5C14.7239 8.5 14.5 8.27614 14.5 8C14.5 7.72386 14.7239 7.5 15 7.5C15.2761 7.5 15.5 7.72386 15.5 8Z" stroke="#8D9296"/>
</svg>
