<svg width="24" height="24" viewBox="0 0 24 24" fill="none" xmlns="http://www.w3.org/2000/svg">
<path d="M10.5492 2.53269C11.3872 1.82569 12.6128 1.82569 13.4508 2.53269L20.2008 8.22723C20.7076 8.65474 21 9.28399 21 9.94698V19.7499C21 20.7164 20.2165 21.4999 19.25 21.4999H16.25C15.2835 21.4999 14.5 20.7164 14.5 19.7499V14.7499C14.5 14.3357 14.1642 13.9999 13.75 13.9999H10.25C9.83579 13.9999 9.5 14.3357 9.5 14.7499V19.7499C9.5 20.7164 8.7165 21.4999 7.75 21.4999H4.75C3.7835 21.4999 3 20.7164 3 19.7499V9.94698C3 9.28399 3.29241 8.65474 3.79916 8.22723L10.5492 2.53269Z" fill="#006EFF"/>
</svg>
