<svg width="24" height="24" viewBox="0 0 24 24" fill="none" xmlns="http://www.w3.org/2000/svg">
<path d="M2.94385 8.77992L2.94386 8.77993L2.94521 8.77873L9.83517 2.67175C11.1159 1.59514 12.8841 1.59514 14.1648 2.67175L21.0548 8.77873L21.0548 8.77878L21.058 8.78149C21.7426 9.35464 22.1357 10.2361 22.1357 11.1178V18.4477C22.0351 20.3009 20.6561 21.6573 18.8914 21.6573H5.10857C3.33841 21.6573 1.86429 20.1958 1.86429 18.4518V11.1178C1.86429 10.2376 2.25643 9.37463 2.94385 8.77992ZM10.9924 3.95957L10.9831 3.96564L10.9748 3.97302L4.0913 10.0743C3.72348 10.3207 3.62143 10.7883 3.62143 11.2183V18.5522C3.62143 19.3387 4.30611 20.0284 5.10857 20.0284H18.7886C19.5896 20.0284 20.2757 19.3603 20.2757 18.5522V11.2183C20.2757 10.7894 20.0656 10.4627 19.8738 10.1643C19.8626 10.147 19.8516 10.1298 19.8406 10.1127L19.8294 10.0951L19.8138 10.0813L12.925 3.97534C12.6847 3.74236 12.3361 3.63388 12 3.63388C11.6572 3.63388 11.3206 3.74589 10.9924 3.95957Z" fill="#252525" stroke="white" stroke-width="0.3"/>
</svg>
