<svg width="72" height="67" viewBox="0 0 72 67" fill="none" xmlns="http://www.w3.org/2000/svg">
<path d="M0 4C0 1.79086 1.79086 0 4 0H68C70.2091 0 72 1.79086 72 4V67H0V4Z" fill="#EFEEEE"/>
<path fill-rule="evenodd" clip-rule="evenodd" d="M45.9168 37.2589C43.2518 39.9239 39.6373 41.4211 35.8684 41.4211C32.0996 41.4211 28.4851 39.9239 25.8201 37.2589C23.1551 34.5939 21.6579 30.9794 21.6579 27.2105C21.6579 23.4417 23.1551 19.8272 25.8201 17.1622C28.4851 14.4972 32.0996 13 35.8684 13C39.6373 13 43.2518 14.4972 45.9168 17.1622C48.5818 19.8272 50.0789 23.4417 50.0789 27.2105C50.0789 30.9794 48.5818 34.5939 45.9168 37.2589ZM11 66.5448C11 55.6094 19.8594 46.75 30.7948 46.75H40.942C51.8775 46.75 60.7368 55.6094 60.7368 66.5448C60.7368 66.6993 60.7262 66.8512 60.7057 67H11.0312C11.0106 66.8512 11 66.6993 11 66.5448Z" fill="#D3D3D3"/>
</svg>
