<svg width="24" height="24" viewBox="0 0 24 24" fill="none" xmlns="http://www.w3.org/2000/svg">
<path fill-rule="evenodd" clip-rule="evenodd" d="M13.6299 14.9653C14.7222 14.9653 15.6113 15.848 15.6113 16.9331V19.7237C15.6113 19.9568 15.7982 20.1437 16.0377 20.1492H17.7668C19.1295 20.1492 20.2372 19.0551 20.2372 17.7106V9.79597C20.2308 9.33329 20.0104 8.89782 19.6321 8.60842L13.6508 3.83826C12.8479 3.20229 11.7247 3.20229 10.9191 3.84007L4.97865 8.60661C4.58582 8.90508 4.36537 9.34055 4.36083 9.81139V17.7106C4.36083 19.0551 5.46855 20.1492 6.83119 20.1492H8.57668C8.82254 20.1492 9.02213 19.9541 9.02213 19.7146C9.02213 19.662 9.02848 19.6094 9.03936 19.5595V16.9331C9.03936 15.8544 9.923 14.9726 11.0071 14.9653H13.6299ZM17.7668 21.51H16.0213C15.0216 21.4864 14.2504 20.7017 14.2504 19.7237V16.9331C14.2504 16.5983 13.9719 16.3261 13.6299 16.3261H11.0117C10.6769 16.328 10.4002 16.601 10.4002 16.9331V19.7146C10.4002 19.7827 10.3911 19.848 10.3721 19.9097C10.2741 20.8078 9.50658 21.51 8.57668 21.51H6.83119C4.71827 21.51 3 19.8053 3 17.7106V9.80504C3.00907 8.90327 3.42458 8.0777 4.14219 7.53427L10.0709 2.7759C11.3764 1.74167 13.1953 1.74167 14.4981 2.77409L20.4694 7.53699C21.1707 8.07135 21.5862 8.8951 21.598 9.78599V17.7106C21.598 19.8053 19.8797 21.51 17.7668 21.51Z" fill="url(#paint0_linear_3135_14404)"/>
<defs>
<linearGradient id="paint0_linear_3135_14404" x1="18.8714" y1="18.6497" x2="5.09781" y2="5.51993" gradientUnits="userSpaceOnUse">
<stop stop-color="#007AF5"/>
<stop offset="0.131" stop-color="#007AF5"/>
<stop offset="0.35" stop-color="#1884FF"/>
<stop offset="0.629" stop-color="#34ADFF"/>
<stop offset="0.954" stop-color="#5AE6FF"/>
<stop offset="1" stop-color="#60EFFF"/>
</linearGradient>
</defs>
</svg>
