<svg width="24" height="24" viewBox="0 0 24 24" fill="none" xmlns="http://www.w3.org/2000/svg">
<path d="M10.5495 2.53214C11.3874 1.82555 12.6126 1.82555 13.4505 2.53214L20.2005 8.22425C20.7074 8.65176 21 9.28115 21 9.94431V19.7471C21 20.7136 20.2165 21.4971 19.25 21.4971H15.75C14.7835 21.4971 14 20.7136 14 19.7471V14.2471C14 14.109 13.8881 13.9971 13.75 13.9971H10.25C10.1119 13.9971 9.99999 14.109 9.99999 14.2471V19.7471C9.99999 20.7136 9.2165 21.4971 8.25 21.4971H4.75C3.7835 21.4971 3 20.7136 3 19.7471V9.94431C3 9.28115 3.29255 8.65176 3.79952 8.22425L10.5495 2.53214ZM12.4835 3.67884C12.2042 3.44331 11.7958 3.44331 11.5165 3.67884L4.76651 9.37095C4.59752 9.51346 4.5 9.72325 4.5 9.94431V19.7471C4.5 19.8851 4.61193 19.9971 4.75 19.9971H8.25C8.38807 19.9971 8.49999 19.8851 8.49999 19.7471V14.2471C8.49999 13.2806 9.2835 12.4971 10.25 12.4971H13.75C14.7165 12.4971 15.5 13.2806 15.5 14.2471V19.7471C15.5 19.8851 15.6119 19.9971 15.75 19.9971H19.25C19.3881 19.9971 19.5 19.8851 19.5 19.7471V9.94431C19.5 9.72325 19.4025 9.51346 19.2335 9.37095L12.4835 3.67884Z" fill="#667085"/>
</svg>
