<svg width="24" height="24" viewBox="0 0 24 24" fill="none" xmlns="http://www.w3.org/2000/svg">
<path d="M6.02344 20.9238H17.9766C18.8959 20.9238 19.6438 20.1759 19.6438 19.2566V10.748C19.6438 10.4098 19.3696 10.1355 19.0313 10.1355C18.693 10.1355 18.4188 10.4098 18.4188 10.748V19.2566C18.4188 19.5004 18.2204 19.6988 17.9766 19.6988H6.02344C5.77965 19.6988 5.58125 19.5004 5.58125 19.2566V10.748C5.58125 10.4098 5.30704 10.1355 4.96875 10.1355C4.63046 10.1355 4.35625 10.4098 4.35625 10.748V19.2566C4.35625 20.1759 5.10412 20.9238 6.02344 20.9238Z" fill="#7C7C7C" stroke="#7C7C7C" stroke-width="0.1"/>
<path d="M20.4375 12.7667C20.2808 12.7667 20.124 12.7069 20.0044 12.5873L13.0087 5.59162C12.4526 5.03543 11.5475 5.03542 10.9913 5.59162L3.99561 12.5873C3.75643 12.8265 3.3686 12.8265 3.12942 12.5873C3.12941 12.5873 3.12941 12.5873 3.12941 12.5873L20.4375 12.7667ZM20.4375 12.7667C20.5942 12.7667 20.751 12.7069 20.8706 12.5873C21.1098 12.3481 21.1098 11.9603 20.8706 11.7211L13.8749 4.72539C12.8411 3.69154 11.1589 3.69154 10.1251 4.72539L3.12942 11.7211L20.4375 12.7667Z" fill="#7C7C7C" stroke="#7C7C7C" stroke-width="0.1"/>
<path d="M9.75 20.9231H14.25C14.5883 20.9231 14.8625 20.6488 14.8625 20.3106V15.3184C14.8625 14.3215 14.0516 13.5105 13.0547 13.5105H10.9453C9.94844 13.5105 9.1375 14.3215 9.1375 15.3184V20.3106C9.1375 20.6488 9.41171 20.9231 9.75 20.9231ZM13.6375 15.3184V19.6981H10.3625V15.3184C10.3625 14.997 10.624 14.7355 10.9453 14.7355H13.0547C13.376 14.7355 13.6375 14.997 13.6375 15.3184Z" fill="#7C7C7C" stroke="#7C7C7C" stroke-width="0.1"/>
</svg>
