<svg width="24" height="24" viewBox="0 0 24 24" fill="none" xmlns="http://www.w3.org/2000/svg">
<path d="M22 11.0612V17.3528C21.9876 17.3671 21.9776 17.3835 21.9707 17.4012C21.7926 18.4013 20.913 19.0027 19.9573 19C14.6463 18.9873 9.33565 18.9853 4.02535 18.994C2.82157 18.994 2.00277 18.1759 2.00277 16.9731C2.00277 15.0852 2.00277 13.1968 2.00005 11.3084C1.99797 11.0479 2.05869 10.7908 2.17706 10.5587C2.86555 9.17991 3.55622 7.80273 4.23277 6.41848C4.70135 5.45907 5.45066 4.9973 6.52086 5.00001C10.1653 5.00979 13.8098 5.00381 17.4542 5.00436C17.5715 5.00436 17.6893 5.00436 17.8055 5.01359C18.5896 5.09019 19.2118 5.44821 19.5903 6.14359C19.9687 6.83897 20.3043 7.54576 20.6491 8.25255C21.1041 9.18642 21.5499 10.1246 22 11.0612ZM4.49177 10.1752H4.74099C5.79545 10.1752 6.84991 10.1752 7.90437 10.1752C7.99503 10.1746 8.08566 10.179 8.17585 10.1882C8.60046 10.2355 8.86923 10.4729 9.00117 10.8803C9.09229 11.1852 9.20459 11.4832 9.33728 11.7724C10.1425 13.4255 11.9528 13.7107 13.2429 13.1202C14.1415 12.7101 14.6226 11.9435 14.8925 11.0276C15.0733 10.412 15.3784 10.1746 16.024 10.1746H19.4572C19.4198 10.0882 19.397 10.029 19.3687 9.97199C18.9181 9.05604 18.4609 8.14335 18.0194 7.22252C17.9016 6.97642 17.7398 6.88352 17.471 6.88406C13.819 6.88985 10.1671 6.88985 6.51544 6.88406C6.24395 6.88406 6.07562 6.98565 5.95997 7.22415C5.67817 7.80272 5.38659 8.37696 5.09935 8.95282C4.90226 9.34832 4.70624 9.74327 4.49177 10.1752Z" fill="url(#paint0_linear_1080_14096)"/>
<defs>
<linearGradient id="paint0_linear_1080_14096" x1="12" y1="5" x2="12" y2="19" gradientUnits="userSpaceOnUse">
<stop stop-color="#9AE6F6"/>
<stop offset="1" stop-color="#00C0FD"/>
</linearGradient>
</defs>
</svg>
