<svg width="24" height="24" viewBox="0 0 24 24" fill="none" xmlns="http://www.w3.org/2000/svg">
<path fill-rule="evenodd" clip-rule="evenodd" d="M5.35241 15.3857V21.9018C5.35241 22.65 5.75012 23.3409 6.39726 23.7163C7.04441 24.0918 7.84155 24.0943 8.49127 23.7232C9.63384 23.0709 11.025 22.2755 11.8101 21.8272C11.9284 21.7595 12.0724 21.7595 12.1907 21.8272C12.9758 22.2755 14.367 23.0709 15.5096 23.7232C16.1593 24.0943 16.9564 24.0918 17.6036 23.7163C18.2507 23.3409 18.6484 22.65 18.6484 21.9018V15.3857C20.187 13.7512 21.1307 11.55 21.1307 9.1303C21.1307 4.09115 17.0396 0 12.0004 0C6.96127 0 2.87012 4.09115 2.87012 9.1303C2.87012 11.55 3.81384 13.7512 5.35241 15.3857ZM12.0004 1.71429C16.0933 1.71429 19.4164 5.03744 19.4164 9.1303C19.4164 13.2232 16.0933 16.5463 12.0004 16.5463C7.90755 16.5463 4.58441 13.2232 4.58441 9.1303C4.58441 5.03744 7.90755 1.71429 12.0004 1.71429ZM12.6973 3.696C12.5361 3.47143 12.2764 3.33857 12.0004 3.33857C11.7244 3.33857 11.4647 3.47143 11.3036 3.696L9.65613 5.99401L6.96213 6.85115C6.69898 6.93429 6.49155 7.14001 6.40669 7.40316C6.32098 7.66544 6.36727 7.95344 6.53098 8.17544L8.20755 10.4529L8.18956 13.2797C8.18784 13.5566 8.31984 13.8163 8.54356 13.9792C8.76642 14.1412 9.05442 14.1857 9.3167 14.0992L12.0004 13.2086L14.6841 14.0992C14.9464 14.1857 15.2344 14.1412 15.4573 13.9792C15.681 13.8163 15.813 13.5566 15.8113 13.2797L15.7933 10.4529L17.4699 8.17544C17.6336 7.95344 17.6799 7.66544 17.5941 7.40316C17.5093 7.14001 17.3019 6.93429 17.0387 6.85115L14.3447 5.99401L12.6973 3.696Z" fill="url(#paint0_linear_1080_15480)"/>
<defs>
<linearGradient id="paint0_linear_1080_15480" x1="12.0004" y1="0" x2="12.0004" y2="23.9997" gradientUnits="userSpaceOnUse">
<stop stop-color="#FFCE00"/>
<stop offset="1" stop-color="#FD6700"/>
</linearGradient>
</defs>
</svg>
