<svg width="24" height="24" viewBox="0 0 24 24" fill="none" xmlns="http://www.w3.org/2000/svg">
<circle cx="12" cy="12" r="10.5" fill="#1ED760"/>
<path d="M16.7733 16.2172C16.5939 16.5019 16.2112 16.5816 15.9122 16.4108C13.5562 15.0445 10.6023 14.7371 7.11018 15.4885C6.77532 15.5569 6.44046 15.3633 6.3687 15.0445C6.29695 14.7257 6.50025 14.4069 6.83511 14.3386C10.6501 13.5074 13.927 13.8604 16.558 15.3975C16.857 15.5682 16.9526 15.9326 16.7733 16.2172ZM17.9931 13.6213C17.7659 13.9742 17.2875 14.0767 16.9168 13.8718C14.2259 12.2892 10.1239 11.8337 6.94275 12.756C6.52417 12.8698 6.09364 12.6535 5.97405 12.2664C5.85445 11.8679 6.08168 11.458 6.50025 11.3442C10.1359 10.2967 14.6565 10.7977 17.7539 12.608C18.1007 12.8129 18.2203 13.2683 17.9931 13.6213ZM18.1007 10.9115C14.8717 9.08981 9.54986 8.91903 6.46438 9.80711C5.97405 9.95512 5.44784 9.69325 5.29237 9.21505C5.1369 8.74824 5.42392 8.24727 5.91425 8.09926C9.45419 7.07455 15.3381 7.27949 19.0455 9.37445C19.488 9.62494 19.6315 10.1714 19.3684 10.5927C19.1173 11.0254 18.5432 11.1734 18.1007 10.9115Z" fill="white"/>
</svg>
