<svg width="24" height="24" viewBox="0 0 24 24" fill="none" xmlns="http://www.w3.org/2000/svg">
<path fill-rule="evenodd" clip-rule="evenodd" d="M21 18C21 17.25 21 15.75 19.5 15.75H18C15.9292 15.75 14.25 14.0708 14.25 12C14.25 9.92925 15.9292 8.25 18 8.25H19.5C21 8.25 21 6.75 21 6C21 3 15.924 3 12 3C5.25 3 2.25 3.75 2.25 12C2.25 20.25 5.25 21 12 21C15.924 21 21 21 21 18ZM21.6187 10.449C21.5467 10.1663 21.3157 9.95175 21.0277 9.90075C20.55 9.83175 19.9575 9.75 18.75 9.75H17.9948C16.755 9.75 15.75 10.755 15.75 11.9948V12.0052C15.75 13.245 16.755 14.25 17.9948 14.25H18.75C19.9575 14.25 20.55 14.1682 21.0285 14.103C21.318 14.052 21.5505 13.836 21.6232 13.5518C21.6833 13.2135 21.75 12.6967 21.75 12C21.75 11.3033 21.6832 10.7865 21.6187 10.449ZM18 11.25C18.414 11.25 18.75 11.586 18.75 12C18.75 12.414 18.414 12.75 18 12.75C17.586 12.75 17.25 12.414 17.25 12C17.25 11.586 17.586 11.25 18 11.25Z" fill="url(#paint0_linear_1080_14129)"/>
<defs>
<linearGradient id="paint0_linear_1080_14129" x1="12" y1="20.9999" x2="12" y2="2.99994" gradientUnits="userSpaceOnUse">
<stop stop-color="#9644FE"/>
<stop offset="1" stop-color="#CBA2FF"/>
</linearGradient>
</defs>
</svg>
