<svg width="15" height="14" viewBox="0 0 15 14" fill="none" xmlns="http://www.w3.org/2000/svg">
<path d="M1.66174 7.41598C1.5823 7.29019 1.54257 7.2273 1.52034 7.13029C1.50364 7.05742 1.50364 6.9425 1.52034 6.86963C1.54257 6.77262 1.5823 6.70973 1.66174 6.58394C2.31823 5.54445 4.27232 2.91663 7.25024 2.91663C10.2282 2.91663 12.1822 5.54445 12.8387 6.58394C12.9182 6.70973 12.9579 6.77262 12.9801 6.86963C12.9968 6.9425 12.9968 7.05742 12.9801 7.13029C12.9579 7.2273 12.9182 7.29019 12.8387 7.41598C12.1822 8.45547 10.2282 11.0833 7.25024 11.0833C4.27232 11.0833 2.31823 8.45547 1.66174 7.41598Z" stroke="#006EFF" stroke-linecap="round" stroke-linejoin="round"/>
<path d="M7.25024 8.74996C8.21673 8.74996 9.00024 7.96646 9.00024 6.99996C9.00024 6.03346 8.21673 5.24996 7.25024 5.24996C6.28374 5.24996 5.50024 6.03346 5.50024 6.99996C5.50024 7.96646 6.28374 8.74996 7.25024 8.74996Z" stroke="#006EFF" stroke-linecap="round" stroke-linejoin="round"/>
</svg>
