<svg width="16" height="17" viewBox="0 0 16 17" fill="none" xmlns="http://www.w3.org/2000/svg">
<g id="copy-03">
<path id="Icon" d="M5.3335 5.83325V3.96659C5.3335 3.21985 5.3335 2.84648 5.47882 2.56126C5.60665 2.31038 5.81063 2.10641 6.06151 1.97858C6.34672 1.83325 6.72009 1.83325 7.46683 1.83325H12.5335C13.2802 1.83325 13.6536 1.83325 13.9388 1.97858C14.1897 2.10641 14.3937 2.31038 14.5215 2.56126C14.6668 2.84648 14.6668 3.21985 14.6668 3.96659V9.03325C14.6668 9.77999 14.6668 10.1534 14.5215 10.4386C14.3937 10.6895 14.1897 10.8934 13.9388 11.0213C13.6536 11.1666 13.2802 11.1666 12.5335 11.1666H10.6668M3.46683 15.1666H8.5335C9.28023 15.1666 9.6536 15.1666 9.93882 15.0213C10.1897 14.8934 10.3937 14.6895 10.5215 14.4386C10.6668 14.1534 10.6668 13.78 10.6668 13.0333V7.96659C10.6668 7.21985 10.6668 6.84648 10.5215 6.56126C10.3937 6.31038 10.1897 6.10641 9.93882 5.97858C9.6536 5.83325 9.28023 5.83325 8.5335 5.83325H3.46683C2.72009 5.83325 2.34672 5.83325 2.06151 5.97858C1.81063 6.10641 1.60665 6.31038 1.47882 6.56126C1.3335 6.84648 1.3335 7.21985 1.3335 7.96659V13.0333C1.3335 13.78 1.3335 14.1534 1.47882 14.4386C1.60665 14.6895 1.81063 14.8934 2.06151 15.0213C2.34672 15.1666 2.72009 15.1666 3.46683 15.1666Z" stroke="#006EFF" stroke-linecap="round" stroke-linejoin="round"/>
</g>
</svg>
