<svg width="24" height="24" viewBox="0 0 24 24" fill="none" xmlns="http://www.w3.org/2000/svg">
<path d="M20.5 15L15.7714 12.3273C15.5419 12.1976 15.3404 12.0837 15.1622 11.9818M15.1622 11.9818C14.6097 11.6659 14.2806 11.465 14.0336 11.2642C11.9885 9.6022 11.5845 6.63816 13.1101 4.48938C13.3522 4.14841 13.7309 3.76912 14.485 3.015M15.1622 11.9818L15 12.5C14.7609 13.6955 14.6413 14.2933 14.653 14.8419C14.6842 16.3102 15.3593 17.6904 16.4991 18.6165C16.925 18.9625 17.4702 19.2351 18.5607 19.7804L18.7804 19.8902L18.9849 20.0113M14.485 3.015C13.7605 3 12.939 3 12 3C8.25027 3 6.3754 3 5.06107 3.95491C4.6366 4.26331 4.26331 4.6366 3.95492 5.06107C3 6.3754 3 8.25027 3 12C3 15.7497 3 17.6246 3.95491 18.9389C4.26331 19.3634 4.6366 19.7367 5.06107 20.0451C6.3754 21 8.25027 21 12 21C15.7497 21 17.6246 21 18.9389 20.0451C18.9543 20.0339 18.9697 20.0226 18.9849 20.0113M14.485 3.015C16.6536 3.05989 17.9537 3.23914 18.9389 3.95491C19.3634 4.26331 19.7367 4.6366 20.0451 5.06107C21 6.3754 21 8.25027 21 12C21 15.7497 21 17.6246 20.0451 18.9389C19.7479 19.348 19.3904 19.7095 18.9849 20.0113M9 15C10.1046 15 11 14.1046 11 13C11 11.8954 10.1046 11 9 11C7.89543 11 7 11.8954 7 13C7 14.1046 7.89543 15 9 15Z" stroke="#2AA447" stroke-width="1.5" stroke-linecap="round"/>
</svg>
