<svg width="24" height="24" viewBox="0 0 24 24" fill="none" xmlns="http://www.w3.org/2000/svg">
<path fill-rule="evenodd" clip-rule="evenodd" d="M16.3025 2C17.9105 2 19.2975 2.537 20.3125 3.554C21.3735 4.616 21.9555 6.161 21.9535 7.905L21.955 14.9014C21.9567 14.9283 21.957 14.9553 21.9559 14.9822L21.9535 16.05C21.9535 19.581 19.6805 21.954 16.2975 21.954H7.65149C4.27149 21.954 2.00049 19.581 2.00049 16.05V7.904C2.00049 4.373 4.27149 2 7.65149 2H16.3025ZM16.5791 12.8323C15.9911 12.8323 15.3011 13.8053 14.6901 14.6643C13.8521 15.8443 12.9851 17.0653 11.6791 17.0653C10.7961 17.0653 9.98709 16.7253 9.27409 16.4243C8.14009 15.9463 7.62609 15.7933 7.12309 16.2073C6.11619 17.037 5.12127 18.5479 4.66411 19.2914C5.38566 20.0354 6.41065 20.454 7.65149 20.454H16.2975C18.8225 20.454 20.4535 18.726 20.4535 16.05L20.4535 15.251L20.4304 15.2267C19.555 14.3248 18.0434 12.8323 16.5791 12.8323ZM16.3025 3.5H7.65149C5.13049 3.5 3.50049 5.229 3.50049 7.904V16.05C3.50049 16.7186 3.60224 17.328 3.79421 17.8661C4.3729 16.9923 5.24688 15.8094 6.17009 15.0493C7.42209 14.0193 8.77009 14.5853 9.85609 15.0423C10.4951 15.3113 11.0991 15.5653 11.6791 15.5653C12.2111 15.5653 12.8781 14.6253 13.4681 13.7963C14.2871 12.6403 15.2171 11.3323 16.5791 11.3323C18.0738 11.3323 19.4276 12.2509 20.4546 13.1624L20.4535 7.904C20.4555 6.541 20.0395 5.403 19.2515 4.614C18.5235 3.885 17.5045 3.5 16.3025 3.5ZM8.85749 6.1895C10.2885 6.1905 11.4525 7.3545 11.4535 8.7845C11.4535 10.2155 10.2895 11.3805 8.85749 11.3805C7.42549 11.3805 6.26149 10.2165 6.26149 8.7855C6.26149 7.3535 7.42549 6.1895 8.85749 6.1895ZM8.85649 7.6895C8.25249 7.6895 7.76149 8.1805 7.76149 8.7855C7.76149 9.3895 8.25249 9.8805 8.85749 9.8805C9.46149 9.8805 9.95349 9.3895 9.95349 8.7865C9.95249 8.1815 9.46049 7.6905 8.85649 7.6895Z" fill="#7C7C7C"/>
</svg>
