<svg width="33" height="32" viewBox="0 0 33 32" fill="none" xmlns="http://www.w3.org/2000/svg">
<circle cx="16.5" cy="16" r="16" fill="white"/>
<path d="M21.1502 10.9609C20.936 10.9609 20.7617 11.1352 20.7617 11.3494C20.7617 11.5635 20.936 11.7378 21.1502 11.7378C21.3643 11.7378 21.5386 11.5636 21.5386 11.3494C21.5386 11.1352 21.3643 10.9609 21.1502 10.9609Z" fill="#252525"/>
<path d="M16.4983 12.5566C14.5995 12.5566 13.0547 14.1015 13.0547 16.0003C13.0547 17.8991 14.5995 19.4439 16.4983 19.4439C18.3972 19.4439 19.942 17.8991 19.942 16.0003C19.942 14.1015 18.3972 12.5566 16.4983 12.5566Z" fill="#252525"/>
<path d="M20.1138 8H12.8862C10.4676 8 8.5 9.96763 8.5 12.3862V19.6138C8.5 22.0324 10.4676 24 12.8862 24H20.1138C22.5324 24 24.5 22.0324 24.5 19.6138V12.3862C24.5 9.96763 22.5324 8 20.1138 8ZM16.5 20.3885C14.0802 20.3885 12.1115 18.4198 12.1115 16C12.1115 13.5802 14.0802 11.6116 16.5 11.6116C18.9198 11.6116 20.8885 13.5802 20.8885 16C20.8885 18.4198 18.9198 20.3885 16.5 20.3885ZM21.151 12.6824C20.4158 12.6824 19.8177 12.0842 19.8177 11.3491C19.8177 10.6139 20.4158 10.0157 21.151 10.0157C21.8862 10.0157 22.4843 10.6138 22.4843 11.349C22.4843 12.0842 21.8862 12.6824 21.151 12.6824Z" fill="#252525"/>
</svg>
