<svg width="24" height="24" viewBox="0 0 24 24" fill="none" xmlns="http://www.w3.org/2000/svg">
<circle cx="12" cy="12" r="12" fill="#252525" fill-opacity="0.5"/>
<path d="M11.502 11.5311V10.8426C11.502 9.90758 11.1378 9.02844 10.4765 8.36712C10.3442 8.23479 10.2016 8.11365 10.0505 8.0044C10.2466 7.66189 10.3594 7.26579 10.3594 6.8436C10.3594 5.55125 9.30803 4.49985 8.01569 4.49985C6.72334 4.49985 5.67194 5.55125 5.67194 6.8436C5.67194 7.25967 5.78139 7.65046 5.97232 7.98952C5.05612 8.64231 4.50006 9.70467 4.50006 10.8426V11.5311C4.50006 11.7738 4.69682 11.9706 4.93951 11.9706H11.0626C11.3053 11.9706 11.502 11.7738 11.502 11.5311ZM8.01569 5.37875C8.8234 5.37875 9.48053 6.03588 9.48053 6.8436C9.48053 7.65131 8.8234 8.30844 8.01569 8.30844C7.20797 8.30844 6.55084 7.65131 6.55084 6.8436C6.55084 6.03588 7.20797 5.37875 8.01569 5.37875ZM10.6231 11.0916H5.37897V10.8426C5.37897 9.96588 5.81991 9.14903 6.54188 8.66419C6.9448 8.991 7.45767 9.18735 8.01569 9.18735C8.56755 9.18735 9.07506 8.99516 9.47596 8.67486C9.61143 8.76723 9.73852 8.87211 9.85506 8.9886C10.3503 9.48392 10.6231 10.1423 10.6231 10.8426V11.0916Z" fill="white"/>
<path d="M18.4746 15.8673C18.3293 15.722 18.1717 15.5901 18.0038 15.4727C18.1914 15.1385 18.299 14.7536 18.299 14.3438C18.299 13.0675 17.2607 12.0293 15.9845 12.0293C14.7083 12.0293 13.67 13.0675 13.67 14.3438C13.67 14.7597 13.7809 15.15 13.9737 15.4876C13.0569 16.1403 12.4982 17.2085 12.4982 18.3428V19.0605C12.4982 19.3032 12.6949 19.5 12.9376 19.5H19.0607C19.3034 19.5 19.5001 19.3032 19.5001 19.0605V18.3428C19.5001 17.4077 19.1359 16.5286 18.4746 15.8673ZM15.9845 12.9082C16.7761 12.9082 17.42 13.5522 17.42 14.3438C17.42 15.1353 16.7761 15.7793 15.9845 15.7793C15.1929 15.7793 14.549 15.1353 14.549 14.3438C14.549 13.5522 15.1929 12.9082 15.9845 12.9082ZM18.6212 18.6211H13.3771V18.3428C13.3771 17.4659 13.8231 16.6417 14.5497 16.1578C14.9445 16.4707 15.4429 16.6582 15.9845 16.6582C16.5323 16.6582 17.0359 16.4665 17.4328 16.1472C17.5839 16.2461 17.7249 16.3605 17.8531 16.4887C18.3484 16.9841 18.6212 17.6425 18.6212 18.3428V18.6211Z" fill="white"/>
<path d="M12.0001 8.22055H15.1055C15.3478 8.22055 15.545 8.41769 15.545 8.66V9.76704L15.3577 9.57975C15.1861 9.40813 14.9078 9.40813 14.7362 9.57975C14.5646 9.75137 14.5646 10.0296 14.7362 10.2012L15.6737 11.1387C15.7595 11.2245 15.872 11.2674 15.9844 11.2674C16.0969 11.2674 16.2094 11.2245 16.2952 11.1387L17.2327 10.2012C17.4043 10.0296 17.4043 9.75134 17.2327 9.57972C17.0611 9.4081 16.7828 9.4081 16.6112 9.57972L16.4239 9.76704V8.66C16.4239 7.93306 15.8325 7.34164 15.1055 7.34164H12.0001C11.7574 7.34164 11.5606 7.5384 11.5606 7.7811C11.5606 8.02379 11.7574 8.22055 12.0001 8.22055Z" fill="white"/>
<path d="M12.0001 15.7793H8.89461C8.65229 15.7793 8.45515 15.5822 8.45515 15.3399V14.2328L8.64248 14.4201C8.72826 14.506 8.84073 14.5488 8.9532 14.5488C9.06567 14.5488 9.17814 14.506 9.26392 14.4201C9.43554 14.2485 9.43554 13.9703 9.26392 13.7986L8.32642 12.8611C8.15483 12.6895 7.87657 12.6895 7.70495 12.8611L6.76745 13.7986C6.59583 13.9703 6.59583 14.2485 6.76745 14.4201C6.93904 14.5917 7.2173 14.5917 7.38892 14.4201L7.57625 14.2328V15.3399C7.57625 16.0668 8.16766 16.6582 8.89461 16.6582H12.0001C12.2428 16.6582 12.4395 16.4615 12.4395 16.2188C12.4395 15.9761 12.2428 15.7793 12.0001 15.7793Z" fill="white"/>
</svg>
