<svg width="56" height="56" viewBox="0 0 56 56" fill="none" xmlns="http://www.w3.org/2000/svg">
<circle cx="24.6252" cy="39.2737" r="1.5" transform="rotate(15 24.6252 39.2737)" fill="#252525" stroke="#252525"/>
<path fill-rule="evenodd" clip-rule="evenodd" d="M22.6023 8.19127L41.9208 13.3677C42.1875 13.4391 42.3458 13.7133 42.2744 13.98L33.4745 46.8215C33.403 47.0882 33.1289 47.2465 32.8621 47.1751L13.5436 41.9987C13.2769 41.9272 13.1186 41.653 13.1901 41.3863L16.2959 29.7952L13.8811 29.1481L10.7753 40.7393C10.3464 42.3397 11.2962 43.9847 12.8966 44.4135L32.2151 49.5899C33.8155 50.0187 35.4605 49.069 35.8893 47.4686L44.6892 14.6271C45.118 13.0267 44.1683 11.3817 42.5679 10.9528L23.2493 5.77646C21.6489 5.34763 20.0039 6.29738 19.5751 7.89778L15.434 23.3526L17.8488 23.9996L21.9899 8.54482C22.0614 8.27809 22.3356 8.1198 22.6023 8.19127Z" fill="#252525"/>
<line x1="26.0735" y1="14.5563" x2="35.7328" y2="17.1445" stroke="#252525" stroke-width="2.5"/>
</svg>
