<svg width="16" height="12" viewBox="0 0 16 12" fill="none" xmlns="http://www.w3.org/2000/svg">
<g clip-path="url(#clip0_1570_37595)">
<path d="M2.36363e-07 5.98311C0.031258 3.8148 0.788928 1.94541 2.29678 0.383771C2.54024 0.131581 2.86074 0.109977 3.08527 0.32866C3.3098 0.547342 3.30011 0.865667 3.05313 1.12227C2.08458 2.12001 1.4361 3.29278 1.19 4.66352C0.777042 6.96365 1.35201 8.99441 2.9171 10.7364C2.97213 10.7977 3.03156 10.8554 3.08659 10.9167C3.29879 11.1508 3.29791 11.4661 3.08659 11.6728C2.87527 11.8796 2.54817 11.8726 2.321 11.6424C1.42894 10.7444 0.762607 9.64701 0.376855 8.44065C0.126888 7.64549 -0.00020005 6.81674 2.36363e-07 5.98311Z" fill="url(#paint0_linear_1570_37595)"/>
<path d="M16 6.45982C15.9745 8.1793 15.2172 10.0491 13.7107 11.6121C13.4655 11.8669 13.1476 11.8912 12.9218 11.6756C12.6959 11.46 12.7016 11.1372 12.946 10.8842C13.9586 9.83838 14.6189 8.60785 14.8426 7.16525C15.1924 4.9258 14.6084 2.9606 13.0904 1.26963C13.0349 1.20834 12.9759 1.15059 12.92 1.08974C12.6999 0.851219 12.7034 0.53025 12.9244 0.321708C13.1454 0.113165 13.4554 0.130801 13.6781 0.355216C14.4192 1.09731 15.0056 1.9796 15.403 2.95075C15.8111 3.94452 16.0044 4.9502 16 6.45982Z" fill="url(#paint1_linear_1570_37595)"/>
<path d="M10.2754 5.99506C10.274 6.59737 10.0353 7.17478 9.61132 7.60195C9.18733 8.02912 8.61221 8.27158 8.0108 8.27669C7.4066 8.27611 6.82724 8.03584 6.39951 7.60848C5.97178 7.18112 5.73053 6.60147 5.72855 5.99639C5.73213 5.39406 5.97286 4.81747 6.39845 4.39184C6.82403 3.96622 7.4001 3.72592 8.00155 3.72314C8.60297 3.72557 9.17914 3.96555 9.6049 4.39094C10.0307 4.81633 10.2716 5.39278 10.2754 5.99506ZM9.21885 5.99947C9.21641 5.67623 9.08666 5.36702 8.8578 5.13907C8.62895 4.91112 8.31949 4.78286 7.99671 4.78217C7.67712 4.78581 7.3716 4.91434 7.14527 5.14034C6.91894 5.36634 6.78972 5.67193 6.78515 5.99198C6.78581 6.31475 6.91327 6.6243 7.13998 6.85373C7.36669 7.08317 7.67443 7.21405 7.99671 7.2181C8.31946 7.21683 8.62869 7.08818 8.85732 6.86004C9.08595 6.6319 9.21553 6.32268 9.21797 5.99947H9.21885Z" fill="url(#paint2_linear_1570_37595)"/>
<path d="M2.8678 5.97614C2.88849 4.60937 3.3666 3.41676 4.32062 2.42078C4.56452 2.16594 4.88414 2.14125 5.10911 2.35597C5.33408 2.57068 5.32395 2.89606 5.08534 3.14957C3.53346 4.79587 3.53258 7.20006 5.08269 8.84767C5.28521 9.06327 5.32791 9.304 5.20244 9.524C5.14875 9.62471 5.06224 9.70396 4.95731 9.74857C4.85237 9.79317 4.73535 9.80043 4.62572 9.76914C4.51641 9.73537 4.41727 9.67474 4.33735 9.59278C3.3644 8.58887 2.88145 7.38303 2.8678 5.97614Z" fill="url(#paint3_linear_1570_37595)"/>
<path d="M13.1331 6.20898C13.1186 7.3844 12.6396 8.5801 11.6803 9.58093C11.4368 9.83488 11.1168 9.85825 10.8918 9.64265C10.6668 9.42705 10.6791 9.10168 10.9182 8.84904C12.4674 7.21774 12.4674 4.78489 10.9182 3.1505C10.6791 2.89787 10.6681 2.57249 10.8913 2.3569C11.1146 2.1413 11.4359 2.16555 11.6803 2.41774C12.6233 3.38991 13.1331 4.64778 13.1331 6.20898Z" fill="url(#paint4_linear_1570_37595)"/>
</g>
<defs>
<linearGradient id="paint0_linear_1570_37595" x1="2.77042" y1="10.1148" x2="-1.48753" y2="8.92758" gradientUnits="userSpaceOnUse">
<stop stop-color="#0061FF"/>
<stop offset="0.131" stop-color="#066AFF"/>
<stop offset="0.35" stop-color="#1884FF"/>
<stop offset="0.629" stop-color="#34ADFF"/>
<stop offset="0.954" stop-color="#5AE6FF"/>
<stop offset="1" stop-color="#60EFFF"/>
</linearGradient>
<linearGradient id="paint1_linear_1570_37595" x1="15.5246" y1="10.1144" x2="11.2699" y2="8.9295" gradientUnits="userSpaceOnUse">
<stop stop-color="#0061FF"/>
<stop offset="0.131" stop-color="#066AFF"/>
<stop offset="0.35" stop-color="#1884FF"/>
<stop offset="0.629" stop-color="#34ADFF"/>
<stop offset="0.954" stop-color="#5AE6FF"/>
<stop offset="1" stop-color="#60EFFF"/>
</linearGradient>
<linearGradient id="paint2_linear_1570_37595" x1="9.60884" y1="7.6091" x2="6.39046" y2="4.39542" gradientUnits="userSpaceOnUse">
<stop stop-color="#0061FF"/>
<stop offset="0.131" stop-color="#066AFF"/>
<stop offset="0.35" stop-color="#1884FF"/>
<stop offset="0.629" stop-color="#34ADFF"/>
<stop offset="0.954" stop-color="#5AE6FF"/>
<stop offset="1" stop-color="#60EFFF"/>
</linearGradient>
<linearGradient id="paint3_linear_1570_37595" x1="4.92046" y1="8.67734" x2="1.83163" y2="7.69687" gradientUnits="userSpaceOnUse">
<stop stop-color="#0061FF"/>
<stop offset="0.131" stop-color="#066AFF"/>
<stop offset="0.35" stop-color="#1884FF"/>
<stop offset="0.629" stop-color="#34ADFF"/>
<stop offset="0.954" stop-color="#5AE6FF"/>
<stop offset="1" stop-color="#60EFFF"/>
</linearGradient>
<linearGradient id="paint4_linear_1570_37595" x1="12.7809" y1="8.6782" x2="9.69498" y2="7.7" gradientUnits="userSpaceOnUse">
<stop stop-color="#0061FF"/>
<stop offset="0.131" stop-color="#066AFF"/>
<stop offset="0.35" stop-color="#1884FF"/>
<stop offset="0.629" stop-color="#34ADFF"/>
<stop offset="0.954" stop-color="#5AE6FF"/>
<stop offset="1" stop-color="#60EFFF"/>
</linearGradient>
<clipPath id="clip0_1570_37595">
<rect width="16" height="11.644" fill="white" transform="translate(0 0.177979)"/>
</clipPath>
</defs>
</svg>
