<svg width="15" height="14" viewBox="0 0 15 14" fill="none" xmlns="http://www.w3.org/2000/svg">
<path fill-rule="evenodd" clip-rule="evenodd" d="M1.32147 7.63297H11.6539L8.55066 10.58C8.39426 10.7285 8.30639 10.9299 8.30639 11.1399C8.30639 11.35 8.39426 11.5514 8.55066 11.6999C8.70698 11.8484 8.91901 11.9318 9.1401 11.9318C9.36118 11.9318 9.57321 11.8484 9.72953 11.6999L14.256 7.40068C14.5813 7.09125 14.5813 6.59004 14.256 6.28061L9.72953 1.98193C9.56668 1.82725 9.35362 1.75 9.14 1.75C8.92639 1.75 8.71296 1.82708 8.55048 1.98176C8.39408 2.13024 8.30621 2.33167 8.30621 2.5417C8.30621 2.75174 8.39408 2.95317 8.55048 3.10165L11.6539 6.04903H1.32147C0.865816 6.05548 0.5 6.40816 0.5 6.841C0.5 7.27384 0.865816 7.62652 1.32147 7.63297Z" fill="#006EFF"/>
</svg>
