<svg width="360" height="348" viewBox="0 0 360 348" fill="none" xmlns="http://www.w3.org/2000/svg">
<rect y="88" width="360" height="193" fill="url(#paint0_linear_20_864)"/>
<path d="M-1.6196 120.143L0.736468 121.454L3.09479 122.761L5.45556 124.064L7.81907 125.362L10.1856 126.655L12.5554 127.942L14.9289 129.222L17.3064 130.496L19.6884 131.762L22.0753 133.02L24.4676 134.268L26.8659 135.506L29.2707 136.732L31.6828 137.946L34.1029 139.146L36.5317 140.331L38.9702 141.499L41.4193 142.649L43.88 143.778L46.3536 144.886L48.8412 145.969L51.3442 147.025L53.8641 148.052L56.4025 149.047L58.9611 150.007L61.5418 150.929L64.1467 151.809L66.7778 152.644L69.4376 153.429L72.1285 154.16L74.853 154.832L77.6142 155.441L80.4148 155.982L83.2579 156.45L86.1468 156.838L89.0848 157.141L92.0751 157.353L95.1214 157.468L98.2269 157.481L101.395 157.386L104.629 157.176L107.932 156.846L111.307 156.392L114.757 155.809L118.283 155.094L121.887 154.243L125.57 153.256L129.332 152.131L133.173 150.87L137.091 149.475L141.085 147.95L145.149 146.302L149.281 144.537L153.474 142.667L157.722 140.701L162.017 138.653L166.351 136.538L170.715 134.37L175.1 132.168L179.495 129.947L183.89 127.727L188.274 125.525L192.638 123.357L196.973 121.242L201.268 119.194L205.516 117.228L209.709 115.357L213.84 113.593L217.905 111.945L221.898 110.42L225.816 109.025L229.657 107.764L233.42 106.639L237.103 105.652L240.707 104.801L244.233 104.086L247.682 103.503L251.057 103.049L254.36 102.719L257.594 102.509L260.763 102.414L263.868 102.426L266.914 102.542L269.905 102.754L272.843 103.057L275.732 103.445L278.575 103.913L281.375 104.453L284.136 105.063L286.861 105.735L289.552 106.466L292.212 107.251L294.843 108.086L297.448 108.966L300.028 109.888L302.587 110.848L305.125 111.843L307.645 112.87L310.148 113.926L312.636 115.009L315.109 116.117L317.57 117.246L320.019 118.396L322.458 119.564L324.887 120.749L327.307 121.949L329.719 123.163L332.124 124.389L334.522 125.627L336.914 126.875L339.301 128.133L341.683 129.399L344.061 130.673L346.434 131.953L348.804 133.24L351.17 134.533L353.534 135.831L355.895 137.134L358.253 138.441L360.609 139.752" stroke="white" stroke-opacity="0.5"/>
<path d="M-1.6196 142.143L0.736468 143.454L3.09479 144.761L5.45556 146.064L7.81907 147.362L10.1856 148.655L12.5554 149.942L14.9289 151.222L17.3064 152.496L19.6884 153.762L22.0753 155.02L24.4676 156.268L26.8659 157.506L29.2707 158.732L31.6828 159.946L34.1029 161.146L36.5317 162.331L38.9702 163.499L41.4193 164.649L43.88 165.778L46.3536 166.886L48.8412 167.969L51.3442 169.025L53.8641 170.052L56.4025 171.047L58.9611 172.007L61.5418 172.929L64.1467 173.809L66.7778 174.644L69.4376 175.429L72.1285 176.16L74.853 176.832L77.6142 177.441L80.4148 177.982L83.2579 178.45L86.1468 178.838L89.0848 179.141L92.0751 179.353L95.1214 179.468L98.2269 179.481L101.395 179.386L104.629 179.176L107.932 178.846L111.307 178.392L114.757 177.809L118.283 177.094L121.887 176.243L125.57 175.256L129.332 174.131L133.173 172.87L137.091 171.475L141.085 169.95L145.149 168.302L149.281 166.537L153.474 164.667L157.722 162.701L162.017 160.653L166.351 158.538L170.715 156.37L175.1 154.168L179.495 151.947L183.89 149.727L188.274 147.525L192.638 145.357L196.973 143.242L201.268 141.194L205.516 139.228L209.709 137.357L213.84 135.593L217.905 133.945L221.898 132.42L225.816 131.025L229.657 129.764L233.42 128.639L237.103 127.652L240.707 126.801L244.233 126.086L247.682 125.503L251.057 125.049L254.36 124.719L257.594 124.509L260.763 124.414L263.868 124.426L266.914 124.542L269.905 124.754L272.843 125.057L275.732 125.445L278.575 125.913L281.375 126.453L284.136 127.063L286.861 127.735L289.552 128.466L292.212 129.251L294.843 130.086L297.448 130.966L300.028 131.888L302.587 132.848L305.125 133.843L307.645 134.87L310.148 135.926L312.636 137.009L315.109 138.117L317.57 139.246L320.019 140.396L322.458 141.564L324.887 142.749L327.307 143.949L329.719 145.163L332.124 146.389L334.522 147.627L336.914 148.875L339.301 150.133L341.683 151.399L344.061 152.673L346.434 153.953L348.804 155.24L351.17 156.533L353.534 157.831L355.895 159.134L358.253 160.441L360.609 161.752" stroke="white" stroke-opacity="0.5"/>
<path d="M-1.6196 164.143L0.736468 165.454L3.09479 166.761L5.45556 168.064L7.81907 169.362L10.1856 170.655L12.5554 171.942L14.9289 173.222L17.3064 174.496L19.6884 175.762L22.0753 177.02L24.4676 178.268L26.8659 179.506L29.2707 180.732L31.6828 181.946L34.1029 183.146L36.5317 184.331L38.9702 185.499L41.4193 186.649L43.88 187.778L46.3536 188.886L48.8412 189.969L51.3442 191.025L53.8641 192.052L56.4025 193.047L58.9611 194.007L61.5418 194.929L64.1467 195.809L66.7778 196.644L69.4376 197.429L72.1285 198.16L74.853 198.832L77.6142 199.441L80.4148 199.982L83.2579 200.45L86.1468 200.838L89.0848 201.141L92.0751 201.353L95.1214 201.468L98.2269 201.481L101.395 201.386L104.629 201.176L107.932 200.846L111.307 200.392L114.757 199.809L118.283 199.094L121.887 198.243L125.57 197.256L129.332 196.131L133.173 194.87L137.091 193.475L141.085 191.95L145.149 190.302L149.281 188.537L153.474 186.667L157.722 184.701L162.017 182.653L166.351 180.538L170.715 178.37L175.1 176.168L179.495 173.947L183.89 171.727L188.274 169.525L192.638 167.357L196.973 165.242L201.268 163.194L205.516 161.228L209.709 159.357L213.84 157.593L217.905 155.945L221.898 154.42L225.816 153.025L229.657 151.764L233.42 150.639L237.103 149.652L240.707 148.801L244.233 148.086L247.682 147.503L251.057 147.049L254.36 146.719L257.594 146.509L260.763 146.414L263.868 146.426L266.914 146.542L269.905 146.754L272.843 147.057L275.732 147.445L278.575 147.913L281.375 148.453L284.136 149.063L286.861 149.735L289.552 150.466L292.212 151.251L294.843 152.086L297.448 152.966L300.028 153.888L302.587 154.848L305.125 155.843L307.645 156.87L310.148 157.926L312.636 159.009L315.109 160.117L317.57 161.246L320.019 162.396L322.458 163.564L324.887 164.749L327.307 165.949L329.719 167.163L332.124 168.389L334.522 169.627L336.914 170.875L339.301 172.133L341.683 173.399L344.061 174.673L346.434 175.953L348.804 177.24L351.17 178.533L353.534 179.831L355.895 181.134L358.253 182.441L360.609 183.752" stroke="white" stroke-opacity="0.5"/>
<path d="M-1.6196 186.143L0.736468 187.454L3.09479 188.761L5.45556 190.064L7.81907 191.362L10.1856 192.655L12.5554 193.942L14.9289 195.222L17.3064 196.496L19.6884 197.762L22.0753 199.02L24.4676 200.268L26.8659 201.506L29.2707 202.732L31.6828 203.946L34.1029 205.146L36.5317 206.331L38.9702 207.499L41.4193 208.649L43.88 209.778L46.3536 210.886L48.8412 211.969L51.3442 213.025L53.8641 214.052L56.4025 215.047L58.9611 216.007L61.5418 216.929L64.1467 217.809L66.7778 218.644L69.4376 219.429L72.1285 220.16L74.853 220.832L77.6142 221.441L80.4148 221.982L83.2579 222.45L86.1468 222.838L89.0848 223.141L92.0751 223.353L95.1214 223.468L98.2269 223.481L101.395 223.386L104.629 223.176L107.932 222.846L111.307 222.392L114.757 221.809L118.283 221.094L121.887 220.243L125.57 219.256L129.332 218.131L133.173 216.87L137.091 215.475L141.085 213.95L145.149 212.302L149.281 210.537L153.474 208.667L157.722 206.701L162.017 204.653L166.351 202.538L170.715 200.37L175.1 198.168L179.495 195.947L183.89 193.727L188.274 191.525L192.638 189.357L196.973 187.242L201.268 185.194L205.516 183.228L209.709 181.357L213.84 179.593L217.905 177.945L221.898 176.42L225.816 175.025L229.657 173.764L233.42 172.639L237.103 171.652L240.707 170.801L244.233 170.086L247.682 169.503L251.057 169.049L254.36 168.719L257.594 168.509L260.763 168.414L263.868 168.426L266.914 168.542L269.905 168.754L272.843 169.057L275.732 169.445L278.575 169.913L281.375 170.453L284.136 171.063L286.861 171.735L289.552 172.466L292.212 173.251L294.843 174.086L297.448 174.966L300.028 175.888L302.587 176.848L305.125 177.843L307.645 178.87L310.148 179.926L312.636 181.009L315.109 182.117L317.57 183.246L320.019 184.396L322.458 185.564L324.887 186.749L327.307 187.949L329.719 189.163L332.124 190.389L334.522 191.627L336.914 192.875L339.301 194.133L341.683 195.399L344.061 196.673L346.434 197.953L348.804 199.24L351.17 200.533L353.534 201.831L355.895 203.134L358.253 204.441L360.609 205.752" stroke="white" stroke-opacity="0.5"/>
<defs>
<linearGradient id="paint0_linear_20_864" x1="161" y1="-226.895" x2="29.6462" y2="257.431" gradientUnits="userSpaceOnUse">
<stop stop-color="#0061FF"/>
<stop offset="0.131" stop-color="#066AFF"/>
<stop offset="0.35" stop-color="#1884FF"/>
<stop offset="0.585573" stop-color="#9ED8FF"/>
<stop offset="0.855115" stop-color="#E4FBFF"/>
<stop offset="1" stop-color="white"/>
</linearGradient>
</defs>
</svg>
