<svg width="328" height="88" viewBox="0 0 328 88" fill="none" xmlns="http://www.w3.org/2000/svg">
<rect width="328" height="88" rx="8" fill="#0061FF" fill-opacity="0.08"/>
<rect x="24" y="24" width="40" height="16" rx="8" fill="#65CCAF"/>
<path d="M35.2173 36V28.7273H36.5348V34.8956H39.7379V36H35.2173ZM45.0131 30.5455L43.0707 36H41.6502L39.7077 30.5455H41.0785L42.332 34.5973H42.3888L43.646 30.5455H45.0131ZM51.3271 28.7273V36H50.0096V30.0092H49.967L48.266 31.0959V29.8885L50.0735 28.7273H51.3271Z" fill="white"/>
<rect x="84" y="24" width="40" height="16" rx="8" fill="#44C8D7"/>
<path d="M94.7173 36V28.7273H96.0348V34.8956H99.2379V36H94.7173ZM104.513 30.5455L102.571 36H101.15L99.2077 30.5455H100.578L101.832 34.5973H101.889L103.146 30.5455H104.513ZM107.869 36V35.0483L110.394 32.5732C110.635 32.3293 110.837 32.1127 110.998 31.9233C111.158 31.7339 111.279 31.5504 111.36 31.3729C111.44 31.1953 111.48 31.0059 111.48 30.8047C111.48 30.575 111.428 30.3786 111.324 30.2152C111.22 30.0495 111.077 29.9216 110.895 29.8317C110.712 29.7417 110.505 29.6967 110.273 29.6967C110.034 29.6967 109.824 29.7464 109.645 29.8459C109.465 29.9429 109.325 30.0814 109.225 30.2614C109.128 30.4413 109.08 30.6555 109.08 30.9041H107.826C107.826 30.4425 107.932 30.0412 108.142 29.7003C108.353 29.3594 108.643 29.0954 109.012 28.9084C109.384 28.7214 109.81 28.6278 110.291 28.6278C110.779 28.6278 111.207 28.719 111.576 28.9013C111.946 29.0836 112.232 29.3333 112.436 29.6506C112.642 29.9678 112.745 30.33 112.745 30.7372C112.745 31.0095 112.693 31.277 112.588 31.5398C112.484 31.8026 112.301 32.0937 112.038 32.4134C111.778 32.733 111.412 33.12 110.941 33.5746L109.687 34.8494V34.8991H112.855V36H107.869Z" fill="white"/>
<rect x="144" y="24" width="40" height="16" rx="8" fill="#63A6F7"/>
<path d="M154.717 36V28.7273H156.035V34.8956H159.238V36H154.717ZM164.513 30.5455L162.571 36H161.15L159.208 30.5455H160.578L161.832 34.5973H161.889L163.146 30.5455H164.513ZM170.479 36.0994C169.968 36.0994 169.513 36.0118 169.115 35.8366C168.72 35.6615 168.408 35.4176 168.178 35.1051C167.948 34.7926 167.826 34.4316 167.812 34.022H169.147C169.159 34.2185 169.224 34.3902 169.343 34.5369C169.461 34.6813 169.618 34.7938 169.815 34.8743C170.011 34.9548 170.232 34.995 170.475 34.995C170.736 34.995 170.967 34.95 171.168 34.8601C171.369 34.7678 171.527 34.6399 171.64 34.4766C171.754 34.3132 171.81 34.125 171.807 33.9119C171.81 33.6918 171.753 33.4976 171.637 33.3295C171.521 33.1615 171.353 33.0301 171.132 32.9354C170.915 32.8407 170.652 32.7933 170.344 32.7933H169.701V31.7777H170.344C170.597 31.7777 170.819 31.7339 171.008 31.6463C171.2 31.5587 171.35 31.4356 171.459 31.277C171.568 31.116 171.621 30.9302 171.619 30.7195C171.621 30.5135 171.575 30.3348 171.48 30.1832C171.388 30.0294 171.257 29.9098 171.086 29.8246C170.918 29.7393 170.721 29.6967 170.493 29.6967C170.271 29.6967 170.065 29.737 169.875 29.8175C169.686 29.898 169.533 30.0128 169.417 30.1619C169.301 30.3087 169.24 30.4839 169.233 30.6875H167.965C167.974 30.2803 168.092 29.9228 168.316 29.6151C168.544 29.3049 168.847 29.0634 169.225 28.8906C169.604 28.7154 170.029 28.6278 170.5 28.6278C170.986 28.6278 171.407 28.719 171.765 28.9013C172.124 29.0812 172.403 29.3239 172.599 29.6293C172.796 29.9347 172.894 30.272 172.894 30.6413C172.896 31.0509 172.775 31.3942 172.532 31.6712C172.29 31.9482 171.973 32.1293 171.58 32.2145V32.2713C172.091 32.3423 172.483 32.5317 172.755 32.8395C173.03 33.1449 173.166 33.5249 173.164 33.9794C173.164 34.3866 173.048 34.7512 172.816 35.0732C172.586 35.3928 172.269 35.6437 171.864 35.826C171.462 36.0083 171 36.0994 170.479 36.0994Z" fill="white"/>
<rect x="204" y="24" width="40" height="16" rx="8" fill="#A88AE6"/>
<path d="M214.717 36V28.7273H216.035V34.8956H219.238V36H214.717ZM224.513 30.5455L222.571 36H221.15L219.208 30.5455H220.578L221.832 34.5973H221.889L223.146 30.5455H224.513ZM227.738 34.6506V33.603L230.824 28.7273H231.697V30.2188H231.164L229.087 33.5107V33.5675H233.395V34.6506H227.738ZM231.207 36V34.331L231.221 33.8622V28.7273H232.464V36H231.207Z" fill="white"/>
<rect x="264" y="24" width="40" height="16" rx="8" fill="#FF5C9A"/>
<path d="M274.717 36V28.7273H276.035V34.8956H279.238V36H274.717ZM284.513 30.5455L282.571 36H281.15L279.208 30.5455H280.578L281.832 34.5973H281.889L283.146 30.5455H284.513ZM290.397 36.0994C289.924 36.0994 289.5 36.0107 289.126 35.8331C288.752 35.6532 288.455 35.407 288.235 35.0945C288.017 34.782 287.901 34.4245 287.887 34.022H289.165C289.189 34.3203 289.318 34.5642 289.552 34.7536C289.787 34.9406 290.068 35.0341 290.397 35.0341C290.655 35.0341 290.885 34.9749 291.086 34.8565C291.288 34.7382 291.446 34.5736 291.562 34.3629C291.678 34.1522 291.735 33.9119 291.733 33.642C291.735 33.3674 291.677 33.1236 291.559 32.9105C291.44 32.6974 291.278 32.5305 291.072 32.4098C290.866 32.2867 290.629 32.2251 290.362 32.2251C290.144 32.2228 289.93 32.263 289.719 32.3459C289.508 32.4287 289.342 32.5376 289.218 32.6726L288.029 32.4773L288.409 28.7273H292.627V29.8281H289.499L289.289 31.7564H289.332C289.467 31.5978 289.658 31.4664 289.904 31.3622C290.15 31.2557 290.42 31.2024 290.713 31.2024C291.154 31.2024 291.547 31.3066 291.892 31.5149C292.238 31.7209 292.51 32.005 292.709 32.3672C292.908 32.7294 293.007 33.1437 293.007 33.6101C293.007 34.0907 292.896 34.5192 292.674 34.8956C292.453 35.2696 292.147 35.5644 291.754 35.7798C291.363 35.9929 290.911 36.0994 290.397 36.0994Z" fill="white"/>
<rect x="24" y="48" width="40" height="16" rx="8" fill="#FF8E72"/>
<path d="M34.7173 60V52.7273H36.0348V58.8956H39.2379V60H34.7173ZM44.5131 54.5455L42.5707 60H41.1502L39.2077 54.5455H40.5785L41.832 58.5973H41.8888L43.146 54.5455H44.5131ZM50.5323 60.0994C50.1843 60.0971 49.8446 60.0367 49.5131 59.9183C49.1817 59.7976 48.8834 59.6023 48.6183 59.3324C48.3531 59.0601 48.1424 58.6991 47.9862 58.2493C47.8299 57.7971 47.753 57.2372 47.7553 56.5696C47.7553 55.947 47.8216 55.3918 47.9542 54.9041C48.0868 54.4164 48.2773 54.0045 48.5259 53.6683C48.7745 53.3298 49.074 53.0717 49.4244 52.8942C49.7771 52.7166 50.1713 52.6278 50.6069 52.6278C51.0638 52.6278 51.4686 52.7178 51.8214 52.8977C52.1765 53.0777 52.463 53.3239 52.6808 53.6364C52.8986 53.9465 53.0335 54.2969 53.0856 54.6875H51.7894C51.7231 54.4081 51.587 54.1856 51.381 54.0199C51.1774 53.8518 50.9194 53.7678 50.6069 53.7678C50.1026 53.7678 49.7144 53.9867 49.4421 54.4247C49.1722 54.8627 49.0361 55.464 49.0337 56.2287H49.0835C49.1995 56.0204 49.3498 55.8416 49.5344 55.6925C49.7191 55.5433 49.9274 55.4285 50.1594 55.348C50.3938 55.2652 50.6412 55.2237 50.9016 55.2237C51.3278 55.2237 51.7101 55.3255 52.0487 55.5291C52.3896 55.7327 52.6594 56.0133 52.8583 56.3707C53.0572 56.7259 53.1554 57.133 53.1531 57.5923C53.1554 58.0705 53.0465 58.5002 52.8263 58.8814C52.6062 59.2602 52.2996 59.5585 51.9066 59.7763C51.5136 59.9941 51.0555 60.1018 50.5323 60.0994ZM50.5252 59.0341C50.7833 59.0341 51.0141 58.9714 51.2177 58.8459C51.4213 58.7204 51.5823 58.5511 51.7006 58.3381C51.819 58.125 51.877 57.8859 51.8746 57.6207C51.877 57.3603 51.8202 57.1248 51.7042 56.9141C51.5906 56.7034 51.4331 56.5365 51.2319 56.4134C51.0307 56.2902 50.801 56.2287 50.543 56.2287C50.3512 56.2287 50.1725 56.2654 50.0067 56.3388C49.841 56.4122 49.6966 56.514 49.5735 56.6442C49.4504 56.772 49.3533 56.9212 49.2823 57.0916C49.2137 57.2597 49.1781 57.4396 49.1758 57.6314C49.1781 57.8847 49.2373 58.1179 49.3533 58.331C49.4693 58.544 49.6291 58.7145 49.8327 58.8423C50.0363 58.9702 50.2672 59.0341 50.5252 59.0341Z" fill="white"/>
<rect x="84" y="48" width="40" height="16" rx="8" fill="#FE7D5D"/>
<path d="M94.7173 60V52.7273H96.0348V58.8956H99.2379V60H94.7173ZM104.513 54.5455L102.571 60H101.15L99.2077 54.5455H100.578L101.832 58.5973H101.889L103.146 54.5455H104.513ZM108.135 60L111.228 53.8778V53.8281H107.638V52.7273H112.592V53.853L109.502 60H108.135Z" fill="white"/>
<rect x="144" y="48" width="40" height="16" rx="8" fill="#FF643D"/>
<path d="M154.717 60V52.7273H156.035V58.8956H159.238V60H154.717ZM164.513 54.5455L162.571 60H161.15L159.208 54.5455H160.578L161.832 58.5973H161.889L163.146 54.5455H164.513ZM170.454 60.0994C169.926 60.0994 169.458 60.0107 169.048 59.8331C168.641 59.6555 168.321 59.4129 168.089 59.1051C167.859 58.795 167.746 58.4434 167.748 58.0504C167.746 57.745 167.812 57.4645 167.947 57.2088C168.082 56.9531 168.264 56.7401 168.494 56.5696C168.726 56.3968 168.984 56.2867 169.268 56.2393V56.1896C168.894 56.1068 168.591 55.9162 168.359 55.6179C168.129 55.3172 168.016 54.9704 168.018 54.5774C168.016 54.2034 168.12 53.8696 168.331 53.576C168.541 53.2824 168.83 53.0516 169.197 52.8835C169.564 52.7131 169.983 52.6278 170.454 52.6278C170.921 52.6278 171.336 52.7131 171.701 52.8835C172.068 53.0516 172.356 53.2824 172.567 53.576C172.78 53.8696 172.887 54.2034 172.887 54.5774C172.887 54.9704 172.77 55.3172 172.535 55.6179C172.303 55.9162 172.004 56.1068 171.637 56.1896V56.2393C171.921 56.2867 172.176 56.3968 172.404 56.5696C172.633 56.7401 172.816 56.9531 172.951 57.2088C173.088 57.4645 173.157 57.745 173.157 58.0504C173.157 58.4434 173.041 58.795 172.809 59.1051C172.577 59.4129 172.257 59.6555 171.85 59.8331C171.445 60.0107 170.98 60.0994 170.454 60.0994ZM170.454 59.0838C170.726 59.0838 170.963 59.0376 171.164 58.9453C171.366 58.8506 171.522 58.718 171.633 58.5476C171.744 58.3771 171.801 58.1806 171.804 57.9581C171.801 57.7261 171.741 57.5213 171.623 57.3438C171.507 57.1638 171.347 57.023 171.143 56.9212C170.942 56.8194 170.712 56.7685 170.454 56.7685C170.194 56.7685 169.962 56.8194 169.758 56.9212C169.555 57.023 169.394 57.1638 169.275 57.3438C169.159 57.5213 169.102 57.7261 169.105 57.9581C169.102 58.1806 169.157 58.3771 169.268 58.5476C169.379 58.7157 169.536 58.8471 169.737 58.9418C169.94 59.0365 170.18 59.0838 170.454 59.0838ZM170.454 55.7706C170.677 55.7706 170.873 55.7256 171.044 55.6357C171.217 55.5457 171.353 55.4202 171.452 55.2592C171.551 55.0982 171.602 54.9124 171.605 54.7017C171.602 54.4934 171.553 54.3111 171.456 54.1548C171.359 53.9962 171.224 53.8743 171.051 53.7891C170.878 53.7015 170.679 53.6577 170.454 53.6577C170.225 53.6577 170.022 53.7015 169.847 53.7891C169.674 53.8743 169.539 53.9962 169.442 54.1548C169.347 54.3111 169.301 54.4934 169.304 54.7017C169.301 54.9124 169.349 55.0982 169.446 55.2592C169.545 55.4179 169.681 55.5433 169.854 55.6357C170.029 55.7256 170.229 55.7706 170.454 55.7706Z" fill="white"/>
<rect x="204" y="48" width="40" height="16" rx="8" fill="#F94C21"/>
<path d="M214.717 60V52.7273H216.035V58.8956H219.238V60H214.717ZM224.513 54.5455L222.571 60H221.15L219.208 54.5455H220.578L221.832 58.5973H221.889L223.146 54.5455H224.513ZM230.394 52.6278C230.742 52.6302 231.08 52.6918 231.409 52.8125C231.741 52.9309 232.039 53.125 232.304 53.3949C232.569 53.6624 232.78 54.0211 232.936 54.4709C233.093 54.9207 233.171 55.477 233.171 56.1399C233.173 56.7649 233.107 57.3236 232.972 57.8161C232.839 58.3061 232.649 58.7204 232.4 59.0589C232.152 59.3975 231.852 59.6555 231.502 59.8331C231.151 60.0107 230.757 60.0994 230.319 60.0994C229.86 60.0994 229.453 60.0095 229.098 59.8295C228.745 59.6496 228.46 59.4034 228.242 59.0909C228.024 58.7784 227.89 58.4209 227.841 58.0185H229.137C229.203 58.3073 229.338 58.5369 229.542 58.7074C229.748 58.8755 230.007 58.9595 230.319 58.9595C230.824 58.9595 231.212 58.7405 231.484 58.3026C231.756 57.8646 231.892 57.2562 231.892 56.4773H231.843C231.727 56.6856 231.576 56.8655 231.392 57.017C231.207 57.1662 230.998 57.281 230.763 57.3615C230.531 57.442 230.285 57.4822 230.025 57.4822C229.598 57.4822 229.215 57.3804 228.874 57.1768C228.535 56.9732 228.267 56.6939 228.068 56.3388C227.871 55.9837 227.772 55.5777 227.77 55.1207C227.77 54.6473 227.878 54.2223 228.096 53.8459C228.316 53.4671 228.623 53.1688 229.016 52.951C229.409 52.7308 229.868 52.6231 230.394 52.6278ZM230.397 53.6932C230.142 53.6932 229.911 53.7559 229.705 53.8814C229.501 54.0045 229.34 54.1726 229.222 54.3857C229.106 54.5964 229.048 54.8319 229.048 55.0923C229.05 55.3504 229.108 55.5848 229.222 55.7955C229.338 56.0062 229.495 56.1731 229.694 56.2962C229.895 56.4193 230.125 56.4808 230.383 56.4808C230.575 56.4808 230.754 56.4441 230.919 56.3707C231.085 56.2973 231.23 56.1955 231.353 56.0653C231.478 55.9328 231.575 55.7824 231.644 55.6143C231.715 55.4463 231.749 55.2687 231.747 55.0817C231.747 54.8331 231.688 54.6035 231.569 54.3928C231.453 54.1821 231.293 54.0128 231.09 53.8849C230.889 53.7571 230.658 53.6932 230.397 53.6932Z" fill="white"/>
<rect x="264" y="48" width="40" height="16" rx="8" fill="#FFAD34"/>
<path d="M272.217 60V52.7273H273.535V58.8956H276.738V60H272.217ZM282.013 54.5455L280.071 60H278.65L276.708 54.5455H278.078L279.332 58.5973H279.389L280.646 54.5455H282.013ZM288.327 52.7273V60H287.01V54.0092H286.967L285.266 55.0959V53.8885L287.074 52.7273H288.327ZM292.862 60.1385C292.277 60.1385 291.775 59.9905 291.356 59.6946C290.94 59.3963 290.619 58.9666 290.394 58.4055C290.171 57.8421 290.06 57.1638 290.06 56.3707C290.062 55.5777 290.175 54.9029 290.397 54.3466C290.622 53.7879 290.943 53.3617 291.36 53.0682C291.779 52.7746 292.279 52.6278 292.862 52.6278C293.444 52.6278 293.945 52.7746 294.364 53.0682C294.783 53.3617 295.104 53.7879 295.326 54.3466C295.551 54.9053 295.664 55.58 295.664 56.3707C295.664 57.1662 295.551 57.8456 295.326 58.4091C295.104 58.9702 294.783 59.3987 294.364 59.6946C293.947 59.9905 293.447 60.1385 292.862 60.1385ZM292.862 59.027C293.316 59.027 293.675 58.8033 293.938 58.3558C294.203 57.906 294.336 57.2443 294.336 56.3707C294.336 55.7931 294.275 55.3078 294.154 54.9148C294.034 54.5218 293.863 54.2259 293.643 54.027C293.423 53.8258 293.163 53.7251 292.862 53.7251C292.41 53.7251 292.052 53.95 291.789 54.3999C291.527 54.8473 291.394 55.5043 291.392 56.3707C291.389 56.9508 291.447 57.4384 291.566 57.8338C291.686 58.2292 291.857 58.5275 292.077 58.7287C292.297 58.9276 292.559 59.027 292.862 59.027Z" fill="white"/>
</svg>
