<svg width="21" height="20" viewBox="0 0 21 20" fill="none" xmlns="http://www.w3.org/2000/svg">
<circle cx="10.5" cy="10" r="9.5" fill="url(#paint0_linear_3639_14164)" stroke="#EEF3F8"/>
<path d="M14.159 10.2206C14.3289 9.9961 14.423 9.72106 14.423 9.43489C14.423 8.98086 14.1692 8.55109 13.7606 8.31144C13.6555 8.24975 13.5357 8.21728 13.4138 8.2174H10.9889L11.0496 6.97463C11.0638 6.6743 10.9576 6.38914 10.7513 6.17173C10.6501 6.06457 10.5279 5.97931 10.3924 5.92122C10.2569 5.86313 10.111 5.83344 9.96356 5.83399C9.43774 5.83399 8.97258 6.18791 8.83304 6.69453L7.96441 9.83937H7.96138V14.1673H12.7373C12.8303 14.1673 12.9213 14.1491 13.0053 14.1127C13.4866 13.9074 13.797 13.4372 13.797 12.9154C13.797 12.788 13.7788 12.6626 13.7424 12.5413C13.9123 12.3168 14.0064 12.0418 14.0064 11.7556C14.0064 11.6282 13.9882 11.5028 13.9517 11.3815C14.1216 11.157 14.2157 10.8819 14.2157 10.5957C14.2137 10.4683 14.1954 10.3419 14.159 10.2206ZM6.33334 10.163V13.8437C6.33334 14.0227 6.47795 14.1673 6.65693 14.1673H7.31421V9.83937H6.65693C6.47795 9.83937 6.33334 9.98397 6.33334 10.163Z" fill="white"/>
<defs>
<linearGradient id="paint0_linear_3639_14164" x1="12.75" y1="20" x2="12.75" y2="0" gradientUnits="userSpaceOnUse">
<stop stop-color="#0077DD"/>
<stop offset="1" stop-color="#00A8DD"/>
</linearGradient>
</defs>
</svg>
