<svg width="96" height="40" viewBox="0 0 96 40" fill="none" xmlns="http://www.w3.org/2000/svg">
<rect width="96" height="40" rx="20" fill="url(#paint0_linear_1592_41089)"/>
<path d="M16.6439 35.036C16.5323 35.024 16.4197 35.024 16.3082 35.036H16.2159H16.1236L15.9306 35.0769C15.6436 35.1606 15.3631 35.2642 15.0914 35.3871C14.8144 35.5096 14.5291 35.6402 14.2522 35.7709C13.9753 35.9015 13.7738 36.0158 13.6144 36.0975L13.3542 36.2363H13.4298L13.6396 36.3016C13.8158 36.3506 14.0676 36.4159 14.3529 36.4731L14.5711 36.5139H14.806C14.9626 36.5223 15.1194 36.5223 15.276 36.5139C15.5843 36.5281 15.893 36.495 16.1907 36.4159C16.6436 36.2896 17.0452 36.0301 17.3404 35.6729C17.4742 35.5189 17.587 35.3488 17.6761 35.1667C17.5196 35.0765 17.3498 35.0104 17.1726 34.9707C16.9945 34.975 16.8174 34.9969 16.6439 35.036Z" fill="white"/>
<path d="M17.483 32.9049C17.3478 32.7086 17.1901 32.5278 17.0131 32.366L16.7445 32.1292L16.6103 32.0313L16.4844 31.9251C16.3082 31.8026 16.1571 31.6965 16.048 31.6312L15.8634 31.5168C15.8634 31.5168 15.8634 31.6067 15.8634 31.77C15.8667 31.9776 15.8835 32.1849 15.9138 32.3905C15.9536 32.6662 16.0124 32.939 16.09 33.207C16.1683 33.4613 16.2782 33.7053 16.4173 33.9337L16.518 34.0807L16.5767 34.146C16.5941 34.1671 16.6138 34.1862 16.6355 34.2032C16.7062 34.2798 16.7882 34.3458 16.8788 34.3991C16.9561 34.4539 17.0374 34.5031 17.1222 34.5461L17.3572 34.6359C17.523 34.6845 17.6959 34.7065 17.8691 34.7012C17.895 34.5061 17.895 34.3085 17.8691 34.1133C17.8508 33.9227 17.8143 33.734 17.76 33.5499C17.76 33.501 17.76 33.452 17.7012 33.3948C17.6425 33.3377 17.7012 33.2968 17.6425 33.2397C17.5971 33.1247 17.5439 33.0129 17.483 32.9049Z" fill="white"/>
<path d="M13.2368 33.4928L13.1528 33.4275C13.0574 33.3438 12.9533 33.27 12.8423 33.207L12.6074 33.1009L12.322 33.0029C12.0899 32.9399 11.8497 32.9097 11.6087 32.9131H11.1808L10.7192 32.9784L10.2576 33.0601L9.82125 33.1417L9.11633 33.2969L8.82263 33.3704L9.07438 33.5255L9.3513 33.6888L9.51915 33.7786L9.71217 33.8684C9.83805 33.9338 9.98071 33.9909 10.1234 34.0481L10.3416 34.1297L10.4506 34.1705H10.5681C10.8619 34.2585 11.1671 34.3053 11.4745 34.3093C11.9505 34.2949 12.4117 34.1444 12.8004 33.8766C12.9241 33.7952 13.0394 33.7022 13.1445 33.599L13.2619 33.4765L13.2368 33.4928Z" fill="white"/>
<path d="M12.4396 31.8599C12.5042 32.0665 12.6065 32.2601 12.7417 32.4314L12.9431 32.6274L13.1445 32.7662C13.2492 32.8336 13.3619 32.8885 13.4802 32.9295H13.5809H13.6228C13.6228 32.9295 13.6228 32.8723 13.6816 32.7744C13.726 32.6377 13.7625 32.4987 13.7907 32.358C13.8731 31.9488 13.8558 31.5265 13.7403 31.125C13.6756 30.8996 13.5766 30.685 13.4466 30.4881C13.33 30.2935 13.1981 30.1079 13.0522 29.9329L12.8676 29.7043L12.7249 29.5247L12.5739 29.3777C12.5739 29.3777 12.5739 29.4675 12.5151 29.6226C12.4601 29.824 12.4181 30.0286 12.3892 30.235C12.3892 30.3575 12.3892 30.4881 12.3473 30.6269C12.3053 30.7658 12.3473 30.8964 12.3473 31.0352V31.4435C12.366 31.5845 12.3969 31.7238 12.4396 31.8599Z" fill="white"/>
<path d="M9.26743 30.4227C9.19917 30.32 9.12045 30.2242 9.03246 30.1369C8.90257 30.0073 8.75586 29.8948 8.59607 29.8021C8.39306 29.6808 8.17238 29.5899 7.9415 29.5327L7.65618 29.4755L7.36245 29.4184C6.85894 29.3449 6.29668 29.3204 5.86869 29.2959H5.12183C5.12183 29.2959 5.23092 29.4265 5.40715 29.6143C5.63531 29.8561 5.88526 30.0774 6.15402 30.2757L6.28829 30.3819L6.36381 30.4308L6.43934 30.4798L6.74986 30.6595C6.84995 30.715 6.95366 30.7641 7.06036 30.8064C7.1625 30.8527 7.2694 30.8883 7.37925 30.9126C7.84256 31.0281 8.33086 31.0054 8.78069 30.8473C8.97912 30.7811 9.16807 30.6905 9.34296 30.5778L9.26743 30.4227Z" fill="white"/>
<path d="M9.45209 29.7859C9.5328 29.8792 9.62593 29.9615 9.72901 30.0309L9.85489 30.1043C9.98068 29.9493 10.0903 29.7824 10.1822 29.6063C10.3835 29.2384 10.4954 28.8306 10.5095 28.4142C10.5065 28.2413 10.4868 28.0691 10.4507 27.8998C10.4507 27.8181 10.4088 27.7365 10.392 27.6466L10.3165 27.4099C10.2767 27.2793 10.2291 27.1512 10.1738 27.0261C10.1752 26.9989 10.1752 26.9716 10.1738 26.9444V26.8628C10.1571 26.8128 10.1374 26.7637 10.115 26.7158L9.97239 26.4219C9.97239 26.4219 9.82132 26.6505 9.64509 26.9934C9.59474 27.0751 9.55279 27.1731 9.50244 27.271L9.43529 27.418C9.41204 27.4683 9.39241 27.5202 9.37654 27.5732C9.2891 27.7873 9.22169 28.0086 9.17514 28.2345C9.17514 28.3162 9.17515 28.406 9.1248 28.4877C9.07444 28.5693 9.1248 28.651 9.1248 28.7326C9.12591 28.9472 9.16569 29.16 9.24229 29.3613C9.29077 29.512 9.36144 29.655 9.45209 29.7859Z" fill="white"/>
<path d="M5.54138 26.7811H5.84348C6.05411 26.7701 6.2626 26.7344 6.46447 26.6749C6.46761 26.6287 6.46761 26.5823 6.46447 26.5361L6.40575 26.3892C6.40575 26.332 6.35539 26.2667 6.32182 26.2014C6.23626 26.0437 6.12896 25.8981 6.00293 25.7686L5.88545 25.6543C5.84763 25.6121 5.80543 25.5738 5.75955 25.54C5.66214 25.4636 5.55827 25.3953 5.44906 25.3359C5.32679 25.2592 5.19759 25.1936 5.06303 25.1399L4.65184 24.9521L3.81265 24.6418L3.1329 24.4214L2.85596 24.3315C2.88937 24.421 2.92862 24.5083 2.97346 24.5928C3.01269 24.6878 3.0575 24.7805 3.1077 24.8704C3.16645 24.9766 3.2336 25.0827 3.30913 25.2052L3.5525 25.5645C3.57953 25.5908 3.60217 25.6211 3.61962 25.6543L3.69515 25.7441L3.8462 25.9156C3.94965 26.0273 4.0619 26.1311 4.18189 26.2258C4.23467 26.2789 4.29383 26.3255 4.35812 26.3647C4.41644 26.4075 4.47818 26.4457 4.54274 26.479C4.76683 26.606 5.01052 26.697 5.26443 26.7484C5.35603 26.7644 5.4485 26.7753 5.54138 26.7811Z" fill="white"/>
<path d="M6.65759 25.4828C6.68017 25.6511 6.72531 25.8158 6.79187 25.9727C6.82185 26.0318 6.85547 26.0891 6.89257 26.1442L6.98489 26.2748C7.01571 26.3101 7.04938 26.3428 7.08559 26.3728C7.25357 26.2588 7.40832 26.1274 7.54713 25.9809C7.61563 25.9138 7.68008 25.8429 7.74016 25.7686L7.92478 25.5236C8.0506 25.3362 8.14943 25.1329 8.2185 24.9194C8.2374 24.8663 8.25143 24.8117 8.26045 24.7561C8.26045 24.699 8.26044 24.6418 8.3024 24.5765C8.34436 24.5112 8.3024 24.3479 8.3024 24.2254C8.3024 24.1029 8.3024 23.7681 8.3024 23.564C8.3024 23.3599 8.3024 23.3681 8.3024 23.2864C8.3024 23.2048 8.3024 23.1231 8.3024 23.0578C8.3024 22.9925 8.3024 22.8618 8.3024 22.8618C8.23068 22.9137 8.16334 22.971 8.101 23.0333C7.98352 23.1394 7.81569 23.3027 7.63946 23.4905C7.457 23.6944 7.28878 23.9099 7.13594 24.1356C7.06041 24.2499 6.99328 24.3724 6.92614 24.4867C6.86897 24.6026 6.82126 24.7227 6.78347 24.8459C6.74576 24.9541 6.72319 25.0667 6.71634 25.1807C6.71223 25.2323 6.71223 25.2842 6.71634 25.3358C6.71647 25.4093 6.71647 25.4093 6.71647 25.4828H6.65759Z" fill="white"/>
<path d="M3.35109 21.9719C3.45172 22.0408 3.55844 22.101 3.66998 22.1515C3.86115 22.2436 4.06448 22.3096 4.2742 22.3475C4.48087 22.3911 4.6922 22.4103 4.9036 22.4047C4.93286 22.2371 4.93286 22.066 4.9036 21.8984C4.9036 21.8249 4.90361 21.7433 4.83647 21.6616C4.76934 21.58 4.76933 21.4902 4.72737 21.4004C4.65525 21.3107 4.57368 21.2286 4.484 21.1554L4.3749 21.0084L4.31615 20.9431L4.24903 20.8696C3.81879 20.4671 3.34943 20.1062 2.84757 19.7918C2.61259 19.6367 2.41119 19.4979 2.25175 19.4081L2 19.2529C2 19.2529 2 19.3591 2.05035 19.5305C2.1007 19.702 2.12586 19.9388 2.193 20.2001C2.28226 20.4783 2.38875 20.7509 2.51189 21.0166C2.54328 21.087 2.57974 21.1553 2.62099 21.2207L2.74687 21.4085C2.82754 21.5266 2.91732 21.6385 3.01541 21.7433C3.11963 21.8297 3.23202 21.9062 3.35109 21.9719Z" fill="white"/>
<path d="M5.5834 22.2741C5.7867 22.1933 5.98076 22.092 6.16245 21.972C6.3349 21.872 6.49779 21.7573 6.64917 21.629C6.73374 21.5562 6.81231 21.477 6.88414 21.3922C6.96614 21.3078 7.04187 21.2177 7.11074 21.1228C7.16948 21.0248 7.22821 20.9187 7.27856 20.8125C7.32891 20.7064 7.37087 20.6002 7.41283 20.4859C7.488 20.2755 7.54693 20.0599 7.58908 19.8409C7.63943 19.6367 7.673 19.4653 7.68978 19.3428C7.69367 19.2748 7.69367 19.2067 7.68978 19.1387L7.45481 19.253C7.31215 19.3265 7.11073 19.4408 6.89254 19.5796C6.65398 19.7259 6.42931 19.8925 6.2212 20.0777C6.01206 20.2534 5.82603 20.4536 5.66733 20.6737C5.54528 20.8542 5.46245 21.057 5.42395 21.2698C5.42395 21.3596 5.42395 21.4576 5.42395 21.5392C5.41939 21.6181 5.41939 21.6971 5.42395 21.776C5.4465 21.9499 5.50048 22.1185 5.5834 22.2741Z" fill="white"/>
<path d="M2.80564 15.5866C2.80564 15.7009 2.80565 15.8153 2.86439 15.9214C2.91059 16.1347 2.98683 16.3408 3.09097 16.5338C3.21087 16.7527 3.37002 16.9491 3.56091 17.1135C3.71639 17.2539 3.89157 17.3721 4.08121 17.4646C4.26687 17.5595 4.46431 17.6309 4.66865 17.6769C4.68969 17.6322 4.70654 17.5857 4.719 17.5381C4.74816 17.4196 4.77056 17.2997 4.78612 17.1788C4.8102 17.0054 4.8102 16.8297 4.78612 16.6563C4.74347 16.4342 4.66711 16.2196 4.55955 16.0194C4.55955 15.9377 4.46725 15.8642 4.4169 15.7826L4.34135 15.6601L4.25745 15.5458C4.11868 15.3386 3.96735 15.1395 3.80428 14.9498C3.65323 14.7538 3.49378 14.5742 3.35951 14.4109C3.09097 14.1006 2.88117 13.8801 2.88117 13.8801C2.88117 13.8801 2.88116 14.0353 2.82242 14.2884C2.82242 14.419 2.82242 14.566 2.82242 14.7293C2.82242 14.8926 2.82242 15.0722 2.82242 15.2519C2.80813 15.3629 2.80253 15.4748 2.80564 15.5866Z" fill="white"/>
<path d="M7.11075 17.0728L7.21145 16.983L7.31215 16.8931L7.48837 16.689C7.54346 16.6216 7.59394 16.5506 7.63944 16.4767L7.78209 16.2644C7.86134 16.1529 7.93149 16.0355 7.99189 15.9133L8.07581 15.7582C8.07581 15.701 8.13455 15.6602 8.15134 15.6112C8.16812 15.5622 8.29401 15.3254 8.29401 15.3254C8.29401 15.3254 8.00869 15.3744 7.61427 15.4724L7.30375 15.5622L6.97648 15.6765C6.74925 15.7637 6.52782 15.8646 6.31351 15.9787C6.16162 16.0633 6.01833 16.1617 5.88554 16.2726C5.7122 16.4123 5.56951 16.5844 5.46594 16.7788C5.39349 16.932 5.34266 17.0941 5.31487 17.2606C5.29853 17.3771 5.29853 17.4952 5.31487 17.6117V17.7505C5.52529 17.7377 5.7336 17.7021 5.93589 17.6443C6.36576 17.5397 6.7668 17.3446 7.11075 17.0728Z" fill="white"/>
<path d="M4.89527 12.2472C5.01002 12.4174 5.14525 12.5737 5.29809 12.7126C5.45045 12.854 5.61947 12.9773 5.80161 13.0801C5.83209 13.0409 5.86011 13 5.88554 12.9576C6.04339 12.7088 6.14626 12.4307 6.18763 12.1411C6.18763 12.0431 6.18763 11.9369 6.18763 11.8226C6.19933 11.7031 6.19933 11.5828 6.18763 11.4634C6.18763 11.3382 6.15407 11.2075 6.08694 11.0714C6.08694 11.0061 6.04496 10.9326 6.01979 10.8591C5.99241 10.7928 5.96999 10.7245 5.95266 10.655C5.85196 10.3774 5.73446 10.0998 5.62537 9.83851C5.56942 9.71875 5.51907 9.60444 5.47432 9.49558L5.34844 9.21796L5.23097 8.96484C5.18063 9.0463 5.13578 9.13085 5.0967 9.21796C5.05028 9.31024 5.011 9.40577 4.9792 9.50374C4.92673 9.62064 4.88188 9.74062 4.84492 9.863C4.84492 9.92832 4.84493 9.99365 4.7778 10.059C4.71066 10.1243 4.73583 10.1978 4.71905 10.2713C4.68573 10.4168 4.66052 10.564 4.64353 10.7122C4.63103 10.8589 4.63103 11.0064 4.64353 11.1531C4.63999 11.293 4.65407 11.4329 4.68547 11.5695C4.71498 11.8054 4.78595 12.0347 4.89527 12.2472Z" fill="white"/>
<path d="M8.68 12.9902C8.78814 12.9261 8.89185 12.8552 8.9905 12.7779C9.0912 12.7044 9.17513 12.6309 9.26745 12.5493L9.51079 12.3288C9.58632 12.2553 9.65345 12.1819 9.72059 12.1247L9.80451 12.0267L9.87166 11.9532L10.0143 11.7981H9.74576C9.57793 11.7981 9.34296 11.7981 9.07442 11.7981C8.79355 11.8081 8.51342 11.8326 8.23523 11.8716H8.01703L7.81563 11.9287C7.68365 11.9624 7.55458 12.0061 7.42961 12.0594C7.32115 12.1107 7.21729 12.1708 7.11912 12.239C7.0314 12.2961 6.95229 12.3648 6.88412 12.4431C6.76341 12.5671 6.66167 12.7074 6.58202 12.8596C6.53569 12.9699 6.50192 13.0849 6.48132 13.2025V13.3331C6.68788 13.3782 6.89905 13.4001 7.11072 13.3985C7.31606 13.4012 7.52118 13.3848 7.72331 13.3495C7.95773 13.3134 8.18629 13.2475 8.40308 13.1535C8.49926 13.1055 8.5918 13.051 8.68 12.9902Z" fill="white"/>
<path d="M7.52193 8.09127C7.5763 8.28639 7.65821 8.47324 7.7653 8.64649C7.86894 8.82001 7.99593 8.97928 8.14292 9.12007C8.28815 9.01799 8.41565 8.89394 8.52057 8.75264C8.57199 8.68723 8.61963 8.61908 8.66324 8.54851C8.71311 8.4668 8.75795 8.38228 8.79751 8.29539C8.8898 8.08805 8.94648 7.86738 8.96534 7.64218C8.98514 7.37035 8.98514 7.0975 8.96534 6.82567C8.96534 6.53173 8.91498 6.23778 8.88141 6.00916C8.84785 5.78054 8.81429 5.50293 8.78911 5.33146C8.7701 5.24246 8.75608 5.1525 8.74714 5.06201L8.68842 5.11917L8.55414 5.27431C8.43665 5.41311 8.27719 5.60908 8.11775 5.82953C7.95219 6.09108 7.80635 6.36397 7.68138 6.64604C7.56245 6.90558 7.48329 7.18067 7.4464 7.46255C7.44222 7.52781 7.44222 7.59326 7.4464 7.65852C7.44202 7.72104 7.44202 7.78378 7.4464 7.84631C7.46648 7.92937 7.4917 8.01117 7.52193 8.09127Z" fill="white"/>
<path d="M10.9626 9.72423L11.1388 9.66708H11.2228H11.3067C11.6858 9.50595 12.0507 9.31479 12.3976 9.09552L12.5319 9.00571H12.5739H12.5067L12.3221 8.94038L11.6843 8.76075L11.2731 8.6791H11.0633H10.8451C10.5664 8.64603 10.2846 8.64603 10.0059 8.6791C9.77952 8.71219 9.56249 8.78999 9.36815 8.90772C9.28595 8.95365 9.2074 9.00551 9.13317 9.06286L8.95692 9.23433C8.84658 9.36082 8.75867 9.50431 8.69678 9.65891C8.88483 9.75064 9.08157 9.82447 9.28422 9.87937C9.48422 9.93479 9.68948 9.97035 9.89684 9.98552C10.1281 10.0138 10.3621 10.0138 10.5934 9.98552C10.724 9.90895 10.8475 9.82153 10.9626 9.72423Z" fill="white"/>
<path d="M11.6339 5.64164C11.6547 5.69266 11.6799 5.74184 11.7094 5.78861H11.7514L11.8521 5.73962C11.9711 5.68983 12.0837 5.62681 12.1878 5.55182C12.5203 5.30435 12.7783 4.97438 12.9347 4.5965C13.0018 4.4332 13.0605 4.26174 13.1193 4.07394C13.1853 3.8373 13.2385 3.59746 13.2787 3.3554C13.3291 3.11862 13.3794 2.89 13.413 2.69403C13.4801 2.28578 13.5137 2 13.5137 2C13.5137 2 13.371 2.08165 13.1528 2.23679C12.9346 2.39193 12.9095 2.40009 12.7752 2.50624C12.6409 2.61239 12.5067 2.72669 12.364 2.85733L12.1206 3.10229L12.0367 3.1921L11.978 3.26559L11.8773 3.39623C11.7407 3.56903 11.6278 3.75843 11.5416 3.95963C11.4885 4.07745 11.449 4.20069 11.4241 4.32705C11.4166 4.44397 11.4166 4.56124 11.4241 4.67815C11.4171 4.87946 11.4426 5.08059 11.4996 5.27421C11.5354 5.39961 11.5803 5.52239 11.6339 5.64164Z" fill="white"/>
<path d="M14.9488 7.02988L15.3684 6.9319L15.7125 6.85025C15.8207 6.82055 15.9271 6.78511 16.0314 6.7441C16.0314 6.7441 15.8048 6.5808 15.4607 6.37668C15.2708 6.26303 15.0747 6.15945 14.8733 6.0664C14.6537 5.96518 14.4264 5.88055 14.1935 5.81328C14.0238 5.76057 13.8497 5.72232 13.6732 5.69897C13.2644 5.6594 12.8537 5.75426 12.5067 5.96842C12.4055 6.04012 12.3102 6.11928 12.2214 6.20521L12.1543 6.27869L12.2885 6.38484C12.4026 6.48102 12.5263 6.56581 12.6578 6.63796C12.831 6.74117 13.0136 6.82863 13.2033 6.89924C13.3095 6.94046 13.4189 6.97323 13.5306 6.99723C13.6462 7.02759 13.764 7.04942 13.883 7.06254C14.238 7.10235 14.5971 7.09135 14.9488 7.02988Z" fill="white"/>
<path d="M20.2944 35.4034H19.9335H19.7153L19.472 35.3625L18.9265 35.2727L18.3223 35.1421L18.0034 35.0768L17.6845 34.987C17.4663 34.9298 17.2481 34.8808 17.0299 34.8073C16.2356 34.5614 15.459 34.2641 14.7054 33.9173L14.2858 33.7214L14.1095 33.6315L13.9669 33.5581L13.6984 33.4111L13.4214 33.2641L12.7249 32.8477C12.0311 32.4111 11.3694 31.9282 10.7444 31.4025C10.1252 30.8739 9.54214 30.3066 8.99888 29.7041C8.94013 29.647 8.88978 29.5817 8.83943 29.5245L8.67998 29.3204L8.45341 29.0509C8.39466 28.9856 8.3527 28.9203 8.31913 28.8795L8.26878 28.8141L8.09253 28.5773L7.88274 28.2997L7.63099 27.9323C7.58064 27.867 7.53867 27.7935 7.48832 27.72L7.34567 27.4914L7.03517 26.9851L6.73305 26.4381L6.65752 26.2911L6.582 26.1523C6.582 26.0543 6.48968 25.9563 6.43933 25.8584C6.1025 25.1425 5.82197 24.4028 5.60014 23.6456C5.60014 23.564 5.5498 23.4905 5.53301 23.4252C5.51623 23.3598 5.53301 23.2864 5.47426 23.221L5.39034 22.8863L5.32321 22.6005V22.527C5.30527 22.457 5.29128 22.3862 5.28126 22.3147L5.21411 21.9799C5.18137 21.837 5.15617 21.6926 5.13859 21.5472C5.13859 21.3921 5.1386 21.2206 5.07147 21.0328C5.06686 20.9866 5.06686 20.9401 5.07147 20.894C5.07147 20.894 5.07147 20.8042 5.07147 20.7552V20.4612C5.02951 20.0611 5.0295 19.6447 5.01272 19.2038C4.99593 18.7629 5.01272 18.3873 5.07147 17.9464V17.6524C5.07147 17.6034 5.07147 17.5544 5.07147 17.5055C5.06782 17.4593 5.06782 17.4129 5.07147 17.3667C5.07147 17.187 5.12181 17.0156 5.13859 16.8523C5.15537 16.689 5.18894 16.5501 5.21411 16.4195C5.23929 16.2889 5.26448 16.1827 5.28126 16.0847C5.29128 16.0133 5.30527 15.9424 5.32321 15.8724V15.799L5.39034 15.5132L5.47426 15.1866C5.47426 15.1213 5.47427 15.0559 5.53301 14.9824C5.55152 14.9079 5.57392 14.8343 5.60014 14.762C5.82197 14.0048 6.1025 13.2651 6.43933 12.5492C6.48968 12.4513 6.54004 12.3533 6.582 12.2553L6.65752 12.1083L6.73305 11.9695L7.03517 11.4143L7.34567 10.9162C7.38821 10.8345 7.43584 10.7555 7.48832 10.6794L7.63099 10.4753L7.88274 10.1079C7.95826 9.99356 8.03379 9.90374 8.09253 9.83026C8.15128 9.75677 8.26878 9.58531 8.26878 9.58531L8.31913 9.52815L8.45341 9.34852L8.67998 9.07907C8.72878 9.0279 8.77366 8.97332 8.81425 8.91577L8.9737 8.7443C9.51263 8.13792 10.096 7.57032 10.7192 7.04596C11.3421 6.51765 12.004 6.0346 12.6997 5.60073C12.9934 5.42926 13.22 5.27413 13.3962 5.18432L13.6732 5.03734L13.9417 4.89037L14.0844 4.80872L14.2606 4.72707L14.3865 4.66991C14.5346 4.67821 14.6831 4.67821 14.8312 4.66991C15.2756 4.65823 15.7116 4.54939 16.1068 4.35147C16.3234 4.24202 16.5238 4.1047 16.7026 3.94322L16.9712 3.69827L17.1978 3.46148L17.5418 3.06955C17.6174 2.9634 17.6677 2.90625 17.6677 2.90625H17.3992C17.2314 2.90625 16.9964 2.90625 16.7278 2.90625H16.5264H16.3166C16.174 2.90625 16.0313 2.95524 15.8886 2.97973C15.6152 3.03721 15.3502 3.12773 15.0998 3.24918C14.9004 3.35756 14.7216 3.49841 14.5711 3.66561C14.4591 3.79844 14.3685 3.94712 14.3026 4.10652C14.2605 4.21431 14.2323 4.32675 14.2186 4.44129C14.2153 4.45745 14.2153 4.47411 14.2186 4.49028H14.1683L13.992 4.57193L13.8494 4.65358L13.5725 4.80055L13.2955 4.94753L12.5906 5.37211C11.8894 5.81535 11.2193 6.30362 10.5849 6.83366C9.96269 7.3676 9.37682 7.94037 8.83103 8.54834C8.77228 8.60549 8.72193 8.67081 8.67158 8.72797L8.53731 8.89127L8.31073 9.16072C8.2436 9.2342 8.20165 9.29953 8.16808 9.34035L8.11771 9.39751L7.93309 9.64246L7.72329 9.92007L7.47154 10.2957C7.42119 10.361 7.37924 10.4345 7.32049 10.508L7.17782 10.7448C7.07712 10.8999 6.97642 11.0714 6.86732 11.251L6.56523 11.8062L6.4897 11.945L6.41415 12.092C6.41415 12.19 6.32186 12.2961 6.2715 12.3941C5.92987 13.1137 5.64921 13.8592 5.43231 14.6232L5.35679 14.8518C5.35679 14.9253 5.31482 14.9906 5.29804 15.0559C5.28125 15.1212 5.24769 15.2927 5.22251 15.3907C5.19734 15.4887 5.14699 15.6765 5.14699 15.6765V15.75C5.12838 15.8225 5.11436 15.8962 5.10502 15.9704L5.03789 16.3052C5.03789 16.4358 4.97915 16.5828 4.96237 16.7379C4.94558 16.8931 4.92039 17.0727 4.89522 17.2605C4.89117 17.3067 4.89117 17.3531 4.89522 17.3993C4.89522 17.4483 4.89522 17.4973 4.89522 17.5463V17.8402C4.85326 18.2485 4.85328 18.6567 4.83649 19.114C4.81971 19.5712 4.83647 19.9795 4.89522 20.3796V20.6817C4.89522 20.7307 4.89522 20.7797 4.89522 20.8205C4.89109 20.8694 4.89109 20.9186 4.89522 20.9675C4.89522 21.1471 4.94558 21.3267 4.96237 21.4819C4.97915 21.637 5.01272 21.7921 5.03789 21.9228C5.06307 22.0534 5.08823 22.1596 5.10502 22.2576C5.1218 22.3555 5.10503 22.4209 5.14699 22.478V22.5515C5.14699 22.5515 5.14699 22.6576 5.22251 22.8373C5.29804 23.0169 5.27286 23.0414 5.29804 23.172C5.32321 23.3027 5.34 23.3027 5.35679 23.3762L5.43231 23.5966C5.65045 24.3629 5.93107 25.111 6.2715 25.8339C6.32186 25.9319 6.37219 26.0298 6.41415 26.1278L6.4897 26.2748L6.56523 26.4218L6.86732 26.977L7.17782 27.4832L7.32049 27.72C7.37924 27.7935 7.42119 27.8588 7.47154 27.9323L7.72329 28.2997C7.80721 28.414 7.88274 28.5039 7.93309 28.5855L8.11771 28.8223L8.16808 28.8876C8.16808 28.8876 8.2436 28.9938 8.31073 29.0673L8.53731 29.3367L8.67158 29.5C8.72193 29.5572 8.77228 29.6225 8.83103 29.6796C9.37682 30.2876 9.96269 30.8604 10.5849 31.3943C11.2215 31.9218 11.8913 32.4099 12.5906 32.8559L13.2955 33.2723L13.5725 33.4193L13.8494 33.5744L13.992 33.6479L14.1683 33.7377L14.5879 33.9336C15.3513 34.2865 16.1393 34.5866 16.946 34.8318C17.1642 34.9053 17.3824 34.9543 17.6006 35.0196L17.9279 35.1013L18.2468 35.1747L18.8594 35.3054L19.4048 35.3952L19.6482 35.4442H19.8748L20.2356 35.485H20.5545V35.3217L20.2944 35.4034Z" fill="white"/>
<path d="M18.3224 35.2403C19.0133 35.422 19.646 35.7701 20.1623 36.2524C20.6785 36.7348 21.0617 37.3358 21.2764 38.0001L21.2092 35.4526L18.4818 35.1096L18.3224 35.2403Z" fill="white"/>
<path d="M78.5072 35.036C78.6185 35.024 78.7307 35.024 78.842 35.036H78.9318H79.0216L79.2013 35.0769C79.4814 35.1578 79.7545 35.2616 80.0178 35.3871C80.2954 35.5096 80.573 35.6402 80.8343 35.7709L81.4548 36.0975L81.6998 36.2363H81.6263L81.4303 36.3016C81.2507 36.3506 81.0139 36.4159 80.7363 36.4731L80.524 36.5139H80.2954C80.1404 36.522 79.985 36.522 79.83 36.5139C79.5327 36.528 79.2351 36.495 78.9481 36.4159C78.5055 36.2892 78.1122 36.0299 77.8214 35.6729C77.6949 35.5178 77.588 35.3478 77.5029 35.1667C77.652 35.076 77.8147 35.0099 77.9847 34.9707C78.1606 34.9745 78.3357 34.9964 78.5072 35.036Z" fill="white"/>
<path d="M77.6907 32.9049C77.8248 32.7105 77.978 32.53 78.1479 32.366L78.4174 32.1292L78.548 32.0313L78.6705 31.9251C78.8338 31.8026 78.9889 31.6965 79.0951 31.6312L79.2665 31.5168V31.77C79.2601 31.9778 79.241 32.185 79.2094 32.3905C79.1736 32.6661 79.119 32.9389 79.0461 33.207C78.9699 33.4613 78.8629 33.7053 78.7277 33.9337L78.6215 34.0807L78.5643 34.146L78.5154 34.2032C78.4448 34.278 78.3652 34.3438 78.2786 34.3991L78.0418 34.5461L77.8131 34.6359C77.6489 34.6841 77.478 34.7061 77.3069 34.7012C77.2867 34.5058 77.2867 34.3088 77.3069 34.1133C77.3277 33.9224 77.366 33.7338 77.4212 33.5499L77.4702 33.3948C77.4702 33.3458 77.4702 33.2968 77.5355 33.2397C77.5794 33.1246 77.6312 33.0128 77.6907 32.9049Z" fill="white"/>
<path d="M81.8222 33.4928L81.9038 33.4275C81.9998 33.344 82.1037 33.2702 82.2141 33.207L82.4427 33.1009L82.7122 33.0029C82.938 32.9399 83.1717 32.9097 83.4062 32.9131H83.8308L84.2717 32.9784L84.7289 33.0601L85.1535 33.1417L85.8394 33.2969L86.117 33.3704L85.8802 33.5255L85.6108 33.6888L85.4393 33.7786L85.2597 33.8684L84.8596 34.0481L84.6391 34.1297L84.533 34.1705H84.4187C84.1328 34.2585 83.8359 34.3053 83.5368 34.3093C83.0739 34.2935 82.6256 34.1431 82.2468 33.8766C82.1296 33.791 82.0178 33.6983 81.912 33.599L81.7977 33.4765L81.8222 33.4928Z" fill="white"/>
<path d="M82.606 31.8599C82.5406 32.067 82.4382 32.2607 82.3039 32.4314C82.2477 32.5026 82.1848 32.5682 82.1161 32.6274L81.9202 32.7662C81.8165 32.8305 81.7072 32.8852 81.5936 32.9295H81.4956C81.4956 32.9295 81.4956 32.8723 81.4384 32.7744C81.3952 32.6377 81.3597 32.4987 81.3323 32.358C81.2608 32.0397 81.2536 31.7104 81.311 31.3893C81.3685 31.0682 81.4896 30.7618 81.667 30.4881C81.7807 30.2955 81.9062 30.1101 82.0427 29.9329L82.2223 29.7043L82.3693 29.5247L82.508 29.3777C82.535 29.4579 82.5568 29.5397 82.5734 29.6226C82.5734 29.7778 82.655 29.9901 82.6959 30.235C82.6959 30.3575 82.6958 30.4881 82.7367 30.6269C82.7449 30.7629 82.7449 30.8992 82.7367 31.0352C82.7446 31.1712 82.7446 31.3075 82.7367 31.4435C82.7051 31.5857 82.6614 31.7251 82.606 31.8599Z" fill="white"/>
<path d="M85.7088 30.4227C85.7752 30.32 85.8518 30.2242 85.9374 30.1369C86.062 30.0054 86.205 29.8927 86.362 29.8021C86.5587 29.6792 86.7736 29.5883 86.9988 29.5327L87.2683 29.4755L87.5541 29.4184C88.044 29.3449 88.5992 29.3204 89.0156 29.2959H89.7423C89.7423 29.2959 89.6362 29.4265 89.4565 29.6143C89.2376 29.8562 88.9971 30.0776 88.738 30.2757L88.5992 30.3819L88.5339 30.4308L88.4604 30.4798L88.1583 30.6595C88.0581 30.7151 87.9545 30.7642 87.848 30.8064C87.7514 30.8526 87.6501 30.8882 87.5459 30.9126C87.0951 31.0281 86.62 31.0054 86.1823 30.8473C85.9863 30.7821 85.7996 30.6915 85.6271 30.5778C85.6487 30.5233 85.6761 30.4713 85.7088 30.4227Z" fill="white"/>
<path d="M85.5047 29.7859C85.4287 29.8787 85.3409 29.961 85.2434 30.0309L85.1209 30.1043C84.9985 29.9493 84.8919 29.7824 84.8025 29.6063C84.603 29.2399 84.4938 28.8312 84.484 28.4142C84.4841 28.2415 84.5006 28.0693 84.533 27.8998C84.533 27.8181 84.5739 27.7365 84.5984 27.6466C84.6229 27.5568 84.6392 27.4833 84.6718 27.4099C84.7079 27.2795 84.7516 27.1514 84.8025 27.0261L84.8433 26.9444V26.8628L84.9086 26.7158C84.9821 26.5362 85.0393 26.4219 85.0393 26.4219C85.1594 26.6057 85.2685 26.7966 85.3659 26.9934C85.4067 27.0751 85.4557 27.1731 85.4965 27.271L85.57 27.418C85.5854 27.471 85.6045 27.5228 85.6271 27.5732C85.7085 27.7885 85.774 28.0096 85.8231 28.2345C85.8231 28.3162 85.8231 28.406 85.8639 28.4877C85.8721 28.5691 85.8721 28.6512 85.8639 28.7326C85.865 28.9482 85.8234 29.1619 85.7415 29.3613C85.6875 29.5154 85.6074 29.659 85.5047 29.7859Z" fill="white"/>
<path d="M89.3178 26.7811H89.0239C88.8163 26.7694 88.6108 26.7338 88.4115 26.6749C88.4084 26.6287 88.4084 26.5823 88.4115 26.5361C88.4333 26.4882 88.4524 26.4392 88.4686 26.3892C88.4935 26.3242 88.5235 26.2614 88.5584 26.2014C88.6417 26.0437 88.7461 25.8981 88.8687 25.7686L88.9749 25.6543L89.0973 25.54C89.1921 25.4636 89.2932 25.3953 89.3994 25.3359C89.5184 25.2592 89.6441 25.1936 89.7751 25.1399L90.1833 24.9521L90.9998 24.6418L91.6612 24.4214L91.9388 24.3315L91.8245 24.5928C91.7832 24.6878 91.7369 24.7804 91.6857 24.8704C91.6285 24.9766 91.5632 25.0827 91.4897 25.2052C91.4175 25.3293 91.3385 25.4492 91.2529 25.5645L91.1876 25.6543L91.1141 25.7441L90.9672 25.9156C90.8672 26.0252 90.7609 26.1288 90.6487 26.2258C90.5956 26.277 90.5383 26.3234 90.4772 26.3647L90.2976 26.479C90.0788 26.6044 89.842 26.6953 89.5954 26.7484C89.5036 26.7647 89.4109 26.7756 89.3178 26.7811Z" fill="white"/>
<path d="M88.2318 25.4828C88.2021 25.7167 88.1243 25.9419 88.0032 26.1442L87.9052 26.2748C87.8752 26.3101 87.8425 26.3428 87.8072 26.3728C87.6459 26.2561 87.4956 26.1249 87.3581 25.9809L87.1785 25.7686C87.1114 25.6905 87.0487 25.6087 86.9907 25.5236C86.8712 25.3358 86.7778 25.1325 86.7131 24.9194L86.6641 24.7561C86.6641 24.699 86.6641 24.6418 86.6641 24.5765C86.6557 24.4596 86.6557 24.3423 86.6641 24.2254C86.6517 24.0051 86.6517 23.7843 86.6641 23.564C86.6641 23.466 86.6641 23.3681 86.6641 23.2864C86.6641 23.2048 86.6641 23.1231 86.6641 23.0578C86.6641 22.9925 86.6641 22.8618 86.6641 22.8618C86.7299 22.9154 86.7926 22.9727 86.8519 23.0333C87.0095 23.1777 87.1594 23.3303 87.301 23.4905C87.481 23.6923 87.6448 23.908 87.7909 24.1356C87.865 24.249 87.9331 24.3662 87.995 24.4867C88.053 24.6025 88.1022 24.7226 88.142 24.8459C88.1747 24.9551 88.1966 25.0672 88.2073 25.1807C88.2114 25.2323 88.2114 25.2842 88.2073 25.3358V25.4093C88.2073 25.4093 88.2318 25.4583 88.2318 25.4828Z" fill="white"/>
<path d="M91.4244 21.9717C91.3276 22.0424 91.2236 22.1026 91.1142 22.1514C90.9291 22.2458 90.7309 22.3118 90.5263 22.3473C90.3252 22.391 90.1196 22.4102 89.9139 22.4045C89.9018 22.2347 89.9156 22.064 89.9547 21.8983C89.9699 21.8177 89.9918 21.7385 90.02 21.6615C90.0498 21.5722 90.0852 21.4849 90.1262 21.4002C90.1715 21.3052 90.2262 21.2149 90.2895 21.1307L90.3956 20.9838C90.4194 20.9641 90.4413 20.9422 90.461 20.9184L90.5263 20.845C90.9438 20.4446 91.3975 20.0838 91.8817 19.7672C92.1103 19.612 92.3144 19.4732 92.4696 19.3834L92.7064 19.2283V19.5059C92.7064 19.6774 92.6329 19.9141 92.5594 20.1754C92.4798 20.4561 92.376 20.7293 92.2491 20.9919C92.2186 21.0624 92.1831 21.1306 92.143 21.1961C92.143 21.2614 92.0695 21.3185 92.0286 21.3839C91.9501 21.5019 91.8628 21.6138 91.7674 21.7186C91.6617 21.8141 91.5468 21.8989 91.4244 21.9717Z" fill="white"/>
<path d="M89.2689 22.2739C89.0775 22.2037 88.8941 22.1133 88.7218 22.0044C88.5513 21.9047 88.3901 21.7899 88.2401 21.6615C88.1598 21.5866 88.0835 21.5075 88.0114 21.4247C87.9343 21.3401 87.8633 21.2501 87.7991 21.1553C87.7341 21.0564 87.6768 20.9527 87.6277 20.845C87.5787 20.7388 87.546 20.6327 87.497 20.5184C87.4277 20.3068 87.3705 20.0914 87.3256 19.8733C87.2868 19.709 87.2568 19.5428 87.2357 19.3753V19.1711L87.4644 19.2855C87.6113 19.3589 87.7991 19.4733 88.0196 19.6121C88.2503 19.7603 88.4687 19.9269 88.6728 20.1101C88.8715 20.2883 89.0495 20.4883 89.2035 20.7062C89.2704 20.7996 89.3253 20.9011 89.3669 21.0083C89.3669 21.1063 89.424 21.2043 89.4485 21.3022C89.4562 21.3919 89.4562 21.482 89.4485 21.5717C89.461 21.6501 89.461 21.73 89.4485 21.8085C89.4153 21.9726 89.3545 22.13 89.2689 22.2739Z" fill="white"/>
<path d="M92.004 15.5866C92.004 15.7009 92.004 15.8153 91.9387 15.9214C91.8964 16.1343 91.825 16.3404 91.7264 16.5338C91.607 16.7509 91.4525 16.9468 91.2691 17.1135C91.115 17.2503 90.9451 17.3682 90.7629 17.4646C90.5792 17.559 90.3844 17.6303 90.1832 17.6769L90.1424 17.5381C90.1065 17.4209 90.0819 17.3006 90.0689 17.1788C90.0459 17.0054 90.0459 16.8297 90.0689 16.6563C90.1067 16.4333 90.1812 16.2181 90.2893 16.0194L90.42 15.7826C90.4443 15.7399 90.4716 15.699 90.5016 15.6601L90.5751 15.5458C90.7139 15.3417 90.8609 15.1376 91.016 14.9498L91.457 14.4109L91.9142 13.8801C91.9142 13.8801 91.9142 14.0353 91.9795 14.2884C91.9886 14.4352 91.9886 14.5825 91.9795 14.7293C91.9795 14.8926 91.9795 15.0722 91.9795 15.2519C91.9961 15.3627 92.0043 15.4746 92.004 15.5866Z" fill="white"/>
<path d="M87.7827 17.0728L87.6848 16.983L87.5949 16.8931C87.5311 16.831 87.4737 16.7626 87.4235 16.689C87.3672 16.6217 87.3154 16.5508 87.2683 16.4767L87.1295 16.2644C87.0524 16.1529 86.9841 16.0355 86.9254 15.9133L86.8437 15.7582C86.8437 15.701 86.7947 15.6602 86.7702 15.6112C86.7207 15.5188 86.6771 15.4233 86.6396 15.3254C86.6396 15.3254 86.9091 15.3744 87.2928 15.4724L87.6031 15.5622L87.9134 15.6765C88.1358 15.7606 88.3514 15.8616 88.5584 15.9787C88.7074 16.0613 88.8471 16.1598 88.9748 16.2726C89.1457 16.4101 89.2849 16.5827 89.3831 16.7788C89.4536 16.932 89.503 17.0941 89.53 17.2606C89.55 17.3768 89.55 17.4955 89.53 17.6117C89.5348 17.6578 89.5348 17.7043 89.53 17.7505C89.328 17.7374 89.1281 17.7018 88.934 17.6443C88.5139 17.5381 88.1213 17.3432 87.7827 17.0728Z" fill="white"/>
<path d="M89.9383 12.2472C89.8319 12.4189 89.7028 12.5754 89.5545 12.7126C89.4063 12.854 89.2419 12.9773 89.0646 13.08C89.035 13.0409 89.0077 13 88.983 12.9576C88.9187 12.8539 88.8641 12.7446 88.8197 12.6309C88.7466 12.4712 88.7023 12.2999 88.689 12.1247C88.6805 12.0187 88.6805 11.9122 88.689 11.8063C88.6817 11.6866 88.6817 11.5666 88.689 11.447C88.689 11.3218 88.7217 11.1912 88.787 11.0551C88.8136 10.9859 88.8354 10.915 88.8524 10.8428L88.9258 10.6387C89.0238 10.361 89.1381 10.0834 89.2443 9.82215L89.3913 9.47921L89.5137 9.2016L89.628 8.94849L89.7587 9.2016C89.7587 9.27509 89.8322 9.37307 89.873 9.48738L90.0036 9.84665C90.0264 9.91081 90.0455 9.97624 90.0608 10.0426C90.0836 10.1123 90.1027 10.1832 90.1179 10.2549C90.1179 10.4019 90.1751 10.5488 90.1996 10.6958C90.2077 10.8427 90.2077 10.9899 90.1996 11.1367C90.1989 11.2765 90.1853 11.4159 90.1588 11.5532C90.1268 11.7957 90.0521 12.0307 89.9383 12.2472Z" fill="white"/>
<path d="M86.264 12.9902C86.1579 12.9249 86.0599 12.8514 85.9619 12.7779C85.864 12.7044 85.7823 12.6309 85.7006 12.5493L85.4557 12.3288L85.2598 12.1247L85.1781 12.0267L85.1046 11.9532C85.0583 11.9039 85.0147 11.8521 84.974 11.7981H85.2353C85.3986 11.7981 85.6272 11.7981 85.8803 11.7981C86.1536 11.808 86.4261 11.8325 86.6968 11.8716H86.9009L87.105 11.9287C87.2308 11.9624 87.3537 12.0061 87.4725 12.0594C87.5796 12.1126 87.6833 12.1726 87.7828 12.239C87.8681 12.2961 87.9451 12.3648 88.0114 12.4431C88.1265 12.5672 88.2228 12.7075 88.2972 12.8596C88.3481 12.9685 88.3838 13.0839 88.4033 13.2025C88.4071 13.246 88.4071 13.2897 88.4033 13.3331C88.2023 13.3782 87.9969 13.4001 87.7909 13.3985C87.5938 13.4008 87.397 13.3844 87.203 13.3495C86.9747 13.3145 86.7522 13.2486 86.5417 13.1535C86.4454 13.1056 86.3527 13.051 86.264 12.9902Z" fill="white"/>
<path d="M87.3908 8.09127C87.3344 8.28515 87.2549 8.47156 87.154 8.64649C87.0488 8.81925 86.9227 8.97832 86.7784 9.12007C86.6388 9.01596 86.5151 8.8922 86.411 8.75264C86.3637 8.68702 86.3201 8.61888 86.2803 8.54851C86.2287 8.46859 86.1849 8.38382 86.1497 8.29539C86.0599 8.08805 86.0047 7.86738 85.9864 7.64218C85.9633 7.3705 85.9633 7.09735 85.9864 6.82567C85.9864 6.53173 86.0354 6.23778 86.0599 6.00916C86.0844 5.78054 86.1252 5.50293 86.1578 5.33146L86.1987 5.06201L86.2477 5.11917L86.3865 5.27431C86.5008 5.41311 86.6559 5.60908 86.8029 5.82953C86.9707 6.0872 87.1129 6.36067 87.2275 6.64604C87.3457 6.90526 87.4254 7.18032 87.4643 7.46255C87.4683 7.52781 87.4683 7.59326 87.4643 7.65852C87.4687 7.72104 87.4687 7.78379 87.4643 7.84631C87.4447 7.92936 87.4202 8.01116 87.3908 8.09127Z" fill="white"/>
<path d="M84.0757 9.72411L83.9042 9.66696H83.8226H83.7328C83.5217 9.58107 83.317 9.4801 83.1204 9.36485C82.9653 9.28425 82.8154 9.19427 82.6713 9.0954L82.5488 9.00559H82.4998H82.5652L82.7448 8.94026L83.3653 8.76063L83.7654 8.67898H83.9777H84.19C84.4612 8.64607 84.7354 8.64607 85.0065 8.67898C85.2268 8.71207 85.438 8.78987 85.6271 8.9076L85.8557 9.06274L86.019 9.23421C86.1264 9.3607 86.2119 9.50419 86.2721 9.65879C85.9098 9.84006 85.5163 9.95089 85.1127 9.9854C84.7514 9.98028 84.3963 9.89081 84.0757 9.72411Z" fill="white"/>
<path d="M83.3818 5.64164C83.3616 5.69266 83.337 5.74184 83.3083 5.78861L83.2021 5.73962C83.089 5.68973 82.9821 5.6267 82.8837 5.55182C82.5551 5.30751 82.3007 4.97681 82.1488 4.5965C82.0807 4.4261 82.0235 4.25156 81.9774 4.07394C81.912 3.84531 81.8631 3.59219 81.8141 3.3554C81.7651 3.11862 81.7242 2.89 81.6916 2.69403C81.6263 2.28578 81.5854 2 81.5854 2C81.7095 2.07216 81.8295 2.15122 81.9447 2.23679L82.3121 2.50624C82.4346 2.61239 82.5734 2.72669 82.7041 2.85733L82.9408 3.10229L83.0062 3.16761L83.0552 3.24109C83.093 3.28261 83.1284 3.32623 83.1613 3.37174C83.2883 3.54845 83.3977 3.73714 83.4879 3.93513C83.5335 4.05444 83.569 4.17734 83.5941 4.30256C83.6148 4.41866 83.6284 4.53591 83.6349 4.65366C83.6336 4.85452 83.6089 5.05455 83.5614 5.24971C83.5122 5.38499 83.4521 5.51607 83.3818 5.64164Z" fill="white"/>
<path d="M80.1646 7.02987L79.7564 6.93189L79.4216 6.85024C79.3163 6.82053 79.2127 6.7851 79.1113 6.74409C79.1113 6.74409 79.3236 6.58079 79.6584 6.37667C79.8432 6.26301 80.034 6.15943 80.2299 6.06639C80.4441 5.9665 80.6652 5.88192 80.8913 5.81327C81.0564 5.76056 81.2258 5.72231 81.3975 5.69896C81.7979 5.65943 82.2001 5.75422 82.5407 5.96841C82.6391 6.04011 82.7319 6.11927 82.8183 6.2052L82.8836 6.27868L82.753 6.38483C82.642 6.481 82.5216 6.5658 82.3937 6.63795C82.2223 6.74112 82.0419 6.82857 81.8548 6.89923C81.7519 6.9416 81.6453 6.9744 81.5364 6.99721C81.424 7.02833 81.3093 7.05017 81.1934 7.06253C80.8508 7.10248 80.5041 7.09148 80.1646 7.02987Z" fill="white"/>
<path d="M74.9635 35.4036H75.3064H75.5269L75.7637 35.3627L76.2944 35.2729L76.8741 35.1423L77.1844 35.077L77.5028 34.9871C77.707 34.93 77.9274 34.881 78.1315 34.8075C78.9071 34.5615 79.6654 34.2642 80.4014 33.9175L80.8097 33.7216L80.973 33.6317L81.1118 33.5583L81.3813 33.4113L81.6425 33.2643L82.3284 32.8479C83.0006 32.4073 83.6442 31.9246 84.2554 31.4027C84.8558 30.872 85.423 30.3048 85.9537 29.7043L86.1007 29.5247C86.1497 29.4675 86.1905 29.4104 86.2395 29.3614C86.2885 29.3124 86.3946 29.1736 86.4518 29.0919C86.5024 29.0405 86.5463 28.9829 86.5824 28.9205L86.6314 28.8552L86.811 28.6184C86.8813 28.5294 86.9467 28.4367 87.007 28.3408C87.0805 28.2346 87.1703 28.104 87.252 27.9733L87.3989 27.761L87.5377 27.5324C87.6275 27.3691 87.7337 27.1976 87.8398 27.0262C87.946 26.8547 88.0276 26.6669 88.1338 26.4791L88.2073 26.3321L88.2726 26.1933L88.4114 25.8994C88.7387 25.1833 89.0116 24.4436 89.2279 23.6866C89.2437 23.6115 89.2655 23.5378 89.2932 23.4662C89.2932 23.3927 89.2932 23.3274 89.3422 23.2621C89.3912 23.1967 89.4075 23.0253 89.4239 22.9273C89.4505 22.8332 89.4723 22.7378 89.4892 22.6415V22.568L89.53 22.3557C89.53 22.2659 89.53 22.1516 89.5872 22.021C89.619 21.8781 89.6436 21.7336 89.6607 21.5882C89.6607 21.4358 89.6852 21.2643 89.7341 21.0738V20.935C89.7385 20.8888 89.7385 20.8424 89.7341 20.7962V20.5022C89.7341 20.1022 89.7341 19.6857 89.7913 19.2448C89.8485 18.8039 89.7913 18.4283 89.7341 17.9874V17.6935C89.7382 17.6445 89.7382 17.5954 89.7341 17.5465V17.4077C89.7341 17.228 89.7096 17.0566 89.6607 16.8933C89.6607 16.7381 89.6117 16.5912 89.5872 16.4605C89.5627 16.3299 89.5463 16.2237 89.53 16.1257L89.4892 15.9135V15.84C89.4723 15.7437 89.4505 15.6483 89.4239 15.5542C89.4239 15.4644 89.3749 15.3501 89.3422 15.2276C89.3096 15.1051 89.3422 15.0969 89.2932 15.0235C89.2677 14.9511 89.2459 14.8776 89.2279 14.803C89.0116 14.046 88.7387 13.3063 88.4114 12.5903L88.2726 12.2963L88.2073 12.1493L88.1338 12.0105C88.0276 11.8227 87.9296 11.6349 87.8398 11.4553C87.75 11.2757 87.6275 11.1205 87.5377 10.9572C87.4479 10.7939 87.4479 10.7939 87.3989 10.7205L87.252 10.5163C87.1703 10.3775 87.0805 10.255 87.007 10.1489C86.9487 10.0516 86.8832 9.95879 86.811 9.87128L86.6314 9.62632L86.5824 9.56917C86.5468 9.50393 86.5029 9.44355 86.4518 9.38953L86.2395 9.12009C86.1892 9.06917 86.1428 9.01458 86.1007 8.95678L85.9537 8.78532C85.4272 8.18092 84.8598 7.61346 84.2554 7.08697C83.6463 6.56245 83.0025 6.07962 82.3284 5.64175C82.0426 5.47029 81.814 5.31515 81.6425 5.22533L81.3813 5.07836L81.1118 4.93139L80.973 4.84974L80.8097 4.76809L80.679 4.71093C80.5322 4.71922 80.385 4.71922 80.2381 4.71093C79.8083 4.7 79.3866 4.59108 79.0052 4.39249C78.792 4.28307 78.5943 4.14578 78.4173 3.98424L78.1642 3.73928L77.9356 3.50249C77.8131 3.34736 77.6824 3.20855 77.609 3.11057L77.4865 2.94727H77.7478C77.9111 2.94727 78.1397 2.94727 78.3928 2.94727H78.597H78.8011L79.2093 3.02075C79.4916 3.07629 79.7659 3.16681 80.0258 3.2902C80.2184 3.4007 80.3921 3.54128 80.5402 3.70662C80.6471 3.83948 80.7325 3.98825 80.7934 4.14754C80.8363 4.25522 80.8665 4.36758 80.8832 4.48231C80.8832 4.48231 80.8832 4.48231 80.8832 4.5313L81.0546 4.61295L81.2016 4.6946C81.3649 4.79258 81.4711 4.84157 81.4711 4.84157L81.7323 4.98854L82.4182 5.41313C83.1033 5.85237 83.7555 6.34085 84.3697 6.87469C84.9795 7.4066 85.5524 7.97949 86.0843 8.58936C86.1415 8.64651 86.1905 8.71183 86.2395 8.76899L86.3701 8.93229L86.5906 9.20174C86.6398 9.2573 86.6835 9.31745 86.7212 9.38137L86.7702 9.43853L86.9498 9.68348L87.154 9.9611L87.3989 10.3367L87.5459 10.549C87.5949 10.6225 87.6357 10.7041 87.6847 10.7858C87.7337 10.8674 87.8807 11.1124 87.9868 11.292L88.2808 11.8472L88.3624 11.986C88.3876 12.0335 88.4094 12.0826 88.4277 12.133C88.4767 12.231 88.5257 12.3371 88.5665 12.4351C88.8984 13.1549 89.1714 13.9004 89.383 14.6642C89.383 14.7458 89.432 14.8193 89.4484 14.8928C89.4647 14.9663 89.4892 15.0316 89.5055 15.0969C89.5218 15.1623 89.5627 15.3337 89.5872 15.4317L89.6525 15.7175C89.6542 15.742 89.6542 15.7665 89.6525 15.791C89.6741 15.8632 89.6905 15.9369 89.7015 16.0114C89.7015 16.1013 89.7015 16.2156 89.7586 16.3462C89.8158 16.4769 89.8158 16.6238 89.8321 16.779C89.8484 16.9341 89.8811 17.1137 89.9056 17.3015C89.9017 17.3477 89.9017 17.3941 89.9056 17.4403C89.9097 17.4892 89.9097 17.5384 89.9056 17.5873V17.8812C89.9546 18.2895 89.9546 18.6978 89.9628 19.155C89.9648 19.5776 89.9458 19.9999 89.9056 20.4206V20.7227C89.91 20.7689 89.91 20.8153 89.9056 20.8615C89.9016 20.9104 89.9016 20.9596 89.9056 21.0085C89.9056 21.1881 89.8566 21.3677 89.8321 21.5229C89.8076 21.678 89.7831 21.8332 89.7586 21.9638C89.7341 22.0944 89.7178 22.2006 89.7015 22.2986C89.6852 22.3966 89.7015 22.4619 89.6525 22.519V22.5925L89.5872 22.8783L89.5055 23.2131C89.5055 23.2784 89.5055 23.3437 89.4484 23.4172C89.4303 23.4917 89.4086 23.5653 89.383 23.6376C89.1703 24.4038 88.8973 25.1519 88.5665 25.8749C88.5257 25.9729 88.4767 26.0709 88.4277 26.1688C88.4094 26.2193 88.3876 26.2684 88.3624 26.3158C88.3383 26.3665 88.3111 26.4156 88.2808 26.4628L87.9868 27.018L87.6847 27.5242C87.6357 27.6059 87.5949 27.6875 87.5459 27.761L87.3989 27.9733L87.154 28.3408C87.0805 28.4551 87.007 28.5449 86.9498 28.6265L86.7702 28.8633L86.7212 28.9286C86.6835 28.9926 86.6398 29.0527 86.5906 29.1083L86.3701 29.3777L86.2395 29.541C86.1905 29.5982 86.1415 29.6635 86.0843 29.7207C85.0283 30.9525 83.8021 32.0275 82.4427 32.9132L81.7568 33.3296L81.4956 33.4766L81.2261 33.6317L81.0791 33.7052L80.9077 33.795L80.4994 33.991C79.7595 34.344 78.9955 34.6441 78.2132 34.8892C78.0009 34.9627 77.7804 35.0116 77.5681 35.077L77.2579 35.1586L76.9394 35.2321L76.3515 35.3627L75.8126 35.4526L75.5759 35.5016H75.3554L75.0043 35.5424H74.7022V35.3791L74.9635 35.4036Z" fill="white"/>
<path d="M76.8741 35.2403C76.2026 35.4234 75.5876 35.772 75.0855 36.2541C74.5835 36.7362 74.2102 37.3365 74 38.0001L74.0653 35.4526L76.719 35.1096L76.8741 35.2403Z" fill="white"/>
<defs>
<linearGradient id="paint0_linear_1592_41089" x1="48" y1="0" x2="48" y2="40" gradientUnits="userSpaceOnUse">
<stop stop-color="#FFB571"/>
<stop offset="1" stop-color="#E2B11C"/>
</linearGradient>
</defs>
</svg>
