<svg width="24" height="24" viewBox="0 0 24 24" fill="none" xmlns="http://www.w3.org/2000/svg">
<path d="M15 10.0006L19.553 7.72461C19.7054 7.64844 19.8748 7.61249 20.045 7.62015C20.2152 7.62782 20.3806 7.67885 20.5256 7.76841C20.6706 7.85797 20.7902 7.98308 20.8733 8.13188C20.9563 8.28067 20.9999 8.44822 21 8.61861V15.3826C20.9999 15.553 20.9563 15.7205 20.8733 15.8693C20.7902 16.0181 20.6706 16.1432 20.5256 16.2328C20.3806 16.3224 20.2152 16.3734 20.045 16.3811C19.8748 16.3887 19.7054 16.3528 19.553 16.2766L15 14.0006V10.0006Z" stroke="#70777C" stroke-width="2" stroke-linecap="round" stroke-linejoin="round"/>
<path d="M13 6H5C3.89543 6 3 6.89543 3 8V16C3 17.1046 3.89543 18 5 18H13C14.1046 18 15 17.1046 15 16V8C15 6.89543 14.1046 6 13 6Z" stroke="#70777C" stroke-width="2" stroke-linecap="round" stroke-linejoin="round"/>
</svg>
