<svg width="16" height="18" viewBox="0 0 16 18" fill="none" xmlns="http://www.w3.org/2000/svg">
<path fill-rule="evenodd" clip-rule="evenodd" d="M0.708344 9.83333C0.708344 7.64717 2.48055 5.875 4.66668 5.875H11.3333C13.5195 5.875 15.2917 7.64717 15.2917 9.83333V13.1667C15.2917 15.3528 13.5195 17.125 11.3333 17.125H4.66668C2.48055 17.125 0.708344 15.3528 0.708344 13.1667V9.83333ZM4.66668 7.125C3.1709 7.125 1.95834 8.33758 1.95834 9.83333V13.1667C1.95834 14.6624 3.1709 15.875 4.66668 15.875H11.3333C12.8291 15.875 14.0417 14.6624 14.0417 13.1667V9.83333C14.0417 8.33758 12.8291 7.125 11.3333 7.125H4.66668Z" fill="#252525"/>
<path fill-rule="evenodd" clip-rule="evenodd" d="M8 10.042C8.34517 10.042 8.625 10.3218 8.625 10.667V12.3337C8.625 12.6788 8.34517 12.9587 8 12.9587C7.65483 12.9587 7.375 12.6788 7.375 12.3337V10.667C7.375 10.3218 7.65483 10.042 8 10.042Z" fill="#252525"/>
<path fill-rule="evenodd" clip-rule="evenodd" d="M4.04169 4.83333C4.04169 2.64721 5.8139 0.875 8.00002 0.875C10.1862 0.875 11.9584 2.64721 11.9584 4.83333V6.5H10.7084V4.83333C10.7084 3.33756 9.49577 2.125 8.00002 2.125C6.50427 2.125 5.29169 3.33756 5.29169 4.83333V6.5H4.04169V4.83333Z" fill="#252525"/>
</svg>
