<svg width="64" height="65" viewBox="0 0 64 65" fill="none" xmlns="http://www.w3.org/2000/svg">
<g clip-path="url(#clip0_1582_532)">
<path d="M31.9183 15.5092C32.4118 14.9812 32.7874 14.5585 33.1884 14.1575C37.5804 9.75947 41.9754 5.36386 46.3734 0.970673C48.0517 -0.702174 50.7007 -0.0816588 51.3103 2.1228C51.6278 3.26948 51.2958 4.25649 50.4503 5.09836C47.2364 8.30011 44.0268 11.5055 40.8214 14.7145C40.635 14.8805 40.4387 15.035 40.2336 15.1772L40.3207 15.3931H41.0083C43.7299 15.3931 46.4514 15.4856 49.173 15.3713C53.7288 15.1808 57.0419 17.2437 59.5693 20.8289C61.7828 23.9696 63.0438 27.5149 63.4811 31.296C64.1796 37.1356 64.1796 43.0376 63.4811 48.8772C62.915 53.4767 61.3038 57.7223 58.0652 61.1823C55.7972 63.6045 53.0285 64.811 49.6556 64.7929C37.9511 64.7439 26.2502 64.7112 14.5403 64.8074C10.2983 64.8419 7.12137 63.0946 4.6502 59.8233C2.17903 56.552 0.830956 52.8525 0.399136 48.8591C0.0562206 45.6894 0.0199361 42.4798 0.0108643 39.2865C0.0108643 36.6157 0.0671105 33.925 0.397325 31.2797C0.928935 27.0105 2.38043 23.0425 5.18 19.6841C7.53867 16.8482 10.5124 15.2788 14.3008 15.3786C17.1349 15.453 19.9707 15.3931 22.8066 15.3931H23.6738C23.4108 15.1082 23.2547 14.9268 23.086 14.7581C19.8637 11.5345 16.6401 8.30919 13.4154 5.08203C12.2978 3.96257 12.1236 2.44757 12.9527 1.2519C13.9942 -0.250396 16.0481 -0.442719 17.3998 0.874512C19.0327 2.47478 20.6457 4.10772 22.2659 5.72795C25.2983 8.76157 28.3283 11.7952 31.3559 14.8288C31.5192 15.0103 31.6679 15.2116 31.9183 15.5092ZM31.9183 58.9615C37.9511 58.9615 43.9839 58.9433 50.0166 58.9742C51.4046 58.9742 52.5967 58.5424 53.4893 57.5481C54.3629 56.6018 55.1206 55.5548 55.7464 54.4292C57.3794 51.3684 57.9817 48.0281 58.0489 44.5917C58.1033 41.8702 58.1305 39.1486 58.0489 36.427C57.9991 34.5486 57.8142 32.6762 57.4955 30.8243C57.002 28.0755 56.0059 25.5009 54.1843 23.3201C53.0212 21.9302 51.6079 21.1845 49.7028 21.1936C37.7727 21.2396 25.8432 21.2426 13.9144 21.2027C12.4756 21.2027 11.269 21.6617 10.3201 22.6741C9.5838 23.4435 8.9396 24.2959 8.4005 25.2143C6.56799 28.4202 5.89849 31.9474 5.8241 35.5942C5.76423 38.4972 5.70616 41.4002 5.84406 44.3032C5.95058 46.427 6.2297 48.5387 6.67867 50.6172C7.19395 53.0285 8.22451 55.2584 9.91005 57.1217C11.0295 58.3591 12.3631 59.0014 14.0994 58.9851C20.0288 58.927 25.9708 58.9615 31.9129 58.9615H31.9183Z" fill="#ADD0FF"/>
<path d="M38.0999 46.7201C35.7412 46.7001 33.6692 45.9036 31.9692 44.2326C30.6592 42.9444 29.3692 41.6344 28.0683 40.339C26.5714 38.8475 24.9839 38.8403 23.4943 40.3154C22.881 40.9214 22.2859 41.5455 21.6617 42.1388C20.4244 43.3145 18.6553 43.3091 17.5141 42.1388C16.3729 40.9685 16.3928 39.2558 17.5522 38.0402C18.2888 37.2709 19.0382 36.5088 19.8165 35.7831C21.4615 34.2517 23.6337 33.4135 25.881 33.4429C28.1283 33.4723 30.2777 34.367 31.8821 35.9409C33.2102 37.2436 34.5111 38.5736 35.8302 39.8854C37.2653 41.3133 38.8783 41.3205 40.308 39.9089C40.9213 39.3048 41.52 38.6824 42.1405 38.0855C43.4106 36.8626 45.1796 36.8445 46.3372 38.0274C47.4947 39.2104 47.4457 40.9685 46.2101 42.2277C45.5588 42.8918 44.9038 43.5522 44.2361 44.1999C43.4302 45.0041 42.4731 45.6408 41.4199 46.0733C40.3668 46.5059 39.2384 46.7257 38.0999 46.7201Z" fill="#ADD0FF"/>
</g>
<defs>
<clipPath id="clip0_1582_532">
<rect width="64" height="64.8128" fill="white"/>
</clipPath>
</defs>
</svg>
