<svg width="22" height="23" viewBox="0 0 22 23" fill="none" xmlns="http://www.w3.org/2000/svg">
<g clip-path="url(#clip0_1904_6467)">
<path d="M10 21.782V21.032V21.782ZM9 21.782L9 22.532L9 21.782ZM3 15.782H3.75H3ZM3 9.78198H2.25H3ZM9 3.78198V3.03198V3.78198ZM10 3.78198V4.53198V3.78198ZM3.06156 7.99981L2.32079 7.88248L2.32079 7.88248L3.06156 7.99981ZM7.21783 3.84354L7.33515 4.58431L7.21783 3.84354ZM7.21783 21.7204L7.1005 22.4612H7.1005L7.21783 21.7204ZM3.06156 17.5642L2.32079 17.6815L2.32079 17.6815L3.06156 17.5642ZM13.4504 21.382C13.7816 21.1333 13.8484 20.6631 13.5997 20.3319C13.3509 20.0007 12.8808 19.9339 12.5496 20.1827L13.4504 21.382ZM12.5496 5.38129C12.8808 5.63006 13.3509 5.56324 13.5997 5.23205C13.8484 4.90086 13.7816 4.43071 13.4504 4.18194L12.5496 5.38129ZM7 12.032C6.58579 12.032 6.25 12.3678 6.25 12.782C6.25 13.1962 6.58579 13.532 7 13.532L7 12.032ZM20 12.782V13.532V12.782ZM17.466 8.1943C17.1414 7.93695 16.6697 7.99144 16.4123 8.31601C16.155 8.64058 16.2095 9.11232 16.534 9.36967L17.466 8.1943ZM18.763 10.1798L19.2289 9.59215L18.763 10.1798ZM18.763 15.3841L19.2289 15.9718L18.763 15.3841ZM16.534 16.1943C16.2095 16.4516 16.155 16.9234 16.4123 17.248C16.6697 17.5725 17.1414 17.627 17.466 17.3697L16.534 16.1943ZM20.9801 12.5313L21.7208 12.4133V12.4133L20.9801 12.5313ZM20.9801 13.0326L21.7208 13.1507V13.1507L20.9801 13.0326ZM21 12.782H21.75H21ZM10 21.032H9L9 22.532H10L10 21.032ZM3.75 15.782L3.75 9.78198H2.25L2.25 15.782H3.75ZM9 4.53198L10 4.53198V3.03198L9 3.03198V4.53198ZM3.75 9.78198C3.75 8.82432 3.75233 8.4328 3.80232 8.11713L2.32079 7.88248C2.24767 8.34414 2.25 8.88164 2.25 9.78198H3.75ZM9 3.03198C8.09966 3.03198 7.56216 3.02965 7.1005 3.10277L7.33515 4.58431C7.65082 4.53431 8.04233 4.53198 9 4.53198V3.03198ZM3.80232 8.11714C4.09035 6.29859 5.51661 4.87234 7.33515 4.58431L7.1005 3.10277C4.64012 3.49246 2.71048 5.4221 2.32079 7.88248L3.80232 8.11714ZM9 21.032C8.04233 21.032 7.65082 21.0297 7.33515 20.9797L7.1005 22.4612C7.56216 22.5343 8.09965 22.532 9 22.532L9 21.032ZM2.25 15.782C2.25 16.6823 2.24767 17.2198 2.32079 17.6815L3.80232 17.4468C3.75233 17.1312 3.75 16.7396 3.75 15.782H2.25ZM7.33515 20.9797C5.51661 20.6916 4.09035 19.2654 3.80232 17.4468L2.32079 17.6815C2.71048 20.1419 4.64012 22.0715 7.1005 22.4612L7.33515 20.9797ZM10 22.532C11.2936 22.532 12.4894 22.1039 13.4504 21.382L12.5496 20.1827C11.8393 20.7162 10.9576 21.032 10 21.032L10 22.532ZM10 4.53198C10.9576 4.53198 11.8393 4.84781 12.5496 5.38129L13.4504 4.18194C12.4894 3.46005 11.2936 3.03198 10 3.03198V4.53198ZM7 13.532L20 13.532V12.032L7 12.032L7 13.532ZM16.534 9.36967L18.297 10.7675L19.2289 9.59215L17.466 8.1943L16.534 9.36967ZM18.297 14.7965L16.534 16.1943L17.466 17.3697L19.2289 15.9718L18.297 14.7965ZM18.297 10.7675C19.0143 11.3363 19.5012 11.7238 19.8289 12.0502C20.1532 12.3733 20.2225 12.5431 20.2395 12.6493L21.7208 12.4133C21.6294 11.8401 21.2932 11.3916 20.8875 10.9875C20.4852 10.5867 19.9176 10.1381 19.2289 9.59215L18.297 10.7675ZM19.2289 15.9718C19.9175 15.4258 20.4852 14.9772 20.8875 14.5765C21.2932 14.1724 21.6294 13.7238 21.7208 13.1507L20.2395 12.9146C20.2225 13.0208 20.1532 13.1907 19.8289 13.5138C19.5012 13.8402 19.0143 14.2277 18.297 14.7965L19.2289 15.9718ZM20.2395 12.6493C20.2465 12.6937 20.25 12.7379 20.25 12.782H21.75C21.75 12.6586 21.7402 12.5354 21.7208 12.4133L20.2395 12.6493ZM20.25 12.782C20.25 12.826 20.2465 12.8703 20.2395 12.9146L21.7208 13.1507C21.7402 13.0285 21.75 12.9054 21.75 12.782H20.25ZM20 13.532H21V12.032H20V13.532Z" fill="#FF8588"/>
</g>
<defs>
<clipPath id="clip0_1904_6467">
<rect width="22" height="22" fill="white" transform="translate(0 0.781982)"/>
</clipPath>
</defs>
</svg>
