<svg width="21" height="20" viewBox="0 0 21 20" fill="none" xmlns="http://www.w3.org/2000/svg">
<circle cx="10.5" cy="10" r="9.5" fill="url(#paint0_linear_3639_14168)" stroke="#EEF3F8"/>
<path d="M15.2581 7.66985C15.1029 7.31059 14.8792 6.98504 14.5994 6.71141C14.3194 6.43696 13.9894 6.21886 13.6271 6.06897C13.2514 5.91293 12.8485 5.83306 12.4418 5.83399C11.8711 5.83399 11.3143 5.99026 10.8305 6.28543C10.7147 6.35604 10.6048 6.4336 10.5006 6.5181C10.3964 6.4336 10.2864 6.35604 10.1707 6.28543C9.68682 5.99026 9.13005 5.83399 8.55938 5.83399C8.14845 5.83399 7.75026 5.91271 7.37406 6.06897C7.01059 6.21945 6.68301 6.43591 6.40172 6.71141C6.1216 6.98473 5.89782 7.31036 5.74308 7.66985C5.58219 8.04374 5.5 8.44077 5.5 8.84938C5.5 9.23484 5.57871 9.63651 5.73498 10.0451C5.86578 10.3866 6.0533 10.7408 6.29291 11.0985C6.67259 11.6645 7.19464 12.2549 7.84286 12.8533C8.91706 13.8453 9.98084 14.5306 10.026 14.5584L10.3003 14.7343C10.4219 14.8119 10.5781 14.8119 10.6997 14.7343L10.974 14.5584C11.0192 14.5294 12.0818 13.8453 13.1571 12.8533C13.8053 12.2549 14.3274 11.6645 14.7071 11.0985C14.9467 10.7408 15.1354 10.3866 15.265 10.0451C15.4213 9.63651 15.5 9.23484 15.5 8.84938C15.5011 8.44077 15.419 8.04374 15.2581 7.66985Z" fill="white"/>
<defs>
<linearGradient id="paint0_linear_3639_14168" x1="10.5" y1="0" x2="10.5" y2="20" gradientUnits="userSpaceOnUse">
<stop stop-color="#FFA9B4"/>
<stop offset="1" stop-color="#F30020"/>
</linearGradient>
</defs>
</svg>
