<svg width="24" height="24" viewBox="0 0 24 24" fill="none" xmlns="http://www.w3.org/2000/svg">
<g clip-path="url(#clip0_327_14490)">
<path fill-rule="evenodd" clip-rule="evenodd" d="M5.49637 3.99765C5.28922 3.94299 5.07136 3.94361 4.86452 3.99945C4.65769 4.0553 4.46911 4.16441 4.31762 4.3159C4.16613 4.46739 4.05702 4.65596 4.00118 4.8628C3.94533 5.06963 3.94471 5.2875 3.99937 5.49465L5.26337 10.2846L2.57937 14.4506C2.07137 15.2406 2.60337 16.2846 3.54137 16.3376L8.48737 16.6156L11.6194 20.4536C11.7548 20.6196 11.9314 20.7472 12.1316 20.8236C12.3317 20.9 12.5484 20.9226 12.76 20.8891C12.9716 20.8556 13.1707 20.7672 13.3375 20.6327C13.5042 20.4982 13.6328 20.3223 13.7104 20.1226L15.1074 16.5226L19.7154 21.1306C19.9029 21.3183 20.1572 21.4238 20.4225 21.4238C20.6878 21.4239 20.9422 21.3187 21.1299 21.1311C21.3175 20.9436 21.423 20.6893 21.4231 20.424C21.4232 20.1587 21.3179 19.9043 21.1304 19.7166L16.5224 15.1086L20.1214 13.7116C20.3211 13.6341 20.4969 13.5055 20.6314 13.3387C20.7659 13.172 20.8543 12.9729 20.8878 12.7613C20.9213 12.5497 20.8987 12.333 20.8223 12.1328C20.7459 11.9327 20.6184 11.7561 20.4524 11.6206L16.6144 8.48765L16.3364 3.54165C16.3241 3.32789 16.2561 3.12108 16.139 2.94183C16.0219 2.76257 15.8599 2.61713 15.6691 2.52001C15.4783 2.42289 15.2653 2.37747 15.0515 2.38828C14.8377 2.3991 14.6304 2.46577 14.4504 2.58165L10.2864 5.26065L5.49637 3.99665V3.99765ZM7.28437 10.1046L6.27237 6.27165L10.1064 7.28265C10.4384 7.37065 10.7924 7.31465 11.0824 7.12865L14.4154 4.98165L14.6384 8.94065C14.6574 9.28365 14.8204 9.60265 15.0864 9.82065L18.1584 12.3276L14.4624 13.7626C14.1424 13.8866 13.8884 14.1406 13.7634 14.4606L12.3284 18.1576L9.82137 15.0856C9.7139 14.9538 9.58015 14.8458 9.42864 14.7685C9.27713 14.6912 9.11119 14.6463 8.94137 14.6366L4.98237 14.4146L7.12937 11.0806C7.22129 10.9375 7.28252 10.7769 7.3092 10.6089C7.33588 10.4409 7.32742 10.2692 7.28437 10.1046Z" fill="black"/>
</g>
<defs>
<clipPath id="clip0_327_14490">
<rect width="24" height="24" fill="white"/>
</clipPath>
</defs>
</svg>
