<svg width="40" height="40" viewBox="0 0 40 40" fill="none" xmlns="http://www.w3.org/2000/svg">
<path d="M25.7208 8.58201C26.1576 8.58201 26.5118 8.93614 26.5118 9.37305L26.5118 10.1641L27.3029 10.1641C27.7397 10.1641 28.0939 10.5182 28.0939 10.9551C28.0939 11.392 27.7398 11.7462 27.3029 11.7462L26.5118 11.7462L26.5118 12.5372C26.5118 12.9741 26.1577 13.3283 25.7208 13.3283C25.284 13.3283 24.9297 12.9742 24.9297 12.5372L24.9297 11.7462L24.1387 11.7462C23.7019 11.7462 23.3477 11.3921 23.3477 10.9551C23.3477 10.5183 23.7018 10.1641 24.1387 10.1641L24.9297 10.1641L24.9297 9.37305C24.9297 8.93623 25.2839 8.58201 25.7208 8.58201ZM11.7462 27.3028L11.7462 26.5117L12.5372 26.5117C12.974 26.5117 13.3283 26.1576 13.3283 25.7207C13.3283 25.2838 12.9741 24.9296 12.5372 24.9296L11.7462 24.9296L11.7462 24.1386C11.7462 23.7017 11.392 23.3475 10.9551 23.3475C10.5183 23.3475 10.1641 23.7017 10.1641 24.1386L10.1641 24.9296L9.37304 24.9296C8.93622 24.9296 8.582 25.2838 8.582 25.7207C8.582 26.1576 8.93613 26.5117 9.37304 26.5117L10.1641 26.5117L10.1641 27.3028C10.1641 27.7396 10.5182 28.0938 10.9551 28.0938C11.392 28.0938 11.7462 27.7396 11.7462 27.3028ZM8.58209 7.79105L8.58209 8.5821L7.79104 8.5821C7.35422 8.5821 7 8.93623 7 9.37314C7 9.80997 7.35413 10.1642 7.79104 10.1642L8.58209 10.1642L8.58209 10.9552C8.58209 11.3921 8.93622 11.7463 9.37313 11.7463C9.80996 11.7463 10.1642 11.3922 10.1642 10.9552L10.1642 10.1642L10.9552 10.1642C11.392 10.1642 11.7463 9.81006 11.7463 9.37314C11.7463 8.93632 11.3921 8.5821 10.9552 8.5821L10.1642 8.5821L10.1642 7.79105C10.1642 7.35422 9.81005 7 9.37313 7C8.93631 7 8.58209 7.35413 8.58209 7.79105ZM24.6513 26.8886C24.2395 27.3005 24.2395 27.9683 24.6513 28.3802L29.4989 33.2277C30.5286 34.2574 32.1981 34.2574 33.2278 33.2277C34.2574 32.1981 34.2574 30.5286 33.2278 29.4989L28.3802 24.6513C27.9683 24.2394 27.3006 24.2394 26.8887 24.6513L24.6513 26.8886ZM20.6179 22.8552L23.5326 25.7699L25.77 23.5326L22.8552 20.6178L21.1484 21.1484L20.6179 22.8552ZM19.448 10.3377L16.2401 12.7316L12.4494 11.4462C11.8285 11.2356 11.2358 11.8284 11.4463 12.4493L12.7318 16.2399L10.3379 19.4478C9.94576 19.9732 10.3264 20.7202 10.982 20.7119L14.9843 20.6608L17.2955 23.9288C17.674 24.4641 18.5021 24.3329 18.6967 23.7069L19.8849 19.8846L23.7071 18.6965C24.3332 18.5018 24.4644 17.6739 23.929 17.2952L20.661 14.9841L20.7121 10.9817C20.7203 10.3262 19.9734 9.9456 19.448 10.3377Z" fill="white"/>
</svg>
