<svg width="14" height="18" viewBox="0 0 14 18" fill="none" xmlns="http://www.w3.org/2000/svg">
<path d="M10.2286 8.77893V8.06464C10.6858 8.06464 11.0579 7.6925 11.0579 7.23536C11.0579 6.98214 10.9447 6.74643 10.7468 6.58857C10.654 6.51428 10.6043 6.39893 10.6136 6.28071C10.765 4.42143 10.3865 3.07893 9.48968 2.29C8.16682 1.12679 6.09968 1.49321 5.69932 1.57857C5.01504 1.72429 4.16218 1.73821 3.49682 1.61679C3.51147 2.0125 3.67004 2.52107 3.79754 2.81464C3.84397 2.92143 3.8354 3.04464 3.77468 3.14357C2.94397 4.49893 3.38147 6.12786 3.4004 6.19643C3.43968 6.33857 3.38754 6.49 3.26968 6.57821C3.06111 6.73357 2.94183 6.97286 2.94183 7.235C2.94183 7.69214 3.31397 8.06428 3.77111 8.06428V8.77857C2.92004 8.77857 2.22754 8.08607 2.22754 7.235C2.22754 6.83428 2.38575 6.44964 2.66004 6.16607C2.54718 5.6175 2.36575 4.21714 3.07361 2.92857C2.93218 2.55679 2.65504 1.69536 2.84861 1.07571C2.90575 0.892856 3.09754 0.787142 3.28183 0.837499C3.28683 0.838571 3.39111 0.866428 3.55325 0.899642C4.1404 1.02071 4.92468 1.0125 5.55075 0.879285C6.01075 0.781785 8.38218 0.364642 9.96111 1.75286C11.0068 2.67214 11.47 4.15536 11.3386 6.16214C11.6161 6.44821 11.7722 6.82928 11.7722 7.23464C11.7722 8.08643 11.08 8.77893 10.2286 8.77893Z" fill="black"/>
<path d="M6.9922 11.6211C6.90327 11.6211 6.81398 11.6175 6.72434 11.6107C5.43577 11.5104 4.32077 10.6771 3.8147 9.43643C3.63613 8.99857 3.54541 8.5375 3.54541 8.06536V6.10821C3.54541 6.00964 3.58648 5.915 3.65862 5.8475C3.73077 5.78 3.83077 5.74571 3.92648 5.75179C3.95148 5.75357 6.38827 5.89286 7.49934 4.18821C7.56505 4.08786 7.67613 4.0275 7.79577 4.02643H7.79862C7.91755 4.02643 8.02862 4.08571 8.09505 4.18393C8.10327 4.19643 8.94648 5.42714 10.1904 5.76321C10.3465 5.80536 10.4543 5.94679 10.4543 6.10786V8.16643C10.4543 8.57143 10.3847 8.96893 10.2472 9.34679C9.74934 10.7157 8.43541 11.6211 6.9922 11.6211ZM4.25934 6.46857V8.06536C4.25934 8.44464 4.3322 8.815 4.47541 9.16643C4.87898 10.1554 5.76184 10.8189 6.77934 10.8982C8.00648 10.995 9.15648 10.2554 9.57577 9.10286C9.6847 8.80321 9.7397 8.48821 9.7397 8.16643V6.36964C8.84255 6.04679 8.16791 5.39107 7.80398 4.96964C6.7072 6.24714 5.01362 6.44679 4.25934 6.46857Z" fill="black"/>
<path d="M1.12619 17.2589C0.929043 17.2589 0.769043 17.0993 0.769043 16.9018V14.9125C0.769043 14.0468 1.32583 13.2975 2.15404 13.0468L4.89976 12.2164C5.08619 12.16 5.2119 11.9911 5.2119 11.7964V11.0989C5.2119 10.9014 5.3719 10.7418 5.56904 10.7418C5.76619 10.7418 5.92619 10.9014 5.92619 11.0989V11.7964C5.92619 12.3086 5.5969 12.7521 5.10654 12.9L2.36083 13.7304C1.83583 13.8889 1.48333 14.3639 1.48333 14.9125V16.9018C1.48333 17.0993 1.32333 17.2589 1.12619 17.2589Z" fill="black"/>
<path d="M12.8734 17.2589C12.6759 17.2589 12.5162 17.0993 12.5162 16.9018V14.9125C12.5162 14.3643 12.1637 13.8893 11.6387 13.7304L8.89266 12.9C8.40302 12.7521 8.07373 12.3086 8.07373 11.7964V11.0989C8.07373 10.9014 8.23337 10.7418 8.43087 10.7418C8.62837 10.7418 8.78802 10.9014 8.78802 11.0989V11.7964C8.78802 11.9914 8.91337 12.16 9.09945 12.2164L11.8452 13.0468C12.6737 13.2968 13.2305 14.0468 13.2305 14.9125V16.9018C13.2305 17.0993 13.0709 17.2589 12.8734 17.2589Z" fill="black"/>
<path d="M3.40255 17.2589C3.20541 17.2589 3.04541 17.0993 3.04541 16.9018V15.845C3.04541 15.6475 3.20541 15.4879 3.40255 15.4879C3.5997 15.4879 3.7597 15.6475 3.7597 15.845V16.9018C3.7597 17.0993 3.5997 17.2589 3.40255 17.2589Z" fill="black"/>
<path d="M10.5969 17.2589C10.3994 17.2589 10.2397 17.0993 10.2397 16.9018V15.845C10.2397 15.6475 10.3994 15.4879 10.5969 15.4879C10.7944 15.4879 10.954 15.6475 10.954 15.845V16.9018C10.954 17.0993 10.7944 17.2589 10.5969 17.2589Z" fill="black"/>
<path d="M6.99622 14.9564C5.72051 14.9564 4.61408 14.1371 4.24265 12.9179C4.18515 12.7293 4.29158 12.5296 4.48015 12.4721C4.66765 12.4154 4.86801 12.5211 4.92586 12.71C5.20515 13.6261 6.03694 14.2421 6.99622 14.2421C7.56265 14.2421 8.09801 14.025 8.50408 13.63C8.64551 13.4918 8.87158 13.4961 9.00908 13.6371C9.14658 13.7786 9.14336 14.0046 9.00194 14.1421C8.46194 14.6671 7.74979 14.9564 6.99622 14.9564Z" fill="black"/>
</svg>
