<svg width="20" height="20" viewBox="0 0 20 20" fill="none" xmlns="http://www.w3.org/2000/svg">
<path d="M17.5 9.4541V5.9375C17.4994 5.44039 17.3017 4.96381 16.9502 4.6123C16.5987 4.2608 16.1221 4.06307 15.625 4.0625H4.375C3.87789 4.06307 3.40131 4.2608 3.0498 4.6123C2.6983 4.96381 2.50057 5.44039 2.5 5.9375V9.4541C1.96369 9.59337 1.48871 9.90656 1.14943 10.3446C0.810142 10.7827 0.625707 11.3209 0.625 11.875V16.25C0.625372 16.5814 0.757188 16.8991 0.991528 17.1335C1.22587 17.3678 1.54359 17.4996 1.875 17.5H2.5V19.375H3.75V17.5H16.25V19.375H17.5V17.5H18.125C18.4564 17.4996 18.7741 17.3678 19.0085 17.1335C19.2428 16.8991 19.3746 16.5814 19.375 16.25V11.875C19.3743 11.3209 19.1899 10.7827 18.8506 10.3446C18.5113 9.90656 18.0363 9.59337 17.5 9.4541ZM4.375 16.25H1.875V11.875C1.875 11.5435 2.0067 11.2255 2.24112 10.9911C2.47554 10.7567 2.79348 10.625 3.125 10.625C3.45652 10.625 3.77446 10.7567 4.00888 10.9911C4.2433 11.2255 4.375 11.5435 4.375 11.875V16.25ZM14.375 16.25H5.625V12.5H14.375V16.25ZM14.4541 11.25H5.5459C5.43336 10.818 5.20761 10.4238 4.89192 10.1081C4.57623 9.79239 4.18204 9.56664 3.75 9.4541V5.9375C3.7502 5.7718 3.81611 5.61294 3.93328 5.49578C4.05044 5.37861 4.2093 5.3127 4.375 5.3125H15.625C15.7907 5.3127 15.9496 5.37861 16.0667 5.49578C16.1839 5.61294 16.2498 5.7718 16.25 5.9375V9.4541C15.818 9.56664 15.4238 9.79239 15.1081 10.1081C14.7924 10.4238 14.5666 10.818 14.4541 11.25ZM18.125 16.25H15.625V11.875C15.625 11.5435 15.7567 11.2255 15.9911 10.9911C16.2255 10.7567 16.5435 10.625 16.875 10.625C17.2065 10.625 17.5245 10.7567 17.7589 10.9911C17.9933 11.2255 18.125 11.5435 18.125 11.875V16.25Z" fill="white"/>
</svg>
