<svg width="12" height="12" viewBox="0 0 12 12" fill="none" xmlns="http://www.w3.org/2000/svg">
<mask id="mask0_1570_37547" style="mask-type:alpha" maskUnits="userSpaceOnUse" x="0" y="0" width="12" height="12">
<path d="M4.16925 0H1C0.447715 0 0 0.447715 0 1V4.16925C0 4.72153 0.447715 5.16925 1 5.16925H4.16925C4.72154 5.16925 5.16925 4.72153 5.16925 4.16925V1C5.16925 0.447715 4.72154 0 4.16925 0Z" fill="white"/>
<path d="M11.0001 0H7.83081C7.27853 0 6.83081 0.447715 6.83081 1V4.16925C6.83081 4.72153 7.27853 5.16925 7.83081 5.16925H11.0001C11.5523 5.16925 12.0001 4.72153 12.0001 4.16925V1C12.0001 0.447715 11.5523 0 11.0001 0Z" fill="white"/>
<path d="M11.0001 6.83081H7.83081C7.27853 6.83081 6.83081 7.27853 6.83081 7.83081V11.0001C6.83081 11.5523 7.27853 12.0001 7.83081 12.0001H11.0001C11.5523 12.0001 12.0001 11.5523 12.0001 11.0001V7.83081C12.0001 7.27853 11.5523 6.83081 11.0001 6.83081Z" fill="white"/>
<path d="M4.16925 6.83081H1C0.447715 6.83081 0 7.27853 0 7.83081V11.0001C0 11.5523 0.447715 12.0001 1 12.0001H4.16925C4.72154 12.0001 5.16925 11.5523 5.16925 11.0001V7.83081C5.16925 7.27853 4.72154 6.83081 4.16925 6.83081Z" fill="white"/>
</mask>
<g mask="url(#mask0_1570_37547)">
<rect width="12" height="12" fill="url(#paint0_linear_1570_37547)"/>
</g>
<defs>
<linearGradient id="paint0_linear_1570_37547" x1="10.2407" y1="10.2407" x2="1.75929" y2="1.75928" gradientUnits="userSpaceOnUse">
<stop stop-color="#0061FF"/>
<stop offset="0.131" stop-color="#066AFF"/>
<stop offset="0.35" stop-color="#1884FF"/>
<stop offset="0.629" stop-color="#34ADFF"/>
<stop offset="0.954" stop-color="#5AE6FF"/>
<stop offset="1" stop-color="#60EFFF"/>
</linearGradient>
</defs>
</svg>
