<svg width="18" height="22" viewBox="0 0 18 22" fill="none" xmlns="http://www.w3.org/2000/svg">
<path d="M12.2037 10.2125L12.1293 10.2667L12.2152 10.2996C15.4687 11.5446 17.7851 14.6991 17.7851 18.3846C17.7851 19.9567 16.5061 21.2357 14.934 21.2357H3.32967C1.75761 21.2357 0.478574 19.9567 0.478574 18.3846C0.478574 14.6991 2.79497 11.5446 6.04846 10.2996L6.13439 10.2667L6.06005 10.2125C4.75602 9.26147 3.90713 7.72257 3.90713 5.98902C3.90713 3.10815 6.25098 0.764294 9.13186 0.764294C12.0127 0.764294 14.3566 3.10815 14.3566 5.98902C14.3566 7.72257 13.5076 9.26147 12.2037 10.2125ZM9.13186 2.24673C7.06831 2.24673 5.38956 3.92547 5.38956 5.98902C5.38956 8.05256 7.06831 9.73135 9.13186 9.73135C11.1954 9.73135 12.8741 8.05256 12.8741 5.98902C12.8741 3.92547 11.1954 2.24673 9.13186 2.24673ZM3.32967 19.7533H14.934C15.6888 19.7533 16.3027 19.1394 16.3028 18.3846C16.3028 14.4304 13.086 11.2137 9.1319 11.2137C5.17775 11.2137 1.96101 14.4305 1.96101 18.3846C1.96101 19.1394 2.57494 19.7533 3.32967 19.7533Z" fill="#252525"/>
<path d="M12.2037 10.2125L12.1293 10.2667L12.2152 10.2996C15.4687 11.5446 17.7851 14.6991 17.7851 18.3846C17.7851 19.9567 16.5061 21.2357 14.934 21.2357H3.32967C1.75761 21.2357 0.478574 19.9567 0.478574 18.3846C0.478574 14.6991 2.79497 11.5446 6.04846 10.2996L6.13439 10.2667L6.06005 10.2125C4.75602 9.26147 3.90713 7.72257 3.90713 5.98902C3.90713 3.10815 6.25098 0.764294 9.13186 0.764294C12.0127 0.764294 14.3566 3.10815 14.3566 5.98902C14.3566 7.72257 13.5076 9.26147 12.2037 10.2125ZM9.13186 2.24673C7.06831 2.24673 5.38956 3.92547 5.38956 5.98902C5.38956 8.05256 7.06831 9.73135 9.13186 9.73135C11.1954 9.73135 12.8741 8.05256 12.8741 5.98902C12.8741 3.92547 11.1954 2.24673 9.13186 2.24673ZM3.32967 19.7533H14.934C15.6888 19.7533 16.3027 19.1394 16.3028 18.3846C16.3028 14.4304 13.086 11.2137 9.1319 11.2137C5.17775 11.2137 1.96101 14.4305 1.96101 18.3846C1.96101 19.1394 2.57494 19.7533 3.32967 19.7533Z" fill="url(#paint0_linear_954_110)"/>
<path d="M12.2037 10.2125L12.1293 10.2667L12.2152 10.2996C15.4687 11.5446 17.7851 14.6991 17.7851 18.3846C17.7851 19.9567 16.5061 21.2357 14.934 21.2357H3.32967C1.75761 21.2357 0.478574 19.9567 0.478574 18.3846C0.478574 14.6991 2.79497 11.5446 6.04846 10.2996L6.13439 10.2667L6.06005 10.2125C4.75602 9.26147 3.90713 7.72257 3.90713 5.98902C3.90713 3.10815 6.25098 0.764294 9.13186 0.764294C12.0127 0.764294 14.3566 3.10815 14.3566 5.98902C14.3566 7.72257 13.5076 9.26147 12.2037 10.2125ZM9.13186 2.24673C7.06831 2.24673 5.38956 3.92547 5.38956 5.98902C5.38956 8.05256 7.06831 9.73135 9.13186 9.73135C11.1954 9.73135 12.8741 8.05256 12.8741 5.98902C12.8741 3.92547 11.1954 2.24673 9.13186 2.24673ZM3.32967 19.7533H14.934C15.6888 19.7533 16.3027 19.1394 16.3028 18.3846C16.3028 14.4304 13.086 11.2137 9.1319 11.2137C5.17775 11.2137 1.96101 14.4305 1.96101 18.3846C1.96101 19.1394 2.57494 19.7533 3.32967 19.7533Z" stroke="white" stroke-width="0.1"/>
<defs>
<linearGradient id="paint0_linear_954_110" x1="15.2832" y1="18.2698" x2="0.94417" y2="6.13679" gradientUnits="userSpaceOnUse">
<stop stop-color="#0061FF"/>
<stop offset="0.131" stop-color="#066AFF"/>
<stop offset="0.35" stop-color="#1884FF"/>
<stop offset="0.629" stop-color="#34ADFF"/>
<stop offset="0.954" stop-color="#5AE6FF"/>
<stop offset="1" stop-color="#60EFFF"/>
</linearGradient>
</defs>
</svg>
