<svg width="18" height="22" viewBox="0 0 18 22" fill="none" xmlns="http://www.w3.org/2000/svg">
<path d="M12.2037 10.2125L12.1293 10.2667L12.2153 10.2996C15.4688 11.5446 17.7852 14.6991 17.7852 18.3846C17.7852 19.9567 16.5061 21.2357 14.9341 21.2357H3.32968C1.75763 21.2357 0.478589 19.9567 0.478589 18.3846C0.478589 14.6991 2.79499 11.5446 6.04848 10.2996L6.13441 10.2667L6.06007 10.2125C4.75604 9.26147 3.90715 7.72257 3.90715 5.98902C3.90715 3.10815 6.251 0.764294 9.13187 0.764294C12.0127 0.764294 14.3566 3.10815 14.3566 5.98902C14.3566 7.72257 13.5077 9.26147 12.2037 10.2125ZM9.13187 2.24673C7.06833 2.24673 5.38958 3.92547 5.38958 5.98902C5.38958 8.05256 7.06833 9.73135 9.13187 9.73135C11.1954 9.73135 12.8742 8.05256 12.8742 5.98902C12.8742 3.92547 11.1954 2.24673 9.13187 2.24673ZM3.32968 19.7533H14.9341C15.6888 19.7533 16.3028 19.1394 16.3028 18.3846C16.3028 14.4304 13.0861 11.2137 9.13191 11.2137C5.17776 11.2137 1.96102 14.4305 1.96102 18.3846C1.96102 19.1394 2.57496 19.7533 3.32968 19.7533Z" fill="#252525" stroke="white" stroke-width="0.1"/>
</svg>
