<svg width="32" height="32" viewBox="0 0 32 32" fill="none" xmlns="http://www.w3.org/2000/svg">
<g clip-path="url(#clip0_3639_20503)">
<path d="M32 16C32 24.8367 24.8367 32 16 32C7.16333 32 0 24.8367 0 16C0 7.16333 7.16333 0 16 0C24.8367 0 32 7.16333 32 16Z" fill="white"/>
<path d="M26 10.0175L19.848 13.0935V11.3682C19.848 10.0625 18.7855 9 17.4797 9H8.36824C7.06229 9 6 10.0625 6 11.3682V20.4797C6 21.7855 7.06229 22.848 8.36824 22.848H17.4795C18.7855 22.848 19.848 21.7855 19.848 20.4797V18.7935L26 21.8695V10.0175ZM18.2264 20.4797C18.2264 20.8915 17.8915 21.2264 17.4797 21.2264H8.36824C7.9565 21.2264 7.62162 20.8913 7.62162 20.4797V11.3682C7.62162 10.9565 7.9565 10.6216 8.36824 10.6216H17.4797C17.8915 10.6216 18.2264 10.9567 18.2264 11.3682V20.4797ZM24.3784 19.2456L19.848 16.9804V14.9065L24.3784 12.6413V19.2456Z" fill="#FA465E"/>
</g>
<defs>
<clipPath id="clip0_3639_20503">
<rect width="32" height="32" fill="white"/>
</clipPath>
</defs>
</svg>
