<svg width="24" height="25" viewBox="0 0 24 25" fill="none" xmlns="http://www.w3.org/2000/svg">
<path d="M15.35 9.8C15.35 11.374 14.074 12.65 12.5 12.65V14.15C14.9024 14.15 16.85 12.2024 16.85 9.8H15.35ZM12.5 12.65C10.926 12.65 9.65 11.374 9.65 9.8H8.15C8.15 12.2024 10.0976 14.15 12.5 14.15V12.65ZM9.65 9.8C9.65 8.22599 10.926 6.95 12.5 6.95V5.45C10.0976 5.45 8.15 7.39756 8.15 9.8H9.65ZM12.5 6.95C14.074 6.95 15.35 8.22599 15.35 9.8H16.85C16.85 7.39756 14.9024 5.45 12.5 5.45V6.95ZM9.8 16.85H15.2V15.35H9.8V16.85ZM4.25 12.5C4.25 7.94365 7.94365 4.25 12.5 4.25V2.75C7.11522 2.75 2.75 7.11522 2.75 12.5H4.25ZM12.5 4.25C17.0563 4.25 20.75 7.94365 20.75 12.5H22.25C22.25 7.11522 17.8848 2.75 12.5 2.75V4.25ZM20.75 12.5C20.75 14.8397 19.777 16.9509 18.2116 18.4532L19.2502 19.5355C21.0982 17.762 22.25 15.2649 22.25 12.5H20.75ZM18.2116 18.4532C16.7285 19.8765 14.7171 20.75 12.5 20.75V22.25C15.1195 22.25 17.499 21.216 19.2502 19.5355L18.2116 18.4532ZM15.2 16.85C16.582 16.85 17.7357 17.8344 17.9953 19.1405L19.4665 18.8481C19.0701 16.8536 17.3115 15.35 15.2 15.35V16.85ZM12.5 20.75C10.2829 20.75 8.27148 19.8765 6.78844 18.4532L5.74982 19.5355C7.50097 21.216 9.88052 22.25 12.5 22.25V20.75ZM6.78844 18.4532C5.22299 16.9509 4.25 14.8397 4.25 12.5H2.75C2.75 15.2649 3.90184 17.762 5.74982 19.5355L6.78844 18.4532ZM9.8 15.35C7.68853 15.35 5.92991 16.8536 5.53352 18.8481L7.00475 19.1405C7.26433 17.8344 8.41804 16.85 9.8 16.85V15.35Z" fill="#70777C"/>
</svg>
