<svg width="32" height="32" viewBox="0 0 32 32" fill="none" xmlns="http://www.w3.org/2000/svg">
<g clip-path="url(#clip0_3639_20521)">
<path d="M16 32C24.8366 32 32 24.8366 32 16C32 7.16344 24.8366 0 16 0C7.16344 0 0 7.16344 0 16C0 24.8366 7.16344 32 16 32Z" fill="white"/>
<path d="M17.6654 15.4432H22.1066V13.2159H17.6654V15.4432ZM24.8824 9.875H7.11763C6.81075 9.875 6.5625 10.1241 6.5625 10.4318V21.5682C6.5625 21.8759 6.81081 22.125 7.11763 22.125H24.8823C25.1892 22.125 25.4374 21.8759 25.4374 21.5682V10.4318C25.4375 10.1241 25.1892 9.875 24.8824 9.875ZM9.33825 15.4432H11.5589C11.8658 15.4432 12.114 15.6923 12.114 16C12.114 16.3077 11.8657 16.5568 11.5589 16.5568H9.33825C9.03144 16.5568 8.78312 16.3077 8.78312 16C8.78312 15.6923 9.03138 15.4432 9.33825 15.4432ZM14.8897 18.7841H9.33819C9.03137 18.7841 8.78306 18.535 8.78306 18.2272C8.78306 17.9195 9.03137 17.6704 9.33819 17.6704H14.8897C15.1966 17.6704 15.4448 17.9195 15.4448 18.2272C15.4448 18.535 15.1966 18.7841 14.8897 18.7841ZM23.2169 16C23.2169 16.3077 22.9686 16.5568 22.6618 16.5568H17.1103C16.8034 16.5568 16.5552 16.3077 16.5552 16V12.6591C16.5552 12.3513 16.8035 12.1023 17.1103 12.1023H22.6618C22.9686 12.1023 23.2169 12.3513 23.2169 12.6591V16Z" fill="#339BEC"/>
</g>
<defs>
<clipPath id="clip0_3639_20521">
<rect width="32" height="32" fill="white"/>
</clipPath>
</defs>
</svg>
