<svg width="32" height="32" viewBox="0 0 32 32" fill="none" xmlns="http://www.w3.org/2000/svg">
<g clip-path="url(#clip0_3639_20491)">
<path d="M16 32C24.8366 32 32 24.8366 32 16C32 7.16344 24.8366 0 16 0C7.16344 0 0 7.16344 0 16C0 24.8366 7.16344 32 16 32Z" fill="white"/>
<path d="M17.3879 17.6654C16.7736 17.6654 16.5378 18.4634 16.5356 18.4716C16.4039 18.9535 15.5988 18.9541 15.4654 18.4743C15.4529 18.4314 15.2209 17.6654 14.6121 17.6654C14.0656 17.6654 13.7794 18.0893 13.7794 18.5084C13.7794 18.9377 14.1014 19.2278 14.7178 19.7444C15.1114 20.0735 15.5733 20.4611 15.9999 20.9914C16.4266 20.4612 16.8885 20.0736 17.2821 19.7444C17.8985 19.2278 18.2205 18.9377 18.2205 18.5084C18.2206 18.0894 17.9343 17.6654 17.3879 17.6654ZM20.7149 14.7048C20.8927 14.4402 20.9963 14.1215 20.9963 13.7794C20.9963 12.861 20.2492 12.1139 19.3309 12.1139H12.6691C11.7507 12.1139 11.0037 12.861 11.0037 13.7794C11.0037 14.1214 11.1072 14.4402 11.2851 14.7048C10.4539 15.1851 9.89337 16.0834 9.89337 17.1103V22.6617C9.89337 24.1921 11.1387 25.4374 12.6691 25.4374H19.3309C20.8613 25.4374 22.1066 24.1921 22.1066 22.6617V17.1103C22.1066 16.0835 21.5461 15.1852 20.7149 14.7048ZM17.9951 20.5957C17.4887 21.0196 16.9146 21.5005 16.4798 22.247C16.3801 22.4177 16.1974 22.5229 16 22.5229C15.8026 22.5229 15.6199 22.4177 15.5202 22.247C15.0854 21.5005 14.5112 21.0196 14.0049 20.5957C13.3181 20.0199 12.6691 19.4762 12.6691 18.5084C12.6691 17.4133 13.5224 16.5551 14.6121 16.5551C15.2274 16.5551 15.6828 16.8387 16 17.1954C16.3171 16.8386 16.7726 16.5551 17.3879 16.5551C18.4776 16.5551 19.3309 17.4133 19.3309 18.5084C19.3309 19.4762 18.6819 20.0199 17.9951 20.5957ZM18.2299 10.9889C18.5726 10.5272 18.7757 9.956 18.7757 9.33819C18.7757 7.80781 17.5304 6.5625 16 6.5625C14.4696 6.5625 13.2242 7.80781 13.2242 9.33825C13.2242 9.95606 13.4274 10.5273 13.7701 10.989H18.2299V10.9889ZM16 8.78306C16.3066 8.78306 16.5551 9.03162 16.5551 9.33819C16.5551 9.64475 16.3066 9.89331 16 9.89331C15.6934 9.89331 15.4449 9.64475 15.4449 9.33819C15.4449 9.03169 15.6934 8.78306 16 8.78306Z" fill="#364BA9"/>
</g>
<defs>
<clipPath id="clip0_3639_20491">
<rect width="32" height="32" fill="white"/>
</clipPath>
</defs>
</svg>
