<svg width="32" height="32" viewBox="0 0 32 32" fill="none" xmlns="http://www.w3.org/2000/svg">
<g clip-path="url(#clip0_3639_20531)">
<path d="M16 32C24.8366 32 32 24.8366 32 16C32 7.16344 24.8366 0 16 0C7.16344 0 0 7.16344 0 16C0 24.8366 7.16344 32 16 32Z" fill="white"/>
<path d="M18.2206 12.1139C17.9096 12.1139 17.6654 12.3582 17.6654 12.6691V14.8231C17.6654 15.7779 18.4427 16.5551 19.3975 16.5551H23.2169V14.9563C23.2169 14.0015 22.4397 13.2242 21.4849 13.2242H19.3864C19.0644 13.2242 18.7979 12.9688 18.7757 12.6357C18.7535 12.3471 18.5204 12.1139 18.2206 12.1139ZM20.8524 19.8883C19.0566 19.9454 17.6654 21.5015 17.6654 23.2982V24.8206C17.6654 25.1612 17.9416 25.4374 18.2823 25.4374H24.8823C25.1892 25.4374 25.4374 25.1891 25.4374 24.8823V24.3272C25.4375 21.8306 23.3666 19.8084 20.8524 19.8883ZM18.7719 8.36563C18.7623 7.43263 18.1421 6.59456 17.087 6.5625C16.6083 6.56794 16.2451 6.77013 15.9821 7.03631C15.7127 6.77556 15.3289 6.56363 14.8669 6.58638C13.888 6.5975 13.2097 7.4465 13.221 8.42475C13.2318 9.47106 14.006 10.4155 15.7316 11.4867C15.8211 11.5426 15.923 11.5702 16.0244 11.5702C16.1296 11.5702 16.2353 11.5404 16.3274 11.4803C18.0292 10.3726 18.7833 9.41194 18.7719 8.36563ZM13.2242 17.6654V16C13.2242 15.6931 12.9759 15.4449 12.6691 15.4449C12.3628 15.4449 12.114 15.1961 12.114 14.8897C12.114 14.5829 11.8657 14.3346 11.5589 14.3346C11.252 14.3346 11.0037 14.5829 11.0037 14.8897C11.0037 15.1961 10.7549 15.4449 10.4486 15.4449H9.33831C9.03144 15.4449 8.78319 15.6932 8.78319 16V17.6654C8.78319 18.8901 9.77906 19.886 11.0037 19.886C12.2284 19.886 13.2242 18.8901 13.2242 17.6654ZM11.0037 19.886C8.55488 19.886 6.5625 21.8784 6.5625 24.3272V24.8823C6.5625 25.1892 6.81081 25.4374 7.11763 25.4374H13.7794C14.0863 25.4374 14.3345 25.1891 14.3345 24.8823V23.2169C14.3346 21.3802 12.8404 19.886 11.0037 19.886ZM11.0037 12.1139C8.55488 12.1139 6.5625 14.1063 6.5625 16.5551V19.3309C6.5625 19.6378 6.81081 19.886 7.11763 19.886H8.53913C8.0065 19.2954 7.67281 18.5216 7.67281 17.6654V16C7.67281 15.0816 8.41988 14.3346 9.33825 14.3346H9.98825C10.2176 13.6883 10.8351 13.2242 11.5588 13.2242C12.3091 13.2242 12.9451 13.723 13.1527 14.4061C13.8357 14.6138 14.3346 15.2497 14.3346 16V17.6654C14.3346 18.5216 14.0009 19.2954 13.4683 19.886H14.8897C15.1966 19.886 15.4449 19.6377 15.4449 19.3309V16.5551C15.4449 14.1063 13.4525 12.1139 11.0037 12.1139ZM20.6689 19.8624C22.0384 20.0591 23.2169 18.9977 23.2169 17.6654H19.3976C19.1866 17.6654 18.9824 17.6387 18.7843 17.5948C18.8294 18.6912 19.5794 19.7059 20.6689 19.8624Z" fill="#6F7983"/>
</g>
<defs>
<clipPath id="clip0_3639_20531">
<rect width="32" height="32" fill="white"/>
</clipPath>
</defs>
</svg>
