<svg width="32" height="32" viewBox="0 0 32 32" fill="none" xmlns="http://www.w3.org/2000/svg">
<g clip-path="url(#clip0_3639_20509)">
<path d="M32 16C32 24.8367 24.8367 32 16 32C7.16333 32 0 24.8367 0 16C0 7.16333 7.16333 0 16 0C24.8367 0 32 7.16333 32 16Z" fill="white"/>
<path d="M16 5C15.5443 5 15.175 5.36932 15.175 5.825C15.175 6.28068 15.5443 6.65 16 6.65C21.1556 6.65 25.35 10.8444 25.35 16C25.35 21.1556 21.1556 25.35 16 25.35C10.8444 25.35 6.65 21.1556 6.65 16C6.65 15.5443 6.28068 15.175 5.825 15.175C5.36932 15.175 5 15.5443 5 16C5 22.0655 9.93453 27 16 27C22.0655 27 27 22.0655 27 16C27 9.93453 22.0655 5 16 5Z" fill="#2EB3CA"/>
<path d="M11.5488 7.65532C11.6541 7.65532 11.7609 7.63513 11.8642 7.59237L12.9795 7.13046C13.4004 6.95601 13.6004 6.47347 13.4259 6.05237C13.2517 5.63149 12.7689 5.43169 12.348 5.60593L11.2328 6.06784C10.8119 6.24229 10.6119 6.72483 10.7861 7.14593C10.9178 7.46368 11.2251 7.65532 11.5488 7.65532Z" fill="#2EB3CA"/>
<path d="M8.37852 10.0583C8.58971 10.0583 8.80069 9.97775 8.96182 9.81662L9.8154 8.96304C10.1377 8.64078 10.1377 8.11849 9.8154 7.79623C9.49334 7.47417 8.97084 7.47417 8.64879 7.79623L7.795 8.65001C7.47295 8.97207 7.47295 9.49435 7.795 9.81662C7.95614 9.97775 8.16733 10.0583 8.37852 10.0583Z" fill="#2EB3CA"/>
<path d="M6.05307 13.4253C6.1562 13.468 6.26319 13.4884 6.36846 13.4884C6.69202 13.4884 6.99924 13.2966 7.13094 12.9788L7.59286 11.8636C7.7671 11.4427 7.56729 10.9599 7.14641 10.7857C6.72532 10.6113 6.24278 10.8113 6.06833 11.2322L5.60641 12.3474C5.43217 12.7685 5.63198 13.251 6.05307 13.4253Z" fill="#2EB3CA"/>
<path d="M15.9999 11.7246C15.5442 11.7246 15.1749 12.0939 15.1749 12.5496V15.1737H12.5508C12.0951 15.1737 11.7258 15.543 11.7258 15.9987C11.7258 16.4544 12.0951 16.8237 12.5508 16.8237H15.1749V19.4478C15.1749 19.9035 15.5442 20.2728 15.9999 20.2728C16.4556 20.2728 16.8249 19.9035 16.8249 19.4478V16.8237H19.449C19.9047 16.8237 20.274 16.4544 20.274 15.9987C20.274 15.543 19.9047 15.1737 19.449 15.1737H16.8249V12.5496C16.8249 12.0939 16.4556 11.7246 15.9999 11.7246Z" fill="#2EB3CA"/>
</g>
<defs>
<clipPath id="clip0_3639_20509">
<rect width="32" height="32" fill="white"/>
</clipPath>
</defs>
</svg>
