<svg width="32" height="32" viewBox="0 0 32 32" fill="none" xmlns="http://www.w3.org/2000/svg">
<g clip-path="url(#clip0_3639_20484)">
<path d="M16 32C24.8366 32 32 24.8366 32 16C32 7.16344 24.8366 0 16 0C7.16344 0 0 7.16344 0 16C0 24.8366 7.16344 32 16 32Z" fill="white"/>
<path d="M21.75 11.75C21.75 13.4069 20.4069 14.75 18.75 14.75C17.0931 14.75 15.75 13.4069 15.75 11.75C15.75 10.0931 17.0931 8.75 18.75 8.75C20.4069 8.75 21.75 10.0931 21.75 11.75Z" fill="#9A4DCF"/>
<path d="M21.25 11.75C21.25 13.1307 20.1307 14.25 18.75 14.25V15.25C20.683 15.25 22.25 13.683 22.25 11.75H21.25ZM18.75 14.25C17.3693 14.25 16.25 13.1307 16.25 11.75H15.25C15.25 13.683 16.817 15.25 18.75 15.25V14.25ZM16.25 11.75C16.25 10.3693 17.3693 9.25 18.75 9.25V8.25C16.817 8.25 15.25 9.817 15.25 11.75H16.25ZM18.75 9.25C20.1307 9.25 21.25 10.3693 21.25 11.75H22.25C22.25 9.817 20.683 8.25 18.75 8.25V9.25Z" fill="#9A4DCF"/>
<path d="M14.5021 14.3887C14.3444 14.1353 14.0485 14 13.75 14C12.5074 14 11.5 12.9926 11.5 11.75C11.5 10.5074 12.5074 9.5 13.75 9.5C14.0485 9.5 14.3444 9.36473 14.5021 9.11135C14.5091 9.10014 14.5161 9.08896 14.5232 9.07782C14.7858 8.66331 14.6527 8.0764 14.165 8.0227C14.0287 8.0077 13.8903 8 13.75 8C11.6789 8 10 9.67893 10 11.75C10 13.8211 11.6789 15.5 13.75 15.5C13.8903 15.5 14.0287 15.4923 14.165 15.4773C14.6527 15.4236 14.7858 14.8367 14.5232 14.4222C14.5161 14.411 14.5091 14.3999 14.5021 14.3887Z" fill="#9A4DCF"/>
<path d="M11.4583 22.3169C11.3448 22.1275 11.1444 22 10.9236 22H10.75C9.50736 22 8.5 20.9926 8.5 19.75C8.5 18.5074 9.50736 17.5 10.75 17.5H10.9236C11.1444 17.5 11.3448 17.3725 11.4583 17.1831C11.7354 16.7208 11.4347 16 10.8957 16H10.75C8.67893 16 7 17.6789 7 19.75C7 21.8211 8.67893 23.5 10.75 23.5H10.8957C11.4347 23.5 11.7354 22.7792 11.4583 22.3169Z" fill="#9A4DCF"/>
<path d="M12.75 20.75C12.75 19.0931 14.0931 17.75 15.75 17.75H21.75C23.4069 17.75 24.75 19.0931 24.75 20.75C24.75 22.4069 23.4069 23.75 21.75 23.75H15.75C14.0931 23.75 12.75 22.4069 12.75 20.75Z" fill="#9A4DCF" stroke="#9A4DCF"/>
</g>
<defs>
<clipPath id="clip0_3639_20484">
<rect width="32" height="32" fill="white"/>
</clipPath>
</defs>
</svg>
