<svg width="24" height="24" viewBox="0 0 24 24" fill="none" xmlns="http://www.w3.org/2000/svg">
<circle cx="12" cy="12" r="12" fill="#252525" fill-opacity="0.5"/>
<path d="M17.8058 15.4395C18.6444 14.0258 18.9381 12.3545 18.6317 10.7395C18.3253 9.12456 17.4399 7.67699 16.1418 6.66864C14.8436 5.66029 13.222 5.16052 11.5814 5.26318C9.94085 5.36584 8.39418 6.06387 7.23185 7.2262C6.06952 8.38852 5.37149 9.93518 5.26882 11.5758C5.16615 13.2163 5.66591 14.8379 6.67425 16.1361C7.6826 17.4343 9.13017 18.3197 10.7451 18.6261C12.3601 18.9325 14.0314 18.6388 15.4451 17.8002L15.4451 17.8001L17.7764 18.4662C17.8729 18.4938 17.975 18.495 18.0721 18.4699C18.1692 18.4447 18.2578 18.394 18.3287 18.3231C18.3997 18.2522 18.4503 18.1635 18.4755 18.0664C18.5007 17.9693 18.4994 17.8673 18.4718 17.7708L17.8057 15.4395L17.8058 15.4395Z" stroke="white" stroke-linecap="round" stroke-linejoin="round"/>
<path d="M14.25 10.8693H9.75" stroke="white" stroke-linecap="round" stroke-linejoin="round"/>
<path d="M14.25 13.1193H9.75" stroke="white" stroke-linecap="round" stroke-linejoin="round"/>
</svg>
