<svg width="24" height="24" viewBox="0 0 24 24" fill="none" xmlns="http://www.w3.org/2000/svg">
<circle cx="12" cy="12" r="12" fill="#252525" fill-opacity="0.5"/>
<path d="M6 6L18 18" stroke="white" stroke-linecap="round" stroke-linejoin="round"/>
<path d="M9.75 9.74836V11.9984C9.75039 12.4431 9.88256 12.8777 10.1298 13.2474C10.3771 13.617 10.7283 13.9051 11.1392 14.0752C11.5501 14.2454 12.0022 14.2899 12.4384 14.2033C12.8746 14.1166 13.2753 13.9026 13.59 13.5884M14.25 10.0034V5.99836C14.2506 5.44038 14.0438 4.9021 13.6698 4.48801C13.2958 4.07392 12.7813 3.81357 12.2261 3.75749C11.671 3.70141 11.1148 3.85362 10.6655 4.18455C10.2163 4.51549 9.90604 5.00154 9.795 5.54836" stroke="white" stroke-linecap="round" stroke-linejoin="round"/>
<path d="M15.7501 15.7125C15.018 16.4598 14.0792 16.9713 13.0543 17.1814C12.0295 17.3916 10.9652 17.2907 9.99801 16.8917C9.03086 16.4928 8.20496 15.814 7.62627 14.9424C7.04758 14.0708 6.74249 13.0462 6.75014 12V10.5M17.2501 10.5V12C17.2499 12.3093 17.2223 12.618 17.1676 12.9225" stroke="white" stroke-linecap="round" stroke-linejoin="round"/>
<path d="M12 17.25V20.25" stroke="white" stroke-linecap="round" stroke-linejoin="round"/>
<path d="M9 20.25H15" stroke="white" stroke-linecap="round" stroke-linejoin="round"/>
</svg>
