<svg width="24" height="24" viewBox="0 0 24 24" fill="none" xmlns="http://www.w3.org/2000/svg">
<circle cx="12" cy="12" r="12" fill="#252525" fill-opacity="0.5"/>
<path d="M12 3.75C11.4033 3.75 10.831 3.98705 10.409 4.40901C9.98705 4.83097 9.75 5.40326 9.75 6V12C9.75 12.5967 9.98705 13.169 10.409 13.591C10.831 14.0129 11.4033 14.25 12 14.25C12.5967 14.25 13.169 14.0129 13.591 13.591C14.0129 13.169 14.25 12.5967 14.25 12V6C14.25 5.40326 14.0129 4.83097 13.591 4.40901C13.169 3.98705 12.5967 3.75 12 3.75V3.75Z" stroke="white" stroke-linecap="round" stroke-linejoin="round"/>
<path d="M17.25 10.5V12C17.25 13.3924 16.6969 14.7277 15.7123 15.7123C14.7277 16.6969 13.3924 17.25 12 17.25C10.6076 17.25 9.27226 16.6969 8.28769 15.7123C7.30312 14.7277 6.75 13.3924 6.75 12V10.5" stroke="white" stroke-linecap="round" stroke-linejoin="round"/>
<path d="M12.5 17.25C12.5 16.9739 12.2761 16.75 12 16.75C11.7239 16.75 11.5 16.9739 11.5 17.25H12.5ZM11.5 19.875V20.375H12.5V19.875H11.5ZM11.5 17.25V19.875H12.5V17.25H11.5Z" fill="white"/>
<path d="M9 20.25H15" stroke="white" stroke-linecap="round" stroke-linejoin="round"/>
</svg>
