<svg width="70" height="97" viewBox="0 0 70 97" fill="none" xmlns="http://www.w3.org/2000/svg">
<path fill-rule="evenodd" clip-rule="evenodd" d="M35 71.9414C36.8495 71.9414 38.3488 73.4407 38.3488 75.2902L38.3488 93.1507C38.3488 95.0002 36.8495 96.4995 35 96.4995C33.1504 96.4995 31.6511 95.0002 31.6511 93.1507L31.6511 75.2902C31.6511 73.4407 33.1504 71.9414 35 71.9414Z" fill="#E6E6E6"/>
<path fill-rule="evenodd" clip-rule="evenodd" d="M66.2557 36.2207C68.1052 36.2207 69.6046 37.72 69.6046 39.5695V44.0347C69.6046 63.1463 54.1115 78.6393 34.9999 78.6393C15.8883 78.6393 0.395264 63.1463 0.395264 44.0346V39.9846C0.395264 38.1351 1.89459 36.6358 3.7441 36.6358C5.59361 36.6358 7.09294 38.1351 7.09294 39.9846V44.0346C7.09294 59.4472 19.5873 71.9416 34.9999 71.9416C50.4125 71.9416 62.9069 59.4473 62.9069 44.0347V39.5695C62.9069 37.72 64.4062 36.2207 66.2557 36.2207Z" fill="#E6E6E6"/>
<path fill-rule="evenodd" clip-rule="evenodd" d="M13.7905 93.1516C13.7905 91.3021 15.2899 89.8027 17.1394 89.8027H52.8603C54.7098 89.8027 56.2091 91.3021 56.2091 93.1516C56.2091 95.0011 54.7098 96.5004 52.8603 96.5004H17.1394C15.2899 96.5004 13.7905 95.0011 13.7905 93.1516Z" fill="#E6E6E6"/>
<path fill-rule="evenodd" clip-rule="evenodd" d="M34.9998 0.5C24.4258 0.5 15.659 8.23809 14.0534 18.3605H17.1394H26.0696C27.9191 18.3605 29.4184 19.8598 29.4184 21.7093C29.4184 23.5588 27.9191 25.0581 26.0696 25.0581H17.1394H13.7905V31.7558H17.1394H26.0696C27.9191 31.7558 29.4184 33.2551 29.4184 35.1047C29.4184 36.9542 27.9191 38.4535 26.0696 38.4535H17.1394H13.7905V44.0349C13.7905 55.7485 23.2863 65.2442 34.9998 65.2442C46.7134 65.2442 56.2091 55.7485 56.2091 44.0349V38.4535H52.8603H43.9301C42.0806 38.4535 40.5812 36.9542 40.5812 35.1047C40.5812 33.2551 42.0806 31.7558 43.9301 31.7558H52.8603H56.2091V25.0581H52.8603H43.9301C42.0806 25.0581 40.5812 23.5588 40.5812 21.7093C40.5812 19.8598 42.0806 18.3605 43.9301 18.3605H52.8603H55.9462C54.3406 8.23809 45.5739 0.5 34.9998 0.5ZM34.9998 52.9651C37.4658 52.9651 39.4649 50.966 39.4649 48.5C39.4649 46.034 37.4658 44.0349 34.9998 44.0349C32.5338 44.0349 30.5347 46.034 30.5347 48.5C30.5347 50.966 32.5338 52.9651 34.9998 52.9651Z" fill="#E6E6E6"/>
</svg>
