<svg width="16" height="20" viewBox="0 0 16 20" fill="none" xmlns="http://www.w3.org/2000/svg">
<path d="M14.9997 19.3332H12.5626C13.3346 16.967 13.8585 13.5214 12.4309 9.81028C11.4321 7.21311 9.82167 5.33031 8.23316 3.99997H8.9998C9.1839 3.99997 9.33312 3.85071 9.33312 3.66665C9.33312 3.48255 9.18386 3.33333 8.9998 3.33333H7.37915C5.99927 2.32873 4.72784 1.73413 3.99984 1.43999V0.333318C3.99984 0.149218 3.85058 0 3.66652 0C3.48242 0 3.3332 0.149257 3.3332 0.333318V3.33329H2.33321C2.14911 3.33329 1.99989 3.48255 1.99989 3.66661C1.99989 3.85071 2.14915 3.99993 2.33321 3.99993H3.3332V19.3331H0.999822C0.815722 19.3331 0.666504 19.4824 0.666504 19.6664C0.666504 19.8505 0.815761 19.9998 0.999822 19.9998H12.0955C12.0958 19.9998 12.0961 20 12.0964 20C12.0968 20 12.0971 19.9998 12.0975 19.9998H14.9997C15.1838 19.9998 15.333 19.8506 15.333 19.6665C15.333 19.4825 15.1838 19.3332 14.9997 19.3332ZM11.8581 19.3332H3.9998V2.16186C5.79178 2.93052 9.93346 5.17367 11.8086 10.0496C13.2095 13.6913 12.632 17.0703 11.8581 19.3332Z" fill="#252525"/>
<path d="M4.99986 8.66661H9.8431C9.9642 8.66661 10.0757 8.60102 10.1344 8.49505C10.1933 8.38927 10.1901 8.25985 10.126 8.157C8.64956 5.7864 6.61313 4.30711 5.16455 3.48352C5.06134 3.42462 4.93474 3.4256 4.83221 3.48516C4.72967 3.54473 4.6665 3.65462 4.6665 3.77325V8.33329C4.66654 8.51735 4.8158 8.66661 4.99986 8.66661ZM5.33318 4.35965C6.54051 5.11191 8.02991 6.2869 9.22408 7.99993H5.33318V4.35965Z" fill="black"/>
<path d="M11.9996 14.3339C11.9996 14.3336 11.9998 14.3334 11.9998 14.3332C11.9998 14.3329 11.9996 14.3327 11.9996 14.3325C11.9618 12.9537 11.6922 11.6039 11.1889 10.2937L11.1589 10.217C11.1102 10.0865 10.9858 9.99992 10.8464 9.99992H4.99982C4.81572 9.99992 4.6665 10.1492 4.6665 10.3332V18.3332C4.6665 18.5173 4.81576 18.6665 4.99982 18.6665H11.1298C11.2779 18.6665 11.4083 18.5687 11.4498 18.4264C11.8538 17.0411 12.0362 15.6738 11.9996 14.3339ZM5.33314 10.6666H10.617C10.7797 11.1061 10.9057 11.5516 11.0133 11.9999H5.33314V10.6666ZM5.33314 12.6666H11.1548C11.2332 13.1073 11.2848 13.5519 11.3108 13.9999H5.33314V12.6666ZM10.8775 17.9999H5.33314V16.6666H11.1617C11.0883 17.1089 10.9994 17.5529 10.8775 17.9999ZM11.2591 15.9999H5.33314V14.6666H11.3287C11.3289 15.1082 11.3091 15.5523 11.2591 15.9999Z" fill="black"/>
</svg>
