<svg width="24" height="24" viewBox="0 0 24 24" fill="none" xmlns="http://www.w3.org/2000/svg">
<g clip-path="url(#clip0_335_10654)">
<path fill-rule="evenodd" clip-rule="evenodd" d="M13.2619 1H11.3671V3.52632H13.2619V1ZM9.23937 3.84698C9.35702 3.9957 9.42103 4.17977 9.42104 4.3694V17.8431C9.42104 18.0665 9.33232 18.2806 9.1744 18.4386C9.01647 18.5965 8.80228 18.6852 8.57894 18.6852H1.84208C1.69848 18.6852 1.55726 18.6485 1.43185 18.5785C1.30644 18.5086 1.20101 18.4077 1.12557 18.2855C1.05013 18.1633 1.00719 18.0239 1.00083 17.8804C0.994467 17.7369 1.0249 17.5942 1.08924 17.4658L7.82609 3.99213C7.91106 3.8226 8.05076 3.68672 8.22257 3.60647C8.39438 3.52622 8.58824 3.50631 8.77278 3.54996C8.95731 3.59361 9.12171 3.69826 9.23937 3.84698ZM16.7774 3.60647C16.9492 3.68672 17.0889 3.8226 17.1739 3.99213L23.9108 17.4658C23.9751 17.5942 24.0055 17.7369 23.9992 17.8804C23.9928 18.0239 23.9499 18.1633 23.8744 18.2855C23.799 18.4077 23.6936 18.5086 23.5681 18.5785C23.4427 18.6485 23.3015 18.6852 23.1579 18.6852H16.4211C16.1977 18.6852 15.9835 18.5965 15.8256 18.4386C15.6677 18.2806 15.579 18.0665 15.579 17.8431V4.3694C15.579 4.17977 15.643 3.9957 15.7606 3.84698C15.8783 3.69826 16.0427 3.59361 16.2272 3.54996C16.4118 3.50631 16.6056 3.52622 16.7774 3.60647ZM7.73683 7.93656L3.20461 17.001H7.73683V7.93656ZM17.2632 17.001H21.7954L17.2632 7.93656V17.001ZM13.2619 16.1602H11.3672V18.6865H13.2619V16.1602ZM11.3672 21H13.2619V23.5263H11.3672V21ZM13.2619 11.1055H11.3672V13.6318H13.2619V11.1055ZM11.3672 6.05469H13.2619V8.58101H11.3672V6.05469Z" fill="black"/>
</g>
<defs>
<clipPath id="clip0_335_10654">
<rect width="24" height="24" fill="white"/>
</clipPath>
</defs>
</svg>
