<svg width="19" height="20" viewBox="0 0 19 20" fill="none" xmlns="http://www.w3.org/2000/svg">
<path d="M15.75 0C15.595 0 15.4398 0.0153125 15.2886 0.0455469L7.47613 1.60805C6.38543 1.82621 5.59375 2.79273 5.59375 3.90625V14.1704C5.13371 13.9036 4.60023 13.75 4.03125 13.75C2.30813 13.75 0.90625 15.1519 0.90625 16.875C0.90625 18.5981 2.30813 20 4.03125 20C5.75437 20 7.15625 18.5981 7.15625 16.875V8.01457L16.5312 6.13957V12.6079C16.0712 12.3411 15.5377 12.1875 14.9688 12.1875C13.2456 12.1875 11.8438 13.5894 11.8438 15.3125C11.8438 17.0356 13.2456 18.4375 14.9688 18.4375C16.6919 18.4375 18.0938 17.0356 18.0938 15.3125V2.34375C18.0938 1.05141 17.0423 0 15.75 0ZM4.03125 18.4375C3.16969 18.4375 2.46875 17.7366 2.46875 16.875C2.46875 16.0134 3.16969 15.3125 4.03125 15.3125C4.89281 15.3125 5.59375 16.0134 5.59375 16.875C5.59375 17.7366 4.89281 18.4375 4.03125 18.4375ZM14.9688 16.875C14.1072 16.875 13.4062 16.1741 13.4062 15.3125C13.4062 14.4509 14.1072 13.75 14.9688 13.75C15.8303 13.75 16.5312 14.4509 16.5312 15.3125C16.5312 16.1741 15.8303 16.875 14.9688 16.875ZM16.5312 4.54613L7.15625 6.42113V3.90625C7.15625 3.53496 7.41965 3.21281 7.78258 3.14023L15.595 1.57773C15.6455 1.56762 15.6977 1.5625 15.75 1.5625C16.1808 1.5625 16.5312 1.91297 16.5312 2.34375V4.54613Z" fill="#7C7C7C"/>
</svg>
