<svg width="24" height="24" viewBox="0 0 24 24" fill="none" xmlns="http://www.w3.org/2000/svg">
<path d="M12 4V18" stroke="black" stroke-width="2" stroke-linecap="round" stroke-linejoin="round"/>
<path d="M19 7.67277V7.01577C19 6.14657 18.7168 5.30101 18.1934 4.60708C17.67 3.91314 16.9348 3.40859 16.099 3.16977L13.275 2.36277C13.1261 2.32019 12.9694 2.31276 12.8171 2.34108C12.6649 2.3694 12.5213 2.43268 12.3977 2.52595C12.2741 2.61922 12.1738 2.73992 12.1048 2.87854C12.0358 3.01717 11.9999 3.16992 12 3.32477V6.99877L17.725 8.63477C17.8739 8.67736 18.0306 8.68479 18.1829 8.65647C18.3351 8.62815 18.4787 8.56487 18.6023 8.4716C18.7259 8.37833 18.8262 8.25763 18.8952 8.11901C18.9642 7.98038 19.0001 7.82763 19 7.67277Z" stroke="black" stroke-width="2"/>
<path d="M12 18C12 18.7956 11.6839 19.5587 11.1213 20.1213C10.5587 20.6839 9.79565 21 9 21C8.20435 21 7.44129 20.6839 6.87868 20.1213C6.31607 19.5587 6 18.7956 6 18C6 16.343 7.343 16 9 16C10.657 16 12 16.343 12 18Z" stroke="black" stroke-width="2" stroke-linecap="round" stroke-linejoin="round"/>
</svg>
