<svg width="104" height="63" viewBox="0 0 104 63" fill="none" xmlns="http://www.w3.org/2000/svg">
    <g clip-path="url(#clip0_3721_18937)">
        <rect width="104" height="63" rx="8" fill="#F1FAFF"/>
        <path d="M87.1553 23.1814C87.9654 22.9271 88.8026 23.3573 89.066 24.1965L89.5136 25.6274C94.9021 24.4017 99.493 26.904 101.21 32.3991L106.241 48.4822C108.115 54.4728 105.498 59.3327 99.4659 61.2215L84.7302 65.831C78.7352 67.7061 73.7475 65.118 71.8684 59.1101L66.8964 43.216C65.1659 37.6852 67.4049 33.0666 72.5147 30.9458L72.0671 29.5149C71.8037 28.6757 72.2292 27.8502 73.0587 27.5919C73.8877 27.3317 74.706 27.7678 74.9694 28.607L75.3873 29.9424L86.5816 26.4399L86.1637 25.1044C85.9003 24.2652 86.3264 23.4417 87.1553 23.1814ZM96.3633 50.0422L96.3444 50.0481C95.4837 50.3391 95.0144 51.2829 95.3067 52.155C95.582 53.0324 96.5067 53.538 97.3799 53.287C98.2635 53.0097 98.7535 52.0595 98.4723 51.163C98.193 50.266 97.2494 49.7663 96.3633 50.0422ZM80.8285 54.8817C79.9731 55.1899 79.5208 56.1284 79.7961 57.0058C80.1091 57.8714 81.0395 58.3354 81.8942 58.0253C82.7327 57.7224 83.1831 56.7844 82.8701 55.9188C82.5838 55.0658 81.6763 54.6156 80.8285 54.8817ZM88.5932 52.4533C87.7384 52.7635 87.2874 53.6995 87.5608 54.5775C87.8738 55.4431 88.8036 55.9052 89.659 55.597C90.4949 55.2927 90.9478 54.3561 90.6342 53.4886C90.3485 52.6375 89.441 52.1873 88.5932 52.4533ZM78.6795 48.0136C77.8241 48.3219 77.3737 49.2598 77.649 50.1372C77.9601 51.0034 78.8924 51.4668 79.7471 51.1567C80.5837 50.8543 81.0341 49.9164 80.7211 49.0507C80.4348 48.1977 79.5292 47.7469 78.6795 48.0136ZM86.4283 45.5275C85.5729 45.8357 85.1206 46.7742 85.3959 47.6516C85.707 48.5178 86.6387 48.9793 87.494 48.6711C88.33 48.3668 88.781 47.4308 88.4699 46.5646C88.1817 45.7122 87.2761 45.2614 86.4283 45.5275ZM94.199 43.1182C93.3376 43.4074 92.8788 44.3249 93.1541 45.2023L93.1606 45.2233C93.4529 46.0954 94.3767 46.5384 95.2399 46.2486C96.0818 45.9635 96.5322 45.0255 96.24 44.1534C95.9389 43.326 95.0449 42.8527 94.199 43.1182ZM87.5006 29.3779L76.3063 32.8805L76.789 34.424C77.0452 35.2466 76.6269 36.0886 75.7974 36.347C74.9684 36.6072 74.1429 36.1545 73.8867 35.3319L73.4272 33.8628C69.8655 35.376 68.5039 38.17 69.7986 42.308L69.9854 42.901L98.5179 33.9744L98.3099 33.3064C96.951 29.2281 94.2218 27.7163 90.4267 28.5464L90.8862 30.0154C91.1417 30.8361 90.7053 31.686 89.8946 31.9384C89.0656 32.1986 88.2395 31.744 87.9839 30.9233L87.5006 29.3779Z" fill="#E3F3FF"/>
        <circle cx="52" cy="20" r="11" fill="url(#paint0_linear_3721_18937)"/>
        <path fill-rule="evenodd" clip-rule="evenodd" d="M54.903 12C55.2002 12 55.4414 12.2412 55.4414 12.5385L55.4418 13.1471C56.4901 13.219 57.3607 13.5781 57.9769 14.1956C58.6496 14.8711 59.0035 15.8425 59 17.0077V23.5576C59 25.9498 57.4808 27.4359 55.0362 27.4359H48.9638C46.5192 27.4359 45 25.9289 45 23.503V17.0063C45 14.7499 46.3548 13.3016 48.5644 13.1474L48.5648 12.5385C48.5648 12.2412 48.806 12 49.1033 12C49.4005 12 49.6417 12.2412 49.6417 12.5385L49.6415 13.1336H54.3642L54.3645 12.5385C54.3645 12.2412 54.6058 12 54.903 12ZM57.923 18.3926H46.0769V23.503C46.0769 25.3453 47.1021 26.359 48.9638 26.359H55.0362C56.8978 26.359 57.9231 25.3639 57.9231 23.5576L57.923 18.3926ZM55.1957 22.9101C55.4929 22.9101 55.7342 23.1514 55.7342 23.4486C55.7342 23.7458 55.4929 23.987 55.1957 23.987C54.8985 23.987 54.6544 23.7458 54.6544 23.4486C54.6544 23.1514 54.892 22.9101 55.1892 22.9101H55.1957ZM52.0098 22.9101C52.307 22.9101 52.5483 23.1514 52.5483 23.4486C52.5483 23.7458 52.307 23.987 52.0098 23.987C51.7126 23.987 51.4685 23.7458 51.4685 23.4486C51.4685 23.1514 51.7061 22.9101 52.0033 22.9101H52.0098ZM48.8172 22.9101C49.1145 22.9101 49.3557 23.1514 49.3557 23.4486C49.3557 23.7458 49.1145 23.987 48.8172 23.987C48.52 23.987 48.2752 23.7458 48.2752 23.4486C48.2752 23.1514 48.5136 22.9101 48.8108 22.9101H48.8172ZM55.1957 20.1197C55.4929 20.1197 55.7342 20.3609 55.7342 20.6581C55.7342 20.9554 55.4929 21.1966 55.1957 21.1966C54.8985 21.1966 54.6544 20.9554 54.6544 20.6581C54.6544 20.3609 54.892 20.1197 55.1892 20.1197H55.1957ZM52.0098 20.1197C52.307 20.1197 52.5483 20.3609 52.5483 20.6581C52.5483 20.9554 52.307 21.1966 52.0098 21.1966C51.7126 21.1966 51.4685 20.9554 51.4685 20.6581C51.4685 20.3609 51.7061 20.1197 52.0033 20.1197H52.0098ZM48.8172 20.1197C49.1145 20.1197 49.3557 20.3609 49.3557 20.6581C49.3557 20.9554 49.1145 21.1966 48.8172 21.1966C48.52 21.1966 48.2752 20.9554 48.2752 20.6581C48.2752 20.3609 48.5136 20.1197 48.8108 20.1197H48.8172ZM54.3642 14.2106H49.6415L49.6417 14.9012C49.6417 15.1984 49.4005 15.4397 49.1033 15.4397C48.806 15.4397 48.5648 15.1984 48.5648 14.9012L48.5644 14.2269C46.9561 14.362 46.0769 15.3369 46.0769 17.0063V17.3157H57.923L57.9231 17.0063C57.9259 16.1196 57.6875 15.4304 57.2144 14.9566C56.7991 14.54 56.192 14.2913 55.4421 14.2272L55.4414 14.9012C55.4414 15.1984 55.2002 15.4397 54.903 15.4397C54.6058 15.4397 54.3645 15.1984 54.3645 14.9012L54.3642 14.2106Z" fill="#FFF6FA"/>
    </g>
    <defs>
        <linearGradient id="paint0_linear_3721_18937" x1="52" y1="9" x2="52" y2="31" gradientUnits="userSpaceOnUse">
            <stop stop-color="#7ECFFE"/>
            <stop offset="1" stop-color="#2E95FF"/>
        </linearGradient>
        <clipPath id="clip0_3721_18937">
            <rect width="104" height="63" rx="8" fill="white"/>
        </clipPath>
    </defs>
</svg>