<svg width="96" height="96" viewBox="0 0 96 96" fill="none" xmlns="http://www.w3.org/2000/svg">
<g clip-path="url(#clip0_3489_125780)">
<path d="M87.6522 80.415C93.0517 74.6219 95.9951 67.4601 95.9951 59.9984C95.9951 50.6618 91.3831 42.2064 83.9963 36.207C83.8276 57.5986 63.7109 74.9968 39.0009 74.9968H22.2776C28.7457 85.6645 41.8881 92.995 56.9991 92.995H92.9954C94.214 92.995 95.3014 92.2638 95.7701 91.139C96.2388 90.0141 95.9763 88.7205 95.1139 87.8768L87.6522 80.415Z" fill="#E6E6E6"/>
<path d="M39.0009 3.00488C17.4969 3.00488 0.00487956 17.7971 0.00487956 36.0015C0.00487956 43.4633 2.94833 50.6063 8.34778 56.4182L0.88604 63.88C0.0236277 64.7424 -0.238846 66.036 0.229857 67.1421C0.698559 68.267 1.78595 68.9982 3.00457 68.9982H39.0009C60.505 68.9982 77.997 54.2059 77.997 36.0015C77.997 17.7971 60.505 3.00488 39.0009 3.00488Z" fill="#E6E6E6"/>
<path d="M56.9991 27.002H21.0027C19.3529 27.002 18.0031 28.3518 18.0031 30.0016C18.0031 31.6515 19.3529 33.0013 21.0027 33.0013H56.9991C58.6489 33.0013 59.9988 31.6515 59.9988 30.0016C59.9988 28.3518 58.6489 27.002 56.9991 27.002Z" fill="#FAFAFA"/>
<path d="M45.0003 39.001H21.0027C19.3529 39.001 18.0031 40.3508 18.0031 42.0007C18.0031 43.6505 19.3529 45.0004 21.0027 45.0004H45.0003C46.6501 45.0004 48 43.6505 48 42.0007C48 40.3508 46.6501 39.001 45.0003 39.001Z" fill="#FAFAFA"/>
</g>
<defs>
<clipPath id="clip0_3489_125780">
<rect width="96" height="96" fill="white"/>
</clipPath>
</defs>
</svg>
