<svg width="114" height="94" viewBox="0 0 114 94" fill="none" xmlns="http://www.w3.org/2000/svg">
<g clip-path="url(#clip0_1330_31327)">
<path d="M43.6061 44.7996C42.6121 43.8731 41.5376 42.9241 40.5178 41.9043C38.0858 39.5077 35.6248 37.1367 33.2925 34.6436C32.411 33.701 31.729 33.6785 30.632 34.1771C23.5746 37.3114 17.1263 41.6676 11.5843 47.045C10.8509 47.7592 10.5066 47.7174 9.82465 47.0161C6.96797 44.08 4.0727 41.1848 1.13882 38.3302C0.524373 37.7319 0.566193 37.4263 1.16777 36.8537C6.77847 31.4379 13.1552 26.8767 20.0932 23.3166C21.0197 22.8437 21.2513 22.5992 20.3699 21.7371C15.6345 17.095 10.986 12.3693 6.26988 7.70787C5.65866 7.1063 5.67474 6.80711 6.26988 6.23127C8.21294 4.36757 10.1152 2.46313 11.9768 0.517933C12.6202 -0.144764 12.9419 -0.18337 13.6142 0.495412C21.6567 8.59361 29.7216 16.6693 37.8091 24.7224C58.239 45.1481 78.6808 65.5673 99.1343 85.9801C99.9932 86.8358 100.016 87.2669 99.1343 88.084C97.2749 89.7986 95.4959 91.6226 93.7587 93.4499C93.096 94.1512 92.7647 94.2027 92.0377 93.4724C80.5016 81.8913 68.9484 70.3156 57.378 58.7452C57.0902 58.4255 56.73 58.1795 56.3276 58.0278C55.9251 57.8761 55.4921 57.8231 55.065 57.8734C46.2505 58.4589 38.5619 61.6533 32.1118 67.7205C31.4974 68.3028 31.2047 68.4057 30.5516 67.7366C27.6724 64.7673 24.7353 61.8495 21.7757 58.9543C21.1645 58.3559 21.0744 58.0599 21.7757 57.4133C27.7232 51.751 34.9477 47.6052 42.8372 45.3272C43.027 45.2725 43.2136 45.2114 43.4002 45.1438C43.4292 45.1309 43.442 45.0762 43.6061 44.7996Z" fill="#98A2B3"/>
<path d="M43.3102 15.4254C47.1268 14.6811 51.003 14.2848 54.8913 14.2416C77.2139 13.9199 96.5382 21.3382 112.765 36.7346C113.514 37.4456 113.456 37.7898 112.765 38.475C109.824 41.3317 106.929 44.227 104.079 47.1609C103.477 47.7785 103.165 47.7142 102.58 47.1609C92.0924 37.066 79.5912 31.1403 65.1824 29.2101C62.5547 28.8498 59.9048 28.6757 57.2525 28.689C57.0183 28.7147 56.7813 28.688 56.5587 28.6106C56.3361 28.5333 56.1335 28.4073 55.9658 28.2418C51.8094 24.0598 47.6241 19.8777 43.4517 15.6956C43.3923 15.6125 43.3446 15.5216 43.3102 15.4254Z" fill="#98A2B3"/>
<path d="M56.9919 72.324C62.5991 72.4334 67.4696 74.2703 71.642 77.9602C72.2468 78.4974 72.4559 78.7869 71.7449 79.4882C67.0481 84.1057 62.3889 88.7585 57.7672 93.4467C57.201 94.0193 56.8986 94.0901 56.2809 93.4789C51.6249 88.7606 46.941 84.0756 42.2292 79.4239C41.6662 78.8674 41.6726 78.5939 42.2549 78.076C46.2886 74.4049 51.5379 72.3561 56.9919 72.324Z" fill="#98A2B3"/>
<path d="M74.5727 46.4563C81.2842 48.8762 87.4051 52.6943 92.5299 57.6578C92.9481 58.06 92.9641 58.2819 92.5299 58.684C91.494 59.6298 90.5997 61.2769 89.4769 61.4249C88.4668 61.56 87.5275 59.781 86.5817 58.832C82.7599 55.0456 78.9703 51.2239 75.155 47.4279C74.8782 47.1966 74.581 46.991 74.2671 46.8134L74.5727 46.4563Z" fill="#98A2B3"/>
</g>
<defs>
<clipPath id="clip0_1330_31327">
<rect width="112.617" height="94" fill="white" transform="translate(0.69165)"/>
</clipPath>
</defs>
</svg>
