<svg width="81" height="80" viewBox="0 0 81 80" fill="none" xmlns="http://www.w3.org/2000/svg">
<g id="message-circle-02">
<path id="Icon" d="M70.5 40C70.5 56.5685 57.0685 70 40.5 70C36.5095 70 32.701 69.2209 29.2183 67.8065C28.5517 67.5358 28.2185 67.4004 27.9491 67.34C27.6855 67.2809 27.4905 67.2593 27.2204 67.2593C26.9443 67.2593 26.6436 67.3094 26.0422 67.4096L14.1825 69.3862C12.9406 69.5932 12.3196 69.6967 11.8706 69.5041C11.4776 69.3356 11.1644 69.0224 10.9959 68.6294C10.8033 68.1804 10.9068 67.5594 11.1138 66.3175L13.0904 54.4578C13.1906 53.8564 13.2407 53.5557 13.2407 53.2796C13.2407 53.0095 13.2191 52.8145 13.16 52.5509C13.0996 52.2815 12.9642 51.9483 12.6935 51.2817C11.2791 47.799 10.5 43.9905 10.5 40C10.5 23.4315 23.9315 10 40.5 10C57.0685 10 70.5 23.4315 70.5 40Z" stroke="#ADD0FF" stroke-width="5" stroke-linecap="round" stroke-linejoin="round"/>
</g>
</svg>
