<svg width="97" height="96" viewBox="0 0 97 96" fill="none" xmlns="http://www.w3.org/2000/svg">
<g clip-path="url(#clip0_4143_27524)">
<path d="M82.642 51.248H75.2178C75.9745 53.3199 76.388 55.5559 76.388 57.8863V85.9457C76.388 86.9174 76.2188 87.85 75.9111 88.7174H88.1851C92.7701 88.7174 96.5 84.9872 96.5 80.4025V65.106C96.5002 57.4648 90.2834 51.248 82.642 51.248Z" fill="#E6E6E6"/>
<path d="M20.6122 57.8863C20.6122 55.5557 21.0257 53.3199 21.7824 51.248H14.3582C6.71676 51.248 0.5 57.4648 0.5 65.1062V80.4027C0.5 84.9874 4.22995 88.7176 8.81489 88.7176H21.089C20.7814 87.8498 20.6122 86.9174 20.6122 85.9457V57.8863Z" fill="#E6E6E6"/>
<path d="M56.9866 44.0273H40.0137C32.3723 44.0273 26.1555 50.2441 26.1555 57.8855V85.9449C26.1555 87.4755 27.3964 88.7166 28.9271 88.7166H68.0731C69.6039 88.7166 70.8447 87.4757 70.8447 85.9449V57.8855C70.8447 50.2441 64.628 44.0273 56.9866 44.0273Z" fill="#E6E6E6"/>
<path d="M48.5001 7.2832C39.3104 7.2832 31.834 14.7596 31.834 23.9495C31.834 30.183 35.2744 35.6271 40.3553 38.4853C42.7653 39.841 45.5436 40.6157 48.5001 40.6157C51.4566 40.6157 54.235 39.841 56.645 38.4853C61.726 35.6271 65.1663 30.1828 65.1663 23.9495C65.1663 14.7598 57.6899 7.2832 48.5001 7.2832Z" fill="#E6E6E6"/>
<path d="M19.2346 22.8164C12.3618 22.8164 6.77051 28.4077 6.77051 35.2805C6.77051 42.1533 12.3618 47.7446 19.2346 47.7446C20.978 47.7446 22.6381 47.3835 24.1462 46.7343C26.7535 45.6118 28.9034 43.6246 30.2337 41.1356C31.1675 39.3886 31.6987 37.3957 31.6987 35.2805C31.6987 28.4079 26.1074 22.8164 19.2346 22.8164Z" fill="#E6E6E6"/>
<path d="M77.7656 22.8164C70.8928 22.8164 65.3015 28.4077 65.3015 35.2805C65.3015 37.3959 65.8327 39.3888 66.7665 41.1356C68.0968 43.6248 70.2466 45.6119 72.854 46.7343C74.3621 47.3835 76.0222 47.7446 77.7656 47.7446C84.6384 47.7446 90.2297 42.1533 90.2297 35.2805C90.2297 28.4077 84.6384 22.8164 77.7656 22.8164Z" fill="#E6E6E6"/>
</g>
<defs>
<clipPath id="clip0_4143_27524">
<rect width="96" height="96" fill="white" transform="translate(0.5)"/>
</clipPath>
</defs>
</svg>
