<svg width="65" height="57" viewBox="0 0 65 57" fill="none" xmlns="http://www.w3.org/2000/svg">
<path d="M58.853 0H28.7352C25.6213 0 23.0882 2.52864 23.0882 5.63709V28.1854C23.0882 31.2939 25.6213 33.8225 28.7352 33.8225H46.7794L53.7573 40.7881C54.3073 41.337 55.128 41.4813 55.8087 41.1954C56.5108 40.9055 56.9705 40.2191 56.9705 39.4596V33.8225H58.8527C61.9669 33.8225 64.5 31.2939 64.5 28.1854V5.63709C64.5 2.52864 61.9669 0 58.853 0ZM32.5 7.51618H40.0293C41.0699 7.51618 41.9116 8.35666 41.9116 9.39528C41.9116 10.4339 41.0696 11.2744 40.0293 11.2744H32.5C31.4595 11.2744 30.6177 10.4339 30.6177 9.39528C30.6177 8.35645 31.4595 7.51618 32.5 7.51618ZM55.0882 26.3063H32.5C31.4595 26.3063 30.6177 25.4659 30.6177 24.4272C30.6177 23.3886 31.4597 22.5481 32.5 22.5481H55.0882C56.1287 22.5481 56.9705 23.3886 56.9705 24.4272C56.9707 25.4661 56.1287 26.3063 55.0882 26.3063ZM55.0882 18.7904H32.5C31.4595 18.7904 30.6177 17.9499 30.6177 16.9113C30.6177 15.8726 31.4597 15.0322 32.5 15.0322H55.0882C56.1287 15.0322 56.9705 15.8726 56.9705 16.9113C56.9707 17.9499 56.1287 18.7904 55.0882 18.7904ZM19.3236 28.1854V15.0322H6.14705C3.03309 15.0322 0.5 17.5608 0.5 20.6692V43.2176C0.5 46.326 3.03309 48.8547 6.14705 48.8547H8.02933V54.4918C8.02933 55.2515 8.48898 55.9377 9.19107 56.2276C9.87134 56.5133 10.6921 56.3698 11.2425 55.8203L18.2204 48.8547H36.2646C39.3785 48.8547 41.9116 46.326 41.9116 43.2176V37.5805H28.7352C23.544 37.5805 19.3236 33.3656 19.3236 28.1854Z" fill="url(#paint0_linear_505_2915)"/>
<defs>
<linearGradient id="paint0_linear_505_2915" x1="55.1171" y1="48.1067" x2="15.5937" y2="3.23434" gradientUnits="userSpaceOnUse">
<stop stop-color="#0061FF"/>
<stop offset="0.131" stop-color="#066AFF"/>
<stop offset="0.35" stop-color="#1884FF"/>
<stop offset="0.629" stop-color="#34ADFF"/>
<stop offset="0.954" stop-color="#5AE6FF"/>
<stop offset="1" stop-color="#60EFFF"/>
</linearGradient>
</defs>
</svg>
