<svg width="25" height="24" viewBox="0 0 25 24" fill="none" xmlns="http://www.w3.org/2000/svg">
<path d="M9.38885 21C10.094 21.6224 11.0202 22 12.0347 22C13.0491 22 13.9754 21.6224 14.6805 21M18.0347 8C18.0347 6.4087 17.4025 4.88258 16.2773 3.75736C15.1521 2.63214 13.626 2 12.0347 2C10.4434 2 8.91725 2.63214 7.79203 3.75736C6.66681 4.88258 6.03467 6.4087 6.03467 8C6.03467 11.0902 5.25514 13.206 4.38434 14.6054C3.6498 15.7859 3.28253 16.3761 3.296 16.5408C3.31091 16.7231 3.34953 16.7926 3.49645 16.9016C3.62913 17 4.22726 17 5.42353 17H18.6458C19.8421 17 20.4402 17 20.5729 16.9016C20.7198 16.7926 20.7584 16.7231 20.7733 16.5408C20.7868 16.3761 20.4195 15.7859 19.685 14.6054C18.8142 13.206 18.0347 11.0902 18.0347 8Z" stroke="#101828" stroke-width="1.5" stroke-linecap="round" stroke-linejoin="round"/>
</svg>
