<svg width="24" height="25" viewBox="0 0 24 25" fill="none" xmlns="http://www.w3.org/2000/svg">
<g clip-path="url(#clip0_3315_3599)">
<path d="M20.7442 18.5698H4V16.8953H4.83721V11.0608C4.83721 6.88484 8.21116 3.5 12.3721 3.5C16.533 3.5 19.907 6.88484 19.907 11.0608V16.8953H20.7442V18.5698ZM6.51163 16.8953H18.2326V11.0608C18.2326 7.80995 15.6087 5.17442 12.3721 5.17442C9.13544 5.17442 6.51163 7.80995 6.51163 11.0608V16.8953ZM10.2791 19.407H14.4651C14.4651 19.9621 14.2446 20.4944 13.8521 20.887C13.4596 21.2795 12.9272 21.5 12.3721 21.5C11.817 21.5 11.2846 21.2795 10.8921 20.887C10.4996 20.4944 10.2791 19.9621 10.2791 19.407Z" fill="#70777C"/>
</g>
<defs>
<clipPath id="clip0_3315_3599">
<rect width="24" height="24" fill="white" transform="translate(0 0.5)"/>
</clipPath>
</defs>
</svg>
