<svg width="81" height="80" viewBox="0 0 81 80" fill="none" xmlns="http://www.w3.org/2000/svg">
<path d="M8.5 39.5001C9.16668 38.2735 9.95504 37.8069 10.9484 38.0519C11.9934 38.3085 12.4851 39.0818 12.5068 40.5016C12.7184 53.5903 22.197 64.9407 35.0224 67.4621C50.1894 70.4452 64.9281 60.6162 67.9632 45.4944C70.9983 30.3727 61.168 15.5042 46.001 12.5812C36.0957 10.6714 27.4688 13.4144 20.307 20.5804C20.1636 20.7253 20.0336 20.8837 19.8236 21.1186C20.0486 21.1003 20.177 21.102 20.302 21.0786C20.7955 20.9694 21.3121 21.0531 21.7459 21.3124C22.1798 21.5717 22.498 21.9871 22.6354 22.4735C22.7878 22.9571 22.7441 23.4812 22.5137 23.9329C22.2833 24.3846 21.8847 24.7277 21.4037 24.8882C19.2925 25.6037 17.1752 26.2864 15.0518 26.9364C14.7921 27.021 14.5173 27.0498 14.2456 27.0208C13.974 26.9918 13.7115 26.9057 13.4754 26.7682C13.2393 26.6307 13.035 26.4448 12.8758 26.2228C12.7167 26.0007 12.6062 25.7476 12.5518 25.4798C12.0518 23.3317 11.5934 21.177 11.1534 19.0155C11.1015 18.759 11.1008 18.4947 11.1513 18.2379C11.2019 17.9811 11.3027 17.7368 11.448 17.519C11.5932 17.3013 11.7801 17.1144 11.9979 16.9691C12.2156 16.8238 12.4599 16.723 12.7168 16.6724C13.2118 16.5713 13.7268 16.6632 14.1562 16.9293C14.5857 17.1955 14.8971 17.6157 15.0268 18.1039C15.1935 18.6972 15.3085 19.3072 15.4768 20.0387L16.1335 19.2722C21.3587 13.2461 27.8938 9.57817 35.7874 8.36163C36.6874 8.22331 37.5958 8.11999 38.4991 8H42.4992C42.6659 8.035 42.8192 8.07832 42.9809 8.10332C44.6243 8.3583 46.2893 8.50995 47.906 8.87991C60.2297 11.6979 69.9266 22.0135 72.015 34.4806C72.21 35.6471 72.3483 36.8253 72.5 37.9969V41.9965C72.465 42.1631 72.42 42.3181 72.395 42.4797C72.1783 43.9613 72.0417 45.4578 71.7383 46.9193C69.1599 59.3363 58.5713 69.4753 46.071 71.5001C44.8843 71.6934 43.6876 71.8334 42.4959 72H38.4958C38.3574 71.9667 38.2191 71.9217 38.0774 71.9C36.6174 71.6867 35.1424 71.545 33.6973 71.2567C21.3087 68.782 11.0201 58.1031 9.00001 45.6377C8.80501 44.4295 8.66667 43.213 8.5 41.9998V39.5001Z" fill="#ADD0FF"/>
<path d="M39.7961 59.4767H25.599C23.8385 59.4767 23.0499 58.6912 23.0673 56.9084C23.0883 54.8317 22.9958 52.7428 23.2052 50.6853C23.7112 45.7009 27.8305 41.5878 32.7612 40.8547C37.426 40.1663 42.1662 40.1663 46.831 40.8547C52.2066 41.6455 56.4271 46.3605 56.5493 51.8295C56.5876 53.5336 56.5597 55.2411 56.5597 56.9452C56.5597 58.6947 55.7816 59.482 54.056 59.482L39.7961 59.4767ZM52.3583 55.2481C52.3583 54.0234 52.4142 52.8687 52.3479 51.7176C52.2506 50.1115 51.62 48.5844 50.5566 47.3795C49.4932 46.1746 48.0582 45.3614 46.4803 45.0693C42.5039 44.3695 38.5102 44.3905 34.5025 44.8366C31.5992 45.1603 29.3101 46.364 27.9649 49.0688C26.9843 51.0387 27.2914 53.1452 27.267 55.2499L52.3583 55.2481Z" fill="#ADD0FF"/>
<path d="M39.8163 38.2871C37.5514 38.2721 35.3837 37.3654 33.7837 35.7638C32.1837 34.1622 31.2805 31.9949 31.27 29.7322C31.2837 27.4721 32.1884 25.3084 33.7882 23.7102C35.3881 22.1121 37.5539 21.2082 39.8163 21.1946C42.0816 21.2082 44.25 22.1142 45.8505 23.7157C47.451 25.3171 48.3544 27.4848 48.3644 29.7478C48.3499 32.008 47.4446 34.1716 45.8447 35.7699C44.2448 37.3682 42.0789 38.2726 39.8163 38.2871ZM44.2099 29.7633C44.2083 28.6046 43.752 27.4927 42.939 26.6663C42.126 25.8399 41.0211 25.3648 39.8614 25.3431C38.7019 25.341 37.5877 25.7927 36.7576 26.6016C35.9276 27.4104 35.4478 28.5118 35.421 29.6699C35.4155 30.8393 35.8729 31.9635 36.6937 32.7974C37.5145 33.6312 38.6319 34.1071 39.8025 34.1213C40.9617 34.1151 42.0724 33.6553 42.8963 32.8407C43.7202 32.026 44.1918 30.9213 44.2099 29.7633Z" fill="#ADD0FF"/>
</svg>
