<svg width="20" height="18" viewBox="0 0 20 18" fill="none" xmlns="http://www.w3.org/2000/svg">
<path d="M19.6667 16.8333H18.6667V15.1666C18.6667 14.9825 18.5176 14.8333 18.3334 14.8333H17.0869L19.9148 11.6826C19.9984 11.5893 20.0228 11.457 19.9776 11.3402C19.9326 11.2231 19.8259 11.1414 19.7012 11.1284C19.6081 11.1188 18.3132 10.9988 16.655 11.504C16.2415 11.1462 15.7424 10.8714 15.1624 10.6847L15.9541 9.33532C16.0105 9.23946 16.0153 9.12176 15.9668 9.02168C15.9183 8.9216 15.8233 8.85223 15.7132 8.8366C15.6243 8.82395 13.5781 8.55461 11.3481 9.52207C8.78995 5.49949 5.15519 5.17106 5.10777 5.16766C5.00394 5.15903 4.89976 5.20266 4.83042 5.28289C4.76175 5.36297 4.73472 5.47121 4.75847 5.57438L5.22409 7.60805C3.6989 7.10649 2.91101 7.16504 2.87468 7.16797C2.78386 7.17578 2.70054 7.22039 2.64355 7.29117C2.58659 7.36215 2.56085 7.45313 2.57292 7.54328L2.76316 8.9918C1.44624 8.71403 0.347688 8.82946 0.296555 8.83543C0.19468 8.84664 0.103859 8.90426 0.049797 8.99137C-0.00391398 9.07844 -0.0149687 9.18539 0.0205001 9.28157L2.05933 14.8333H1.66671C1.48245 14.8333 1.33339 14.9826 1.33339 15.1666V16.8333H0.333391C0.149133 16.8333 7.03942e-05 16.9826 7.03942e-05 17.1666C7.03942e-05 17.3507 0.149172 17.5 0.333391 17.5H19.6667C19.851 17.5 20 17.3507 20 17.1666C20 16.9826 19.8509 16.8333 19.6667 16.8333ZM18.9242 11.7881L16.1911 14.8333H13.3619C13.3301 14.6693 13.2967 14.5089 13.2615 14.3519C15.2975 12.2455 17.742 11.8465 18.9242 11.7881ZM15.9083 11.767C15.2373 12.0373 14.531 12.4161 13.8362 12.945L14.8155 11.2758C15.2266 11.3939 15.5933 11.5566 15.9083 11.767ZM15.1062 9.46356L12.9485 13.141C12.6032 11.9639 12.1747 10.9579 11.6951 10.1018C13.0839 9.51961 14.4056 9.44438 15.1062 9.46356ZM12.5723 14.3232C12.6114 14.4882 12.6479 14.6594 12.6831 14.8333H7.56218L5.51925 5.91114C6.90628 6.22086 11.0404 7.69028 12.5723 14.3232ZM5.39976 8.37531L6.87835 14.8333H4.20249L3.48734 9.3884C3.48726 9.38805 3.48722 9.38766 3.48718 9.38731L3.2848 7.84649C3.6732 7.88309 4.38218 8.00477 5.39976 8.37531ZM0.801789 9.47559C1.26265 9.46672 2.02984 9.4952 2.85589 9.69774L3.5303 14.8333H2.76941L0.801789 9.47559ZM18 16.8333H2.00003V15.5H2.53577C2.53613 15.5 2.53648 15.5002 2.53683 15.5002C2.53714 15.5002 2.53741 15.5 2.53773 15.5H18V16.8333Z" fill="#252525"/>
<path d="M12.3332 5.5C13.2521 5.5 13.9999 4.75227 13.9999 3.83332C13.9999 2.91438 13.2521 2.16664 12.3332 2.16664C11.4142 2.16664 10.6665 2.91438 10.6665 3.83332C10.6665 4.75227 11.4142 5.5 12.3332 5.5ZM12.3332 2.83332C12.8846 2.83332 13.3332 3.28188 13.3332 3.83332C13.3332 4.38477 12.8846 4.83332 12.3332 4.83332C11.7817 4.83332 11.3332 4.38477 11.3332 3.83332C11.3332 3.28188 11.7818 2.83332 12.3332 2.83332Z" fill="black"/>
<path d="M12.3333 1.83332C12.5176 1.83332 12.6666 1.68406 12.6666 1.5V0.83332C12.6666 0.649219 12.5175 0.5 12.3333 0.5C12.1491 0.5 12 0.649258 12 0.83332V1.5C12 1.6841 12.1491 1.83332 12.3333 1.83332Z" fill="black"/>
<path d="M12 6.16668V6.83336C12 7.01746 12.1491 7.16668 12.3333 7.16668C12.5176 7.16668 12.6666 7.01742 12.6666 6.83336V6.16668C12.6666 5.98258 12.5175 5.83336 12.3333 5.83336C12.1491 5.83332 12 5.98258 12 6.16668Z" fill="black"/>
<path d="M14.3335 3.83332C14.3335 4.01742 14.4826 4.16664 14.6668 4.16664H15.3335C15.5178 4.16664 15.6668 4.01738 15.6668 3.83332C15.6668 3.64922 15.5177 3.5 15.3335 3.5H14.6668C14.4826 3.5 14.3335 3.64926 14.3335 3.83332Z" fill="black"/>
<path d="M9.33332 4.16669H10C10.1843 4.16669 10.3333 4.01743 10.3333 3.83337C10.3333 3.64926 10.1842 3.50005 10 3.50005H9.33332C9.14906 3.50005 9 3.6493 9 3.83337C9 4.01743 9.1491 4.16669 9.33332 4.16669Z" fill="black"/>
<path d="M13.9833 2.51675C14.0685 2.51675 14.1538 2.48421 14.2189 2.41925L14.6906 1.94788C14.8208 1.81769 14.8208 1.60656 14.6906 1.47636C14.5604 1.34617 14.3495 1.34632 14.2192 1.4762L13.7475 1.94757C13.6174 2.07777 13.6174 2.2889 13.7475 2.4191C13.8127 2.48421 13.8979 2.51675 13.9833 2.51675Z" fill="black"/>
<path d="M10.4474 5.24758L9.97606 5.71895C9.84587 5.84914 9.84587 6.06008 9.97606 6.19031C10.0412 6.25543 10.1265 6.28797 10.2117 6.28797C10.297 6.28797 10.3823 6.25543 10.4474 6.19031L10.9188 5.71895C11.049 5.58875 11.049 5.37781 10.9188 5.24758C10.7886 5.11734 10.5777 5.11734 10.4474 5.24758Z" fill="black"/>
<path d="M13.7475 5.24757C13.6174 5.37777 13.6174 5.5889 13.7475 5.7191L14.2192 6.19047C14.2843 6.25539 14.3696 6.28797 14.4549 6.28797C14.5402 6.28797 14.6255 6.25543 14.6906 6.19031C14.8208 6.06011 14.8208 5.84902 14.6906 5.71879L14.2189 5.24738C14.0887 5.1175 13.8778 5.11734 13.7475 5.24757Z" fill="black"/>
<path d="M10.4475 2.4191C10.5126 2.48422 10.5979 2.51676 10.6831 2.51676C10.7684 2.51676 10.8537 2.48422 10.9188 2.4191C11.049 2.28891 11.049 2.07797 10.9188 1.94774L10.4474 1.47637C10.3172 1.34617 10.1063 1.34617 9.97606 1.47637C9.84587 1.60656 9.84587 1.8175 9.97606 1.94774L10.4475 2.4191Z" fill="black"/>
</svg>
