<svg width="24" height="24" viewBox="0 0 24 24" fill="none" xmlns="http://www.w3.org/2000/svg">
<path d="M21.553 6.064C21.686 6.12273 21.799 6.21883 21.8784 6.34062C21.9577 6.46241 22 6.60464 22 6.75V17.25C22.0001 17.3955 21.9578 17.5379 21.8784 17.6598C21.799 17.7817 21.6858 17.8779 21.5527 17.9366C21.4195 17.9953 21.2722 18.0141 21.1286 17.9905C20.985 17.967 20.8514 17.9022 20.744 17.804L14.994 12.554C14.9167 12.4839 14.8549 12.3984 14.8127 12.303C14.7704 12.2076 14.7486 12.1044 14.7486 12C14.7486 11.8956 14.7704 11.7924 14.8127 11.697C14.8549 11.6016 14.9167 11.5161 14.994 11.446L20.744 6.196C20.8515 6.09787 20.9852 6.03314 21.1289 6.0097C21.2725 5.98626 21.4199 6.00513 21.553 6.064ZM2.447 17.936C2.31403 17.8773 2.20099 17.7812 2.12163 17.6594C2.04227 17.5376 2.00001 17.3954 2 17.25V6.75C1.99992 6.6045 2.04217 6.46211 2.12159 6.34019C2.20102 6.21828 2.31419 6.1221 2.44732 6.06338C2.58045 6.00466 2.72779 5.98593 2.87138 6.00948C3.01496 6.03303 3.1486 6.09783 3.256 6.196L9.006 11.446C9.08329 11.5161 9.14505 11.6016 9.18732 11.697C9.22958 11.7924 9.25142 11.8956 9.25142 12C9.25142 12.1044 9.22958 12.2076 9.18732 12.303C9.14505 12.3984 9.08329 12.4839 9.006 12.554L3.256 17.804C3.1485 17.9021 3.01478 17.9669 2.87113 17.9903C2.72748 18.0137 2.58011 17.9949 2.447 17.936ZM7.387 12L3.5 8.45V15.55L7.387 12ZM16.613 12L20.5 15.55V8.45L16.612 12H16.613ZM12 2.75C12.1989 2.75 12.3897 2.82902 12.5303 2.96967C12.671 3.11032 12.75 3.30109 12.75 3.5V4.5C12.75 4.69891 12.671 4.88968 12.5303 5.03033C12.3897 5.17098 12.1989 5.25 12 5.25C11.8011 5.25 11.6103 5.17098 11.4697 5.03033C11.329 4.88968 11.25 4.69891 11.25 4.5V3.5C11.25 3.30109 11.329 3.11032 11.4697 2.96967C11.6103 2.82902 11.8011 2.75 12 2.75ZM12 6.75C12.1989 6.75 12.3897 6.82902 12.5303 6.96967C12.671 7.11032 12.75 7.30109 12.75 7.5V8.5C12.75 8.69891 12.671 8.88968 12.5303 9.03033C12.3897 9.17098 12.1989 9.25 12 9.25C11.8011 9.25 11.6103 9.17098 11.4697 9.03033C11.329 8.88968 11.25 8.69891 11.25 8.5V7.5C11.25 7.30109 11.329 7.11032 11.4697 6.96967C11.6103 6.82902 11.8011 6.75 12 6.75ZM12 14.75C12.1989 14.75 12.3897 14.829 12.5303 14.9697C12.671 15.1103 12.75 15.3011 12.75 15.5V16.5C12.75 16.6989 12.671 16.8897 12.5303 17.0303C12.3897 17.171 12.1989 17.25 12 17.25C11.8011 17.25 11.6103 17.171 11.4697 17.0303C11.329 16.8897 11.25 16.6989 11.25 16.5V15.5C11.25 15.3011 11.329 15.1103 11.4697 14.9697C11.6103 14.829 11.8011 14.75 12 14.75ZM12 18.75C12.1989 18.75 12.3897 18.829 12.5303 18.9697C12.671 19.1103 12.75 19.3011 12.75 19.5V20.5C12.75 20.6989 12.671 20.8897 12.5303 21.0303C12.3897 21.171 12.1989 21.25 12 21.25C11.8011 21.25 11.6103 21.171 11.4697 21.0303C11.329 20.8897 11.25 20.6989 11.25 20.5V19.5C11.25 19.3011 11.329 19.1103 11.4697 18.9697C11.6103 18.829 11.8011 18.75 12 18.75ZM12 10.75C12.1989 10.75 12.3897 10.829 12.5303 10.9697C12.671 11.1103 12.75 11.3011 12.75 11.5V12.5C12.75 12.6989 12.671 12.8897 12.5303 13.0303C12.3897 13.171 12.1989 13.25 12 13.25C11.8011 13.25 11.6103 13.171 11.4697 13.0303C11.329 12.8897 11.25 12.6989 11.25 12.5V11.5C11.25 11.3011 11.329 11.1103 11.4697 10.9697C11.6103 10.829 11.8011 10.75 12 10.75Z" fill="white"/>
</svg>
