<svg width="16" height="20" viewBox="0 0 16 20" fill="none" xmlns="http://www.w3.org/2000/svg">
<path d="M8.00001 9.2853C8.84764 9.2853 9.67624 9.03395 10.381 8.56302C11.0858 8.0921 11.6351 7.42277 11.9595 6.63966C12.2839 5.85654 12.3687 4.99483 12.2034 4.16348C12.038 3.33214 11.6298 2.56849 11.0305 1.96913C10.4311 1.36976 9.66746 0.961583 8.83611 0.796218C8.00476 0.630853 7.14305 0.715724 6.35994 1.0401C5.57683 1.36448 4.90749 1.91379 4.43657 2.61857C3.96565 3.32335 3.71429 4.15195 3.71429 4.99958C3.71543 6.13588 4.16732 7.22531 4.9708 8.02879C5.77429 8.83227 6.86371 9.28416 8.00001 9.2853ZM8.00001 2.14244C8.5651 2.14244 9.1175 2.31001 9.58735 2.62396C10.0572 2.9379 10.4234 3.38413 10.6397 3.9062C10.8559 4.42828 10.9125 5.00275 10.8023 5.55698C10.692 6.11122 10.4199 6.62031 10.0203 7.01989C9.62073 7.41947 9.11164 7.69158 8.55741 7.80183C8.00318 7.91207 7.4287 7.85549 6.90663 7.63924C6.38455 7.42299 5.93833 7.05678 5.62438 6.58693C5.31043 6.11707 5.14287 5.56467 5.14287 4.99958C5.14287 4.24182 5.44389 3.5151 5.9797 2.97928C6.51552 2.44346 7.24225 2.14244 8.00001 2.14244Z" fill="#252525"/>
<path d="M10.0593 10.7139H5.94072C4.59287 10.7156 3.30072 11.2518 2.34772 12.2049C1.39471 13.1581 0.858659 14.4503 0.857147 15.7982C0.858093 16.7227 1.22579 17.6091 1.87955 18.2629C2.53331 18.9167 3.41973 19.2844 4.34429 19.2853H11.655C12.5798 19.2844 13.4664 18.9166 14.1202 18.2627C14.7741 17.6088 15.1419 16.7222 15.1429 15.7974C15.1413 14.4497 14.6053 13.1575 13.6522 12.2045C12.6992 11.2515 11.4071 10.7154 10.0593 10.7139ZM11.655 17.8567H4.34429C3.79843 17.856 3.27516 17.6387 2.88924 17.2527C2.50333 16.8666 2.28629 16.3433 2.28572 15.7974C2.28666 14.8284 2.67205 13.8992 3.35729 13.214C4.04253 12.5288 4.97164 12.1434 5.94072 12.1424H10.0593C11.0284 12.1438 11.9574 12.5294 12.6426 13.2147C13.3277 13.9 13.7132 14.8291 13.7143 15.7982C13.7135 16.344 13.4963 16.8673 13.1103 17.2532C12.7242 17.6391 12.2009 17.8562 11.655 17.8567Z" fill="#252525"/>
</svg>
