<svg width="48" height="40" viewBox="0 0 48 40" fill="none" xmlns="http://www.w3.org/2000/svg">
<g clip-path="url(#clip0_174_11766)">
<path d="M32.6966 5.25738C32.7859 4.78998 33.0771 4.60692 33.5431 4.60936C35.2557 4.6175 36.9649 4.6175 38.671 4.60936C38.8152 4.60132 38.9593 4.62781 39.0913 4.68661C39.2232 4.74542 39.3391 4.83483 39.4294 4.94741C42.0471 8.07969 44.6665 11.212 47.2875 14.3442C47.3547 14.4248 47.4098 14.5114 47.4783 14.5956V15.0533C46.8263 15.7648 46.1768 16.4787 45.5211 17.1865C45.2459 17.4855 44.9193 17.4965 44.5719 17.3183C44.0544 17.1425 43.9456 16.8179 44.2281 16.2907C44.5254 15.7379 44.5254 15.7355 43.9052 15.7355C40.2355 15.7355 36.5678 15.7355 32.9022 15.7355C32.1523 15.7355 32.0606 15.8172 31.8465 16.5336C30.7395 20.2447 29.6067 23.9473 28.4875 27.6536C27.6777 30.3384 26.8593 33.0232 26.041 35.7666C26.9254 34.8403 27.7658 33.9507 28.5853 33.0439C29.0869 32.4899 29.6018 31.9456 30.1107 31.4025C31.8294 29.5635 33.5358 27.7134 35.2557 25.8779C35.6361 25.4728 35.5982 25.2751 35.0979 25.0066C34.8153 24.8541 34.5156 24.7345 34.2416 24.5624C33.4648 24.0742 33.4918 23.2847 34.2954 22.8417C34.5401 22.7086 34.7847 22.5805 35.0294 22.4756C35.2261 22.3907 35.4027 22.2654 35.5477 22.1079C35.6927 21.9504 35.8029 21.7643 35.871 21.5615C36.0581 21.0611 36.2636 20.5681 36.4655 20.0751C36.5398 19.8578 36.6599 19.6589 36.8177 19.4918C37.2532 19.0805 37.9015 19.1769 38.222 19.7175C38.4789 20.1532 38.6184 20.6413 38.8153 21.1039C39.0281 21.6042 39.1468 21.6347 39.515 21.2662C40.293 20.49 41.0294 19.6797 41.7633 18.8596C41.9468 18.6558 42.1242 18.4422 42.3749 18.3202C42.7859 18.1225 43.0844 18.2214 43.2618 18.6082C43.5566 19.0012 43.5064 19.3563 43.1737 19.7065C42.1951 20.7512 41.2165 21.8043 40.244 22.8539C40.2734 22.8917 40.2856 22.9222 40.3089 22.9356C40.6269 23.115 40.9817 23.2615 40.9719 23.7203C40.9621 24.1792 40.6049 24.3708 40.2379 24.4965C39.334 24.815 38.7639 25.4032 38.5352 26.3453C38.4434 26.7261 38.2502 27.0776 38.1021 27.4437C37.9798 27.75 37.7804 27.9587 37.4232 27.9599C37.0661 27.9611 36.8679 27.7524 36.7444 27.4449C36.6758 27.2753 36.6061 27.1081 36.534 26.936C36.3174 26.9726 36.2355 27.1532 36.1168 27.2801C32.3199 31.3554 28.5242 35.433 24.7297 39.5131C24.1352 40.1526 23.8441 40.1489 23.2386 39.4997C21.3629 37.4885 19.4914 35.477 17.6239 33.465C17.4477 33.2758 17.2704 33.0891 17.0416 32.8462C16.7456 33.5785 16.4679 34.2631 16.1927 34.9465C16.1132 35.1454 16.0386 35.3456 15.849 35.4737C15.4698 35.7275 15.0098 35.5762 14.8092 35.1076C14.5413 34.4779 14.2832 33.8421 14.0422 33.2014C13.9898 33.0426 13.9038 32.8969 13.79 32.7742C13.6763 32.6515 13.5374 32.5545 13.3829 32.4899C13.0465 32.3447 12.7285 32.1604 12.4043 32.0018C12.1205 31.8663 11.9224 31.6625 11.915 31.3391C11.9077 31.0157 12.1022 30.8082 12.386 30.6703C12.7835 30.4763 13.1835 30.2847 13.5701 30.0711C14.0337 29.8136 14.052 29.6306 13.6924 29.2449C12.6624 28.1393 11.6398 27.0263 10.6 25.9292C10.2844 25.596 10.2025 25.2604 10.4276 24.8577C10.6282 24.4184 11.0245 24.3085 11.4673 24.5782C11.7077 24.742 11.921 24.9421 12.0997 25.1713C12.6991 25.8621 13.3352 26.5138 13.9627 27.1837C14.3627 27.6084 14.3786 27.5938 14.7774 27.1837C15.3009 26.648 16.0006 26.7713 16.3383 27.4791C16.5704 27.9598 16.7699 28.4556 16.9352 28.963C17.0123 29.2422 17.1555 29.4989 17.3529 29.7113C17.5502 29.9237 17.7959 30.0856 18.0691 30.1834C18.2829 30.2676 18.4878 30.3726 18.6808 30.497C19.2826 30.8729 19.3927 31.3318 18.9829 31.909C18.7786 32.1958 18.8434 32.3971 19.0526 32.6412C19.7707 33.4515 20.5132 34.2387 21.263 35.0185C21.5162 35.2821 21.7401 35.5677 21.9774 35.8325C20.6098 31.3 19.239 26.766 17.8649 22.2303C17.2753 20.2777 16.6771 18.3251 16.0924 16.3725C15.9321 15.8404 15.7964 15.7379 15.2361 15.7379C11.4783 15.733 7.72012 15.733 3.96151 15.7379C3.81716 15.7379 3.61655 15.6732 3.5456 15.8368C3.47465 16.0003 3.66793 16.0967 3.76089 16.2029C4.79575 17.3622 5.86486 18.4911 6.92419 19.6297C7.73275 20.4998 8.53765 21.376 9.3511 22.2425C9.51102 22.4103 9.61486 22.6235 9.64835 22.8526C9.68749 23.1248 9.64835 23.3786 9.29973 23.436C8.73582 23.7496 8.5511 23.7252 8.11074 23.2529C5.67159 20.6348 3.23449 18.0163 0.799425 15.3974C0.697896 15.2876 0.604937 15.168 0.508301 15.0533V14.5956C2.54703 12.1476 4.58781 9.69952 6.63062 7.25146C6.84346 6.99641 7.22511 6.71206 7.20187 6.47287C7.17373 6.1934 6.6771 6.14093 6.38964 5.98472C6.10217 5.82851 5.88811 5.64058 5.90034 5.28179C5.9089 4.94619 6.11318 4.76313 6.38964 4.62645C6.86792 4.3897 7.3401 4.1383 7.82328 3.91253C7.99662 3.83251 8.15228 3.71891 8.28122 3.57833C8.41016 3.43775 8.5098 3.27301 8.57434 3.09367C8.90339 2.25894 9.24835 1.42909 9.57129 0.591914C9.70462 0.247771 9.90156 -0.00484771 10.2942 0.0024745C10.6612 0.00857634 10.8532 0.252646 10.9792 0.578485C11.3046 1.41566 11.6508 2.24429 11.9762 3.08146C12.1291 3.47198 12.3994 3.71727 12.7566 3.93572C13.6471 4.47146 14.5792 4.64964 15.6239 4.64109C20.3945 4.59838 25.159 4.62645 29.926 4.61546C30.4153 4.61546 30.7578 4.76191 30.8728 5.26837C31.0967 5.47217 31.0245 5.67475 30.8728 5.87855C30.6538 6.15435 30.3529 6.23001 30.0165 6.23123C28.8557 6.23123 27.6924 6.23123 26.5327 6.23123C26.3847 6.23123 26.1939 6.17876 26.1083 6.32764C26.0019 6.51314 26.1927 6.62786 26.2893 6.75477C27.7988 8.72933 29.3535 10.6685 30.8581 12.6467C31.3474 13.2972 31.4428 13.2862 31.959 12.6308L36.4581 6.8585C36.5079 6.80082 36.5541 6.74009 36.5963 6.67667C36.6575 6.57538 36.7774 6.47896 36.7272 6.35205C36.6636 6.19096 36.496 6.23001 36.3603 6.23001C35.4281 6.23001 34.496 6.23001 33.5651 6.23001C33.2275 6.23001 32.9278 6.15313 32.7089 5.87855C32.5584 5.67353 32.4814 5.47094 32.6966 5.25738Z" fill="black"/>
<path d="M9.31314 23.4408C9.5688 23.0027 9.44892 22.6537 9.11253 22.2961C7.11702 20.1702 5.12966 18.037 3.15046 15.8965C3.05994 15.7989 2.97431 15.6951 2.88257 15.5902C3.01468 15.4596 3.15779 15.5145 3.28501 15.5145C7.39632 15.5145 11.5076 15.5145 15.6189 15.5035C15.9663 15.5035 16.1144 15.5938 16.2171 15.938C18.2183 22.589 20.2269 29.2367 22.2428 35.8812C22.2929 36.0496 22.4043 36.2168 22.3358 36.4133C22.1706 36.4133 22.1119 36.2705 22.0251 36.1778C20.8679 34.9391 19.7192 33.6931 18.5559 32.4618C18.3321 32.225 18.3113 32.1298 18.6293 31.9553C19.1847 31.6527 19.1663 31.0461 18.6293 30.7179C18.6168 30.7097 18.6032 30.7031 18.589 30.6983C17.2911 30.3322 16.7003 29.3694 16.3749 28.1624C16.3067 27.9605 16.2275 27.7625 16.1376 27.5693C16.0214 27.2679 15.8061 27.0812 15.4844 27.0812C15.1627 27.0812 14.9523 27.2581 14.8189 27.5534C14.5511 28.1429 14.5437 28.1404 14.096 27.6584C13.2748 26.7757 12.4532 25.8933 11.6312 25.0114C11.2055 24.5562 10.9572 24.5233 10.4385 24.8674C10.2893 24.4195 9.83913 24.2133 9.59938 23.8386C9.5113 23.6983 9.40366 23.5702 9.31314 23.4408Z" fill="#DFDFDF"/>
<path d="M43.2691 18.6069C42.7529 18.3433 42.5437 18.3751 42.1461 18.801C41.1981 19.8163 40.2465 20.8268 39.3156 21.8519C39.0477 22.1484 38.9486 22.1045 38.8263 21.753C38.6098 21.1526 38.3553 20.5644 38.118 19.9701C37.9957 19.6613 37.7902 19.449 37.4403 19.4502C37.0905 19.4514 36.885 19.6613 36.7614 19.9701C36.5168 20.5925 36.255 21.2112 36.0189 21.8385C35.9666 21.9974 35.8808 22.1433 35.7673 22.2665C35.6538 22.3896 35.5152 22.4871 35.3608 22.5524C35.0538 22.6866 34.7614 22.8538 34.4581 22.9978C34.1547 23.1418 33.8991 23.32 33.8966 23.702C33.8942 24.0839 34.1351 24.267 34.4434 24.4134C34.8275 24.5989 35.2153 24.7796 35.5835 24.9968C35.9969 25.2409 36.0128 25.3971 35.6948 25.7388C32.4532 29.2241 29.2104 32.7083 25.9663 36.1912C25.8783 36.2864 25.8122 36.4206 25.6471 36.4353C25.5945 36.2571 25.6936 36.1131 25.7388 35.963C27.7523 29.3022 29.7645 22.6411 31.7755 15.9795C31.8868 15.6134 32.0361 15.4913 32.4275 15.4913C36.5058 15.5072 40.5841 15.5011 44.6599 15.5011H45.1113C45.0183 15.8099 44.7724 15.9526 44.6036 16.1491C44.2183 16.5958 44.2061 16.8337 44.5743 17.3121C44.0556 17.6673 43.6984 18.1725 43.2691 18.6069Z" fill="#BDBDBD"/>
<path d="M32.6966 5.25732C32.8092 5.81259 33.0012 5.981 33.5627 5.98954C34.6636 5.98954 35.7645 5.98954 36.8654 5.98954C37.0122 5.98954 37.1664 5.94805 37.3144 6.03225C37.307 6.20433 37.1737 6.2983 37.0844 6.41179C35.2903 8.72561 33.4926 11.037 31.6911 13.3459C31.5419 13.5387 31.4465 13.7608 31.181 13.4118C29.3303 11.0065 27.4587 8.61699 25.5945 6.22263C25.559 6.17504 25.5321 6.12134 25.4979 6.06521C25.6275 5.92486 25.789 5.99077 25.9297 5.99077C27.2752 5.99077 28.6208 5.99077 29.9664 5.99077C30.5694 5.99077 30.7382 5.85286 30.8899 5.26587L32.6966 5.25732Z" fill="#DFDFDF"/>
<path d="M23.9468 36.7428C23.6377 35.7291 23.3287 34.715 23.0196 33.7005C21.241 27.828 19.4632 21.9548 17.6863 16.0808C17.5126 15.506 17.5126 15.506 18.123 15.506C22.096 15.506 26.0687 15.506 30.041 15.506C30.3297 15.506 30.4948 15.4999 30.3762 15.8928C28.2828 22.7676 26.1976 29.6452 24.1205 36.5256C24.0997 36.5976 24.074 36.6672 24.0508 36.7379L23.9468 36.7428Z" fill="#C8C8C8"/>
<path d="M45.2728 14.1099H32.9401C32.918 13.9146 33.0624 13.8255 33.1492 13.7133C34.9462 11.3946 36.7517 9.09296 38.5388 6.77182C38.7835 6.45941 38.8899 6.43256 39.1566 6.75474C41.0722 9.07344 43.0086 11.3702 44.9376 13.6754C45.0416 13.7999 45.1358 13.9305 45.2728 14.1099Z" fill="#C8C8C8"/>
<path d="M29.8954 14.1099H18.1095C18.0862 13.95 18.1988 13.8744 18.2685 13.7841C20.0838 11.4495 21.9052 9.11984 23.7119 6.77795C23.9395 6.48262 24.0471 6.46309 24.2856 6.77795C26.0911 9.11984 27.9138 11.4483 29.7291 13.7829C29.8 13.8695 29.9076 13.9452 29.8954 14.1099Z" fill="#D3D3D3"/>
<path d="M22.5914 5.98954C21.9798 6.77179 21.4416 7.46374 20.9021 8.15813L16.9462 13.2446C16.5902 13.7035 16.5902 13.7023 16.2465 13.2605C14.918 11.552 13.5888 9.84346 12.2587 8.13494C11.8917 7.66388 11.8599 7.30753 12.3358 6.98292C13.0538 6.49477 13.7792 5.97489 14.7297 5.97977C17.3082 5.99808 19.8868 5.98954 22.5914 5.98954Z" fill="#DFDFDF"/>
<path d="M8.46422 7.22339C8.8422 8.16429 9.19816 9.03686 9.54067 9.9082C9.68134 10.2621 9.83547 10.5928 10.2917 10.5904C10.748 10.5879 10.9034 10.2548 11.0404 9.9021C11.1223 9.69341 11.2031 9.33706 11.3229 9.31998C11.5676 9.28703 11.6605 9.61531 11.8049 9.79837C12.8251 11.092 13.8375 12.3912 14.8422 13.6962C14.9327 13.8109 15.0636 13.9049 15.0868 14.1014H2.7052L8.46422 7.22339Z" fill="#F4F4F4"/>
<path d="M10.2881 7.97384C9.84774 6.84744 9.44529 5.76253 8.16211 5.29635C9.45385 4.84848 9.84529 3.73917 10.2783 2.51392C10.7517 3.69767 11.082 4.85214 12.4068 5.28171C11.1272 5.7662 10.7187 6.87063 10.2881 7.97384Z" fill="url(#paint0_linear_174_11766)"/>
<path d="M15.4918 29.6281C15.7437 30.342 16.0226 30.8936 16.5927 31.2267C16.682 31.2792 16.7505 31.3549 16.6245 31.4281C16.0385 31.7686 15.7352 32.319 15.5101 32.9987C15.2361 32.6241 15.1811 32.2079 14.8985 31.9284C14.6893 31.7185 14.4704 31.5184 14.2551 31.3183C14.4679 31.1267 14.7199 30.9814 14.9046 30.7544C15.1529 30.453 15.2752 30.0894 15.4918 29.6281Z" fill="url(#paint1_linear_174_11766)"/>
<path d="M38.7725 23.7155C38.0104 24.0816 37.7058 24.6918 37.4355 25.4325C37.1566 24.6942 36.8581 24.0669 36.0899 23.724C36.8434 23.3579 37.1749 22.7477 37.4294 21.9728C37.7046 22.7343 38.0116 23.3396 38.7725 23.7155Z" fill="url(#paint2_linear_174_11766)"/>
</g>
<defs>
<linearGradient id="paint0_linear_174_11766" x1="9.61068" y1="9.09065" x2="9.15563" y2="2.5432" gradientUnits="userSpaceOnUse">
<stop stop-color="#121212" stop-opacity="0.11"/>
<stop offset="1" stop-color="#121212"/>
</linearGradient>
<linearGradient id="paint1_linear_174_11766" x1="15.0872" y1="33.6882" x2="14.7855" y2="29.6491" gradientUnits="userSpaceOnUse">
<stop stop-color="#121212" stop-opacity="0.11"/>
<stop offset="1" stop-color="#121212"/>
</linearGradient>
<linearGradient id="paint2_linear_174_11766" x1="37.0054" y1="26.1402" x2="36.7163" y2="21.9914" gradientUnits="userSpaceOnUse">
<stop stop-color="#121212" stop-opacity="0.11"/>
<stop offset="1" stop-color="#121212"/>
</linearGradient>
<clipPath id="clip0_174_11766">
<rect width="46.9565" height="40" fill="white" transform="translate(0.521729)"/>
</clipPath>
</defs>
</svg>
