<svg width="61" height="20" viewBox="0 0 61 20" fill="none" xmlns="http://www.w3.org/2000/svg">
<path d="M22.4114 15.4732C22.3947 15.4335 22.3494 15.4132 22.3052 15.4254L21.1713 15.7309C21.0316 15.7695 20.9568 15.9225 21.0087 16.0475C21.059 16.1685 21.214 16.2223 21.3375 16.1552L22.3687 15.5835C22.4099 15.5611 22.4282 15.5133 22.4114 15.4732Z" fill="#007AF5"/>
<path d="M21.1273 15.4806L22.2937 15.3448C22.3394 15.3398 22.374 15.3042 22.3745 15.2615C22.375 15.2178 22.3404 15.1807 22.2942 15.1751L21.1247 15.0252C20.9855 15.0084 20.8614 15.1161 20.8594 15.2468C20.8569 15.382 20.9829 15.4963 21.1273 15.4806Z" fill="#007AF5"/>
<path d="M22.5379 15.6735C22.5079 15.642 22.4571 15.64 22.42 15.6685L21.4833 16.3846C21.3725 16.4705 21.3603 16.6346 21.4508 16.7292C21.5443 16.8268 21.7145 16.8196 21.8055 16.7068L22.5389 15.7899C22.5684 15.7544 22.5679 15.7046 22.5379 15.6735Z" fill="#007AF5"/>
<path d="M21.1825 14.757L22.3103 15.0838C22.3545 15.097 22.4003 15.0771 22.4176 15.038C22.4353 14.9979 22.4176 14.9501 22.3769 14.9272L21.3569 14.3361C21.2349 14.2665 21.0788 14.3178 21.026 14.4378C20.9716 14.5613 21.0438 14.7153 21.1825 14.757Z" fill="#007AF5"/>
<path d="M23.0293 15.9251C23.0242 15.8783 22.9871 15.8438 22.9434 15.8438C22.9007 15.8443 22.8647 15.8783 22.8591 15.9241L22.7127 17.0889C22.6954 17.2328 22.8087 17.3598 22.9439 17.3588C23.0746 17.3578 23.1838 17.2348 23.1681 17.0956L23.0293 15.9251Z" fill="#007AF5"/>
<path d="M23.4696 15.6777C23.433 15.6482 23.3822 15.6492 23.3517 15.6802C23.3217 15.7107 23.3202 15.7605 23.3481 15.7966L24.0637 16.7277C24.1527 16.8421 24.3229 16.8527 24.418 16.7567C24.5105 16.6637 24.5013 16.5 24.392 16.4116L23.4696 15.6777Z" fill="#007AF5"/>
<path d="M23.2782 15.8378C23.2563 15.7977 23.2101 15.7789 23.1704 15.7946C23.1298 15.8104 23.1084 15.8566 23.1206 15.9019L23.4245 17.0413C23.4616 17.1765 23.6085 17.2507 23.7305 17.203C23.8565 17.1542 23.915 16.9941 23.8459 16.8665L23.2782 15.8378Z" fill="#007AF5"/>
<path d="M23.1767 14.7334C23.2164 14.7497 23.2626 14.7319 23.2855 14.6922L23.872 13.6747C23.9437 13.5487 23.8883 13.3876 23.7632 13.3362C23.6423 13.2864 23.4939 13.3576 23.4542 13.4923L23.129 14.6257C23.1157 14.6704 23.1366 14.7166 23.1767 14.7334Z" fill="#007AF5"/>
<path d="M23.3678 14.8639C23.3983 14.8939 23.4481 14.8955 23.4842 14.8675L24.4153 14.1519C24.5296 14.063 24.5403 13.8927 24.4443 13.7977C24.3512 13.7052 24.1876 13.7143 24.0992 13.8236L23.3647 14.746C23.3358 14.7826 23.3368 14.8335 23.3678 14.8639Z" fill="#007AF5"/>
<path d="M22.4292 14.8514C22.4648 14.8804 22.5146 14.8799 22.5456 14.8504C22.5771 14.8204 22.5792 14.7696 22.5507 14.7325L21.8346 13.7958C21.7487 13.685 21.5845 13.6728 21.49 13.7633C21.3924 13.8568 21.3995 14.027 21.5123 14.118L22.4292 14.8514Z" fill="#007AF5"/>
<path d="M22.8637 14.6062C22.8688 14.6519 22.9044 14.6865 22.9471 14.687C22.9908 14.6875 23.0279 14.6529 23.0335 14.6067L23.1834 13.4372C23.2002 13.298 23.0924 13.1739 22.9618 13.1719C22.8266 13.1694 22.7123 13.2959 22.728 13.4398L22.8637 14.6062Z" fill="#007AF5"/>
<path d="M22.6244 14.6812C22.6468 14.7224 22.694 14.7407 22.7347 14.7239C22.7743 14.7072 22.7946 14.6619 22.7825 14.6177L22.477 13.4838C22.4384 13.3441 22.2854 13.2693 22.1604 13.3212C22.0394 13.3715 21.9855 13.5265 22.0526 13.65L22.6244 14.6812Z" fill="#007AF5"/>
<path d="M22.7255 15.7959C22.6854 15.7782 22.6376 15.7959 22.6147 15.8366L22.0236 16.8567C21.954 16.9786 22.0053 17.1347 22.1253 17.1875C22.2488 17.2419 22.4033 17.1702 22.445 17.031L22.7718 15.9032C22.7845 15.859 22.7652 15.8132 22.7255 15.7959Z" fill="#007AF5"/>
<path d="M24.7242 15.7746L23.5908 15.4493C23.5461 15.4361 23.4993 15.4564 23.4826 15.4971C23.4663 15.5367 23.4841 15.583 23.5237 15.6059L24.5412 16.1924C24.6673 16.264 24.8284 16.2086 24.8797 16.0836C24.93 15.9627 24.8589 15.8142 24.7242 15.7746Z" fill="#007AF5"/>
<path d="M7.53572 12.6641H5.71977H5.71875V17.8639H5.71977H7.53572H54.1559H55.9719V12.6641H54.1559H7.53572ZM13.7073 17.4106H12.6969L11.8949 14.3672L11.0563 17.4106L10.052 17.4166L8.90086 13.1372H9.81926L10.5725 16.4556L11.4416 13.1372H12.3966L13.2169 16.4373L13.9762 13.1372H14.9007L13.7073 17.4106ZM22.9497 17.59C21.6654 17.59 20.624 16.5486 20.624 15.2642C20.624 13.9799 21.6654 12.9385 22.9497 12.9385C24.2341 12.9385 25.2755 13.9799 25.2755 15.2642C25.2755 16.5486 24.2341 17.59 22.9497 17.59ZM33.4902 17.4106L32.5469 15.745H32.1429V17.4106H31.2854V13.1372H32.8895C33.2203 13.1372 33.5019 13.1952 33.7347 13.3116C33.9674 13.428 34.1423 13.585 34.2582 13.7832C34.374 13.9809 34.433 14.2025 34.433 14.4475C34.433 14.7291 34.3512 14.9832 34.188 15.2099C34.0244 15.4365 33.7814 15.5926 33.4592 15.6785L34.4818 17.4111H33.4902V17.4106ZM42.9867 17.4106H40.7215V13.1372H41.5789V16.731H42.9867V17.4106ZM52.5102 16.4032C52.3242 16.7239 52.0614 16.9714 51.7204 17.1468C51.3799 17.3226 50.9845 17.4106 50.5357 17.4106H49.042V13.1372H50.5357C50.9845 13.1372 51.3799 13.2252 51.7204 13.4005C52.0609 13.5764 52.3242 13.8259 52.5102 14.1507C52.6962 14.4754 52.7887 14.8515 52.7887 15.28C52.7887 15.7084 52.6962 16.0825 52.5102 16.4032Z" fill="#007AF5"/>
<path d="M33.3777 14.0064C33.2633 13.8981 33.09 13.8438 32.8572 13.8438H32.1406V15.0991H32.8572C33.09 15.0991 33.2633 15.0432 33.3777 14.9304C33.4915 14.8181 33.549 14.6625 33.549 14.4618C33.5485 14.2661 33.4915 14.1141 33.3777 14.0064Z" fill="#007AF5"/>
<path d="M50.5043 13.8594H49.8984V16.6822H50.5043C50.9536 16.6822 51.3002 16.5597 51.5451 16.3147C51.7901 16.0697 51.9126 15.7251 51.9126 15.2799C51.9126 14.8352 51.7901 14.4871 51.5451 14.2365C51.3002 13.9844 50.9536 13.8594 50.5043 13.8594Z" fill="#007AF5"/>
<path d="M23.5253 14.9409C23.4852 14.9627 23.4664 15.009 23.4821 15.0486C23.4979 15.0893 23.5441 15.1106 23.5894 15.0984L24.7288 14.7945C24.864 14.7574 24.9382 14.6105 24.8905 14.4885C24.8417 14.3625 24.6816 14.304 24.554 14.3732L23.5253 14.9409Z" fill="#007AF5"/>
<path d="M24.7757 15.0483L23.6048 15.1876C23.558 15.1926 23.5234 15.2297 23.5234 15.2735C23.5239 15.3162 23.558 15.3522 23.6037 15.3578L24.7686 15.5042C24.9125 15.5215 25.0395 15.4081 25.0385 15.2729C25.038 15.1418 24.915 15.0331 24.7757 15.0483Z" fill="#007AF5"/>
<path d="M57.1917 12.6641H56.4375V17.8639H57.1917V12.6641Z" fill="#007AF5"/>
<path d="M58.2207 12.6641H57.7109V17.8639H58.2207V12.6641Z" fill="#007AF5"/>
<path d="M58.9983 12.6641H58.8047V17.8639H58.9983V12.6641Z" fill="#007AF5"/>
<path d="M59.6917 12.6641H59.5469V17.8639H59.6917V12.6641Z" fill="#007AF5"/>
<path d="M5.25423 12.6641H4.5V17.8639H5.25423V12.6641Z" fill="#007AF5"/>
<path d="M3.97852 12.6641H3.46875V17.8639H3.97852V12.6641Z" fill="#007AF5"/>
<path d="M2.88114 12.6641H2.6875V17.8639H2.88114V12.6641Z" fill="#007AF5"/>
<path d="M2.14485 12.6641H2V17.8639H2.14485V12.6641Z" fill="#007AF5"/>
<path d="M13.215 16.4333L12.3946 13.1328H11.4391L10.5701 16.4511L9.81683 13.1328H8.89844L10.0496 17.4127L11.0534 17.4066L11.892 14.3633L12.6945 17.4066H13.7044L14.8983 13.1328H13.9743L13.215 16.4333Z" fill="white"/>
<path d="M34.1916 15.2054C34.3548 14.9788 34.4366 14.7246 34.4366 14.4431C34.4366 14.1981 34.3782 13.9765 34.2618 13.7788C34.1459 13.5811 33.9711 13.424 33.7383 13.3071C33.5055 13.1913 33.2239 13.1328 32.8931 13.1328H31.2891V17.4061H32.1465V15.7406H32.5505L33.4938 17.4061H34.4859L33.4633 15.6735C33.785 15.5881 34.028 15.4321 34.1916 15.2054ZM32.8631 15.0982H32.1465V13.8428H32.8631C33.0959 13.8428 33.2692 13.8972 33.3835 14.0055C33.4974 14.1137 33.5548 14.2657 33.5548 14.4614C33.5548 14.6616 33.4979 14.8176 33.3835 14.93C33.2687 15.0423 33.0959 15.0982 32.8631 15.0982Z" fill="white"/>
<path d="M41.5757 13.1328H40.7188V17.4066H42.984V16.7271H41.5757V13.1328Z" fill="white"/>
<path d="M51.7253 13.3961C51.3848 13.2207 50.9894 13.1328 50.5406 13.1328H49.0469V17.4061H50.5406C50.9894 17.4061 51.3848 17.3182 51.7253 17.1423C52.0658 16.967 52.3291 16.7195 52.5151 16.3988C52.7011 16.0781 52.7936 15.7035 52.7936 15.2751C52.7936 14.8466 52.7006 14.4705 52.5151 14.1457C52.3296 13.821 52.0658 13.5714 51.7253 13.3961ZM51.5505 16.3104C51.3055 16.5553 50.9589 16.6778 50.5096 16.6778H49.9038V13.855H50.5096C50.9589 13.855 51.3055 13.9801 51.5505 14.2316C51.7955 14.4827 51.9179 14.8303 51.9179 15.2751C51.9179 15.7208 51.7955 16.0654 51.5505 16.3104Z" fill="white"/>
<path d="M8.41454 10.3213C9.0346 9.97828 9.53471 9.5107 9.91539 8.9191C10.2961 8.32801 10.5192 7.67644 10.5853 6.96541V6.09682H5.93279V7.01522H9.38173C9.29076 7.87568 8.97209 8.55825 8.42674 9.06242C7.88089 9.56711 7.18612 9.8192 6.34243 9.8192C5.73864 9.8192 5.19482 9.68096 4.71148 9.40396C4.22712 9.12697 3.84645 8.73207 3.56996 8.21925C3.29297 7.70643 3.15422 7.11128 3.15422 6.43277C3.15422 5.75477 3.29297 5.15708 3.56996 4.6402C3.84645 4.12331 4.22712 3.72637 4.71148 3.44887C5.19533 3.17239 5.73864 3.03364 6.34243 3.03364C6.94623 3.03364 7.47582 3.17239 7.9307 3.44887C8.38557 3.72637 8.7327 4.11721 8.97259 4.62139H10.325C10.0023 3.79448 9.48745 3.15307 8.78048 2.6982C8.073 2.24332 7.26032 2.01562 6.34193 2.01562C5.53992 2.01562 4.80754 2.20418 4.1458 2.58028C3.48407 2.95689 2.96109 3.48191 2.57686 4.15584C2.19212 4.83028 2 5.58909 2 6.43277C2 7.27646 2.19212 8.03323 2.57686 8.7031C2.96109 9.37296 3.48407 9.89645 4.1458 10.2726C4.80754 10.6492 5.53992 10.8372 6.34193 10.8372C7.10378 10.8357 7.79449 10.6644 8.41454 10.3213Z" fill="#007AF5"/>
<path d="M19.1487 10.7571H20.278V7.49422L23.0942 2.10938H21.8414L19.7072 6.48891L17.5731 2.10938H16.3203L19.1487 7.49422V10.7571Z" fill="#007AF5"/>
<path d="M30.372 7.14658H32.0345C33.0439 7.14658 33.7945 6.90923 34.286 6.433C34.778 5.95729 35.0245 5.35959 35.0245 4.64043C35.0245 3.89585 34.7698 3.28799 34.2611 2.81634C33.7529 2.34469 33.0103 2.10938 32.034 2.10938H29.2422V10.7566H30.3715V7.14658H30.372ZM30.372 3.03997H32.0345C33.2588 3.03997 33.8708 3.57312 33.8708 4.64043C33.8708 5.14511 33.7218 5.53392 33.424 5.80685C33.1267 6.07977 32.6632 6.21649 32.0345 6.21649H30.372V3.03997Z" fill="#007AF5"/>
<path d="M45.4023 9.48745C45.0917 9.75631 44.6678 9.89099 44.1306 9.89099C43.5675 9.89099 43.1396 9.75275 42.8463 9.47525C42.5525 9.19876 42.3848 8.85722 42.3441 8.45215H41.1406C41.1488 8.9238 41.2809 9.33904 41.5376 9.69887C41.7942 10.0582 42.1475 10.3403 42.5988 10.5426C43.0491 10.7453 43.5599 10.8465 44.1311 10.8465C44.7263 10.8465 45.2432 10.7311 45.6818 10.4994C46.1199 10.2676 46.4508 9.9657 46.6744 9.59367C46.8975 9.22163 47.0093 8.82419 47.0093 8.40285C47.0093 7.85649 46.8858 7.42449 46.6373 7.10582C46.3888 6.78766 46.0914 6.55183 45.7443 6.39885C45.3967 6.24587 44.9377 6.09034 44.367 5.9333C43.8953 5.80115 43.5294 5.68324 43.2692 5.58007C43.0084 5.47639 42.7889 5.32544 42.6115 5.12672C42.4336 4.9285 42.3452 4.67235 42.3452 4.35774C42.3452 3.91964 42.4941 3.5781 42.7914 3.33414C43.0892 3.09018 43.474 2.9682 43.9456 2.9682C44.4498 2.9682 44.8554 3.09425 45.1613 3.34685C45.4673 3.59944 45.6411 3.89067 45.6828 4.22102H46.9234C46.8574 3.55116 46.5656 3.01395 46.0492 2.60837C45.5324 2.20279 44.8686 2 44.0574 2C43.4948 2 42.9967 2.09962 42.5627 2.29783C42.1287 2.49605 41.7912 2.77812 41.5513 3.14152C41.3109 3.50542 41.1914 3.9237 41.1914 4.39484C41.1914 4.93257 41.3134 5.36051 41.5574 5.67867C41.8013 5.99734 42.0951 6.23113 42.4382 6.38004C42.7812 6.52896 43.2381 6.67737 43.8094 6.82628C44.2724 6.95029 44.6404 7.06668 44.9133 7.17392C45.1862 7.28167 45.4134 7.43821 45.5959 7.64506C45.7778 7.85192 45.8683 8.12129 45.8683 8.45164C45.8673 8.87298 45.7123 9.21858 45.4023 9.48745Z" fill="#007AF5"/>
<path d="M55.7508 10.7571H56.8801V7.49422L59.6957 2.10938H58.4429L56.3088 6.48891L54.1747 2.10938H52.9219L55.7508 7.49422V10.7571Z" fill="#007AF5"/>
<path d="M22.9507 12.9375C21.6664 12.9375 20.625 13.9789 20.625 15.2632C20.625 16.5476 21.6664 17.5889 22.9507 17.5889C24.2351 17.5889 25.2764 16.5476 25.2764 15.2632C25.2764 13.9789 24.2351 12.9375 22.9507 12.9375ZM24.4414 13.7969C24.5375 13.8925 24.5268 14.0622 24.4124 14.1512L23.4813 14.8668C23.4452 14.8953 23.3954 14.8937 23.3649 14.8632C23.3339 14.8322 23.3329 14.7814 23.3624 14.7453L24.0968 13.8229C24.1847 13.7136 24.3489 13.7044 24.4414 13.7969ZM23.7675 13.3375C23.8925 13.3888 23.9479 13.5499 23.8762 13.676L23.2897 14.6935C23.2669 14.7336 23.2206 14.7509 23.181 14.7346C23.1408 14.7179 23.12 14.6716 23.1332 14.6264L23.4585 13.493C23.4981 13.3588 23.6465 13.2877 23.7675 13.3375ZM22.965 13.1713C23.0956 13.1733 23.2038 13.2973 23.1865 13.4366L23.0366 14.6061C23.031 14.6523 22.9939 14.6869 22.9502 14.6864C22.9075 14.6859 22.8714 14.6508 22.8669 14.6056L22.7312 13.4391C22.7154 13.2953 22.8298 13.1687 22.965 13.1713ZM22.165 13.3238C22.2895 13.2714 22.443 13.3466 22.4816 13.4864L22.7871 14.6203C22.7993 14.6645 22.7789 14.7097 22.7393 14.7265C22.6991 14.7433 22.6514 14.725 22.629 14.6838L22.0572 13.6526C21.9901 13.5291 22.0445 13.3741 22.165 13.3238ZM21.489 13.7654C21.5835 13.675 21.7472 13.6872 21.8336 13.798L22.5497 14.7346C22.5782 14.7718 22.5761 14.8226 22.5446 14.8526C22.5136 14.882 22.4638 14.8825 22.4282 14.8536L21.5114 14.1202C21.3985 14.0292 21.3914 13.8589 21.489 13.7654ZM21.0275 14.4394C21.0804 14.3194 21.2364 14.2681 21.3584 14.3377L22.3784 14.9288C22.4191 14.9522 22.4364 15 22.4191 15.0396C22.4018 15.0787 22.3561 15.0986 22.3119 15.0853L21.1841 14.7585C21.0453 14.7174 20.9731 14.5634 21.0275 14.4394ZM20.8588 15.249C20.8608 15.1184 20.9848 15.0101 21.1241 15.0274L22.2936 15.1773C22.3398 15.1829 22.3744 15.22 22.3739 15.2637C22.3734 15.3064 22.3383 15.3425 22.2931 15.3471L21.1266 15.4828C20.9823 15.4985 20.8563 15.3842 20.8588 15.249ZM21.0108 16.049C20.9584 15.9244 21.0336 15.771 21.1734 15.7323L22.3073 15.4269C22.3515 15.4147 22.3967 15.435 22.4135 15.4747C22.4303 15.5148 22.412 15.5626 22.3708 15.5849L21.3396 16.1567C21.2166 16.2238 21.0616 16.1694 21.0108 16.049ZM21.4529 16.7249C21.3625 16.6304 21.3747 16.4667 21.4855 16.3803L22.4222 15.6642C22.4593 15.6358 22.5101 15.6378 22.5401 15.6693C22.5695 15.7003 22.57 15.7501 22.5411 15.7857L21.8077 16.7026C21.7167 16.8154 21.5464 16.8225 21.4529 16.7249ZM22.1269 17.1864C22.0069 17.1336 21.9556 16.9775 22.0252 16.8556L22.6163 15.8355C22.6397 15.7948 22.6875 15.7776 22.7271 15.7948C22.7662 15.8121 22.7861 15.8579 22.7728 15.9021L22.446 17.0299C22.4049 17.1686 22.2504 17.2408 22.1269 17.1864ZM22.9441 17.3552C22.8089 17.3562 22.6956 17.2291 22.7129 17.0853L22.8592 15.9204C22.8648 15.8746 22.9004 15.8406 22.9436 15.8401C22.9873 15.8396 23.0244 15.8746 23.0295 15.9214L23.1688 17.0924C23.1835 17.2311 23.0747 17.3541 22.9441 17.3552ZM23.7283 17.2047C23.6064 17.252 23.4595 17.1783 23.4224 17.0431L23.1184 15.9036C23.1062 15.8584 23.1276 15.8121 23.1683 15.7964C23.2084 15.7806 23.2541 15.7994 23.276 15.8396L23.8432 16.8677C23.9128 16.9953 23.8544 17.1554 23.7283 17.2047ZM24.417 16.7544C24.3215 16.8505 24.1517 16.8398 24.0628 16.7254L23.3472 15.7943C23.3187 15.7583 23.3202 15.7084 23.3507 15.6779C23.3817 15.6469 23.4325 15.6459 23.4686 15.6754L24.3911 16.4098C24.5004 16.4972 24.5095 16.6614 24.417 16.7544ZM24.8765 16.08C24.8251 16.205 24.664 16.2604 24.538 16.1887L23.5205 15.6022C23.4803 15.5794 23.463 15.5331 23.4793 15.4935C23.4961 15.4533 23.5423 15.4325 23.5876 15.4457L24.7209 15.771C24.8551 15.8106 24.9263 15.959 24.8765 16.08ZM25.0427 15.2698C25.0437 15.405 24.9166 15.5184 24.7728 15.5011L23.6079 15.3547C23.5621 15.3491 23.5281 15.3135 23.5276 15.2703C23.5271 15.2266 23.5621 15.1895 23.6089 15.1844L24.7799 15.0452C24.9186 15.0304 25.0416 15.1392 25.0427 15.2698ZM24.8917 14.4856C24.939 14.6076 24.8653 14.7545 24.7301 14.7916L23.5906 15.0955C23.5454 15.1077 23.4991 15.0864 23.4834 15.0457C23.4676 15.0055 23.4864 14.9598 23.5266 14.9379L24.5547 14.3707C24.6828 14.3011 24.8429 14.3596 24.8917 14.4856Z" fill="white"/>
</svg>
