<svg width="36" height="35" viewBox="0 0 36 35" fill="none" xmlns="http://www.w3.org/2000/svg">
<g clip-path="url(#clip0_174_11672)">
<path d="M33.4038 8.46741C34.3049 9.82279 34.9126 11.3026 35.3606 12.8475C35.6509 13.8638 35.8423 14.9044 35.9325 15.9555C35.9381 16.0205 35.9219 16.0923 36.0028 16.1327V16.8165C35.9452 16.9711 35.9452 17.1406 36.0028 17.2952V17.7055C35.9437 17.8833 35.9437 18.0748 36.0028 18.2526V18.9364C35.8347 19.316 35.8622 19.729 35.7989 20.125C35.4162 22.3899 34.6734 24.5235 33.4073 26.4731C33.1963 26.3329 33.2273 26.1175 33.2266 25.9158C33.2266 24.1638 33.2371 22.4117 33.221 20.6604C33.2111 19.6251 33.2786 18.5911 33.2561 17.5571C33.1949 14.7479 33.2224 11.9386 33.2188 9.12937C33.2153 8.89618 33.1654 8.6411 33.4038 8.46741Z" fill="#4EACFD"/>
<path d="M0 15.9959C0.168109 15.6171 0.12872 15.204 0.2075 14.8101C0.366465 14.0128 0.480414 13.2065 0.779353 12.4413C0.953089 12.3811 0.975598 12.5097 1.00373 12.6184C1.02848 12.7415 1.03676 12.8673 1.02835 12.9925C1.02835 15.9973 1.02835 19.0021 1.02835 22.0069C1.03673 22.1319 1.02845 22.2574 1.00373 22.3803C0.975598 22.487 0.953089 22.6176 0.779353 22.5581C0.480414 21.7929 0.366465 20.9853 0.2075 20.1893C0.12872 19.7954 0.168813 19.3816 0 19.0035V18.7299C0.0429065 18.6923 0.0344666 18.6417 0.0358734 18.5932C0.0372801 18.5446 0.0429065 18.494 0 18.4564V16.4732C0.025527 16.4448 0.0395955 16.4084 0.0395955 16.3707C0.0395955 16.3329 0.025527 16.2965 0 16.2681V15.9959Z" fill="#03EFFD"/>
<path d="M18.9661 2.74018L17.859 2.72376C17.7345 2.59383 17.7542 2.43039 17.7528 2.27448C17.7486 1.82177 17.7352 1.36906 17.7528 0.918408C17.7697 0.563491 17.7458 0.238663 17.4335 0H18.2072C18.3663 0.0560572 18.5405 0.0560572 18.6996 0H19.1919C19.2681 0.0872715 19.3071 0.199566 19.301 0.313887C19.3101 1.01551 19.3164 1.71714 19.301 2.41877C19.2953 2.60956 19.2834 2.8366 18.9661 2.74018Z" fill="#38BFFD"/>
<path d="M16.597 32.2085L18.2106 32.2769C18.2404 32.3043 18.2642 32.3372 18.2807 32.3738C18.2971 32.4103 18.3058 32.4497 18.3063 32.4896C18.314 33.2808 18.3654 34.0727 18.2795 34.8625C18.2505 34.9227 18.2008 34.9711 18.1389 34.9993H17.7872C17.6043 34.9418 17.4074 34.9418 17.2245 34.9993H16.8728C16.7532 34.8673 16.7666 34.7045 16.7652 34.5473C16.7652 34.0262 16.756 33.5051 16.7652 32.9847C16.7757 32.7091 16.7511 32.4478 16.597 32.2085Z" fill="#36C2FD"/>
<path d="M17.437 -0.000732422C17.8731 0.0355115 17.878 0.313154 17.8667 0.650974C17.8421 1.34098 17.859 2.03235 17.859 2.72303L16.5929 2.788C16.4804 2.68269 16.4839 2.54386 16.4825 2.40983C16.4769 1.74513 16.4825 1.08111 16.4825 0.417098C16.4743 0.270105 16.5129 0.124229 16.5929 -0.000732422H16.8039C16.8126 0.00920531 16.8234 0.0171912 16.8355 0.0226684C16.8476 0.0281456 16.8609 0.0309828 16.8743 0.0309828C16.8877 0.0309828 16.9009 0.0281456 16.913 0.0226684C16.9252 0.0171912 16.936 0.00920531 16.9446 -0.000732422H17.437Z" fill="#35C2FD"/>
<path d="M18.2107 34.931V32.277L19.033 32.2605C19.455 32.2099 19.5626 32.2742 19.5781 32.6483C19.6055 33.302 19.5914 33.9565 19.5837 34.6109C19.5889 34.6673 19.582 34.7241 19.5634 34.7778C19.5449 34.8315 19.5152 34.8808 19.4761 34.9228C19.4529 34.9494 19.4297 34.9754 19.4057 35.0014H18.7031C18.549 34.907 18.3654 35.0192 18.2107 34.931Z" fill="#39BFFD"/>
<path d="M16.5971 32.2085C16.8193 32.2611 16.8876 32.387 16.8819 32.6188C16.863 33.412 16.8749 34.206 16.8749 34.9993H16.4529C16.1434 34.8208 15.772 34.9357 15.4534 34.8003C15.5909 34.6312 15.6589 34.4184 15.644 34.2033C15.6363 33.6603 15.6384 33.1173 15.644 32.5743C15.644 32.4184 15.6222 32.2536 15.7502 32.125C16.0372 32.1045 16.3115 32.188 16.5971 32.2085Z" fill="#32C5FD"/>
<path d="M18.9661 2.74018C19.1876 2.75249 19.1975 2.61572 19.1968 2.45159C19.1926 1.63098 19.1968 0.817198 19.1968 0H19.4781C19.7201 0.131299 20.0007 0.0724885 20.2519 0.147028C20.4017 0.219516 20.4235 0.356285 20.4256 0.494422C20.4383 1.18648 20.4361 1.87853 20.4256 2.57058C20.4256 2.68342 20.4129 2.79899 20.3159 2.88242L18.9661 2.74018Z" fill="#3CBCFD"/>
<path d="M16.5928 -0.000732422V2.788L15.4674 2.92819C15.357 2.82151 15.3577 2.682 15.357 2.54728C15.3514 1.89079 15.3528 1.23498 15.357 0.578487C15.357 0.441717 15.3703 0.304948 15.4646 0.194165C15.8043 0.0614981 16.1898 0.164759 16.5197 -0.000732422H16.5928Z" fill="#32C5FD"/>
<path d="M35.9993 18.2512C35.9461 18.1693 35.9178 18.0745 35.9178 17.9776C35.9178 17.8808 35.9461 17.786 35.9993 17.7041V18.2512Z" fill="#64B5FD"/>
<path d="M17.226 34.9993C17.3101 34.9475 17.4077 34.9199 17.5073 34.9199C17.6069 34.9199 17.7045 34.9475 17.7887 34.9993H17.226Z" fill="#4BC8FD"/>
<path d="M18.2107 34.9309C18.3739 34.959 18.5547 34.8666 18.7031 34.9993H18.1404L18.2107 34.9309Z" fill="#4EC6FD"/>
<path d="M35.9993 17.2945C35.9454 17.2257 35.9163 17.1416 35.9163 17.0551C35.9163 16.9687 35.9454 16.8846 35.9993 16.8158V17.2945Z" fill="#5DB2FD"/>
<path d="M0 16.2687C0.105508 16.3371 0.0879233 16.4054 0 16.4738V16.2687Z" fill="#88F8FE"/>
<path d="M0.0633261 18.5958C0.0696566 18.6519 0.074582 18.7066 0.00354004 18.7326V18.5958C0.0218281 18.5616 0.0415212 18.5623 0.0633261 18.5958Z" fill="#8FF9FE"/>
<path d="M0.0633261 18.5959H0.00354004V18.4591C0.0288536 18.471 0.0488654 18.4914 0.0598616 18.5166C0.0708578 18.5417 0.0720891 18.5699 0.0633261 18.5959Z" fill="#71F7FD"/>
<path d="M19.4127 18.8735C19.4127 20.4512 19.4127 22.0288 19.4043 23.6065C19.4043 24.3245 18.9584 24.8558 18.2901 24.9653C18.1495 24.8422 18.1684 24.6753 18.1677 24.5187C18.1645 19.8398 18.1645 15.1609 18.1677 10.4821C18.1677 10.3255 18.1509 10.1593 18.2859 10.0334C18.9682 10.1579 19.4008 10.6749 19.4043 11.3943C19.4113 12.9733 19.4106 14.553 19.4127 16.132C19.4651 17.0451 19.4651 17.9604 19.4127 18.8735Z" fill="#39BFFD"/>
<path d="M18.286 10.03L18.2902 24.9597V24.955C18.0955 24.9977 17.8934 24.9977 17.6986 24.955C17.6074 24.9553 17.5172 24.9372 17.4335 24.9019C17.3499 24.8666 17.2746 24.8148 17.2126 24.7498C17.189 24.6373 17.1787 24.5226 17.1817 24.4079C17.1859 19.7969 17.1859 15.1855 17.1817 10.5736C17.1789 10.459 17.1883 10.3444 17.2098 10.2317C17.3574 10.1131 17.5333 10.0325 17.7214 9.99727C17.9094 9.96202 18.1036 9.97327 18.286 10.03Z" fill="#36C1FD"/>
<path d="M33.4038 8.46744C33.3488 8.6527 33.3235 8.84504 33.3285 9.03777C33.3313 14.6481 33.3313 20.2581 33.3285 25.8679C33.3215 26.072 33.3479 26.2758 33.4066 26.4718L33.3229 26.5928C33.1956 26.746 33.121 26.6373 33.0654 26.534C32.9951 26.4102 33.0092 26.268 33.0085 26.1319C33.0085 24.2643 33.0085 22.3961 33.0035 20.5285C33.0035 20.2939 33.1133 20.0559 32.9909 19.8241C33.0378 19.505 33.0847 19.1845 33.1316 18.8626C33.1906 18.7258 33.1154 18.5754 33.1829 18.4414V16.5601C33.1161 16.4233 33.1899 16.2729 33.1316 16.1361C32.9155 14.0475 32.2603 12.0243 31.2064 10.1921C31.1466 8.90647 31.1881 7.62016 31.1832 6.33384C31.1832 6.14236 31.1874 5.942 31.3625 5.80249C32.1525 6.60627 32.8381 7.50128 33.4038 8.46744Z" fill="#4CADFD"/>
<path d="M1.88645 9.7017C2.08635 9.2736 2.32158 8.86195 2.58983 8.47077C2.75583 8.40239 2.79663 8.51932 2.82969 8.63147C2.85701 8.75381 2.86648 8.87927 2.85782 9.00417C2.8529 11.1631 2.88104 13.322 2.83883 15.4809C2.8318 15.8406 2.8937 16.2037 2.82125 16.5627V18.4358C2.85923 19.0567 2.92042 19.677 2.92394 20.2986C2.93519 22.1368 2.92886 23.9756 2.92746 25.8138C2.92746 26.0292 2.93379 26.2474 2.84165 26.4505C2.791 26.562 2.72559 26.6659 2.58913 26.5271C2.32122 26.1357 2.08601 25.7241 1.88574 25.2962C1.9217 25.0601 1.93418 24.8213 1.92302 24.5829C1.92302 19.8835 1.92302 15.1841 1.92302 10.4847C1.92584 10.2228 1.90755 9.96224 1.88645 9.7017Z" fill="#08E9FD"/>
<path d="M32.9881 19.8241C33.2075 19.8925 33.1119 20.071 33.1126 20.1988C33.1189 22.2299 33.1126 24.2602 33.1217 26.2912C33.1217 26.4095 33.0113 26.6455 33.3201 26.5928C33.1873 26.9201 32.9847 27.2163 32.7257 27.462C32.4737 27.6874 32.1455 27.8152 31.8031 27.8213C31.4608 27.8275 31.1279 27.7115 30.8675 27.4954C30.6071 27.2792 30.4371 26.9778 30.3896 26.6481C30.3422 26.3184 30.4205 25.9832 30.6099 25.7059C31.4277 24.5 32.0692 23.1895 32.5161 21.812C32.7246 21.1619 32.8824 20.4973 32.9881 19.8241Z" fill="#4CADFD"/>
<path d="M31.364 5.80239C31.2114 6.78372 31.3246 7.77119 31.2936 8.75525C31.2817 9.12931 31.2936 9.50748 31.2936 9.87881C31.2936 9.98823 31.3295 10.1106 31.2113 10.192C30.4145 8.88933 29.4423 7.69595 28.3204 6.64353C28.4161 5.69093 28.3535 4.73491 28.3739 3.78094C28.3739 3.61408 28.3436 3.4356 28.4822 3.29541C29.5542 4.00148 30.5235 4.84473 31.364 5.80239Z" fill="#4BAEFD"/>
<path d="M17.2076 10.2419C17.3391 10.3329 17.2948 10.4683 17.2948 10.588C17.2948 15.1925 17.2948 19.7994 17.2948 24.4085C17.2948 24.5275 17.3398 24.6636 17.2104 24.7552C16.7427 24.4947 16.5978 24.0673 16.5957 23.5824C16.5893 22.1272 16.583 20.6727 16.602 19.2181C16.6062 18.9295 16.5183 18.8304 16.2419 18.855C16.1392 18.7586 16.1342 18.6314 16.1328 18.5062C16.1258 17.8352 16.1258 17.1641 16.1328 16.493C16.1328 16.3679 16.1392 16.2407 16.2419 16.1435C16.5183 16.1688 16.6062 16.0697 16.602 15.7811C16.583 14.3156 16.5872 12.8495 16.5971 11.384C16.6006 10.9121 16.7476 10.4929 17.2076 10.2419Z" fill="#34C3FD"/>
<path d="M2.58704 26.5271C2.64893 26.5319 2.72208 26.5852 2.74389 26.4676C2.78429 26.2916 2.80783 26.1123 2.81423 25.9321C2.81141 23.4333 2.81141 20.9346 2.81423 18.4358C2.91903 19.1196 2.9739 19.8096 3.11739 20.4873C3.27073 21.2115 3.51691 21.9097 3.72511 22.6182C3.80811 24.2191 3.74692 25.8213 3.75747 27.4229C3.75747 27.6007 3.80389 27.8284 3.52395 27.8852C3.1716 27.4599 2.85811 27.0054 2.58704 26.5271Z" fill="#0BE7FD"/>
<path d="M2.81918 16.5628C2.64826 13.9976 2.78823 11.4298 2.73829 8.86401C2.73829 8.72724 2.83888 8.52824 2.58777 8.47079C2.82997 8.03635 3.1125 7.62433 3.43183 7.23987C3.68364 7.31236 3.61964 7.52366 3.62104 7.68642C3.63183 8.75186 3.63183 9.81729 3.62104 10.8827C3.61682 11.4496 3.64847 12.0145 3.6534 12.5807C3.38892 13.4608 3.11531 14.3396 2.98518 15.2518C2.9268 15.6874 2.87686 16.1251 2.81918 16.5628Z" fill="#0BE7FD"/>
<path d="M24.2597 1.09961C24.8703 1.28987 25.4595 1.53984 26.0182 1.84569C26.0805 1.9148 26.1163 2.00275 26.1195 2.09461C26.1371 2.91522 26.1399 3.72969 26.1195 4.54689C26.1153 4.69254 26.0899 4.85325 25.8754 4.85735L24.1169 3.96835C24.1873 3.23458 24.1359 2.49945 24.1542 1.76499C24.1577 1.53727 24.1373 1.3075 24.2597 1.09961Z" fill="#44B4FD"/>
<path d="M4.14289 6.35296C4.44618 5.96205 4.78442 5.59797 5.15365 5.26496C5.36467 5.21231 5.34497 5.38327 5.36467 5.48858C5.39913 5.6445 5.38085 5.80657 5.38225 5.96727C5.38718 6.96911 5.37381 7.97095 5.38788 8.97278C5.38788 9.08494 5.40265 9.20187 5.34427 9.30787L4.3729 10.9409C4.08169 10.8643 4.11967 10.6181 4.11475 10.4205C4.09505 9.65116 4.10139 8.88183 4.10842 8.1125C4.11405 7.52782 4.07255 6.93971 4.14289 6.35296Z" fill="#10E2FD"/>
<path d="M5.20719 29.802C4.85549 29.4533 4.49958 29.1127 4.20557 28.7161C4.29841 27.3873 4.22104 26.0573 4.25058 24.7279C4.2548 24.5316 4.20416 24.3073 4.43909 24.1808C4.76265 24.7137 5.08597 25.2469 5.40906 25.7803C5.49909 26.3219 5.44493 26.8669 5.45267 27.4106C5.46111 28.0691 5.46322 28.7277 5.45267 29.3855C5.44493 29.5551 5.47447 29.7658 5.20719 29.802Z" fill="#10E2FD"/>
<path d="M24.2598 1.09962C24.3343 1.37794 24.2436 1.65422 24.2527 1.93323C24.2724 2.51108 24.2612 3.08961 24.2569 3.66815C24.2569 3.78167 24.3118 3.9328 24.1163 3.96494L22.6392 3.41786C22.706 2.60818 22.6617 1.79646 22.6729 0.985414C22.6729 0.863005 22.6469 0.737177 22.7116 0.620239C23.2429 0.729267 23.7615 0.889864 24.2598 1.09962Z" fill="#41B7FD"/>
<path d="M28.4759 3.2955C28.4759 4.23465 28.4759 5.17358 28.4759 6.11227C28.4759 6.30511 28.4689 6.49591 28.3134 6.64362L27.1268 5.68076C27.0684 4.74252 27.1057 3.8036 27.1071 2.86536C27.1071 2.72859 27.1275 2.59182 27.283 2.52344C27.7098 2.73541 28.1101 2.99447 28.4759 3.2955Z" fill="#49B1FD"/>
<path d="M5.34785 9.30652C5.29144 9.12248 5.26556 8.93088 5.27118 8.73892C5.27634 7.68489 5.27634 6.6313 5.27118 5.57818C5.27118 5.4674 5.34152 5.31763 5.15442 5.26498C5.44832 4.94114 5.77153 4.64361 6.12017 4.37598C6.40926 4.41838 6.36143 4.64952 6.36424 4.82526C6.37761 5.68691 6.36916 6.54924 6.36987 7.41158C6.36987 7.61673 6.39097 7.82188 6.34033 8.02088L5.34785 9.30652Z" fill="#14DFFD"/>
<path d="M5.20715 29.8021C5.38722 29.7166 5.3422 29.5545 5.3422 29.4129C5.3422 28.3338 5.3422 27.2549 5.3422 26.1763C5.3422 26.0395 5.32884 25.9028 5.40762 25.7797L6.40572 27.053C6.48309 27.5043 6.43034 27.9584 6.43597 28.4104C6.44511 29.0567 6.45144 29.7029 6.42964 30.3491C6.42471 30.4859 6.48802 30.7177 6.19541 30.6911C5.83598 30.4257 5.52368 30.1118 5.20715 29.8021Z" fill="#14DFFD"/>
<path d="M23.9785 16.1436C24.9681 16.0328 25.4521 16.5334 25.6378 16.9991C25.7189 17.201 25.7494 17.4187 25.727 17.6343C25.7046 17.8499 25.6297 18.0573 25.5087 18.2393C25.3877 18.4213 25.2239 18.5727 25.0308 18.6811C24.8378 18.7894 24.621 18.8517 24.3984 18.8626C24.2577 18.8708 24.117 18.8585 23.9764 18.8551C23.8737 18.7587 23.8687 18.6315 23.8673 18.5063C23.8603 17.8352 23.8603 17.1642 23.8673 16.4931C23.8687 16.3679 23.8737 16.2407 23.9785 16.1436Z" fill="#43B5FD"/>
<path d="M27.2843 2.52276C27.1992 2.65611 27.214 2.80451 27.214 2.95222C27.214 3.74548 27.214 4.53943 27.214 5.33337C27.214 5.45236 27.2604 5.58708 27.1331 5.68077L25.8712 4.85468C26.0534 4.77399 26.0119 4.6126 26.0119 4.46899C26.0119 3.59367 26.0119 2.71834 26.0119 1.84302C26.4608 2.02274 26.8876 2.25074 27.2843 2.52276Z" fill="#47B2FD"/>
<path d="M19.4127 18.8735C19.3347 18.8208 19.3354 18.7402 19.3361 18.6601C19.3361 17.8888 19.3361 17.1172 19.3361 16.3453C19.3361 16.2653 19.3361 16.1853 19.4134 16.132L20.7421 16.147C20.8448 16.2441 20.8505 16.3713 20.8519 16.4958C20.858 17.1673 20.858 17.8386 20.8519 18.5097C20.8519 18.6348 20.8448 18.762 20.7421 18.8585L19.4127 18.8735Z" fill="#3CBCFD"/>
<path d="M4.14297 6.35291C4.27451 6.46027 4.21894 6.60661 4.21965 6.73586C4.22387 7.95926 4.21965 9.18335 4.21965 10.4074C4.21965 10.601 4.21964 10.7924 4.37439 10.9436L3.65764 12.5821C3.56021 12.3513 3.51119 12.1039 3.51344 11.8545C3.51766 10.4444 3.51766 9.03427 3.51344 7.62418C3.51344 7.49493 3.56831 7.34722 3.43396 7.24122C3.63778 6.92189 3.87542 6.62416 4.14297 6.35291Z" fill="#0DE5FD"/>
<path d="M7.85193 3.06573C8.1862 2.80202 8.55033 2.57626 8.93725 2.39282C9.2798 2.34837 9.23901 2.6096 9.24464 2.79082C9.26644 3.44663 9.25589 4.10313 9.25167 4.75962C9.25167 5.00512 9.30231 5.26088 9.14827 5.48723L8.09319 6.29691C7.88217 6.19023 7.91313 5.99328 7.91102 5.81822C7.90257 5.14873 7.90609 4.47924 7.91102 3.80976C7.91381 3.56054 7.89403 3.31157 7.85193 3.06573Z" fill="#1DD7FD"/>
<path d="M26.2793 29.9976C26.9088 29.8321 27.5496 30.1235 27.8471 30.7109C27.9905 30.9933 28.028 31.3154 27.9531 31.6218C27.8782 31.9282 27.6957 32.1995 27.437 32.389C27.1263 32.61 26.7902 32.795 26.4354 32.9402C26.2947 32.8828 26.2673 32.7563 26.2666 32.6325C26.2596 31.7544 26.2293 30.8757 26.2793 29.9976Z" fill="#47B2FD"/>
<path d="M19.4767 34.9207C19.4767 34.1876 19.4669 33.4538 19.4816 32.7207C19.488 32.4007 19.3986 32.2154 19.0336 32.2585L20.7217 32.0492C20.9327 32.0636 20.9095 32.2304 20.913 32.3528C20.9306 33.0462 20.9271 33.7403 20.913 34.4338C20.913 34.5705 20.8912 34.7073 20.74 34.7812C20.3249 34.8692 19.9016 34.916 19.4767 34.9207Z" fill="#3CBCFD"/>
<path d="M4.43911 24.1822C4.3526 24.3149 4.35822 24.4626 4.35893 24.6117C4.35893 25.8531 4.35893 27.0943 4.35893 28.3352C4.35893 28.4809 4.39128 28.6409 4.20559 28.7161C3.93549 28.474 3.73502 28.1786 3.52893 27.8866C3.70126 27.7936 3.65484 27.6322 3.65484 27.49C3.65484 26.0101 3.65484 24.5301 3.65484 23.0498C3.65484 22.9021 3.64288 22.753 3.72939 22.6196L4.43911 24.1822Z" fill="#0EE5FD"/>
<path d="M13.076 0.683161C13.4597 0.537417 13.8619 0.44287 14.2717 0.4021C14.418 0.493051 14.4441 0.640763 14.4476 0.789158C14.4652 1.46959 14.4581 2.15001 14.4518 2.83044C14.4573 2.945 14.4181 3.05736 14.3421 3.14501L13.0056 3.54233C12.9128 3.23049 12.9733 2.91182 12.9655 2.59725C12.955 2.10967 12.9606 1.62208 12.9655 1.1345C12.9691 0.976532 12.9585 0.813776 13.076 0.683161Z" fill="#2CCAFD"/>
<path d="M20.3208 2.88236C20.3208 2.09138 20.3208 1.29971 20.3208 0.50736C20.3208 0.382899 20.3279 0.257756 20.2505 0.146973C20.7005 0.183668 21.1472 0.252235 21.5869 0.352127C21.6868 0.449917 21.6952 0.576429 21.6959 0.702257C21.7016 1.36149 21.71 2.02208 21.691 2.68131C21.6854 2.86937 21.7121 3.12718 21.3696 3.07589L20.3208 2.88236Z" fill="#3EBBFD"/>
<path d="M12.6356 34.1869C12.2759 34.1155 11.9274 33.9987 11.5988 33.8395C11.5205 33.7399 11.483 33.6157 11.4933 33.4908C11.4933 32.7693 11.4856 32.0479 11.4933 31.3264C11.4835 31.1788 11.5203 31.0318 11.5988 30.9052L12.7946 31.3838C12.8945 31.4331 12.9071 31.5206 12.9057 31.6164C12.8959 32.3754 12.9177 33.1352 12.8923 33.8943C12.8916 34.0413 12.8973 34.2403 12.6356 34.1869Z" fill="#28CEFD"/>
<path d="M7.85185 3.06567C8.06286 3.09713 8.01362 3.25647 8.01433 3.38435C8.01433 4.21317 8.01433 5.04154 8.01433 5.86945C8.01433 6.01716 8.00448 6.16555 8.08959 6.2989L7.10485 7.19611C7.04985 7.16272 7.00505 7.11562 6.97512 7.0597C6.94518 7.00378 6.9312 6.94108 6.93463 6.87812C6.92056 5.81542 6.87555 4.75273 6.95714 3.69071C7.23134 3.45163 7.53132 3.24207 7.85185 3.06567Z" fill="#1ADAFD"/>
<path d="M26.2791 29.9977C26.4079 30.0886 26.3643 30.2227 26.365 30.3396C26.3685 31.0747 26.365 31.8092 26.365 32.5443C26.365 32.6811 26.3516 32.8179 26.4353 32.9382C26.0597 33.1676 25.6586 33.3548 25.2395 33.4962C25.2053 33.4652 25.1785 33.4273 25.161 33.3851C25.1435 33.3429 25.1358 33.2975 25.1383 33.2521C25.1326 32.3501 25.0946 31.4481 25.1565 30.5468C25.5216 30.3444 25.8466 30.0674 26.2791 29.9977Z" fill="#45B4FD"/>
<path d="M22.9135 31.4905L23.9685 31.1007C24.1838 31.1007 24.207 31.2648 24.2119 31.4091C24.2351 32.1566 24.2302 32.904 24.2119 33.6508C24.2173 33.7128 24.2048 33.7751 24.176 33.8308C24.1472 33.8864 24.1032 33.9332 24.0487 33.966C23.6882 34.1223 23.3107 34.2384 22.9233 34.3121C22.8087 34.2067 22.8136 34.0652 22.8122 33.9298C22.8066 33.2459 22.808 32.5621 22.8122 31.8782C22.8034 31.7419 22.8388 31.6063 22.9135 31.4905Z" fill="#42B7FD"/>
<path d="M21.3682 3.07665C21.6059 3.05545 21.5855 2.88448 21.5855 2.72446V0.354248C21.9682 0.409251 22.3449 0.498297 22.7109 0.620265C22.766 0.721206 22.7904 0.835285 22.7813 0.949195C22.7813 1.66587 22.7813 2.38254 22.7813 3.09921C22.7813 3.22641 22.7869 3.3536 22.6406 3.41789L21.3682 3.07665Z" fill="#3FB9FD"/>
<path d="M24.0488 33.966C24.1046 33.8653 24.129 33.751 24.1191 33.6371C24.1191 32.9088 24.1191 32.1805 24.1191 31.4522C24.1191 31.3154 24.1402 31.1725 23.9742 31.1007L25.1616 30.5488C25.2875 30.6418 25.2417 30.7759 25.2424 30.8908C25.2424 31.7586 25.2424 32.6264 25.2424 33.4948C24.8636 33.6942 24.4633 33.8522 24.0488 33.966Z" fill="#43B5FD"/>
<path d="M8.84366 32.5504C8.48933 32.3858 8.15737 32.1791 7.85541 31.935C7.81109 30.9536 7.83501 29.971 7.84556 28.9889C7.84556 28.8522 7.88214 28.7188 8.01719 28.6375L8.86125 29.309C8.91877 29.3571 8.96439 29.4172 8.99471 29.4848C9.02504 29.5524 9.03928 29.6258 9.03639 29.6995C9.04413 30.5358 9.04765 31.3715 9.03217 32.2071C9.03217 32.3384 9.06664 32.5197 8.84366 32.5504Z" fill="#1DD8FD"/>
<path d="M12.654 16.1436H13.8497C13.9524 16.2407 13.958 16.3679 13.9588 16.4923C13.9658 17.1639 13.9658 17.8352 13.9588 18.5062C13.9588 18.6314 13.9524 18.7586 13.8497 18.855H12.654C12.5513 18.7586 12.5464 18.6314 12.5449 18.5062C12.5379 17.8352 12.5379 17.1641 12.5449 16.493C12.5485 16.3679 12.5534 16.2407 12.654 16.1436Z" fill="#2BCBFD"/>
<path d="M13.8496 18.855V16.1436H15.0454C15.1481 16.2407 15.1537 16.3679 15.1551 16.4923C15.1612 17.1639 15.1612 17.8352 15.1551 18.5062C15.1551 18.6314 15.1481 18.7586 15.0454 18.855H13.8496Z" fill="#2EC8FD"/>
<path d="M15.0454 18.855V16.1436H16.2412V18.855H15.0454Z" fill="#31C6FD"/>
<path d="M23.9784 16.1436V18.855H22.7827C22.6807 18.7586 22.675 18.6314 22.6736 18.5062C22.6675 17.8352 22.6675 17.1641 22.6736 16.493C22.6736 16.3679 22.6807 16.2407 22.7827 16.1436H23.9784Z" fill="#41B7FD"/>
<path d="M13.0759 0.683105C13.0759 1.50372 13.0759 2.32639 13.0759 3.15111C13.0759 3.28788 13.0921 3.42465 13.0056 3.54364L12.0209 3.90334C11.8 3.78641 11.8478 3.57578 11.8415 3.39114C11.8141 2.62387 11.8858 1.85454 11.793 1.08863C12.2027 0.904836 12.6334 0.76872 13.0759 0.683105Z" fill="#29CDFD"/>
<path d="M22.9136 31.4905C22.9164 32.431 22.9189 33.3715 22.9213 34.312C22.5594 34.4487 22.1813 34.5406 21.7959 34.5856C21.7585 34.5496 21.7298 34.5061 21.7118 34.4581C21.6938 34.4101 21.687 34.3588 21.6918 34.3079C21.6918 33.4873 21.6594 32.6667 21.7051 31.842L22.9136 31.4905Z" fill="#40B9FD"/>
<path d="M9.14827 5.48926C9.14827 4.57974 9.14406 3.66954 9.13913 2.75934C9.13913 2.60684 9.18414 2.4222 8.93726 2.39485C9.26183 2.17263 9.61219 1.98832 9.98108 1.84572C10.2301 1.78691 10.2097 1.98249 10.2216 2.11037C10.2454 2.44815 10.2492 2.78699 10.2329 3.1252C10.2195 3.68732 10.2779 4.25081 10.2055 4.81225L9.14827 5.48926Z" fill="#21D4FD"/>
<path d="M8.84363 32.5505C8.93859 32.4903 8.92944 32.396 8.92944 32.3057C8.92944 31.4071 8.92944 30.5085 8.92944 29.6093C8.9185 29.5086 8.8973 29.4091 8.86614 29.3125L9.91066 30.0107C9.98759 30.1262 10.0266 30.2616 10.0225 30.3991C10.0225 31.1391 10.0345 31.879 10.0155 32.6182C10.0105 32.8022 10.045 33.062 9.70246 33.0162C9.39669 32.8977 9.10801 32.7412 8.84363 32.5505Z" fill="#20D4FD"/>
<path d="M14.342 3.14499C14.342 2.42011 14.342 1.69455 14.342 0.968988C14.3467 0.776946 14.3213 0.585322 14.2667 0.400711C14.6535 0.278449 15.056 0.209395 15.4625 0.195557C15.4625 1.10735 15.4625 2.01915 15.4625 2.93095L14.342 3.14499Z" fill="#2FC8FD"/>
<path d="M12.6539 16.1436V18.855C12.2249 18.8496 11.7923 18.9234 11.3675 18.8079C11.4765 18.0488 11.4068 17.2856 11.4146 16.5245C11.4146 16.4069 11.3442 16.3091 11.3147 16.1997C11.7578 16.0656 12.2094 16.1532 12.6539 16.1436Z" fill="#28CEFD"/>
<path d="M22.7827 16.1436V18.855H21.6573C21.5546 18.7586 21.5497 18.6314 21.5482 18.5062C21.5412 17.8352 21.5412 17.1641 21.5482 16.493C21.5482 16.3679 21.5546 16.2407 21.6573 16.1436H22.7827Z" fill="#40B9FD"/>
<path d="M12.6356 34.1869C12.7721 34.1718 12.7974 34.0836 12.7974 33.9687C12.7974 33.1085 12.7974 32.2479 12.7974 31.3872L13.9228 31.7291C13.9554 31.7622 13.9796 31.8023 13.9934 31.8461C14.0072 31.8899 14.0102 31.9363 14.0023 31.9815C13.9242 32.6968 13.9833 33.4134 13.9615 34.1294C13.9573 34.2662 13.9685 34.403 13.8525 34.5117C13.4351 34.4503 13.0267 34.3413 12.6356 34.1869Z" fill="#2BCBFD"/>
<path d="M8.01715 28.6375C7.91375 28.9111 7.94681 29.1969 7.94681 29.4787C7.94681 30.183 7.94681 30.8867 7.94681 31.5911C7.94681 31.71 7.99042 31.8454 7.85889 31.933C7.56487 31.8078 7.33135 31.602 7.09642 31.3982C7.01783 31.2714 6.98148 31.124 6.99232 30.9763C6.99232 30.1276 6.98599 29.279 6.99232 28.4303C6.99232 28.2293 6.99231 28.02 7.17871 27.8702L8.01715 28.6375Z" fill="#1ADAFD"/>
<path d="M11.7979 1.08728C12.0089 1.12147 11.9505 1.28423 11.9512 1.40869C11.9545 2.10804 11.9545 2.80807 11.9512 3.50878C11.9512 3.64555 11.9512 3.78232 12.0251 3.902L11.0361 4.36565C10.9829 4.34047 10.9388 4.30036 10.9093 4.25049C10.8798 4.20062 10.8664 4.1433 10.8708 4.08595C10.8666 3.20174 10.816 2.31752 10.8962 1.43399C11.1787 1.27813 11.4822 1.16143 11.7979 1.08728Z" fill="#26CFFD"/>
<path d="M6.96005 3.69214C7.07541 3.79198 7.03039 3.92533 7.03039 4.04432C7.03461 4.89411 7.03461 5.74459 7.03039 6.59575C7.02303 6.79917 7.04964 7.0024 7.10917 7.19754L6.33967 8.02089C6.25596 7.88891 6.25667 7.74188 6.25667 7.59349C6.25667 6.65069 6.25667 5.70766 6.25667 4.76441C6.25667 4.62217 6.30028 4.46078 6.11951 4.37599C6.3736 4.11934 6.65541 3.89006 6.96005 3.69214Z" fill="#17DDFD"/>
<path d="M7.178 27.8722C7.01904 28.8296 7.13791 29.7938 7.10203 30.754C7.0943 30.9694 7.0957 31.1848 7.09289 31.4002C6.76913 31.1949 6.46874 30.9567 6.19678 30.6897C6.40779 30.6384 6.32339 30.4695 6.32409 30.3512C6.33112 29.3938 6.32831 28.4364 6.32409 27.479C6.32409 27.3306 6.31846 27.1829 6.40428 27.0496C6.66312 27.3254 6.92103 27.5996 7.178 27.8722Z" fill="#17DCFD"/>
<path d="M11.6024 30.9051V33.8395C11.2507 33.7636 10.9278 33.6084 10.6113 33.4429C10.522 33.1653 10.5846 32.8808 10.5796 32.6004C10.5691 32.0349 10.5726 31.4693 10.5796 30.9038C10.5796 30.7485 10.5592 30.5824 10.6985 30.46L11.6024 30.9051Z" fill="#25D0FD"/>
<path d="M21.7058 31.8413C21.8366 31.9302 21.7944 32.0649 21.7951 32.1832C21.7951 32.984 21.7951 33.7841 21.7951 34.5849C21.4516 34.6865 21.0979 34.7523 20.7401 34.7812C20.816 34.6711 20.8104 34.5459 20.8104 34.4221C20.8104 33.7451 20.8104 33.0681 20.8104 32.3918C20.8104 32.2735 20.854 32.1388 20.7239 32.0499L21.7058 31.8413Z" fill="#3EBAFD"/>
<path d="M15.7488 32.125C15.7488 32.8992 15.7446 33.6733 15.7488 34.4501C15.7488 34.6621 15.7116 34.8146 15.4499 34.803C15.1628 34.802 14.8778 34.7558 14.6058 34.6662C14.7015 33.9201 14.6312 33.1706 14.6544 32.4225C14.66 32.2557 14.6269 32.0806 14.7634 31.9384L15.7488 32.125Z" fill="#30C7FD"/>
<path d="M11.3175 16.1997C11.4863 16.188 11.5349 16.2722 11.5334 16.426C11.5285 17.1365 11.5334 17.8471 11.5334 18.5576C11.5334 18.6766 11.5334 18.788 11.3717 18.8079C10.8301 18.7443 10.363 18.2608 10.2772 17.6795C10.1935 17.1119 10.5325 16.4978 11.0558 16.2756C11.1413 16.2448 11.2287 16.2194 11.3175 16.1997Z" fill="#25D1FD"/>
<path d="M10.8954 1.43542C11.0122 1.53527 10.9658 1.6693 10.9658 1.78897C10.97 2.5159 10.9658 3.24352 10.9658 3.97045C10.9658 4.10722 10.951 4.24399 11.0361 4.36708L10.2068 4.81295C10.1252 4.68028 10.1224 4.53462 10.1231 4.38623C10.1231 3.6381 10.1231 2.8902 10.1231 2.14252C10.1231 2.029 10.178 1.87856 9.98242 1.84642C10.2661 1.66972 10.5733 1.53145 10.8954 1.43542Z" fill="#24D1FD"/>
<path d="M14.7641 31.935C14.7641 32.7372 14.7641 33.5393 14.7641 34.3422C14.7641 34.4673 14.819 34.6294 14.6086 34.6629C14.3496 34.653 14.094 34.6022 13.8518 34.5124C13.8743 33.5851 13.7934 32.6551 13.9221 31.7299L14.7641 31.935Z" fill="#2EC9FD"/>
<path d="M21.6572 16.1436V18.855H20.7428V16.1436H21.6572Z" fill="#3EBAFD"/>
<path d="M10.6957 30.4599C10.6929 31.3115 10.6903 32.1629 10.688 33.0141C10.688 33.1625 10.6936 33.3102 10.6092 33.4429C10.288 33.3444 9.98347 33.2007 9.70532 33.0161C9.94799 32.9915 9.91282 32.811 9.91634 32.6578C9.91634 31.7756 9.91634 30.8932 9.91634 30.0106L10.6957 30.4599Z" fill="#23D2FD"/>
<path d="M17.6965 24.9597H18.2881C18.1964 25.0047 18.0951 25.0282 17.9923 25.0282C17.8896 25.0282 17.7883 25.0047 17.6965 24.9597Z" fill="#39BFFD"/>
<path d="M33.1302 16.1381C33.2357 16.2694 33.1703 16.4198 33.1815 16.562C33.1013 16.426 33.1225 16.2796 33.1302 16.1381Z" fill="#4EACFD"/>
<path d="M33.1815 18.4413C33.1702 18.5822 33.2364 18.7326 33.1302 18.8625C33.1259 18.7196 33.1055 18.5746 33.1815 18.4413Z" fill="#4EACFD"/>
<path d="M1.88648 9.70178C2.04052 9.81051 2.03911 9.96985 2.03911 10.1319C2.03911 15.0597 2.03911 19.9878 2.03911 24.916C2.03911 25.0603 2.07288 25.221 1.88788 25.2969C1.65436 24.9311 1.50313 24.5283 1.34839 24.1282C1.392 23.8677 1.36175 23.6051 1.36175 23.3439C1.36949 19.2538 1.35542 15.1644 1.37019 11.0743C1.37194 11.0053 1.36461 10.9363 1.34839 10.8691C1.50173 10.4697 1.65436 10.0683 1.88648 9.70178Z" fill="#06EBFD"/>
<path d="M1.34763 10.8724C1.48831 10.9449 1.47635 11.0735 1.47635 11.2V23.7972C1.47635 23.9237 1.48972 24.0529 1.34763 24.1254C1.10374 23.6212 0.913305 23.0942 0.779297 22.5526C0.951626 22.5231 0.912942 22.3905 0.912942 22.2838C0.912942 19.0902 0.912942 15.8971 0.912942 12.7045C0.912942 12.5978 0.951626 12.4644 0.779297 12.4357C0.913086 11.897 1.10354 11.3732 1.34763 10.8724Z" fill="#04EDFD"/>
</g>
<defs>
<clipPath id="clip0_174_11672">
<rect width="36" height="35" fill="white"/>
</clipPath>
</defs>
</svg>
