<svg width="24" height="24" viewBox="0 0 24 24" fill="none" xmlns="http://www.w3.org/2000/svg">
<path fill-rule="evenodd" clip-rule="evenodd" d="M16.302 2C17.91 2 19.297 2.537 20.312 3.554C21.373 4.616 21.955 6.161 21.953 7.905L21.9545 14.9014C21.9562 14.9283 21.9565 14.9553 21.9554 14.9822L21.953 16.05C21.953 19.581 19.68 21.954 16.297 21.954H7.651C4.271 21.954 2 19.581 2 16.05V7.904C2 4.373 4.271 2 7.651 2H16.302ZM16.5786 12.8323C15.9906 12.8323 15.3006 13.8053 14.6896 14.6643C13.8516 15.8443 12.9846 17.0653 11.6786 17.0653C10.7956 17.0653 9.9866 16.7253 9.2736 16.4243C8.1396 15.9463 7.6256 15.7933 7.1226 16.2073C6.1157 17.037 5.12078 18.5479 4.66363 19.2914C5.38518 20.0354 6.41016 20.454 7.651 20.454H16.297C18.822 20.454 20.453 18.726 20.453 16.05L20.453 15.251L20.4299 15.2267C19.5545 14.3248 18.0429 12.8323 16.5786 12.8323ZM16.302 3.5H7.651C5.13 3.5 3.5 5.229 3.5 7.904V16.05C3.5 16.7186 3.60175 17.328 3.79372 17.8661C4.37241 16.9923 5.24639 15.8094 6.1696 15.0493C7.4216 14.0193 8.7696 14.5853 9.8556 15.0423C10.4946 15.3113 11.0986 15.5653 11.6786 15.5653C12.2106 15.5653 12.8776 14.6253 13.4676 13.7963C14.2866 12.6403 15.2166 11.3323 16.5786 11.3323C18.0733 11.3323 19.4271 12.2509 20.4541 13.1624L20.453 7.904C20.455 6.541 20.039 5.403 19.251 4.614C18.523 3.885 17.504 3.5 16.302 3.5ZM8.857 6.1895C10.288 6.1905 11.452 7.3545 11.453 8.7845C11.453 10.2155 10.289 11.3805 8.857 11.3805C7.425 11.3805 6.261 10.2165 6.261 8.7855C6.261 7.3535 7.425 6.1895 8.857 6.1895ZM8.856 7.6895C8.252 7.6895 7.761 8.1805 7.761 8.7855C7.761 9.3895 8.252 9.8805 8.857 9.8805C9.461 9.8805 9.953 9.3895 9.953 8.7865C9.952 8.1815 9.46 7.6905 8.856 7.6895Z" fill="#252525" fill-opacity="0.8"/>
</svg>
