<svg width="24" height="24" viewBox="0 0 24 24" fill="none" xmlns="http://www.w3.org/2000/svg">
<path d="M18.666 21.719C19.4679 21.719 20.2514 21.5144 20.9615 21.1156C21.3268 20.9275 21.4683 20.4568 21.2501 20.1027C20.5249 18.9439 20.2631 17.5275 20.5951 16.1954C20.9392 14.8144 21.4371 13.6513 21.4336 12.1894C21.4212 7.06033 17.1521 2.90225 12.0283 3.00175C7.07928 3.10143 3.00062 7.26165 3.00056 12.212C3.0005 18.6771 9.77607 23.2162 15.7577 20.7197C16.5822 21.3668 17.6185 21.719 18.666 21.719ZM19.6404 20.1405C18.5137 20.4905 17.2464 20.2109 16.3775 19.3709C16.1634 19.1638 15.8431 19.1117 15.5745 19.2402C10.4534 21.6887 4.42627 17.8509 4.42633 12.212C4.42633 8.00409 7.84946 4.51187 12.057 4.42716C16.393 4.34103 19.9974 7.85279 20.0079 12.1928C20.0112 13.5814 19.4695 14.6912 19.1734 16.0065C18.8615 17.3928 19.0258 18.8586 19.6404 20.1405Z" fill="#8D9296"/>
<path d="M8.18359 12C8.18359 14.3472 10.0864 16.25 12.4336 16.25C14.7808 16.25 16.6836 14.3472 16.6836 12C16.6836 9.65279 14.7808 7.75 12.4336 7.75C10.0864 7.75 8.18359 9.65279 8.18359 12Z" stroke="#8D9296" stroke-width="1.5"/>
</svg>
