<svg width="196" height="221" viewBox="0 0 196 221" fill="none" xmlns="http://www.w3.org/2000/svg">
<path d="M147.7 52.9775C147.7 81.942 124.22 105.422 95.2553 105.422C66.2908 105.422 42.8105 81.942 42.8105 52.9775C42.8105 24.0131 66.2908 0.532715 95.2553 0.532715C124.22 0.532715 147.7 24.0131 147.7 52.9775Z" fill="white"/>
<path fill-rule="evenodd" clip-rule="evenodd" d="M98.4273 127.136C73.5759 127.136 39.2631 136.148 18.6219 143.873C7.91308 147.881 0.854675 158.541 0.854675 170.987V193.485C0.854675 208.574 13.0864 220.805 28.175 220.805H168.68C183.768 220.805 196 208.574 196 193.485V172.725C196 159.665 188.184 148.417 176.533 144.509C152.211 136.352 123.61 127.136 98.4273 127.136Z" fill="white"/>
</svg>
