<svg width="24" height="24" viewBox="0 0 24 24" fill="none" xmlns="http://www.w3.org/2000/svg">
<path d="M5.58292 6.16667C5.58292 8.5194 7.49686 10.4333 9.84959 10.4333C12.2023 10.4333 14.1163 8.5194 14.1163 6.16667C14.1163 3.81394 12.2023 1.9 9.84959 1.9C7.49686 1.9 5.58292 3.81394 5.58292 6.16667ZM6.61626 6.16667C6.61626 4.38356 8.06648 2.93333 9.84959 2.93333C11.6327 2.93333 13.0829 4.38356 13.0829 6.16667C13.0829 7.94977 11.6327 9.4 9.84959 9.4C8.06648 9.4 6.61626 7.94977 6.61626 6.16667Z" fill="#252525" stroke="#252525" stroke-width="0.2"/>
<path d="M2.76628 19.6H9.43294C9.71817 19.6 9.94961 19.3686 9.94961 19.0833C9.94961 18.7981 9.71817 18.5667 9.43294 18.5667H3.28294V15.75C3.28294 14.1969 4.5465 12.9333 6.09961 12.9333H11.0996C11.3848 12.9333 11.6163 12.7019 11.6163 12.4167C11.6163 12.1314 11.3848 11.9 11.0996 11.9H6.09961C3.97688 11.9 2.24961 13.6273 2.24961 15.75V19.0833C2.24961 19.3686 2.48105 19.6 2.76628 19.6Z" fill="#252525" stroke="#252525" stroke-width="0.2"/>
<path d="M14.3329 16.5833C14.3329 17.7869 15.3127 18.7667 16.5163 18.7667C17.7198 18.7667 18.6996 17.7869 18.6996 16.5833C18.6996 15.3798 17.7198 14.4 16.5163 14.4C15.3127 14.4 14.3329 15.3798 14.3329 16.5833ZM15.3663 16.5833C15.3663 15.9494 15.8823 15.4333 16.5163 15.4333C17.1502 15.4333 17.6663 15.9494 17.6663 16.5833C17.6663 17.2173 17.1502 17.7333 16.5163 17.7333C15.8823 17.7333 15.3663 17.2173 15.3663 16.5833Z" fill="#252525" stroke="#252525" stroke-width="0.2"/>
<path d="M11.6704 17.5418L11.6704 17.5418L12.4799 16.9596C12.4667 16.8429 12.458 16.7161 12.458 16.5838C12.458 16.4517 12.4667 16.3243 12.4799 16.208L11.6704 15.6258L11.6704 15.6258C11.2804 15.345 11.1665 14.8184 11.4072 14.4013C11.4072 14.4013 11.4072 14.4013 11.4072 14.4013L12.0714 13.2505L12.0714 13.2505C12.312 12.8335 12.8239 12.6682 13.2632 12.8659L13.2633 12.866L14.1839 13.2814C14.3869 13.137 14.6001 13.013 14.8225 12.9099L14.9226 11.9081L14.9226 11.908L15.0221 11.918C15.0646 11.4905 15.4213 11.168 15.8513 11.168H17.1805C17.6105 11.168 17.9671 11.4905 18.0096 11.9188L11.6704 17.5418ZM11.6704 17.5418C11.2804 17.8226 11.1665 18.3492 11.4072 18.7663L12.0713 19.917C12.3109 20.3338 12.8253 20.5013 13.2634 20.3015C13.2635 20.3015 13.2636 20.3015 13.2636 20.3014L14.1839 19.8862C14.3869 20.0306 14.6001 20.1546 14.8225 20.2577L14.9226 21.2595C14.9226 21.2595 14.9226 21.2596 14.9226 21.2596C14.9702 21.7391 15.37 22.1005 15.8513 22.1005H17.1805M11.6704 17.5418L17.1805 22.1005M14.5855 18.8921L14.5855 18.8921C14.8593 19.1216 15.1618 19.2965 15.4832 19.4141L15.4832 19.4141C15.669 19.4822 15.8003 19.6505 15.82 19.848L14.5855 18.8921ZM14.5855 18.8921C14.4906 18.8127 14.3728 18.7713 14.2538 18.7713C14.1819 18.7713 14.1111 18.7857 14.0439 18.8142L14.0439 18.8142L14.0419 18.8151L12.921 19.3205L12.3473 18.3264L13.3388 17.6142L13.3391 17.614C13.4999 17.4975 13.5806 17.3004 13.5465 17.1049L13.5465 17.1049C13.516 16.9309 13.4921 16.7585 13.4921 16.5821C13.4921 16.4058 13.516 16.2333 13.5465 16.0594L13.5466 16.0588C13.5795 15.8644 13.5004 15.6661 13.3388 15.5501L12.3473 14.8379L12.921 13.8439L14.0414 14.3497C14.0415 14.3498 14.0415 14.3498 14.0416 14.3499C14.2229 14.4326 14.4338 14.4023 14.5854 14.2756C14.8594 14.0468 15.1619 13.8711 15.4832 13.7535L15.4832 13.7535C15.669 13.6854 15.8003 13.5171 15.82 13.3196C15.82 13.3196 15.82 13.3195 15.82 13.3195L15.9418 12.1005H17.0899L17.2118 13.322C17.2118 13.322 17.2118 13.3221 17.2118 13.3221C17.2314 13.5196 17.3627 13.6879 17.5485 13.756L17.5487 13.7561C17.8716 13.8737 18.1732 14.0485 18.4461 14.2779L18.4465 14.2782C18.5991 14.405 18.8099 14.4341 18.9907 14.3525C18.9907 14.3525 18.9908 14.3525 18.9908 14.3524L20.1116 13.8472L20.6853 14.8412L19.6938 15.5534L19.6935 15.5536C19.5327 15.6701 19.452 15.8672 19.4861 16.0627L19.4861 16.0627C19.5166 16.2367 19.5405 16.4091 19.5405 16.5855C19.5405 16.7618 19.5166 16.9343 19.4861 17.1082L19.486 17.1088C19.4531 17.3032 19.5322 17.5015 19.6938 17.6175L20.6853 18.3297L20.1116 19.3237L18.991 18.8177L14.5855 18.8921ZM13.448 16.0421C13.4746 15.8846 13.4105 15.7246 13.2805 15.6313L13.448 16.0421ZM13.448 16.0421C13.4171 16.218 13.3921 16.3971 13.3921 16.5821M13.448 16.0421L13.3921 16.5821M17.1805 22.1005C17.6617 22.1005 18.0615 21.7392 18.1091 21.2605L17.1805 22.1005ZM13.3921 16.5821C13.3921 16.7671 13.4171 16.9463 13.448 17.1221L13.3921 16.5821ZM18.2092 12.9107L18.1091 11.9089L20.9604 13.2513C20.7205 12.835 20.2078 12.67 19.7687 12.8667L19.7685 12.8668L18.8479 13.2822C18.6456 13.1385 18.4324 13.0139 18.2092 12.9107ZM21.6246 14.4022L20.9604 13.2514L18.1091 21.2604L18.21 20.2577C18.4324 20.1546 18.6457 20.0306 18.8487 19.8862L19.7693 20.3016C20.2098 20.5004 20.7207 20.333 20.9612 19.9172L20.9613 19.9171L21.6246 18.7671C21.6246 18.7671 21.6246 18.7671 21.6246 18.7671C21.8653 18.3501 21.7513 17.8234 21.3614 17.5427L21.3613 17.5426L20.5519 16.9605C20.565 16.8442 20.5738 16.7168 20.5738 16.5846C20.5738 16.4524 20.565 16.3255 20.5518 16.2088L21.3613 15.6267L21.3614 15.6266C21.7513 15.3458 21.8653 14.8192 21.6246 14.4022ZM15.9426 21.0671L15.82 19.8481L18.9908 18.8177C18.8106 18.7359 18.5998 18.7652 18.4474 18.8919L18.4472 18.892C18.1732 19.1208 17.8707 19.2965 17.5494 19.4141L17.5494 19.4141C17.3636 19.4822 17.2323 19.6505 17.2126 19.848C17.2126 19.848 17.2126 19.8481 17.2126 19.8481L17.0908 21.0671H15.9426Z" fill="#252525" stroke="#252525" stroke-width="0.2"/>
</svg>
