<svg width="40" height="41" viewBox="0 0 40 41" fill="none" xmlns="http://www.w3.org/2000/svg">
<circle cx="20" cy="20.6667" r="20" fill="#DBDBDB"/>
<mask id="mask0_2947_15686" style="mask-type:alpha" maskUnits="userSpaceOnUse" x="0" y="0" width="40" height="41">
<circle cx="20" cy="20.6667" r="20" fill="#E5E5E5"/>
</mask>
<g mask="url(#mask0_2947_15686)">
<path d="M28.3333 17.3334C28.3333 21.9357 24.6024 25.6667 20 25.6667C15.3976 25.6667 11.6667 21.9357 11.6667 17.3334C11.6667 12.731 15.3976 9.00003 20 9.00003C24.6024 9.00003 28.3333 12.731 28.3333 17.3334Z" fill="white"/>
<path fill-rule="evenodd" clip-rule="evenodd" d="M20.504 29.1169C16.5552 29.1169 11.103 30.5489 7.82316 31.7765C6.12156 32.4133 5 34.1071 5 36.0848V39.6596C5 42.0571 6.94359 44.0007 9.34113 44.0007H31.6669C34.0644 44.0007 36.008 42.0571 36.008 39.6596V36.3609C36.008 34.2857 34.7661 32.4984 32.9148 31.8775C29.0501 30.5813 24.5055 29.1169 20.504 29.1169Z" fill="white"/>
</g>
</svg>
