<svg width="21" height="21" viewBox="0 0 21 21" fill="none" xmlns="http://www.w3.org/2000/svg">
<path d="M16.7309 16.9943L17.2502 17.5355L16.7309 16.9943ZM4.26913 16.9943L3.74982 17.5355L4.26913 16.9943ZM7.8 14.85H13.2V13.35H7.8V14.85ZM2.25 10.5C2.25 5.94365 5.94365 2.25 10.5 2.25V0.75C5.11522 0.75 0.75 5.11522 0.75 10.5H2.25ZM10.5 2.25C15.0563 2.25 18.75 5.94365 18.75 10.5H20.25C20.25 5.11522 15.8848 0.75 10.5 0.75V2.25ZM18.75 10.5C18.75 12.8397 17.777 14.9509 16.2116 16.4532L17.2502 17.5355C19.0982 15.762 20.25 13.2649 20.25 10.5H18.75ZM16.2116 16.4532C14.7285 17.8765 12.7171 18.75 10.5 18.75V20.25C13.1195 20.25 15.499 19.216 17.2502 17.5355L16.2116 16.4532ZM13.2 14.85C14.582 14.85 15.7357 15.8344 15.9953 17.1405L17.4665 16.8481C17.0701 14.8536 15.3115 13.35 13.2 13.35V14.85ZM10.5 18.75C8.28294 18.75 6.27148 17.8765 4.78844 16.4532L3.74982 17.5355C5.50097 19.216 7.88052 20.25 10.5 20.25V18.75ZM4.78844 16.4532C3.22299 14.9509 2.25 12.8397 2.25 10.5H0.75C0.75 13.2649 1.90184 15.762 3.74982 17.5355L4.78844 16.4532ZM7.8 13.35C5.68853 13.35 3.92991 14.8536 3.53352 16.8481L5.00475 17.1405C5.26433 15.8344 6.41804 14.85 7.8 14.85V13.35Z" fill="#70777C"/>
<path d="M14.0999 7.79995C14.0999 9.78818 12.4881 11.4 10.4999 11.4C8.51168 11.4 6.8999 9.78818 6.8999 7.79995C6.8999 5.81173 8.51168 4.19995 10.4999 4.19995C12.4881 4.19995 14.0999 5.81173 14.0999 7.79995Z" fill="#0077DD" stroke="#0077DD" stroke-width="1.5"/>
</svg>
