<svg width="24" height="24" viewBox="0 0 24 24" fill="none" xmlns="http://www.w3.org/2000/svg">
<path fill-rule="evenodd" clip-rule="evenodd" d="M15.5 7C15.5 8.933 13.933 10.5 12 10.5C10.067 10.5 8.5 8.933 8.5 7C8.5 5.067 10.067 3.5 12 3.5C13.933 3.5 15.5 5.067 15.5 7ZM17 7C17 9.76142 14.7614 12 12 12C9.23858 12 7 9.76142 7 7C7 4.23858 9.23858 2 12 2C14.7614 2 17 4.23858 17 7ZM11.921 21.8699C15.32 21.8699 19.84 21.4889 19.84 18.1929C19.84 14.6381 14.3296 14.5014 12.1642 14.4961L11.7115 14.4964C8.33835 14.5126 4 14.9441 4 18.1729C4 21.7277 9.5122 21.8644 11.6778 21.8697L11.921 21.8699ZM5.5 18.1729C5.5 16.7279 7.66 15.9959 11.921 15.9959C16.181 15.9959 18.34 16.7349 18.34 18.1929C18.34 19.6379 16.181 20.3699 11.921 20.3699C7.66 20.3699 5.5 19.6309 5.5 18.1729Z" fill="#252525"/>
</svg>
