<svg width="17" height="16" viewBox="0 0 17 16" fill="none" xmlns="http://www.w3.org/2000/svg">
<path fill-rule="evenodd" clip-rule="evenodd" d="M8.5 16C4.08172 16 0.5 12.4183 0.5 8C0.5 3.58172 4.08172 9.53674e-07 8.5 9.53674e-07C12.9183 9.53674e-07 16.5 3.58172 16.5 8C16.5 12.4183 12.9183 16 8.5 16ZM8.5 14.6789C12.1887 14.6789 15.1789 11.6887 15.1789 8C15.1789 4.31135 12.1887 1.3211 8.5 1.3211C4.81135 1.3211 1.8211 4.31135 1.8211 8C1.8211 11.6887 4.81135 14.6789 8.5 14.6789Z" fill="#F3F3F3"/>
<path fill-rule="evenodd" clip-rule="evenodd" d="M0.5 8L0.50001 7.98748C0.500569 7.62267 0.796761 7.32739 1.16157 7.32795C1.51987 7.3285 1.8111 7.61421 1.82086 7.97003L1.8211 8C1.8211 11.6887 4.81135 14.6789 8.5 14.6789C12.1887 14.6789 15.1789 11.6887 15.1789 8C15.1789 4.34823 12.2482 1.38098 8.61045 1.322L8.5 1.3211C8.13519 1.3211 7.83945 1.02536 7.83945 0.66055C7.83945 0.295738 8.13519 0 8.5 0C12.9183 0 16.5 3.58172 16.5 8C16.5 12.4183 12.9183 16 8.5 16C4.08172 16 0.5 12.4183 0.5 8Z" fill="#006EFF"/>
</svg>
