<svg width="32" height="32" viewBox="0 0 32 32" fill="none" xmlns="http://www.w3.org/2000/svg">
<rect width="32" height="32" rx="8" fill="#0061FF" fill-opacity="0.5"/>
<g clip-path="url(#clip0_20_972)">
<path d="M24.5417 10.1742H7.45833C6.65833 10.1742 6 10.8325 6 11.6325V14.5492C6 15.3492 6.65833 16.0075 7.45833 16.0075H7.66667H8.29167H8.91667H15.375H16.625H23.0833H23.7083H24.3333H24.5417C25.3417 16.0075 26 15.3492 26 14.5492V11.6325C26 10.8325 25.3417 10.1742 24.5417 10.1742Z" fill="white"/>
<path d="M8.29175 17.2575H7.66675V23.7158C7.66675 24.9825 8.69175 26.0075 9.95841 26.0075H15.3751V25.3825V24.7575V17.2575H8.91675H8.29175Z" fill="white"/>
<path d="M23.0833 17.2575H16.625V24.7575V25.3825V26.0075H22.0417C23.3083 26.0075 24.3333 24.9825 24.3333 23.7158V17.2575H23.7083H23.0833Z" fill="white"/>
<path d="M19.9367 6.75832C19.1017 5.92416 17.6476 5.92416 16.8142 6.75832C16.5101 7.06249 16.2326 7.69416 16.0001 8.36582C15.7676 7.69416 15.4901 7.06249 15.1859 6.75832C14.3526 5.92332 12.8984 5.92416 12.0634 6.75832C11.6459 7.17499 11.4167 7.72916 11.4167 8.31916C11.4167 8.90916 11.6459 9.46416 12.0634 9.88082C12.7567 10.5742 15.1484 11.1458 15.8651 11.3042C15.9101 11.315 15.9551 11.32 16.0001 11.32C16.0451 11.32 16.0901 11.315 16.1351 11.305C16.8509 11.1467 19.2426 10.5742 19.9367 9.88166C20.3542 9.46499 20.5834 8.90999 20.5834 8.31999C20.5834 7.72999 20.3542 7.17499 19.9367 6.75832ZM12.9476 8.99749C12.7667 8.81666 12.6667 8.57582 12.6667 8.31916C12.6667 8.06249 12.7659 7.82332 12.9476 7.64166C13.1292 7.45999 13.3692 7.36166 13.6251 7.36166C13.8809 7.36166 14.1217 7.46166 14.3017 7.64166C14.5226 7.86249 14.8642 8.82082 15.1426 9.83749C14.1267 9.55916 13.1684 9.21832 12.9476 8.99749ZM19.0526 8.99749C18.8317 9.21749 17.8734 9.55916 16.8567 9.83749C17.1351 8.82082 17.4767 7.86249 17.6976 7.64166C17.8784 7.46082 18.1192 7.36166 18.3742 7.36166C18.6309 7.36166 18.8709 7.46166 19.0517 7.64249C19.2326 7.82332 19.3334 8.06332 19.3334 8.31916C19.3334 8.57499 19.2334 8.81666 19.0526 8.99749Z" fill="white"/>
</g>
<circle cx="24" cy="21" r="6" fill="#0061FF"/>
<path d="M24 18L24 24" stroke="white" stroke-linecap="round" stroke-linejoin="round"/>
<path d="M27 21L24 24L21 21" stroke="white" stroke-linecap="round" stroke-linejoin="round"/>
<defs>
<clipPath id="clip0_20_972">
<rect width="20" height="20" fill="white" transform="translate(6 6)"/>
</clipPath>
</defs>
</svg>
