<svg width="24" height="24" viewBox="0 0 24 24" fill="none" xmlns="http://www.w3.org/2000/svg">
<path d="M13.7214 2.52925C13.4611 2.2689 13.0389 2.2689 12.7786 2.52925C12.5182 2.7896 12.5183 3.21171 12.7786 3.47206L13.6405 4.33398L11.8522 4.33397C10.1322 4.33375 9.1036 4.33362 8.24891 4.61133C6.52376 5.17187 5.17122 6.52441 4.61068 8.24955C4.33298 9.10425 4.33311 10.1329 4.33332 11.8528V12.1485C4.33311 13.8684 4.33298 14.8971 4.61068 15.7517C4.72446 16.1019 5.10056 16.2936 5.45073 16.1798C5.8009 16.066 5.99254 15.6899 5.87876 15.3397C5.6749 14.7123 5.66667 13.9138 5.66667 12.0007C5.66667 10.0875 5.6749 9.289 5.87876 8.66158C6.3074 7.34235 7.3417 6.30805 8.66093 5.87941C9.28836 5.67554 10.0868 5.66732 12 5.66732H13.4086L12.5732 6.3635C12.2904 6.59921 12.2521 7.01959 12.4879 7.30244C12.7236 7.58529 13.1439 7.62351 13.4268 7.3878L14.8356 6.21382C15.2016 5.90883 15.4022 5.48116 15.4315 5.04534C15.4624 4.58563 15.3029 4.11073 14.9471 3.75494L13.7214 2.52925Z" fill="#70777C"/>
<path d="M20.3918 7.80239C20.2823 7.45086 19.9086 7.25465 19.557 7.36415C19.2055 7.47364 19.0093 7.84738 19.1188 8.19891C19.3257 8.86327 19.3333 9.70709 19.3333 11.6987C19.3333 13.6902 19.3257 14.5341 19.1188 15.1984C18.685 16.591 17.6431 17.6693 16.3311 18.114C15.7082 18.3251 14.9151 18.334 13 18.334H11.6095L12.4714 17.4721C12.7318 17.2117 12.7318 16.7896 12.4714 16.5292C12.2111 16.2689 11.7889 16.2689 11.5286 16.5292L10.3029 17.7549C9.94711 18.1107 9.78762 18.5856 9.81851 19.0453C9.84778 19.4812 10.0485 19.9088 10.4144 20.2138L11.8232 21.3878C12.1061 21.6235 12.5264 21.5853 12.7622 21.3024C12.9979 21.0196 12.9596 20.5992 12.6768 20.3635L11.8414 19.6673L13.1517 19.6673C14.8678 19.6676 15.9007 19.6677 16.7591 19.3768C18.4914 18.7896 19.8364 17.3781 20.3918 15.595C20.667 14.7115 20.6669 13.6469 20.6667 11.8438V11.5535C20.6669 9.75045 20.667 8.68588 20.3918 7.80239Z" fill="#70777C"/>
</svg>
