<svg width="32" height="32" viewBox="0 0 32 32" fill="none" xmlns="http://www.w3.org/2000/svg">
<rect width="32" height="32" rx="8" fill="#0061FF" fill-opacity="0.5"/>
<path fill-rule="evenodd" clip-rule="evenodd" d="M25.2308 21.6667C25.2308 20.9583 25.2308 19.5417 23.6923 19.5417H22.1538C20.03 19.5417 18.3077 17.9557 18.3077 16C18.3077 14.0443 20.03 12.4583 22.1538 12.4583H23.6923C25.2308 12.4583 25.2308 11.0417 25.2308 10.3333C25.2308 7.5 20.0246 7.5 16 7.5C9.07692 7.5 6 8.20833 6 16C6 23.7917 9.07692 24.5 16 24.5C20.0246 24.5 25.2308 24.5 25.2308 21.6667ZM25.8654 14.5352C25.7915 14.2681 25.5546 14.0655 25.2592 14.0174C24.7692 13.9522 24.1615 13.875 22.9231 13.875H22.1485C20.8769 13.875 19.8462 14.8242 19.8462 15.995V16.005C19.8462 17.1758 20.8769 18.125 22.1485 18.125H22.9231C24.1615 18.125 24.7692 18.0478 25.26 17.9862C25.5569 17.938 25.7954 17.734 25.87 17.4655C25.9315 17.1461 26 16.658 26 16C26 15.342 25.9315 14.8539 25.8654 14.5352ZM22.1538 15.2917C22.5785 15.2917 22.9231 15.609 22.9231 16C22.9231 16.391 22.5785 16.7083 22.1538 16.7083C21.7292 16.7083 21.3846 16.391 21.3846 16C21.3846 15.609 21.7292 15.2917 22.1538 15.2917Z" fill="white"/>
</svg>
