<svg width="96" height="97" viewBox="0 0 96 97" fill="none" xmlns="http://www.w3.org/2000/svg">
<g clip-path="url(#clip0_4147_32921)">
<path d="M72.124 66.968L89.256 84.096L83.596 89.756L66.468 72.624C60.095 77.7329 52.168 80.5116 44 80.5C24.128 80.5 8 64.372 8 44.5C8 24.628 24.128 8.5 44 8.5C63.872 8.5 80 24.628 80 44.5C80.0116 52.668 77.2329 60.595 72.124 66.968ZM64.1 64C69.1765 58.7795 72.0115 51.7817 72 44.5C72 29.028 59.468 16.5 44 16.5C28.528 16.5 16 29.028 16 44.5C16 59.968 28.528 72.5 44 72.5C51.2817 72.5115 58.2795 69.6765 63.5 64.6L64.1 64V64ZM48.712 29.204C47.5325 29.7368 46.4999 30.5478 45.7028 31.5674C44.9056 32.587 44.3678 33.7848 44.1354 35.058C43.9029 36.3312 43.9829 37.6418 44.3684 38.8773C44.7538 40.1128 45.4333 41.2364 46.3485 42.1515C47.2636 43.0667 48.3872 43.7462 49.6227 44.1316C50.8582 44.5171 52.1688 44.5971 53.442 44.3646C54.7152 44.1322 55.913 43.5944 56.9326 42.7972C57.9522 42.0001 58.7632 40.9675 59.296 39.788C60.3472 43.2025 60.2254 46.8706 58.9499 50.2078C57.6745 53.545 55.3188 56.3594 52.2582 58.2024C49.1977 60.0454 45.6083 60.8111 42.0621 60.3774C38.5159 59.9438 35.2168 58.3357 32.6906 55.8094C30.1643 53.2832 28.5562 49.9841 28.1226 46.4379C27.6889 42.8917 28.4546 39.3023 30.2976 36.2418C32.1406 33.1812 34.955 30.8255 38.2922 29.5501C41.6294 28.2746 45.2975 28.1528 48.712 29.204V29.204Z" fill="#E6E6E6"/>
</g>
<defs>
<clipPath id="clip0_4147_32921">
<rect width="96" height="96" fill="white" transform="translate(0 0.5)"/>
</clipPath>
</defs>
</svg>
