<svg width="32" height="32" viewBox="0 0 32 32" fill="none" xmlns="http://www.w3.org/2000/svg">
<rect width="32" height="32" rx="8" fill="#0061FF" fill-opacity="0.5"/>
<path d="M14.5617 14.538L20.2345 10.7172C20.5035 10.5376 20.5767 10.1742 20.397 9.9047C20.2162 9.63404 19.8511 9.56369 19.5845 9.7422L13.9116 13.563C13.6427 13.7427 13.5695 14.106 13.7491 14.3755C13.9305 14.6466 14.2942 14.7163 14.5617 14.538ZM20.2345 21.2828L14.5616 17.462C14.2939 17.2835 13.9299 17.355 13.7491 17.6245C13.5694 17.894 13.6427 18.2573 13.9116 18.437L19.5845 22.2578C19.8515 22.4358 20.2154 22.3668 20.397 22.0953C20.5767 21.8258 20.5034 21.4624 20.2345 21.2828Z" fill="white"/>
<path d="M11.3125 11.8984C9.05113 11.8984 7.21094 13.7386 7.21094 16C7.21094 18.2614 9.05113 20.1016 11.3125 20.1016C13.5739 20.1016 15.4141 18.2614 15.4141 16C15.4141 13.7386 13.5739 11.8984 11.3125 11.8984ZM21.8594 11.8594C23.4753 11.8594 24.7891 10.545 24.7891 8.92969C24.7891 7.31434 23.4753 6 21.8594 6C20.2435 6 18.9297 7.31434 18.9297 8.92969C18.9297 10.545 20.2435 11.8594 21.8594 11.8594ZM21.8594 20.1406C20.2435 20.1406 18.9297 21.455 18.9297 23.0703C18.9297 24.6857 20.2435 26 21.8594 26C23.4753 26 24.7891 24.6857 24.7891 23.0703C24.7891 21.455 23.4753 20.1406 21.8594 20.1406Z" fill="white"/>
</svg>
