<svg width="16" height="16" viewBox="0 0 16 16" fill="none" xmlns="http://www.w3.org/2000/svg">
<path d="M8.66663 5L6.66663 7L9.33329 8.33333L7.33329 10.3333M13.3333 8C13.3333 11.2723 9.76399 13.6523 8.46529 14.4099C8.31769 14.496 8.24389 14.5391 8.13975 14.5614C8.05892 14.5787 7.941 14.5787 7.86017 14.5614C7.75602 14.5391 7.68223 14.496 7.53463 14.4099C6.23593 13.6523 2.66663 11.2723 2.66663 8V4.81173C2.66663 4.27872 2.66663 4.01222 2.7538 3.78313C2.83081 3.58076 2.95595 3.40018 3.1184 3.25702C3.30229 3.09495 3.55182 3.00138 4.0509 2.81423L7.62543 1.47378C7.76402 1.4218 7.83332 1.39582 7.90461 1.38552C7.96785 1.37638 8.03207 1.37638 8.0953 1.38552C8.16659 1.39582 8.23589 1.4218 8.37449 1.47378L11.949 2.81423C12.4481 3.00138 12.6976 3.09495 12.8815 3.25702C13.044 3.40018 13.1691 3.58076 13.2461 3.78313C13.3333 4.01222 13.3333 4.27872 13.3333 4.81173V8Z" stroke="#605F5F" stroke-linecap="round" stroke-linejoin="round"/>
</svg>
