<svg width="16" height="17" viewBox="0 0 16 17" fill="none" xmlns="http://www.w3.org/2000/svg">
<g clip-path="url(#clip0_4380_41563)">
<path d="M2.522 2.3853L8 1.16797L13.478 2.3853C13.626 2.41821 13.7584 2.50061 13.8533 2.61891C13.9482 2.7372 14 2.88431 14 3.03597V9.69397C14 10.3525 13.8373 11.0008 13.5266 11.5813C13.2158 12.1619 12.7666 12.6567 12.2187 13.022L8 15.8346L3.78133 13.022C3.23352 12.6568 2.78431 12.162 2.47357 11.5816C2.16282 11.0012 2.00016 10.353 2 9.69463V3.03597C2.00003 2.88431 2.05176 2.7372 2.14666 2.61891C2.24156 2.50061 2.37396 2.41821 2.522 2.3853ZM8 9.5013L9.95933 10.5313L9.58533 8.34997L11.17 6.80464L8.97933 6.48597L8 4.5013L7.02 6.48597L4.83 6.80464L6.41467 8.34997L6.04133 10.5313L8 9.5013Z" fill="url(#paint0_linear_4380_41563)"/>
</g>
<defs>
<linearGradient id="paint0_linear_4380_41563" x1="9.35" y1="15.8346" x2="9.35" y2="1.16797" gradientUnits="userSpaceOnUse">
<stop stop-color="#9C3EF6"/>
<stop offset="1" stop-color="#C385FE"/>
</linearGradient>
<clipPath id="clip0_4380_41563">
<rect width="16" height="16" fill="white" transform="translate(0 0.5)"/>
</clipPath>
</defs>
</svg>
