<svg width="13" height="8" viewBox="0 0 13 8" fill="none" xmlns="http://www.w3.org/2000/svg">
<g clip-path="url(#clip0_2630_10156)">
<path d="M3.01431 4.99219C3.831 5.00643 4.55615 5.16137 5.26813 5.38041C6.22373 5.67425 7.17185 5.99195 8.12887 6.28009C8.79882 6.48204 9.48231 6.62308 10.1907 6.59209C10.7823 6.56609 11.3034 6.37091 11.7304 5.95099C11.8522 5.83132 11.9887 5.75937 12.1621 5.79855C12.2393 5.81296 12.3107 5.84947 12.3676 5.90365C12.4245 5.95783 12.4645 6.02735 12.4827 6.10379C12.5044 6.17932 12.5045 6.25944 12.4829 6.33501C12.4613 6.41059 12.4189 6.47856 12.3605 6.53119C11.8829 7.00347 11.3084 7.28306 10.6509 7.39311C9.82031 7.53202 9.00576 7.41698 8.21043 7.18725C7.21317 6.89911 6.22587 6.56823 5.23216 6.26121C4.59818 6.06603 3.95708 5.90291 3.29105 5.85518C2.50499 5.79891 1.79799 5.96203 1.22528 6.54686C1.18643 6.58719 1.13981 6.61923 1.08824 6.64103C1.03666 6.66284 0.981202 6.67396 0.925206 6.67373C0.869211 6.67349 0.813845 6.66191 0.762453 6.63968C0.711061 6.61744 0.664711 6.58502 0.626203 6.54437C0.455599 6.37269 0.45738 6.11269 0.635107 5.93425C1.19287 5.37471 1.87421 5.08372 2.65493 5.01213C2.79669 5.00109 2.93916 4.99682 3.01431 4.99219Z" fill="#475467"/>
<path d="M9.94801 3.00392C9.2029 2.99431 8.48131 2.8408 7.7736 2.62461C6.8091 2.3297 5.85279 2.00879 4.88864 1.71745C4.24469 1.52298 3.58721 1.38835 2.90693 1.40295C2.26583 1.41684 1.70486 1.62093 1.24897 2.08394C1.12289 2.21216 0.971513 2.25989 0.798059 2.20397C0.724858 2.18229 0.659194 2.14054 0.608517 2.08344C0.55784 2.02634 0.524177 1.95619 0.511345 1.88093C0.495889 1.81094 0.499071 1.73812 0.520571 1.66974C0.542071 1.60137 0.581137 1.53983 0.633867 1.49128C1.16278 0.959166 1.80601 0.666396 2.54613 0.578423C3.42159 0.474778 4.2682 0.639328 5.09914 0.885083C5.99775 1.15114 6.88532 1.45495 7.78073 1.73276C8.49092 1.95359 9.21038 2.13772 9.96118 2.15162C10.6525 2.16408 11.2673 1.97353 11.7694 1.4724C11.8089 1.43128 11.8563 1.39856 11.9087 1.37621C11.9611 1.35386 12.0175 1.34234 12.0745 1.34234C12.1315 1.34234 12.1879 1.35386 12.2403 1.37621C12.2927 1.39856 12.3401 1.43128 12.3796 1.4724C12.548 1.64657 12.5381 1.91191 12.3532 2.0932C11.8068 2.62959 11.1422 2.90669 10.3879 2.98362C10.286 2.99395 10.1834 2.99965 10.0812 3.00535C10.0367 3.00606 9.99253 3.00392 9.94801 3.00392Z" fill="#475467"/>
</g>
<defs>
<clipPath id="clip0_2630_10156">
<rect width="12" height="6.9068" fill="white" transform="translate(0.5 0.546875)"/>
</clipPath>
</defs>
</svg>
