<svg width="372" height="368" viewBox="0 0 372 368" fill="none" xmlns="http://www.w3.org/2000/svg">
<rect width="372" height="368" rx="4" fill="#D9D9D9"/>
<path d="M198.748 145.663C203.984 149.555 207.378 155.789 207.378 162.816C207.378 163.017 207.375 163.215 207.369 163.414C205.849 153.7 199.664 150.171 199.664 150.171C196.94 148.579 196.671 150.548 196.671 150.548C196.428 152.84 200.095 152.274 200.095 152.274C206.679 157.821 207.134 164.227 206.957 167.05C206.426 169.694 205.406 172.163 203.996 174.356C207.336 165.479 203.932 159.501 203.932 159.501C202.399 156.745 201.164 158.301 201.164 158.301C199.787 160.15 203.231 161.531 203.231 161.531C205.708 168.62 203.839 173.896 202.265 176.681C198.348 181.268 192.523 184.176 186.018 184.176C180.761 184.176 175.948 182.276 172.227 179.125C173.342 179.004 174.952 179.312 174.952 179.312C175.963 179.635 183.347 181.01 184.964 181.232C186.581 181.455 187.755 181.232 187.755 181.232C189.231 180.828 201.226 174.335 201.226 174.335C202.662 173.444 202.439 172.817 202.439 172.817C202.399 171.949 200.458 171.928 200.458 171.928C198.86 171.888 190.729 174.861 190.729 174.861C192.226 175.589 191.842 176.863 191.842 176.863C191.882 177.914 189.131 178.501 189.131 178.501C183.63 178.542 182.855 177.956 182.855 177.956C187.763 178.172 189.597 177.579 189.597 177.579C192.024 176.932 190.244 175.475 190.244 175.475C189.435 174.936 187.17 174.612 187.17 174.612C185.175 174.396 183.61 174.007 183.61 174.007C181.993 173.619 179.565 172.994 179.565 172.994H176.167C172.841 173.101 170.212 173.941 168.796 174.505C167.665 171.505 166.988 167.115 168.898 161.646C168.898 161.646 172.342 160.265 170.966 158.416C170.966 158.416 169.73 156.86 168.198 159.616C168.198 159.616 164.778 165.621 168.158 174.532C166.649 172.237 165.572 169.635 165.039 166.839C164.9 163.919 165.488 157.687 171.914 152.274C171.914 152.274 175.581 152.84 175.338 150.548C175.338 150.548 175.069 148.579 172.345 150.171C172.345 150.171 166.229 153.659 164.665 163.252C164.662 163.107 164.66 162.962 164.66 162.816C164.66 155.679 168.161 149.36 173.54 145.482C166.886 149.641 162.458 157.031 162.458 165.458C162.458 178.46 172.998 189 186 189C199.002 189 209.542 178.46 209.542 165.458C209.542 157.153 205.242 149.854 198.748 145.663Z" fill="#7B7B7B"/>
<path d="M190.154 149.438L193.593 141.712C193.593 141.712 189.979 144.247 188.59 145.703C188.59 145.703 189.965 145.757 189.736 146.768C189.736 146.768 189.871 148.129 188.725 148.197C187.579 148.264 186.783 147.886 186.851 146.606C186.851 146.606 186.325 144.057 188.374 143.828L186.096 139L183.79 143.854C183.79 143.854 185.219 143.746 185.273 145.028L185.287 146.754C185.287 146.754 185.111 148.223 184.087 148.211C184.087 148.211 182.63 148.386 182.563 147.266C182.563 147.266 181.957 145.702 183.723 145.608L178.694 141.683L181.841 149.438C181.841 149.438 185.759 147.698 190.154 149.438Z" fill="#7B7B7B"/>
<path d="M176.981 168.309C177.039 168.383 177.099 168.458 177.16 168.531C177.168 168.541 177.177 168.552 177.185 168.561C177.236 168.623 177.288 168.683 177.341 168.744C177.359 168.765 177.377 168.785 177.396 168.806C177.439 168.855 177.483 168.905 177.528 168.953C177.549 168.977 177.572 169.001 177.594 169.025C177.635 169.07 177.677 169.113 177.719 169.157C177.743 169.182 177.768 169.207 177.792 169.232C177.834 169.274 177.874 169.316 177.915 169.356C177.94 169.381 177.967 169.407 177.993 169.432C178.034 169.472 178.075 169.511 178.117 169.551C178.143 169.576 178.171 169.602 178.198 169.627C178.239 169.666 178.282 169.704 178.324 169.741C178.352 169.767 178.379 169.791 178.407 169.815C178.449 169.853 178.492 169.889 178.535 169.926C178.564 169.95 178.591 169.974 178.62 169.998C178.663 170.035 178.707 170.07 178.752 170.106C178.78 170.129 178.809 170.152 178.838 170.175C178.882 170.21 178.928 170.246 178.974 170.281C179.003 170.303 179.03 170.325 179.059 170.347C179.106 170.382 179.154 170.418 179.201 170.452C179.228 170.473 179.256 170.492 179.283 170.513C179.334 170.548 179.384 170.584 179.435 170.619C179.461 170.638 179.486 170.656 179.513 170.673C179.568 170.71 179.623 170.747 179.678 170.783C179.701 170.798 179.724 170.814 179.747 170.829C179.81 170.869 179.874 170.909 179.937 170.949C179.953 170.959 179.968 170.969 179.984 170.979C181.687 172.019 183.689 172.617 185.83 172.617C187.428 172.617 188.947 172.284 190.323 171.683C191.068 171.357 191.771 170.954 192.422 170.483C192.422 170.483 192.423 170.483 192.423 170.482C192.64 170.325 192.849 170.161 193.053 169.99C193.055 169.989 193.056 169.988 193.058 169.987C193.261 169.816 193.458 169.639 193.648 169.455C193.651 169.453 193.653 169.45 193.656 169.448C193.845 169.265 194.028 169.075 194.203 168.879C194.206 168.876 194.21 168.871 194.213 168.868C194.299 168.773 194.383 168.675 194.465 168.577C194.468 168.575 194.469 168.572 194.471 168.57C194.555 168.47 194.636 168.368 194.716 168.265C194.721 168.259 194.726 168.254 194.73 168.248C194.806 168.15 194.879 168.052 194.951 167.951C194.956 167.944 194.962 167.937 194.966 167.93C195.041 167.826 195.114 167.721 195.185 167.614C195.191 167.606 195.196 167.598 195.2 167.591C195.265 167.493 195.331 167.392 195.393 167.291C195.4 167.279 195.408 167.268 195.414 167.256C195.481 167.149 195.545 167.041 195.607 166.931C195.613 166.922 195.617 166.911 195.623 166.902C195.68 166.801 195.735 166.701 195.789 166.599C195.797 166.583 195.806 166.567 195.814 166.55C195.872 166.44 195.928 166.328 195.982 166.216C195.988 166.204 195.992 166.194 195.998 166.183C196.046 166.081 196.093 165.977 196.139 165.873C196.148 165.854 196.156 165.833 196.165 165.813C196.215 165.7 196.261 165.585 196.306 165.47C196.311 165.458 196.315 165.446 196.32 165.434C196.36 165.33 196.399 165.226 196.436 165.12C196.444 165.096 196.453 165.072 196.461 165.048C196.501 164.932 196.54 164.815 196.576 164.697C196.579 164.685 196.582 164.672 196.587 164.659C196.619 164.553 196.65 164.446 196.68 164.338C196.687 164.311 196.695 164.285 196.702 164.257C196.733 164.138 196.764 164.019 196.791 163.898C196.793 163.887 196.796 163.875 196.799 163.863C196.824 163.753 196.847 163.643 196.868 163.531C196.874 163.502 196.879 163.473 196.885 163.443C196.908 163.322 196.929 163.199 196.948 163.076C196.949 163.067 196.95 163.058 196.951 163.048C196.969 162.933 196.984 162.817 196.997 162.702C197.001 162.671 197.004 162.64 197.008 162.609C197.021 162.484 197.034 162.359 197.043 162.234C197.043 162.228 197.044 162.223 197.044 162.217C197.053 162.096 197.059 161.975 197.065 161.854C197.066 161.821 197.067 161.789 197.068 161.757C197.073 161.63 197.075 161.503 197.075 161.374C197.075 158.852 196.244 156.523 194.841 154.646C194.788 154.574 194.733 154.503 194.678 154.432C194.122 153.724 193.482 153.084 192.774 152.528C192.632 152.417 192.488 152.309 192.341 152.205C192.194 152.101 192.044 152 191.892 151.903C191.817 151.853 191.74 151.806 191.662 151.759C191.353 151.571 191.034 151.398 190.706 151.24C189.231 150.529 187.578 150.132 185.831 150.132C185.724 150.132 185.616 150.134 185.509 150.136C185.475 150.138 185.442 150.139 185.407 150.14C185.334 150.142 185.261 150.146 185.188 150.15C185.15 150.152 185.111 150.155 185.07 150.158C185.002 150.163 184.933 150.168 184.865 150.174C184.826 150.178 184.787 150.181 184.75 150.185C184.677 150.191 184.605 150.199 184.533 150.207C184.5 150.211 184.468 150.214 184.434 150.219C184.332 150.231 184.229 150.245 184.128 150.261C184.127 150.261 184.125 150.261 184.124 150.262C184.019 150.278 183.915 150.296 183.812 150.315C183.783 150.321 183.754 150.327 183.725 150.332C183.651 150.346 183.577 150.361 183.504 150.376C183.469 150.383 183.435 150.391 183.4 150.399C183.332 150.414 183.263 150.43 183.194 150.447C183.161 150.455 183.127 150.463 183.093 150.472C183.02 150.491 182.948 150.51 182.874 150.529C182.847 150.536 182.819 150.544 182.793 150.551C182.591 150.607 182.392 150.669 182.196 150.737C182.176 150.744 182.157 150.751 182.137 150.758C182.059 150.785 181.982 150.813 181.904 150.841C181.877 150.852 181.851 150.862 181.823 150.871C181.751 150.899 181.68 150.926 181.609 150.956C181.583 150.966 181.557 150.976 181.531 150.988C181.455 151.02 181.38 151.052 181.304 151.085C181.286 151.093 181.267 151.101 181.249 151.109C181.057 151.195 180.866 151.287 180.681 151.383C180.674 151.387 180.667 151.391 180.659 151.395C180.574 151.438 180.492 151.483 180.408 151.529C180.391 151.538 180.373 151.548 180.356 151.558C180.282 151.599 180.207 151.641 180.134 151.685C180.117 151.695 180.1 151.705 180.082 151.716C180.004 151.763 179.926 151.81 179.849 151.859C179.839 151.865 179.83 151.871 179.82 151.876C179.552 152.046 179.292 152.227 179.039 152.418C179.031 152.424 179.023 152.431 179.014 152.438C178.939 152.495 178.864 152.554 178.79 152.613C178.78 152.62 178.771 152.628 178.762 152.635C178.684 152.698 178.606 152.762 178.53 152.828C178.528 152.829 178.527 152.831 178.525 152.832C178.281 153.041 178.046 153.261 177.82 153.489C177.818 153.491 177.815 153.493 177.813 153.496C177.741 153.569 177.671 153.642 177.601 153.718C177.596 153.723 177.592 153.727 177.588 153.732C177.297 154.046 177.024 154.375 176.77 154.721C176.715 154.797 176.66 154.872 176.606 154.949C176.599 154.959 176.592 154.97 176.585 154.98C175.326 156.797 174.587 159.002 174.587 161.38C174.587 163.989 175.482 166.397 176.981 168.309ZM184.911 162.303C184.911 162.303 185.464 161.692 185.074 161.224C184.684 160.757 185.568 160.082 185.86 160.087C186.152 160.094 186.386 159.834 186.296 159.061C186.296 159.061 185.704 158.535 186.627 158.418L187.438 157.963C187.438 157.963 187.704 157.847 187.523 157.281L187.452 156.606C187.452 156.606 186.79 156.438 186.88 155.749C186.971 155.06 186.946 154.982 186.946 154.982C186.946 154.982 187.011 154.541 187.582 154.58C188.154 154.619 188.348 154.748 188.841 154.463C189.335 154.178 189.998 154.359 189.998 154.359C189.998 154.359 190.842 154.97 190.881 155.229C190.92 155.489 191.349 155.046 191.349 155.046C191.349 155.046 191.726 155.774 192.518 155.657C192.518 155.657 192.995 155.716 193.434 156.232C193.434 156.232 193.541 156.303 193.579 156.01C193.618 155.718 193.751 156.818 193.751 156.818C193.751 156.818 193.962 157.201 194.527 157.045C195.092 156.89 194.06 158.325 194.06 158.325C194.06 158.325 194.001 158.445 194.232 158.399C194.462 158.353 193.868 158.817 192.68 158.688C192.68 158.688 192.219 158.753 191.998 159.143C191.777 159.533 190.861 159.526 190.303 160.604C190.303 160.604 190.53 161.111 190.049 161.695C190.049 161.695 190.348 162.221 191.153 162.221C191.153 162.221 191.53 162.507 190.958 162.67C190.386 162.832 191.848 163.059 191.978 162.54C191.978 162.54 192.414 162.664 192.439 163.274C192.439 163.274 193.075 163.033 193.225 163.371L193.628 163.105L193.829 163.371C193.829 163.371 193.218 164.709 192.193 164.624C192.193 164.624 191.679 164.714 191.465 165.026C191.465 165.026 190.627 165.156 190.347 165.357C190.068 165.559 189.263 166.514 189.288 167.54C189.288 167.54 189.301 168.092 188.808 168.507C188.315 168.922 188.983 169.416 189.217 169.371C189.451 169.325 189.607 169.375 189.607 169.375C189.607 169.375 189.961 170.285 190.204 171.183C188.867 171.769 187.388 172.096 185.833 172.096C184.007 172.096 182.288 171.647 180.779 170.857C181 170.587 181.303 170.275 181.704 169.983C181.704 169.983 181.198 169.386 182.198 169.522C183.199 169.659 183.004 169.042 183.004 169.042C183.004 169.042 183.394 168.977 183.433 168.789C183.472 168.601 182.958 168.445 182.958 168.445C182.958 168.445 183.783 168.289 183.9 168.01C184.017 167.73 183.978 167.744 184.303 167.51C184.303 167.51 183.328 166.808 184.563 166.36L184.082 165.561C184.082 165.561 184.576 165.834 184.472 164.574C184.472 164.574 184.752 164.47 184.791 164.119C184.83 163.769 184.92 163.425 185.285 162.996C185.645 162.569 184.911 162.303 184.911 162.303ZM177.24 154.847L177.281 154.873C177.281 154.873 177.446 154.95 177.379 154.683C177.377 154.68 177.377 154.677 177.376 154.674C177.434 154.603 177.492 154.533 177.552 154.463C177.616 154.483 177.693 154.528 177.777 154.601C177.777 154.601 178.118 154.718 178.304 154.61C178.304 154.61 178.479 154.581 178.304 154.347C178.128 154.114 179.258 154.932 179.258 154.932C179.258 154.932 179.375 155.194 179.618 154.806C179.861 154.417 180.612 154.31 180.807 154.436C180.807 154.436 181.684 154.572 181.703 154.446C181.723 154.32 181.888 154.183 182.258 154.222C182.628 154.261 183.124 154.66 183.124 154.66C183.124 154.66 183.192 154.786 183.211 154.495C183.231 154.203 183.903 154.515 183.903 154.515L184.438 154.573C184.438 154.573 184.847 154.807 184.438 155.381C184.438 155.381 184.301 155.741 184.661 156.053C184.661 156.053 184.817 156.393 184.555 156.822C184.555 156.822 184.525 156.987 184.778 157.006C185.031 157.026 184.408 157.483 184.408 157.483C184.408 157.483 184.077 157.6 184.252 157.873C184.427 158.146 184.398 158.165 183.804 158.457L183.541 158.711L182.918 157.717C182.918 157.717 182.821 157.6 182.636 157.698C182.636 157.698 182.168 156.509 181.603 157.318C181.603 157.318 181.068 157.483 180.951 156.909C180.834 156.335 179.665 158.565 179.841 158.974C180.016 159.384 180.074 159.617 180.503 159.782C180.503 159.782 180.765 160.025 180.756 160.328C180.756 160.328 181.419 160.454 181.477 160.727C181.536 161 182.032 160.64 182.032 160.64C182.032 160.64 182.5 160.659 182.119 161.127C181.74 161.594 182.275 161.584 182.275 161.584C182.275 161.584 182.528 161.643 181.963 162.003C181.963 162.003 181.807 162.86 181.32 162.314C181.32 162.314 181.186 161.604 180.552 162.11C180.552 162.11 180.337 162.5 180.006 162.178C180.006 162.178 179.752 162.052 179.635 162.431C179.635 162.431 179.256 162.119 178.905 162.061C178.555 162.003 178.799 162.577 178.799 162.577C178.799 162.577 178.263 162.859 178.643 163.103C179.022 163.346 179.314 163.287 179.081 163.687C178.847 164.086 179.49 164.33 179.49 164.33C179.49 164.33 179.479 164.934 178.955 165.567C178.955 165.567 178.799 165.606 179.12 165.898C179.12 165.898 179.324 166.57 178.613 166.57C177.902 166.57 177.941 166.988 177.941 166.988C177.941 166.988 178.097 167.426 178.535 167.387C178.973 167.348 177.561 168.176 177.561 168.176C177.561 168.176 177.474 168.273 177.619 168.302C177.628 168.304 177.612 168.305 177.576 168.305C175.973 166.435 175.006 164.013 175.006 161.366C175.008 158.916 175.84 156.656 177.24 154.847Z" fill="#7B7B7B"/>
<path d="M113.359 224V201.453H127.438V204.469H116.859V211.609H126.547V214.562H116.859V224H113.359ZM130.203 224V201.453H133.578V224H130.203ZM138.984 229.484C138.328 229.484 137.625 229.406 137.219 229.328V226.688C137.484 226.75 137.875 226.812 138.328 226.812C139.922 226.812 140.797 226.391 141.359 224.797L141.641 224.016L135.656 207.562H139.312L143.453 220.938H143.562L147.703 207.562H151.266L145.141 224.766C143.922 228.172 142.203 229.484 138.984 229.484ZM160.141 224V201.453H174.219V204.469H163.641V211.609H173.328V214.562H163.641V224H160.141ZM176.859 224V207.562H180.234V210.375H180.312C180.844 208.453 182.219 207.25 184.094 207.25C184.578 207.25 185 207.328 185.266 207.375V210.516C185 210.406 184.406 210.328 183.75 210.328C181.578 210.328 180.234 211.75 180.234 214.203V224H176.859ZM189.188 205.031C188.094 205.031 187.219 204.156 187.219 203.094C187.219 202.016 188.094 201.141 189.188 201.141C190.297 201.141 191.156 202.016 191.156 203.094C191.156 204.156 190.297 205.031 189.188 205.031ZM187.5 224V207.562H190.875V224H187.5ZM201.375 224.328C196.547 224.328 193.625 221.031 193.625 215.844V215.828C193.625 210.688 196.594 207.25 201.203 207.25C205.812 207.25 208.641 210.562 208.641 215.5V216.641H197C197.062 219.75 198.766 221.562 201.453 221.562C203.453 221.562 204.781 220.531 205.203 219.297L205.25 219.172H208.453L208.422 219.344C207.891 221.953 205.359 224.328 201.375 224.328ZM201.219 210.016C199.031 210.016 197.344 211.5 197.047 214.25H205.297C205.016 211.406 203.422 210.016 201.219 210.016ZM211.266 224V207.562H214.641V210.047H214.719C215.578 208.375 217.266 207.25 219.75 207.25C223.359 207.25 225.438 209.578 225.438 213.359V224H222.047V214C222.047 211.531 220.891 210.141 218.547 210.141C216.172 210.141 214.641 211.859 214.641 214.422V224H211.266ZM234.844 224.328C230.656 224.328 227.969 221.016 227.969 215.781V215.766C227.969 210.531 230.688 207.25 234.812 207.25C237.141 207.25 239.016 208.422 240 210.359H240.062V201.453H243.453V224H240.062V221.219H240C239.016 223.141 237.203 224.328 234.844 224.328ZM235.734 221.422C238.281 221.422 240.078 219.203 240.078 215.781V215.766C240.078 212.359 238.266 210.141 235.734 210.141C233.078 210.141 231.422 212.297 231.422 215.766V215.781C231.422 219.281 233.062 221.422 235.734 221.422ZM253.078 224.328C248.969 224.328 246.562 222.297 246.219 219.297L246.203 219.156H249.547L249.578 219.312C249.891 220.828 251.016 221.719 253.094 221.719C255.125 221.719 256.344 220.875 256.344 219.547V219.531C256.344 218.469 255.75 217.859 253.984 217.438L251.297 216.828C248.172 216.109 246.625 214.609 246.625 212.219V212.203C246.625 209.266 249.188 207.25 252.969 207.25C256.859 207.25 259.203 209.422 259.375 212.219L259.391 212.406H256.219L256.203 212.297C256 210.859 254.875 209.859 252.969 209.859C251.156 209.859 250.016 210.719 250.016 212.031V212.047C250.016 213.062 250.688 213.75 252.453 214.172L255.125 214.781C258.484 215.562 259.766 216.891 259.766 219.25V219.266C259.766 222.266 256.953 224.328 253.078 224.328Z" fill="#7B7B7B"/>
</svg>
