<svg width="20" height="20" viewBox="0 0 20 20" fill="none" xmlns="http://www.w3.org/2000/svg">
<g clip-path="url(#clip0_135_707)">
<path d="M18.9854 19.1176H17.6707V18.4588C17.6707 17.6176 16.9854 16.9353 16.1472 16.9353H15.906V11.0441C16.6354 10.9794 17.2089 10.3735 17.2089 9.62941V9.28823C17.2089 8.74117 16.7648 8.29705 16.2178 8.29705H15.7031C15.8766 8.06176 15.9825 7.77353 15.9825 7.45882V7.1147C15.9825 6.57058 15.5384 6.12647 14.9913 6.12647H14.5501C14.7236 5.88823 14.8266 5.6 14.8266 5.28823V4.94411C14.8266 4.4 14.3825 3.95294 13.8354 3.95294H13.0884L10.8736 0.752937C10.6766 0.464701 10.3501 0.294113 10.0001 0.294113C9.65306 0.294113 9.32659 0.464701 9.12659 0.752937L6.91188 3.95294H6.16482C5.61776 3.95294 5.17364 4.4 5.17364 4.94411V5.28823C5.17364 5.6 5.27953 5.88823 5.45012 6.12647H5.00894C4.46482 6.12647 4.0207 6.57058 4.0207 7.1147V7.45882C4.0207 7.77353 4.12364 8.06176 4.29717 8.29705H3.78247C3.23541 8.29705 2.79129 8.74117 2.79129 9.28823V9.62941C2.79129 10.3735 3.36482 10.9794 4.09423 11.0441V16.9353H3.856C3.01482 16.9353 2.32953 17.6176 2.32953 18.4588V19.1176H1.01482C0.853056 19.1176 0.720703 19.25 0.720703 19.4118C0.720703 19.5735 0.853056 19.7059 1.01482 19.7059H18.9854C19.1472 19.7059 19.2795 19.5735 19.2795 19.4118C19.2795 19.25 19.1472 19.1176 18.9854 19.1176ZM9.61188 1.08823C9.70012 0.955878 9.84423 0.882348 10.0001 0.882348C10.1589 0.882348 10.3001 0.955878 10.3884 1.08823L12.3736 3.95294H7.62659L9.61188 1.08823ZM5.76188 4.94411C5.76188 4.72353 5.94129 4.54117 6.16482 4.54117H13.8354C14.0589 4.54117 14.2384 4.72353 14.2384 4.94411V5.28823C14.2384 5.75 13.8648 6.12647 13.4001 6.12647H6.60012C6.13835 6.12647 5.76188 5.75 5.76188 5.28823V4.94411ZM4.60894 7.1147C4.60894 6.89411 4.78835 6.7147 5.00894 6.7147H14.9913C15.2119 6.7147 15.3942 6.89411 15.3942 7.1147V7.45882C15.3942 7.92058 15.0178 8.29705 14.556 8.29705H5.44717C4.98247 8.29705 4.60894 7.92058 4.60894 7.45882V7.1147ZM3.37953 9.62941V9.28823C3.37953 9.06473 3.55894 8.88529 3.78247 8.88529H16.2178C16.4413 8.88529 16.6207 9.0647 16.6207 9.28823V9.62941C16.6207 10.0912 16.2442 10.4676 15.7825 10.4676H4.21776C3.756 10.4676 3.37953 10.0912 3.37953 9.62941ZM15.3178 11.0559V16.9353H13.6001V11.0559H15.3178ZM13.0119 11.0559V16.9353H6.98835V11.0559H13.0119ZM6.40012 11.0559V16.9353H4.68247V11.0559H6.40012ZM17.0825 19.1176H2.91776V18.4588C2.91776 17.9441 3.33835 17.5235 3.856 17.5235H16.1472C16.6619 17.5235 17.0825 17.9441 17.0825 18.4588V19.1176Z" fill="#252525"/>
</g>
<defs>
<clipPath id="clip0_135_707">
<rect width="20" height="20" fill="white"/>
</clipPath>
</defs>
</svg>
