<svg width="40" height="40" viewBox="0 0 40 40" fill="none" xmlns="http://www.w3.org/2000/svg">
<path d="M27.0761 13.3432C26.6504 12.9174 26.1451 12.5796 25.5889 12.3491C25.0327 12.1186 24.4365 12 23.8344 12C23.2323 12 22.6362 12.1186 22.0799 12.3491C21.5237 12.5796 21.0184 12.9174 20.5927 13.3432L19.7094 14.2265L18.8261 13.3432C17.9663 12.4834 16.8003 12.0004 15.5844 12.0004C14.3685 12.0004 13.2025 12.4834 12.3427 13.3432C11.483 14.2029 11 15.369 11 16.5849C11 17.8007 11.483 18.9668 12.3427 19.8265L13.2261 20.7099L19.7094 27.1932L26.1927 20.7099L27.0761 19.8265C27.5019 19.4009 27.8397 18.8955 28.0702 18.3393C28.3006 17.7831 28.4193 17.1869 28.4193 16.5849C28.4193 15.9828 28.3006 15.3866 28.0702 14.8304C27.8397 14.2742 27.5019 13.7688 27.0761 13.3432Z" fill="url(#paint0_linear_378_2335)"/>
<circle cx="26.5" cy="20.5" r="5" fill="url(#paint1_linear_378_2335)" stroke="white"/>
<path d="M29 19.5L26.25 22.25L25 21" stroke="white" stroke-linecap="round" stroke-linejoin="round"/>
<defs>
<linearGradient id="paint0_linear_378_2335" x1="19.7096" y1="12" x2="19.7096" y2="27.1932" gradientUnits="userSpaceOnUse">
<stop stop-color="#FFCE00"/>
<stop offset="1" stop-color="#FD6700"/>
</linearGradient>
<linearGradient id="paint1_linear_378_2335" x1="26.5" y1="16" x2="26.5" y2="25" gradientUnits="userSpaceOnUse">
<stop stop-color="#FFCE00"/>
<stop offset="1" stop-color="#FD6700"/>
</linearGradient>
</defs>
</svg>
