<svg width="24" height="24" viewBox="0 0 24 24" fill="none" xmlns="http://www.w3.org/2000/svg">
<path fill-rule="evenodd" clip-rule="evenodd" d="M12 3.06343C12 2.44501 12.5029 1.93721 13.1174 2.00631C14.5154 2.16351 15.8688 2.61445 17.0872 3.33437C18.6279 4.24479 19.8961 5.55201 20.7595 7.11962C21.6228 8.68724 22.0496 10.4578 21.9954 12.2466C21.9412 14.0354 21.4079 15.7769 20.4512 17.2894C19.4946 18.8018 18.1495 20.0298 16.5565 20.8453C14.9634 21.6607 13.1807 22.0337 11.3944 21.9253C9.60803 21.8169 7.88351 21.2312 6.40073 20.2291C5.22822 19.4367 4.24084 18.407 3.49982 17.2112C3.17407 16.6856 3.41742 16.0136 3.9762 15.7486C4.53497 15.4836 5.19637 15.7277 5.53894 16.2425C6.09675 17.0809 6.81446 17.8058 7.65468 18.3736C8.80539 19.1512 10.1437 19.6058 11.53 19.6899C12.9163 19.774 14.2998 19.4846 15.536 18.8518C16.7723 18.2189 17.8162 17.2659 18.5586 16.0922C19.301 14.9185 19.7149 13.567 19.7569 12.1788C19.799 10.7906 19.4678 9.41652 18.7978 8.19997C18.1278 6.98342 17.1436 5.96895 15.9479 5.26242C15.0749 4.74653 14.1124 4.40862 13.1159 4.26382C12.5039 4.1749 12 3.68185 12 3.06343ZM7.02205 3.27073C6.4857 3.57858 6.38067 4.28549 6.74652 4.78408C7.11237 5.28267 7.81031 5.3821 8.35632 5.09174C8.74177 4.88677 9.14384 4.71468 9.55823 4.57733C10.1452 4.38274 10.5551 3.80917 10.447 3.20029C10.3388 2.5914 9.75489 2.17936 9.1619 2.35488C8.41541 2.57582 7.69724 2.8832 7.02205 3.27073ZM3.59608 9.07434C3.01084 8.87452 2.69276 8.23454 2.95672 7.67529C3.28902 6.97126 3.70242 6.30842 4.18847 5.70029C4.57457 5.21721 5.28923 5.22131 5.72614 5.65897C6.16305 6.09664 6.15478 6.80157 5.78448 7.29687C5.52308 7.64652 5.29164 8.01762 5.09264 8.40618C4.81074 8.95662 4.18133 9.27416 3.59608 9.07434ZM2.00883 13.4749C2.03481 14.0928 2.61374 14.5118 3.22484 14.4169C3.83594 14.3221 4.24586 13.7485 4.23986 13.1301C4.23562 12.6936 4.26822 12.2575 4.33733 11.8264C4.43521 11.2158 4.11513 10.5877 3.52493 10.403C2.93473 10.2183 2.29992 10.5466 2.18236 11.1537C2.03436 11.918 1.97612 12.6971 2.00883 13.4749ZM7.55641 12.0539C7.55641 11.5016 8.00413 11.0539 8.55641 11.0539H11.112V8.49836C11.112 7.94608 11.5597 7.49836 12.112 7.49836C12.6642 7.49836 13.112 7.94608 13.112 8.49836V11.0539H15.4453C15.9976 11.0539 16.4453 11.5016 16.4453 12.0539C16.4453 12.6062 15.9976 13.0539 15.4453 13.0539H13.112V15.3872C13.112 15.9395 12.6642 16.3872 12.112 16.3872C11.5597 16.3872 11.112 15.9395 11.112 15.3872V13.0539H8.55641C8.00413 13.0539 7.55641 12.6062 7.55641 12.0539Z" fill="#70777C"/>
</svg>
