<svg width="57" height="56" viewBox="0 0 57 56" fill="none" xmlns="http://www.w3.org/2000/svg">
<rect x="0.5" width="56" height="56" rx="28" fill="#F2F4F7"/>
<path d="M40.9443 42V38.8889C40.9443 37.2387 40.2888 35.656 39.1219 34.4891C37.955 33.3222 36.3723 32.6667 34.7221 32.6667H22.2776C20.6274 32.6667 19.0448 33.3222 17.8779 34.4891C16.711 35.656 16.0554 37.2387 16.0554 38.8889V42M34.7221 20.2222C34.7221 23.6587 31.9363 26.4444 28.4999 26.4444C25.0634 26.4444 22.2776 23.6587 22.2776 20.2222C22.2776 16.7858 25.0634 14 28.4999 14C31.9363 14 34.7221 16.7858 34.7221 20.2222Z" stroke="#98A2B3" stroke-width="1.5" stroke-linecap="round" stroke-linejoin="round"/>
</svg>
