<svg width="10" height="16" viewBox="0 0 10 16" fill="none" xmlns="http://www.w3.org/2000/svg">
<g clip-path="url(#clip0_1570_37555)">
<path d="M8.64037 7.02399H5.72463L6.37047 1.73637C6.37172 1.69201 6.35923 1.64835 6.33472 1.61136C6.3102 1.57436 6.27484 1.54585 6.2335 1.52973C6.19215 1.5136 6.14683 1.51065 6.10374 1.52127C6.06065 1.5319 6.02189 1.55558 5.99278 1.58908L0.961998 8.76512C0.917291 8.82953 0.891021 8.90493 0.886023 8.98318C0.881025 9.06143 0.897488 9.13955 0.933637 9.20913C0.969786 9.27871 1.02425 9.33709 1.09115 9.37799C1.15805 9.41888 1.23484 9.44073 1.31325 9.44118H4.21388L3.57559 14.623C3.57351 14.6677 3.5854 14.712 3.60961 14.7496C3.63382 14.7872 3.66915 14.8163 3.71068 14.8329C3.75222 14.8496 3.7979 14.8528 3.84138 14.8423C3.88485 14.8317 3.92396 14.8079 3.95328 14.7741L8.99161 7.68871C9.03331 7.62443 9.05709 7.55018 9.06051 7.47364C9.06392 7.39709 9.04685 7.32102 9.01106 7.25328C8.97526 7.18553 8.92203 7.12857 8.85687 7.08826C8.7917 7.04795 8.71697 7.02576 8.64037 7.02399Z" stroke="#F2B300" stroke-linecap="round" stroke-linejoin="round"/>
</g>
<defs>
<clipPath id="clip0_1570_37555">
<rect width="10" height="15" fill="white" transform="translate(0 0.5)"/>
</clipPath>
</defs>
</svg>
