<svg width="104" height="63" viewBox="0 0 104 63" fill="none" xmlns="http://www.w3.org/2000/svg">
<g clip-path="url(#clip0_3702_18016)">
<rect width="104" height="63" rx="8" fill="#FEF5EF"/>
<path d="M24.7397 58.1784L1.55302 45.2142C0.982782 44.8954 0.244976 45.1196 -0.0865463 45.7126L-1.29208 47.8687C-1.6236 48.4616 -1.42829 49.2076 -0.858045 49.5265L22.3287 62.4906C22.8989 62.8095 23.6367 62.5852 23.9682 61.9923L25.1738 59.8361C25.5053 59.2432 25.31 58.4972 24.7397 58.1784ZM43.899 38.0733C42.1818 37.1132 39.9786 37.7829 38.9803 39.5684C38.7128 40.0468 38.5678 40.5495 38.5195 41.062L32.1929 41.3631C30.8484 41.425 29.7548 40.3536 29.7657 38.9801L29.8567 26.419C30.8816 26.2137 31.8325 25.5779 32.3976 24.5673C33.3959 22.7817 32.8127 20.5541 31.0954 19.594C29.3782 18.6338 27.1751 19.3035 26.1767 21.0891C25.6116 22.0997 25.568 23.2428 25.9298 24.2234L15.2764 30.8788C14.112 31.6074 12.6201 31.2332 11.9752 30.0589L8.92519 24.5152C9.32619 24.2087 9.68876 23.8189 9.95624 23.3405C10.9546 21.555 10.3713 19.3273 8.65413 18.3672C6.93692 17.4071 4.72727 18.0731 3.72893 19.8587C2.7306 21.6442 3.31384 23.8718 5.03104 24.832C5.19952 24.9262 5.38307 24.9934 5.56014 25.0571L3.09631 39.9742C3.02763 40.3901 3.22705 40.8043 3.59493 41.01L27.2521 54.2372C27.6199 54.4429 28.0773 54.3958 28.3956 54.1196L39.8135 44.2088C39.9605 44.3264 40.1139 44.4475 40.2824 44.5417C41.9996 45.5018 44.2027 44.8322 45.2011 43.0466C46.1994 41.2611 45.6162 39.0335 43.899 38.0733Z" fill="#FFEBEB"/>
</g>
<defs>
<clipPath id="clip0_3702_18016">
<rect width="104" height="63" rx="8" fill="white"/>
</clipPath>
</defs>
</svg>
