<svg width="22" height="25" viewBox="0 0 22 25" fill="none" xmlns="http://www.w3.org/2000/svg">
<g clip-path="url(#clip0_4861_2012)">
<path d="M10.1642 0H11.7552C11.7744 0.0642426 11.8288 0.0403275 11.871 0.0468924C12.5061 0.110066 13.1328 0.239891 13.7406 0.434223C15.343 0.964577 16.7042 1.86491 17.8043 3.15023C19.0475 4.6039 19.7616 6.29202 19.93 8.1907C20.111 10.2277 19.6435 12.1226 18.5349 13.8478C18.4515 13.9772 18.4515 14.0687 18.5194 14.2046C19.4592 16.0744 20.3944 17.9462 21.325 19.82C21.4122 19.9949 21.4971 20.1703 21.4624 20.3762C21.3963 20.7738 21.1182 20.9909 20.6568 20.9919C19.636 20.9919 18.6151 20.9979 17.5943 20.9876C17.4151 20.9876 17.3152 21.0467 17.2135 21.1846C16.6264 21.9818 16.0276 22.77 15.4386 23.5662C15.2923 23.7637 15.1301 23.9292 14.8895 24.0014H14.5613C14.2696 23.8532 14.1153 23.5958 13.9746 23.3116C13.155 21.6521 12.3184 20.0005 11.5048 18.3377C11.3735 18.0686 11.2427 17.9274 10.921 17.9626C10.7414 17.9818 10.6542 18.0217 10.5731 18.1849C9.71305 19.9246 8.83757 21.6596 7.97803 23.4035C7.83735 23.6849 7.66948 23.909 7.35858 23.9995H7.03034C6.77712 23.8518 6.6083 23.6244 6.43621 23.3946C5.88429 22.6481 5.32392 21.9086 4.7734 21.1611C4.737 21.1034 4.68554 21.0567 4.62456 21.026C4.56358 20.9954 4.49539 20.9819 4.42734 20.9872C3.39805 20.9947 2.36876 20.9923 1.33994 20.99C0.902906 20.99 0.622021 20.7822 0.542773 20.417C0.49588 20.1937 0.584039 20.0034 0.678292 19.8144C1.59879 17.9687 2.51554 16.1211 3.44494 14.2811C3.54764 14.078 3.52841 13.9463 3.41681 13.7606C1.72868 10.9508 1.53033 8.02892 2.95304 5.07845C4.2876 2.31179 6.53703 0.676188 9.56487 0.127078C9.76463 0.0890952 9.97846 0.108321 10.1642 0ZM11.0017 1.40677C6.84371 1.40677 3.42619 4.82992 3.43181 8.99162C3.43744 13.1604 6.86903 16.5882 11.0106 16.5643C15.1873 16.5394 18.5663 13.1716 18.5602 8.99443C18.5574 4.791 15.1962 1.43585 11.0017 1.40677ZM7.11756 21.9578C7.15976 21.8809 7.18743 21.835 7.21134 21.7876C7.84345 20.5215 8.4704 19.2521 9.11048 17.9893C9.19817 17.8168 9.1691 17.7778 8.99513 17.738C7.33185 17.3558 5.89648 16.5549 4.68572 15.3516C4.57364 15.2405 4.53003 15.2311 4.45125 15.3877C3.79476 16.7201 3.13202 18.0487 2.46302 19.3736C2.38002 19.5382 2.37533 19.5907 2.58822 19.5874C3.33615 19.5762 4.08455 19.5935 4.83202 19.5785C5.18512 19.5715 5.43646 19.6976 5.64326 19.9827C6.11969 20.6416 6.61299 21.2845 7.11756 21.9578ZM14.8623 21.9344C14.9533 21.9011 14.9828 21.8228 15.0283 21.7628C15.4597 21.1902 15.9019 20.6247 16.3141 20.0381C16.5486 19.7032 16.8346 19.5663 17.2407 19.578C17.9727 19.5996 18.7056 19.5851 19.4381 19.5823C19.4934 19.5823 19.5609 19.6146 19.6163 19.5396L17.4437 15.1884C17.3499 15.2972 17.2909 15.3802 17.2182 15.4506C16.091 16.5469 14.6936 17.3251 13.1681 17.7061C12.8009 17.7999 12.8004 17.7999 12.9693 18.137C13.6001 19.4022 14.2311 20.668 14.8623 21.9344Z" fill="#004EEB"/>
<path d="M7.21838 13.0593C7.28121 12.1561 7.34075 11.2524 7.40921 10.3497C7.41576 10.2849 7.40845 10.2194 7.38775 10.1576C7.36706 10.0959 7.33346 10.0392 7.28918 9.99143C6.7045 9.30066 6.12545 8.60568 5.54499 7.91163C5.09488 7.3728 5.27492 6.82132 5.96041 6.64546C6.81937 6.42693 7.67787 6.2084 8.53918 5.99925C8.62127 5.98279 8.69878 5.94863 8.76632 5.89914C8.83385 5.84966 8.88978 5.78604 8.93022 5.71272C9.39205 4.95442 9.86795 4.2041 10.3392 3.45237C10.7143 2.85493 11.2938 2.85774 11.6698 3.45753C12.1452 4.21676 12.624 4.97412 13.09 5.73898C13.1275 5.80514 13.1789 5.86235 13.2406 5.90665C13.3024 5.95095 13.3731 5.98126 13.4478 5.99549C14.3236 6.20934 15.198 6.43021 16.0734 6.65203C16.7298 6.81757 16.9071 7.37187 16.4715 7.89662C15.8938 8.59317 15.3131 9.28691 14.7292 9.97783C14.6818 10.0273 14.6456 10.0865 14.6231 10.1512C14.6006 10.2159 14.5923 10.2848 14.5988 10.353C14.6706 11.2632 14.7306 12.1749 14.7911 13.086C14.8225 13.5625 14.5965 13.8795 14.1895 13.9442C14.0202 13.971 13.866 13.9166 13.7141 13.8556C12.8701 13.5165 12.0262 13.1784 11.1873 12.8323C11.1289 12.8053 11.0653 12.7914 11.001 12.7914C10.9366 12.7914 10.873 12.8053 10.8146 12.8323C9.98798 13.1709 9.14449 13.4725 8.33382 13.8443C7.74867 14.1168 7.1171 13.7824 7.21838 13.0593ZM13.2996 12.1706C13.2996 12.0726 13.3038 12.0037 13.2996 11.9362C13.2602 11.3598 13.2316 10.7821 13.1744 10.2076C13.1402 9.86716 13.2086 9.58626 13.4403 9.32505C13.8486 8.8636 14.2336 8.38152 14.6312 7.91116C14.716 7.81034 14.7451 7.76344 14.5754 7.72358C13.9546 7.57914 13.3385 7.4136 12.7191 7.26401C12.5934 7.23792 12.4746 7.18553 12.3705 7.11029C12.2664 7.03505 12.1794 6.93865 12.1152 6.82741C11.8142 6.3261 11.5001 5.83371 11.1878 5.34131C11.1311 5.25127 11.094 5.14575 10.9871 5.06838C10.6219 5.65222 10.2548 6.22716 9.90124 6.811C9.83317 6.92878 9.7408 7.03072 9.63029 7.11004C9.51978 7.18936 9.39366 7.24424 9.2603 7.27104C8.65499 7.41173 8.05578 7.58055 7.44953 7.71936C7.25261 7.76625 7.28918 7.81315 7.38811 7.93039C7.80259 8.41763 8.20863 8.9119 8.62217 9.39961C8.77596 9.58157 8.8566 9.78228 8.83879 10.0214C8.81722 10.3028 8.7919 10.5814 8.77502 10.8618C8.74642 11.2885 8.7211 11.7153 8.69484 12.1378C8.77315 12.157 8.81956 12.1261 8.8702 12.1055C9.44597 11.871 10.0246 11.6454 10.598 11.4053C10.8727 11.2904 11.133 11.2782 11.4068 11.4053C11.6459 11.5169 11.8944 11.6084 12.1391 11.7069C12.5194 11.8597 12.9001 12.0112 13.2996 12.1706Z" fill="#004EEB"/>
</g>
<defs>
<clipPath id="clip0_4861_2012">
<rect width="20.9406" height="24.0014" fill="white" transform="translate(0.529785)"/>
</clipPath>
</defs>
</svg>
