<svg width="24" height="24" viewBox="0 0 24 24" fill="none" xmlns="http://www.w3.org/2000/svg">
<circle cx="12" cy="12" r="11" fill="url(#paint0_linear_3690_17355)"/>
<path d="M3 12C3 16.9701 7.02993 21 12 21C16.9701 21 21 16.9701 21 12C21 7.02994 16.9701 3 12 3C7.02993 3 3 7.02994 3 12ZM6.32583 6.23142C6.69559 5.8597 7.35249 5.901 7.69668 6.34353L10.4659 9.94668C10.576 10.0863 10.5701 10.2791 10.4521 10.3971C10.3322 10.517 10.1355 10.521 9.99584 10.4069L6.42613 7.56491C6.00327 7.22465 5.96788 6.58938 6.32583 6.23142ZM4.54786 8.83938C4.7465 8.35555 5.36997 8.14117 5.85774 8.41848L9.79523 10.6882C9.95061 10.7767 10.0175 10.9556 9.95454 11.109C9.88964 11.2644 9.71066 11.3451 9.53562 11.2939L5.14969 10.0352C4.63046 9.88178 4.35511 9.30747 4.54786 8.83938ZM3.90472 11.9449C3.91258 11.4395 4.39248 11.0205 4.93138 11.0874L9.45695 11.6676C9.63592 11.6892 9.76967 11.8328 9.7677 12.002C9.76573 12.1672 9.63002 12.3068 9.45498 12.3245L4.94121 12.8497C4.38461 12.9106 3.89488 12.4681 3.90472 11.9449ZM4.49475 15.0406C4.29217 14.5588 4.58326 13.9648 5.12412 13.8153L9.51202 12.6333C9.68313 12.5861 9.85817 12.6648 9.92307 12.8182C9.98798 12.9736 9.91717 13.1584 9.75786 13.245L5.76726 15.4576C5.28933 15.7172 4.68946 15.5068 4.49475 15.0406ZM6.20389 17.6565C5.8538 17.2906 5.901 16.6573 6.32976 16.323L9.95454 13.5518C10.0981 13.4417 10.2948 13.4495 10.4108 13.5715C10.5249 13.6914 10.5269 13.8842 10.4148 14.0219L7.5767 17.5699C7.22465 18.0066 6.56577 18.0341 6.20389 17.6565ZM8.81184 19.4423C8.34768 19.2378 8.14904 18.634 8.41849 18.1619L10.7059 14.2146C10.7963 14.0573 10.9812 13.9904 11.1346 14.0573C11.2861 14.1241 11.3628 14.3011 11.3116 14.4722L10.047 18.8365C9.88767 19.3735 9.29174 19.6528 8.81184 19.4423ZM11.9449 20.0953C11.4395 20.0874 11.0205 19.6075 11.0874 19.0686L11.6676 14.543C11.6892 14.3641 11.8328 14.2303 12.002 14.2323C12.1672 14.2343 12.3068 14.37 12.3245 14.545L12.8496 19.0588C12.9106 19.6174 12.4681 20.1051 11.9449 20.0953ZM15.0406 19.5072C14.5588 19.7098 13.9648 19.4187 13.8153 18.8778L12.6333 14.4899C12.5861 14.3188 12.6648 14.1438 12.8182 14.0789C12.9736 14.014 13.1584 14.0848 13.245 14.2441L15.4576 18.2347C15.7172 18.7107 15.5068 19.3105 15.0406 19.5072ZM17.6565 17.7961C17.2906 18.1462 16.6573 18.099 16.323 17.6702L13.5518 14.0455C13.4417 13.9019 13.4495 13.7052 13.5715 13.5892C13.6914 13.4751 13.8842 13.4731 14.0218 13.5852L17.5699 16.4233C18.0066 16.7753 18.0341 17.4342 17.6565 17.7961ZM19.4423 15.1882C19.2378 15.6523 18.634 15.851 18.1619 15.5815L14.2146 13.2941C14.0573 13.2037 13.9904 13.0188 14.0573 12.8654C14.1241 12.7139 14.3011 12.6372 14.4722 12.6884L18.8365 13.953C19.3735 14.1123 19.6527 14.7102 19.4423 15.1882ZM20.0953 12.0256C20.0992 12.5487 19.6075 12.9873 19.0509 12.9205L14.5431 12.354C14.366 12.3324 14.2343 12.1947 14.2323 12.0275C14.2303 11.8584 14.366 11.7148 14.547 11.6952L19.0785 11.1562C19.6154 11.0992 20.0913 11.5201 20.0953 12.0256ZM19.5131 8.99082C19.696 9.46285 19.4108 10.0312 18.8877 10.1748L14.4781 11.351C14.3031 11.3982 14.1241 11.3156 14.0632 11.1582C14.0022 11.0028 14.075 10.8258 14.2303 10.7413L18.2091 8.54633C18.7028 8.27688 19.3223 8.50306 19.5131 8.99082ZM17.7705 6.32584C18.1423 6.69559 18.101 7.35249 17.6584 7.69668L14.0553 10.4659C13.9156 10.5761 13.7229 10.5701 13.6049 10.4521C13.4849 10.3322 13.481 10.1355 13.5951 9.99585L16.4371 6.42613C16.7753 6.00327 17.4106 5.96788 17.7705 6.32584ZM15.1606 4.54785C15.6444 4.7465 15.8588 5.36998 15.5815 5.85774L13.3118 9.79523C13.2233 9.95061 13.0444 10.0175 12.8909 9.95455C12.7356 9.88964 12.6549 9.71066 12.7061 9.53561L13.9648 5.14969C14.1182 4.63046 14.6925 4.35511 15.1606 4.54785ZM12.0256 3.90473C12.5487 3.90079 12.9873 4.39249 12.9205 4.94909L12.354 9.45695C12.3324 9.63396 12.1947 9.76574 12.0275 9.76771C11.8584 9.76967 11.7148 9.63396 11.6951 9.45301L11.1563 4.92155C11.0992 4.38462 11.5201 3.90866 12.0256 3.90473ZM8.99082 4.48886C9.46285 4.30594 10.0312 4.59113 10.1748 5.11429L11.351 9.52381C11.3982 9.69886 11.3156 9.87784 11.1582 9.93881C11.0028 9.99978 10.8258 9.92701 10.7413 9.77163L8.54633 5.79283C8.27688 5.2972 8.50306 4.67767 8.99082 4.48886Z" fill="url(#paint1_linear_3690_17355)"/>
<defs>
<linearGradient id="paint0_linear_3690_17355" x1="12" y1="1" x2="12" y2="23" gradientUnits="userSpaceOnUse">
<stop stop-color="#FFBBBD"/>
<stop offset="1" stop-color="#FFB466"/>
</linearGradient>
<linearGradient id="paint1_linear_3690_17355" x1="3" y1="12" x2="21" y2="12" gradientUnits="userSpaceOnUse">
<stop stop-color="white"/>
<stop offset="1" stop-color="#FFE9AE"/>
</linearGradient>
</defs>
</svg>
