<svg width="24" height="24" viewBox="0 0 24 24" fill="none" xmlns="http://www.w3.org/2000/svg">
<path d="M3.80078 10.5508L19.1332 10.5508C19.8916 10.5508 20.5751 10.0941 20.8655 9.39326C21.1557 8.6927 20.9951 7.8863 20.4589 7.3499L17.8794 4.77038C17.5869 4.47782 17.1114 4.47782 16.8189 4.77038C16.5261 5.06318 16.5261 5.53838 16.8189 5.83118L19.3984 8.4107C19.5057 8.51798 19.5376 8.67926 19.4795 8.81918C19.4217 8.95934 19.2849 9.05078 19.1332 9.05078L3.80078 9.05078C3.38678 9.05078 3.05078 9.38678 3.05078 9.80078C3.05078 10.2148 3.38678 10.5508 3.80078 10.5508Z" fill="#7C7C7C"/>
<path d="M3.80078 10.5508L19.1332 10.5508C19.8916 10.5508 20.5751 10.0941 20.8655 9.39326C21.1557 8.6927 20.9951 7.8863 20.4589 7.3499L17.8794 4.77038C17.5869 4.47782 17.1114 4.47782 16.8189 4.77038C16.5261 5.06318 16.5261 5.53838 16.8189 5.83118L19.3984 8.4107C19.5057 8.51798 19.5376 8.67926 19.4795 8.81918C19.4217 8.95934 19.2849 9.05078 19.1332 9.05078L3.80078 9.05078C3.38678 9.05078 3.05078 9.38678 3.05078 9.80078C3.05078 10.2148 3.38678 10.5508 3.80078 10.5508Z" stroke="#7C7C7C"/>
<path d="M20.3012 13.4495L4.96878 13.4495C4.21038 13.4495 3.52686 13.9062 3.23646 14.6067C2.9463 15.3075 3.10686 16.1139 3.64302 16.6501C4.8663 17.8736 6.22254 19.2296 6.22254 19.2296C6.5151 19.5224 6.99054 19.5224 7.2831 19.2296C7.5759 18.9371 7.5759 18.4616 7.2831 18.1691C7.2831 18.1691 5.9271 16.8128 4.70358 15.5895C4.5963 15.4823 4.56438 15.321 4.62246 15.1808C4.6803 15.0407 4.8171 14.9495 4.96878 14.9495L20.3012 14.9495C20.7152 14.9495 21.0512 14.6132 21.0512 14.1995C21.0512 13.7855 20.7152 13.4495 20.3012 13.4495Z" fill="#7C7C7C"/>
<path d="M20.3012 13.4495L4.96878 13.4495C4.21038 13.4495 3.52686 13.9062 3.23646 14.6067C2.9463 15.3075 3.10686 16.1139 3.64302 16.6501C4.8663 17.8736 6.22254 19.2296 6.22254 19.2296C6.5151 19.5224 6.99054 19.5224 7.2831 19.2296C7.5759 18.9371 7.5759 18.4616 7.2831 18.1691C7.2831 18.1691 5.9271 16.8128 4.70358 15.5895C4.5963 15.4823 4.56438 15.321 4.62246 15.1808C4.6803 15.0407 4.8171 14.9495 4.96878 14.9495L20.3012 14.9495C20.7152 14.9495 21.0512 14.6132 21.0512 14.1995C21.0512 13.7855 20.7152 13.4495 20.3012 13.4495Z" stroke="#7C7C7C"/>
</svg>
