<svg width="33" height="32" viewBox="0 0 33 32" fill="none" xmlns="http://www.w3.org/2000/svg">
<circle cx="16.5" cy="16" r="16" fill="white"/>
<path d="M24.4293 11.3825C24.3347 11.2286 24.1616 11.1414 23.9815 11.157L23.1836 11.2265L23.9462 9.68921C24.037 9.50612 24.0012 9.28552 23.857 9.14062C23.7129 8.99571 23.4925 8.95877 23.309 9.04865L21.2906 10.0371C20.0436 9.3788 18.4857 9.57421 17.4137 10.5507C16.519 11.3657 16.0487 12.6191 16.1364 13.869C13.798 13.6346 11.8186 12.2961 10.6482 10.1334C10.5705 9.98996 10.4249 9.89612 10.2622 9.88459C10.0992 9.87324 9.94212 9.94549 9.84506 10.0766C9.11912 11.0573 9.06818 12.402 9.63728 13.5082C9.4804 13.4686 9.31347 13.4149 9.12834 13.3531C8.96975 13.3001 8.7949 13.334 8.66762 13.4425C8.54034 13.551 8.47915 13.7183 8.50637 13.8833C8.73156 15.2485 9.52769 16.2978 10.7853 16.9189C10.6216 16.9759 10.4545 17.0222 10.2846 17.0576C10.1157 17.0928 9.97906 17.2163 9.92703 17.3807C9.875 17.5451 9.91569 17.7248 10.0335 17.8507C10.9392 18.8187 12.2474 19.2952 13.1767 19.5238C12.1201 20.3512 10.9796 20.4897 9.32225 20.4327C9.1304 20.4269 8.95365 20.535 8.873 20.7089C8.79237 20.8828 8.82365 21.0882 8.9525 21.2302C9.64337 21.9917 12.1604 22.8504 14.8065 22.9148C14.9111 22.9173 15.0179 22.9187 15.1269 22.9187C16.9847 22.9187 19.4401 22.5204 21.2025 20.758C22.5365 19.4241 23.3708 17.8884 23.6824 16.1938C23.934 14.8252 23.775 13.7292 23.6985 13.2024C23.6929 13.1637 23.6869 13.1226 23.682 13.0867L24.4283 11.8838C24.5235 11.7304 24.5239 11.5363 24.4293 11.3825Z" fill="#252525"/>
</svg>
