<svg width="24" height="24" viewBox="0 0 24 24" fill="none" xmlns="http://www.w3.org/2000/svg">
<path fill-rule="evenodd" clip-rule="evenodd" d="M7.90882 0.0309053L22.5275 2.77136C22.7605 2.81503 22.9826 2.90416 23.1811 3.03366C23.3797 3.16317 23.5508 3.33051 23.6846 3.52614C23.8185 3.72176 23.9125 3.94184 23.9613 4.1738C24.0102 4.40577 24.0128 4.64507 23.9691 4.87806L21.2286 19.4967C21.185 19.7297 21.0958 19.9518 20.9663 20.1503C20.8368 20.3489 20.6695 20.52 20.4738 20.6538C20.2782 20.7877 20.0581 20.8817 19.8262 20.9305C19.5942 20.9793 19.3549 20.982 19.1219 20.9383L18.685 20.8563V22.1947C18.685 22.6734 18.4948 23.1325 18.1563 23.471C17.8178 23.8095 17.3587 23.9997 16.88 23.9997H2.00655C1.52789 23.9997 1.06883 23.8096 0.730331 23.4711C0.391834 23.1327 0.201625 22.6737 0.201538 22.195V7.32156C0.201513 7.08451 0.248183 6.84977 0.338883 6.63075C0.429582 6.41174 0.562535 6.21273 0.730149 6.0451C0.897762 5.87747 1.09675 5.7445 1.31576 5.65377C1.53477 5.56305 1.7695 5.51636 2.00655 5.51636H5.04405L5.80212 1.47245C5.89033 1.00193 6.16184 0.585719 6.55692 0.315378C6.952 0.0450369 7.43829 -0.0572905 7.90882 0.0309053ZM1.36812 8.02937V15.6834L6.6528 12.2059L9.80665 15.3599L11.8674 14.1027L17.5183 19.3996V7.94626C17.5183 7.61116 17.3852 7.28978 17.1483 7.05282C16.9113 6.81587 16.5899 6.68275 16.2548 6.68275H2.71474C2.35759 6.68275 2.01507 6.82463 1.76253 7.07717C1.50999 7.32971 1.36812 7.67223 1.36812 8.02937ZM20.597 16.5346L22.7073 5.27748C22.7378 5.1144 22.736 4.94689 22.7018 4.78452C22.6677 4.62215 22.6019 4.46809 22.5082 4.33116C22.4145 4.19422 22.2947 4.07708 22.1557 3.98642C22.0168 3.89576 21.8613 3.83337 21.6982 3.8028L8.3899 1.30797C8.21607 1.27537 8.03753 1.27733 7.86447 1.31374C7.69141 1.35015 7.52721 1.42029 7.38125 1.52015C7.23529 1.62002 7.11044 1.74765 7.01381 1.89577C6.91718 2.0439 6.85067 2.2096 6.81808 2.38342L6.23093 5.51655H16.8799C17.3586 5.51655 17.8177 5.70672 18.1562 6.04522C18.4947 6.38373 18.6849 6.84284 18.6849 7.32156V13.9253L20.597 16.5346ZM15.8613 10.1264C15.8613 11.3101 14.9017 12.2697 13.718 12.2697C12.5343 12.2697 11.5747 11.3101 11.5747 10.1264C11.5747 8.94273 12.5343 7.98316 13.718 7.98316C14.9017 7.98316 15.8613 8.94273 15.8613 10.1264Z" fill="url(#paint0_linear_3639_19728)"/>
<defs>
<linearGradient id="paint0_linear_3639_19728" x1="14.7781" y1="23.9997" x2="14.7781" y2="0" gradientUnits="userSpaceOnUse">
<stop stop-color="#0077DD"/>
<stop offset="1" stop-color="#00A8DD"/>
</linearGradient>
</defs>
</svg>
