<svg width="16" height="17" viewBox="0 0 16 17" fill="none" xmlns="http://www.w3.org/2000/svg">
<path d="M8.0003 13.1669V8.50021M8.19464 13.2233L12.847 14.7808C13.2116 14.9028 13.3939 14.9639 13.5063 14.9201C13.6039 14.882 13.678 14.8003 13.7062 14.6994C13.7388 14.5833 13.6602 14.4078 13.503 14.0569L8.51067 2.91513C8.35693 2.57199 8.28005 2.40043 8.17296 2.34727C8.07993 2.30108 7.97068 2.3009 7.87749 2.34679C7.77023 2.39961 7.69281 2.57093 7.53796 2.91356L2.50162 14.0576C2.34316 14.4082 2.26393 14.5835 2.29615 14.6998C2.32413 14.8008 2.39798 14.8828 2.49552 14.9211C2.60785 14.9652 2.79045 14.9046 3.15564 14.7834L7.85732 13.2229C7.91993 13.2021 7.95123 13.1917 7.98324 13.1876C8.01165 13.184 8.04041 13.184 8.06881 13.1877C8.10081 13.1919 8.13209 13.2024 8.19464 13.2233Z" stroke="#006EFF" stroke-width="1.5" stroke-linecap="round" stroke-linejoin="round"/>
</svg>
