<svg width="72" height="72" viewBox="0 0 72 72" fill="none" xmlns="http://www.w3.org/2000/svg">
<path d="M36 63C50.9117 63 63 50.9117 63 36C63 21.0883 50.9117 9 36 9C21.0883 9 9 21.0883 9 36C9 50.9117 21.0883 63 36 63Z" fill="#D9D9D9" stroke="white" stroke-width="2" stroke-miterlimit="10"/>
<path d="M36 45C42.2132 45 47.25 39.9632 47.25 33.75C47.25 27.5368 42.2132 22.5 36 22.5C29.7868 22.5 24.75 27.5368 24.75 33.75C24.75 39.9632 29.7868 45 36 45Z" stroke="white" stroke-width="2" stroke-miterlimit="10"/>
<path d="M17.9435 56.074C19.6383 52.7417 22.2222 49.9435 25.4091 47.989C28.5959 46.0345 32.2615 45 36 45C39.7384 45 43.404 46.0345 46.5909 47.989C49.7777 49.9434 52.3616 52.7417 54.0565 56.0739" stroke="white" stroke-width="2" stroke-linecap="round" stroke-linejoin="round"/>
</svg>
