<svg width="20" height="21" viewBox="0 0 20 21" fill="none" xmlns="http://www.w3.org/2000/svg">
<path d="M14.1667 17.9873V16.3206C14.1667 15.4366 13.8155 14.5887 13.1904 13.9636C12.5653 13.3385 11.7174 12.9873 10.8334 12.9873H4.16671C3.28265 12.9873 2.43481 13.3385 1.80968 13.9636C1.18456 14.5887 0.833374 15.4366 0.833374 16.3206V17.9873" stroke="#252525" stroke-width="1.3" stroke-linecap="round" stroke-linejoin="round"/>
<path d="M7.49996 9.65397C9.34091 9.65397 10.8333 8.16159 10.8333 6.32064C10.8333 4.47969 9.34091 2.9873 7.49996 2.9873C5.65901 2.9873 4.16663 4.47969 4.16663 6.32064C4.16663 8.16159 5.65901 9.65397 7.49996 9.65397Z" stroke="#252525" stroke-width="1.3" stroke-linecap="round" stroke-linejoin="round"/>
<path d="M19.1666 17.9874V16.3207C19.1661 15.5821 18.9203 14.8647 18.4678 14.281C18.0153 13.6973 17.3817 13.2803 16.6666 13.0957" stroke="#252525" stroke-width="1.3" stroke-linecap="round" stroke-linejoin="round"/>
<path d="M13.3334 3.0957C14.0504 3.27929 14.6859 3.69629 15.1397 4.28096C15.5936 4.86564 15.8399 5.58473 15.8399 6.32487C15.8399 7.06501 15.5936 7.7841 15.1397 8.36878C14.6859 8.95345 14.0504 9.37045 13.3334 9.55404" stroke="#252525" stroke-width="1.3" stroke-linecap="round" stroke-linejoin="round"/>
</svg>
