<svg width="11" height="12" viewBox="0 0 11 12" fill="none" xmlns="http://www.w3.org/2000/svg">
<g clip-path="url(#clip0_1700_5661)">
<path d="M11 0.60739C10.9794 0.766088 10.9553 0.924499 10.9384 1.08348C10.8786 1.64924 10.8238 2.21557 10.7602 2.78104C10.75 2.8283 10.7239 2.87065 10.6863 2.90106C9.75057 3.70792 8.81481 4.51363 7.87905 5.3182C6.67936 6.34945 5.47986 7.38127 4.28056 8.41366C4.25621 8.43458 4.23358 8.45721 4.20951 8.47955L4.90246 9.16905L4.45329 9.61994L1.8786 7.04583L2.31087 6.61614L3.00496 7.31338C3.05652 7.25465 3.09376 7.21341 3.12985 7.17015C4.95287 5.05036 6.77666 2.93123 8.60121 0.81278C8.6416 0.770704 8.69518 0.743715 8.75303 0.736296C9.44998 0.660098 10.1478 0.589057 10.8442 0.516296C10.861 0.512211 10.8774 0.506253 10.8929 0.498535H11.0003L11 0.60739Z" fill="url(#paint0_linear_1700_5661)"/>
<path d="M0.106779 0.5C0.340529 0.528646 0.573992 0.557291 0.808028 0.583932C1.29873 0.63664 1.79001 0.685338 2.28071 0.738619C2.31865 0.743651 2.35367 0.761669 2.37982 0.789609C3.27281 1.82487 4.16446 2.86118 5.05477 3.89854C5.06009 3.90768 5.0646 3.91726 5.06824 3.92719L3.55344 5.68919C3.38701 5.54596 3.22488 5.40818 3.06303 5.26896C2.14865 4.48234 1.23495 3.69506 0.321909 2.90711C0.27592 2.86586 0.245567 2.81001 0.235972 2.74898C0.158914 2.05203 0.0881585 1.3545 0.0151116 0.657838C0.0114084 0.640776 0.00563727 0.624231 -0.0020752 0.608568V0.501146L0.106779 0.5Z" fill="url(#paint1_linear_1700_5661)"/>
<path d="M-2.38419e-06 10.5116C0.0286434 10.4855 0.0592945 10.4606 0.0859351 10.4328C0.761977 9.75737 1.43764 9.08162 2.11291 8.40557C2.14156 8.37693 2.16362 8.34542 2.18166 8.32422L3.16651 9.30792C3.15247 9.3231 3.12755 9.35146 3.10062 9.3781C2.42267 10.0568 1.74472 10.7352 1.06677 11.4134C1.03812 11.442 1.01435 11.4707 0.987992 11.4993H0.902055C0.886077 11.4917 0.869503 11.4854 0.852498 11.4804C0.41393 11.3787 0.140362 11.108 0.0217687 10.6752C0.0151429 10.6557 0.00739575 10.6365 -0.00143433 10.6179L-2.38419e-06 10.5116Z" fill="url(#paint2_linear_1700_5661)"/>
<path d="M10.0117 11.5C9.98536 11.4714 9.96044 11.441 9.93294 11.4141C9.25747 10.7383 8.58181 10.0626 7.90596 9.38713C7.87983 9.36276 7.85248 9.33972 7.82404 9.3181L8.80802 8.33325C8.8232 8.34757 8.85185 8.3725 8.87849 8.39942L10.9123 10.4333C10.941 10.4619 10.9696 10.486 10.9983 10.5123V10.5983C10.9894 10.6286 10.9805 10.6587 10.9722 10.6894C10.8783 11.0348 10.6706 11.2835 10.3394 11.423C10.2612 11.4559 10.1773 11.4751 10.0959 11.5006L10.0117 11.5Z" fill="url(#paint3_linear_1700_5661)"/>
<path d="M6.54271 9.61944L6.09955 9.17829L6.79851 8.48134L5.99643 7.78868L7.37888 6.59874L7.97614 7.29111L8.65591 6.59473L9.11195 7.0502C8.26432 7.89783 7.40208 8.76007 6.54271 9.61944Z" fill="url(#paint4_linear_1700_5661)"/>
</g>
<defs>
<linearGradient id="paint0_linear_1700_5661" x1="9.66299" y1="8.28267" x2="3.21611" y2="1.83559" gradientUnits="userSpaceOnUse">
<stop stop-color="#0061FF"/>
<stop offset="0.131" stop-color="#066AFF"/>
<stop offset="0.35" stop-color="#1884FF"/>
<stop offset="0.629" stop-color="#34ADFF"/>
<stop offset="0.954" stop-color="#5AE6FF"/>
<stop offset="1" stop-color="#60EFFF"/>
</linearGradient>
<linearGradient id="paint1_linear_1700_5661" x1="4.32489" y1="4.92842" x2="0.65823" y2="1.34576" gradientUnits="userSpaceOnUse">
<stop stop-color="#0061FF"/>
<stop offset="0.131" stop-color="#066AFF"/>
<stop offset="0.35" stop-color="#1884FF"/>
<stop offset="0.629" stop-color="#34ADFF"/>
<stop offset="0.954" stop-color="#5AE6FF"/>
<stop offset="1" stop-color="#60EFFF"/>
</linearGradient>
<linearGradient id="paint2_linear_1700_5661" x1="2.70206" y1="11.0338" x2="0.457952" y2="8.79478" gradientUnits="userSpaceOnUse">
<stop stop-color="#0061FF"/>
<stop offset="0.131" stop-color="#066AFF"/>
<stop offset="0.35" stop-color="#1884FF"/>
<stop offset="0.629" stop-color="#34ADFF"/>
<stop offset="0.954" stop-color="#5AE6FF"/>
<stop offset="1" stop-color="#60EFFF"/>
</linearGradient>
<linearGradient id="paint3_linear_1700_5661" x1="10.5329" y1="11.0363" x2="8.29427" y2="8.79276" gradientUnits="userSpaceOnUse">
<stop stop-color="#0061FF"/>
<stop offset="0.131" stop-color="#066AFF"/>
<stop offset="0.35" stop-color="#1884FF"/>
<stop offset="0.629" stop-color="#34ADFF"/>
<stop offset="0.954" stop-color="#5AE6FF"/>
<stop offset="1" stop-color="#60EFFF"/>
</linearGradient>
<linearGradient id="paint4_linear_1700_5661" x1="8.65519" y1="9.176" x2="6.5183" y2="6.97495" gradientUnits="userSpaceOnUse">
<stop stop-color="#0061FF"/>
<stop offset="0.131" stop-color="#066AFF"/>
<stop offset="0.35" stop-color="#1884FF"/>
<stop offset="0.629" stop-color="#34ADFF"/>
<stop offset="0.954" stop-color="#5AE6FF"/>
<stop offset="1" stop-color="#60EFFF"/>
</linearGradient>
<clipPath id="clip0_1700_5661">
<rect width="11" height="11" fill="white" transform="translate(0 0.5)"/>
</clipPath>
</defs>
</svg>
