<svg width="328" height="44" viewBox="0 0 328 44" fill="none" xmlns="http://www.w3.org/2000/svg">
<rect width="328" height="44" rx="8" fill="#FFF6DC"/>
<mask id="mask0_995_4197" style="mask-type:alpha" maskUnits="userSpaceOnUse" x="272" y="-4" width="53" height="58">
<path d="M292.942 48.5949C286.595 46.1261 280.249 43.6575 273.901 41.1888C272.494 40.6416 272.462 38.6625 273.85 38.0695C277.559 36.4853 281.267 34.9012 284.976 33.317C286.197 32.7954 286.729 31.3552 286.141 30.165L279.702 17.1435C279.022 15.7674 279.96 14.1422 281.492 14.0434L295.988 13.1085C297.313 13.0231 298.294 11.8421 298.136 10.5239C297.653 6.51995 297.171 2.51628 296.689 -1.48762C296.508 -2.98638 298.238 -3.94784 299.416 -3.00306C304.727 1.25928 310.039 5.52153 315.35 9.78387L292.942 48.5949Z" fill="#FDE9B0"/>
<path d="M323.884 17.41L303.813 52.174C303.168 53.2915 301.739 53.6744 300.621 53.0292L296.177 50.4629L318.584 11.6519L323.029 14.2182C324.146 14.8635 324.529 16.2925 323.884 17.41Z" fill="#FDE9B0"/>
</mask>
<g mask="url(#mask0_995_4197)">
<rect x="270" y="44" width="44" height="58" transform="rotate(-90 270 44)" fill="#FDE9B0"/>
</g>
<mask id="mask1_995_4197" style="mask-type:alpha" maskUnits="userSpaceOnUse" x="-9" y="17" width="41" height="37">
<path d="M-5.1871 31.1459C-3.4603 26.7064 -1.73356 22.2669 -0.00675939 17.8274C0.375971 16.8432 1.76031 16.8205 2.17505 17.7916C3.28314 20.3857 4.39118 22.9796 5.49927 25.5737C5.86411 26.4278 6.87153 26.8 7.70402 26.3883L16.8122 21.8848C17.7747 21.4089 18.9115 22.0652 18.9806 23.1368L19.6345 33.2764C19.6942 34.2032 20.5203 34.8894 21.4424 34.7784C24.243 34.441 27.0434 34.1036 29.844 33.7662C30.8923 33.6399 31.5648 34.8501 30.904 35.6737C27.9226 39.3889 24.9413 43.1041 21.96 46.8193L-5.1871 31.1459Z" fill="#FDE9B0"/>
<path d="M16.6263 52.7888L-7.69001 38.7498C-8.47166 38.2985 -8.73949 37.2989 -8.2882 36.5173L-6.49316 33.4082L20.6539 49.0816L18.8589 52.1907C18.4075 52.9722 17.4079 53.2401 16.6263 52.7888Z" fill="#FDE9B0"/>
</mask>
<g mask="url(#mask1_995_4197)">
<path d="M0 16H32V44H8C3.58172 44 0 40.4183 0 36V16Z" fill="#FDE9B0"/>
</g>
</svg>
