<svg width="134" height="134" viewBox="0 0 134 134" fill="none" xmlns="http://www.w3.org/2000/svg">
<circle cx="67" cy="67" r="67" fill="#FFF6DC"/>
<g clip-path="url(#clip0_191_1235)">
<path d="M91.0618 59.3684L90.0706 52.538C89.5794 49.1528 85.6741 47.6384 83.1407 49.8508L79.3733 53.1408C77.815 54.5016 75.4311 53.9908 74.5278 52.1026L68.5271 39.5586C67.6985 37.8263 65.3024 37.8263 64.4735 39.5586L58.4728 52.1026C57.5696 53.9908 55.1856 54.5016 53.6274 53.1408L49.86 49.8508C47.3264 47.6384 43.4211 49.1528 42.93 52.538L41.9389 59.3684C41.6285 61.5079 39.4089 62.7375 37.5071 61.8235L29.3652 57.9114C25.6448 56.1237 21.8737 60.2782 23.8508 63.9869L37.5425 89.6698H95.4587L109.15 63.9869C111.127 60.2784 107.356 56.1237 103.636 57.9114L95.4935 61.8235C93.5917 62.7375 91.3722 61.5079 91.0618 59.3684Z" fill="url(#paint0_linear_191_1235)"/>
<path d="M88.9356 62.1208L88.0303 55.9108C87.5816 52.8329 84.0143 51.4561 81.7002 53.4676L78.2588 56.4588C76.8353 57.6961 74.6578 57.2315 73.8327 55.5149L68.3515 44.1104C67.5945 42.5353 65.4057 42.5353 64.6487 44.1104L59.1674 55.5149C58.3424 57.2315 56.1648 57.6961 54.7414 56.4588L51.3002 53.4678C48.9861 51.4564 45.4187 52.8331 44.9701 55.911L44.0647 62.121C43.7812 64.0661 41.7539 65.1839 40.0166 64.3531L32.5796 60.7963C29.1811 59.171 25.7367 62.9482 27.5424 66.3198L40.0488 89.6698H92.9516L105.458 66.3198C107.264 62.9482 103.819 59.171 100.421 60.7963L92.9837 64.3531C91.2465 65.1837 89.2192 64.0659 88.9356 62.1208Z" fill="url(#paint1_linear_191_1235)"/>
<path d="M86.3451 65.44L85.5444 59.9782C85.1475 57.2714 81.9921 56.0604 79.9452 57.8294L76.9013 60.4602C75.6422 61.5484 73.7161 61.1398 72.9863 59.63L68.138 49.5994C67.4685 48.2141 65.5325 48.2141 64.8629 49.5994L60.0146 59.63C59.2848 61.14 57.3587 61.5484 56.0996 60.4602L53.0553 57.8294C51.0082 56.0604 47.8528 57.2712 47.4561 59.9782L46.6554 65.44C46.4045 67.1508 44.6113 68.1339 43.0746 67.4031L36.4962 64.2747C33.4902 62.8453 30.4434 66.1672 32.0407 69.1327L43.1031 89.6694H89.8974L100.96 69.1327C102.557 66.1672 99.5103 62.8453 96.5043 64.2747L89.9259 67.4031C88.3892 68.1339 86.596 67.1508 86.3451 65.44Z" fill="url(#paint2_linear_191_1235)"/>
<path d="M96.8276 93.9218H36.1729C33.6968 93.9218 31.6895 91.8524 31.6895 89.2996C31.6895 86.7469 33.6968 84.6775 36.1729 84.6775H96.8274C99.3036 84.6775 101.311 86.7469 101.311 89.2996C101.311 91.8524 99.3036 93.9218 96.8276 93.9218Z" fill="url(#paint3_linear_191_1235)"/>
<path d="M96.8276 103.166H36.1729C33.6968 103.166 31.6895 101.096 31.6895 98.5437C31.6895 95.991 33.6968 93.9216 36.1729 93.9216H96.8274C99.3036 93.9216 101.311 95.991 101.311 98.5437C101.311 101.096 99.3036 103.166 96.8276 103.166Z" fill="url(#paint4_linear_191_1235)"/>
<path d="M73.703 38.1531C73.7596 42.2535 70.5809 45.6247 66.6028 45.6833C62.6248 45.7418 59.3538 42.4653 59.2971 38.3651C59.2405 34.2649 62.4192 30.8935 66.3973 30.8351C70.3755 30.7767 73.6461 34.0529 73.703 38.1531Z" fill="url(#paint5_linear_191_1235)"/>
<path d="M72.5113 38.1706C72.5586 41.5925 69.9056 44.4063 66.5855 44.4551C63.2655 44.5039 60.5358 41.7694 60.4884 38.3473C60.4411 34.9253 63.0941 32.1116 66.4142 32.0627C69.7342 32.0141 72.4639 34.7486 72.5113 38.1706Z" fill="url(#paint6_linear_191_1235)"/>
<path d="M69.6303 31.5704C70.13 32.5625 70.4195 33.6865 70.436 34.8802C70.4927 38.9804 67.3139 42.3517 63.3358 42.4104C62.1775 42.4274 61.0795 42.1612 60.103 41.6747C61.3193 44.0902 63.7833 45.7245 66.603 45.6831C70.5809 45.6247 73.7599 42.2533 73.7032 38.1529C73.6627 35.2468 72.0074 32.7547 69.6303 31.5704Z" fill="url(#paint7_linear_191_1235)"/>
<path d="M53.1502 48.7641C53.2069 52.8645 50.0282 56.2357 46.05 56.2943C42.0721 56.3527 38.8011 53.0763 38.7444 48.9761C38.6877 44.8759 41.8665 41.5045 45.8446 41.4461C49.8226 41.3872 53.0934 44.6637 53.1502 48.7641Z" fill="url(#paint8_linear_191_1235)"/>
<path d="M51.9585 48.7816C52.0059 52.2035 49.3529 55.0172 46.0328 55.0661C42.7127 55.1149 39.983 52.3804 39.9357 48.9582C39.8883 45.5363 42.5414 42.7225 45.8614 42.6737C49.1815 42.6249 51.9112 45.3596 51.9585 48.7816Z" fill="url(#paint9_linear_191_1235)"/>
<path d="M49.0776 42.1814C49.5772 43.1735 49.8667 44.2974 49.8833 45.4912C49.9399 49.5914 46.7612 52.9627 42.7831 53.0214C41.6248 53.0384 40.5268 52.7722 39.5503 52.2857C40.7666 54.7012 43.2306 56.3355 46.0502 56.2941C50.0282 56.2357 53.2071 52.8643 53.1505 48.7639C53.1101 45.8576 51.4549 43.3657 49.0776 42.1814Z" fill="url(#paint10_linear_191_1235)"/>
<path d="M94.2562 48.7641C94.3129 52.8645 91.1341 56.2357 87.156 56.2943C83.178 56.3527 79.907 53.0763 79.8504 48.9761C79.7937 44.8759 82.9724 41.5045 86.9506 41.4461C90.9285 41.3872 94.1995 44.6637 94.2562 48.7641Z" fill="url(#paint11_linear_191_1235)"/>
<path d="M93.065 48.7816C93.1124 52.2035 90.4593 55.0172 87.1392 55.0661C83.8192 55.1149 81.0895 52.3804 81.0421 48.9582C80.9948 45.5363 83.6478 42.7225 86.9679 42.6737C90.2878 42.6249 93.0176 45.3596 93.065 48.7816Z" fill="url(#paint12_linear_191_1235)"/>
<path d="M90.1835 42.1814C90.6832 43.1735 90.9727 44.2974 90.9892 45.4912C91.0459 49.5914 87.8671 52.9627 83.889 53.0214C82.7307 53.0384 81.6327 52.7722 80.6562 52.2857C81.8726 54.7012 84.3365 56.3355 87.1562 56.2941C91.1341 56.2357 94.3131 52.8643 94.2564 48.7639C94.2159 45.8576 92.5606 43.3657 90.1835 42.1814Z" fill="url(#paint13_linear_191_1235)"/>
<path d="M32.4066 60.3512C32.4633 64.4516 29.2845 67.8227 25.3064 67.8814C21.3284 67.9398 18.0574 64.6633 18.0007 60.5631C17.9441 56.4629 21.1228 53.0916 25.101 53.0329C29.0791 52.9743 32.3499 56.251 32.4066 60.3512Z" fill="url(#paint14_linear_191_1235)"/>
<path d="M31.2154 60.3686C31.2627 63.7906 28.6097 66.6043 25.2896 66.6531C21.9696 66.702 19.2399 63.9674 19.1925 60.5453C19.1452 57.1233 21.7982 54.3096 25.1183 54.2608C28.4383 54.212 31.168 56.9467 31.2154 60.3686Z" fill="url(#paint15_linear_191_1235)"/>
<path d="M28.3339 53.7684C28.8336 54.7606 29.1231 55.8845 29.1396 57.0782C29.1963 61.1784 26.0175 64.5498 22.0394 64.6084C20.8811 64.6255 19.7831 64.3592 18.8066 63.8727C20.0229 66.2882 22.4869 67.9225 25.3066 67.8812C29.2845 67.8227 32.4635 64.4514 32.4068 60.351C32.3665 57.4449 30.7112 54.9527 28.3339 53.7684Z" fill="url(#paint16_linear_191_1235)"/>
<path d="M114.999 60.3512C115.056 64.4516 111.877 67.8227 107.899 67.8814C103.921 67.9398 100.65 64.6633 100.594 60.5631C100.537 56.4629 103.716 53.0916 107.694 53.0329C111.672 52.9743 114.943 56.251 114.999 60.3512Z" fill="url(#paint17_linear_191_1235)"/>
<path d="M113.808 60.3686C113.856 63.7906 111.202 66.6043 107.882 66.6531C104.562 66.702 101.833 63.9674 101.785 60.5453C101.738 57.1233 104.391 54.3096 107.711 54.2608C111.031 54.212 113.761 56.9467 113.808 60.3686Z" fill="url(#paint18_linear_191_1235)"/>
<path d="M110.927 53.7684C111.426 54.7606 111.716 55.8845 111.732 57.0782C111.789 61.1784 108.61 64.5498 104.632 64.6084C103.474 64.6255 102.376 64.3592 101.399 63.8727C102.616 66.2882 105.08 67.9225 107.899 67.8812C111.877 67.8227 115.056 64.4514 115 60.351C114.959 57.4449 113.304 54.9527 110.927 53.7684Z" fill="url(#paint19_linear_191_1235)"/>
<path d="M65.0068 55.6998L56.718 68.05C56.288 68.6908 56.288 69.5392 56.718 70.1802L65.0068 82.5304C65.7288 83.6061 67.2713 83.6061 67.9932 82.5304L76.282 70.1802C76.712 69.5394 76.712 68.691 76.282 68.05L67.9932 55.6998C67.2713 54.6241 65.7288 54.6241 65.0068 55.6998Z" fill="url(#paint20_linear_191_1235)"/>
<path d="M65.1923 57.3651L57.9325 68.1822C57.5557 68.7433 57.5557 69.4865 57.9325 70.0478L65.1923 80.8649C65.8247 81.8071 67.1756 81.8071 67.8078 80.8649L75.0676 70.0478C75.4444 69.4867 75.4444 68.7435 75.0676 68.1822L67.8078 57.3651C67.1754 56.4229 65.8247 56.4229 65.1923 57.3651Z" fill="url(#paint21_linear_191_1235)"/>
<path d="M68.5317 58.4435C68.0071 57.662 66.8829 57.559 66.2931 58.2896C66.2624 58.3277 66.233 58.3675 66.205 58.4092L59.4494 68.4751C58.7695 69.4884 58.7695 70.83 59.4494 71.8433L65.8948 81.4469C66.5529 81.7245 67.3601 81.5322 67.8078 80.8651L75.0676 70.0481C75.4443 69.4867 75.4443 68.7435 75.0676 68.1824L68.5317 58.4435Z" fill="url(#paint22_linear_191_1235)"/>
<path d="M67.8077 57.3651C67.4472 56.8278 66.8533 56.5982 66.292 56.6735V81.5565C66.8533 81.6318 67.4472 81.4019 67.8077 80.8649L75.0675 70.0478C75.444 69.4867 75.444 68.7435 75.0675 68.1821L67.8077 57.3651Z" fill="url(#paint23_linear_191_1235)"/>
<path d="M65.1921 80.8649C65.8245 81.8071 67.1753 81.8071 67.8077 80.8649L75.0675 70.0478C75.2558 69.7673 75.3501 69.4412 75.3501 69.1149H57.6499C57.6499 69.441 57.744 69.7673 57.9323 70.0478L65.1921 80.8649Z" fill="url(#paint24_linear_191_1235)"/>
</g>
<defs>
<linearGradient id="paint0_linear_191_1235" x1="52.8312" y1="40.3149" x2="82.0444" y2="86.4009" gradientUnits="userSpaceOnUse">
<stop stop-color="#FFD945"/>
<stop offset="0.3043" stop-color="#FFCD3E"/>
<stop offset="0.8558" stop-color="#FFAD2B"/>
<stop offset="1" stop-color="#FFA325"/>
</linearGradient>
<linearGradient id="paint1_linear_191_1235" x1="79.5972" y1="84.707" x2="42.0721" y2="39.929" gradientUnits="userSpaceOnUse">
<stop stop-color="#FFD945"/>
<stop offset="0.3043" stop-color="#FFCD3E"/>
<stop offset="0.8558" stop-color="#FFAD2B"/>
<stop offset="1" stop-color="#FFA325"/>
</linearGradient>
<linearGradient id="paint2_linear_191_1235" x1="50.0165" y1="54.9245" x2="74.701" y2="78.8684" gradientUnits="userSpaceOnUse">
<stop stop-color="#FFD945"/>
<stop offset="0.3043" stop-color="#FFCD3E"/>
<stop offset="0.8558" stop-color="#FFAD2B"/>
<stop offset="1" stop-color="#FFA325"/>
</linearGradient>
<linearGradient id="paint3_linear_191_1235" x1="66.5003" y1="84.1024" x2="66.5003" y2="94.2435" gradientUnits="userSpaceOnUse">
<stop stop-color="#FFD945"/>
<stop offset="0.3043" stop-color="#FFCD3E"/>
<stop offset="0.8558" stop-color="#FFAD2B"/>
<stop offset="1" stop-color="#FFA325"/>
</linearGradient>
<linearGradient id="paint4_linear_191_1235" x1="66.5003" y1="93.3465" x2="66.5003" y2="103.488" gradientUnits="userSpaceOnUse">
<stop stop-color="#FFD945"/>
<stop offset="0.3043" stop-color="#FFCD3E"/>
<stop offset="0.8558" stop-color="#FFAD2B"/>
<stop offset="1" stop-color="#FFA325"/>
</linearGradient>
<linearGradient id="paint5_linear_191_1235" x1="63.8901" y1="34.6294" x2="70.9093" y2="44.1778" gradientUnits="userSpaceOnUse">
<stop stop-color="#FFD945"/>
<stop offset="0.3043" stop-color="#FFCD3E"/>
<stop offset="0.8558" stop-color="#FFAD2B"/>
<stop offset="1" stop-color="#FFA325"/>
</linearGradient>
<linearGradient id="paint6_linear_191_1235" x1="67.1619" y1="39.5087" x2="59.807" y2="28.2958" gradientUnits="userSpaceOnUse">
<stop stop-color="#FFD945" stop-opacity="0"/>
<stop offset="1" stop-color="#FBED21"/>
</linearGradient>
<linearGradient id="paint7_linear_191_1235" x1="66.7209" y1="40.983" x2="76.8339" y2="22.1099" gradientUnits="userSpaceOnUse">
<stop stop-color="#F35227" stop-opacity="0"/>
<stop offset="1" stop-color="#F35227"/>
</linearGradient>
<linearGradient id="paint8_linear_191_1235" x1="43.3261" y1="45.2367" x2="50.3453" y2="54.7852" gradientUnits="userSpaceOnUse">
<stop stop-color="#FFD945"/>
<stop offset="0.3043" stop-color="#FFCD3E"/>
<stop offset="0.8558" stop-color="#FFAD2B"/>
<stop offset="1" stop-color="#FFA325"/>
</linearGradient>
<linearGradient id="paint9_linear_191_1235" x1="46.598" y1="50.116" x2="39.243" y2="38.9029" gradientUnits="userSpaceOnUse">
<stop stop-color="#FFD945" stop-opacity="0"/>
<stop offset="1" stop-color="#FBED21"/>
</linearGradient>
<linearGradient id="paint10_linear_191_1235" x1="46.1634" y1="51.5886" x2="56.2762" y2="32.7153" gradientUnits="userSpaceOnUse">
<stop stop-color="#F35227" stop-opacity="0"/>
<stop offset="1" stop-color="#F35227"/>
</linearGradient>
<linearGradient id="paint11_linear_191_1235" x1="84.4474" y1="45.2516" x2="91.4665" y2="54.8001" gradientUnits="userSpaceOnUse">
<stop stop-color="#FFD945"/>
<stop offset="0.3043" stop-color="#FFCD3E"/>
<stop offset="0.8558" stop-color="#FFAD2B"/>
<stop offset="1" stop-color="#FFA325"/>
</linearGradient>
<linearGradient id="paint12_linear_191_1235" x1="87.7194" y1="50.131" x2="80.3644" y2="38.9179" gradientUnits="userSpaceOnUse">
<stop stop-color="#FFD945" stop-opacity="0"/>
<stop offset="1" stop-color="#FBED21"/>
</linearGradient>
<linearGradient id="paint13_linear_191_1235" x1="87.273" y1="51.6013" x2="97.3861" y2="32.7282" gradientUnits="userSpaceOnUse">
<stop stop-color="#F35227" stop-opacity="0"/>
<stop offset="1" stop-color="#F35227"/>
</linearGradient>
<linearGradient id="paint14_linear_191_1235" x1="22.5711" y1="56.8206" x2="29.5902" y2="66.369" gradientUnits="userSpaceOnUse">
<stop stop-color="#FFD945"/>
<stop offset="0.3043" stop-color="#FFCD3E"/>
<stop offset="0.8558" stop-color="#FFAD2B"/>
<stop offset="1" stop-color="#FFA325"/>
</linearGradient>
<linearGradient id="paint15_linear_191_1235" x1="25.8431" y1="61.6999" x2="18.4881" y2="50.4868" gradientUnits="userSpaceOnUse">
<stop stop-color="#FFD945" stop-opacity="0"/>
<stop offset="1" stop-color="#FBED21"/>
</linearGradient>
<linearGradient id="paint16_linear_191_1235" x1="25.4143" y1="63.1703" x2="35.5271" y2="44.2972" gradientUnits="userSpaceOnUse">
<stop stop-color="#F35227" stop-opacity="0"/>
<stop offset="1" stop-color="#F35227"/>
</linearGradient>
<linearGradient id="paint17_linear_191_1235" x1="105.194" y1="56.8506" x2="112.213" y2="66.3992" gradientUnits="userSpaceOnUse">
<stop stop-color="#FFD945"/>
<stop offset="0.3043" stop-color="#FFCD3E"/>
<stop offset="0.8558" stop-color="#FFAD2B"/>
<stop offset="1" stop-color="#FFA325"/>
</linearGradient>
<linearGradient id="paint18_linear_191_1235" x1="108.466" y1="61.7299" x2="101.111" y2="50.517" gradientUnits="userSpaceOnUse">
<stop stop-color="#FFD945" stop-opacity="0"/>
<stop offset="1" stop-color="#FBED21"/>
</linearGradient>
<linearGradient id="paint19_linear_191_1235" x1="108.015" y1="63.196" x2="118.128" y2="44.3229" gradientUnits="userSpaceOnUse">
<stop stop-color="#F35227" stop-opacity="0"/>
<stop offset="1" stop-color="#F35227"/>
</linearGradient>
<linearGradient id="paint20_linear_191_1235" x1="74.4962" y1="77.3586" x2="45.4197" y2="49.1544" gradientUnits="userSpaceOnUse">
<stop stop-color="#FFD945"/>
<stop offset="0.3043" stop-color="#FFCD3E"/>
<stop offset="0.8558" stop-color="#FFAD2B"/>
<stop offset="1" stop-color="#FFA325"/>
</linearGradient>
<linearGradient id="paint21_linear_191_1235" x1="61.6019" y1="65.2955" x2="73.8294" y2="74.267" gradientUnits="userSpaceOnUse">
<stop stop-color="#FF7044"/>
<stop offset="1" stop-color="#F82814"/>
</linearGradient>
<linearGradient id="paint22_linear_191_1235" x1="67.0443" y1="69.5775" x2="55.8813" y2="47.3703" gradientUnits="userSpaceOnUse">
<stop stop-color="#FF7044" stop-opacity="0"/>
<stop offset="1" stop-color="#FFA325"/>
</linearGradient>
<linearGradient id="paint23_linear_191_1235" x1="67.2517" y1="69.0957" x2="58.197" y2="54.7527" gradientUnits="userSpaceOnUse">
<stop stop-color="#F82814" stop-opacity="0"/>
<stop offset="1" stop-color="#C0272D"/>
</linearGradient>
<linearGradient id="paint24_linear_191_1235" x1="68.0614" y1="71.9751" x2="61.5054" y2="61.59" gradientUnits="userSpaceOnUse">
<stop stop-color="#F82814" stop-opacity="0"/>
<stop offset="1" stop-color="#C0272D"/>
</linearGradient>
<clipPath id="clip0_191_1235">
<rect width="97" height="100" fill="white" transform="translate(18 17)"/>
</clipPath>
</defs>
</svg>
