<svg width="106" height="35" viewBox="0 0 106 35" fill="none" xmlns="http://www.w3.org/2000/svg">
<path d="M0 23C0 18.5817 3.58172 15 8 15H98C102.418 15 106 18.5817 106 23V35H0V23Z" fill="url(#paint0_linear_996_4250)"/>
<path d="M40.2617 15.3747C39.6961 11.6984 39.1305 8.02217 38.565 4.34586C38.4395 3.53092 39.3668 2.9751 40.0264 3.46983C41.7885 4.7914 43.5505 6.11288 45.3126 7.43446C45.8928 7.86959 46.7193 7.72799 47.1215 7.12457L51.5224 0.523204C51.9875 -0.174401 53.0125 -0.174401 53.4775 0.523204L57.8784 7.12457C58.2806 7.72799 59.1072 7.8695 59.6874 7.43446C61.4495 6.11288 63.2115 4.7914 64.9736 3.46983C65.6332 2.9751 66.5604 3.53092 66.4351 4.34586C65.8695 8.02217 65.3039 11.6984 64.7383 15.3747L40.2617 15.3747Z" fill="#FDDB20"/>
<defs>
<linearGradient id="paint0_linear_996_4250" x1="58.8533" y1="15" x2="56.073" y2="34.6057" gradientUnits="userSpaceOnUse">
<stop stop-color="#FBCF26"/>
<stop offset="0.362613" stop-color="#FFCD3E"/>
<stop offset="0.762837" stop-color="#FFAD2B"/>
<stop offset="1" stop-color="#FFA426"/>
</linearGradient>
</defs>
</svg>
