<svg width="24" height="24" viewBox="0 0 24 24" fill="none" xmlns="http://www.w3.org/2000/svg">
<path fill-rule="evenodd" clip-rule="evenodd" d="M19.7495 9.8009C20.1645 9.8009 20.4995 10.1369 20.4995 10.5509C20.4995 15.1431 16.9749 18.9235 12.4998 19.3069L12.4995 21.75C12.4995 22.164 12.1635 22.5 11.7495 22.5C11.3355 22.5 10.9995 22.164 10.9995 21.75L11.0002 19.307C6.52465 18.924 2.99951 15.1434 2.99951 10.5509C2.99951 10.1369 3.33551 9.8009 3.74951 9.8009C4.16451 9.8009 4.49951 10.1369 4.49951 10.5509C4.49951 14.5689 7.75151 17.8389 11.7495 17.8389C15.7475 17.8389 18.9995 14.5689 18.9995 10.5509C18.9995 10.1369 19.3355 9.8009 19.7495 9.8009ZM11.7495 1C14.4025 1 16.5615 3.167 16.5615 5.831V10.519C16.5615 13.182 14.4025 15.349 11.7495 15.349C9.09651 15.349 6.93751 13.182 6.93751 10.519V5.831C6.93751 3.167 9.09651 1 11.7495 1ZM11.7495 2.5C9.92351 2.5 8.43751 3.994 8.43751 5.831V10.519C8.43751 12.354 9.92351 13.849 11.7495 13.849C13.5755 13.849 15.0615 12.354 15.0615 10.519V5.831C15.0615 3.994 13.5755 2.5 11.7495 2.5Z" fill="#7C7C7C"/>
</svg>
