<svg width="32" height="31" viewBox="0 0 32 31" fill="none" xmlns="http://www.w3.org/2000/svg">
<rect width="32" height="30.8936" rx="8" fill="#0061FF" fill-opacity="0.5"/>
<path d="M12.3686 12.6824C12.4354 12.6749 12.5795 12.6877 12.9222 12.8562C13.2605 13.0225 13.6931 13.288 14.3217 13.6748C14.9499 14.0615 15.3823 14.3283 15.6872 14.558C15.9922 14.7877 16.0888 14.9228 16.1265 15.0131C16.2415 15.2884 16.2415 15.6053 16.1265 15.8805C16.0888 15.9708 15.9922 16.1059 15.6872 16.3357C15.3823 16.5653 14.9499 16.8322 14.3217 17.2188C13.6931 17.6057 13.2605 17.8711 12.9222 18.0374C12.5795 18.2059 12.4354 18.2187 12.3686 18.2112C12.1205 18.1834 11.882 18.0433 11.7205 17.8063C11.6659 17.7263 11.6019 17.5628 11.567 17.1568C11.5325 16.7558 11.5319 16.2185 11.5319 15.4468C11.5319 14.6751 11.5325 14.1378 11.567 13.7369C11.6019 13.3309 11.6659 13.1673 11.7205 13.0873C11.882 12.8504 12.1205 12.7102 12.3686 12.6824Z" fill="white"/>
<path fill-rule="evenodd" clip-rule="evenodd" d="M13.4754 8H13.4182C12.2508 8 11.3356 7.99999 10.5999 8.0601C9.85089 8.1213 9.23207 8.24798 8.67196 8.53337C7.75117 9.00254 7.00254 9.75117 6.53337 10.672C6.24798 11.2321 6.1213 11.8509 6.0601 12.5999C5.99999 13.3356 6 14.2508 6 15.4182V15.4754C6 16.6428 5.99999 17.5581 6.0601 18.2937C6.1213 19.0427 6.24798 19.6615 6.53337 20.2217C7.00254 21.1424 7.75117 21.8911 8.67196 22.3602C9.23207 22.6456 9.85089 22.7723 10.5999 22.8335C11.3355 22.8936 12.2507 22.8936 13.4179 22.8936H13.4754C14.6427 22.8936 15.5581 22.8936 16.2937 22.8335C17.0427 22.7723 17.6615 22.6456 18.2217 22.3602C19.1424 21.8911 19.8911 21.1424 20.3602 20.2217C20.4028 20.1381 20.4419 20.0532 20.4777 19.9667C21.4706 20.4005 22.2838 20.7527 22.9438 20.9317C23.6458 21.1222 24.3297 21.1614 24.941 20.7614C25.5524 20.3614 25.7903 19.719 25.8968 18.9994C26 18.3027 26 17.3836 26 16.2555V14.6381C26 13.51 26 12.5909 25.8968 11.8942C25.7903 11.1746 25.5524 10.5323 24.941 10.1322C24.3297 9.73221 23.6458 9.77144 22.9438 9.96189C22.2838 10.1409 21.4707 10.4931 20.4777 10.9269C20.4419 10.8404 20.4028 10.7555 20.3602 10.672C19.8911 9.75117 19.1424 9.00254 18.2217 8.53337C17.6615 8.24798 17.0427 8.1213 16.2937 8.0601C15.5581 7.99999 14.6428 8 13.4754 8ZM14.9623 12.5701C14.3691 12.205 13.8848 11.9069 13.4854 11.7106C13.0841 11.5133 12.6662 11.3645 12.2264 11.4138C11.5908 11.485 11.0264 11.8389 10.6656 12.3683C10.4207 12.7276 10.335 13.1637 10.2951 13.6274C10.2553 14.0897 10.2553 14.6823 10.2553 15.4162V15.4774C10.2553 16.2113 10.2553 16.8039 10.2951 17.2662C10.335 17.7299 10.4207 18.166 10.6656 18.5253C11.0264 19.0547 11.5908 19.4086 12.2264 19.4798C12.6662 19.5291 13.0841 19.3803 13.4854 19.183C13.8848 18.9867 14.3691 18.6886 14.9623 18.3235L15.0185 18.2889C15.6123 17.9235 16.0965 17.6255 16.4552 17.3554C16.8193 17.0812 17.135 16.7783 17.3045 16.3725C17.551 15.7824 17.551 15.1112 17.3045 14.5211C17.135 14.1153 16.8193 13.8125 16.4552 13.5382C16.0965 13.2681 15.6123 12.9701 15.0185 12.6047L14.9623 12.5701Z" fill="white"/>
</svg>
