<svg width="20" height="20" viewBox="0 0 20 20" fill="none" xmlns="http://www.w3.org/2000/svg">
<g clip-path="url(#clip0_3464_15818)">
<path d="M17.4851 2.13052C16.9511 1.60275 16.2492 1.27874 15.5012 1.2148C14.7532 1.15086 14.0064 1.35103 13.3906 1.78052C15.3699 2.60461 16.9869 4.11308 17.9462 6.03052C18.3165 5.4225 18.4723 4.70791 18.3887 4.00094C18.3051 3.29397 17.9869 2.63541 17.4851 2.13052Z" fill="white"/>
<path d="M6.34358 1.90631C5.73038 1.4193 4.96012 1.17358 4.17817 1.21555C3.39623 1.25751 2.65669 1.58424 2.09913 2.13409C1.54618 2.6907 1.21868 3.4322 1.17971 4.21583C1.14073 4.99945 1.39303 5.76979 1.88802 6.37853C2.77943 4.39521 4.36361 2.80511 6.34358 1.90631Z" fill="white"/>
<path d="M9.1097 2.26858C7.65922 2.43803 6.28573 3.01241 5.14644 3.92599C4.00714 4.83957 3.14807 6.05545 2.66753 7.43448C2.18698 8.8135 2.10439 10.3 2.42919 11.7237C2.754 13.1475 3.47308 14.4511 4.50415 15.4852L3.08748 16.9019C3.03605 16.9544 2.99546 17.0166 2.96805 17.0848C2.94063 17.153 2.92692 17.226 2.92769 17.2995C2.92846 17.373 2.94371 17.4456 2.97256 17.5133C3.0014 17.5809 3.04329 17.6421 3.09582 17.6936C3.14834 17.745 3.21049 17.7856 3.2787 17.813C3.34692 17.8404 3.41986 17.8542 3.49337 17.8534C3.56689 17.8526 3.63953 17.8374 3.70715 17.8085C3.77477 17.7797 3.83605 17.7378 3.88748 17.6853L5.36526 16.2075C6.71667 17.2301 8.36696 17.7798 10.0617 17.7718C11.7564 17.7637 13.4014 17.1984 14.743 16.163L16.2653 17.6853C16.3715 17.7763 16.5082 17.8238 16.6481 17.8184C16.7879 17.813 16.9205 17.7551 17.0195 17.6561C17.1184 17.5572 17.1764 17.4245 17.1818 17.2847C17.1872 17.1449 17.1396 17.0082 17.0486 16.9019L15.5541 15.4297C16.6756 14.2809 17.4141 12.8133 17.6683 11.2281C17.9225 9.64295 17.68 8.01796 16.974 6.57612C16.268 5.13428 15.1331 3.94624 13.7251 3.17501C12.317 2.40378 10.7048 2.08716 9.1097 2.26858ZM10.8764 16.6075C9.49559 16.7883 8.09283 16.5322 6.86502 15.8752C5.63721 15.2181 4.64597 14.193 4.03047 12.9439C3.41497 11.6947 3.20609 10.2841 3.43316 8.91019C3.66024 7.53626 4.31186 6.26792 5.29656 5.28321C6.28126 4.29851 7.5496 3.64689 8.92354 3.41982C10.2975 3.19275 11.708 3.40162 12.9572 4.01713C14.2064 4.63263 15.2314 5.62386 15.8885 6.85167C16.5456 8.07949 16.8017 9.48224 16.6208 10.863C16.43 12.3197 15.7634 13.6725 14.7247 14.7113C13.6859 15.7501 12.333 16.4167 10.8764 16.6075Z" fill="white"/>
<path d="M13.8432 11.3035L10.4766 9.63681V5.28125C10.4766 5.14864 10.4239 5.02146 10.3301 4.9277C10.2363 4.83393 10.1092 4.78125 9.97656 4.78125C9.84395 4.78125 9.71678 4.83393 9.62301 4.9277C9.52924 5.02146 9.47656 5.14864 9.47656 5.28125V10.2812L13.3988 12.2257C13.5181 12.2839 13.6557 12.2923 13.7813 12.2491C13.9068 12.2058 14.01 12.1145 14.0682 11.9951C14.1264 11.8758 14.1348 11.7382 14.0916 11.6127C14.0484 11.4871 13.957 11.3839 13.8377 11.3257L13.8432 11.3035Z" fill="white"/>
</g>
<defs>
<clipPath id="clip0_3464_15818">
<rect width="20" height="20" fill="white"/>
</clipPath>
</defs>
</svg>
