<svg width="106" height="112" viewBox="0 0 106 112" fill="none" xmlns="http://www.w3.org/2000/svg">
<path d="M81.1617 14.9243C92.8738 23.6432 100.464 37.6072 100.464 53.3479C100.464 53.7972 100.456 54.2414 100.443 54.6881C97.0444 32.9269 83.2124 25.0219 83.2124 25.0219C77.1193 21.4558 76.5169 25.8666 76.5169 25.8666C75.9735 31.0013 84.1763 29.733 84.1763 29.733C98.9003 42.1592 99.918 56.5084 99.5232 62.8319C98.3338 68.7548 96.0524 74.285 92.8995 79.1964C100.369 59.312 92.7559 45.923 92.7559 45.923C89.3287 39.7484 86.5653 43.235 86.5653 43.235C83.4867 47.3762 91.1897 50.4699 91.1897 50.4699C96.7291 66.3492 92.5483 78.1669 89.0287 84.4057C80.2671 94.6804 67.24 101.194 52.6928 101.194C40.9346 101.194 30.171 96.9371 21.8477 89.8793C24.3419 89.6098 27.9434 90.2978 27.9434 90.2978C30.2043 91.0218 46.7176 94.1027 50.3345 94.6008C53.9515 95.0988 56.5764 94.6008 56.5764 94.6008C59.878 93.6945 86.7038 79.1502 86.7038 79.1502C89.9157 77.1553 89.4184 75.751 89.4184 75.751C89.3287 73.8049 84.9863 73.7587 84.9863 73.7587C81.413 73.6688 63.2283 80.3286 63.2283 80.3286C66.5761 81.9589 65.7174 84.8139 65.7174 84.8139C65.8071 87.1682 59.655 88.4827 59.655 88.4827C47.3508 88.5751 45.6179 87.2606 45.6179 87.2606C56.5943 87.7458 60.6957 86.4159 60.6957 86.4159C66.125 84.9679 62.144 81.7048 62.144 81.7048C60.3343 80.4955 55.269 79.7715 55.269 79.7715C50.8062 79.2863 47.3072 78.4159 47.3072 78.4159C43.6903 77.5456 38.261 76.1463 38.261 76.1463H30.6606C23.2217 76.3851 17.3413 78.267 14.1755 79.5302C11.6454 72.8113 10.1305 62.9782 14.4036 50.7266C14.4036 50.7266 22.1066 47.6329 19.028 43.4917C19.028 43.4917 16.2647 40.0052 12.8374 46.1798C12.8374 46.1798 5.18828 59.6303 12.7477 79.5918C9.37428 74.4519 6.96471 68.6213 5.77274 62.3595C5.46257 55.8177 6.77758 41.8588 21.1479 29.733C21.1479 29.733 29.3507 31.0013 28.8073 25.8666C28.8073 25.8666 28.2049 21.4558 22.1117 25.0219C22.1117 25.0219 8.43352 32.837 4.93707 54.3235C4.92938 54 4.92426 53.674 4.92426 53.3479C4.92426 37.3608 12.7554 23.2067 24.7853 14.5187C9.90234 23.8357 0 40.3903 0 59.2657C0 88.3902 23.5728 112 52.6518 112C81.7308 112 105.304 88.3902 105.304 59.2657C105.304 40.6624 95.6858 24.3133 81.1617 14.9243Z" fill="white"/>
<path d="M61.9435 23.3812L69.6336 6.07445C69.6336 6.07445 61.5513 11.7535 58.4445 15.0141C58.4445 15.0141 61.5205 15.1348 61.0079 17.3992C61.0079 17.3992 61.3103 20.4493 58.747 20.6007C56.1836 20.7522 54.4046 19.905 54.5558 17.0372C54.5558 17.0372 53.3792 11.3273 57.9626 10.8139L52.8666 0L47.7091 10.8729C47.7091 10.8729 50.9056 10.6316 51.0261 13.5019L51.0568 17.3684C51.0568 17.3684 50.6646 20.6598 48.373 20.6316C48.373 20.6316 45.1149 21.0244 44.9662 18.516C44.9662 18.516 43.6102 15.0115 47.5604 14.801L36.3123 6.01026L43.3513 23.3812C43.3513 23.3812 52.1129 19.4839 61.9435 23.3812Z" fill="white"/>
<path d="M32.4806 65.6506C32.6114 65.8175 32.7447 65.9844 32.8805 66.1487C32.8985 66.1718 32.919 66.1949 32.9369 66.2155C33.0523 66.3541 33.1676 66.4902 33.2855 66.6263C33.3266 66.6725 33.3676 66.7187 33.4086 66.7649C33.506 66.8753 33.6034 66.9857 33.7034 67.0935C33.7521 67.1474 33.8033 67.2014 33.852 67.2553C33.9443 67.3554 34.0366 67.4529 34.1315 67.5505C34.1853 67.607 34.2417 67.6635 34.2955 67.72C34.3878 67.8124 34.4775 67.9074 34.5698 67.9972C34.6262 68.0537 34.6851 68.1102 34.7441 68.1667C34.8364 68.2565 34.9287 68.3438 35.0209 68.4337C35.0799 68.4902 35.1414 68.5467 35.2029 68.6031C35.2952 68.6904 35.3901 68.7752 35.4849 68.8599C35.5464 68.9164 35.608 68.9703 35.6695 69.0242C35.7643 69.1089 35.8592 69.1911 35.9566 69.2732C36.0207 69.3271 36.0822 69.3811 36.1463 69.435C36.2437 69.5171 36.3411 69.5967 36.4411 69.6763C36.5051 69.7277 36.5692 69.779 36.6333 69.8304C36.7333 69.9099 36.8358 69.9895 36.9384 70.0691C37.0024 70.1179 37.064 70.1667 37.128 70.2155C37.2331 70.295 37.3408 70.3746 37.4459 70.4517C37.5074 70.4979 37.5689 70.5415 37.6305 70.5877C37.7433 70.6673 37.856 70.7469 37.9688 70.8265C38.0278 70.8676 38.0842 70.9086 38.1431 70.9472C38.2662 71.0293 38.3892 71.1115 38.5123 71.1936C38.5635 71.227 38.6148 71.263 38.6661 71.2963C38.8071 71.3862 38.9506 71.4761 39.0916 71.5659C39.1275 71.5864 39.1608 71.6096 39.1967 71.6327C43.0059 73.9613 47.4841 75.3015 52.2725 75.3015C55.8458 75.3015 59.2423 74.5544 62.3209 73.209C63.9871 72.4799 65.5585 71.5762 67.0145 70.521C67.0145 70.521 67.0171 70.521 67.0171 70.5184C67.5015 70.1667 67.9706 69.7995 68.4269 69.417C68.4295 69.4144 68.4321 69.4119 68.4372 69.4093C68.8909 69.0268 69.3318 68.6314 69.7573 68.218C69.7624 68.2129 69.7676 68.2078 69.7753 68.2026C70.1982 67.7919 70.6058 67.3682 70.998 66.9292C71.0057 66.9215 71.0134 66.9112 71.0211 66.9035C71.2133 66.6904 71.4004 66.4722 71.585 66.2514C71.5901 66.2463 71.5927 66.2411 71.5978 66.236C71.7849 66.0126 71.9669 65.7841 72.1464 65.5531C72.1566 65.5402 72.1669 65.5274 72.1771 65.5146C72.3463 65.2963 72.5104 65.0755 72.6719 64.8496C72.6821 64.8342 72.695 64.8188 72.7052 64.8034C72.8718 64.5698 73.0359 64.3336 73.1948 64.0948C73.2076 64.0768 73.2179 64.0589 73.2281 64.0435C73.3743 63.8227 73.5204 63.5967 73.6588 63.3708C73.6742 63.3451 73.6921 63.3194 73.7075 63.2938C73.8562 63.0524 73.9997 62.8111 74.1381 62.5646C74.151 62.5441 74.1612 62.521 74.174 62.5005C74.3022 62.2745 74.4252 62.0486 74.5457 61.8201C74.5637 61.7841 74.5842 61.7482 74.6021 61.7123C74.7303 61.4658 74.8559 61.2142 74.9764 60.9626C74.9892 60.9369 74.9994 60.9138 75.0122 60.8881C75.1199 60.6596 75.225 60.4286 75.3275 60.1949C75.348 60.1513 75.366 60.1051 75.3865 60.0614C75.4967 59.8073 75.6018 59.5505 75.7018 59.2912C75.712 59.2655 75.7223 59.2373 75.7326 59.2116C75.8223 58.978 75.9094 58.7444 75.9915 58.5082C76.0094 58.4542 76.0299 58.4003 76.0479 58.3464C76.1376 58.0871 76.2247 57.8252 76.3042 57.5608C76.3119 57.5325 76.3196 57.5043 76.3298 57.4761C76.4016 57.2373 76.4708 56.9985 76.5375 56.7572C76.5528 56.6956 76.5708 56.6365 76.5862 56.5749C76.6554 56.3079 76.7246 56.0409 76.7861 55.7713C76.7912 55.7456 76.7964 55.72 76.804 55.6917C76.8604 55.4453 76.9117 55.1988 76.9579 54.9498C76.9707 54.883 76.9835 54.8188 76.9963 54.7521C77.0476 54.4799 77.0937 54.2052 77.1373 53.9305C77.1399 53.91 77.1424 53.8894 77.145 53.8663C77.1834 53.6096 77.2168 53.3503 77.2475 53.091C77.2552 53.0216 77.2629 52.9523 77.2706 52.883C77.3013 52.6032 77.3295 52.3233 77.35 52.0435C77.35 52.0306 77.3526 52.0178 77.3526 52.005C77.3731 51.7354 77.3859 51.4632 77.3988 51.1911C77.4013 51.1192 77.4039 51.0473 77.4064 50.9754C77.4167 50.6904 77.4218 50.4055 77.4218 50.1179C77.4218 44.4671 75.5634 39.2502 72.4258 35.0473C72.3053 34.8856 72.1823 34.7264 72.0592 34.5672C70.816 32.9806 69.3856 31.548 67.8015 30.3028C67.4836 30.0538 67.1632 29.8124 66.8325 29.5788C66.5044 29.3452 66.1686 29.1192 65.8302 28.901C65.661 28.7906 65.4893 28.6853 65.315 28.5801C64.6229 28.159 63.9102 27.7714 63.1771 27.4171C59.8781 25.8253 56.1817 24.9344 52.2751 24.9344C52.0341 24.9344 51.7931 24.9395 51.5548 24.9447C51.4779 24.9472 51.4035 24.9498 51.3266 24.9524C51.1626 24.9575 50.9985 24.9652 50.837 24.9755C50.7498 24.9806 50.6627 24.9857 50.573 24.9934C50.4192 25.0037 50.2654 25.0165 50.1141 25.0294C50.027 25.0371 49.9398 25.0448 49.8552 25.0525C49.6937 25.0679 49.5322 25.0859 49.3707 25.1038C49.2964 25.1115 49.2246 25.1192 49.1503 25.1295C48.9222 25.1577 48.6915 25.1886 48.4659 25.2245C48.4633 25.2245 48.4582 25.2245 48.4556 25.2271C48.2224 25.263 47.9891 25.3015 47.7584 25.3452C47.6943 25.358 47.6277 25.3708 47.5636 25.3837C47.3995 25.4145 47.2329 25.4479 47.0688 25.4812C46.9919 25.4966 46.915 25.5146 46.8381 25.5326C46.6843 25.566 46.5305 25.6019 46.3767 25.6404C46.3024 25.6584 46.2255 25.6764 46.1511 25.6969C45.9871 25.738 45.8256 25.7816 45.6615 25.8253C45.6 25.8407 45.5385 25.8586 45.4795 25.874C45.0284 25.9998 44.5824 26.1385 44.144 26.29C44.1004 26.3054 44.0569 26.3208 44.0133 26.3362C43.839 26.3978 43.6647 26.4594 43.4904 26.5236C43.4314 26.5467 43.3724 26.5698 43.3109 26.5904C43.1494 26.652 42.9905 26.7136 42.8316 26.7803C42.7726 26.8034 42.7162 26.8265 42.6573 26.8522C42.4881 26.9241 42.3189 26.996 42.1497 27.0705C42.1087 27.0884 42.0677 27.1064 42.0267 27.1244C41.596 27.3169 41.1705 27.5223 40.7552 27.738C40.7399 27.7457 40.7245 27.7559 40.7065 27.7636C40.5168 27.8612 40.3323 27.9613 40.1451 28.064C40.1067 28.0846 40.0682 28.1077 40.0298 28.1282C39.8632 28.2206 39.6965 28.3156 39.5325 28.4132C39.494 28.4363 39.4556 28.4594 39.4171 28.4825C39.2428 28.5878 39.0685 28.693 38.8942 28.8034C38.8737 28.8163 38.8532 28.8291 38.8301 28.8419C38.2303 29.2219 37.6484 29.6276 37.0845 30.0563C37.0665 30.0692 37.0486 30.0846 37.0281 30.1C36.8589 30.2283 36.6923 30.3593 36.5257 30.4928C36.5051 30.5082 36.4846 30.5262 36.4641 30.5416C36.2898 30.6828 36.1155 30.8265 35.9463 30.9729C35.9412 30.9754 35.9386 30.9806 35.9335 30.9832C35.3875 31.4504 34.862 31.9434 34.357 32.4543C34.3519 32.4594 34.3468 32.4645 34.3416 32.4697C34.1802 32.634 34.0238 32.7983 33.8674 32.9677C33.8572 32.978 33.8469 32.9883 33.8392 32.9986C33.1881 33.702 32.578 34.4389 32.009 35.2142C31.8859 35.3837 31.7629 35.5531 31.6424 35.7251C31.627 35.7482 31.6116 35.7713 31.5963 35.7944C28.7791 39.8638 27.1257 44.8034 27.1257 50.1308C27.1257 55.9741 29.1277 61.3682 32.4806 65.6506ZM50.2167 52.1975C50.2167 52.1975 51.4522 50.8291 50.5807 49.7816C49.7091 48.7341 51.6855 47.2219 52.3391 47.2347C52.9928 47.2501 53.5157 46.6673 53.3132 44.9369C53.3132 44.9369 51.9905 43.7585 54.0541 43.4966L55.8689 42.4774C55.8689 42.4774 56.4636 42.2155 56.0586 40.9498L55.8997 39.4376C55.8997 39.4376 54.418 39.0602 54.6206 37.5172C54.8231 35.9742 54.7667 35.7996 54.7667 35.7996C54.7667 35.7996 54.9128 34.8111 56.1893 34.8984C57.4685 34.9857 57.9042 35.2758 59.0065 34.6366C60.1113 33.9973 61.593 34.4029 61.593 34.4029C61.593 34.4029 63.4822 35.7713 63.5693 36.3516C63.6565 36.9344 64.6152 35.9434 64.6152 35.9434C64.6152 35.9434 65.4585 37.5736 67.2298 37.3118C67.2298 37.3118 68.2962 37.4427 69.278 38.598C69.278 38.598 69.5164 38.7572 69.6035 38.1025C69.6907 37.4478 69.988 39.9125 69.988 39.9125C69.988 39.9125 70.4597 40.7701 71.7234 40.4209C72.9872 40.0717 70.6776 43.2861 70.6776 43.2861C70.6776 43.2861 70.5468 43.5557 71.0621 43.453C71.5773 43.3503 70.2495 44.3901 67.5913 44.1C67.5913 44.1 66.5608 44.2463 66.0661 45.1192C65.5713 45.9921 63.5232 45.9767 62.2748 48.3926C62.2748 48.3926 62.7824 49.5274 61.7083 50.8368C61.7083 50.8368 62.3773 52.0152 64.1768 52.0152C64.1768 52.0152 65.0202 52.6545 63.7411 53.0191C62.4619 53.3836 65.7302 53.892 66.0225 52.729C66.0225 52.729 66.9966 53.0062 67.053 54.3721C67.053 54.3721 68.4756 53.8329 68.8114 54.5903L69.7112 53.9947L70.1623 54.5903C70.1623 54.5903 68.796 57.5865 66.5018 57.3965C66.5018 57.3965 65.3534 57.5993 64.8741 58.2976C64.8741 58.2976 63.0002 58.5877 62.3748 59.0396C61.7493 59.4915 59.9498 61.6301 60.0062 63.9279C60.0062 63.9279 60.0344 65.1654 58.9322 66.0948C57.8299 67.0242 59.3244 68.1307 59.8473 68.0306C60.3702 67.9279 60.7188 68.0383 60.7188 68.0383C60.7188 68.0383 61.5109 70.0768 62.0544 72.0897C59.0629 73.4016 55.7561 74.1333 52.2776 74.1333C48.1942 74.1333 44.3491 73.1295 40.9757 71.358C41.4704 70.7546 42.1471 70.0563 43.0443 69.4016C43.0443 69.4016 41.9113 68.064 44.1491 68.3695C46.387 68.675 45.9512 67.2938 45.9512 67.2938C45.9512 67.2938 46.8227 67.1474 46.9099 66.7264C46.9971 66.3053 45.8487 65.9562 45.8487 65.9562C45.8487 65.9562 47.6943 65.607 47.9558 64.9805C48.2172 64.3541 48.1301 64.3849 48.8555 63.8612C48.8555 63.8612 46.6766 62.2899 49.4374 61.2861L48.3633 59.4966C48.3633 59.4966 49.4682 60.1076 49.2349 57.2861C49.2349 57.2861 49.8604 57.0524 49.9475 56.2668C50.0347 55.4812 50.2372 54.711 51.0523 53.7508C51.8572 52.7931 50.2167 52.1975 50.2167 52.1975ZM33.06 35.4966L33.1522 35.5557C33.1522 35.5557 33.5214 35.7277 33.3701 35.1295C33.3676 35.1218 33.3676 35.1167 33.365 35.109C33.4932 34.9498 33.6239 34.7932 33.7572 34.6366C33.9007 34.6802 34.0725 34.7829 34.2622 34.9446C34.2622 34.9446 35.0235 35.2065 35.4388 34.9652C35.4388 34.9652 35.831 34.901 35.4388 34.3772C35.0466 33.8535 37.5741 35.6866 37.5741 35.6866C37.5741 35.6866 37.8355 36.2745 38.379 35.4042C38.9224 34.5339 40.6014 34.2925 41.0372 34.5749C41.0372 34.5749 42.9982 34.8805 43.0418 34.598C43.0853 34.3156 43.4545 34.0101 44.2824 34.0974C45.1104 34.1847 46.2204 35.0781 46.2204 35.0781C46.2204 35.0781 46.3716 35.3606 46.4152 34.7084C46.4587 34.0538 47.9609 34.7521 47.9609 34.7521L49.158 34.883C49.158 34.883 50.0731 35.4068 49.158 36.693C49.158 36.693 48.8529 37.4992 49.6578 38.1975C49.6578 38.1975 50.0065 38.96 49.4195 39.9202C49.4195 39.9202 49.3528 40.29 49.9193 40.3336C50.4858 40.3772 49.0913 41.4016 49.0913 41.4016C49.0913 41.4016 48.3505 41.6635 48.7427 42.2745C49.1349 42.8856 49.0683 42.9292 47.7404 43.5839L47.1534 44.1513L45.7589 41.9254C45.7589 41.9254 45.5411 41.6635 45.1284 41.8817C45.1284 41.8817 44.0825 39.2193 42.8187 41.0319C42.8187 41.0319 41.6216 41.4016 41.3602 40.1154C41.0987 38.8291 38.4841 43.8252 38.8763 44.7418C39.2685 45.6584 39.3992 46.1821 40.3579 46.5518C40.3579 46.5518 40.9449 47.0961 40.9244 47.7739C40.9244 47.7739 42.406 48.0563 42.5368 48.6673C42.6675 49.2784 43.7775 48.4722 43.7775 48.4722C43.7775 48.4722 44.8233 48.5159 43.9723 49.5634C43.1238 50.6109 44.3209 50.5878 44.3209 50.5878C44.3209 50.5878 44.8874 50.7187 43.6237 51.5249C43.6237 51.5249 43.275 53.4453 42.1856 52.2232C42.1856 52.2232 41.8857 50.6314 40.4681 51.7662C40.4681 51.7662 39.9862 52.6391 39.2454 51.9177C39.2454 51.9177 38.6789 51.6353 38.4174 52.4851C38.4174 52.4851 37.5689 51.7867 36.7845 51.6558C36.0002 51.5248 36.5462 52.8111 36.5462 52.8111C36.5462 52.8111 35.3491 53.4427 36.1975 53.9896C37.046 54.5338 37.6997 54.4029 37.1768 55.2989C36.6538 56.1924 38.0919 56.7392 38.0919 56.7392C38.0919 56.7392 38.0688 58.0922 36.8948 59.5094C36.8948 59.5094 36.5462 59.5967 37.2639 60.2514C37.2639 60.2514 37.7202 61.7559 36.1309 61.7559C34.5416 61.7559 34.6288 62.693 34.6288 62.693C34.6288 62.693 34.9774 63.6737 35.9566 63.5865C36.9358 63.4992 33.7777 65.3528 33.7777 65.3528C33.7777 65.3528 33.5829 65.5711 33.9084 65.6352C33.929 65.6404 33.8931 65.6429 33.811 65.6429C30.2274 61.453 28.0639 56.0281 28.0639 50.0999C28.0691 44.6109 29.9301 39.548 33.06 35.4966Z" fill="white"/>
</svg>
