<svg width="96" height="96" viewBox="0 0 96 96" fill="none" xmlns="http://www.w3.org/2000/svg">
<g clip-path="url(#clip0_4220_22752)">
<path d="M48.0001 71.9983C50.8561 71.9983 53.4801 72.9983 55.5441 74.6623L48.0001 83.9983L40.4561 74.6623C42.5899 72.9338 45.254 71.993 48.0001 71.9983ZM11.2321 5.57031L81.9401 76.2823L76.2841 81.9383L61.5561 67.2183L60.5681 68.4423C57.0135 65.5616 52.5755 63.9923 48.0001 63.9983C43.4266 63.9921 38.9902 65.5599 35.4361 68.4383L27.8961 59.1023C33.1523 54.8442 39.6277 52.37 46.3841 52.0383L39.2921 44.9503C33.2782 46.2879 27.6564 49.0017 22.8681 52.8783L15.3201 43.5463C19.6313 40.0552 24.474 37.2773 29.6641 35.3183L23.5401 29.1983C18.7934 31.3212 14.3428 34.052 10.3001 37.3223L2.7561 27.9863C6.4161 25.0263 10.3681 22.4223 14.5641 20.2183L5.5721 11.2303L11.2321 5.57031ZM64.3361 47.4783L48.8641 32.0103L48.0001 31.9983C60.3801 31.9983 71.7481 36.3223 80.6801 43.5463L73.1361 52.8823C70.4488 50.7069 67.4908 48.8891 64.3361 47.4743V47.4783ZM48.0001 11.9983C65.1401 11.9983 80.8801 17.9863 93.2401 27.9863L85.7041 37.3183C75.039 28.6796 61.7249 23.976 48.0001 23.9983C45.7121 23.9983 43.4561 24.1263 41.2401 24.3743L30.8921 14.0423C36.3761 12.7063 42.1081 11.9983 48.0001 11.9983Z" fill="#E6E6E6"/>
</g>
<defs>
<clipPath id="clip0_4220_22752">
<rect width="96" height="96" fill="white"/>
</clipPath>
</defs>
</svg>
