<svg width="16" height="17" viewBox="0 0 16 17" fill="none" xmlns="http://www.w3.org/2000/svg">
<path d="M8 1.83334C9.66752 3.65891 10.6152 6.02803 10.6667 8.50001C10.6152 10.972 9.66752 13.3411 8 15.1667M8 1.83334C6.33247 3.65891 5.38483 6.02803 5.33333 8.50001C5.38483 10.972 6.33247 13.3411 8 15.1667M8 1.83334C4.3181 1.83334 1.33333 4.81811 1.33333 8.50001C1.33333 12.1819 4.3181 15.1667 8 15.1667M8 1.83334C11.6819 1.83334 14.6667 4.81811 14.6667 8.50001C14.6667 12.1819 11.6819 15.1667 8 15.1667M1.66667 6.50001H14.3333M1.66666 10.5H14.3333" stroke="#475467" stroke-linecap="round" stroke-linejoin="round"/>
</svg>
